<svg width="3450" height="2210" viewBox="0 0 3450 2210" fill="none" xmlns="http://www.w3.org/2000/svg">
<path d="M956.856 258H944.907L940.157 245.643H918.411L913.921 258H902.268L923.458 203.598H935.073L956.856 258ZM936.632 236.477L929.136 216.289L921.788 236.477H936.632ZM961.997 258V203.598H985.116C990.93 203.598 995.148 204.092 997.77 205.082C1000.42 206.047 1002.53 207.779 1004.12 210.277C1005.7 212.776 1006.49 215.633 1006.49 218.85C1006.49 222.932 1005.29 226.309 1002.89 228.98C1000.49 231.628 996.904 233.298 992.129 233.99C994.504 235.376 996.459 236.897 997.993 238.555C999.551 240.212 1001.64 243.156 1004.26 247.387L1010.91 258H997.77L989.829 246.162C987.008 241.932 985.079 239.272 984.04 238.184C983.001 237.07 981.9 236.316 980.737 235.92C979.574 235.499 977.731 235.289 975.208 235.289H972.981V258H961.997ZM972.981 226.605H981.108C986.378 226.605 989.668 226.383 990.979 225.938C992.29 225.492 993.317 224.725 994.059 223.637C994.801 222.548 995.172 221.188 995.172 219.555C995.172 217.724 994.678 216.252 993.688 215.139C992.723 214.001 991.35 213.283 989.569 212.986C988.678 212.863 986.006 212.801 981.553 212.801H972.981V226.605ZM1015.97 258V203.598H1032.41L1042.28 240.707L1052.04 203.598H1068.52V258H1058.31V215.176L1047.52 258H1036.94L1026.18 215.176V258H1015.97ZM1078.67 258V203.598H1119.01V212.801H1089.65V224.861H1116.97V234.027H1089.65V248.834H1120.05V258H1078.67ZM1128.56 203.598H1148.64C1153.17 203.598 1156.62 203.944 1158.99 204.637C1162.19 205.577 1164.92 207.247 1167.2 209.646C1169.47 212.046 1171.2 214.99 1172.39 218.479C1173.58 221.942 1174.17 226.222 1174.17 231.318C1174.17 235.796 1173.62 239.656 1172.5 242.896C1171.14 246.855 1169.2 250.059 1166.68 252.508C1164.77 254.363 1162.2 255.811 1158.96 256.85C1156.53 257.617 1153.29 258 1149.23 258H1128.56V203.598ZM1139.55 212.801V248.834H1147.75C1150.82 248.834 1153.03 248.661 1154.39 248.314C1156.17 247.869 1157.65 247.115 1158.81 246.051C1160 244.987 1160.96 243.243 1161.7 240.818C1162.45 238.369 1162.82 235.042 1162.82 230.836C1162.82 226.63 1162.45 223.402 1161.7 221.15C1160.96 218.899 1159.92 217.143 1158.59 215.881C1157.25 214.619 1155.56 213.766 1153.5 213.32C1151.97 212.974 1148.96 212.801 1144.48 212.801H1139.55ZM1179.98 240.299L1190.67 239.26C1191.31 242.847 1192.61 245.482 1194.56 247.164C1196.54 248.846 1199.2 249.688 1202.54 249.688C1206.08 249.688 1208.74 248.945 1210.52 247.461C1212.33 245.952 1213.23 244.195 1213.23 242.191C1213.23 240.905 1212.85 239.816 1212.08 238.926C1211.34 238.01 1210.03 237.219 1208.15 236.551C1206.86 236.105 1203.93 235.314 1199.35 234.176C1193.46 232.716 1189.33 230.923 1186.96 228.795C1183.62 225.801 1181.95 222.152 1181.95 217.848C1181.95 215.077 1182.73 212.492 1184.28 210.092C1185.87 207.667 1188.13 205.824 1191.08 204.562C1194.04 203.301 1197.62 202.67 1201.8 202.67C1208.63 202.67 1213.76 204.167 1217.2 207.16C1220.66 210.154 1222.48 214.149 1222.66 219.146L1211.67 219.629C1211.2 216.833 1210.19 214.829 1208.63 213.617C1207.09 212.38 1204.78 211.762 1201.69 211.762C1198.5 211.762 1196 212.417 1194.19 213.729C1193.03 214.57 1192.45 215.695 1192.45 217.105C1192.45 218.392 1192.99 219.493 1194.08 220.408C1195.47 221.571 1198.83 222.783 1204.18 224.045C1209.52 225.307 1213.47 226.618 1216.01 227.979C1218.59 229.314 1220.59 231.158 1222.03 233.508C1223.48 235.833 1224.21 238.715 1224.21 242.154C1224.21 245.271 1223.35 248.191 1221.62 250.912C1219.89 253.633 1217.44 255.662 1214.27 256.998C1211.1 258.309 1207.16 258.965 1202.43 258.965C1195.55 258.965 1190.27 257.382 1186.59 254.215C1182.9 251.023 1180.7 246.385 1179.98 240.299ZM1281.75 258H1269.8L1265.05 245.643H1243.31L1238.82 258H1227.17L1248.35 203.598H1259.97L1281.75 258ZM1261.53 236.477L1254.03 216.289L1246.68 236.477H1261.53ZM1286.93 258V203.598H1324.23V212.801H1297.92V225.678H1320.63V234.881H1297.92V258H1286.93ZM1332.56 258V203.598H1372.9V212.801H1343.54V224.861H1370.85V234.027H1343.54V248.834H1373.93V258H1332.56ZM1400.1 240.299L1410.79 239.26C1411.43 242.847 1412.73 245.482 1414.68 247.164C1416.66 248.846 1419.32 249.688 1422.66 249.688C1426.2 249.688 1428.86 248.945 1430.64 247.461C1432.45 245.952 1433.35 244.195 1433.35 242.191C1433.35 240.905 1432.96 239.816 1432.2 238.926C1431.46 238.01 1430.14 237.219 1428.26 236.551C1426.98 236.105 1424.05 235.314 1419.47 234.176C1413.58 232.716 1409.45 230.923 1407.07 228.795C1403.73 225.801 1402.06 222.152 1402.06 217.848C1402.06 215.077 1402.84 212.492 1404.4 210.092C1405.99 207.667 1408.25 205.824 1411.19 204.562C1414.16 203.301 1417.74 202.67 1421.92 202.67C1428.75 202.67 1433.88 204.167 1437.32 207.16C1440.78 210.154 1442.6 214.149 1442.77 219.146L1431.79 219.629C1431.32 216.833 1430.31 214.829 1428.75 213.617C1427.21 212.38 1424.9 211.762 1421.81 211.762C1418.62 211.762 1416.12 212.417 1414.31 213.729C1413.15 214.57 1412.57 215.695 1412.57 217.105C1412.57 218.392 1413.11 219.493 1414.2 220.408C1415.59 221.571 1418.95 222.783 1424.29 224.045C1429.64 225.307 1433.58 226.618 1436.13 227.979C1438.7 229.314 1440.71 231.158 1442.14 233.508C1443.6 235.833 1444.33 238.715 1444.33 242.154C1444.33 245.271 1443.47 248.191 1441.73 250.912C1440 253.633 1437.55 255.662 1434.39 256.998C1431.22 258.309 1427.27 258.965 1422.55 258.965C1415.67 258.965 1410.39 257.382 1406.7 254.215C1403.02 251.023 1400.82 246.385 1400.1 240.299ZM1460.53 230.613L1451.07 228.906C1452.13 225.096 1453.96 222.276 1456.56 220.445C1459.16 218.615 1463.02 217.699 1468.14 217.699C1472.79 217.699 1476.25 218.256 1478.53 219.369C1480.81 220.458 1482.4 221.855 1483.32 223.562C1484.26 225.245 1484.73 228.35 1484.73 232.877L1484.62 245.049C1484.62 248.512 1484.78 251.073 1485.1 252.73C1485.44 254.363 1486.08 256.12 1486.99 258H1476.67C1476.4 257.307 1476.07 256.281 1475.67 254.92C1475.5 254.301 1475.38 253.893 1475.3 253.695C1473.52 255.427 1471.61 256.726 1469.59 257.592C1467.56 258.458 1465.39 258.891 1463.09 258.891C1459.03 258.891 1455.83 257.79 1453.48 255.588C1451.16 253.386 1449.99 250.603 1449.99 247.238C1449.99 245.012 1450.52 243.033 1451.59 241.301C1452.65 239.544 1454.14 238.208 1456.04 237.293C1457.97 236.353 1460.74 235.536 1464.35 234.844C1469.23 233.928 1472.6 233.075 1474.48 232.283V231.244C1474.48 229.24 1473.99 227.818 1473 226.977C1472.01 226.111 1470.14 225.678 1467.4 225.678C1465.54 225.678 1464.09 226.049 1463.05 226.791C1462.02 227.508 1461.17 228.783 1460.53 230.613ZM1474.48 239.074C1473.15 239.52 1471.03 240.051 1468.14 240.67C1465.24 241.288 1463.35 241.895 1462.46 242.488C1461.1 243.453 1460.42 244.678 1460.42 246.162C1460.42 247.622 1460.96 248.883 1462.05 249.947C1463.14 251.011 1464.53 251.543 1466.21 251.543C1468.09 251.543 1469.88 250.924 1471.59 249.688C1472.85 248.747 1473.68 247.597 1474.08 246.236C1474.35 245.346 1474.48 243.651 1474.48 241.152V239.074ZM1489.72 218.59H1495.51V215.621C1495.51 212.306 1495.85 209.832 1496.55 208.199C1497.26 206.566 1498.56 205.243 1500.44 204.229C1502.35 203.189 1504.75 202.67 1507.64 202.67C1510.61 202.67 1513.52 203.115 1516.36 204.006L1514.95 211.279C1513.3 210.883 1511.7 210.686 1510.17 210.686C1508.66 210.686 1507.57 211.044 1506.9 211.762C1506.26 212.454 1505.94 213.803 1505.94 215.807V218.59H1513.73V226.791H1505.94V258H1495.51V226.791H1489.72V218.59ZM1541.65 245.457L1552.04 247.201C1550.71 251.011 1548.59 253.918 1545.7 255.922C1542.83 257.901 1539.23 258.891 1534.9 258.891C1528.05 258.891 1522.98 256.652 1519.69 252.174C1517.09 248.587 1515.79 244.059 1515.79 238.592C1515.79 232.061 1517.5 226.952 1520.91 223.266C1524.32 219.555 1528.64 217.699 1533.86 217.699C1539.72 217.699 1544.35 219.641 1547.74 223.525C1551.13 227.385 1552.75 233.31 1552.6 241.301H1526.48C1526.55 244.393 1527.39 246.805 1529 248.537C1530.61 250.244 1532.61 251.098 1535.01 251.098C1536.64 251.098 1538.02 250.652 1539.13 249.762C1540.24 248.871 1541.08 247.436 1541.65 245.457ZM1542.25 234.918C1542.17 231.9 1541.39 229.611 1539.91 228.053C1538.43 226.469 1536.62 225.678 1534.49 225.678C1532.22 225.678 1530.34 226.507 1528.85 228.164C1527.37 229.822 1526.64 232.073 1526.66 234.918H1542.25ZM1578.45 218.59V226.902H1571.32V242.785C1571.32 246.001 1571.39 247.882 1571.51 248.426C1571.66 248.945 1571.97 249.378 1572.44 249.725C1572.93 250.071 1573.53 250.244 1574.22 250.244C1575.18 250.244 1576.58 249.91 1578.41 249.242L1579.3 257.332C1576.88 258.371 1574.13 258.891 1571.06 258.891C1569.18 258.891 1567.49 258.581 1565.98 257.963C1564.47 257.32 1563.36 256.503 1562.64 255.514C1561.95 254.499 1561.46 253.139 1561.19 251.432C1560.97 250.219 1560.86 247.77 1560.86 244.084V226.902H1556.07V218.59H1560.86V210.76L1571.32 204.674V218.59H1578.45ZM1579.99 218.59H1591.09L1600.51 246.57L1609.71 218.59H1620.51L1606.6 256.516L1604.11 263.381C1603.2 265.682 1602.32 267.438 1601.48 268.65C1600.66 269.863 1599.71 270.84 1598.62 271.582C1597.55 272.349 1596.23 272.943 1594.65 273.363C1593.09 273.784 1591.32 273.994 1589.34 273.994C1587.34 273.994 1585.37 273.784 1583.44 273.363L1582.51 265.199C1584.15 265.521 1585.62 265.682 1586.93 265.682C1589.35 265.682 1591.15 264.964 1592.31 263.529C1593.47 262.119 1594.36 260.313 1594.98 258.111L1579.99 218.59ZM1695.07 251.357L1688.76 259.41C1685.67 257.901 1682.7 255.823 1679.85 253.176C1677.65 255.155 1675.31 256.615 1672.84 257.555C1670.36 258.495 1667.42 258.965 1664.01 258.965C1657.23 258.965 1652.13 257.06 1648.72 253.25C1646.07 250.306 1644.75 246.917 1644.75 243.082C1644.75 239.594 1645.79 236.464 1647.86 233.693C1649.94 230.898 1653.05 228.473 1657.18 226.42C1655.32 224.218 1653.93 222.128 1652.99 220.148C1652.05 218.145 1651.57 216.252 1651.57 214.471C1651.57 211.18 1652.89 208.397 1655.51 206.121C1658.16 203.82 1661.92 202.67 1666.79 202.67C1671.49 202.67 1675.16 203.87 1677.81 206.27C1680.46 208.669 1681.78 211.601 1681.78 215.064C1681.78 217.266 1681.13 219.357 1679.82 221.336C1678.5 223.315 1675.86 225.554 1671.87 228.053L1679.44 238.035C1680.33 236.452 1681.1 234.386 1681.74 231.838L1691.17 233.99C1690.23 237.33 1689.41 239.779 1688.72 241.338C1688.03 242.872 1687.29 244.158 1686.49 245.197C1687.66 246.286 1689.15 247.486 1690.99 248.797C1692.84 250.083 1694.2 250.937 1695.07 251.357ZM1666.68 221.781L1669.5 219.629C1671.58 218.021 1672.62 216.425 1672.62 214.842C1672.62 213.506 1672.11 212.368 1671.09 211.428C1670.1 210.488 1668.76 210.018 1667.05 210.018C1665.39 210.018 1664.09 210.438 1663.15 211.279C1662.21 212.096 1661.74 213.048 1661.74 214.137C1661.74 215.423 1662.53 216.982 1664.12 218.812L1666.68 221.781ZM1662.6 233.1C1660.2 234.312 1658.4 235.771 1657.22 237.479C1656.03 239.186 1655.43 240.93 1655.43 242.711C1655.43 244.962 1656.16 246.805 1657.62 248.24C1659.11 249.65 1661.09 250.355 1663.56 250.355C1665.19 250.355 1666.77 250.034 1668.27 249.391C1669.78 248.747 1671.43 247.684 1673.21 246.199L1662.6 233.1ZM1721.53 258V203.598H1744.65C1750.46 203.598 1754.68 204.092 1757.3 205.082C1759.95 206.047 1762.06 207.779 1763.65 210.277C1765.23 212.776 1766.02 215.633 1766.02 218.85C1766.02 222.932 1764.82 226.309 1762.42 228.98C1760.02 231.628 1756.44 233.298 1751.66 233.99C1754.04 235.376 1755.99 236.897 1757.52 238.555C1759.08 240.212 1761.17 243.156 1763.8 247.387L1770.44 258H1757.3L1749.36 246.162C1746.54 241.932 1744.61 239.272 1743.57 238.184C1742.53 237.07 1741.43 236.316 1740.27 235.92C1739.11 235.499 1737.26 235.289 1734.74 235.289H1732.51V258H1721.53ZM1732.51 226.605H1740.64C1745.91 226.605 1749.2 226.383 1750.51 225.938C1751.82 225.492 1752.85 224.725 1753.59 223.637C1754.33 222.548 1754.7 221.188 1754.7 219.555C1754.7 217.724 1754.21 216.252 1753.22 215.139C1752.25 214.001 1750.88 213.283 1749.1 212.986C1748.21 212.863 1745.54 212.801 1741.08 212.801H1732.51V226.605ZM1798.4 245.457L1808.79 247.201C1807.46 251.011 1805.34 253.918 1802.45 255.922C1799.58 257.901 1795.98 258.891 1791.65 258.891C1784.79 258.891 1779.72 256.652 1776.43 252.174C1773.83 248.587 1772.54 244.059 1772.54 238.592C1772.54 232.061 1774.24 226.952 1777.66 223.266C1781.07 219.555 1785.39 217.699 1790.61 217.699C1796.47 217.699 1801.1 219.641 1804.49 223.525C1807.88 227.385 1809.5 233.31 1809.35 241.301H1783.22C1783.3 244.393 1784.14 246.805 1785.75 248.537C1787.35 250.244 1789.36 251.098 1791.76 251.098C1793.39 251.098 1794.76 250.652 1795.88 249.762C1796.99 248.871 1797.83 247.436 1798.4 245.457ZM1798.99 234.918C1798.92 231.9 1798.14 229.611 1796.66 228.053C1795.17 226.469 1793.37 225.678 1791.24 225.678C1788.96 225.678 1787.08 226.507 1785.6 228.164C1784.11 229.822 1783.38 232.073 1783.41 234.918H1798.99ZM1813.45 246.756L1823.91 245.16C1824.36 247.189 1825.26 248.735 1826.62 249.799C1827.98 250.838 1829.89 251.357 1832.34 251.357C1835.03 251.357 1837.06 250.863 1838.42 249.873C1839.34 249.18 1839.8 248.253 1839.8 247.09C1839.8 246.298 1839.55 245.643 1839.05 245.123C1838.53 244.628 1837.37 244.171 1835.57 243.75C1827.15 241.895 1821.82 240.2 1819.57 238.666C1816.45 236.538 1814.9 233.582 1814.9 229.797C1814.9 226.383 1816.24 223.513 1818.94 221.188C1821.64 218.862 1825.82 217.699 1831.48 217.699C1836.88 217.699 1840.89 218.577 1843.51 220.334C1846.13 222.09 1847.94 224.688 1848.93 228.127L1839.09 229.945C1838.67 228.411 1837.87 227.236 1836.68 226.42C1835.52 225.604 1833.85 225.195 1831.67 225.195C1828.92 225.195 1826.96 225.579 1825.77 226.346C1824.98 226.89 1824.58 227.595 1824.58 228.461C1824.58 229.203 1824.93 229.834 1825.62 230.354C1826.56 231.046 1829.8 232.023 1835.34 233.285C1840.91 234.547 1844.79 236.093 1847 237.924C1849.17 239.779 1850.26 242.365 1850.26 245.68C1850.26 249.292 1848.75 252.396 1845.73 254.994C1842.72 257.592 1838.25 258.891 1832.34 258.891C1826.97 258.891 1822.71 257.802 1819.57 255.625C1816.45 253.448 1814.41 250.492 1813.45 246.756ZM1893.03 230.242L1882.75 232.098C1882.41 230.044 1881.61 228.498 1880.38 227.459C1879.16 226.42 1877.58 225.9 1875.63 225.9C1873.03 225.9 1870.95 226.803 1869.39 228.609C1867.86 230.391 1867.09 233.384 1867.09 237.59C1867.09 242.266 1867.87 245.568 1869.43 247.498C1871.01 249.428 1873.13 250.393 1875.77 250.393C1877.75 250.393 1879.37 249.836 1880.64 248.723C1881.9 247.585 1882.79 245.643 1883.31 242.896L1893.55 244.641C1892.49 249.341 1890.45 252.891 1887.43 255.291C1884.41 257.691 1880.36 258.891 1875.29 258.891C1869.53 258.891 1864.93 257.072 1861.49 253.436C1858.07 249.799 1856.37 244.764 1856.37 238.332C1856.37 231.826 1858.09 226.766 1861.52 223.154C1864.96 219.518 1869.61 217.699 1875.48 217.699C1880.28 217.699 1884.09 218.738 1886.91 220.816C1889.75 222.87 1891.79 226.012 1893.03 230.242ZM1926.15 258V252.1C1924.72 254.202 1922.82 255.86 1920.47 257.072C1918.15 258.285 1915.69 258.891 1913.09 258.891C1910.44 258.891 1908.07 258.309 1905.96 257.146C1903.86 255.984 1902.34 254.351 1901.4 252.248C1900.46 250.145 1899.99 247.238 1899.99 243.527V218.59H1910.42V236.699C1910.42 242.241 1910.6 245.643 1910.97 246.904C1911.37 248.141 1912.07 249.131 1913.09 249.873C1914.1 250.59 1915.39 250.949 1916.95 250.949C1918.73 250.949 1920.33 250.467 1921.74 249.502C1923.15 248.512 1924.11 247.3 1924.63 245.865C1925.15 244.406 1925.41 240.855 1925.41 235.215V218.59H1935.84V258H1926.15ZM1968.74 245.457L1979.13 247.201C1977.79 251.011 1975.67 253.918 1972.78 255.922C1969.91 257.901 1966.31 258.891 1961.98 258.891C1955.13 258.891 1950.06 256.652 1946.77 252.174C1944.17 248.587 1942.87 244.059 1942.87 238.592C1942.87 232.061 1944.58 226.952 1947.99 223.266C1951.41 219.555 1955.72 217.699 1960.94 217.699C1966.81 217.699 1971.43 219.641 1974.82 223.525C1978.21 227.385 1979.83 233.31 1979.68 241.301H1953.56C1953.63 244.393 1954.47 246.805 1956.08 248.537C1957.69 250.244 1959.69 251.098 1962.09 251.098C1963.73 251.098 1965.1 250.652 1966.21 249.762C1967.33 248.871 1968.17 247.436 1968.74 245.457ZM1969.33 234.918C1969.25 231.9 1968.48 229.611 1966.99 228.053C1965.51 226.469 1963.7 225.678 1961.57 225.678C1959.3 225.678 1957.42 226.507 1955.93 228.164C1954.45 229.822 1953.72 232.073 1953.74 234.918H1969.33ZM2020.17 258V212.801H2004.03V203.598H2047.26V212.801H2031.15V258H2020.17ZM2059.38 258H2048.95V218.59H2058.64V224.193C2060.29 221.546 2061.78 219.802 2063.09 218.961C2064.42 218.12 2065.93 217.699 2067.62 217.699C2069.99 217.699 2072.28 218.355 2074.48 219.666L2071.25 228.758C2069.5 227.62 2067.86 227.051 2066.35 227.051C2064.89 227.051 2063.66 227.459 2062.64 228.275C2061.63 229.067 2060.82 230.514 2060.23 232.617C2059.66 234.72 2059.38 239.124 2059.38 245.828V258ZM2086.04 230.613L2076.58 228.906C2077.64 225.096 2079.47 222.276 2082.07 220.445C2084.67 218.615 2088.53 217.699 2093.65 217.699C2098.3 217.699 2101.76 218.256 2104.04 219.369C2106.32 220.458 2107.91 221.855 2108.83 223.562C2109.77 225.245 2110.24 228.35 2110.24 232.877L2110.12 245.049C2110.12 248.512 2110.29 251.073 2110.61 252.73C2110.95 254.363 2111.58 256.12 2112.5 258H2102.18C2101.91 257.307 2101.58 256.281 2101.18 254.92C2101.01 254.301 2100.88 253.893 2100.81 253.695C2099.03 255.427 2097.12 256.726 2095.1 257.592C2093.07 258.458 2090.9 258.891 2088.6 258.891C2084.54 258.891 2081.34 257.79 2078.99 255.588C2076.66 253.386 2075.5 250.603 2075.5 247.238C2075.5 245.012 2076.03 243.033 2077.1 241.301C2078.16 239.544 2079.65 238.208 2081.55 237.293C2083.48 236.353 2086.25 235.536 2089.86 234.844C2094.74 233.928 2098.11 233.075 2099.99 232.283V231.244C2099.99 229.24 2099.5 227.818 2098.51 226.977C2097.52 226.111 2095.65 225.678 2092.91 225.678C2091.05 225.678 2089.6 226.049 2088.56 226.791C2087.53 227.508 2086.68 228.783 2086.04 230.613ZM2099.99 239.074C2098.66 239.52 2096.54 240.051 2093.65 240.67C2090.75 241.288 2088.86 241.895 2087.97 242.488C2086.61 243.453 2085.93 244.678 2085.93 246.162C2085.93 247.622 2086.47 248.883 2087.56 249.947C2088.65 251.011 2090.04 251.543 2091.72 251.543C2093.6 251.543 2095.39 250.924 2097.1 249.688C2098.36 248.747 2099.19 247.597 2099.59 246.236C2099.86 245.346 2099.99 243.651 2099.99 241.152V239.074ZM2119.79 213.246V203.598H2130.22V213.246H2119.79ZM2119.79 258V218.59H2130.22V258H2119.79ZM2176.03 258H2165.6V237.887C2165.6 233.632 2165.38 230.885 2164.94 229.648C2164.49 228.387 2163.76 227.41 2162.75 226.717C2161.76 226.024 2160.56 225.678 2159.15 225.678C2157.34 225.678 2155.72 226.173 2154.29 227.162C2152.85 228.152 2151.86 229.463 2151.32 231.096C2150.8 232.729 2150.54 235.747 2150.54 240.15V258H2140.11V218.59H2149.8V224.379C2153.24 219.926 2157.56 217.699 2162.78 217.699C2165.09 217.699 2167.19 218.12 2169.09 218.961C2171 219.777 2172.43 220.829 2173.4 222.115C2174.39 223.402 2175.07 224.861 2175.44 226.494C2175.83 228.127 2176.03 230.465 2176.03 233.508V258ZM2185.89 213.246V203.598H2196.31V213.246H2185.89ZM2185.89 258V218.59H2196.31V258H2185.89ZM2242.13 258H2231.7V237.887C2231.7 233.632 2231.48 230.885 2231.03 229.648C2230.59 228.387 2229.86 227.41 2228.84 226.717C2227.85 226.024 2226.65 225.678 2225.24 225.678C2223.44 225.678 2221.82 226.173 2220.38 227.162C2218.95 228.152 2217.96 229.463 2217.41 231.096C2216.89 232.729 2216.63 235.747 2216.63 240.15V258H2206.2V218.59H2215.89V224.379C2219.33 219.926 2223.66 217.699 2228.88 217.699C2231.18 217.699 2233.28 218.12 2235.19 218.961C2237.09 219.777 2238.53 220.829 2239.49 222.115C2240.48 223.402 2241.16 224.861 2241.53 226.494C2241.93 228.127 2242.13 230.465 2242.13 233.508V258ZM2251.01 260.598L2262.93 262.045C2263.12 263.43 2263.58 264.383 2264.3 264.902C2265.29 265.645 2266.85 266.016 2268.98 266.016C2271.7 266.016 2273.74 265.607 2275.1 264.791C2276.01 264.247 2276.71 263.368 2277.18 262.156C2277.5 261.29 2277.66 259.695 2277.66 257.369V251.617C2274.54 255.872 2270.61 258 2265.86 258C2260.56 258 2256.37 255.761 2253.28 251.283C2250.85 247.745 2249.64 243.342 2249.64 238.072C2249.64 231.467 2251.22 226.42 2254.39 222.932C2257.58 219.443 2261.54 217.699 2266.27 217.699C2271.14 217.699 2275.16 219.839 2278.33 224.119V218.59H2288.09V253.955C2288.09 258.606 2287.7 262.082 2286.94 264.383C2286.17 266.684 2285.09 268.49 2283.71 269.801C2282.32 271.112 2280.47 272.139 2278.14 272.881C2275.84 273.623 2272.92 273.994 2269.38 273.994C2262.7 273.994 2257.97 272.844 2255.17 270.543C2252.38 268.267 2250.98 265.372 2250.98 261.859C2250.98 261.513 2250.99 261.092 2251.01 260.598ZM2260.33 237.479C2260.33 241.66 2261.13 244.727 2262.74 246.682C2264.37 248.611 2266.38 249.576 2268.75 249.576C2271.3 249.576 2273.45 248.587 2275.21 246.607C2276.97 244.604 2277.84 241.647 2277.84 237.738C2277.84 233.656 2277 230.626 2275.32 228.646C2273.64 226.667 2271.51 225.678 2268.94 225.678C2266.44 225.678 2264.37 226.655 2262.74 228.609C2261.13 230.539 2260.33 233.495 2260.33 237.479ZM2352.96 237.998L2363.61 241.375C2361.97 247.312 2359.25 251.729 2355.44 254.623C2351.66 257.493 2346.84 258.928 2341.01 258.928C2333.78 258.928 2327.84 256.466 2323.19 251.543C2318.54 246.595 2316.22 239.841 2316.22 231.281C2316.22 222.227 2318.56 215.201 2323.23 210.203C2327.91 205.181 2334.05 202.67 2341.67 202.67C2348.33 202.67 2353.73 204.637 2357.89 208.57C2360.37 210.896 2362.22 214.236 2363.46 218.59L2352.58 221.188C2351.94 218.367 2350.59 216.141 2348.54 214.508C2346.51 212.875 2344.04 212.059 2341.12 212.059C2337.09 212.059 2333.81 213.506 2331.28 216.4C2328.78 219.295 2327.54 223.983 2327.54 230.465C2327.54 237.342 2328.77 242.241 2331.25 245.16C2333.72 248.079 2336.94 249.539 2340.9 249.539C2343.81 249.539 2346.33 248.611 2348.43 246.756C2350.53 244.9 2352.04 241.981 2352.96 237.998ZM2395.06 245.457L2405.45 247.201C2404.11 251.011 2402 253.918 2399.1 255.922C2396.23 257.901 2392.63 258.891 2388.3 258.891C2381.45 258.891 2376.38 256.652 2373.09 252.174C2370.49 248.587 2369.19 244.059 2369.19 238.592C2369.19 232.061 2370.9 226.952 2374.31 223.266C2377.73 219.555 2382.04 217.699 2387.26 217.699C2393.13 217.699 2397.75 219.641 2401.14 223.525C2404.53 227.385 2406.15 233.31 2406 241.301H2379.88C2379.95 244.393 2380.79 246.805 2382.4 248.537C2384.01 250.244 2386.01 251.098 2388.41 251.098C2390.05 251.098 2391.42 250.652 2392.53 249.762C2393.65 248.871 2394.49 247.436 2395.06 245.457ZM2395.65 234.918C2395.58 231.9 2394.8 229.611 2393.31 228.053C2391.83 226.469 2390.02 225.678 2387.89 225.678C2385.62 225.678 2383.74 226.507 2382.25 228.164C2380.77 229.822 2380.04 232.073 2380.06 234.918H2395.65ZM2449.63 258H2439.2V237.887C2439.2 233.632 2438.98 230.885 2438.53 229.648C2438.09 228.387 2437.36 227.41 2436.34 226.717C2435.35 226.024 2434.15 225.678 2432.74 225.678C2430.94 225.678 2429.32 226.173 2427.88 227.162C2426.45 228.152 2425.46 229.463 2424.91 231.096C2424.39 232.729 2424.13 235.747 2424.13 240.15V258H2413.71V218.59H2423.39V224.379C2426.83 219.926 2431.16 217.699 2436.38 217.699C2438.68 217.699 2440.78 218.12 2442.69 218.961C2444.59 219.777 2446.03 220.829 2446.99 222.115C2447.98 223.402 2448.66 224.861 2449.03 226.494C2449.43 228.127 2449.63 230.465 2449.63 233.508V258ZM2477.55 218.59V226.902H2470.43V242.785C2470.43 246.001 2470.49 247.882 2470.61 248.426C2470.76 248.945 2471.07 249.378 2471.54 249.725C2472.04 250.071 2472.63 250.244 2473.32 250.244C2474.29 250.244 2475.68 249.91 2477.52 249.242L2478.41 257.332C2475.98 258.371 2473.24 258.891 2470.17 258.891C2468.29 258.891 2466.59 258.581 2465.08 257.963C2463.57 257.32 2462.46 256.503 2461.74 255.514C2461.05 254.499 2460.57 253.139 2460.3 251.432C2460.07 250.219 2459.96 247.77 2459.96 244.084V226.902H2455.18V218.59H2459.96V210.76L2470.43 204.674V218.59H2477.55ZM2506.85 245.457L2517.24 247.201C2515.91 251.011 2513.79 253.918 2510.9 255.922C2508.03 257.901 2504.43 258.891 2500.1 258.891C2493.24 258.891 2488.17 256.652 2484.88 252.174C2482.28 248.587 2480.99 244.059 2480.99 238.592C2480.99 232.061 2482.69 226.952 2486.11 223.266C2489.52 219.555 2493.84 217.699 2499.06 217.699C2504.92 217.699 2509.55 219.641 2512.94 223.525C2516.33 227.385 2517.95 233.31 2517.8 241.301H2491.67C2491.75 244.393 2492.59 246.805 2494.2 248.537C2495.8 250.244 2497.81 251.098 2500.21 251.098C2501.84 251.098 2503.21 250.652 2504.33 249.762C2505.44 248.871 2506.28 247.436 2506.85 245.457ZM2507.44 234.918C2507.37 231.9 2506.59 229.611 2505.11 228.053C2503.62 226.469 2501.82 225.678 2499.69 225.678C2497.41 225.678 2495.53 226.507 2494.05 228.164C2492.56 229.822 2491.83 232.073 2491.86 234.918H2507.44ZM2535.56 258H2525.13V218.59H2534.81V224.193C2536.47 221.546 2537.96 219.802 2539.27 218.961C2540.6 218.12 2542.11 217.699 2543.79 217.699C2546.17 217.699 2548.46 218.355 2550.66 219.666L2547.43 228.758C2545.67 227.62 2544.04 227.051 2542.53 227.051C2541.07 227.051 2539.84 227.459 2538.82 228.275C2537.81 229.067 2537 230.514 2536.41 232.617C2535.84 234.72 2535.56 239.124 2535.56 245.828V258Z" fill="#2F5597"/>
</svg>
