<svg width="3450" height="2210" viewBox="0 0 3450 2210" fill="none" xmlns="http://www.w3.org/2000/svg">
<path d="M645.14 1914.41C645.14 1914.7 645.124 1914.96 645.093 1915.18C645.061 1915.4 645.007 1915.58 644.929 1915.72C644.866 1915.84 644.78 1915.94 644.671 1916C644.577 1916.06 644.468 1916.09 644.343 1916.09H635.811V1942.39C635.811 1942.52 635.78 1942.62 635.718 1942.72C635.655 1942.81 635.546 1942.89 635.39 1942.95C635.233 1943 635.022 1943.04 634.757 1943.07C634.507 1943.12 634.186 1943.14 633.796 1943.14C633.421 1943.14 633.101 1943.12 632.835 1943.07C632.569 1943.04 632.358 1943 632.202 1942.95C632.046 1942.89 631.936 1942.81 631.874 1942.72C631.811 1942.62 631.78 1942.52 631.78 1942.39V1916.09H623.249C623.124 1916.09 623.007 1916.06 622.897 1916C622.804 1915.94 622.726 1915.84 622.663 1915.72C622.601 1915.58 622.546 1915.4 622.499 1915.18C622.468 1914.96 622.452 1914.7 622.452 1914.41C622.452 1914.11 622.468 1913.85 622.499 1913.63C622.546 1913.4 622.601 1913.21 622.663 1913.07C622.726 1912.93 622.804 1912.83 622.897 1912.77C623.007 1912.7 623.124 1912.67 623.249 1912.67H644.343C644.468 1912.67 644.577 1912.7 644.671 1912.77C644.78 1912.83 644.866 1912.93 644.929 1913.07C645.007 1913.21 645.061 1913.4 645.093 1913.63C645.124 1913.85 645.14 1914.11 645.14 1914.41ZM657.876 1922.7C657.876 1923.05 657.868 1923.34 657.853 1923.57C657.837 1923.8 657.806 1923.99 657.759 1924.13C657.712 1924.26 657.65 1924.36 657.571 1924.44C657.509 1924.5 657.415 1924.53 657.29 1924.53C657.165 1924.53 657.009 1924.5 656.821 1924.44C656.65 1924.36 656.446 1924.29 656.212 1924.23C655.993 1924.15 655.743 1924.08 655.462 1924.02C655.181 1923.95 654.876 1923.92 654.548 1923.92C654.157 1923.92 653.775 1924 653.4 1924.16C653.025 1924.31 652.626 1924.57 652.204 1924.93C651.798 1925.29 651.368 1925.77 650.915 1926.36C650.462 1926.95 649.962 1927.68 649.415 1928.54V1942.41C649.415 1942.54 649.384 1942.65 649.321 1942.74C649.259 1942.82 649.157 1942.89 649.017 1942.95C648.876 1943.02 648.681 1943.06 648.431 1943.09C648.181 1943.12 647.86 1943.14 647.47 1943.14C647.095 1943.14 646.782 1943.12 646.532 1943.09C646.282 1943.06 646.079 1943.02 645.923 1942.95C645.782 1942.89 645.681 1942.82 645.618 1942.74C645.571 1942.65 645.548 1942.54 645.548 1942.41V1921.32C645.548 1921.2 645.571 1921.09 645.618 1921.02C645.665 1920.92 645.759 1920.84 645.9 1920.78C646.04 1920.7 646.22 1920.66 646.439 1920.64C646.657 1920.61 646.946 1920.59 647.306 1920.59C647.65 1920.59 647.931 1920.61 648.15 1920.64C648.384 1920.66 648.564 1920.7 648.689 1920.78C648.814 1920.84 648.9 1920.92 648.946 1921.02C649.009 1921.09 649.04 1921.2 649.04 1921.32V1924.39C649.618 1923.55 650.157 1922.86 650.657 1922.33C651.173 1921.8 651.657 1921.38 652.11 1921.09C652.564 1920.77 653.009 1920.56 653.446 1920.45C653.9 1920.33 654.353 1920.27 654.806 1920.27C655.009 1920.27 655.235 1920.28 655.485 1920.31C655.751 1920.33 656.025 1920.37 656.306 1920.43C656.587 1920.49 656.837 1920.56 657.056 1920.64C657.29 1920.72 657.454 1920.8 657.548 1920.88C657.642 1920.95 657.704 1921.03 657.735 1921.11C657.767 1921.17 657.79 1921.26 657.806 1921.37C657.837 1921.48 657.853 1921.64 657.853 1921.86C657.868 1922.06 657.876 1922.34 657.876 1922.7ZM676.613 1942.44C676.613 1942.62 676.55 1942.77 676.425 1942.86C676.3 1942.95 676.128 1943.02 675.909 1943.07C675.691 1943.12 675.37 1943.14 674.949 1943.14C674.542 1943.14 674.214 1943.12 673.964 1943.07C673.73 1943.02 673.558 1942.95 673.449 1942.86C673.339 1942.77 673.284 1942.62 673.284 1942.44V1940.33C672.363 1941.31 671.331 1942.08 670.191 1942.62C669.066 1943.17 667.87 1943.45 666.605 1943.45C665.495 1943.45 664.488 1943.3 663.581 1943C662.691 1942.72 661.925 1942.3 661.284 1941.76C660.659 1941.21 660.167 1940.54 659.808 1939.74C659.464 1938.95 659.292 1938.04 659.292 1937.02C659.292 1935.84 659.534 1934.8 660.019 1933.93C660.503 1933.05 661.199 1932.33 662.105 1931.75C663.011 1931.17 664.12 1930.74 665.433 1930.46C666.745 1930.16 668.222 1930.02 669.863 1930.02H672.769V1928.38C672.769 1927.56 672.683 1926.84 672.511 1926.22C672.339 1925.59 672.058 1925.08 671.667 1924.67C671.292 1924.25 670.8 1923.94 670.191 1923.73C669.581 1923.52 668.831 1923.41 667.941 1923.41C666.988 1923.41 666.128 1923.52 665.363 1923.76C664.613 1923.98 663.949 1924.23 663.37 1924.51C662.808 1924.77 662.331 1925.02 661.941 1925.26C661.566 1925.48 661.284 1925.59 661.097 1925.59C660.972 1925.59 660.863 1925.55 660.769 1925.49C660.675 1925.43 660.589 1925.34 660.511 1925.21C660.449 1925.09 660.402 1924.93 660.37 1924.74C660.339 1924.54 660.324 1924.32 660.324 1924.09C660.324 1923.7 660.347 1923.39 660.394 1923.17C660.456 1922.94 660.589 1922.72 660.792 1922.52C661.011 1922.31 661.378 1922.08 661.894 1921.81C662.409 1921.53 663.003 1921.28 663.675 1921.06C664.347 1920.83 665.081 1920.64 665.878 1920.5C666.675 1920.34 667.48 1920.27 668.292 1920.27C669.808 1920.27 671.097 1920.44 672.159 1920.78C673.222 1921.12 674.081 1921.63 674.738 1922.3C675.394 1922.96 675.87 1923.78 676.167 1924.77C676.464 1925.75 676.613 1926.9 676.613 1928.21V1942.44ZM672.769 1932.8H669.464C668.402 1932.8 667.48 1932.9 666.699 1933.09C665.917 1933.26 665.269 1933.52 664.753 1933.88C664.238 1934.23 663.855 1934.65 663.605 1935.15C663.37 1935.63 663.253 1936.2 663.253 1936.84C663.253 1937.93 663.597 1938.8 664.284 1939.46C664.988 1940.1 665.964 1940.42 667.214 1940.42C668.23 1940.42 669.167 1940.16 670.027 1939.65C670.902 1939.13 671.816 1938.34 672.769 1937.28V1932.8ZM687.029 1942.41C687.029 1942.54 686.998 1942.65 686.935 1942.74C686.873 1942.82 686.771 1942.89 686.63 1942.95C686.49 1943.02 686.294 1943.06 686.044 1943.09C685.794 1943.12 685.474 1943.14 685.083 1943.14C684.708 1943.14 684.396 1943.12 684.146 1943.09C683.896 1943.06 683.693 1943.02 683.537 1942.95C683.396 1942.89 683.294 1942.82 683.232 1942.74C683.185 1942.65 683.162 1942.54 683.162 1942.41V1921.32C683.162 1921.21 683.185 1921.11 683.232 1921.02C683.294 1920.92 683.396 1920.84 683.537 1920.78C683.693 1920.72 683.896 1920.67 684.146 1920.64C684.396 1920.61 684.708 1920.59 685.083 1920.59C685.474 1920.59 685.794 1920.61 686.044 1920.64C686.294 1920.67 686.49 1920.72 686.63 1920.78C686.771 1920.84 686.873 1920.92 686.935 1921.02C686.998 1921.11 687.029 1921.21 687.029 1921.32V1942.41ZM687.474 1914.2C687.474 1915.1 687.302 1915.72 686.958 1916.05C686.615 1916.38 685.982 1916.54 685.06 1916.54C684.154 1916.54 683.529 1916.38 683.185 1916.07C682.857 1915.74 682.693 1915.13 682.693 1914.24C682.693 1913.34 682.865 1912.72 683.208 1912.39C683.552 1912.06 684.185 1911.9 685.107 1911.9C686.013 1911.9 686.63 1912.06 686.958 1912.39C687.302 1912.7 687.474 1913.3 687.474 1914.2ZM711.765 1942.41C711.765 1942.54 711.734 1942.65 711.672 1942.74C711.609 1942.82 711.507 1942.89 711.367 1942.95C711.226 1943.02 711.031 1943.06 710.781 1943.09C710.531 1943.12 710.218 1943.14 709.843 1943.14C709.453 1943.14 709.132 1943.12 708.882 1943.09C708.632 1943.06 708.437 1943.02 708.297 1942.95C708.156 1942.89 708.054 1942.82 707.992 1942.74C707.929 1942.65 707.898 1942.54 707.898 1942.41V1930.06C707.898 1928.86 707.804 1927.89 707.617 1927.16C707.429 1926.42 707.156 1925.79 706.797 1925.26C706.437 1924.73 705.968 1924.32 705.39 1924.04C704.828 1923.76 704.172 1923.62 703.422 1923.62C702.453 1923.62 701.484 1923.96 700.515 1924.65C699.547 1925.34 698.531 1926.34 697.468 1927.67V1942.41C697.468 1942.54 697.437 1942.65 697.375 1942.74C697.312 1942.82 697.211 1942.89 697.07 1942.95C696.929 1943.02 696.734 1943.06 696.484 1943.09C696.234 1943.12 695.914 1943.14 695.523 1943.14C695.148 1943.14 694.836 1943.12 694.586 1943.09C694.336 1943.06 694.132 1943.02 693.976 1942.95C693.836 1942.89 693.734 1942.82 693.672 1942.74C693.625 1942.65 693.601 1942.54 693.601 1942.41V1921.32C693.601 1921.2 693.625 1921.09 693.672 1921.02C693.718 1920.92 693.812 1920.84 693.953 1920.78C694.093 1920.7 694.273 1920.66 694.492 1920.64C694.711 1920.61 695 1920.59 695.359 1920.59C695.703 1920.59 695.984 1920.61 696.203 1920.64C696.437 1920.66 696.617 1920.7 696.742 1920.78C696.867 1920.84 696.953 1920.92 697 1921.02C697.062 1921.09 697.093 1921.2 697.093 1921.32V1924.11C698.281 1922.78 699.461 1921.81 700.632 1921.2C701.82 1920.58 703.015 1920.27 704.218 1920.27C705.625 1920.27 706.804 1920.51 707.757 1920.99C708.726 1921.46 709.507 1922.09 710.101 1922.89C710.695 1923.69 711.117 1924.62 711.367 1925.7C711.632 1926.77 711.765 1928.05 711.765 1929.55V1942.41ZM722.111 1942.41C722.111 1942.54 722.08 1942.65 722.017 1942.74C721.955 1942.82 721.853 1942.89 721.713 1942.95C721.572 1943.02 721.377 1943.06 721.127 1943.09C720.877 1943.12 720.556 1943.14 720.166 1943.14C719.791 1943.14 719.478 1943.12 719.228 1943.09C718.978 1943.06 718.775 1943.02 718.619 1942.95C718.478 1942.89 718.377 1942.82 718.314 1942.74C718.267 1942.65 718.244 1942.54 718.244 1942.41V1921.32C718.244 1921.21 718.267 1921.11 718.314 1921.02C718.377 1920.92 718.478 1920.84 718.619 1920.78C718.775 1920.72 718.978 1920.67 719.228 1920.64C719.478 1920.61 719.791 1920.59 720.166 1920.59C720.556 1920.59 720.877 1920.61 721.127 1920.64C721.377 1920.67 721.572 1920.72 721.713 1920.78C721.853 1920.84 721.955 1920.92 722.017 1921.02C722.08 1921.11 722.111 1921.21 722.111 1921.32V1942.41ZM722.556 1914.2C722.556 1915.1 722.385 1915.72 722.041 1916.05C721.697 1916.38 721.064 1916.54 720.142 1916.54C719.236 1916.54 718.611 1916.38 718.267 1916.07C717.939 1915.74 717.775 1915.13 717.775 1914.24C717.775 1913.34 717.947 1912.72 718.291 1912.39C718.635 1912.06 719.267 1911.9 720.189 1911.9C721.096 1911.9 721.713 1912.06 722.041 1912.39C722.385 1912.7 722.556 1913.3 722.556 1914.2ZM746.848 1942.41C746.848 1942.54 746.816 1942.65 746.754 1942.74C746.691 1942.82 746.59 1942.89 746.449 1942.95C746.309 1943.02 746.113 1943.06 745.863 1943.09C745.613 1943.12 745.301 1943.14 744.926 1943.14C744.535 1943.14 744.215 1943.12 743.965 1943.09C743.715 1943.06 743.52 1943.02 743.379 1942.95C743.238 1942.89 743.137 1942.82 743.074 1942.74C743.012 1942.65 742.98 1942.54 742.98 1942.41V1930.06C742.98 1928.86 742.887 1927.89 742.699 1927.16C742.512 1926.42 742.238 1925.79 741.879 1925.26C741.52 1924.73 741.051 1924.32 740.473 1924.04C739.91 1923.76 739.254 1923.62 738.504 1923.62C737.535 1923.62 736.566 1923.96 735.598 1924.65C734.629 1925.34 733.613 1926.34 732.551 1927.67V1942.41C732.551 1942.54 732.52 1942.65 732.457 1942.74C732.395 1942.82 732.293 1942.89 732.152 1942.95C732.012 1943.02 731.816 1943.06 731.566 1943.09C731.316 1943.12 730.996 1943.14 730.605 1943.14C730.23 1943.14 729.918 1943.12 729.668 1943.09C729.418 1943.06 729.215 1943.02 729.059 1942.95C728.918 1942.89 728.816 1942.82 728.754 1942.74C728.707 1942.65 728.684 1942.54 728.684 1942.41V1921.32C728.684 1921.2 728.707 1921.09 728.754 1921.02C728.801 1920.92 728.895 1920.84 729.035 1920.78C729.176 1920.7 729.355 1920.66 729.574 1920.64C729.793 1920.61 730.082 1920.59 730.441 1920.59C730.785 1920.59 731.066 1920.61 731.285 1920.64C731.52 1920.66 731.699 1920.7 731.824 1920.78C731.949 1920.84 732.035 1920.92 732.082 1921.02C732.145 1921.09 732.176 1921.2 732.176 1921.32V1924.11C733.363 1922.78 734.543 1921.81 735.715 1921.2C736.902 1920.58 738.098 1920.27 739.301 1920.27C740.707 1920.27 741.887 1920.51 742.84 1920.99C743.809 1921.46 744.59 1922.09 745.184 1922.89C745.777 1923.69 746.199 1924.62 746.449 1925.7C746.715 1926.77 746.848 1928.05 746.848 1929.55V1942.41ZM770.951 1922.28C770.951 1922.83 770.873 1923.23 770.717 1923.48C770.576 1923.71 770.389 1923.83 770.154 1923.83H767.131C767.678 1924.39 768.061 1925.02 768.279 1925.7C768.498 1926.38 768.608 1927.08 768.608 1927.81C768.608 1929.03 768.412 1930.11 768.022 1931.05C767.631 1931.98 767.069 1932.78 766.334 1933.44C765.615 1934.08 764.756 1934.57 763.756 1934.91C762.756 1935.26 761.647 1935.43 760.428 1935.43C759.569 1935.43 758.748 1935.32 757.967 1935.1C757.201 1934.87 756.608 1934.58 756.186 1934.23C755.904 1934.52 755.67 1934.84 755.483 1935.2C755.311 1935.55 755.225 1935.97 755.225 1936.44C755.225 1936.98 755.475 1937.44 755.975 1937.8C756.49 1938.16 757.17 1938.35 758.014 1938.38L763.522 1938.62C764.569 1938.65 765.529 1938.8 766.404 1939.06C767.279 1939.31 768.037 1939.68 768.678 1940.16C769.319 1940.63 769.819 1941.22 770.178 1941.92C770.537 1942.61 770.717 1943.41 770.717 1944.34C770.717 1945.3 770.514 1946.23 770.108 1947.1C769.701 1947.98 769.076 1948.74 768.233 1949.4C767.404 1950.07 766.342 1950.59 765.045 1950.97C763.748 1951.36 762.217 1951.55 760.451 1951.55C758.748 1951.55 757.295 1951.41 756.092 1951.11C754.904 1950.83 753.928 1950.44 753.162 1949.94C752.397 1949.44 751.842 1948.84 751.498 1948.13C751.154 1947.45 750.983 1946.7 750.983 1945.88C750.983 1945.37 751.045 1944.87 751.17 1944.38C751.295 1943.9 751.483 1943.44 751.733 1943C751.998 1942.56 752.319 1942.15 752.694 1941.76C753.084 1941.35 753.529 1940.95 754.029 1940.56C753.264 1940.17 752.694 1939.68 752.319 1939.09C751.959 1938.49 751.779 1937.85 751.779 1937.16C751.779 1936.21 751.975 1935.36 752.365 1934.61C752.756 1933.86 753.24 1933.19 753.819 1932.59C753.334 1932.02 752.951 1931.37 752.67 1930.65C752.389 1929.91 752.248 1929.03 752.248 1928C752.248 1926.8 752.451 1925.72 752.858 1924.77C753.264 1923.81 753.826 1923.01 754.545 1922.35C755.264 1921.7 756.123 1921.2 757.123 1920.85C758.139 1920.49 759.24 1920.31 760.428 1920.31C761.069 1920.31 761.662 1920.35 762.209 1920.43C762.772 1920.49 763.295 1920.59 763.779 1920.71H770.154C770.42 1920.71 770.615 1920.84 770.74 1921.11C770.881 1921.36 770.951 1921.75 770.951 1922.28ZM764.904 1927.84C764.904 1926.4 764.506 1925.28 763.709 1924.48C762.928 1923.67 761.811 1923.27 760.358 1923.27C759.608 1923.27 758.951 1923.39 758.389 1923.64C757.842 1923.89 757.381 1924.23 757.006 1924.67C756.647 1925.11 756.373 1925.62 756.186 1926.2C756.014 1926.76 755.928 1927.35 755.928 1927.98C755.928 1929.37 756.319 1930.46 757.1 1931.26C757.897 1932.05 759.006 1932.45 760.428 1932.45C761.194 1932.45 761.858 1932.34 762.42 1932.1C762.983 1931.85 763.444 1931.52 763.803 1931.09C764.178 1930.66 764.451 1930.16 764.623 1929.59C764.811 1929.03 764.904 1928.45 764.904 1927.84ZM766.85 1944.55C766.85 1943.64 766.475 1942.95 765.725 1942.46C764.99 1941.96 763.99 1941.7 762.725 1941.66L757.264 1941.48C756.764 1941.87 756.35 1942.24 756.022 1942.6C755.709 1942.95 755.459 1943.27 755.272 1943.59C755.084 1943.91 754.951 1944.23 754.873 1944.55C754.811 1944.86 754.779 1945.18 754.779 1945.51C754.779 1946.52 755.295 1947.29 756.326 1947.8C757.358 1948.34 758.795 1948.6 760.639 1948.6C761.811 1948.6 762.787 1948.48 763.569 1948.25C764.365 1948.03 765.006 1947.73 765.49 1947.36C765.975 1946.98 766.319 1946.55 766.522 1946.07C766.74 1945.59 766.85 1945.08 766.85 1944.55ZM806.338 1938.71C806.338 1938.96 806.331 1939.18 806.315 1939.37C806.299 1939.55 806.268 1939.72 806.221 1939.86C806.19 1940 806.143 1940.12 806.081 1940.23C806.018 1940.34 805.909 1940.48 805.752 1940.63C805.596 1940.79 805.268 1941.03 804.768 1941.36C804.268 1941.67 803.643 1941.98 802.893 1942.3C802.159 1942.59 801.307 1942.84 800.338 1943.05C799.385 1943.27 798.338 1943.38 797.198 1943.38C795.229 1943.38 793.448 1943.05 791.854 1942.39C790.276 1941.73 788.924 1940.77 787.799 1939.48C786.69 1938.2 785.831 1936.62 785.221 1934.75C784.627 1932.86 784.331 1930.69 784.331 1928.23C784.331 1925.72 784.651 1923.48 785.292 1921.51C785.948 1919.54 786.862 1917.88 788.034 1916.52C789.206 1915.14 790.604 1914.09 792.229 1913.38C793.87 1912.66 795.682 1912.3 797.667 1912.3C798.542 1912.3 799.393 1912.38 800.221 1912.55C801.049 1912.71 801.815 1912.91 802.518 1913.16C803.221 1913.41 803.846 1913.7 804.393 1914.03C804.94 1914.36 805.315 1914.63 805.518 1914.85C805.737 1915.05 805.877 1915.21 805.94 1915.32C806.002 1915.43 806.049 1915.56 806.081 1915.72C806.127 1915.86 806.159 1916.03 806.174 1916.23C806.206 1916.44 806.221 1916.68 806.221 1916.96C806.221 1917.27 806.206 1917.54 806.174 1917.76C806.143 1917.98 806.096 1918.16 806.034 1918.32C805.971 1918.46 805.893 1918.57 805.799 1918.65C805.721 1918.71 805.62 1918.74 805.495 1918.74C805.276 1918.74 804.971 1918.59 804.581 1918.3C804.19 1917.98 803.682 1917.65 803.057 1917.29C802.448 1916.91 801.698 1916.58 800.807 1916.28C799.932 1915.97 798.877 1915.81 797.643 1915.81C796.299 1915.81 795.073 1916.09 793.963 1916.63C792.87 1917.16 791.932 1917.95 791.151 1919C790.37 1920.05 789.76 1921.33 789.323 1922.84C788.901 1924.34 788.69 1926.06 788.69 1928C788.69 1929.92 788.893 1931.62 789.299 1933.11C789.721 1934.58 790.315 1935.81 791.081 1936.81C791.862 1937.8 792.815 1938.55 793.94 1939.06C795.065 1939.56 796.338 1939.81 797.76 1939.81C798.963 1939.81 800.01 1939.66 800.901 1939.37C801.807 1939.07 802.573 1938.74 803.198 1938.38C803.838 1938.01 804.362 1937.67 804.768 1937.38C805.174 1937.08 805.495 1936.93 805.729 1936.93C805.838 1936.93 805.932 1936.95 806.01 1937C806.088 1937.05 806.151 1937.14 806.198 1937.28C806.245 1937.41 806.276 1937.59 806.292 1937.82C806.323 1938.05 806.338 1938.35 806.338 1938.71ZM828.661 1930.95C828.661 1931.56 828.505 1932 828.192 1932.27C827.895 1932.52 827.551 1932.64 827.161 1932.64H813.333C813.333 1933.81 813.45 1934.87 813.684 1935.8C813.919 1936.74 814.309 1937.55 814.856 1938.22C815.403 1938.89 816.114 1939.41 816.989 1939.77C817.864 1940.12 818.934 1940.3 820.2 1940.3C821.2 1940.3 822.091 1940.23 822.872 1940.07C823.653 1939.9 824.325 1939.71 824.887 1939.51C825.466 1939.3 825.934 1939.12 826.294 1938.97C826.669 1938.8 826.95 1938.71 827.137 1938.71C827.247 1938.71 827.341 1938.74 827.419 1938.8C827.512 1938.85 827.583 1938.93 827.63 1939.04C827.676 1939.15 827.708 1939.3 827.723 1939.51C827.755 1939.7 827.77 1939.93 827.77 1940.21C827.77 1940.41 827.762 1940.59 827.747 1940.75C827.731 1940.89 827.708 1941.02 827.676 1941.15C827.661 1941.26 827.622 1941.36 827.559 1941.45C827.512 1941.55 827.442 1941.64 827.348 1941.73C827.27 1941.81 827.02 1941.95 826.598 1942.16C826.176 1942.34 825.63 1942.53 824.958 1942.72C824.286 1942.91 823.505 1943.07 822.614 1943.21C821.739 1943.37 820.801 1943.45 819.801 1943.45C818.067 1943.45 816.544 1943.2 815.231 1942.72C813.934 1942.23 812.841 1941.52 811.95 1940.56C811.059 1939.61 810.387 1938.41 809.934 1936.98C809.481 1935.54 809.255 1933.87 809.255 1931.96C809.255 1930.15 809.489 1928.52 809.958 1927.09C810.426 1925.63 811.098 1924.41 811.973 1923.41C812.864 1922.39 813.934 1921.62 815.184 1921.09C816.434 1920.54 817.833 1920.27 819.38 1920.27C821.036 1920.27 822.442 1920.53 823.598 1921.06C824.77 1921.59 825.731 1922.31 826.481 1923.22C827.231 1924.11 827.778 1925.16 828.122 1926.38C828.481 1927.59 828.661 1928.88 828.661 1930.25V1930.95ZM824.77 1929.8C824.817 1927.77 824.364 1926.18 823.411 1925.02C822.473 1923.87 821.075 1923.29 819.216 1923.29C818.262 1923.29 817.426 1923.47 816.708 1923.83C815.989 1924.19 815.387 1924.66 814.903 1925.26C814.419 1925.85 814.044 1926.55 813.778 1927.34C813.512 1928.12 813.364 1928.95 813.333 1929.8H824.77ZM852.155 1942.41C852.155 1942.54 852.124 1942.65 852.061 1942.74C851.999 1942.82 851.897 1942.89 851.757 1942.95C851.616 1943.02 851.421 1943.06 851.171 1943.09C850.921 1943.12 850.608 1943.14 850.233 1943.14C849.843 1943.14 849.522 1943.12 849.272 1943.09C849.022 1943.06 848.827 1943.02 848.686 1942.95C848.546 1942.89 848.444 1942.82 848.382 1942.74C848.319 1942.65 848.288 1942.54 848.288 1942.41V1930.06C848.288 1928.86 848.194 1927.89 848.007 1927.16C847.819 1926.42 847.546 1925.79 847.186 1925.26C846.827 1924.73 846.358 1924.32 845.78 1924.04C845.218 1923.76 844.561 1923.62 843.811 1923.62C842.843 1923.62 841.874 1923.96 840.905 1924.65C839.936 1925.34 838.921 1926.34 837.858 1927.67V1942.41C837.858 1942.54 837.827 1942.65 837.765 1942.74C837.702 1942.82 837.6 1942.89 837.46 1942.95C837.319 1943.02 837.124 1943.06 836.874 1943.09C836.624 1943.12 836.304 1943.14 835.913 1943.14C835.538 1943.14 835.225 1943.12 834.975 1943.09C834.725 1943.06 834.522 1943.02 834.366 1942.95C834.225 1942.89 834.124 1942.82 834.061 1942.74C834.015 1942.65 833.991 1942.54 833.991 1942.41V1921.32C833.991 1921.2 834.015 1921.09 834.061 1921.02C834.108 1920.92 834.202 1920.84 834.343 1920.78C834.483 1920.7 834.663 1920.66 834.882 1920.64C835.1 1920.61 835.39 1920.59 835.749 1920.59C836.093 1920.59 836.374 1920.61 836.593 1920.64C836.827 1920.66 837.007 1920.7 837.132 1920.78C837.257 1920.84 837.343 1920.92 837.39 1921.02C837.452 1921.09 837.483 1921.2 837.483 1921.32V1924.11C838.671 1922.78 839.85 1921.81 841.022 1921.2C842.21 1920.58 843.405 1920.27 844.608 1920.27C846.015 1920.27 847.194 1920.51 848.147 1920.99C849.116 1921.46 849.897 1922.09 850.491 1922.89C851.085 1923.69 851.507 1924.62 851.757 1925.7C852.022 1926.77 852.155 1928.05 852.155 1929.55V1942.41ZM869.181 1940.87C869.181 1941.32 869.149 1941.68 869.087 1941.95C869.024 1942.21 868.931 1942.41 868.806 1942.53C868.681 1942.66 868.493 1942.77 868.243 1942.88C867.993 1942.99 867.704 1943.08 867.376 1943.14C867.064 1943.22 866.728 1943.28 866.368 1943.33C866.009 1943.38 865.649 1943.4 865.29 1943.4C864.196 1943.4 863.259 1943.26 862.478 1942.98C861.696 1942.68 861.056 1942.24 860.556 1941.66C860.056 1941.07 859.689 1940.33 859.454 1939.44C859.235 1938.53 859.126 1937.47 859.126 1936.25V1923.92H856.173C855.939 1923.92 855.751 1923.8 855.61 1923.55C855.47 1923.3 855.399 1922.89 855.399 1922.33C855.399 1922.03 855.415 1921.78 855.446 1921.58C855.493 1921.38 855.548 1921.21 855.61 1921.09C855.673 1920.95 855.751 1920.85 855.845 1920.8C855.954 1920.74 856.071 1920.71 856.196 1920.71H859.126V1915.7C859.126 1915.59 859.149 1915.48 859.196 1915.39C859.259 1915.3 859.36 1915.22 859.501 1915.16C859.657 1915.08 859.86 1915.02 860.11 1914.99C860.36 1914.96 860.673 1914.95 861.048 1914.95C861.439 1914.95 861.759 1914.96 862.009 1914.99C862.259 1915.02 862.454 1915.08 862.595 1915.16C862.735 1915.22 862.837 1915.3 862.899 1915.39C862.962 1915.48 862.993 1915.59 862.993 1915.7V1920.71H868.407C868.532 1920.71 868.642 1920.74 868.735 1920.8C868.829 1920.85 868.907 1920.95 868.97 1921.09C869.048 1921.21 869.103 1921.38 869.134 1921.58C869.165 1921.78 869.181 1922.03 869.181 1922.33C869.181 1922.89 869.11 1923.3 868.97 1923.55C868.829 1923.8 868.642 1923.92 868.407 1923.92H862.993V1935.69C862.993 1937.14 863.204 1938.24 863.626 1938.99C864.064 1939.73 864.837 1940.09 865.946 1940.09C866.306 1940.09 866.626 1940.06 866.907 1940C867.189 1939.92 867.439 1939.84 867.657 1939.77C867.876 1939.69 868.064 1939.62 868.22 1939.55C868.376 1939.48 868.517 1939.44 868.642 1939.44C868.72 1939.44 868.79 1939.46 868.853 1939.51C868.931 1939.54 868.985 1939.61 869.017 1939.72C869.064 1939.83 869.103 1939.98 869.134 1940.16C869.165 1940.35 869.181 1940.59 869.181 1940.87ZM891.198 1930.95C891.198 1931.56 891.042 1932 890.73 1932.27C890.433 1932.52 890.089 1932.64 889.698 1932.64H875.87C875.87 1933.81 875.988 1934.87 876.222 1935.8C876.456 1936.74 876.847 1937.55 877.394 1938.22C877.941 1938.89 878.652 1939.41 879.527 1939.77C880.402 1940.12 881.472 1940.3 882.738 1940.3C883.738 1940.3 884.628 1940.23 885.409 1940.07C886.191 1939.9 886.863 1939.71 887.425 1939.51C888.003 1939.3 888.472 1939.12 888.831 1938.97C889.206 1938.8 889.488 1938.71 889.675 1938.71C889.784 1938.71 889.878 1938.74 889.956 1938.8C890.05 1938.85 890.12 1938.93 890.167 1939.04C890.214 1939.15 890.245 1939.3 890.261 1939.51C890.292 1939.7 890.308 1939.93 890.308 1940.21C890.308 1940.41 890.3 1940.59 890.284 1940.75C890.269 1940.89 890.245 1941.02 890.214 1941.15C890.198 1941.26 890.159 1941.36 890.097 1941.45C890.05 1941.55 889.98 1941.64 889.886 1941.73C889.808 1941.81 889.558 1941.95 889.136 1942.16C888.714 1942.34 888.167 1942.53 887.495 1942.72C886.823 1942.91 886.042 1943.07 885.152 1943.21C884.277 1943.37 883.339 1943.45 882.339 1943.45C880.605 1943.45 879.081 1943.2 877.769 1942.72C876.472 1942.23 875.378 1941.52 874.488 1940.56C873.597 1939.61 872.925 1938.41 872.472 1936.98C872.019 1935.54 871.792 1933.87 871.792 1931.96C871.792 1930.15 872.027 1928.52 872.495 1927.09C872.964 1925.63 873.636 1924.41 874.511 1923.41C875.402 1922.39 876.472 1921.62 877.722 1921.09C878.972 1920.54 880.37 1920.27 881.917 1920.27C883.573 1920.27 884.98 1920.53 886.136 1921.06C887.308 1921.59 888.269 1922.31 889.019 1923.22C889.769 1924.11 890.316 1925.16 890.659 1926.38C891.019 1927.59 891.198 1928.88 891.198 1930.25V1930.95ZM887.308 1929.8C887.355 1927.77 886.902 1926.18 885.948 1925.02C885.011 1923.87 883.613 1923.29 881.753 1923.29C880.8 1923.29 879.964 1923.47 879.245 1923.83C878.527 1924.19 877.925 1924.66 877.441 1925.26C876.956 1925.85 876.581 1926.55 876.316 1927.34C876.05 1928.12 875.902 1928.95 875.87 1929.8H887.308ZM908.857 1922.7C908.857 1923.05 908.849 1923.34 908.833 1923.57C908.818 1923.8 908.787 1923.99 908.74 1924.13C908.693 1924.26 908.63 1924.36 908.552 1924.44C908.49 1924.5 908.396 1924.53 908.271 1924.53C908.146 1924.53 907.99 1924.5 907.802 1924.44C907.63 1924.36 907.427 1924.29 907.193 1924.23C906.974 1924.15 906.724 1924.08 906.443 1924.02C906.162 1923.95 905.857 1923.92 905.529 1923.92C905.138 1923.92 904.755 1924 904.38 1924.16C904.005 1924.31 903.607 1924.57 903.185 1924.93C902.779 1925.29 902.349 1925.77 901.896 1926.36C901.443 1926.95 900.943 1927.68 900.396 1928.54V1942.41C900.396 1942.54 900.365 1942.65 900.302 1942.74C900.24 1942.82 900.138 1942.89 899.997 1942.95C899.857 1943.02 899.662 1943.06 899.412 1943.09C899.162 1943.12 898.841 1943.14 898.451 1943.14C898.076 1943.14 897.763 1943.12 897.513 1943.09C897.263 1943.06 897.06 1943.02 896.904 1942.95C896.763 1942.89 896.662 1942.82 896.599 1942.74C896.552 1942.65 896.529 1942.54 896.529 1942.41V1921.32C896.529 1921.2 896.552 1921.09 896.599 1921.02C896.646 1920.92 896.74 1920.84 896.88 1920.78C897.021 1920.7 897.201 1920.66 897.419 1920.64C897.638 1920.61 897.927 1920.59 898.287 1920.59C898.63 1920.59 898.912 1920.61 899.13 1920.64C899.365 1920.66 899.544 1920.7 899.669 1920.78C899.794 1920.84 899.88 1920.92 899.927 1921.02C899.99 1921.09 900.021 1921.2 900.021 1921.32V1924.39C900.599 1923.55 901.138 1922.86 901.638 1922.33C902.154 1921.8 902.638 1921.38 903.091 1921.09C903.544 1920.77 903.99 1920.56 904.427 1920.45C904.88 1920.33 905.333 1920.27 905.787 1920.27C905.99 1920.27 906.216 1920.28 906.466 1920.31C906.732 1920.33 907.005 1920.37 907.287 1920.43C907.568 1920.49 907.818 1920.56 908.037 1920.64C908.271 1920.72 908.435 1920.8 908.529 1920.88C908.622 1920.95 908.685 1921.03 908.716 1921.11C908.747 1921.17 908.771 1921.26 908.787 1921.37C908.818 1921.48 908.833 1921.64 908.833 1921.86C908.849 1922.06 908.857 1922.34 908.857 1922.7ZM946.752 1927.39C946.752 1930.02 946.416 1932.31 945.744 1934.28C945.072 1936.23 944.088 1937.86 942.791 1939.16C941.51 1940.44 939.931 1941.4 938.056 1942.04C936.181 1942.68 933.947 1943 931.353 1943H924.931C924.572 1943 924.228 1942.88 923.9 1942.65C923.588 1942.4 923.431 1941.97 923.431 1941.36V1914.31C923.431 1913.7 923.588 1913.28 923.9 1913.05C924.228 1912.8 924.572 1912.67 924.931 1912.67H931.799C934.424 1912.67 936.642 1913.02 938.455 1913.7C940.267 1914.38 941.783 1915.35 943.002 1916.63C944.236 1917.9 945.166 1919.44 945.791 1921.25C946.431 1923.06 946.752 1925.11 946.752 1927.39ZM942.51 1927.55C942.51 1925.91 942.306 1924.39 941.9 1922.98C941.494 1921.56 940.853 1920.34 939.978 1919.3C939.119 1918.27 938.025 1917.47 936.697 1916.89C935.369 1916.31 933.658 1916.02 931.564 1916.02H927.463V1939.62H931.611C933.549 1939.62 935.181 1939.38 936.51 1938.9C937.838 1938.41 938.947 1937.67 939.838 1936.67C940.728 1935.67 941.392 1934.42 941.83 1932.92C942.283 1931.41 942.51 1929.62 942.51 1927.55ZM955.809 1942.41C955.809 1942.54 955.777 1942.65 955.715 1942.74C955.652 1942.82 955.551 1942.89 955.41 1942.95C955.27 1943.02 955.074 1943.06 954.824 1943.09C954.574 1943.12 954.254 1943.14 953.863 1943.14C953.488 1943.14 953.176 1943.12 952.926 1943.09C952.676 1943.06 952.473 1943.02 952.316 1942.95C952.176 1942.89 952.074 1942.82 952.012 1942.74C951.965 1942.65 951.941 1942.54 951.941 1942.41V1921.32C951.941 1921.21 951.965 1921.11 952.012 1921.02C952.074 1920.92 952.176 1920.84 952.316 1920.78C952.473 1920.72 952.676 1920.67 952.926 1920.64C953.176 1920.61 953.488 1920.59 953.863 1920.59C954.254 1920.59 954.574 1920.61 954.824 1920.64C955.074 1920.67 955.27 1920.72 955.41 1920.78C955.551 1920.84 955.652 1920.92 955.715 1921.02C955.777 1921.11 955.809 1921.21 955.809 1921.32V1942.41ZM956.254 1914.2C956.254 1915.1 956.082 1915.72 955.738 1916.05C955.395 1916.38 954.762 1916.54 953.84 1916.54C952.934 1916.54 952.309 1916.38 951.965 1916.07C951.637 1915.74 951.473 1915.13 951.473 1914.24C951.473 1913.34 951.645 1912.72 951.988 1912.39C952.332 1912.06 952.965 1911.9 953.887 1911.9C954.793 1911.9 955.41 1912.06 955.738 1912.39C956.082 1912.7 956.254 1913.3 956.254 1914.2ZM974.709 1922.7C974.709 1923.05 974.701 1923.34 974.686 1923.57C974.67 1923.8 974.639 1923.99 974.592 1924.13C974.545 1924.26 974.483 1924.36 974.404 1924.44C974.342 1924.5 974.248 1924.53 974.123 1924.53C973.998 1924.53 973.842 1924.5 973.654 1924.44C973.483 1924.36 973.279 1924.29 973.045 1924.23C972.826 1924.15 972.576 1924.08 972.295 1924.02C972.014 1923.95 971.709 1923.92 971.381 1923.92C970.99 1923.92 970.608 1924 970.233 1924.16C969.858 1924.31 969.459 1924.57 969.037 1924.93C968.631 1925.29 968.201 1925.77 967.748 1926.36C967.295 1926.95 966.795 1927.68 966.248 1928.54V1942.41C966.248 1942.54 966.217 1942.65 966.154 1942.74C966.092 1942.82 965.99 1942.89 965.85 1942.95C965.709 1943.02 965.514 1943.06 965.264 1943.09C965.014 1943.12 964.693 1943.14 964.303 1943.14C963.928 1943.14 963.615 1943.12 963.365 1943.09C963.115 1943.06 962.912 1943.02 962.756 1942.95C962.615 1942.89 962.514 1942.82 962.451 1942.74C962.404 1942.65 962.381 1942.54 962.381 1942.41V1921.32C962.381 1921.2 962.404 1921.09 962.451 1921.02C962.498 1920.92 962.592 1920.84 962.733 1920.78C962.873 1920.7 963.053 1920.66 963.272 1920.64C963.49 1920.61 963.779 1920.59 964.139 1920.59C964.483 1920.59 964.764 1920.61 964.983 1920.64C965.217 1920.66 965.397 1920.7 965.522 1920.78C965.647 1920.84 965.733 1920.92 965.779 1921.02C965.842 1921.09 965.873 1921.2 965.873 1921.32V1924.39C966.451 1923.55 966.99 1922.86 967.49 1922.33C968.006 1921.8 968.49 1921.38 968.943 1921.09C969.397 1920.77 969.842 1920.56 970.279 1920.45C970.733 1920.33 971.186 1920.27 971.639 1920.27C971.842 1920.27 972.068 1920.28 972.318 1920.31C972.584 1920.33 972.858 1920.37 973.139 1920.43C973.42 1920.49 973.67 1920.56 973.889 1920.64C974.123 1920.72 974.287 1920.8 974.381 1920.88C974.475 1920.95 974.537 1921.03 974.568 1921.11C974.6 1921.17 974.623 1921.26 974.639 1921.37C974.67 1921.48 974.686 1921.64 974.686 1921.86C974.701 1922.06 974.709 1922.34 974.709 1922.7ZM995.93 1930.95C995.93 1931.56 995.774 1932 995.461 1932.27C995.164 1932.52 994.821 1932.64 994.43 1932.64H980.602C980.602 1933.81 980.719 1934.87 980.953 1935.8C981.188 1936.74 981.578 1937.55 982.125 1938.22C982.672 1938.89 983.383 1939.41 984.258 1939.77C985.133 1940.12 986.203 1940.3 987.469 1940.3C988.469 1940.3 989.36 1940.23 990.141 1940.07C990.922 1939.9 991.594 1939.71 992.157 1939.51C992.735 1939.3 993.203 1939.12 993.563 1938.97C993.938 1938.8 994.219 1938.71 994.407 1938.71C994.516 1938.71 994.61 1938.74 994.688 1938.8C994.782 1938.85 994.852 1938.93 994.899 1939.04C994.946 1939.15 994.977 1939.3 994.992 1939.51C995.024 1939.7 995.039 1939.93 995.039 1940.21C995.039 1940.41 995.032 1940.59 995.016 1940.75C995 1940.89 994.977 1941.02 994.946 1941.15C994.93 1941.26 994.891 1941.36 994.828 1941.45C994.782 1941.55 994.711 1941.64 994.617 1941.73C994.539 1941.81 994.289 1941.95 993.867 1942.16C993.446 1942.34 992.899 1942.53 992.227 1942.72C991.555 1942.91 990.774 1943.07 989.883 1943.21C989.008 1943.37 988.071 1943.45 987.071 1943.45C985.336 1943.45 983.813 1943.2 982.5 1942.72C981.203 1942.23 980.11 1941.52 979.219 1940.56C978.328 1939.61 977.657 1938.41 977.203 1936.98C976.75 1935.54 976.524 1933.87 976.524 1931.96C976.524 1930.15 976.758 1928.52 977.227 1927.09C977.696 1925.63 978.367 1924.41 979.242 1923.41C980.133 1922.39 981.203 1921.62 982.453 1921.09C983.703 1920.54 985.102 1920.27 986.649 1920.27C988.305 1920.27 989.711 1920.53 990.867 1921.06C992.039 1921.59 993 1922.31 993.75 1923.22C994.5 1924.11 995.047 1925.16 995.391 1926.38C995.75 1927.59 995.93 1928.88 995.93 1930.25V1930.95ZM992.039 1929.8C992.086 1927.77 991.633 1926.18 990.68 1925.02C989.742 1923.87 988.344 1923.29 986.485 1923.29C985.532 1923.29 984.696 1923.47 983.977 1923.83C983.258 1924.19 982.657 1924.66 982.172 1925.26C981.688 1925.85 981.313 1926.55 981.047 1927.34C980.782 1928.12 980.633 1928.95 980.602 1929.8H992.039ZM1016.42 1939.2C1016.42 1939.47 1016.42 1939.7 1016.4 1939.91C1016.39 1940.09 1016.35 1940.26 1016.31 1940.4C1016.28 1940.52 1016.23 1940.64 1016.17 1940.75C1016.12 1940.84 1015.99 1940.99 1015.79 1941.2C1015.6 1941.38 1015.28 1941.62 1014.81 1941.92C1014.34 1942.2 1013.81 1942.46 1013.21 1942.7C1012.64 1942.91 1012 1943.09 1011.31 1943.23C1010.63 1943.38 1009.92 1943.45 1009.18 1943.45C1007.67 1943.45 1006.32 1943.2 1005.15 1942.7C1003.98 1942.2 1002.99 1941.47 1002.2 1940.52C1001.42 1939.55 1000.81 1938.37 1000.39 1936.98C999.987 1935.57 999.784 1933.95 999.784 1932.12C999.784 1930.05 1000.03 1928.27 1000.53 1926.78C1001.05 1925.28 1001.74 1924.05 1002.62 1923.1C1003.51 1922.15 1004.55 1921.45 1005.74 1920.99C1006.94 1920.52 1008.24 1920.29 1009.63 1920.29C1010.3 1920.29 1010.95 1920.35 1011.57 1920.48C1012.21 1920.6 1012.8 1920.77 1013.33 1920.97C1013.86 1921.17 1014.33 1921.41 1014.74 1921.67C1015.16 1921.94 1015.46 1922.16 1015.65 1922.35C1015.84 1922.54 1015.96 1922.69 1016.03 1922.8C1016.1 1922.91 1016.17 1923.04 1016.21 1923.2C1016.26 1923.34 1016.29 1923.5 1016.31 1923.69C1016.32 1923.88 1016.33 1924.11 1016.33 1924.39C1016.33 1925 1016.26 1925.43 1016.12 1925.68C1015.98 1925.91 1015.81 1926.03 1015.6 1926.03C1015.37 1926.03 1015.1 1925.91 1014.78 1925.66C1014.49 1925.39 1014.1 1925.1 1013.64 1924.79C1013.17 1924.48 1012.6 1924.2 1011.92 1923.95C1011.27 1923.68 1010.49 1923.55 1009.58 1923.55C1007.72 1923.55 1006.29 1924.27 1005.29 1925.7C1004.31 1927.12 1003.81 1929.2 1003.81 1931.91C1003.81 1933.27 1003.94 1934.47 1004.19 1935.5C1004.46 1936.52 1004.84 1937.37 1005.34 1938.05C1005.84 1938.74 1006.45 1939.26 1007.17 1939.6C1007.9 1939.93 1008.74 1940.09 1009.67 1940.09C1010.56 1940.09 1011.35 1939.95 1012.02 1939.67C1012.69 1939.39 1013.27 1939.09 1013.75 1938.76C1014.25 1938.41 1014.67 1938.11 1014.99 1937.84C1015.34 1937.56 1015.6 1937.42 1015.79 1937.42C1015.9 1937.42 1015.99 1937.45 1016.07 1937.52C1016.15 1937.58 1016.21 1937.69 1016.26 1937.84C1016.32 1937.98 1016.36 1938.17 1016.38 1938.41C1016.41 1938.62 1016.42 1938.89 1016.42 1939.2ZM1031.95 1940.87C1031.95 1941.32 1031.92 1941.68 1031.86 1941.95C1031.79 1942.21 1031.7 1942.41 1031.57 1942.53C1031.45 1942.66 1031.26 1942.77 1031.01 1942.88C1030.76 1942.99 1030.47 1943.08 1030.15 1943.14C1029.83 1943.22 1029.5 1943.28 1029.14 1943.33C1028.78 1943.38 1028.42 1943.4 1028.06 1943.4C1026.97 1943.4 1026.03 1943.26 1025.25 1942.98C1024.47 1942.68 1023.82 1942.24 1023.32 1941.66C1022.82 1941.07 1022.46 1940.33 1022.22 1939.44C1022 1938.53 1021.9 1937.47 1021.9 1936.25V1923.92H1018.94C1018.71 1923.92 1018.52 1923.8 1018.38 1923.55C1018.24 1923.3 1018.17 1922.89 1018.17 1922.33C1018.17 1922.03 1018.18 1921.78 1018.22 1921.58C1018.26 1921.38 1018.32 1921.21 1018.38 1921.09C1018.44 1920.95 1018.52 1920.85 1018.61 1920.8C1018.72 1920.74 1018.84 1920.71 1018.97 1920.71H1021.9V1915.7C1021.9 1915.59 1021.92 1915.48 1021.97 1915.39C1022.03 1915.3 1022.13 1915.22 1022.27 1915.16C1022.43 1915.08 1022.63 1915.02 1022.88 1914.99C1023.13 1914.96 1023.44 1914.95 1023.82 1914.95C1024.21 1914.95 1024.53 1914.96 1024.78 1914.99C1025.03 1915.02 1025.22 1915.08 1025.36 1915.16C1025.5 1915.22 1025.61 1915.3 1025.67 1915.39C1025.73 1915.48 1025.76 1915.59 1025.76 1915.7V1920.71H1031.18C1031.3 1920.71 1031.41 1920.74 1031.5 1920.8C1031.6 1920.85 1031.68 1920.95 1031.74 1921.09C1031.82 1921.21 1031.87 1921.38 1031.9 1921.58C1031.93 1921.78 1031.95 1922.03 1031.95 1922.33C1031.95 1922.89 1031.88 1923.3 1031.74 1923.55C1031.6 1923.8 1031.41 1923.92 1031.18 1923.92H1025.76V1935.69C1025.76 1937.14 1025.97 1938.24 1026.4 1938.99C1026.83 1939.73 1027.61 1940.09 1028.72 1940.09C1029.07 1940.09 1029.4 1940.06 1029.68 1940C1029.96 1939.92 1030.21 1939.84 1030.43 1939.77C1030.65 1939.69 1030.83 1939.62 1030.99 1939.55C1031.15 1939.48 1031.29 1939.44 1031.41 1939.44C1031.49 1939.44 1031.56 1939.46 1031.62 1939.51C1031.7 1939.54 1031.75 1939.61 1031.79 1939.72C1031.83 1939.83 1031.87 1939.98 1031.9 1940.16C1031.93 1940.35 1031.95 1940.59 1031.95 1940.87ZM1055.63 1931.63C1055.63 1933.35 1055.41 1934.94 1054.95 1936.39C1054.5 1937.83 1053.82 1939.07 1052.91 1940.12C1052.02 1941.16 1050.9 1941.98 1049.54 1942.58C1048.19 1943.16 1046.63 1943.45 1044.85 1943.45C1043.12 1943.45 1041.6 1943.19 1040.3 1942.67C1039.02 1942.16 1037.95 1941.41 1037.09 1940.42C1036.23 1939.44 1035.59 1938.24 1035.17 1936.84C1034.75 1935.43 1034.54 1933.84 1034.54 1932.05C1034.54 1930.34 1034.76 1928.76 1035.19 1927.32C1035.65 1925.87 1036.32 1924.62 1037.21 1923.57C1038.12 1922.52 1039.24 1921.71 1040.58 1921.13C1041.93 1920.55 1043.5 1920.27 1045.3 1920.27C1047.03 1920.27 1048.54 1920.52 1049.82 1921.04C1051.12 1921.55 1052.19 1922.3 1053.05 1923.29C1053.91 1924.27 1054.55 1925.47 1054.98 1926.88C1055.41 1928.28 1055.63 1929.87 1055.63 1931.63ZM1051.55 1931.89C1051.55 1930.75 1051.44 1929.67 1051.23 1928.66C1051.02 1927.64 1050.68 1926.75 1050.19 1925.98C1049.71 1925.22 1049.05 1924.62 1048.23 1924.18C1047.4 1923.73 1046.37 1923.5 1045.13 1923.5C1043.99 1923.5 1043.01 1923.7 1042.18 1924.11C1041.37 1924.52 1040.69 1925.09 1040.16 1925.84C1039.63 1926.58 1039.23 1927.45 1038.97 1928.47C1038.72 1929.48 1038.59 1930.59 1038.59 1931.8C1038.59 1932.95 1038.69 1934.04 1038.9 1935.05C1039.12 1936.07 1039.47 1936.96 1039.95 1937.73C1040.45 1938.48 1041.12 1939.08 1041.94 1939.53C1042.77 1939.97 1043.8 1940.19 1045.04 1940.19C1046.16 1940.19 1047.14 1939.98 1047.97 1939.58C1048.8 1939.17 1049.48 1938.6 1050.01 1937.87C1050.54 1937.13 1050.93 1936.26 1051.18 1935.24C1051.43 1934.23 1051.55 1933.11 1051.55 1931.89ZM1073.08 1922.7C1073.08 1923.05 1073.07 1923.34 1073.06 1923.57C1073.04 1923.8 1073.01 1923.99 1072.96 1924.13C1072.92 1924.26 1072.85 1924.36 1072.77 1924.44C1072.71 1924.5 1072.62 1924.53 1072.49 1924.53C1072.37 1924.53 1072.21 1924.5 1072.02 1924.44C1071.85 1924.36 1071.65 1924.29 1071.42 1924.23C1071.2 1924.15 1070.95 1924.08 1070.67 1924.02C1070.38 1923.95 1070.08 1923.92 1069.75 1923.92C1069.36 1923.92 1068.98 1924 1068.6 1924.16C1068.23 1924.31 1067.83 1924.57 1067.41 1924.93C1067 1925.29 1066.57 1925.77 1066.12 1926.36C1065.67 1926.95 1065.17 1927.68 1064.62 1928.54V1942.41C1064.62 1942.54 1064.59 1942.65 1064.52 1942.74C1064.46 1942.82 1064.36 1942.89 1064.22 1942.95C1064.08 1943.02 1063.88 1943.06 1063.63 1943.09C1063.38 1943.12 1063.06 1943.14 1062.67 1943.14C1062.3 1943.14 1061.99 1943.12 1061.74 1943.09C1061.49 1943.06 1061.28 1943.02 1061.13 1942.95C1060.99 1942.89 1060.88 1942.82 1060.82 1942.74C1060.77 1942.65 1060.75 1942.54 1060.75 1942.41V1921.32C1060.75 1921.2 1060.77 1921.09 1060.82 1921.02C1060.87 1920.92 1060.96 1920.84 1061.1 1920.78C1061.24 1920.7 1061.42 1920.66 1061.64 1920.64C1061.86 1920.61 1062.15 1920.59 1062.51 1920.59C1062.85 1920.59 1063.13 1920.61 1063.35 1920.64C1063.59 1920.66 1063.77 1920.7 1063.89 1920.78C1064.02 1920.84 1064.1 1920.92 1064.15 1921.02C1064.21 1921.09 1064.24 1921.2 1064.24 1921.32V1924.39C1064.82 1923.55 1065.36 1922.86 1065.86 1922.33C1066.38 1921.8 1066.86 1921.38 1067.31 1921.09C1067.77 1920.77 1068.21 1920.56 1068.65 1920.45C1069.1 1920.33 1069.56 1920.27 1070.01 1920.27C1070.21 1920.27 1070.44 1920.28 1070.69 1920.31C1070.95 1920.33 1071.23 1920.37 1071.51 1920.43C1071.79 1920.49 1072.04 1920.56 1072.26 1920.64C1072.49 1920.72 1072.66 1920.8 1072.75 1920.88C1072.84 1920.95 1072.91 1921.03 1072.94 1921.11C1072.97 1921.17 1072.99 1921.26 1073.01 1921.37C1073.04 1921.48 1073.06 1921.64 1073.06 1921.86C1073.07 1922.06 1073.08 1922.34 1073.08 1922.7Z" fill="black"/>
</svg>
