<svg width="3450" height="2210" viewBox="0 0 3450 2210" fill="none" xmlns="http://www.w3.org/2000/svg">
<path d="M453.75 1858.94C454 1859.69 454.156 1860.28 454.219 1860.72C454.281 1861.16 454.198 1861.49 453.969 1861.72C453.74 1861.93 453.333 1862.05 452.75 1862.09C452.167 1862.16 451.365 1862.19 450.344 1862.19C449.281 1862.19 448.448 1862.17 447.844 1862.12C447.26 1862.1 446.812 1862.05 446.5 1861.97C446.188 1861.86 445.969 1861.73 445.844 1861.56C445.719 1861.4 445.615 1861.18 445.531 1860.91L442.812 1852.78H427.625L425.062 1860.69C424.979 1860.98 424.865 1861.23 424.719 1861.44C424.594 1861.62 424.375 1861.78 424.062 1861.91C423.771 1862.01 423.344 1862.08 422.781 1862.12C422.24 1862.17 421.521 1862.19 420.625 1862.19C419.667 1862.19 418.917 1862.16 418.375 1862.09C417.833 1862.03 417.458 1861.89 417.25 1861.66C417.042 1861.41 416.969 1861.06 417.031 1860.62C417.094 1860.19 417.25 1859.6 417.5 1858.88L429.969 1823C430.094 1822.65 430.24 1822.36 430.406 1822.16C430.573 1821.93 430.833 1821.76 431.188 1821.66C431.562 1821.53 432.073 1821.46 432.719 1821.44C433.365 1821.4 434.219 1821.38 435.281 1821.38C436.51 1821.38 437.49 1821.4 438.219 1821.44C438.948 1821.46 439.51 1821.53 439.906 1821.66C440.323 1821.76 440.615 1821.93 440.781 1822.16C440.969 1822.39 441.125 1822.7 441.25 1823.09L453.75 1858.94ZM435.188 1829.28H435.156L429.438 1846.47H440.906L435.188 1829.28ZM476.875 1835.66C476.875 1836.41 476.854 1837.02 476.812 1837.5C476.771 1837.98 476.708 1838.35 476.625 1838.62C476.542 1838.9 476.427 1839.08 476.281 1839.19C476.156 1839.29 475.99 1839.34 475.781 1839.34C475.615 1839.34 475.427 1839.31 475.219 1839.25C475.01 1839.17 474.771 1839.08 474.5 1839C474.25 1838.92 473.969 1838.84 473.656 1838.78C473.344 1838.7 473 1838.66 472.625 1838.66C472.188 1838.66 471.75 1838.75 471.312 1838.94C470.875 1839.1 470.417 1839.38 469.938 1839.75C469.479 1840.12 468.99 1840.62 468.469 1841.25C467.969 1841.88 467.427 1842.65 466.844 1843.56V1860.94C466.844 1861.15 466.781 1861.33 466.656 1861.5C466.531 1861.65 466.312 1861.77 466 1861.88C465.708 1861.98 465.312 1862.05 464.812 1862.09C464.312 1862.16 463.677 1862.19 462.906 1862.19C462.135 1862.19 461.5 1862.16 461 1862.09C460.5 1862.05 460.094 1861.98 459.781 1861.88C459.49 1861.77 459.281 1861.65 459.156 1861.5C459.031 1861.33 458.969 1861.15 458.969 1860.94V1833.06C458.969 1832.85 459.021 1832.68 459.125 1832.53C459.229 1832.36 459.417 1832.23 459.688 1832.12C459.958 1832.02 460.302 1831.95 460.719 1831.91C461.156 1831.84 461.698 1831.81 462.344 1831.81C463.01 1831.81 463.562 1831.84 464 1831.91C464.438 1831.95 464.771 1832.02 465 1832.12C465.25 1832.23 465.427 1832.36 465.531 1832.53C465.635 1832.68 465.688 1832.85 465.688 1833.06V1836.53C466.417 1835.49 467.104 1834.64 467.75 1833.97C468.396 1833.28 469.01 1832.74 469.594 1832.34C470.177 1831.95 470.76 1831.68 471.344 1831.53C471.927 1831.36 472.51 1831.28 473.094 1831.28C473.365 1831.28 473.656 1831.3 473.969 1831.34C474.281 1831.36 474.604 1831.42 474.938 1831.5C475.271 1831.56 475.562 1831.65 475.812 1831.75C476.062 1831.83 476.24 1831.93 476.344 1832.03C476.469 1832.14 476.552 1832.25 476.594 1832.38C476.656 1832.5 476.708 1832.68 476.75 1832.91C476.792 1833.11 476.823 1833.44 476.844 1833.88C476.865 1834.31 476.875 1834.91 476.875 1835.66ZM506.781 1846.19C506.781 1847.15 506.562 1847.85 506.125 1848.31C505.708 1848.77 505.125 1849 504.375 1849H487.406C487.406 1850.19 487.542 1851.27 487.812 1852.25C488.104 1853.21 488.552 1854.03 489.156 1854.72C489.781 1855.39 490.573 1855.9 491.531 1856.25C492.51 1856.6 493.677 1856.78 495.031 1856.78C496.406 1856.78 497.615 1856.69 498.656 1856.5C499.698 1856.29 500.594 1856.07 501.344 1855.84C502.115 1855.59 502.75 1855.38 503.25 1855.19C503.75 1854.98 504.156 1854.88 504.469 1854.88C504.656 1854.88 504.812 1854.92 504.938 1855C505.062 1855.06 505.167 1855.19 505.25 1855.38C505.333 1855.56 505.385 1855.83 505.406 1856.19C505.448 1856.52 505.469 1856.95 505.469 1857.47C505.469 1857.93 505.458 1858.32 505.438 1858.66C505.417 1858.97 505.385 1859.24 505.344 1859.47C505.302 1859.7 505.24 1859.9 505.156 1860.06C505.073 1860.21 504.958 1860.35 504.812 1860.5C504.688 1860.65 504.323 1860.84 503.719 1861.09C503.115 1861.34 502.344 1861.59 501.406 1861.84C500.469 1862.07 499.396 1862.27 498.188 1862.44C496.979 1862.62 495.688 1862.72 494.312 1862.72C491.833 1862.72 489.656 1862.41 487.781 1861.78C485.927 1861.16 484.375 1860.21 483.125 1858.94C481.875 1857.67 480.938 1856.06 480.312 1854.12C479.708 1852.19 479.406 1849.92 479.406 1847.31C479.406 1844.83 479.729 1842.6 480.375 1840.62C481.021 1838.62 481.958 1836.94 483.188 1835.56C484.417 1834.17 485.906 1833.1 487.656 1832.38C489.427 1831.65 491.417 1831.28 493.625 1831.28C495.958 1831.28 497.948 1831.62 499.594 1832.31C501.26 1833 502.625 1833.96 503.688 1835.19C504.75 1836.4 505.531 1837.83 506.031 1839.5C506.531 1841.17 506.781 1842.98 506.781 1844.94V1846.19ZM499.156 1843.94C499.219 1841.73 498.771 1840 497.812 1838.75C496.875 1837.48 495.417 1836.84 493.438 1836.84C492.438 1836.84 491.562 1837.03 490.812 1837.41C490.083 1837.78 489.469 1838.29 488.969 1838.94C488.49 1839.56 488.115 1840.31 487.844 1841.19C487.594 1842.04 487.448 1842.96 487.406 1843.94H499.156ZM557.625 1860.94C557.625 1861.15 557.562 1861.33 557.438 1861.5C557.312 1861.65 557.104 1861.77 556.812 1861.88C556.521 1861.98 556.125 1862.05 555.625 1862.09C555.125 1862.16 554.49 1862.19 553.719 1862.19C552.927 1862.19 552.281 1862.16 551.781 1862.09C551.281 1862.05 550.875 1861.98 550.562 1861.88C550.271 1861.77 550.062 1861.65 549.938 1861.5C549.833 1861.33 549.781 1861.15 549.781 1860.94V1844.41C549.781 1843.47 549.688 1842.61 549.5 1841.84C549.333 1841.07 549.062 1840.42 548.688 1839.88C548.333 1839.31 547.875 1838.89 547.312 1838.59C546.771 1838.28 546.115 1838.12 545.344 1838.12C544.406 1838.12 543.458 1838.49 542.5 1839.22C541.542 1839.95 540.5 1841.01 539.375 1842.41V1860.94C539.375 1861.15 539.312 1861.33 539.188 1861.5C539.062 1861.65 538.844 1861.77 538.531 1861.88C538.24 1861.98 537.844 1862.05 537.344 1862.09C536.844 1862.16 536.219 1862.19 535.469 1862.19C534.698 1862.19 534.062 1862.16 533.562 1862.09C533.062 1862.05 532.656 1861.98 532.344 1861.88C532.052 1861.77 531.844 1861.65 531.719 1861.5C531.594 1861.33 531.531 1861.15 531.531 1860.94V1844.41C531.531 1843.47 531.438 1842.61 531.25 1841.84C531.083 1841.07 530.823 1840.42 530.469 1839.88C530.115 1839.31 529.656 1838.89 529.094 1838.59C528.531 1838.28 527.875 1838.12 527.125 1838.12C526.167 1838.12 525.208 1838.49 524.25 1839.22C523.292 1839.95 522.26 1841.01 521.156 1842.41V1860.94C521.156 1861.15 521.094 1861.33 520.969 1861.5C520.844 1861.65 520.625 1861.77 520.312 1861.88C520.021 1861.98 519.625 1862.05 519.125 1862.09C518.625 1862.16 517.99 1862.19 517.219 1862.19C516.448 1862.19 515.812 1862.16 515.312 1862.09C514.812 1862.05 514.406 1861.98 514.094 1861.88C513.802 1861.77 513.594 1861.65 513.469 1861.5C513.344 1861.33 513.281 1861.15 513.281 1860.94V1833.06C513.281 1832.85 513.333 1832.68 513.438 1832.53C513.542 1832.36 513.729 1832.23 514 1832.12C514.271 1832.02 514.615 1831.95 515.031 1831.91C515.469 1831.84 516.01 1831.81 516.656 1831.81C517.323 1831.81 517.875 1831.84 518.312 1831.91C518.75 1831.95 519.083 1832.02 519.312 1832.12C519.562 1832.23 519.74 1832.36 519.844 1832.53C519.948 1832.68 520 1832.85 520 1833.06V1836.28C521.542 1834.61 523.073 1833.36 524.594 1832.53C526.135 1831.7 527.74 1831.28 529.406 1831.28C530.552 1831.28 531.583 1831.41 532.5 1831.66C533.417 1831.89 534.229 1832.23 534.938 1832.69C535.667 1833.12 536.292 1833.66 536.812 1834.28C537.333 1834.91 537.771 1835.6 538.125 1836.38C538.958 1835.48 539.771 1834.71 540.562 1834.06C541.375 1833.42 542.167 1832.9 542.938 1832.5C543.729 1832.08 544.51 1831.78 545.281 1831.59C546.073 1831.39 546.875 1831.28 547.688 1831.28C549.542 1831.28 551.104 1831.59 552.375 1832.22C553.646 1832.84 554.667 1833.7 555.438 1834.78C556.229 1835.84 556.792 1837.09 557.125 1838.53C557.458 1839.97 557.625 1841.49 557.625 1843.09V1860.94ZM604.281 1849.88C604.281 1852 603.885 1853.86 603.094 1855.47C602.302 1857.07 601.229 1858.42 599.875 1859.5C598.521 1860.56 596.938 1861.36 595.125 1861.91C593.312 1862.45 591.375 1862.72 589.312 1862.72C587.917 1862.72 586.615 1862.6 585.406 1862.38C584.219 1862.15 583.167 1861.88 582.25 1861.56C581.333 1861.23 580.562 1860.89 579.938 1860.53C579.333 1860.18 578.896 1859.86 578.625 1859.59C578.354 1859.32 578.156 1858.94 578.031 1858.44C577.927 1857.92 577.875 1857.18 577.875 1856.22C577.875 1855.57 577.896 1855.03 577.938 1854.59C577.979 1854.16 578.042 1853.8 578.125 1853.53C578.229 1853.26 578.354 1853.07 578.5 1852.97C578.667 1852.84 578.854 1852.78 579.062 1852.78C579.354 1852.78 579.76 1852.96 580.281 1853.31C580.823 1853.65 581.51 1854.02 582.344 1854.44C583.177 1854.85 584.167 1855.24 585.312 1855.59C586.479 1855.93 587.823 1856.09 589.344 1856.09C590.344 1856.09 591.24 1855.98 592.031 1855.75C592.823 1855.5 593.49 1855.16 594.031 1854.72C594.594 1854.28 595.021 1853.74 595.312 1853.09C595.604 1852.45 595.75 1851.73 595.75 1850.94C595.75 1850.02 595.5 1849.24 595 1848.59C594.5 1847.93 593.844 1847.34 593.031 1846.84C592.24 1846.32 591.333 1845.84 590.312 1845.41C589.292 1844.95 588.24 1844.47 587.156 1843.97C586.073 1843.47 585.021 1842.91 584 1842.28C582.979 1841.64 582.062 1840.88 581.25 1840C580.458 1839.1 579.812 1838.05 579.312 1836.84C578.812 1835.64 578.562 1834.19 578.562 1832.5C578.562 1830.56 578.917 1828.86 579.625 1827.41C580.354 1825.93 581.323 1824.71 582.531 1823.75C583.76 1822.77 585.198 1822.04 586.844 1821.56C588.51 1821.08 590.271 1820.84 592.125 1820.84C593.083 1820.84 594.042 1820.92 595 1821.06C595.958 1821.21 596.854 1821.41 597.688 1821.66C598.521 1821.91 599.26 1822.19 599.906 1822.5C600.552 1822.81 600.979 1823.07 601.188 1823.28C601.396 1823.49 601.531 1823.67 601.594 1823.81C601.677 1823.96 601.74 1824.16 601.781 1824.41C601.844 1824.64 601.885 1824.94 601.906 1825.31C601.927 1825.67 601.938 1826.11 601.938 1826.66C601.938 1827.26 601.917 1827.77 601.875 1828.19C601.854 1828.6 601.802 1828.95 601.719 1829.22C601.656 1829.49 601.552 1829.69 601.406 1829.81C601.281 1829.94 601.104 1830 600.875 1830C600.646 1830 600.281 1829.85 599.781 1829.56C599.281 1829.27 598.667 1828.96 597.938 1828.62C597.208 1828.27 596.365 1827.96 595.406 1827.69C594.448 1827.4 593.396 1827.25 592.25 1827.25C591.354 1827.25 590.573 1827.36 589.906 1827.59C589.24 1827.8 588.677 1828.1 588.219 1828.5C587.781 1828.88 587.448 1829.33 587.219 1829.88C587.01 1830.42 586.906 1830.99 586.906 1831.59C586.906 1832.49 587.146 1833.27 587.625 1833.94C588.125 1834.58 588.781 1835.17 589.594 1835.69C590.427 1836.19 591.365 1836.67 592.406 1837.12C593.448 1837.56 594.51 1838.03 595.594 1838.53C596.677 1839.03 597.74 1839.6 598.781 1840.25C599.823 1840.88 600.75 1841.64 601.562 1842.53C602.375 1843.41 603.031 1844.45 603.531 1845.66C604.031 1846.84 604.281 1848.25 604.281 1849.88ZM617.969 1860.94C617.969 1861.15 617.906 1861.33 617.781 1861.5C617.656 1861.65 617.438 1861.77 617.125 1861.88C616.833 1861.98 616.438 1862.05 615.938 1862.09C615.438 1862.16 614.802 1862.19 614.031 1862.19C613.26 1862.19 612.625 1862.16 612.125 1862.09C611.625 1862.05 611.219 1861.98 610.906 1861.88C610.615 1861.77 610.406 1861.65 610.281 1861.5C610.156 1861.33 610.094 1861.15 610.094 1860.94V1833.12C610.094 1832.92 610.156 1832.74 610.281 1832.59C610.406 1832.43 610.615 1832.29 610.906 1832.19C611.219 1832.06 611.625 1831.97 612.125 1831.91C612.625 1831.84 613.26 1831.81 614.031 1831.81C614.802 1831.81 615.438 1831.84 615.938 1831.91C616.438 1831.97 616.833 1832.06 617.125 1832.19C617.438 1832.29 617.656 1832.43 617.781 1832.59C617.906 1832.74 617.969 1832.92 617.969 1833.12V1860.94ZM618.562 1823.62C618.562 1825.21 618.24 1826.3 617.594 1826.91C616.948 1827.51 615.75 1827.81 614 1827.81C612.229 1827.81 611.031 1827.52 610.406 1826.94C609.802 1826.35 609.5 1825.3 609.5 1823.78C609.5 1822.2 609.812 1821.1 610.438 1820.5C611.083 1819.88 612.292 1819.56 614.062 1819.56C615.812 1819.56 617 1819.86 617.625 1820.47C618.25 1821.05 618.562 1822.1 618.562 1823.62ZM670.188 1860.94C670.188 1861.15 670.125 1861.33 670 1861.5C669.875 1861.65 669.667 1861.77 669.375 1861.88C669.083 1861.98 668.688 1862.05 668.188 1862.09C667.688 1862.16 667.052 1862.19 666.281 1862.19C665.49 1862.19 664.844 1862.16 664.344 1862.09C663.844 1862.05 663.438 1861.98 663.125 1861.88C662.833 1861.77 662.625 1861.65 662.5 1861.5C662.396 1861.33 662.344 1861.15 662.344 1860.94V1844.41C662.344 1843.47 662.25 1842.61 662.062 1841.84C661.896 1841.07 661.625 1840.42 661.25 1839.88C660.896 1839.31 660.438 1838.89 659.875 1838.59C659.333 1838.28 658.677 1838.12 657.906 1838.12C656.969 1838.12 656.021 1838.49 655.062 1839.22C654.104 1839.95 653.062 1841.01 651.938 1842.41V1860.94C651.938 1861.15 651.875 1861.33 651.75 1861.5C651.625 1861.65 651.406 1861.77 651.094 1861.88C650.802 1861.98 650.406 1862.05 649.906 1862.09C649.406 1862.16 648.781 1862.19 648.031 1862.19C647.26 1862.19 646.625 1862.16 646.125 1862.09C645.625 1862.05 645.219 1861.98 644.906 1861.88C644.615 1861.77 644.406 1861.65 644.281 1861.5C644.156 1861.33 644.094 1861.15 644.094 1860.94V1844.41C644.094 1843.47 644 1842.61 643.812 1841.84C643.646 1841.07 643.385 1840.42 643.031 1839.88C642.677 1839.31 642.219 1838.89 641.656 1838.59C641.094 1838.28 640.438 1838.12 639.688 1838.12C638.729 1838.12 637.771 1838.49 636.812 1839.22C635.854 1839.95 634.823 1841.01 633.719 1842.41V1860.94C633.719 1861.15 633.656 1861.33 633.531 1861.5C633.406 1861.65 633.188 1861.77 632.875 1861.88C632.583 1861.98 632.188 1862.05 631.688 1862.09C631.188 1862.16 630.552 1862.19 629.781 1862.19C629.01 1862.19 628.375 1862.16 627.875 1862.09C627.375 1862.05 626.969 1861.98 626.656 1861.88C626.365 1861.77 626.156 1861.65 626.031 1861.5C625.906 1861.33 625.844 1861.15 625.844 1860.94V1833.06C625.844 1832.85 625.896 1832.68 626 1832.53C626.104 1832.36 626.292 1832.23 626.562 1832.12C626.833 1832.02 627.177 1831.95 627.594 1831.91C628.031 1831.84 628.573 1831.81 629.219 1831.81C629.885 1831.81 630.438 1831.84 630.875 1831.91C631.312 1831.95 631.646 1832.02 631.875 1832.12C632.125 1832.23 632.302 1832.36 632.406 1832.53C632.51 1832.68 632.562 1832.85 632.562 1833.06V1836.28C634.104 1834.61 635.635 1833.36 637.156 1832.53C638.698 1831.7 640.302 1831.28 641.969 1831.28C643.115 1831.28 644.146 1831.41 645.062 1831.66C645.979 1831.89 646.792 1832.23 647.5 1832.69C648.229 1833.12 648.854 1833.66 649.375 1834.28C649.896 1834.91 650.333 1835.6 650.688 1836.38C651.521 1835.48 652.333 1834.71 653.125 1834.06C653.938 1833.42 654.729 1832.9 655.5 1832.5C656.292 1832.08 657.073 1831.78 657.844 1831.59C658.635 1831.39 659.438 1831.28 660.25 1831.28C662.104 1831.28 663.667 1831.59 664.938 1832.22C666.208 1832.84 667.229 1833.7 668 1834.78C668.792 1835.84 669.354 1837.09 669.688 1838.53C670.021 1839.97 670.188 1841.49 670.188 1843.09V1860.94ZM706.094 1846.72C706.094 1849.09 705.781 1851.26 705.156 1853.22C704.531 1855.18 703.583 1856.86 702.312 1858.28C701.042 1859.7 699.448 1860.79 697.531 1861.56C695.615 1862.33 693.375 1862.72 690.812 1862.72C688.333 1862.72 686.177 1862.38 684.344 1861.69C682.51 1861 680.99 1860 679.781 1858.69C678.573 1857.38 677.677 1855.76 677.094 1853.84C676.51 1851.93 676.219 1849.74 676.219 1847.28C676.219 1844.91 676.531 1842.74 677.156 1840.78C677.802 1838.8 678.76 1837.11 680.031 1835.72C681.302 1834.3 682.885 1833.21 684.781 1832.44C686.698 1831.67 688.938 1831.28 691.5 1831.28C694 1831.28 696.167 1831.62 698 1832.31C699.833 1832.98 701.344 1833.97 702.531 1835.28C703.74 1836.59 704.635 1838.21 705.219 1840.12C705.802 1842.04 706.094 1844.24 706.094 1846.72ZM698 1847.03C698 1845.66 697.885 1844.4 697.656 1843.25C697.448 1842.08 697.083 1841.07 696.562 1840.22C696.042 1839.36 695.344 1838.7 694.469 1838.22C693.615 1837.74 692.531 1837.5 691.219 1837.5C690.052 1837.5 689.031 1837.72 688.156 1838.16C687.281 1838.57 686.562 1839.2 686 1840.03C685.438 1840.84 685.01 1841.83 684.719 1843C684.448 1844.15 684.312 1845.46 684.312 1846.94C684.312 1848.31 684.427 1849.58 684.656 1850.75C684.885 1851.9 685.25 1852.9 685.75 1853.75C686.271 1854.6 686.969 1855.27 687.844 1855.75C688.719 1856.21 689.802 1856.44 691.094 1856.44C692.281 1856.44 693.312 1856.23 694.188 1855.81C695.062 1855.38 695.781 1854.75 696.344 1853.94C696.906 1853.12 697.323 1852.15 697.594 1851C697.865 1849.83 698 1848.51 698 1847.03ZM738.969 1860.94C738.969 1861.15 738.906 1861.33 738.781 1861.5C738.656 1861.65 738.448 1861.77 738.156 1861.88C737.865 1861.98 737.458 1862.05 736.938 1862.09C736.438 1862.16 735.812 1862.19 735.062 1862.19C734.292 1862.19 733.646 1862.16 733.125 1862.09C732.625 1862.05 732.229 1861.98 731.938 1861.88C731.646 1861.77 731.438 1861.65 731.312 1861.5C731.188 1861.33 731.125 1861.15 731.125 1860.94V1845.03C731.125 1843.68 731.021 1842.61 730.812 1841.84C730.625 1841.07 730.344 1840.42 729.969 1839.88C729.594 1839.31 729.104 1838.89 728.5 1838.59C727.917 1838.28 727.229 1838.12 726.438 1838.12C725.438 1838.12 724.427 1838.49 723.406 1839.22C722.385 1839.95 721.323 1841.01 720.219 1842.41V1860.94C720.219 1861.15 720.156 1861.33 720.031 1861.5C719.906 1861.65 719.688 1861.77 719.375 1861.88C719.083 1861.98 718.688 1862.05 718.188 1862.09C717.688 1862.16 717.052 1862.19 716.281 1862.19C715.51 1862.19 714.875 1862.16 714.375 1862.09C713.875 1862.05 713.469 1861.98 713.156 1861.88C712.865 1861.77 712.656 1861.65 712.531 1861.5C712.406 1861.33 712.344 1861.15 712.344 1860.94V1833.06C712.344 1832.85 712.396 1832.68 712.5 1832.53C712.604 1832.36 712.792 1832.23 713.062 1832.12C713.333 1832.02 713.677 1831.95 714.094 1831.91C714.531 1831.84 715.073 1831.81 715.719 1831.81C716.385 1831.81 716.938 1831.84 717.375 1831.91C717.812 1831.95 718.146 1832.02 718.375 1832.12C718.625 1832.23 718.802 1832.36 718.906 1832.53C719.01 1832.68 719.062 1832.85 719.062 1833.06V1836.28C720.604 1834.61 722.167 1833.36 723.75 1832.53C725.354 1831.7 727.021 1831.28 728.75 1831.28C730.646 1831.28 732.24 1831.59 733.531 1832.22C734.844 1832.84 735.896 1833.7 736.688 1834.78C737.5 1835.84 738.083 1837.09 738.438 1838.53C738.792 1839.97 738.969 1841.7 738.969 1843.72V1860.94ZM790.969 1849.88C790.969 1851.31 790.771 1852.61 790.375 1853.78C789.979 1854.95 789.427 1855.98 788.719 1856.88C788.031 1857.77 787.198 1858.54 786.219 1859.19C785.26 1859.83 784.198 1860.36 783.031 1860.78C781.865 1861.2 780.615 1861.51 779.281 1861.72C777.969 1861.91 776.5 1862 774.875 1862H764.125C763.438 1862 762.854 1861.8 762.375 1861.41C761.917 1860.99 761.688 1860.32 761.688 1859.41V1824.16C761.688 1823.24 761.917 1822.58 762.375 1822.19C762.854 1821.77 763.438 1821.56 764.125 1821.56H774.281C776.76 1821.56 778.854 1821.77 780.562 1822.19C782.292 1822.6 783.74 1823.24 784.906 1824.09C786.094 1824.93 787 1825.99 787.625 1827.28C788.25 1828.57 788.562 1830.09 788.562 1831.84C788.562 1832.82 788.438 1833.75 788.188 1834.62C787.938 1835.48 787.573 1836.26 787.094 1836.97C786.615 1837.68 786.021 1838.3 785.312 1838.84C784.625 1839.39 783.833 1839.82 782.938 1840.16C784.083 1840.36 785.135 1840.73 786.094 1841.25C787.073 1841.77 787.917 1842.45 788.625 1843.28C789.354 1844.09 789.927 1845.05 790.344 1846.16C790.76 1847.26 790.969 1848.5 790.969 1849.88ZM780.344 1832.84C780.344 1832.03 780.219 1831.3 779.969 1830.66C779.719 1830.01 779.344 1829.48 778.844 1829.06C778.344 1828.62 777.708 1828.29 776.938 1828.06C776.188 1827.83 775.177 1827.72 773.906 1827.72H769.75V1838.22H774.344C775.531 1838.22 776.479 1838.08 777.188 1837.81C777.896 1837.52 778.479 1837.14 778.938 1836.66C779.417 1836.16 779.771 1835.58 780 1834.94C780.229 1834.27 780.344 1833.57 780.344 1832.84ZM782.438 1850.16C782.438 1849.22 782.281 1848.39 781.969 1847.66C781.656 1846.91 781.198 1846.28 780.594 1845.78C779.99 1845.28 779.219 1844.9 778.281 1844.62C777.344 1844.35 776.125 1844.22 774.625 1844.22H769.75V1855.72H775.688C776.833 1855.72 777.792 1855.6 778.562 1855.38C779.354 1855.12 780.031 1854.77 780.594 1854.31C781.177 1853.83 781.625 1853.25 781.938 1852.56C782.271 1851.85 782.438 1851.05 782.438 1850.16ZM806.344 1857.5C806.344 1859.44 806 1860.74 805.312 1861.41C804.646 1862.07 803.438 1862.41 801.688 1862.41C799.938 1862.41 798.729 1862.08 798.062 1861.44C797.396 1860.77 797.062 1859.52 797.062 1857.69C797.062 1855.73 797.396 1854.42 798.062 1853.75C798.75 1853.08 799.979 1852.75 801.75 1852.75C803.479 1852.75 804.677 1853.08 805.344 1853.75C806.01 1854.4 806.344 1855.65 806.344 1857.5ZM853.156 1849.88C853.156 1852 852.76 1853.86 851.969 1855.47C851.177 1857.07 850.104 1858.42 848.75 1859.5C847.396 1860.56 845.812 1861.36 844 1861.91C842.188 1862.45 840.25 1862.72 838.188 1862.72C836.792 1862.72 835.49 1862.6 834.281 1862.38C833.094 1862.15 832.042 1861.88 831.125 1861.56C830.208 1861.23 829.438 1860.89 828.812 1860.53C828.208 1860.18 827.771 1859.86 827.5 1859.59C827.229 1859.32 827.031 1858.94 826.906 1858.44C826.802 1857.92 826.75 1857.18 826.75 1856.22C826.75 1855.57 826.771 1855.03 826.812 1854.59C826.854 1854.16 826.917 1853.8 827 1853.53C827.104 1853.26 827.229 1853.07 827.375 1852.97C827.542 1852.84 827.729 1852.78 827.938 1852.78C828.229 1852.78 828.635 1852.96 829.156 1853.31C829.698 1853.65 830.385 1854.02 831.219 1854.44C832.052 1854.85 833.042 1855.24 834.188 1855.59C835.354 1855.93 836.698 1856.09 838.219 1856.09C839.219 1856.09 840.115 1855.98 840.906 1855.75C841.698 1855.5 842.365 1855.16 842.906 1854.72C843.469 1854.28 843.896 1853.74 844.188 1853.09C844.479 1852.45 844.625 1851.73 844.625 1850.94C844.625 1850.02 844.375 1849.24 843.875 1848.59C843.375 1847.93 842.719 1847.34 841.906 1846.84C841.115 1846.32 840.208 1845.84 839.188 1845.41C838.167 1844.95 837.115 1844.47 836.031 1843.97C834.948 1843.47 833.896 1842.91 832.875 1842.28C831.854 1841.64 830.938 1840.88 830.125 1840C829.333 1839.1 828.688 1838.05 828.188 1836.84C827.688 1835.64 827.438 1834.19 827.438 1832.5C827.438 1830.56 827.792 1828.86 828.5 1827.41C829.229 1825.93 830.198 1824.71 831.406 1823.75C832.635 1822.77 834.073 1822.04 835.719 1821.56C837.385 1821.08 839.146 1820.84 841 1820.84C841.958 1820.84 842.917 1820.92 843.875 1821.06C844.833 1821.21 845.729 1821.41 846.562 1821.66C847.396 1821.91 848.135 1822.19 848.781 1822.5C849.427 1822.81 849.854 1823.07 850.062 1823.28C850.271 1823.49 850.406 1823.67 850.469 1823.81C850.552 1823.96 850.615 1824.16 850.656 1824.41C850.719 1824.64 850.76 1824.94 850.781 1825.31C850.802 1825.67 850.812 1826.11 850.812 1826.66C850.812 1827.26 850.792 1827.77 850.75 1828.19C850.729 1828.6 850.677 1828.95 850.594 1829.22C850.531 1829.49 850.427 1829.69 850.281 1829.81C850.156 1829.94 849.979 1830 849.75 1830C849.521 1830 849.156 1829.85 848.656 1829.56C848.156 1829.27 847.542 1828.96 846.812 1828.62C846.083 1828.27 845.24 1827.96 844.281 1827.69C843.323 1827.4 842.271 1827.25 841.125 1827.25C840.229 1827.25 839.448 1827.36 838.781 1827.59C838.115 1827.8 837.552 1828.1 837.094 1828.5C836.656 1828.88 836.323 1829.33 836.094 1829.88C835.885 1830.42 835.781 1830.99 835.781 1831.59C835.781 1832.49 836.021 1833.27 836.5 1833.94C837 1834.58 837.656 1835.17 838.469 1835.69C839.302 1836.19 840.24 1836.67 841.281 1837.12C842.323 1837.56 843.385 1838.03 844.469 1838.53C845.552 1839.03 846.615 1839.6 847.656 1840.25C848.698 1840.88 849.625 1841.64 850.438 1842.53C851.25 1843.41 851.906 1844.45 852.406 1845.66C852.906 1846.84 853.156 1848.25 853.156 1849.88ZM882.719 1861.03C882.719 1861.32 882.615 1861.55 882.406 1861.72C882.198 1861.89 881.865 1862 881.406 1862.06C880.969 1862.15 880.312 1862.19 879.438 1862.19C878.5 1862.19 877.812 1862.15 877.375 1862.06C876.958 1862 876.656 1861.89 876.469 1861.72C876.302 1861.55 876.219 1861.32 876.219 1861.03V1858.81C875.073 1860.04 873.76 1861 872.281 1861.69C870.823 1862.38 869.198 1862.72 867.406 1862.72C865.927 1862.72 864.562 1862.52 863.312 1862.12C862.083 1861.75 861.01 1861.19 860.094 1860.44C859.198 1859.67 858.5 1858.72 858 1857.59C857.5 1856.47 857.25 1855.16 857.25 1853.66C857.25 1852.03 857.562 1850.62 858.188 1849.44C858.833 1848.23 859.781 1847.24 861.031 1846.47C862.302 1845.68 863.875 1845.09 865.75 1844.72C867.625 1844.34 869.802 1844.16 872.281 1844.16H875V1842.47C875 1841.59 874.906 1840.83 874.719 1840.19C874.552 1839.52 874.26 1838.97 873.844 1838.53C873.448 1838.09 872.906 1837.77 872.219 1837.56C871.552 1837.35 870.719 1837.25 869.719 1837.25C868.406 1837.25 867.229 1837.4 866.188 1837.69C865.167 1837.98 864.26 1838.3 863.469 1838.66C862.677 1839.01 862.01 1839.33 861.469 1839.62C860.948 1839.92 860.521 1840.06 860.188 1840.06C859.958 1840.06 859.75 1839.99 859.562 1839.84C859.396 1839.7 859.25 1839.49 859.125 1839.22C859.021 1838.95 858.938 1838.61 858.875 1838.22C858.812 1837.82 858.781 1837.39 858.781 1836.91C858.781 1836.26 858.833 1835.75 858.938 1835.38C859.042 1835 859.24 1834.67 859.531 1834.38C859.823 1834.06 860.333 1833.73 861.062 1833.38C861.792 1833 862.646 1832.66 863.625 1832.34C864.604 1832.03 865.667 1831.78 866.812 1831.59C867.979 1831.39 869.177 1831.28 870.406 1831.28C872.594 1831.28 874.458 1831.5 876 1831.94C877.562 1832.35 878.844 1833.01 879.844 1833.91C880.844 1834.78 881.573 1835.92 882.031 1837.31C882.49 1838.71 882.719 1840.36 882.719 1842.28V1861.03ZM875 1849.09H872C870.729 1849.09 869.646 1849.19 868.75 1849.38C867.854 1849.56 867.125 1849.84 866.562 1850.22C866 1850.59 865.583 1851.05 865.312 1851.59C865.062 1852.11 864.938 1852.72 864.938 1853.41C864.938 1854.57 865.302 1855.49 866.031 1856.16C866.781 1856.82 867.812 1857.16 869.125 1857.16C870.229 1857.16 871.24 1856.88 872.156 1856.31C873.094 1855.75 874.042 1854.93 875 1853.84V1849.09ZM917.219 1860.94C917.219 1861.15 917.156 1861.33 917.031 1861.5C916.906 1861.65 916.698 1861.77 916.406 1861.88C916.115 1861.98 915.708 1862.05 915.188 1862.09C914.688 1862.16 914.062 1862.19 913.312 1862.19C912.542 1862.19 911.896 1862.16 911.375 1862.09C910.875 1862.05 910.479 1861.98 910.188 1861.88C909.896 1861.77 909.688 1861.65 909.562 1861.5C909.438 1861.33 909.375 1861.15 909.375 1860.94V1845.03C909.375 1843.68 909.271 1842.61 909.062 1841.84C908.875 1841.07 908.594 1840.42 908.219 1839.88C907.844 1839.31 907.354 1838.89 906.75 1838.59C906.167 1838.28 905.479 1838.12 904.688 1838.12C903.688 1838.12 902.677 1838.49 901.656 1839.22C900.635 1839.95 899.573 1841.01 898.469 1842.41V1860.94C898.469 1861.15 898.406 1861.33 898.281 1861.5C898.156 1861.65 897.938 1861.77 897.625 1861.88C897.333 1861.98 896.938 1862.05 896.438 1862.09C895.938 1862.16 895.302 1862.19 894.531 1862.19C893.76 1862.19 893.125 1862.16 892.625 1862.09C892.125 1862.05 891.719 1861.98 891.406 1861.88C891.115 1861.77 890.906 1861.65 890.781 1861.5C890.656 1861.33 890.594 1861.15 890.594 1860.94V1833.06C890.594 1832.85 890.646 1832.68 890.75 1832.53C890.854 1832.36 891.042 1832.23 891.312 1832.12C891.583 1832.02 891.927 1831.95 892.344 1831.91C892.781 1831.84 893.323 1831.81 893.969 1831.81C894.635 1831.81 895.188 1831.84 895.625 1831.91C896.062 1831.95 896.396 1832.02 896.625 1832.12C896.875 1832.23 897.052 1832.36 897.156 1832.53C897.26 1832.68 897.312 1832.85 897.312 1833.06V1836.28C898.854 1834.61 900.417 1833.36 902 1832.53C903.604 1831.7 905.271 1831.28 907 1831.28C908.896 1831.28 910.49 1831.59 911.781 1832.22C913.094 1832.84 914.146 1833.7 914.938 1834.78C915.75 1835.84 916.333 1837.09 916.688 1838.53C917.042 1839.97 917.219 1841.7 917.219 1843.72V1860.94ZM949.75 1833.03C949.75 1833.14 949.74 1833.26 949.719 1833.41C949.719 1833.55 949.698 1833.72 949.656 1833.91C949.635 1834.07 949.594 1834.27 949.531 1834.5C949.49 1834.73 949.427 1834.99 949.344 1835.28L940.969 1860.5C940.865 1860.85 940.719 1861.15 940.531 1861.38C940.365 1861.58 940.073 1861.75 939.656 1861.88C939.26 1862 938.708 1862.08 938 1862.12C937.312 1862.17 936.406 1862.19 935.281 1862.19C934.177 1862.19 933.271 1862.16 932.562 1862.09C931.875 1862.05 931.333 1861.97 930.938 1861.84C930.542 1861.72 930.25 1861.55 930.062 1861.34C929.896 1861.11 929.76 1860.83 929.656 1860.5L921.281 1835.28C921.156 1834.86 921.052 1834.49 920.969 1834.16C920.906 1833.82 920.865 1833.58 920.844 1833.44C920.844 1833.29 920.844 1833.16 920.844 1833.03C920.844 1832.82 920.896 1832.65 921 1832.5C921.125 1832.33 921.333 1832.2 921.625 1832.09C921.917 1831.99 922.312 1831.92 922.812 1831.88C923.333 1831.83 923.979 1831.81 924.75 1831.81C925.604 1831.81 926.292 1831.84 926.812 1831.91C927.333 1831.95 927.74 1832.02 928.031 1832.12C928.344 1832.21 928.562 1832.34 928.688 1832.53C928.812 1832.7 928.917 1832.91 929 1833.16L935.344 1853.62L935.531 1854.41L935.719 1853.62L941.969 1833.16C942.031 1832.91 942.125 1832.7 942.25 1832.53C942.396 1832.34 942.615 1832.21 942.906 1832.12C943.198 1832.02 943.583 1831.95 944.062 1831.91C944.562 1831.84 945.208 1831.81 946 1831.81C946.771 1831.81 947.396 1831.83 947.875 1831.88C948.375 1831.92 948.76 1831.99 949.031 1832.09C949.302 1832.2 949.49 1832.33 949.594 1832.5C949.698 1832.65 949.75 1832.82 949.75 1833.03ZM962.281 1860.94C962.281 1861.15 962.219 1861.33 962.094 1861.5C961.969 1861.65 961.75 1861.77 961.438 1861.88C961.146 1861.98 960.75 1862.05 960.25 1862.09C959.75 1862.16 959.115 1862.19 958.344 1862.19C957.573 1862.19 956.938 1862.16 956.438 1862.09C955.938 1862.05 955.531 1861.98 955.219 1861.88C954.927 1861.77 954.719 1861.65 954.594 1861.5C954.469 1861.33 954.406 1861.15 954.406 1860.94V1833.12C954.406 1832.92 954.469 1832.74 954.594 1832.59C954.719 1832.43 954.927 1832.29 955.219 1832.19C955.531 1832.06 955.938 1831.97 956.438 1831.91C956.938 1831.84 957.573 1831.81 958.344 1831.81C959.115 1831.81 959.75 1831.84 960.25 1831.91C960.75 1831.97 961.146 1832.06 961.438 1832.19C961.75 1832.29 961.969 1832.43 962.094 1832.59C962.219 1832.74 962.281 1832.92 962.281 1833.12V1860.94ZM962.875 1823.62C962.875 1825.21 962.552 1826.3 961.906 1826.91C961.26 1827.51 960.062 1827.81 958.312 1827.81C956.542 1827.81 955.344 1827.52 954.719 1826.94C954.115 1826.35 953.812 1825.3 953.812 1823.78C953.812 1822.2 954.125 1821.1 954.75 1820.5C955.396 1819.88 956.604 1819.56 958.375 1819.56C960.125 1819.56 961.312 1819.86 961.938 1820.47C962.562 1821.05 962.875 1822.1 962.875 1823.62ZM991.25 1856.5C991.25 1857.04 991.229 1857.5 991.188 1857.88C991.167 1858.23 991.125 1858.53 991.062 1858.78C991.021 1859.03 990.958 1859.24 990.875 1859.41C990.812 1859.55 990.656 1859.75 990.406 1860C990.156 1860.23 989.729 1860.52 989.125 1860.88C988.521 1861.21 987.833 1861.51 987.062 1861.78C986.292 1862.05 985.448 1862.27 984.531 1862.44C983.635 1862.6 982.708 1862.69 981.75 1862.69C979.604 1862.69 977.698 1862.35 976.031 1861.69C974.385 1861.02 973 1860.04 971.875 1858.75C970.75 1857.44 969.896 1855.84 969.312 1853.97C968.75 1852.09 968.469 1849.95 968.469 1847.53C968.469 1844.74 968.812 1842.33 969.5 1840.31C970.208 1838.27 971.188 1836.58 972.438 1835.25C973.688 1833.92 975.167 1832.93 976.875 1832.28C978.583 1831.64 980.458 1831.31 982.5 1831.31C983.333 1831.31 984.146 1831.39 984.938 1831.53C985.75 1831.68 986.5 1831.88 987.188 1832.12C987.896 1832.38 988.521 1832.66 989.062 1832.97C989.625 1833.28 990.021 1833.55 990.25 1833.78C990.479 1834.01 990.635 1834.21 990.719 1834.38C990.823 1834.52 990.896 1834.72 990.938 1834.97C991 1835.22 991.042 1835.53 991.062 1835.91C991.104 1836.26 991.125 1836.7 991.125 1837.22C991.125 1838.43 991.021 1839.28 990.812 1839.78C990.604 1840.26 990.333 1840.5 990 1840.5C989.646 1840.5 989.271 1840.35 988.875 1840.06C988.479 1839.77 988.01 1839.45 987.469 1839.09C986.927 1838.74 986.281 1838.42 985.531 1838.12C984.781 1837.83 983.885 1837.69 982.844 1837.69C980.802 1837.69 979.24 1838.48 978.156 1840.06C977.073 1841.62 976.531 1843.93 976.531 1846.97C976.531 1848.47 976.667 1849.79 976.938 1850.94C977.208 1852.08 977.604 1853.04 978.125 1853.81C978.667 1854.58 979.333 1855.17 980.125 1855.56C980.938 1855.94 981.875 1856.12 982.938 1856.12C984.021 1856.12 984.948 1855.97 985.719 1855.66C986.51 1855.32 987.198 1854.96 987.781 1854.56C988.365 1854.17 988.854 1853.81 989.25 1853.5C989.646 1853.17 989.979 1853 990.25 1853C990.438 1853 990.594 1853.05 990.719 1853.16C990.844 1853.26 990.938 1853.46 991 1853.75C991.083 1854.02 991.146 1854.38 991.188 1854.81C991.229 1855.25 991.25 1855.81 991.25 1856.5ZM1013.47 1858.19C1013.47 1859.1 1013.41 1859.81 1013.28 1860.31C1013.18 1860.79 1013.03 1861.14 1012.84 1861.34C1012.66 1861.53 1012.38 1861.71 1012 1861.88C1011.65 1862.02 1011.22 1862.15 1010.72 1862.25C1010.24 1862.38 1009.71 1862.47 1009.12 1862.53C1008.56 1862.59 1007.99 1862.62 1007.41 1862.62C1005.84 1862.62 1004.49 1862.43 1003.34 1862.03C1002.2 1861.64 1001.25 1861.03 1000.5 1860.22C999.75 1859.39 999.198 1858.34 998.844 1857.09C998.49 1855.84 998.312 1854.36 998.312 1852.66V1838.38H994.969C994.573 1838.38 994.271 1838.14 994.062 1837.66C993.854 1837.16 993.75 1836.33 993.75 1835.19C993.75 1834.58 993.771 1834.07 993.812 1833.66C993.875 1833.24 993.958 1832.92 994.062 1832.69C994.167 1832.44 994.292 1832.26 994.438 1832.16C994.604 1832.05 994.792 1832 995 1832H998.312V1825.78C998.312 1825.57 998.365 1825.39 998.469 1825.22C998.594 1825.05 998.802 1824.92 999.094 1824.81C999.406 1824.69 999.812 1824.6 1000.31 1824.56C1000.83 1824.5 1001.47 1824.47 1002.22 1824.47C1002.99 1824.47 1003.62 1824.5 1004.12 1824.56C1004.65 1824.6 1005.05 1824.69 1005.34 1824.81C1005.64 1824.92 1005.84 1825.05 1005.97 1825.22C1006.09 1825.39 1006.16 1825.57 1006.16 1825.78V1832H1012.22C1012.43 1832 1012.6 1832.05 1012.75 1832.16C1012.92 1832.26 1013.05 1832.44 1013.16 1832.69C1013.26 1832.92 1013.33 1833.24 1013.38 1833.66C1013.44 1834.07 1013.47 1834.58 1013.47 1835.19C1013.47 1836.33 1013.36 1837.16 1013.16 1837.66C1012.95 1838.14 1012.65 1838.38 1012.25 1838.38H1006.16V1851.47C1006.16 1852.99 1006.4 1854.14 1006.88 1854.91C1007.35 1855.66 1008.21 1856.03 1009.44 1856.03C1009.85 1856.03 1010.23 1856 1010.56 1855.94C1010.9 1855.85 1011.19 1855.77 1011.44 1855.69C1011.71 1855.58 1011.93 1855.5 1012.09 1855.44C1012.28 1855.35 1012.45 1855.31 1012.59 1855.31C1012.72 1855.31 1012.83 1855.35 1012.94 1855.44C1013.06 1855.5 1013.16 1855.65 1013.22 1855.88C1013.28 1856.08 1013.33 1856.38 1013.38 1856.75C1013.44 1857.12 1013.47 1857.6 1013.47 1858.19ZM1046.72 1846.72C1046.72 1849.09 1046.41 1851.26 1045.78 1853.22C1045.16 1855.18 1044.21 1856.86 1042.94 1858.28C1041.67 1859.7 1040.07 1860.79 1038.16 1861.56C1036.24 1862.33 1034 1862.72 1031.44 1862.72C1028.96 1862.72 1026.8 1862.38 1024.97 1861.69C1023.14 1861 1021.61 1860 1020.41 1858.69C1019.2 1857.38 1018.3 1855.76 1017.72 1853.84C1017.14 1851.93 1016.84 1849.74 1016.84 1847.28C1016.84 1844.91 1017.16 1842.74 1017.78 1840.78C1018.43 1838.8 1019.39 1837.11 1020.66 1835.72C1021.93 1834.3 1023.51 1833.21 1025.41 1832.44C1027.32 1831.67 1029.56 1831.28 1032.12 1831.28C1034.62 1831.28 1036.79 1831.62 1038.62 1832.31C1040.46 1832.98 1041.97 1833.97 1043.16 1835.28C1044.36 1836.59 1045.26 1838.21 1045.84 1840.12C1046.43 1842.04 1046.72 1844.24 1046.72 1846.72ZM1038.62 1847.03C1038.62 1845.66 1038.51 1844.4 1038.28 1843.25C1038.07 1842.08 1037.71 1841.07 1037.19 1840.22C1036.67 1839.36 1035.97 1838.7 1035.09 1838.22C1034.24 1837.74 1033.16 1837.5 1031.84 1837.5C1030.68 1837.5 1029.66 1837.72 1028.78 1838.16C1027.91 1838.57 1027.19 1839.2 1026.62 1840.03C1026.06 1840.84 1025.64 1841.83 1025.34 1843C1025.07 1844.15 1024.94 1845.46 1024.94 1846.94C1024.94 1848.31 1025.05 1849.58 1025.28 1850.75C1025.51 1851.9 1025.88 1852.9 1026.38 1853.75C1026.9 1854.6 1027.59 1855.27 1028.47 1855.75C1029.34 1856.21 1030.43 1856.44 1031.72 1856.44C1032.91 1856.44 1033.94 1856.23 1034.81 1855.81C1035.69 1855.38 1036.41 1854.75 1036.97 1853.94C1037.53 1853.12 1037.95 1852.15 1038.22 1851C1038.49 1849.83 1038.62 1848.51 1038.62 1847.03ZM1070.88 1835.66C1070.88 1836.41 1070.85 1837.02 1070.81 1837.5C1070.77 1837.98 1070.71 1838.35 1070.62 1838.62C1070.54 1838.9 1070.43 1839.08 1070.28 1839.19C1070.16 1839.29 1069.99 1839.34 1069.78 1839.34C1069.61 1839.34 1069.43 1839.31 1069.22 1839.25C1069.01 1839.17 1068.77 1839.08 1068.5 1839C1068.25 1838.92 1067.97 1838.84 1067.66 1838.78C1067.34 1838.7 1067 1838.66 1066.62 1838.66C1066.19 1838.66 1065.75 1838.75 1065.31 1838.94C1064.88 1839.1 1064.42 1839.38 1063.94 1839.75C1063.48 1840.12 1062.99 1840.62 1062.47 1841.25C1061.97 1841.88 1061.43 1842.65 1060.84 1843.56V1860.94C1060.84 1861.15 1060.78 1861.33 1060.66 1861.5C1060.53 1861.65 1060.31 1861.77 1060 1861.88C1059.71 1861.98 1059.31 1862.05 1058.81 1862.09C1058.31 1862.16 1057.68 1862.19 1056.91 1862.19C1056.14 1862.19 1055.5 1862.16 1055 1862.09C1054.5 1862.05 1054.09 1861.98 1053.78 1861.88C1053.49 1861.77 1053.28 1861.65 1053.16 1861.5C1053.03 1861.33 1052.97 1861.15 1052.97 1860.94V1833.06C1052.97 1832.85 1053.02 1832.68 1053.12 1832.53C1053.23 1832.36 1053.42 1832.23 1053.69 1832.12C1053.96 1832.02 1054.3 1831.95 1054.72 1831.91C1055.16 1831.84 1055.7 1831.81 1056.34 1831.81C1057.01 1831.81 1057.56 1831.84 1058 1831.91C1058.44 1831.95 1058.77 1832.02 1059 1832.12C1059.25 1832.23 1059.43 1832.36 1059.53 1832.53C1059.64 1832.68 1059.69 1832.85 1059.69 1833.06V1836.53C1060.42 1835.49 1061.1 1834.64 1061.75 1833.97C1062.4 1833.28 1063.01 1832.74 1063.59 1832.34C1064.18 1831.95 1064.76 1831.68 1065.34 1831.53C1065.93 1831.36 1066.51 1831.28 1067.09 1831.28C1067.36 1831.28 1067.66 1831.3 1067.97 1831.34C1068.28 1831.36 1068.6 1831.42 1068.94 1831.5C1069.27 1831.56 1069.56 1831.65 1069.81 1831.75C1070.06 1831.83 1070.24 1831.93 1070.34 1832.03C1070.47 1832.14 1070.55 1832.25 1070.59 1832.38C1070.66 1832.5 1070.71 1832.68 1070.75 1832.91C1070.79 1833.11 1070.82 1833.44 1070.84 1833.88C1070.86 1834.31 1070.88 1834.91 1070.88 1835.66ZM1100.78 1846.19C1100.78 1847.15 1100.56 1847.85 1100.12 1848.31C1099.71 1848.77 1099.12 1849 1098.38 1849H1081.41C1081.41 1850.19 1081.54 1851.27 1081.81 1852.25C1082.1 1853.21 1082.55 1854.03 1083.16 1854.72C1083.78 1855.39 1084.57 1855.9 1085.53 1856.25C1086.51 1856.6 1087.68 1856.78 1089.03 1856.78C1090.41 1856.78 1091.61 1856.69 1092.66 1856.5C1093.7 1856.29 1094.59 1856.07 1095.34 1855.84C1096.11 1855.59 1096.75 1855.38 1097.25 1855.19C1097.75 1854.98 1098.16 1854.88 1098.47 1854.88C1098.66 1854.88 1098.81 1854.92 1098.94 1855C1099.06 1855.06 1099.17 1855.19 1099.25 1855.38C1099.33 1855.56 1099.39 1855.83 1099.41 1856.19C1099.45 1856.52 1099.47 1856.95 1099.47 1857.47C1099.47 1857.93 1099.46 1858.32 1099.44 1858.66C1099.42 1858.97 1099.39 1859.24 1099.34 1859.47C1099.3 1859.7 1099.24 1859.9 1099.16 1860.06C1099.07 1860.21 1098.96 1860.35 1098.81 1860.5C1098.69 1860.65 1098.32 1860.84 1097.72 1861.09C1097.11 1861.34 1096.34 1861.59 1095.41 1861.84C1094.47 1862.07 1093.4 1862.27 1092.19 1862.44C1090.98 1862.62 1089.69 1862.72 1088.31 1862.72C1085.83 1862.72 1083.66 1862.41 1081.78 1861.78C1079.93 1861.16 1078.38 1860.21 1077.12 1858.94C1075.88 1857.67 1074.94 1856.06 1074.31 1854.12C1073.71 1852.19 1073.41 1849.92 1073.41 1847.31C1073.41 1844.83 1073.73 1842.6 1074.38 1840.62C1075.02 1838.62 1075.96 1836.94 1077.19 1835.56C1078.42 1834.17 1079.91 1833.1 1081.66 1832.38C1083.43 1831.65 1085.42 1831.28 1087.62 1831.28C1089.96 1831.28 1091.95 1831.62 1093.59 1832.31C1095.26 1833 1096.62 1833.96 1097.69 1835.19C1098.75 1836.4 1099.53 1837.83 1100.03 1839.5C1100.53 1841.17 1100.78 1842.98 1100.78 1844.94V1846.19ZM1093.16 1843.94C1093.22 1841.73 1092.77 1840 1091.81 1838.75C1090.88 1837.48 1089.42 1836.84 1087.44 1836.84C1086.44 1836.84 1085.56 1837.03 1084.81 1837.41C1084.08 1837.78 1083.47 1838.29 1082.97 1838.94C1082.49 1839.56 1082.11 1840.31 1081.84 1841.19C1081.59 1842.04 1081.45 1842.96 1081.41 1843.94H1093.16ZM1126.91 1853.06C1126.91 1854.65 1126.6 1856.04 1126 1857.25C1125.42 1858.46 1124.58 1859.47 1123.5 1860.28C1122.42 1861.09 1121.14 1861.7 1119.66 1862.09C1118.18 1862.51 1116.57 1862.72 1114.84 1862.72C1113.8 1862.72 1112.8 1862.64 1111.84 1862.47C1110.91 1862.32 1110.06 1862.14 1109.31 1861.91C1108.56 1861.66 1107.94 1861.41 1107.44 1861.16C1106.94 1860.91 1106.57 1860.68 1106.34 1860.47C1106.11 1860.24 1105.94 1859.9 1105.81 1859.44C1105.69 1858.96 1105.62 1858.26 1105.62 1857.34C1105.62 1856.74 1105.65 1856.26 1105.69 1855.91C1105.73 1855.53 1105.79 1855.24 1105.88 1855.03C1105.96 1854.8 1106.06 1854.66 1106.19 1854.59C1106.31 1854.51 1106.47 1854.47 1106.66 1854.47C1106.89 1854.47 1107.22 1854.6 1107.66 1854.88C1108.11 1855.12 1108.68 1855.41 1109.34 1855.72C1110.01 1856.03 1110.78 1856.32 1111.66 1856.59C1112.55 1856.86 1113.56 1857 1114.69 1857C1115.4 1857 1116.02 1856.93 1116.56 1856.78C1117.12 1856.64 1117.6 1856.43 1118 1856.16C1118.42 1855.89 1118.73 1855.54 1118.94 1855.12C1119.15 1854.71 1119.25 1854.23 1119.25 1853.69C1119.25 1853.06 1119.05 1852.53 1118.66 1852.09C1118.28 1851.64 1117.77 1851.24 1117.12 1850.91C1116.5 1850.57 1115.78 1850.26 1114.97 1849.97C1114.18 1849.68 1113.35 1849.35 1112.5 1849C1111.67 1848.65 1110.84 1848.24 1110.03 1847.78C1109.24 1847.32 1108.52 1846.76 1107.88 1846.09C1107.25 1845.43 1106.74 1844.62 1106.34 1843.69C1105.97 1842.75 1105.78 1841.62 1105.78 1840.31C1105.78 1838.98 1106.04 1837.76 1106.56 1836.66C1107.08 1835.53 1107.83 1834.57 1108.81 1833.78C1109.79 1832.99 1110.98 1832.38 1112.38 1831.94C1113.79 1831.5 1115.38 1831.28 1117.12 1831.28C1118 1831.28 1118.84 1831.34 1119.66 1831.47C1120.49 1831.59 1121.24 1831.75 1121.91 1831.94C1122.57 1832.12 1123.14 1832.33 1123.59 1832.56C1124.05 1832.77 1124.38 1832.96 1124.56 1833.12C1124.77 1833.27 1124.92 1833.43 1125 1833.59C1125.08 1833.74 1125.15 1833.93 1125.19 1834.16C1125.23 1834.36 1125.26 1834.64 1125.28 1834.97C1125.32 1835.28 1125.34 1835.68 1125.34 1836.16C1125.34 1836.72 1125.32 1837.18 1125.28 1837.53C1125.26 1837.89 1125.21 1838.17 1125.12 1838.38C1125.06 1838.58 1124.97 1838.73 1124.84 1838.81C1124.72 1838.88 1124.57 1838.91 1124.41 1838.91C1124.22 1838.91 1123.93 1838.8 1123.53 1838.59C1123.14 1838.36 1122.64 1838.12 1122.03 1837.88C1121.45 1837.62 1120.76 1837.4 1119.97 1837.19C1119.2 1836.96 1118.31 1836.84 1117.31 1836.84C1116.6 1836.84 1115.99 1836.92 1115.47 1837.06C1114.95 1837.21 1114.52 1837.42 1114.19 1837.69C1113.85 1837.96 1113.6 1838.28 1113.44 1838.66C1113.27 1839.01 1113.19 1839.4 1113.19 1839.81C1113.19 1840.46 1113.39 1841 1113.78 1841.44C1114.18 1841.88 1114.7 1842.26 1115.34 1842.59C1115.99 1842.93 1116.72 1843.24 1117.53 1843.53C1118.36 1843.82 1119.2 1844.15 1120.03 1844.5C1120.89 1844.83 1121.72 1845.23 1122.53 1845.69C1123.36 1846.15 1124.1 1846.71 1124.75 1847.38C1125.4 1848.04 1125.92 1848.84 1126.31 1849.78C1126.71 1850.7 1126.91 1851.79 1126.91 1853.06ZM1142.09 1856.25C1142.09 1857.08 1142.05 1857.84 1141.97 1858.53C1141.89 1859.2 1141.75 1859.83 1141.56 1860.44C1141.38 1861.04 1141.14 1861.62 1140.84 1862.19C1140.55 1862.77 1140.19 1863.36 1139.75 1863.97L1135.56 1869.97C1135.42 1870.18 1135.25 1870.35 1135.06 1870.5C1134.9 1870.65 1134.69 1870.76 1134.44 1870.84C1134.19 1870.93 1133.89 1870.99 1133.53 1871.03C1133.18 1871.09 1132.73 1871.12 1132.19 1871.12C1131.58 1871.12 1131.09 1871.09 1130.72 1871.03C1130.34 1870.99 1130.07 1870.92 1129.91 1870.81C1129.74 1870.71 1129.65 1870.57 1129.62 1870.41C1129.62 1870.24 1129.68 1870.04 1129.78 1869.81L1133.59 1861.19V1856.25C1133.59 1855.54 1133.68 1854.97 1133.84 1854.53C1134.01 1854.09 1134.27 1853.76 1134.62 1853.53C1134.98 1853.3 1135.43 1853.16 1135.97 1853.09C1136.51 1853.01 1137.17 1852.97 1137.94 1852.97C1138.67 1852.97 1139.29 1853.01 1139.81 1853.09C1140.33 1853.16 1140.76 1853.3 1141.09 1853.53C1141.45 1853.76 1141.7 1854.09 1141.84 1854.53C1142.01 1854.97 1142.09 1855.54 1142.09 1856.25ZM1188.28 1858.78C1188.28 1859.39 1188.25 1859.9 1188.19 1860.31C1188.15 1860.71 1188.07 1861.03 1187.97 1861.28C1187.86 1861.53 1187.73 1861.72 1187.56 1861.84C1187.42 1861.95 1187.25 1862 1187.06 1862H1166.75C1166.06 1862 1165.48 1861.8 1165 1861.41C1164.54 1860.99 1164.31 1860.32 1164.31 1859.41V1824.16C1164.31 1823.24 1164.54 1822.58 1165 1822.19C1165.48 1821.77 1166.06 1821.56 1166.75 1821.56H1186.94C1187.12 1821.56 1187.29 1821.61 1187.44 1821.72C1187.58 1821.82 1187.71 1822.01 1187.81 1822.28C1187.92 1822.53 1187.99 1822.86 1188.03 1823.28C1188.09 1823.68 1188.12 1824.19 1188.12 1824.81C1188.12 1825.4 1188.09 1825.9 1188.03 1826.31C1187.99 1826.71 1187.92 1827.03 1187.81 1827.28C1187.71 1827.53 1187.58 1827.72 1187.44 1827.84C1187.29 1827.95 1187.12 1828 1186.94 1828H1172.5V1837.88H1184.72C1184.91 1837.88 1185.07 1837.94 1185.22 1838.06C1185.39 1838.17 1185.52 1838.34 1185.62 1838.59C1185.73 1838.82 1185.8 1839.15 1185.84 1839.56C1185.91 1839.96 1185.94 1840.45 1185.94 1841.03C1185.94 1841.64 1185.91 1842.14 1185.84 1842.53C1185.8 1842.93 1185.73 1843.25 1185.62 1843.5C1185.52 1843.73 1185.39 1843.9 1185.22 1844C1185.07 1844.1 1184.91 1844.16 1184.72 1844.16H1172.5V1855.56H1187.06C1187.25 1855.56 1187.42 1855.62 1187.56 1855.75C1187.73 1855.85 1187.86 1856.03 1187.97 1856.28C1188.07 1856.53 1188.15 1856.86 1188.19 1857.28C1188.25 1857.68 1188.28 1858.18 1188.28 1858.78ZM1242.69 1860.88C1242.69 1861.08 1242.62 1861.27 1242.5 1861.44C1242.4 1861.6 1242.19 1861.74 1241.88 1861.84C1241.58 1861.95 1241.19 1862.03 1240.69 1862.09C1240.19 1862.16 1239.55 1862.19 1238.78 1862.19C1238.03 1862.19 1237.41 1862.16 1236.91 1862.09C1236.41 1862.03 1236.01 1861.95 1235.72 1861.84C1235.43 1861.74 1235.22 1861.6 1235.09 1861.44C1234.97 1861.27 1234.91 1861.08 1234.91 1860.88V1827.97H1234.84L1223.12 1860.84C1223.04 1861.11 1222.91 1861.34 1222.72 1861.53C1222.53 1861.7 1222.27 1861.83 1221.94 1861.94C1221.62 1862.04 1221.22 1862.1 1220.72 1862.12C1220.22 1862.17 1219.61 1862.19 1218.91 1862.19C1218.2 1862.19 1217.59 1862.16 1217.09 1862.09C1216.59 1862.05 1216.18 1861.98 1215.84 1861.88C1215.53 1861.75 1215.28 1861.6 1215.09 1861.44C1214.91 1861.27 1214.78 1861.07 1214.72 1860.84L1203.41 1827.97H1203.34V1860.88C1203.34 1861.08 1203.28 1861.27 1203.16 1861.44C1203.05 1861.6 1202.84 1861.74 1202.53 1861.84C1202.22 1861.95 1201.81 1862.03 1201.31 1862.09C1200.83 1862.16 1200.21 1862.19 1199.44 1862.19C1198.69 1862.19 1198.06 1862.16 1197.56 1862.09C1197.06 1862.03 1196.66 1861.95 1196.34 1861.84C1196.05 1861.74 1195.84 1861.6 1195.72 1861.44C1195.61 1861.27 1195.56 1861.08 1195.56 1860.88V1824.84C1195.56 1823.78 1195.84 1822.97 1196.41 1822.41C1196.97 1821.84 1197.72 1821.56 1198.66 1821.56H1204.03C1204.99 1821.56 1205.81 1821.65 1206.5 1821.81C1207.19 1821.96 1207.78 1822.22 1208.28 1822.59C1208.78 1822.95 1209.2 1823.43 1209.53 1824.03C1209.86 1824.61 1210.16 1825.34 1210.41 1826.22L1219.16 1850.31H1219.28L1228.34 1826.28C1228.61 1825.41 1228.91 1824.67 1229.22 1824.06C1229.55 1823.46 1229.93 1822.97 1230.34 1822.59C1230.78 1822.22 1231.29 1821.96 1231.88 1821.81C1232.46 1821.65 1233.14 1821.56 1233.91 1821.56H1239.44C1240 1821.56 1240.48 1821.64 1240.88 1821.78C1241.29 1821.93 1241.62 1822.15 1241.88 1822.44C1242.15 1822.71 1242.34 1823.05 1242.47 1823.47C1242.61 1823.86 1242.69 1824.32 1242.69 1824.84V1860.88ZM1278.41 1824.94C1278.41 1825.54 1278.38 1826.06 1278.31 1826.5C1278.27 1826.92 1278.2 1827.26 1278.09 1827.53C1277.99 1827.78 1277.85 1827.97 1277.69 1828.09C1277.54 1828.22 1277.38 1828.28 1277.19 1828.28H1267.06V1860.88C1267.06 1861.08 1266.99 1861.27 1266.84 1861.44C1266.72 1861.6 1266.5 1861.74 1266.19 1861.84C1265.88 1861.95 1265.45 1862.03 1264.91 1862.09C1264.39 1862.16 1263.73 1862.19 1262.94 1862.19C1262.15 1862.19 1261.48 1862.16 1260.94 1862.09C1260.42 1862.03 1260 1861.95 1259.69 1861.84C1259.38 1861.74 1259.15 1861.6 1259 1861.44C1258.88 1861.27 1258.81 1861.08 1258.81 1860.88V1828.28H1248.69C1248.48 1828.28 1248.3 1828.22 1248.16 1828.09C1248.01 1827.97 1247.89 1827.78 1247.78 1827.53C1247.68 1827.26 1247.59 1826.92 1247.53 1826.5C1247.49 1826.06 1247.47 1825.54 1247.47 1824.94C1247.47 1824.31 1247.49 1823.78 1247.53 1823.34C1247.59 1822.91 1247.68 1822.56 1247.78 1822.31C1247.89 1822.04 1248.01 1821.85 1248.16 1821.75C1248.3 1821.62 1248.48 1821.56 1248.69 1821.56H1277.19C1277.38 1821.56 1277.54 1821.62 1277.69 1821.75C1277.85 1821.85 1277.99 1822.04 1278.09 1822.31C1278.2 1822.56 1278.27 1822.91 1278.31 1823.34C1278.38 1823.78 1278.41 1824.31 1278.41 1824.94Z" fill="black"/>
</svg>
