<svg width="3450" height="2210" viewBox="0 0 3450 2210" fill="none" xmlns="http://www.w3.org/2000/svg">
<path d="M696.945 1574.98C697.015 1572.9 696.396 1569.64 697.803 1567.94C698.583 1567 700.771 1566.56 701.731 1567.6C701.697 1568.58 701.23 1568.7 700.332 1569.53C699.694 1570.86 700.411 1574.85 700.216 1576.58C700.018 1578.34 698.849 1578.49 698.78 1579.48C698.558 1582.69 698.551 1586.18 698.509 1589.4L696.984 1591.45C696.947 1592.28 696.926 1593.11 696.919 1593.94C696.912 1595.2 696.775 1596.42 697.657 1597.32C699.461 1597.05 701.667 1593.3 702.628 1592.96C705.548 1591.91 706.877 1590.12 709.087 1588.66C712.672 1586.3 716.941 1584.71 720.485 1582.12C721.935 1581.06 722.182 1582.17 724.069 1580.16C724.594 1580.15 727.294 1580.1 727.523 1579.97C730.712 1578.11 732.9 1578.53 736.49 1578.33L736.7 1578.15C739.406 1575.77 743.4 1576.71 746.769 1577.06C748.125 1577.2 749.991 1578.03 751.4 1578.28C754.324 1578.81 755.301 1577.39 757.378 1579.77C758.347 1580.25 761.858 1580.11 763.14 1580.11C767.373 1583.59 776.135 1584.7 779.929 1589.41C781.702 1591.61 780.483 1590.49 781.361 1592.62C782.235 1593.25 783.695 1592.99 783.942 1593.32C787.591 1598.18 791.289 1602.81 794.213 1608.18C794.798 1609.26 795.539 1612.4 796.157 1613.67C798.268 1614.96 797.192 1615.41 797.511 1617.69C797.626 1618.71 798.829 1618.89 799.042 1619.85C799.645 1622.55 798.073 1623.5 799.98 1625.67C801.249 1627.12 800.256 1632.79 800.758 1634.79C800.872 1635.66 802.135 1637.29 801.958 1638.15C801.285 1641.47 799.817 1641.68 801.548 1645.09C803.541 1649.01 799.219 1655.06 801.545 1658.75C801.831 1659.2 803.655 1659.35 804.235 1659.37C809.532 1659.59 814.644 1660.67 819.985 1660.36C822.127 1660.25 824.64 1660.71 826.797 1660.88C828.85 1661.05 830.818 1661.02 832.876 1661.03C834.163 1660.05 835.701 1659.4 836.785 1658.16C839.095 1655.54 839.943 1651.71 841.447 1648.6C841.65 1648.17 842.43 1647.94 842.599 1647.47C843.308 1645.51 843.506 1642.38 845.663 1641.43C849.686 1641 847.618 1644.6 847.805 1645.98C849.595 1648.47 851.339 1644.12 854.838 1649.65C859.838 1649.79 866.66 1650.36 871.224 1652.45C872.22 1652.08 873.262 1651.72 874.327 1651.59C878.005 1651.12 883.187 1652.82 886.426 1652.87C891.878 1652.95 897.536 1652.78 903.036 1653.11C903.881 1653.16 904.12 1653.57 904.853 1654.16C907.441 1654.33 906.24 1650.97 910.965 1654.61C915.706 1654.2 925.528 1654.6 930.752 1654.61L943.255 1654.63C944.771 1654.63 947.362 1654.63 948.794 1654.65C950.049 1654.67 949.646 1655.92 952.62 1655.96C956.936 1656.03 961.331 1656.32 965.646 1656.2C968.902 1656.11 971.883 1655.9 975.163 1656C977.78 1654.29 980.73 1653.63 983.202 1655.93C1003.62 1656.22 1024.04 1656.31 1044.46 1656.2C1046.11 1656.19 1047.89 1656.05 1049.54 1656.22C1050.6 1656.33 1051.97 1657.24 1053.01 1656.77C1053.22 1656.67 1053.41 1656.55 1053.63 1656.46C1054.7 1656.04 1126.5 1655.86 1132.45 1656.27C1133.48 1656.34 1134.34 1657.33 1135.33 1657.41C1136.24 1657.49 1137.24 1656.69 1138.22 1656.64C1140.1 1656.56 1142.01 1656.73 1143.9 1656.69C1147.93 1656.61 1152.62 1656.06 1156.59 1656.82C1157.13 1656.92 1157.59 1657.29 1158.09 1657.5C1158.94 1657.86 1159.81 1657.29 1160.58 1656.97C1161.3 1656.68 1161.65 1656.83 1162.32 1657.15C1164.06 1657.97 1184.13 1657.64 1188.05 1657.9C1189.07 1657.97 1189.84 1658.69 1190.82 1658.95C1192.33 1659.34 1194.1 1659.27 1195.66 1659.35C1196.79 1659.41 1197.15 1659.48 1197.9 1660.3C1198.91 1661.4 1202.27 1661.07 1203.75 1661.11C1207.31 1661.2 1210.97 1660.93 1214.51 1661.17C1215.42 1661.23 1216.24 1661.9 1217.1 1661.9C1217.87 1661.89 1218.91 1661.28 1219.64 1661.48C1220.07 1661.6 1220.55 1662 1220.91 1662.24C1223.16 1663.74 1224.17 1664.34 1226.87 1664.47C1227.43 1672.28 1226.43 1670.87 1219.15 1670.81C1218.54 1670.4 1217.69 1669.73 1217.08 1669.27C1212.01 1669.14 1209.6 1667.95 1204.98 1669.7C1202.44 1668.6 1202.74 1668.1 1200.99 1666.61C1199.13 1665.03 1197.03 1667.66 1194.66 1665C1193.39 1663.58 1185.72 1664.23 1183.83 1664.39C1183.64 1664.29 1182.27 1663.48 1182.09 1663.47C1175.73 1662.84 1169.22 1662.25 1162.86 1663.21C1162.13 1663.32 1161.35 1663.91 1160.89 1664.07C1158.9 1664.78 1159.36 1663.58 1158.16 1662.79C1158.01 1662.69 1156.4 1662.67 1156.04 1662.67C1151.21 1662.62 1146.38 1662.61 1141.56 1662.65C1138.22 1662.69 1134.71 1662.73 1131.38 1662.7C1129.61 1662.69 1130.52 1661.25 1127.59 1661.06C1125.04 1660.75 1122.58 1662.69 1120.19 1661.41C1119.05 1660.79 1116.62 1661.12 1115.26 1661.13L1103.3 1661.3C1095.37 1661.37 1087.11 1660.57 1079.26 1661.59C1078.67 1661.67 1077.01 1661.36 1076.16 1661.33C1073.2 1661.21 1070.19 1660.63 1067.31 1661.64C1067.25 1661.66 1066.07 1660.94 1064.83 1660.95C1062.46 1660.98 1059.62 1662.21 1057.22 1662.2C1055.38 1662.12 1053.1 1661.13 1051.19 1661.15C1050.96 1661.16 1049.73 1661.61 1049.39 1661.68C1045.86 1660.19 1028.64 1661.73 1024.15 1661.05C1023.27 1660.91 1021.03 1661.09 1019.96 1661.02C1016.73 1660.79 1013.58 1660.02 1010.38 1659.76C1009.74 1660.11 1009.58 1660.25 1008.85 1660.38C1006.44 1658.92 1005.41 1660.24 1002.59 1660.21C1002.21 1660.2 1000.64 1659.6 1000.13 1659.44C999.438 1659.01 997.98 1660.18 997.637 1660.15C995.88 1660.05 986.718 1658.9 985.44 1659.42C979.932 1661.67 975.288 1658.19 970.883 1660.73C968.052 1659.14 967.977 1660.25 965.165 1660.02C952.518 1658.99 939.822 1659.59 927.144 1659.49C924.771 1659.47 922.287 1657.89 920.998 1658.1C920.566 1658.69 920.457 1658.92 919.82 1659.3C917.926 1659.34 909.44 1659.12 907.675 1658.46C906.248 1657.1 903.917 1659.06 903.462 1658.82C901.17 1657.64 896.499 1657.92 893.83 1658.12C893.222 1658.52 892.892 1658.85 892.177 1658.83C891.767 1658.52 890.813 1657.76 890.314 1657.78C881.659 1658.12 873.028 1657.72 864.368 1657.87C862.809 1657.89 861.369 1656.67 859.752 1656.68C859.11 1657.09 858.827 1657.37 858.094 1657.29C857.894 1657.1 857.161 1656.43 856.943 1656.42C854.58 1656.32 852.044 1656.27 849.681 1656.16C848.538 1657.12 847.547 1657.79 846.323 1658.63L848.545 1660.43C852.579 1660.14 874.455 1661.7 875.258 1661.42C877.02 1660.81 879.835 1662.58 881.792 1662.72C887.283 1663.1 892.895 1662.42 898.412 1662.74C899.59 1662.8 900.2 1664.07 901.349 1664.24C902.672 1664.44 904.255 1664.27 905.612 1664.28C908.34 1664.3 911.114 1664.37 913.835 1664.57C917.879 1664.87 921.619 1666.89 924.262 1669.97C921.102 1673.27 921.879 1672.72 917.946 1671.09C917.684 1670.99 915.722 1671.53 915.246 1671.66C913.593 1671.37 911.826 1669.3 909.734 1669.14C907.238 1668.94 904.99 1669.14 902.454 1669C900.588 1668.89 899.46 1667.59 897.375 1667.53C893.433 1667.41 885.391 1667.81 881.927 1666.38C878.616 1665.01 879.102 1666.26 876.188 1666.46C873.29 1666.66 870.052 1665.94 866.928 1665.84C864.017 1663.23 864.256 1664.68 861.125 1665.66C860.236 1665.64 859.627 1664.93 858.926 1664.31C853.224 1664.17 847.472 1664.4 841.739 1664.25C838.604 1664.17 837.617 1664.71 835.467 1667.08C834.134 1668.53 833.094 1671.09 831.831 1672.5C829.412 1675.2 827.363 1677.67 825.456 1680.77C824.965 1681.57 823.967 1682.02 823.418 1682.98C822.961 1683.11 822.509 1683.13 822.033 1683.17C821.557 1682.69 821.693 1682.47 821.628 1681.65C821.24 1677.12 832.538 1667.47 831.226 1664.55C830.539 1664.19 826.698 1664.18 825.861 1664.31C822.397 1664.86 802.722 1663.21 801.043 1665.28C800.459 1667.65 800.752 1668.27 799.224 1670.24C799.097 1672.78 799.455 1677.82 799.032 1679.96C798.003 1685.15 797.428 1687.72 797.382 1693.05C795.25 1695.85 794.198 1703.89 794.102 1707.46C793.886 1707.75 793.046 1708.86 792.997 1709.12C792.106 1713.74 791.076 1717.17 790.837 1721.85C789.005 1723.92 789.353 1724.68 789.291 1727.56C788.841 1728.13 788.103 1728.99 787.711 1729.55L787.755 1733.58C785.187 1736.11 784.93 1745.76 781.33 1749.8C781.291 1752.23 781.559 1752.77 779.867 1754.41L779.773 1754.5C779.477 1759.44 777.164 1760.83 775.246 1764.99C773.881 1767.96 773.406 1770.16 771.649 1773.14C770.004 1775.93 769.281 1779.61 766.786 1782.23C765.923 1783.35 765.648 1784.44 764.496 1785.58C762.942 1786.33 761.058 1786.07 760.242 1784.12C759.317 1781.91 759.207 1780.67 757.983 1778.24C755.982 1774.26 753.279 1769.47 751.787 1765.16C751.787 1765.16 751.26 1764.77 751.221 1764.74C751.382 1763.1 750.467 1761.24 751.912 1760.46C755.94 1765.29 758.191 1770.91 761.185 1776.42C762.199 1778.28 761.089 1779.51 762.664 1780.78C763.543 1780.99 763.737 1781.07 764.629 1780.77C765.289 1779.84 764.951 1779.98 765.05 1778.84C765.614 1776.98 766.199 1778.37 766.729 1775.99C767.665 1771.76 770.981 1767.68 772.007 1763.29C772.059 1763.06 772.857 1762.29 773.039 1762.13C773.104 1757.85 776.969 1750.69 778.32 1746.31C778.445 1745.78 779.565 1745.11 779.61 1744.68C779.872 1742.08 778.913 1741.32 781.138 1739.75C781.457 1737.32 780.888 1737.84 782.016 1735.69C783.823 1732.24 784.082 1725.74 784.867 1722C785.2 1720.42 787.516 1715.85 787.5 1715.55C787.269 1711.21 789.423 1708.73 789.345 1705.05C791.869 1701.76 790.468 1700.66 791.089 1697.03C791.578 1694.18 793.322 1690.77 794.078 1688.02C794.595 1686.13 793.93 1682.92 794.229 1680.93C794.918 1677.73 796.968 1668.04 795.684 1664.94C794.042 1663.55 784.394 1664.74 781.772 1664.27C780.285 1664 779.994 1663.45 778.684 1663.22C776.14 1664.66 776.777 1662.57 775.514 1662.89C773.913 1663.29 773.161 1664.37 770.807 1664.47C768.431 1664.56 768.335 1663.12 766.539 1663.16C761.762 1663.26 756.944 1662.88 752.19 1662.73C744.835 1662.5 737.672 1663.3 730.418 1661.81C727.497 1661.21 723.778 1661.18 720.794 1661.14L696.733 1661.04C692.048 1661.02 686.463 1660.92 681.825 1661.21C677.441 1661.48 677.306 1672.14 674.345 1675.03L674.225 1679.09L672.735 1681.04C672.698 1685.64 671.421 1686.17 669.937 1690.59C668.319 1695.41 667.772 1697.47 667.697 1702.4C665.408 1705.26 665.309 1709.3 666.478 1712.66C666.998 1712.68 668.661 1712.8 668.924 1713.09C669.287 1713.48 673.995 1714.78 674.058 1714.87C675.744 1717.49 677.863 1714.72 679.602 1717.59C679.7 1717.75 681.492 1717.69 681.866 1718.7L681.457 1719.19C680.937 1719.33 680.249 1719.45 679.746 1719.24C675.456 1717.47 671.138 1715.78 666.758 1714.23C664.824 1713.55 664.583 1714.04 662.866 1714.92C663.087 1718.62 661.578 1721.54 660.905 1725.13C660.852 1725.41 660.026 1726.33 659.793 1726.58C659.823 1732.03 656.202 1739.72 656.353 1744.76L654.94 1746.8C654.822 1748.42 655.094 1754.17 654.746 1755.22C652.96 1760.64 653.648 1765.46 653.127 1770.59C652.55 1776.26 649.871 1781.03 649.911 1787.29L648.352 1789.34C648.343 1790.33 648.342 1796.07 648.045 1796.36C645.511 1798.8 647.419 1801.77 646.403 1804.58C645.338 1805.44 645.194 1806 644.099 1806.94C642.041 1807.41 641.288 1805.01 640.416 1803.41C642.585 1799.6 643.56 1794.03 643.503 1789.64L644.983 1787.81C645.091 1784.82 644.679 1783.73 646.574 1781.53C646.762 1778.7 646.598 1778.01 648.157 1775.65C647.894 1770.07 648.931 1766.11 649.904 1760.75C650.121 1759.97 649.73 1755.71 649.982 1755.26C651.826 1751.98 651.169 1748.64 651.836 1745.07C652.842 1739.7 654.608 1734.55 656.105 1729.31C656.484 1727.82 656.438 1725.91 656.794 1724.45C657.513 1721.49 657.988 1718.73 658.307 1715.72C658.454 1714.32 659.955 1713.52 659.434 1711.69C658.746 1711.14 657.655 1711.26 656.735 1711.26C656.79 1710.64 656.745 1710.25 657.155 1709.8C658.291 1709.31 658.425 1709.23 659.201 1708.27C662.754 1705.68 661.423 1699.03 664.485 1695.22C664.475 1694.79 664.473 1694.36 664.48 1693.92C664.528 1690.64 668.932 1678.23 669.862 1674.45C669.916 1674.23 670.655 1673.5 670.873 1673.28C671.03 1670.73 670.852 1670.16 672.499 1668.21C672.621 1664.81 673.688 1664.73 673.693 1662.33C672.231 1659.49 660.546 1662.16 657.759 1662.5C654.758 1662.86 654.049 1661 650.829 1662.43C649.991 1662.8 640.907 1662.49 640.133 1662.07L640.006 1662C638.875 1661.39 637.173 1662.54 634.958 1662.53C631.483 1662.72 627.156 1662.47 623.788 1662.68C619.426 1662.95 614.781 1661.72 611.091 1663.96C610.275 1664.45 608.049 1663.06 607.068 1662.51C605.834 1663.19 605.618 1663.32 604.364 1663.76C602.276 1664.48 591.134 1663.88 590.142 1664.66C589.781 1664.94 589.428 1665.23 589.082 1665.53C588.058 1665.75 587.88 1665.57 586.953 1665.21C585.636 1664.69 583.137 1665.27 581.677 1665.47C577.158 1666.06 572.77 1665.91 568.236 1665.9C567.438 1665.89 566.65 1667.12 565.725 1666.96C559.679 1667.36 553.684 1668.21 547.676 1668.96C545.582 1669.23 543.606 1669.17 541.576 1669.37C540.129 1669.51 537.586 1670.56 536.067 1670.73C534.328 1670.92 532.373 1670.62 530.61 1670.81C529.35 1670.94 527.13 1672.28 526.023 1672.34C522.46 1672.53 518.948 1672.29 515.365 1672.62C513.625 1672.77 513.311 1673.79 512.372 1673.86C508.962 1674.12 504.733 1674.27 501.351 1674.17C500.292 1674.92 498.943 1675.52 499.376 1676.91C499.635 1677.07 510.357 1678.19 511.561 1678.86C511.649 1678.9 516.379 1678.9 516.927 1678.84C519.985 1678.49 521.333 1679.67 524.093 1680.46C526.675 1680.79 530.112 1680.33 532.82 1680.54C535.476 1680.73 537.996 1681.44 540.644 1681.87C543.7 1682.35 546.392 1681.34 548.702 1683.61C550.54 1683.82 553.59 1683.75 555.527 1683.76C558.136 1685.7 560.072 1685.12 563.077 1685.7C564.805 1686.03 566.463 1686.54 568.229 1686.82C570.985 1687.26 573.822 1686.76 576.062 1688.57C576.163 1688.65 580.009 1688.53 580.647 1688.71C581.961 1689.1 581.979 1690.01 583.207 1690.13C585.598 1690.47 588.672 1689.47 590.521 1691.21L590.386 1692.4C589.191 1693.16 587.475 1692.58 585.749 1692.82C584.758 1691.45 577.778 1691.7 575.999 1691.73C572.677 1689.22 568.875 1690.7 564.924 1690.13C564.222 1690.03 563.576 1689.03 563.154 1688.96C560.541 1688.54 557.364 1688.63 554.699 1688.62C553.965 1687.97 553.338 1687.51 552.55 1686.94C548.056 1687.36 547.802 1685.77 543.892 1685.45C541.049 1685.21 536.742 1685.36 533.773 1685.39C533.411 1685.11 532.475 1684.37 532.078 1684.31C523.986 1683.16 515.741 1684.12 507.616 1683.62C505.066 1683.46 501.264 1681.82 498.367 1681.79C497.416 1681.78 495.146 1680.77 493.959 1680.67C491.97 1680.49 490.05 1680.43 488.054 1680.38C483.454 1680.04 478.889 1680.12 474.284 1680.14C472.848 1680.07 470.398 1680.24 469.162 1679.47C468.033 1678.77 467.518 1676.01 468.583 1675.05C469.924 1673.83 471.893 1674 473.536 1673.95C473.852 1673.68 475.103 1672.61 475.428 1672.57C478.031 1672.23 480.896 1672.75 483.485 1672.47C485.246 1672.08 485.777 1671.44 487.664 1671.17C493.346 1670.33 498.899 1671.7 504.206 1669.23C504.902 1668.9 509.994 1669.34 511.606 1668.8C512.633 1667.64 513.022 1667.44 514.6 1667.52C520.784 1667.85 526.18 1667.33 532.233 1666.01C533.715 1665.69 537.539 1665.91 539.255 1665.95C542.496 1663.59 548.195 1664.27 552.214 1664.35C554.662 1662.51 555.644 1663.05 558.631 1662.44C560.577 1662.05 562.823 1661.29 564.783 1661.18C569.944 1660.89 575.203 1661.23 580.374 1661.02C581.982 1660.96 583.402 1659.75 584.887 1659.68C591.842 1659.34 598.941 1659.44 605.925 1659.41C610.498 1659.39 614.503 1658.01 618.081 1657.87C624.905 1657.59 632.663 1657.94 639.489 1657.81C644.714 1657.7 648.716 1657.43 654.082 1657.49C656.532 1655.59 664.711 1656.15 667.888 1656.57C670.806 1656.96 672.326 1656.1 675.468 1656.29C677.205 1652.39 677.422 1653.71 677.659 1648.76L678.981 1647.13C679.134 1644.53 678.843 1643.99 680.628 1642.24C680.809 1636.74 688.298 1619.08 686.916 1615.64C686.833 1615.44 686.556 1615.38 686.358 1615.29C684.034 1615.62 682.838 1618.98 681.557 1620.53C678.554 1624.17 678.745 1627.72 677.136 1631.81C676.617 1632.27 676.498 1632.43 675.735 1632.41C673.606 1632.37 674.224 1628.48 674.271 1627.21C675.354 1625.87 676.19 1623.64 677.218 1621.81C678.384 1619.74 679.929 1617.89 680.737 1615.8C682.247 1611.88 688.397 1606.87 690.528 1603.3C692.175 1599.92 692.054 1595.82 692.315 1592.18C692.179 1594.08 694.215 1586.73 693.903 1587.65C695.232 1583.71 695.405 1581.17 695.393 1577.11L696.945 1574.98ZM727.957 1583.31C725.166 1585.26 719.406 1586.75 715.953 1588.84C708.006 1593.65 698.704 1599.51 693.821 1607.65C693.206 1608.77 694.465 1611.25 692.108 1614.49C692.18 1620.08 689.168 1625.56 688.66 1630.71L687.188 1632.3C687.288 1633.81 687.435 1635 686.7 1636.39C685.512 1638.63 685.609 1640.09 685.505 1642.53L684.143 1644.23L684.144 1644.41C684.161 1648.38 680.686 1652.07 682.598 1655.75C684.606 1657.3 718.061 1655.45 723.601 1656.24C724.124 1656.31 724.521 1656.57 724.934 1656.88C726.66 1658.16 740.755 1657.85 743.733 1657.83C745.646 1657.8 751.348 1657.24 752.85 1658.73C753.071 1658.95 755.065 1657.9 755.574 1657.88C759.34 1657.79 764.026 1657.69 767.717 1657.9C771.701 1661.51 771.748 1657.64 773.692 1657.9C780.166 1658.75 789.33 1659.68 795.721 1659.42C796.012 1658.78 797.038 1656.55 797.127 1655.91C797.706 1651.61 797.457 1646.55 797.304 1642.19C797.239 1640.41 796.36 1638.49 796.989 1636.83C797.475 1635.55 796.186 1634.6 796.056 1633.45C795.669 1629.97 796.373 1625.79 795.398 1622.45C795.271 1622.02 793.454 1619.64 793.067 1618.79C790.712 1613.64 788.987 1607.57 784.787 1603.61C784.111 1602.83 783.591 1601.06 782.931 1600.4C779.256 1596.71 775.607 1592.86 771.121 1590.14C768.119 1588.32 766.809 1586.65 763.168 1586.44C762.113 1585.46 762.173 1585.43 760.905 1585.05C757.656 1584.07 754.508 1583.38 751.125 1583.11C750.945 1583.09 750.186 1582.12 750.049 1581.93C749.557 1581.72 741.963 1581.3 741.428 1581.47C739.873 1581.68 737.085 1581.55 735.884 1581.95C732.469 1583.09 731.484 1583.38 727.957 1583.31Z" fill="black"/>
<path d="M751.221 1764.74C749.466 1763.04 748.377 1760.56 746.821 1758.66C742.943 1753.92 737.35 1749.84 732.378 1746.28C728.953 1743.82 705.119 1729.44 702.155 1729.17C700.121 1728.98 698.412 1727.14 696.526 1726.36C695.897 1726.09 694.634 1726.12 694.167 1725.78C693.844 1725.54 693.664 1724.74 693.308 1724.52C692.504 1724.03 691.125 1724.51 690.2 1723.85C690.036 1723.73 690.056 1723.43 690.029 1723.24C691.871 1720.92 695.425 1724.48 697.365 1725.39C698.562 1725.95 699.053 1725.86 700.347 1725.9C701.909 1727.35 704.49 1727.98 706.524 1728.94C716.484 1733.66 726.294 1738.83 735.078 1745.53C738.626 1748.24 751.306 1756.44 751.912 1760.46C750.467 1761.24 751.382 1763.1 751.221 1764.74Z" fill="black"/>
<path d="M590.521 1691.21C592.631 1692.09 595.514 1691.72 597.791 1692.02C600.35 1692.36 602.787 1692.76 605.35 1693.13C606.296 1693.27 608.061 1694.89 608.335 1694.84C611.833 1694.22 613.506 1695.19 616.689 1696.47C617.347 1696.74 619.129 1696.34 619.894 1696.52C620.339 1696.6 621.338 1697.85 621.389 1697.87C623.589 1698.43 626.189 1698.66 628.366 1699.36C629.813 1699.81 632.691 1699.69 633.606 1700.61C635.738 1702.74 636.929 1700.02 639.245 1702.75C642.059 1703.81 641.44 1701.87 643.875 1704.36C644.739 1705.25 651.886 1706.47 653.337 1706.55C655.255 1708.08 656.721 1708.76 659.201 1708.27C658.425 1709.23 658.291 1709.31 657.155 1709.8C656.745 1710.25 656.79 1710.64 656.735 1711.26C656.67 1711.14 656.245 1710.41 656.129 1710.37C651.079 1708.59 645.898 1706.8 640.831 1705.01C640.282 1704.81 638.861 1704.79 638.537 1704.8L636.711 1703.3C635.611 1703.26 634.512 1703.21 633.413 1703.15C633.248 1702.98 633.08 1702.81 632.909 1702.65C631.383 1701.22 629.524 1701.59 627.411 1701.65C625.39 1699.65 624.364 1700.22 621.726 1699.81C620.087 1699.55 618.513 1699.22 616.893 1698.9C613.677 1698.25 611.836 1698.81 609.064 1696.76C602.726 1696.83 597.766 1695.13 591.631 1693.85C589.786 1693.46 587.334 1693.59 585.749 1692.82C587.475 1692.58 589.191 1693.16 590.386 1692.4L590.521 1691.21Z" fill="black"/>
<path d="M821.628 1681.65C821.693 1682.47 821.557 1682.69 822.033 1683.17C822.509 1683.13 822.961 1683.11 823.418 1682.98C823.226 1685.1 822.932 1684.27 822.004 1685.84C821.547 1686.62 822.184 1687.16 821.253 1688.32L820.744 1688.26C819.138 1686.47 819.616 1683.07 821.628 1681.65Z" fill="black"/>
</svg>
