<svg width="3450" height="2210" viewBox="0 0 3450 2210" fill="none" xmlns="http://www.w3.org/2000/svg">
<path d="M2415.53 1914.41C2415.53 1914.7 2415.52 1914.96 2415.49 1915.18C2415.45 1915.4 2415.4 1915.58 2415.32 1915.72C2415.26 1915.84 2415.17 1915.94 2415.06 1916C2414.97 1916.06 2414.86 1916.09 2414.74 1916.09H2406.2V1942.39C2406.2 1942.52 2406.17 1942.62 2406.11 1942.72C2406.05 1942.81 2405.94 1942.89 2405.78 1942.95C2405.63 1943 2405.42 1943.04 2405.15 1943.07C2404.9 1943.12 2404.58 1943.14 2404.19 1943.14C2403.81 1943.14 2403.49 1943.12 2403.23 1943.07C2402.96 1943.04 2402.75 1943 2402.59 1942.95C2402.44 1942.89 2402.33 1942.81 2402.27 1942.72C2402.2 1942.62 2402.17 1942.52 2402.17 1942.39V1916.09H2393.64C2393.52 1916.09 2393.4 1916.06 2393.29 1916C2393.2 1915.94 2393.12 1915.84 2393.06 1915.72C2392.99 1915.58 2392.94 1915.4 2392.89 1915.18C2392.86 1914.96 2392.84 1914.7 2392.84 1914.41C2392.84 1914.11 2392.86 1913.85 2392.89 1913.63C2392.94 1913.4 2392.99 1913.21 2393.06 1913.07C2393.12 1912.93 2393.2 1912.83 2393.29 1912.77C2393.4 1912.7 2393.52 1912.67 2393.64 1912.67H2414.74C2414.86 1912.67 2414.97 1912.7 2415.06 1912.77C2415.17 1912.83 2415.26 1912.93 2415.32 1913.07C2415.4 1913.21 2415.45 1913.4 2415.49 1913.63C2415.52 1913.85 2415.53 1914.11 2415.53 1914.41ZM2428.27 1922.7C2428.27 1923.05 2428.26 1923.34 2428.25 1923.57C2428.23 1923.8 2428.2 1923.99 2428.15 1924.13C2428.1 1924.26 2428.04 1924.36 2427.96 1924.44C2427.9 1924.5 2427.81 1924.53 2427.68 1924.53C2427.56 1924.53 2427.4 1924.5 2427.21 1924.44C2427.04 1924.36 2426.84 1924.29 2426.6 1924.23C2426.39 1924.15 2426.14 1924.08 2425.85 1924.02C2425.57 1923.95 2425.27 1923.92 2424.94 1923.92C2424.55 1923.92 2424.17 1924 2423.79 1924.16C2423.42 1924.31 2423.02 1924.57 2422.6 1924.93C2422.19 1925.29 2421.76 1925.77 2421.31 1926.36C2420.85 1926.95 2420.35 1927.68 2419.81 1928.54V1942.41C2419.81 1942.54 2419.78 1942.65 2419.71 1942.74C2419.65 1942.82 2419.55 1942.89 2419.41 1942.95C2419.27 1943.02 2419.07 1943.06 2418.82 1943.09C2418.57 1943.12 2418.25 1943.14 2417.86 1943.14C2417.49 1943.14 2417.18 1943.12 2416.93 1943.09C2416.68 1943.06 2416.47 1943.02 2416.32 1942.95C2416.18 1942.89 2416.07 1942.82 2416.01 1942.74C2415.96 1942.65 2415.94 1942.54 2415.94 1942.41V1921.32C2415.94 1921.2 2415.96 1921.09 2416.01 1921.02C2416.06 1920.92 2416.15 1920.84 2416.29 1920.78C2416.43 1920.7 2416.61 1920.66 2416.83 1920.64C2417.05 1920.61 2417.34 1920.59 2417.7 1920.59C2418.04 1920.59 2418.32 1920.61 2418.54 1920.64C2418.78 1920.66 2418.96 1920.7 2419.08 1920.78C2419.21 1920.84 2419.29 1920.92 2419.34 1921.02C2419.4 1921.09 2419.43 1921.2 2419.43 1921.32V1924.39C2420.01 1923.55 2420.55 1922.86 2421.05 1922.33C2421.57 1921.8 2422.05 1921.38 2422.5 1921.09C2422.96 1920.77 2423.4 1920.56 2423.84 1920.45C2424.29 1920.33 2424.75 1920.27 2425.2 1920.27C2425.4 1920.27 2425.63 1920.28 2425.88 1920.31C2426.14 1920.33 2426.42 1920.37 2426.7 1920.43C2426.98 1920.49 2427.23 1920.56 2427.45 1920.64C2427.68 1920.72 2427.85 1920.8 2427.94 1920.88C2428.03 1920.95 2428.1 1921.03 2428.13 1921.11C2428.16 1921.17 2428.18 1921.26 2428.2 1921.37C2428.23 1921.48 2428.25 1921.64 2428.25 1921.86C2428.26 1922.06 2428.27 1922.34 2428.27 1922.7ZM2447.01 1942.44C2447.01 1942.62 2446.94 1942.77 2446.82 1942.86C2446.69 1942.95 2446.52 1943.02 2446.3 1943.07C2446.08 1943.12 2445.76 1943.14 2445.34 1943.14C2444.94 1943.14 2444.61 1943.12 2444.36 1943.07C2444.12 1943.02 2443.95 1942.95 2443.84 1942.86C2443.73 1942.77 2443.68 1942.62 2443.68 1942.44V1940.33C2442.76 1941.31 2441.72 1942.08 2440.58 1942.62C2439.46 1943.17 2438.26 1943.45 2437 1943.45C2435.89 1943.45 2434.88 1943.3 2433.97 1943C2433.08 1942.72 2432.32 1942.3 2431.68 1941.76C2431.05 1941.21 2430.56 1940.54 2430.2 1939.74C2429.86 1938.95 2429.69 1938.04 2429.69 1937.02C2429.69 1935.84 2429.93 1934.8 2430.41 1933.93C2430.9 1933.05 2431.59 1932.33 2432.5 1931.75C2433.4 1931.17 2434.51 1930.74 2435.83 1930.46C2437.14 1930.16 2438.61 1930.02 2440.26 1930.02H2443.16V1928.38C2443.16 1927.56 2443.08 1926.84 2442.9 1926.22C2442.73 1925.59 2442.45 1925.08 2442.06 1924.67C2441.69 1924.25 2441.19 1923.94 2440.58 1923.73C2439.97 1923.52 2439.22 1923.41 2438.33 1923.41C2437.38 1923.41 2436.52 1923.52 2435.76 1923.76C2435.01 1923.98 2434.34 1924.23 2433.76 1924.51C2433.2 1924.77 2432.72 1925.02 2432.33 1925.26C2431.96 1925.48 2431.68 1925.59 2431.49 1925.59C2431.36 1925.59 2431.26 1925.55 2431.16 1925.49C2431.07 1925.43 2430.98 1925.34 2430.9 1925.21C2430.84 1925.09 2430.79 1924.93 2430.76 1924.74C2430.73 1924.54 2430.72 1924.32 2430.72 1924.09C2430.72 1923.7 2430.74 1923.39 2430.79 1923.17C2430.85 1922.94 2430.98 1922.72 2431.19 1922.52C2431.4 1922.31 2431.77 1922.08 2432.29 1921.81C2432.8 1921.53 2433.4 1921.28 2434.07 1921.06C2434.74 1920.83 2435.47 1920.64 2436.27 1920.5C2437.07 1920.34 2437.87 1920.27 2438.69 1920.27C2440.2 1920.27 2441.49 1920.44 2442.55 1920.78C2443.61 1921.12 2444.47 1921.63 2445.13 1922.3C2445.79 1922.96 2446.26 1923.78 2446.56 1924.77C2446.86 1925.75 2447.01 1926.9 2447.01 1928.21V1942.44ZM2443.16 1932.8H2439.86C2438.79 1932.8 2437.87 1932.9 2437.09 1933.09C2436.31 1933.26 2435.66 1933.52 2435.15 1933.88C2434.63 1934.23 2434.25 1934.65 2434 1935.15C2433.76 1935.63 2433.65 1936.2 2433.65 1936.84C2433.65 1937.93 2433.99 1938.8 2434.68 1939.46C2435.38 1940.1 2436.36 1940.42 2437.61 1940.42C2438.62 1940.42 2439.56 1940.16 2440.42 1939.65C2441.29 1939.13 2442.21 1938.34 2443.16 1937.28V1932.8ZM2457.42 1942.41C2457.42 1942.54 2457.39 1942.65 2457.33 1942.74C2457.27 1942.82 2457.16 1942.89 2457.02 1942.95C2456.88 1943.02 2456.69 1943.06 2456.44 1943.09C2456.19 1943.12 2455.87 1943.14 2455.48 1943.14C2455.1 1943.14 2454.79 1943.12 2454.54 1943.09C2454.29 1943.06 2454.09 1943.02 2453.93 1942.95C2453.79 1942.89 2453.69 1942.82 2453.62 1942.74C2453.58 1942.65 2453.55 1942.54 2453.55 1942.41V1921.32C2453.55 1921.21 2453.58 1921.11 2453.62 1921.02C2453.69 1920.92 2453.79 1920.84 2453.93 1920.78C2454.09 1920.72 2454.29 1920.67 2454.54 1920.64C2454.79 1920.61 2455.1 1920.59 2455.48 1920.59C2455.87 1920.59 2456.19 1920.61 2456.44 1920.64C2456.69 1920.67 2456.88 1920.72 2457.02 1920.78C2457.16 1920.84 2457.27 1920.92 2457.33 1921.02C2457.39 1921.11 2457.42 1921.21 2457.42 1921.32V1942.41ZM2457.87 1914.2C2457.87 1915.1 2457.7 1915.72 2457.35 1916.05C2457.01 1916.38 2456.37 1916.54 2455.45 1916.54C2454.55 1916.54 2453.92 1916.38 2453.58 1916.07C2453.25 1915.74 2453.09 1915.13 2453.09 1914.24C2453.09 1913.34 2453.26 1912.72 2453.6 1912.39C2453.95 1912.06 2454.58 1911.9 2455.5 1911.9C2456.41 1911.9 2457.02 1912.06 2457.35 1912.39C2457.7 1912.7 2457.87 1913.3 2457.87 1914.2ZM2482.16 1942.41C2482.16 1942.54 2482.13 1942.65 2482.06 1942.74C2482 1942.82 2481.9 1942.89 2481.76 1942.95C2481.62 1943.02 2481.42 1943.06 2481.17 1943.09C2480.92 1943.12 2480.61 1943.14 2480.24 1943.14C2479.85 1943.14 2479.53 1943.12 2479.28 1943.09C2479.03 1943.06 2478.83 1943.02 2478.69 1942.95C2478.55 1942.89 2478.45 1942.82 2478.38 1942.74C2478.32 1942.65 2478.29 1942.54 2478.29 1942.41V1930.06C2478.29 1928.86 2478.2 1927.89 2478.01 1927.16C2477.82 1926.42 2477.55 1925.79 2477.19 1925.26C2476.83 1924.73 2476.36 1924.32 2475.78 1924.04C2475.22 1923.76 2474.56 1923.62 2473.81 1923.62C2472.85 1923.62 2471.88 1923.96 2470.91 1924.65C2469.94 1925.34 2468.92 1926.34 2467.86 1927.67V1942.41C2467.86 1942.54 2467.83 1942.65 2467.77 1942.74C2467.7 1942.82 2467.6 1942.89 2467.46 1942.95C2467.32 1943.02 2467.13 1943.06 2466.88 1943.09C2466.63 1943.12 2466.31 1943.14 2465.92 1943.14C2465.54 1943.14 2465.23 1943.12 2464.98 1943.09C2464.73 1943.06 2464.53 1943.02 2464.37 1942.95C2464.23 1942.89 2464.13 1942.82 2464.06 1942.74C2464.02 1942.65 2463.99 1942.54 2463.99 1942.41V1921.32C2463.99 1921.2 2464.02 1921.09 2464.06 1921.02C2464.11 1920.92 2464.2 1920.84 2464.35 1920.78C2464.49 1920.7 2464.67 1920.66 2464.88 1920.64C2465.1 1920.61 2465.39 1920.59 2465.75 1920.59C2466.1 1920.59 2466.38 1920.61 2466.6 1920.64C2466.83 1920.66 2467.01 1920.7 2467.13 1920.78C2467.26 1920.84 2467.35 1920.92 2467.39 1921.02C2467.45 1921.09 2467.49 1921.2 2467.49 1921.32V1924.11C2468.67 1922.78 2469.85 1921.81 2471.03 1921.2C2472.21 1920.58 2473.41 1920.27 2474.61 1920.27C2476.02 1920.27 2477.2 1920.51 2478.15 1920.99C2479.12 1921.46 2479.9 1922.09 2480.49 1922.89C2481.09 1923.69 2481.51 1924.62 2481.76 1925.7C2482.03 1926.77 2482.16 1928.05 2482.16 1929.55V1942.41ZM2492.5 1942.41C2492.5 1942.54 2492.47 1942.65 2492.41 1942.74C2492.35 1942.82 2492.25 1942.89 2492.11 1942.95C2491.96 1943.02 2491.77 1943.06 2491.52 1943.09C2491.27 1943.12 2490.95 1943.14 2490.56 1943.14C2490.18 1943.14 2489.87 1943.12 2489.62 1943.09C2489.37 1943.06 2489.17 1943.02 2489.01 1942.95C2488.87 1942.89 2488.77 1942.82 2488.71 1942.74C2488.66 1942.65 2488.64 1942.54 2488.64 1942.41V1921.32C2488.64 1921.21 2488.66 1921.11 2488.71 1921.02C2488.77 1920.92 2488.87 1920.84 2489.01 1920.78C2489.17 1920.72 2489.37 1920.67 2489.62 1920.64C2489.87 1920.61 2490.18 1920.59 2490.56 1920.59C2490.95 1920.59 2491.27 1920.61 2491.52 1920.64C2491.77 1920.67 2491.96 1920.72 2492.11 1920.78C2492.25 1920.84 2492.35 1920.92 2492.41 1921.02C2492.47 1921.11 2492.5 1921.21 2492.5 1921.32V1942.41ZM2492.95 1914.2C2492.95 1915.1 2492.78 1915.72 2492.43 1916.05C2492.09 1916.38 2491.46 1916.54 2490.54 1916.54C2489.63 1916.54 2489 1916.38 2488.66 1916.07C2488.33 1915.74 2488.17 1915.13 2488.17 1914.24C2488.17 1913.34 2488.34 1912.72 2488.68 1912.39C2489.03 1912.06 2489.66 1911.9 2490.58 1911.9C2491.49 1911.9 2492.11 1912.06 2492.43 1912.39C2492.78 1912.7 2492.95 1913.3 2492.95 1914.2ZM2517.24 1942.41C2517.24 1942.54 2517.21 1942.65 2517.15 1942.74C2517.08 1942.82 2516.98 1942.89 2516.84 1942.95C2516.7 1943.02 2516.51 1943.06 2516.26 1943.09C2516.01 1943.12 2515.69 1943.14 2515.32 1943.14C2514.93 1943.14 2514.61 1943.12 2514.36 1943.09C2514.11 1943.06 2513.91 1943.02 2513.77 1942.95C2513.63 1942.89 2513.53 1942.82 2513.47 1942.74C2513.4 1942.65 2513.37 1942.54 2513.37 1942.41V1930.06C2513.37 1928.86 2513.28 1927.89 2513.09 1927.16C2512.9 1926.42 2512.63 1925.79 2512.27 1925.26C2511.91 1924.73 2511.44 1924.32 2510.87 1924.04C2510.3 1923.76 2509.65 1923.62 2508.9 1923.62C2507.93 1923.62 2506.96 1923.96 2505.99 1924.65C2505.02 1925.34 2504.01 1926.34 2502.94 1927.67V1942.41C2502.94 1942.54 2502.91 1942.65 2502.85 1942.74C2502.79 1942.82 2502.69 1942.89 2502.55 1942.95C2502.4 1943.02 2502.21 1943.06 2501.96 1943.09C2501.71 1943.12 2501.39 1943.14 2501 1943.14C2500.62 1943.14 2500.31 1943.12 2500.06 1943.09C2499.81 1943.06 2499.61 1943.02 2499.45 1942.95C2499.31 1942.89 2499.21 1942.82 2499.15 1942.74C2499.1 1942.65 2499.08 1942.54 2499.08 1942.41V1921.32C2499.08 1921.2 2499.1 1921.09 2499.15 1921.02C2499.19 1920.92 2499.29 1920.84 2499.43 1920.78C2499.57 1920.7 2499.75 1920.66 2499.97 1920.64C2500.19 1920.61 2500.47 1920.59 2500.83 1920.59C2501.18 1920.59 2501.46 1920.61 2501.68 1920.64C2501.91 1920.66 2502.09 1920.7 2502.22 1920.78C2502.34 1920.84 2502.43 1920.92 2502.47 1921.02C2502.54 1921.09 2502.57 1921.2 2502.57 1921.32V1924.11C2503.76 1922.78 2504.94 1921.81 2506.11 1921.2C2507.3 1920.58 2508.49 1920.27 2509.69 1920.27C2511.1 1920.27 2512.28 1920.51 2513.23 1920.99C2514.2 1921.46 2514.98 1922.09 2515.58 1922.89C2516.17 1923.69 2516.59 1924.62 2516.84 1925.7C2517.11 1926.77 2517.24 1928.05 2517.24 1929.55V1942.41ZM2541.34 1922.28C2541.34 1922.83 2541.27 1923.23 2541.11 1923.48C2540.97 1923.71 2540.78 1923.83 2540.55 1923.83H2537.52C2538.07 1924.39 2538.45 1925.02 2538.67 1925.7C2538.89 1926.38 2539 1927.08 2539 1927.81C2539 1929.03 2538.81 1930.11 2538.41 1931.05C2538.02 1931.98 2537.46 1932.78 2536.73 1933.44C2536.01 1934.08 2535.15 1934.57 2534.15 1934.91C2533.15 1935.26 2532.04 1935.43 2530.82 1935.43C2529.96 1935.43 2529.14 1935.32 2528.36 1935.1C2527.59 1934.87 2527 1934.58 2526.58 1934.23C2526.3 1934.52 2526.06 1934.84 2525.88 1935.2C2525.7 1935.55 2525.62 1935.97 2525.62 1936.44C2525.62 1936.98 2525.87 1937.44 2526.37 1937.8C2526.88 1938.16 2527.56 1938.35 2528.41 1938.38L2533.91 1938.62C2534.96 1938.65 2535.92 1938.8 2536.8 1939.06C2537.67 1939.31 2538.43 1939.68 2539.07 1940.16C2539.71 1940.63 2540.21 1941.22 2540.57 1941.92C2540.93 1942.61 2541.11 1943.41 2541.11 1944.34C2541.11 1945.3 2540.91 1946.23 2540.5 1947.1C2540.09 1947.98 2539.47 1948.74 2538.63 1949.4C2537.8 1950.07 2536.73 1950.59 2535.44 1950.97C2534.14 1951.36 2532.61 1951.55 2530.84 1951.55C2529.14 1951.55 2527.69 1951.41 2526.48 1951.11C2525.3 1950.83 2524.32 1950.44 2523.56 1949.94C2522.79 1949.44 2522.23 1948.84 2521.89 1948.13C2521.55 1947.45 2521.38 1946.7 2521.38 1945.88C2521.38 1945.37 2521.44 1944.87 2521.56 1944.38C2521.69 1943.9 2521.88 1943.44 2522.13 1943C2522.39 1942.56 2522.71 1942.15 2523.09 1941.76C2523.48 1941.35 2523.92 1940.95 2524.42 1940.56C2523.66 1940.17 2523.09 1939.68 2522.71 1939.09C2522.35 1938.49 2522.17 1937.85 2522.17 1937.16C2522.17 1936.21 2522.37 1935.36 2522.76 1934.61C2523.15 1933.86 2523.63 1933.19 2524.21 1932.59C2523.73 1932.02 2523.34 1931.37 2523.06 1930.65C2522.78 1929.91 2522.64 1929.03 2522.64 1928C2522.64 1926.8 2522.84 1925.72 2523.25 1924.77C2523.66 1923.81 2524.22 1923.01 2524.94 1922.35C2525.66 1921.7 2526.52 1921.2 2527.52 1920.85C2528.53 1920.49 2529.63 1920.31 2530.82 1920.31C2531.46 1920.31 2532.06 1920.35 2532.6 1920.43C2533.16 1920.49 2533.69 1920.59 2534.17 1920.71H2540.55C2540.81 1920.71 2541.01 1920.84 2541.13 1921.11C2541.27 1921.36 2541.34 1921.75 2541.34 1922.28ZM2535.3 1927.84C2535.3 1926.4 2534.9 1925.28 2534.1 1924.48C2533.32 1923.67 2532.2 1923.27 2530.75 1923.27C2530 1923.27 2529.34 1923.39 2528.78 1923.64C2528.23 1923.89 2527.77 1924.23 2527.4 1924.67C2527.04 1925.11 2526.77 1925.62 2526.58 1926.2C2526.41 1926.76 2526.32 1927.35 2526.32 1927.98C2526.32 1929.37 2526.71 1930.46 2527.49 1931.26C2528.29 1932.05 2529.4 1932.45 2530.82 1932.45C2531.59 1932.45 2532.25 1932.34 2532.81 1932.1C2533.38 1931.85 2533.84 1931.52 2534.2 1931.09C2534.57 1930.66 2534.84 1930.16 2535.02 1929.59C2535.2 1929.03 2535.3 1928.45 2535.3 1927.84ZM2537.24 1944.55C2537.24 1943.64 2536.87 1942.95 2536.12 1942.46C2535.38 1941.96 2534.38 1941.7 2533.12 1941.66L2527.66 1941.48C2527.16 1941.87 2526.74 1942.24 2526.41 1942.6C2526.1 1942.95 2525.85 1943.27 2525.66 1943.59C2525.48 1943.91 2525.34 1944.23 2525.27 1944.55C2525.2 1944.86 2525.17 1945.18 2525.17 1945.51C2525.17 1946.52 2525.69 1947.29 2526.72 1947.8C2527.75 1948.34 2529.19 1948.6 2531.03 1948.6C2532.2 1948.6 2533.18 1948.48 2533.96 1948.25C2534.76 1948.03 2535.4 1947.73 2535.88 1947.36C2536.37 1946.98 2536.71 1946.55 2536.91 1946.07C2537.13 1945.59 2537.24 1945.08 2537.24 1944.55ZM2579.19 1941.57C2579.32 1941.91 2579.38 1942.2 2579.38 1942.41C2579.4 1942.62 2579.34 1942.77 2579.22 1942.88C2579.09 1942.99 2578.88 1943.06 2578.58 1943.09C2578.3 1943.12 2577.92 1943.14 2577.43 1943.14C2576.95 1943.14 2576.56 1943.12 2576.26 1943.09C2575.98 1943.08 2575.76 1943.05 2575.61 1943C2575.47 1942.94 2575.36 1942.86 2575.28 1942.77C2575.22 1942.67 2575.15 1942.55 2575.09 1942.41L2572.49 1935.03H2559.88L2557.4 1942.32C2557.35 1942.46 2557.29 1942.59 2557.21 1942.7C2557.13 1942.79 2557.01 1942.88 2556.86 1942.95C2556.72 1943.02 2556.5 1943.06 2556.22 1943.09C2555.96 1943.12 2555.61 1943.14 2555.17 1943.14C2554.72 1943.14 2554.34 1943.12 2554.04 1943.07C2553.76 1943.04 2553.56 1942.97 2553.43 1942.86C2553.32 1942.75 2553.27 1942.59 2553.27 1942.39C2553.29 1942.17 2553.36 1941.89 2553.48 1941.55L2563.65 1913.38C2563.72 1913.2 2563.79 1913.06 2563.89 1912.95C2564 1912.84 2564.15 1912.76 2564.33 1912.7C2564.54 1912.63 2564.79 1912.59 2565.08 1912.58C2565.4 1912.55 2565.79 1912.53 2566.25 1912.53C2566.75 1912.53 2567.17 1912.55 2567.5 1912.58C2567.82 1912.59 2568.09 1912.63 2568.29 1912.7C2568.5 1912.76 2568.65 1912.85 2568.76 1912.98C2568.87 1913.09 2568.96 1913.23 2569.02 1913.4L2579.19 1941.57ZM2566.14 1916.7H2566.11L2560.89 1931.82H2571.43L2566.14 1916.7ZM2601.33 1942.41C2601.33 1942.54 2601.3 1942.65 2601.23 1942.74C2601.19 1942.84 2601.09 1942.91 2600.95 1942.98C2600.83 1943.02 2600.66 1943.06 2600.44 1943.09C2600.22 1943.12 2599.95 1943.14 2599.64 1943.14C2599.31 1943.14 2599.04 1943.12 2598.82 1943.09C2598.6 1943.06 2598.42 1943.02 2598.28 1942.98C2598.14 1942.91 2598.04 1942.84 2597.98 1942.74C2597.91 1942.65 2597.88 1942.54 2597.88 1942.41V1939.62C2596.77 1940.83 2595.62 1941.77 2594.41 1942.44C2593.23 1943.11 2591.92 1943.45 2590.5 1943.45C2588.95 1943.45 2587.63 1943.15 2586.54 1942.55C2585.44 1941.95 2584.55 1941.13 2583.87 1940.12C2583.19 1939.09 2582.7 1937.88 2582.39 1936.51C2582.08 1935.12 2581.92 1933.66 2581.92 1932.12C2581.92 1930.31 2582.12 1928.68 2582.51 1927.23C2582.9 1925.76 2583.48 1924.51 2584.24 1923.48C2585.01 1922.45 2585.95 1921.66 2587.08 1921.11C2588.22 1920.55 2589.53 1920.27 2591.01 1920.27C2592.25 1920.27 2593.37 1920.54 2594.39 1921.09C2595.42 1921.62 2596.44 1922.41 2597.44 1923.45V1911.2C2597.44 1911.09 2597.46 1910.98 2597.51 1910.89C2597.57 1910.78 2597.68 1910.7 2597.83 1910.66C2597.99 1910.59 2598.19 1910.55 2598.42 1910.52C2598.67 1910.47 2598.98 1910.45 2599.36 1910.45C2599.75 1910.45 2600.07 1910.47 2600.32 1910.52C2600.57 1910.55 2600.76 1910.59 2600.91 1910.66C2601.05 1910.7 2601.15 1910.78 2601.21 1910.89C2601.29 1910.98 2601.33 1911.09 2601.33 1911.2V1942.41ZM2597.44 1927.58C2596.39 1926.28 2595.37 1925.3 2594.39 1924.62C2593.42 1923.94 2592.41 1923.59 2591.34 1923.59C2590.36 1923.59 2589.52 1923.83 2588.83 1924.3C2588.15 1924.77 2587.58 1925.38 2587.15 1926.15C2586.73 1926.91 2586.41 1927.78 2586.21 1928.75C2586.02 1929.72 2585.93 1930.7 2585.93 1931.7C2585.93 1932.77 2586.01 1933.8 2586.16 1934.82C2586.33 1935.84 2586.62 1936.74 2587.03 1937.54C2587.44 1938.32 2587.98 1938.95 2588.65 1939.44C2589.32 1939.91 2590.16 1940.14 2591.18 1940.14C2591.69 1940.14 2592.19 1940.07 2592.66 1939.93C2593.14 1939.79 2593.63 1939.55 2594.13 1939.23C2594.63 1938.9 2595.16 1938.48 2595.7 1937.96C2596.25 1937.43 2596.83 1936.78 2597.44 1936.02V1927.58ZM2639.19 1942.41C2639.19 1942.54 2639.16 1942.65 2639.09 1942.74C2639.03 1942.82 2638.93 1942.89 2638.79 1942.95C2638.65 1943.02 2638.45 1943.06 2638.2 1943.09C2637.95 1943.12 2637.64 1943.14 2637.27 1943.14C2636.88 1943.14 2636.56 1943.12 2636.31 1943.09C2636.06 1943.06 2635.85 1943.02 2635.7 1942.95C2635.56 1942.89 2635.45 1942.82 2635.39 1942.74C2635.33 1942.65 2635.3 1942.54 2635.3 1942.41V1929.59C2635.3 1928.7 2635.22 1927.89 2635.06 1927.16C2634.91 1926.42 2634.66 1925.79 2634.31 1925.26C2633.97 1924.73 2633.53 1924.32 2633 1924.04C2632.47 1923.76 2631.84 1923.62 2631.13 1923.62C2630.24 1923.62 2629.34 1923.96 2628.43 1924.65C2627.54 1925.34 2626.56 1926.34 2625.48 1927.67V1942.41C2625.48 1942.54 2625.45 1942.65 2625.38 1942.74C2625.32 1942.82 2625.21 1942.89 2625.06 1942.95C2624.92 1943.02 2624.72 1943.06 2624.47 1943.09C2624.22 1943.12 2623.91 1943.14 2623.53 1943.14C2623.17 1943.14 2622.86 1943.12 2622.59 1943.09C2622.34 1943.06 2622.14 1943.02 2621.99 1942.95C2621.84 1942.89 2621.74 1942.82 2621.68 1942.74C2621.63 1942.65 2621.61 1942.54 2621.61 1942.41V1929.59C2621.61 1928.7 2621.52 1927.89 2621.35 1927.16C2621.18 1926.42 2620.92 1925.79 2620.58 1925.26C2620.24 1924.73 2619.8 1924.32 2619.27 1924.04C2618.75 1923.76 2618.13 1923.62 2617.42 1923.62C2616.52 1923.62 2615.63 1923.96 2614.72 1924.65C2613.81 1925.34 2612.83 1926.34 2611.77 1927.67V1942.41C2611.77 1942.54 2611.74 1942.65 2611.67 1942.74C2611.61 1942.82 2611.51 1942.89 2611.37 1942.95C2611.23 1943.02 2611.03 1943.06 2610.78 1943.09C2610.53 1943.12 2610.21 1943.14 2609.82 1943.14C2609.45 1943.14 2609.13 1943.12 2608.88 1943.09C2608.63 1943.06 2608.43 1943.02 2608.27 1942.95C2608.13 1942.89 2608.03 1942.82 2607.97 1942.74C2607.92 1942.65 2607.9 1942.54 2607.9 1942.41V1921.32C2607.9 1921.2 2607.92 1921.09 2607.97 1921.02C2608.02 1920.92 2608.11 1920.84 2608.25 1920.78C2608.39 1920.7 2608.57 1920.66 2608.79 1920.64C2609.01 1920.61 2609.3 1920.59 2609.66 1920.59C2610 1920.59 2610.28 1920.61 2610.5 1920.64C2610.74 1920.66 2610.92 1920.7 2611.04 1920.78C2611.17 1920.84 2611.25 1920.92 2611.3 1921.02C2611.36 1921.09 2611.39 1921.2 2611.39 1921.32V1924.11C2612.58 1922.78 2613.73 1921.81 2614.84 1921.2C2615.96 1920.58 2617.09 1920.27 2618.24 1920.27C2619.11 1920.27 2619.89 1920.37 2620.58 1920.57C2621.28 1920.77 2621.9 1921.06 2622.43 1921.44C2622.96 1921.8 2623.42 1922.23 2623.79 1922.75C2624.17 1923.25 2624.48 1923.81 2624.73 1924.44C2625.43 1923.67 2626.09 1923.02 2626.72 1922.49C2627.36 1921.96 2627.97 1921.53 2628.55 1921.2C2629.14 1920.88 2629.71 1920.64 2630.26 1920.5C2630.82 1920.34 2631.38 1920.27 2631.95 1920.27C2633.31 1920.27 2634.45 1920.51 2635.37 1920.99C2636.29 1921.46 2637.03 1922.09 2637.59 1922.89C2638.17 1923.69 2638.58 1924.62 2638.81 1925.7C2639.06 1926.77 2639.19 1927.89 2639.19 1929.08V1942.41ZM2649.53 1942.41C2649.53 1942.54 2649.5 1942.65 2649.44 1942.74C2649.38 1942.82 2649.28 1942.89 2649.14 1942.95C2649 1943.02 2648.8 1943.06 2648.55 1943.09C2648.3 1943.12 2647.98 1943.14 2647.59 1943.14C2647.21 1943.14 2646.9 1943.12 2646.65 1943.09C2646.4 1943.06 2646.2 1943.02 2646.04 1942.95C2645.9 1942.89 2645.8 1942.82 2645.74 1942.74C2645.69 1942.65 2645.67 1942.54 2645.67 1942.41V1921.32C2645.67 1921.21 2645.69 1921.11 2645.74 1921.02C2645.8 1920.92 2645.9 1920.84 2646.04 1920.78C2646.2 1920.72 2646.4 1920.67 2646.65 1920.64C2646.9 1920.61 2647.21 1920.59 2647.59 1920.59C2647.98 1920.59 2648.3 1920.61 2648.55 1920.64C2648.8 1920.67 2649 1920.72 2649.14 1920.78C2649.28 1920.84 2649.38 1920.92 2649.44 1921.02C2649.5 1921.11 2649.53 1921.21 2649.53 1921.32V1942.41ZM2649.98 1914.2C2649.98 1915.1 2649.81 1915.72 2649.46 1916.05C2649.12 1916.38 2648.49 1916.54 2647.57 1916.54C2646.66 1916.54 2646.03 1916.38 2645.69 1916.07C2645.36 1915.74 2645.2 1915.13 2645.2 1914.24C2645.2 1913.34 2645.37 1912.72 2645.71 1912.39C2646.06 1912.06 2646.69 1911.9 2647.61 1911.9C2648.52 1911.9 2649.14 1912.06 2649.46 1912.39C2649.81 1912.7 2649.98 1913.3 2649.98 1914.2ZM2674.27 1942.41C2674.27 1942.54 2674.24 1942.65 2674.18 1942.74C2674.11 1942.82 2674.01 1942.89 2673.87 1942.95C2673.73 1943.02 2673.54 1943.06 2673.29 1943.09C2673.04 1943.12 2672.72 1943.14 2672.35 1943.14C2671.96 1943.14 2671.64 1943.12 2671.39 1943.09C2671.14 1943.06 2670.94 1943.02 2670.8 1942.95C2670.66 1942.89 2670.56 1942.82 2670.5 1942.74C2670.43 1942.65 2670.4 1942.54 2670.4 1942.41V1930.06C2670.4 1928.86 2670.31 1927.89 2670.12 1927.16C2669.93 1926.42 2669.66 1925.79 2669.3 1925.26C2668.94 1924.73 2668.47 1924.32 2667.9 1924.04C2667.33 1923.76 2666.68 1923.62 2665.93 1923.62C2664.96 1923.62 2663.99 1923.96 2663.02 1924.65C2662.05 1925.34 2661.04 1926.34 2659.97 1927.67V1942.41C2659.97 1942.54 2659.94 1942.65 2659.88 1942.74C2659.82 1942.82 2659.72 1942.89 2659.58 1942.95C2659.43 1943.02 2659.24 1943.06 2658.99 1943.09C2658.74 1943.12 2658.42 1943.14 2658.03 1943.14C2657.65 1943.14 2657.34 1943.12 2657.09 1943.09C2656.84 1943.06 2656.64 1943.02 2656.48 1942.95C2656.34 1942.89 2656.24 1942.82 2656.18 1942.74C2656.13 1942.65 2656.11 1942.54 2656.11 1942.41V1921.32C2656.11 1921.2 2656.13 1921.09 2656.18 1921.02C2656.22 1920.92 2656.32 1920.84 2656.46 1920.78C2656.6 1920.7 2656.78 1920.66 2657 1920.64C2657.22 1920.61 2657.51 1920.59 2657.86 1920.59C2658.21 1920.59 2658.49 1920.61 2658.71 1920.64C2658.94 1920.66 2659.12 1920.7 2659.25 1920.78C2659.37 1920.84 2659.46 1920.92 2659.51 1921.02C2659.57 1921.09 2659.6 1921.2 2659.6 1921.32V1924.11C2660.79 1922.78 2661.97 1921.81 2663.14 1921.2C2664.33 1920.58 2665.52 1920.27 2666.72 1920.27C2668.13 1920.27 2669.31 1920.51 2670.26 1920.99C2671.23 1921.46 2672.01 1922.09 2672.61 1922.89C2673.2 1923.69 2673.62 1924.62 2673.87 1925.7C2674.14 1926.77 2674.27 1928.05 2674.27 1929.55V1942.41ZM2684.62 1942.41C2684.62 1942.54 2684.59 1942.65 2684.52 1942.74C2684.46 1942.82 2684.36 1942.89 2684.22 1942.95C2684.08 1943.02 2683.88 1943.06 2683.63 1943.09C2683.38 1943.12 2683.06 1943.14 2682.67 1943.14C2682.3 1943.14 2681.98 1943.12 2681.73 1943.09C2681.48 1943.06 2681.28 1943.02 2681.12 1942.95C2680.98 1942.89 2680.88 1942.82 2680.82 1942.74C2680.77 1942.65 2680.75 1942.54 2680.75 1942.41V1921.32C2680.75 1921.21 2680.77 1921.11 2680.82 1921.02C2680.88 1920.92 2680.98 1920.84 2681.12 1920.78C2681.28 1920.72 2681.48 1920.67 2681.73 1920.64C2681.98 1920.61 2682.3 1920.59 2682.67 1920.59C2683.06 1920.59 2683.38 1920.61 2683.63 1920.64C2683.88 1920.67 2684.08 1920.72 2684.22 1920.78C2684.36 1920.84 2684.46 1920.92 2684.52 1921.02C2684.59 1921.11 2684.62 1921.21 2684.62 1921.32V1942.41ZM2685.06 1914.2C2685.06 1915.1 2684.89 1915.72 2684.55 1916.05C2684.2 1916.38 2683.57 1916.54 2682.65 1916.54C2681.74 1916.54 2681.12 1916.38 2680.77 1916.07C2680.44 1915.74 2680.28 1915.13 2680.28 1914.24C2680.28 1913.34 2680.45 1912.72 2680.8 1912.39C2681.14 1912.06 2681.77 1911.9 2682.69 1911.9C2683.6 1911.9 2684.22 1912.06 2684.55 1912.39C2684.89 1912.7 2685.06 1913.3 2685.06 1914.2ZM2704.43 1936.67C2704.43 1937.75 2704.23 1938.71 2703.82 1939.55C2703.43 1940.4 2702.87 1941.11 2702.13 1941.69C2701.4 1942.27 2700.53 1942.7 2699.51 1943C2698.49 1943.3 2697.38 1943.45 2696.16 1943.45C2695.41 1943.45 2694.69 1943.38 2694 1943.26C2693.33 1943.15 2692.72 1943.01 2692.17 1942.84C2691.64 1942.65 2691.19 1942.46 2690.81 1942.27C2690.44 1942.07 2690.17 1941.89 2689.99 1941.73C2689.82 1941.58 2689.7 1941.36 2689.62 1941.08C2689.54 1940.8 2689.5 1940.41 2689.5 1939.93C2689.5 1939.63 2689.52 1939.38 2689.55 1939.18C2689.58 1938.98 2689.62 1938.81 2689.67 1938.69C2689.71 1938.56 2689.78 1938.48 2689.85 1938.43C2689.95 1938.37 2690.05 1938.34 2690.16 1938.34C2690.33 1938.34 2690.58 1938.45 2690.91 1938.66C2691.25 1938.87 2691.67 1939.09 2692.15 1939.34C2692.65 1939.59 2693.24 1939.83 2693.91 1940.05C2694.58 1940.25 2695.35 1940.35 2696.23 1940.35C2696.88 1940.35 2697.48 1940.28 2698.01 1940.14C2698.54 1940 2699 1939.8 2699.39 1939.53C2699.78 1939.25 2700.08 1938.9 2700.28 1938.48C2700.5 1938.05 2700.61 1937.55 2700.61 1936.98C2700.61 1936.38 2700.45 1935.88 2700.14 1935.48C2699.85 1935.07 2699.45 1934.71 2698.95 1934.4C2698.45 1934.09 2697.88 1933.81 2697.26 1933.58C2696.63 1933.33 2695.99 1933.07 2695.31 1932.8C2694.66 1932.54 2694.01 1932.24 2693.37 1931.91C2692.74 1931.57 2692.18 1931.16 2691.68 1930.67C2691.18 1930.19 2690.78 1929.61 2690.46 1928.94C2690.17 1928.27 2690.02 1927.46 2690.02 1926.52C2690.02 1925.7 2690.17 1924.91 2690.49 1924.16C2690.81 1923.39 2691.3 1922.73 2691.94 1922.16C2692.58 1921.59 2693.38 1921.12 2694.33 1920.78C2695.3 1920.44 2696.42 1920.27 2697.7 1920.27C2698.27 1920.27 2698.83 1920.31 2699.39 1920.41C2699.95 1920.5 2700.46 1920.62 2700.92 1920.76C2701.37 1920.9 2701.75 1921.05 2702.06 1921.23C2702.39 1921.38 2702.63 1921.52 2702.79 1921.65C2702.96 1921.77 2703.07 1921.88 2703.12 1921.98C2703.18 1922.07 2703.22 1922.18 2703.24 1922.3C2703.27 1922.41 2703.29 1922.55 2703.31 1922.73C2703.34 1922.9 2703.35 1923.11 2703.35 1923.36C2703.35 1923.62 2703.34 1923.86 2703.31 1924.06C2703.29 1924.25 2703.25 1924.41 2703.19 1924.53C2703.14 1924.66 2703.08 1924.75 2703 1924.81C2702.92 1924.86 2702.84 1924.88 2702.74 1924.88C2702.6 1924.88 2702.4 1924.8 2702.13 1924.62C2701.87 1924.45 2701.53 1924.27 2701.1 1924.09C2700.68 1923.88 2700.18 1923.7 2699.6 1923.52C2699.04 1923.35 2698.39 1923.27 2697.66 1923.27C2697 1923.27 2696.42 1923.34 2695.92 1923.5C2695.42 1923.64 2695.01 1923.85 2694.68 1924.13C2694.37 1924.4 2694.13 1924.72 2693.95 1925.09C2693.8 1925.47 2693.72 1925.88 2693.72 1926.31C2693.72 1926.92 2693.88 1927.44 2694.19 1927.86C2694.5 1928.27 2694.91 1928.62 2695.41 1928.94C2695.91 1929.25 2696.48 1929.53 2697.12 1929.78C2697.76 1930.03 2698.41 1930.29 2699.06 1930.55C2699.74 1930.82 2700.39 1931.12 2701.03 1931.45C2701.69 1931.77 2702.27 1932.17 2702.77 1932.64C2703.27 1933.11 2703.67 1933.67 2703.96 1934.33C2704.28 1934.98 2704.43 1935.77 2704.43 1936.67ZM2719.86 1940.87C2719.86 1941.32 2719.83 1941.68 2719.77 1941.95C2719.71 1942.21 2719.61 1942.41 2719.49 1942.53C2719.36 1942.66 2719.18 1942.77 2718.93 1942.88C2718.68 1942.99 2718.39 1943.08 2718.06 1943.14C2717.75 1943.22 2717.41 1943.28 2717.05 1943.33C2716.69 1943.38 2716.33 1943.4 2715.97 1943.4C2714.88 1943.4 2713.94 1943.26 2713.16 1942.98C2712.38 1942.68 2711.74 1942.24 2711.24 1941.66C2710.74 1941.07 2710.37 1940.33 2710.14 1939.44C2709.92 1938.53 2709.81 1937.47 2709.81 1936.25V1923.92H2706.86C2706.62 1923.92 2706.43 1923.8 2706.29 1923.55C2706.15 1923.3 2706.08 1922.89 2706.08 1922.33C2706.08 1922.03 2706.1 1921.78 2706.13 1921.58C2706.18 1921.38 2706.23 1921.21 2706.29 1921.09C2706.36 1920.95 2706.43 1920.85 2706.53 1920.8C2706.64 1920.74 2706.75 1920.71 2706.88 1920.71H2709.81V1915.7C2709.81 1915.59 2709.83 1915.48 2709.88 1915.39C2709.94 1915.3 2710.04 1915.22 2710.18 1915.16C2710.34 1915.08 2710.54 1915.02 2710.79 1914.99C2711.04 1914.96 2711.36 1914.95 2711.73 1914.95C2712.12 1914.95 2712.44 1914.96 2712.69 1914.99C2712.94 1915.02 2713.14 1915.08 2713.28 1915.16C2713.42 1915.22 2713.52 1915.3 2713.58 1915.39C2713.64 1915.48 2713.68 1915.59 2713.68 1915.7V1920.71H2719.09C2719.21 1920.71 2719.32 1920.74 2719.42 1920.8C2719.51 1920.85 2719.59 1920.95 2719.65 1921.09C2719.73 1921.21 2719.79 1921.38 2719.82 1921.58C2719.85 1921.78 2719.86 1922.03 2719.86 1922.33C2719.86 1922.89 2719.79 1923.3 2719.65 1923.55C2719.51 1923.8 2719.32 1923.92 2719.09 1923.92H2713.68V1935.69C2713.68 1937.14 2713.89 1938.24 2714.31 1938.99C2714.75 1939.73 2715.52 1940.09 2716.63 1940.09C2716.99 1940.09 2717.31 1940.06 2717.59 1940C2717.87 1939.92 2718.12 1939.84 2718.34 1939.77C2718.56 1939.69 2718.75 1939.62 2718.9 1939.55C2719.06 1939.48 2719.2 1939.44 2719.32 1939.44C2719.4 1939.44 2719.47 1939.46 2719.54 1939.51C2719.61 1939.54 2719.67 1939.61 2719.7 1939.72C2719.75 1939.83 2719.79 1939.98 2719.82 1940.16C2719.85 1940.35 2719.86 1940.59 2719.86 1940.87ZM2736.72 1922.7C2736.72 1923.05 2736.72 1923.34 2736.7 1923.57C2736.69 1923.8 2736.65 1923.99 2736.61 1924.13C2736.56 1924.26 2736.5 1924.36 2736.42 1924.44C2736.36 1924.5 2736.26 1924.53 2736.14 1924.53C2736.01 1924.53 2735.86 1924.5 2735.67 1924.44C2735.5 1924.36 2735.3 1924.29 2735.06 1924.23C2734.84 1924.15 2734.59 1924.08 2734.31 1924.02C2734.03 1923.95 2733.72 1923.92 2733.4 1923.92C2733.01 1923.92 2732.62 1924 2732.25 1924.16C2731.87 1924.31 2731.47 1924.57 2731.05 1924.93C2730.65 1925.29 2730.22 1925.77 2729.76 1926.36C2729.31 1926.95 2728.81 1927.68 2728.26 1928.54V1942.41C2728.26 1942.54 2728.23 1942.65 2728.17 1942.74C2728.11 1942.82 2728.01 1942.89 2727.87 1942.95C2727.72 1943.02 2727.53 1943.06 2727.28 1943.09C2727.03 1943.12 2726.71 1943.14 2726.32 1943.14C2725.94 1943.14 2725.63 1943.12 2725.38 1943.09C2725.13 1943.06 2724.93 1943.02 2724.77 1942.95C2724.63 1942.89 2724.53 1942.82 2724.47 1942.74C2724.42 1942.65 2724.4 1942.54 2724.4 1942.41V1921.32C2724.4 1921.2 2724.42 1921.09 2724.47 1921.02C2724.51 1920.92 2724.61 1920.84 2724.75 1920.78C2724.89 1920.7 2725.07 1920.66 2725.29 1920.64C2725.51 1920.61 2725.8 1920.59 2726.15 1920.59C2726.5 1920.59 2726.78 1920.61 2727 1920.64C2727.23 1920.66 2727.41 1920.7 2727.54 1920.78C2727.66 1920.84 2727.75 1920.92 2727.8 1921.02C2727.86 1921.09 2727.89 1921.2 2727.89 1921.32V1924.39C2728.47 1923.55 2729.01 1922.86 2729.51 1922.33C2730.02 1921.8 2730.51 1921.38 2730.96 1921.09C2731.41 1920.77 2731.86 1920.56 2732.3 1920.45C2732.75 1920.33 2733.2 1920.27 2733.65 1920.27C2733.86 1920.27 2734.08 1920.28 2734.33 1920.31C2734.6 1920.33 2734.87 1920.37 2735.15 1920.43C2735.44 1920.49 2735.69 1920.56 2735.9 1920.64C2736.14 1920.72 2736.3 1920.8 2736.4 1920.88C2736.49 1920.95 2736.55 1921.03 2736.58 1921.11C2736.62 1921.17 2736.64 1921.26 2736.65 1921.37C2736.69 1921.48 2736.7 1921.64 2736.7 1921.86C2736.72 1922.06 2736.72 1922.34 2736.72 1922.7ZM2755.46 1942.44C2755.46 1942.62 2755.4 1942.77 2755.27 1942.86C2755.15 1942.95 2754.98 1943.02 2754.76 1943.07C2754.54 1943.12 2754.22 1943.14 2753.8 1943.14C2753.39 1943.14 2753.06 1943.12 2752.81 1943.07C2752.58 1943.02 2752.41 1942.95 2752.3 1942.86C2752.19 1942.77 2752.13 1942.62 2752.13 1942.44V1940.33C2751.21 1941.31 2750.18 1942.08 2749.04 1942.62C2747.91 1943.17 2746.72 1943.45 2745.45 1943.45C2744.34 1943.45 2743.34 1943.3 2742.43 1943C2741.54 1942.72 2740.77 1942.3 2740.13 1941.76C2739.51 1941.21 2739.02 1940.54 2738.66 1939.74C2738.31 1938.95 2738.14 1938.04 2738.14 1937.02C2738.14 1935.84 2738.38 1934.8 2738.87 1933.93C2739.35 1933.05 2740.05 1932.33 2740.95 1931.75C2741.86 1931.17 2742.97 1930.74 2744.28 1930.46C2745.59 1930.16 2747.07 1930.02 2748.71 1930.02H2751.62V1928.38C2751.62 1927.56 2751.53 1926.84 2751.36 1926.22C2751.19 1925.59 2750.91 1925.08 2750.52 1924.67C2750.14 1924.25 2749.65 1923.94 2749.04 1923.73C2748.43 1923.52 2747.68 1923.41 2746.79 1923.41C2745.84 1923.41 2744.98 1923.52 2744.21 1923.76C2743.46 1923.98 2742.8 1924.23 2742.22 1924.51C2741.66 1924.77 2741.18 1925.02 2740.79 1925.26C2740.41 1925.48 2740.13 1925.59 2739.95 1925.59C2739.82 1925.59 2739.71 1925.55 2739.62 1925.49C2739.52 1925.43 2739.44 1925.34 2739.36 1925.21C2739.3 1925.09 2739.25 1924.93 2739.22 1924.74C2739.19 1924.54 2739.17 1924.32 2739.17 1924.09C2739.17 1923.7 2739.2 1923.39 2739.24 1923.17C2739.3 1922.94 2739.44 1922.72 2739.64 1922.52C2739.86 1922.31 2740.23 1922.08 2740.74 1921.81C2741.26 1921.53 2741.85 1921.28 2742.52 1921.06C2743.2 1920.83 2743.93 1920.64 2744.73 1920.5C2745.52 1920.34 2746.33 1920.27 2747.14 1920.27C2748.66 1920.27 2749.95 1920.44 2751.01 1920.78C2752.07 1921.12 2752.93 1921.63 2753.59 1922.3C2754.24 1922.96 2754.72 1923.78 2755.02 1924.77C2755.31 1925.75 2755.46 1926.9 2755.46 1928.21V1942.44ZM2751.62 1932.8H2748.31C2747.25 1932.8 2746.33 1932.9 2745.55 1933.09C2744.77 1933.26 2744.12 1933.52 2743.6 1933.88C2743.09 1934.23 2742.7 1934.65 2742.45 1935.15C2742.22 1935.63 2742.1 1936.2 2742.1 1936.84C2742.1 1937.93 2742.45 1938.8 2743.13 1939.46C2743.84 1940.1 2744.81 1940.42 2746.06 1940.42C2747.08 1940.42 2748.02 1940.16 2748.88 1939.65C2749.75 1939.13 2750.66 1938.34 2751.62 1937.28V1932.8ZM2772.56 1940.87C2772.56 1941.32 2772.53 1941.68 2772.46 1941.95C2772.4 1942.21 2772.31 1942.41 2772.18 1942.53C2772.06 1942.66 2771.87 1942.77 2771.62 1942.88C2771.37 1942.99 2771.08 1943.08 2770.75 1943.14C2770.44 1943.22 2770.1 1943.28 2769.74 1943.33C2769.39 1943.38 2769.03 1943.4 2768.67 1943.4C2767.57 1943.4 2766.64 1943.26 2765.85 1942.98C2765.07 1942.68 2764.43 1942.24 2763.93 1941.66C2763.43 1941.07 2763.06 1940.33 2762.83 1939.44C2762.61 1938.53 2762.5 1937.47 2762.5 1936.25V1923.92H2759.55C2759.31 1923.92 2759.13 1923.8 2758.99 1923.55C2758.85 1923.3 2758.78 1922.89 2758.78 1922.33C2758.78 1922.03 2758.79 1921.78 2758.82 1921.58C2758.87 1921.38 2758.92 1921.21 2758.99 1921.09C2759.05 1920.95 2759.13 1920.85 2759.22 1920.8C2759.33 1920.74 2759.45 1920.71 2759.57 1920.71H2762.5V1915.7C2762.5 1915.59 2762.53 1915.48 2762.57 1915.39C2762.64 1915.3 2762.74 1915.22 2762.88 1915.16C2763.03 1915.08 2763.24 1915.02 2763.49 1914.99C2763.74 1914.96 2764.05 1914.95 2764.42 1914.95C2764.81 1914.95 2765.14 1914.96 2765.39 1914.99C2765.64 1915.02 2765.83 1915.08 2765.97 1915.16C2766.11 1915.22 2766.21 1915.3 2766.28 1915.39C2766.34 1915.48 2766.37 1915.59 2766.37 1915.7V1920.71H2771.78C2771.91 1920.71 2772.02 1920.74 2772.11 1920.8C2772.21 1920.85 2772.28 1920.95 2772.35 1921.09C2772.42 1921.21 2772.48 1921.38 2772.51 1921.58C2772.54 1921.78 2772.56 1922.03 2772.56 1922.33C2772.56 1922.89 2772.49 1923.3 2772.35 1923.55C2772.21 1923.8 2772.02 1923.92 2771.78 1923.92H2766.37V1935.69C2766.37 1937.14 2766.58 1938.24 2767 1938.99C2767.44 1939.73 2768.21 1940.09 2769.32 1940.09C2769.68 1940.09 2770 1940.06 2770.28 1940C2770.56 1939.92 2770.81 1939.84 2771.03 1939.77C2771.25 1939.69 2771.44 1939.62 2771.6 1939.55C2771.75 1939.48 2771.89 1939.44 2772.02 1939.44C2772.1 1939.44 2772.17 1939.46 2772.23 1939.51C2772.31 1939.54 2772.36 1939.61 2772.39 1939.72C2772.44 1939.83 2772.48 1939.98 2772.51 1940.16C2772.54 1940.35 2772.56 1940.59 2772.56 1940.87ZM2796.24 1931.63C2796.24 1933.35 2796.01 1934.94 2795.56 1936.39C2795.11 1937.83 2794.43 1939.07 2793.52 1940.12C2792.63 1941.16 2791.5 1941.98 2790.15 1942.58C2788.8 1943.16 2787.24 1943.45 2785.46 1943.45C2783.72 1943.45 2782.21 1943.19 2780.91 1942.67C2779.63 1942.16 2778.56 1941.41 2777.7 1940.42C2776.84 1939.44 2776.2 1938.24 2775.78 1936.84C2775.36 1935.43 2775.15 1933.84 2775.15 1932.05C2775.15 1930.34 2775.36 1928.76 2775.8 1927.32C2776.25 1925.87 2776.93 1924.62 2777.82 1923.57C2778.72 1922.52 2779.85 1921.71 2781.19 1921.13C2782.54 1920.55 2784.11 1920.27 2785.9 1920.27C2787.64 1920.27 2789.15 1920.52 2790.43 1921.04C2791.72 1921.55 2792.8 1922.3 2793.66 1923.29C2794.52 1924.27 2795.16 1925.47 2795.58 1926.88C2796.02 1928.28 2796.24 1929.87 2796.24 1931.63ZM2792.16 1931.89C2792.16 1930.75 2792.05 1929.67 2791.83 1928.66C2791.63 1927.64 2791.29 1926.75 2790.8 1925.98C2790.32 1925.22 2789.66 1924.62 2788.83 1924.18C2788 1923.73 2786.97 1923.5 2785.74 1923.5C2784.6 1923.5 2783.61 1923.7 2782.79 1924.11C2781.97 1924.52 2781.3 1925.09 2780.77 1925.84C2780.24 1926.58 2779.84 1927.45 2779.57 1928.47C2779.32 1929.48 2779.2 1930.59 2779.2 1931.8C2779.2 1932.95 2779.3 1934.04 2779.5 1935.05C2779.72 1936.07 2780.07 1936.96 2780.56 1937.73C2781.06 1938.48 2781.72 1939.08 2782.55 1939.53C2783.38 1939.97 2784.41 1940.19 2785.65 1940.19C2786.77 1940.19 2787.75 1939.98 2788.57 1939.58C2789.4 1939.17 2790.08 1938.6 2790.61 1937.87C2791.15 1937.13 2791.54 1936.26 2791.79 1935.24C2792.04 1934.23 2792.16 1933.11 2792.16 1931.89ZM2813.69 1922.7C2813.69 1923.05 2813.68 1923.34 2813.66 1923.57C2813.65 1923.8 2813.62 1923.99 2813.57 1924.13C2813.52 1924.26 2813.46 1924.36 2813.38 1924.44C2813.32 1924.5 2813.23 1924.53 2813.1 1924.53C2812.98 1924.53 2812.82 1924.5 2812.63 1924.44C2812.46 1924.36 2812.26 1924.29 2812.02 1924.23C2811.8 1924.15 2811.55 1924.08 2811.27 1924.02C2810.99 1923.95 2810.69 1923.92 2810.36 1923.92C2809.97 1923.92 2809.58 1924 2809.21 1924.16C2808.83 1924.31 2808.44 1924.57 2808.01 1924.93C2807.61 1925.29 2807.18 1925.77 2806.73 1926.36C2806.27 1926.95 2805.77 1927.68 2805.23 1928.54V1942.41C2805.23 1942.54 2805.19 1942.65 2805.13 1942.74C2805.07 1942.82 2804.97 1942.89 2804.83 1942.95C2804.69 1943.02 2804.49 1943.06 2804.24 1943.09C2803.99 1943.12 2803.67 1943.14 2803.28 1943.14C2802.91 1943.14 2802.59 1943.12 2802.34 1943.09C2802.09 1943.06 2801.89 1943.02 2801.73 1942.95C2801.59 1942.89 2801.49 1942.82 2801.43 1942.74C2801.38 1942.65 2801.36 1942.54 2801.36 1942.41V1921.32C2801.36 1921.2 2801.38 1921.09 2801.43 1921.02C2801.48 1920.92 2801.57 1920.84 2801.71 1920.78C2801.85 1920.7 2802.03 1920.66 2802.25 1920.64C2802.47 1920.61 2802.76 1920.59 2803.12 1920.59C2803.46 1920.59 2803.74 1920.61 2803.96 1920.64C2804.19 1920.66 2804.37 1920.7 2804.5 1920.78C2804.62 1920.84 2804.71 1920.92 2804.76 1921.02C2804.82 1921.09 2804.85 1921.2 2804.85 1921.32V1924.39C2805.43 1923.55 2805.97 1922.86 2806.47 1922.33C2806.98 1921.8 2807.47 1921.38 2807.92 1921.09C2808.37 1920.77 2808.82 1920.56 2809.26 1920.45C2809.71 1920.33 2810.16 1920.27 2810.62 1920.27C2810.82 1920.27 2811.05 1920.28 2811.3 1920.31C2811.56 1920.33 2811.83 1920.37 2812.12 1920.43C2812.4 1920.49 2812.65 1920.56 2812.87 1920.64C2813.1 1920.72 2813.26 1920.8 2813.36 1920.88C2813.45 1920.95 2813.51 1921.03 2813.55 1921.11C2813.58 1921.17 2813.6 1921.26 2813.62 1921.37C2813.65 1921.48 2813.66 1921.64 2813.66 1921.86C2813.68 1922.06 2813.69 1922.34 2813.69 1922.7Z" fill="black"/>
</svg>
