<svg width="3450" height="2210" viewBox="0 0 3450 2210" fill="none" xmlns="http://www.w3.org/2000/svg">
<path d="M2269.88 1860.88C2269.88 1861.08 2269.81 1861.27 2269.69 1861.44C2269.58 1861.6 2269.38 1861.74 2269.06 1861.84C2268.77 1861.95 2268.38 1862.03 2267.88 1862.09C2267.38 1862.16 2266.74 1862.19 2265.97 1862.19C2265.22 1862.19 2264.59 1862.16 2264.09 1862.09C2263.59 1862.03 2263.2 1861.95 2262.91 1861.84C2262.61 1861.74 2262.41 1861.6 2262.28 1861.44C2262.16 1861.27 2262.09 1861.08 2262.09 1860.88V1827.97H2262.03L2250.31 1860.84C2250.23 1861.11 2250.09 1861.34 2249.91 1861.53C2249.72 1861.7 2249.46 1861.83 2249.12 1861.94C2248.81 1862.04 2248.41 1862.1 2247.91 1862.12C2247.41 1862.17 2246.8 1862.19 2246.09 1862.19C2245.39 1862.19 2244.78 1862.16 2244.28 1862.09C2243.78 1862.05 2243.36 1861.98 2243.03 1861.88C2242.72 1861.75 2242.47 1861.6 2242.28 1861.44C2242.09 1861.27 2241.97 1861.07 2241.91 1860.84L2230.59 1827.97H2230.53V1860.88C2230.53 1861.08 2230.47 1861.27 2230.34 1861.44C2230.24 1861.6 2230.03 1861.74 2229.72 1861.84C2229.41 1861.95 2229 1862.03 2228.5 1862.09C2228.02 1862.16 2227.4 1862.19 2226.62 1862.19C2225.88 1862.19 2225.25 1862.16 2224.75 1862.09C2224.25 1862.03 2223.84 1861.95 2223.53 1861.84C2223.24 1861.74 2223.03 1861.6 2222.91 1861.44C2222.8 1861.27 2222.75 1861.08 2222.75 1860.88V1824.84C2222.75 1823.78 2223.03 1822.97 2223.59 1822.41C2224.16 1821.84 2224.91 1821.56 2225.84 1821.56H2231.22C2232.18 1821.56 2233 1821.65 2233.69 1821.81C2234.38 1821.96 2234.97 1822.22 2235.47 1822.59C2235.97 1822.95 2236.39 1823.43 2236.72 1824.03C2237.05 1824.61 2237.34 1825.34 2237.59 1826.22L2246.34 1850.31H2246.47L2255.53 1826.28C2255.8 1825.41 2256.09 1824.67 2256.41 1824.06C2256.74 1823.46 2257.11 1822.97 2257.53 1822.59C2257.97 1822.22 2258.48 1821.96 2259.06 1821.81C2259.65 1821.65 2260.32 1821.56 2261.09 1821.56H2266.62C2267.19 1821.56 2267.67 1821.64 2268.06 1821.78C2268.48 1821.93 2268.81 1822.15 2269.06 1822.44C2269.33 1822.71 2269.53 1823.05 2269.66 1823.47C2269.8 1823.86 2269.88 1824.32 2269.88 1824.84V1860.88ZM2286.09 1860.94C2286.09 1861.15 2286.03 1861.33 2285.91 1861.5C2285.78 1861.65 2285.56 1861.77 2285.25 1861.88C2284.96 1861.98 2284.56 1862.05 2284.06 1862.09C2283.56 1862.16 2282.93 1862.19 2282.16 1862.19C2281.39 1862.19 2280.75 1862.16 2280.25 1862.09C2279.75 1862.05 2279.34 1861.98 2279.03 1861.88C2278.74 1861.77 2278.53 1861.65 2278.41 1861.5C2278.28 1861.33 2278.22 1861.15 2278.22 1860.94V1833.12C2278.22 1832.92 2278.28 1832.74 2278.41 1832.59C2278.53 1832.43 2278.74 1832.29 2279.03 1832.19C2279.34 1832.06 2279.75 1831.97 2280.25 1831.91C2280.75 1831.84 2281.39 1831.81 2282.16 1831.81C2282.93 1831.81 2283.56 1831.84 2284.06 1831.91C2284.56 1831.97 2284.96 1832.06 2285.25 1832.19C2285.56 1832.29 2285.78 1832.43 2285.91 1832.59C2286.03 1832.74 2286.09 1832.92 2286.09 1833.12V1860.94ZM2286.69 1823.62C2286.69 1825.21 2286.36 1826.3 2285.72 1826.91C2285.07 1827.51 2283.88 1827.81 2282.12 1827.81C2280.35 1827.81 2279.16 1827.52 2278.53 1826.94C2277.93 1826.35 2277.62 1825.3 2277.62 1823.78C2277.62 1822.2 2277.94 1821.1 2278.56 1820.5C2279.21 1819.88 2280.42 1819.56 2282.19 1819.56C2283.94 1819.56 2285.12 1819.86 2285.75 1820.47C2286.38 1821.05 2286.69 1822.1 2286.69 1823.62ZM2315.06 1856.5C2315.06 1857.04 2315.04 1857.5 2315 1857.88C2314.98 1858.23 2314.94 1858.53 2314.88 1858.78C2314.83 1859.03 2314.77 1859.24 2314.69 1859.41C2314.62 1859.55 2314.47 1859.75 2314.22 1860C2313.97 1860.23 2313.54 1860.52 2312.94 1860.88C2312.33 1861.21 2311.65 1861.51 2310.88 1861.78C2310.1 1862.05 2309.26 1862.27 2308.34 1862.44C2307.45 1862.6 2306.52 1862.69 2305.56 1862.69C2303.42 1862.69 2301.51 1862.35 2299.84 1861.69C2298.2 1861.02 2296.81 1860.04 2295.69 1858.75C2294.56 1857.44 2293.71 1855.84 2293.12 1853.97C2292.56 1852.09 2292.28 1849.95 2292.28 1847.53C2292.28 1844.74 2292.62 1842.33 2293.31 1840.31C2294.02 1838.27 2295 1836.58 2296.25 1835.25C2297.5 1833.92 2298.98 1832.93 2300.69 1832.28C2302.4 1831.64 2304.27 1831.31 2306.31 1831.31C2307.15 1831.31 2307.96 1831.39 2308.75 1831.53C2309.56 1831.68 2310.31 1831.88 2311 1832.12C2311.71 1832.38 2312.33 1832.66 2312.88 1832.97C2313.44 1833.28 2313.83 1833.55 2314.06 1833.78C2314.29 1834.01 2314.45 1834.21 2314.53 1834.38C2314.64 1834.52 2314.71 1834.72 2314.75 1834.97C2314.81 1835.22 2314.85 1835.53 2314.88 1835.91C2314.92 1836.26 2314.94 1836.7 2314.94 1837.22C2314.94 1838.43 2314.83 1839.28 2314.62 1839.78C2314.42 1840.26 2314.15 1840.5 2313.81 1840.5C2313.46 1840.5 2313.08 1840.35 2312.69 1840.06C2312.29 1839.77 2311.82 1839.45 2311.28 1839.09C2310.74 1838.74 2310.09 1838.42 2309.34 1838.12C2308.59 1837.83 2307.7 1837.69 2306.66 1837.69C2304.61 1837.69 2303.05 1838.48 2301.97 1840.06C2300.89 1841.62 2300.34 1843.93 2300.34 1846.97C2300.34 1848.47 2300.48 1849.79 2300.75 1850.94C2301.02 1852.08 2301.42 1853.04 2301.94 1853.81C2302.48 1854.58 2303.15 1855.17 2303.94 1855.56C2304.75 1855.94 2305.69 1856.12 2306.75 1856.12C2307.83 1856.12 2308.76 1855.97 2309.53 1855.66C2310.32 1855.32 2311.01 1854.96 2311.59 1854.56C2312.18 1854.17 2312.67 1853.81 2313.06 1853.5C2313.46 1853.17 2313.79 1853 2314.06 1853C2314.25 1853 2314.41 1853.05 2314.53 1853.16C2314.66 1853.26 2314.75 1853.46 2314.81 1853.75C2314.9 1854.02 2314.96 1854.38 2315 1854.81C2315.04 1855.25 2315.06 1855.81 2315.06 1856.5ZM2347.41 1860.94C2347.41 1861.15 2347.34 1861.33 2347.22 1861.5C2347.09 1861.65 2346.89 1861.77 2346.59 1861.88C2346.3 1861.98 2345.9 1862.05 2345.38 1862.09C2344.88 1862.16 2344.25 1862.19 2343.5 1862.19C2342.73 1862.19 2342.08 1862.16 2341.56 1862.09C2341.06 1862.05 2340.67 1861.98 2340.38 1861.88C2340.08 1861.77 2339.88 1861.65 2339.75 1861.5C2339.62 1861.33 2339.56 1861.15 2339.56 1860.94V1845.03C2339.56 1843.68 2339.46 1842.61 2339.25 1841.84C2339.06 1841.07 2338.78 1840.42 2338.41 1839.88C2338.03 1839.31 2337.54 1838.89 2336.94 1838.59C2336.35 1838.28 2335.67 1838.12 2334.88 1838.12C2333.88 1838.12 2332.86 1838.49 2331.84 1839.22C2330.82 1839.95 2329.76 1841.01 2328.66 1842.41V1860.94C2328.66 1861.15 2328.59 1861.33 2328.47 1861.5C2328.34 1861.65 2328.12 1861.77 2327.81 1861.88C2327.52 1861.98 2327.12 1862.05 2326.62 1862.09C2326.12 1862.16 2325.49 1862.19 2324.72 1862.19C2323.95 1862.19 2323.31 1862.16 2322.81 1862.09C2322.31 1862.05 2321.91 1861.98 2321.59 1861.88C2321.3 1861.77 2321.09 1861.65 2320.97 1861.5C2320.84 1861.33 2320.78 1861.15 2320.78 1860.94V1819.84C2320.78 1819.64 2320.84 1819.45 2320.97 1819.28C2321.09 1819.11 2321.3 1818.98 2321.59 1818.88C2321.91 1818.75 2322.31 1818.66 2322.81 1818.59C2323.31 1818.53 2323.95 1818.5 2324.72 1818.5C2325.49 1818.5 2326.12 1818.53 2326.62 1818.59C2327.12 1818.66 2327.52 1818.75 2327.81 1818.88C2328.12 1818.98 2328.34 1819.11 2328.47 1819.28C2328.59 1819.45 2328.66 1819.64 2328.66 1819.84V1835.25C2330.01 1833.92 2331.39 1832.93 2332.78 1832.28C2334.2 1831.61 2335.67 1831.28 2337.19 1831.28C2339.08 1831.28 2340.68 1831.59 2341.97 1832.22C2343.28 1832.84 2344.33 1833.7 2345.12 1834.78C2345.94 1835.86 2346.52 1837.14 2346.88 1838.59C2347.23 1840.03 2347.41 1841.78 2347.41 1843.84V1860.94ZM2380.91 1846.19C2380.91 1847.15 2380.69 1847.85 2380.25 1848.31C2379.83 1848.77 2379.25 1849 2378.5 1849H2361.53C2361.53 1850.19 2361.67 1851.27 2361.94 1852.25C2362.23 1853.21 2362.68 1854.03 2363.28 1854.72C2363.91 1855.39 2364.7 1855.9 2365.66 1856.25C2366.64 1856.6 2367.8 1856.78 2369.16 1856.78C2370.53 1856.78 2371.74 1856.69 2372.78 1856.5C2373.82 1856.29 2374.72 1856.07 2375.47 1855.84C2376.24 1855.59 2376.88 1855.38 2377.38 1855.19C2377.88 1854.98 2378.28 1854.88 2378.59 1854.88C2378.78 1854.88 2378.94 1854.92 2379.06 1855C2379.19 1855.06 2379.29 1855.19 2379.38 1855.38C2379.46 1855.56 2379.51 1855.83 2379.53 1856.19C2379.57 1856.52 2379.59 1856.95 2379.59 1857.47C2379.59 1857.93 2379.58 1858.32 2379.56 1858.66C2379.54 1858.97 2379.51 1859.24 2379.47 1859.47C2379.43 1859.7 2379.36 1859.9 2379.28 1860.06C2379.2 1860.21 2379.08 1860.35 2378.94 1860.5C2378.81 1860.65 2378.45 1860.84 2377.84 1861.09C2377.24 1861.34 2376.47 1861.59 2375.53 1861.84C2374.59 1862.07 2373.52 1862.27 2372.31 1862.44C2371.1 1862.62 2369.81 1862.72 2368.44 1862.72C2365.96 1862.72 2363.78 1862.41 2361.91 1861.78C2360.05 1861.16 2358.5 1860.21 2357.25 1858.94C2356 1857.67 2355.06 1856.06 2354.44 1854.12C2353.83 1852.19 2353.53 1849.92 2353.53 1847.31C2353.53 1844.83 2353.85 1842.6 2354.5 1840.62C2355.15 1838.62 2356.08 1836.94 2357.31 1835.56C2358.54 1834.17 2360.03 1833.1 2361.78 1832.38C2363.55 1831.65 2365.54 1831.28 2367.75 1831.28C2370.08 1831.28 2372.07 1831.62 2373.72 1832.31C2375.39 1833 2376.75 1833.96 2377.81 1835.19C2378.88 1836.4 2379.66 1837.83 2380.16 1839.5C2380.66 1841.17 2380.91 1842.98 2380.91 1844.94V1846.19ZM2373.28 1843.94C2373.34 1841.73 2372.9 1840 2371.94 1838.75C2371 1837.48 2369.54 1836.84 2367.56 1836.84C2366.56 1836.84 2365.69 1837.03 2364.94 1837.41C2364.21 1837.78 2363.59 1838.29 2363.09 1838.94C2362.61 1839.56 2362.24 1840.31 2361.97 1841.19C2361.72 1842.04 2361.57 1842.96 2361.53 1843.94H2373.28ZM2395.28 1860.94C2395.28 1861.15 2395.22 1861.33 2395.09 1861.5C2394.97 1861.65 2394.75 1861.77 2394.44 1861.88C2394.15 1861.98 2393.75 1862.05 2393.25 1862.09C2392.75 1862.16 2392.11 1862.19 2391.34 1862.19C2390.57 1862.19 2389.94 1862.16 2389.44 1862.09C2388.94 1862.05 2388.53 1861.98 2388.22 1861.88C2387.93 1861.77 2387.72 1861.65 2387.59 1861.5C2387.47 1861.33 2387.41 1861.15 2387.41 1860.94V1819.84C2387.41 1819.64 2387.47 1819.45 2387.59 1819.28C2387.72 1819.11 2387.93 1818.98 2388.22 1818.88C2388.53 1818.75 2388.94 1818.66 2389.44 1818.59C2389.94 1818.53 2390.57 1818.5 2391.34 1818.5C2392.11 1818.5 2392.75 1818.53 2393.25 1818.59C2393.75 1818.66 2394.15 1818.75 2394.44 1818.88C2394.75 1818.98 2394.97 1819.11 2395.09 1819.28C2395.22 1819.45 2395.28 1819.64 2395.28 1819.84V1860.94ZM2411.03 1860.94C2411.03 1861.15 2410.97 1861.33 2410.84 1861.5C2410.72 1861.65 2410.5 1861.77 2410.19 1861.88C2409.9 1861.98 2409.5 1862.05 2409 1862.09C2408.5 1862.16 2407.86 1862.19 2407.09 1862.19C2406.32 1862.19 2405.69 1862.16 2405.19 1862.09C2404.69 1862.05 2404.28 1861.98 2403.97 1861.88C2403.68 1861.77 2403.47 1861.65 2403.34 1861.5C2403.22 1861.33 2403.16 1861.15 2403.16 1860.94V1819.84C2403.16 1819.64 2403.22 1819.45 2403.34 1819.28C2403.47 1819.11 2403.68 1818.98 2403.97 1818.88C2404.28 1818.75 2404.69 1818.66 2405.19 1818.59C2405.69 1818.53 2406.32 1818.5 2407.09 1818.5C2407.86 1818.5 2408.5 1818.53 2409 1818.59C2409.5 1818.66 2409.9 1818.75 2410.19 1818.88C2410.5 1818.98 2410.72 1819.11 2410.84 1819.28C2410.97 1819.45 2411.03 1819.64 2411.03 1819.84V1860.94ZM2444.66 1846.19C2444.66 1847.15 2444.44 1847.85 2444 1848.31C2443.58 1848.77 2443 1849 2442.25 1849H2425.28C2425.28 1850.19 2425.42 1851.27 2425.69 1852.25C2425.98 1853.21 2426.43 1854.03 2427.03 1854.72C2427.66 1855.39 2428.45 1855.9 2429.41 1856.25C2430.39 1856.6 2431.55 1856.78 2432.91 1856.78C2434.28 1856.78 2435.49 1856.69 2436.53 1856.5C2437.57 1856.29 2438.47 1856.07 2439.22 1855.84C2439.99 1855.59 2440.62 1855.38 2441.12 1855.19C2441.62 1854.98 2442.03 1854.88 2442.34 1854.88C2442.53 1854.88 2442.69 1854.92 2442.81 1855C2442.94 1855.06 2443.04 1855.19 2443.12 1855.38C2443.21 1855.56 2443.26 1855.83 2443.28 1856.19C2443.32 1856.52 2443.34 1856.95 2443.34 1857.47C2443.34 1857.93 2443.33 1858.32 2443.31 1858.66C2443.29 1858.97 2443.26 1859.24 2443.22 1859.47C2443.18 1859.7 2443.11 1859.9 2443.03 1860.06C2442.95 1860.21 2442.83 1860.35 2442.69 1860.5C2442.56 1860.65 2442.2 1860.84 2441.59 1861.09C2440.99 1861.34 2440.22 1861.59 2439.28 1861.84C2438.34 1862.07 2437.27 1862.27 2436.06 1862.44C2434.85 1862.62 2433.56 1862.72 2432.19 1862.72C2429.71 1862.72 2427.53 1862.41 2425.66 1861.78C2423.8 1861.16 2422.25 1860.21 2421 1858.94C2419.75 1857.67 2418.81 1856.06 2418.19 1854.12C2417.58 1852.19 2417.28 1849.92 2417.28 1847.31C2417.28 1844.83 2417.6 1842.6 2418.25 1840.62C2418.9 1838.62 2419.83 1836.94 2421.06 1835.56C2422.29 1834.17 2423.78 1833.1 2425.53 1832.38C2427.3 1831.65 2429.29 1831.28 2431.5 1831.28C2433.83 1831.28 2435.82 1831.62 2437.47 1832.31C2439.14 1833 2440.5 1833.96 2441.56 1835.19C2442.62 1836.4 2443.41 1837.83 2443.91 1839.5C2444.41 1841.17 2444.66 1842.98 2444.66 1844.94V1846.19ZM2437.03 1843.94C2437.09 1841.73 2436.65 1840 2435.69 1838.75C2434.75 1837.48 2433.29 1836.84 2431.31 1836.84C2430.31 1836.84 2429.44 1837.03 2428.69 1837.41C2427.96 1837.78 2427.34 1838.29 2426.84 1838.94C2426.36 1839.56 2425.99 1840.31 2425.72 1841.19C2425.47 1842.04 2425.32 1842.96 2425.28 1843.94H2437.03ZM2499.25 1858.94C2499.5 1859.69 2499.66 1860.28 2499.72 1860.72C2499.78 1861.16 2499.7 1861.49 2499.47 1861.72C2499.24 1861.93 2498.83 1862.05 2498.25 1862.09C2497.67 1862.16 2496.86 1862.19 2495.84 1862.19C2494.78 1862.19 2493.95 1862.17 2493.34 1862.12C2492.76 1862.1 2492.31 1862.05 2492 1861.97C2491.69 1861.86 2491.47 1861.73 2491.34 1861.56C2491.22 1861.4 2491.11 1861.18 2491.03 1860.91L2488.31 1852.78H2473.12L2470.56 1860.69C2470.48 1860.98 2470.36 1861.23 2470.22 1861.44C2470.09 1861.62 2469.88 1861.78 2469.56 1861.91C2469.27 1862.01 2468.84 1862.08 2468.28 1862.12C2467.74 1862.17 2467.02 1862.19 2466.12 1862.19C2465.17 1862.19 2464.42 1862.16 2463.88 1862.09C2463.33 1862.03 2462.96 1861.89 2462.75 1861.66C2462.54 1861.41 2462.47 1861.06 2462.53 1860.62C2462.59 1860.19 2462.75 1859.6 2463 1858.88L2475.47 1823C2475.59 1822.65 2475.74 1822.36 2475.91 1822.16C2476.07 1821.93 2476.33 1821.76 2476.69 1821.66C2477.06 1821.53 2477.57 1821.46 2478.22 1821.44C2478.86 1821.4 2479.72 1821.38 2480.78 1821.38C2482.01 1821.38 2482.99 1821.4 2483.72 1821.44C2484.45 1821.46 2485.01 1821.53 2485.41 1821.66C2485.82 1821.76 2486.11 1821.93 2486.28 1822.16C2486.47 1822.39 2486.62 1822.7 2486.75 1823.09L2499.25 1858.94ZM2480.69 1829.28H2480.66L2474.94 1846.47H2486.41L2480.69 1829.28ZM2514.22 1857.5C2514.22 1859.44 2513.88 1860.74 2513.19 1861.41C2512.52 1862.07 2511.31 1862.41 2509.56 1862.41C2507.81 1862.41 2506.6 1862.08 2505.94 1861.44C2505.27 1860.77 2504.94 1859.52 2504.94 1857.69C2504.94 1855.73 2505.27 1854.42 2505.94 1853.75C2506.62 1853.08 2507.85 1852.75 2509.62 1852.75C2511.35 1852.75 2512.55 1853.08 2513.22 1853.75C2513.89 1854.4 2514.22 1855.65 2514.22 1857.5ZM2561.03 1849.88C2561.03 1852 2560.64 1853.86 2559.84 1855.47C2559.05 1857.07 2557.98 1858.42 2556.62 1859.5C2555.27 1860.56 2553.69 1861.36 2551.88 1861.91C2550.06 1862.45 2548.12 1862.72 2546.06 1862.72C2544.67 1862.72 2543.36 1862.6 2542.16 1862.38C2540.97 1862.15 2539.92 1861.88 2539 1861.56C2538.08 1861.23 2537.31 1860.89 2536.69 1860.53C2536.08 1860.18 2535.65 1859.86 2535.38 1859.59C2535.1 1859.32 2534.91 1858.94 2534.78 1858.44C2534.68 1857.92 2534.62 1857.18 2534.62 1856.22C2534.62 1855.57 2534.65 1855.03 2534.69 1854.59C2534.73 1854.16 2534.79 1853.8 2534.88 1853.53C2534.98 1853.26 2535.1 1853.07 2535.25 1852.97C2535.42 1852.84 2535.6 1852.78 2535.81 1852.78C2536.1 1852.78 2536.51 1852.96 2537.03 1853.31C2537.57 1853.65 2538.26 1854.02 2539.09 1854.44C2539.93 1854.85 2540.92 1855.24 2542.06 1855.59C2543.23 1855.93 2544.57 1856.09 2546.09 1856.09C2547.09 1856.09 2547.99 1855.98 2548.78 1855.75C2549.57 1855.5 2550.24 1855.16 2550.78 1854.72C2551.34 1854.28 2551.77 1853.74 2552.06 1853.09C2552.35 1852.45 2552.5 1851.73 2552.5 1850.94C2552.5 1850.02 2552.25 1849.24 2551.75 1848.59C2551.25 1847.93 2550.59 1847.34 2549.78 1846.84C2548.99 1846.32 2548.08 1845.84 2547.06 1845.41C2546.04 1844.95 2544.99 1844.47 2543.91 1843.97C2542.82 1843.47 2541.77 1842.91 2540.75 1842.28C2539.73 1841.64 2538.81 1840.88 2538 1840C2537.21 1839.1 2536.56 1838.05 2536.06 1836.84C2535.56 1835.64 2535.31 1834.19 2535.31 1832.5C2535.31 1830.56 2535.67 1828.86 2536.38 1827.41C2537.1 1825.93 2538.07 1824.71 2539.28 1823.75C2540.51 1822.77 2541.95 1822.04 2543.59 1821.56C2545.26 1821.08 2547.02 1820.84 2548.88 1820.84C2549.83 1820.84 2550.79 1820.92 2551.75 1821.06C2552.71 1821.21 2553.6 1821.41 2554.44 1821.66C2555.27 1821.91 2556.01 1822.19 2556.66 1822.5C2557.3 1822.81 2557.73 1823.07 2557.94 1823.28C2558.15 1823.49 2558.28 1823.67 2558.34 1823.81C2558.43 1823.96 2558.49 1824.16 2558.53 1824.41C2558.59 1824.64 2558.64 1824.94 2558.66 1825.31C2558.68 1825.67 2558.69 1826.11 2558.69 1826.66C2558.69 1827.26 2558.67 1827.77 2558.62 1828.19C2558.6 1828.6 2558.55 1828.95 2558.47 1829.22C2558.41 1829.49 2558.3 1829.69 2558.16 1829.81C2558.03 1829.94 2557.85 1830 2557.62 1830C2557.4 1830 2557.03 1829.85 2556.53 1829.56C2556.03 1829.27 2555.42 1828.96 2554.69 1828.62C2553.96 1828.27 2553.11 1827.96 2552.16 1827.69C2551.2 1827.4 2550.15 1827.25 2549 1827.25C2548.1 1827.25 2547.32 1827.36 2546.66 1827.59C2545.99 1827.8 2545.43 1828.1 2544.97 1828.5C2544.53 1828.88 2544.2 1829.33 2543.97 1829.88C2543.76 1830.42 2543.66 1830.99 2543.66 1831.59C2543.66 1832.49 2543.9 1833.27 2544.38 1833.94C2544.88 1834.58 2545.53 1835.17 2546.34 1835.69C2547.18 1836.19 2548.11 1836.67 2549.16 1837.12C2550.2 1837.56 2551.26 1838.03 2552.34 1838.53C2553.43 1839.03 2554.49 1839.6 2555.53 1840.25C2556.57 1840.88 2557.5 1841.64 2558.31 1842.53C2559.12 1843.41 2559.78 1844.45 2560.28 1845.66C2560.78 1846.84 2561.03 1848.25 2561.03 1849.88ZM2590.59 1861.03C2590.59 1861.32 2590.49 1861.55 2590.28 1861.72C2590.07 1861.89 2589.74 1862 2589.28 1862.06C2588.84 1862.15 2588.19 1862.19 2587.31 1862.19C2586.38 1862.19 2585.69 1862.15 2585.25 1862.06C2584.83 1862 2584.53 1861.89 2584.34 1861.72C2584.18 1861.55 2584.09 1861.32 2584.09 1861.03V1858.81C2582.95 1860.04 2581.64 1861 2580.16 1861.69C2578.7 1862.38 2577.07 1862.72 2575.28 1862.72C2573.8 1862.72 2572.44 1862.52 2571.19 1862.12C2569.96 1861.75 2568.89 1861.19 2567.97 1860.44C2567.07 1859.67 2566.38 1858.72 2565.88 1857.59C2565.38 1856.47 2565.12 1855.16 2565.12 1853.66C2565.12 1852.03 2565.44 1850.62 2566.06 1849.44C2566.71 1848.23 2567.66 1847.24 2568.91 1846.47C2570.18 1845.68 2571.75 1845.09 2573.62 1844.72C2575.5 1844.34 2577.68 1844.16 2580.16 1844.16H2582.88V1842.47C2582.88 1841.59 2582.78 1840.83 2582.59 1840.19C2582.43 1839.52 2582.14 1838.97 2581.72 1838.53C2581.32 1838.09 2580.78 1837.77 2580.09 1837.56C2579.43 1837.35 2578.59 1837.25 2577.59 1837.25C2576.28 1837.25 2575.1 1837.4 2574.06 1837.69C2573.04 1837.98 2572.14 1838.3 2571.34 1838.66C2570.55 1839.01 2569.89 1839.33 2569.34 1839.62C2568.82 1839.92 2568.4 1840.06 2568.06 1840.06C2567.83 1840.06 2567.62 1839.99 2567.44 1839.84C2567.27 1839.7 2567.12 1839.49 2567 1839.22C2566.9 1838.95 2566.81 1838.61 2566.75 1838.22C2566.69 1837.82 2566.66 1837.39 2566.66 1836.91C2566.66 1836.26 2566.71 1835.75 2566.81 1835.38C2566.92 1835 2567.11 1834.67 2567.41 1834.38C2567.7 1834.06 2568.21 1833.73 2568.94 1833.38C2569.67 1833 2570.52 1832.66 2571.5 1832.34C2572.48 1832.03 2573.54 1831.78 2574.69 1831.59C2575.85 1831.39 2577.05 1831.28 2578.28 1831.28C2580.47 1831.28 2582.33 1831.5 2583.88 1831.94C2585.44 1832.35 2586.72 1833.01 2587.72 1833.91C2588.72 1834.78 2589.45 1835.92 2589.91 1837.31C2590.36 1838.71 2590.59 1840.36 2590.59 1842.28V1861.03ZM2582.88 1849.09H2579.88C2578.6 1849.09 2577.52 1849.19 2576.62 1849.38C2575.73 1849.56 2575 1849.84 2574.44 1850.22C2573.88 1850.59 2573.46 1851.05 2573.19 1851.59C2572.94 1852.11 2572.81 1852.72 2572.81 1853.41C2572.81 1854.57 2573.18 1855.49 2573.91 1856.16C2574.66 1856.82 2575.69 1857.16 2577 1857.16C2578.1 1857.16 2579.11 1856.88 2580.03 1856.31C2580.97 1855.75 2581.92 1854.93 2582.88 1853.84V1849.09ZM2625.09 1860.94C2625.09 1861.15 2625.03 1861.33 2624.91 1861.5C2624.78 1861.65 2624.57 1861.77 2624.28 1861.88C2623.99 1861.98 2623.58 1862.05 2623.06 1862.09C2622.56 1862.16 2621.94 1862.19 2621.19 1862.19C2620.42 1862.19 2619.77 1862.16 2619.25 1862.09C2618.75 1862.05 2618.35 1861.98 2618.06 1861.88C2617.77 1861.77 2617.56 1861.65 2617.44 1861.5C2617.31 1861.33 2617.25 1861.15 2617.25 1860.94V1845.03C2617.25 1843.68 2617.15 1842.61 2616.94 1841.84C2616.75 1841.07 2616.47 1840.42 2616.09 1839.88C2615.72 1839.31 2615.23 1838.89 2614.62 1838.59C2614.04 1838.28 2613.35 1838.12 2612.56 1838.12C2611.56 1838.12 2610.55 1838.49 2609.53 1839.22C2608.51 1839.95 2607.45 1841.01 2606.34 1842.41V1860.94C2606.34 1861.15 2606.28 1861.33 2606.16 1861.5C2606.03 1861.65 2605.81 1861.77 2605.5 1861.88C2605.21 1861.98 2604.81 1862.05 2604.31 1862.09C2603.81 1862.16 2603.18 1862.19 2602.41 1862.19C2601.64 1862.19 2601 1862.16 2600.5 1862.09C2600 1862.05 2599.59 1861.98 2599.28 1861.88C2598.99 1861.77 2598.78 1861.65 2598.66 1861.5C2598.53 1861.33 2598.47 1861.15 2598.47 1860.94V1833.06C2598.47 1832.85 2598.52 1832.68 2598.62 1832.53C2598.73 1832.36 2598.92 1832.23 2599.19 1832.12C2599.46 1832.02 2599.8 1831.95 2600.22 1831.91C2600.66 1831.84 2601.2 1831.81 2601.84 1831.81C2602.51 1831.81 2603.06 1831.84 2603.5 1831.91C2603.94 1831.95 2604.27 1832.02 2604.5 1832.12C2604.75 1832.23 2604.93 1832.36 2605.03 1832.53C2605.14 1832.68 2605.19 1832.85 2605.19 1833.06V1836.28C2606.73 1834.61 2608.29 1833.36 2609.88 1832.53C2611.48 1831.7 2613.15 1831.28 2614.88 1831.28C2616.77 1831.28 2618.36 1831.59 2619.66 1832.22C2620.97 1832.84 2622.02 1833.7 2622.81 1834.78C2623.62 1835.84 2624.21 1837.09 2624.56 1838.53C2624.92 1839.97 2625.09 1841.7 2625.09 1843.72V1860.94ZM2657.62 1833.03C2657.62 1833.14 2657.61 1833.26 2657.59 1833.41C2657.59 1833.55 2657.57 1833.72 2657.53 1833.91C2657.51 1834.07 2657.47 1834.27 2657.41 1834.5C2657.36 1834.73 2657.3 1834.99 2657.22 1835.28L2648.84 1860.5C2648.74 1860.85 2648.59 1861.15 2648.41 1861.38C2648.24 1861.58 2647.95 1861.75 2647.53 1861.88C2647.14 1862 2646.58 1862.08 2645.88 1862.12C2645.19 1862.17 2644.28 1862.19 2643.16 1862.19C2642.05 1862.19 2641.15 1862.16 2640.44 1862.09C2639.75 1862.05 2639.21 1861.97 2638.81 1861.84C2638.42 1861.72 2638.12 1861.55 2637.94 1861.34C2637.77 1861.11 2637.64 1860.83 2637.53 1860.5L2629.16 1835.28C2629.03 1834.86 2628.93 1834.49 2628.84 1834.16C2628.78 1833.82 2628.74 1833.58 2628.72 1833.44C2628.72 1833.29 2628.72 1833.16 2628.72 1833.03C2628.72 1832.82 2628.77 1832.65 2628.88 1832.5C2629 1832.33 2629.21 1832.2 2629.5 1832.09C2629.79 1831.99 2630.19 1831.92 2630.69 1831.88C2631.21 1831.83 2631.85 1831.81 2632.62 1831.81C2633.48 1831.81 2634.17 1831.84 2634.69 1831.91C2635.21 1831.95 2635.61 1832.02 2635.91 1832.12C2636.22 1832.21 2636.44 1832.34 2636.56 1832.53C2636.69 1832.7 2636.79 1832.91 2636.88 1833.16L2643.22 1853.62L2643.41 1854.41L2643.59 1853.62L2649.84 1833.16C2649.91 1832.91 2650 1832.7 2650.12 1832.53C2650.27 1832.34 2650.49 1832.21 2650.78 1832.12C2651.07 1832.02 2651.46 1831.95 2651.94 1831.91C2652.44 1831.84 2653.08 1831.81 2653.88 1831.81C2654.65 1831.81 2655.27 1831.83 2655.75 1831.88C2656.25 1831.92 2656.64 1831.99 2656.91 1832.09C2657.18 1832.2 2657.36 1832.33 2657.47 1832.5C2657.57 1832.65 2657.62 1832.82 2657.62 1833.03ZM2670.16 1860.94C2670.16 1861.15 2670.09 1861.33 2669.97 1861.5C2669.84 1861.65 2669.62 1861.77 2669.31 1861.88C2669.02 1861.98 2668.62 1862.05 2668.12 1862.09C2667.62 1862.16 2666.99 1862.19 2666.22 1862.19C2665.45 1862.19 2664.81 1862.16 2664.31 1862.09C2663.81 1862.05 2663.41 1861.98 2663.09 1861.88C2662.8 1861.77 2662.59 1861.65 2662.47 1861.5C2662.34 1861.33 2662.28 1861.15 2662.28 1860.94V1833.12C2662.28 1832.92 2662.34 1832.74 2662.47 1832.59C2662.59 1832.43 2662.8 1832.29 2663.09 1832.19C2663.41 1832.06 2663.81 1831.97 2664.31 1831.91C2664.81 1831.84 2665.45 1831.81 2666.22 1831.81C2666.99 1831.81 2667.62 1831.84 2668.12 1831.91C2668.62 1831.97 2669.02 1832.06 2669.31 1832.19C2669.62 1832.29 2669.84 1832.43 2669.97 1832.59C2670.09 1832.74 2670.16 1832.92 2670.16 1833.12V1860.94ZM2670.75 1823.62C2670.75 1825.21 2670.43 1826.3 2669.78 1826.91C2669.14 1827.51 2667.94 1827.81 2666.19 1827.81C2664.42 1827.81 2663.22 1827.52 2662.59 1826.94C2661.99 1826.35 2661.69 1825.3 2661.69 1823.78C2661.69 1822.2 2662 1821.1 2662.62 1820.5C2663.27 1819.88 2664.48 1819.56 2666.25 1819.56C2668 1819.56 2669.19 1819.86 2669.81 1820.47C2670.44 1821.05 2670.75 1822.1 2670.75 1823.62ZM2699.12 1856.5C2699.12 1857.04 2699.1 1857.5 2699.06 1857.88C2699.04 1858.23 2699 1858.53 2698.94 1858.78C2698.9 1859.03 2698.83 1859.24 2698.75 1859.41C2698.69 1859.55 2698.53 1859.75 2698.28 1860C2698.03 1860.23 2697.6 1860.52 2697 1860.88C2696.4 1861.21 2695.71 1861.51 2694.94 1861.78C2694.17 1862.05 2693.32 1862.27 2692.41 1862.44C2691.51 1862.6 2690.58 1862.69 2689.62 1862.69C2687.48 1862.69 2685.57 1862.35 2683.91 1861.69C2682.26 1861.02 2680.88 1860.04 2679.75 1858.75C2678.62 1857.44 2677.77 1855.84 2677.19 1853.97C2676.62 1852.09 2676.34 1849.95 2676.34 1847.53C2676.34 1844.74 2676.69 1842.33 2677.38 1840.31C2678.08 1838.27 2679.06 1836.58 2680.31 1835.25C2681.56 1833.92 2683.04 1832.93 2684.75 1832.28C2686.46 1831.64 2688.33 1831.31 2690.38 1831.31C2691.21 1831.31 2692.02 1831.39 2692.81 1831.53C2693.62 1831.68 2694.38 1831.88 2695.06 1832.12C2695.77 1832.38 2696.4 1832.66 2696.94 1832.97C2697.5 1833.28 2697.9 1833.55 2698.12 1833.78C2698.35 1834.01 2698.51 1834.21 2698.59 1834.38C2698.7 1834.52 2698.77 1834.72 2698.81 1834.97C2698.88 1835.22 2698.92 1835.53 2698.94 1835.91C2698.98 1836.26 2699 1836.7 2699 1837.22C2699 1838.43 2698.9 1839.28 2698.69 1839.78C2698.48 1840.26 2698.21 1840.5 2697.88 1840.5C2697.52 1840.5 2697.15 1840.35 2696.75 1840.06C2696.35 1839.77 2695.89 1839.45 2695.34 1839.09C2694.8 1838.74 2694.16 1838.42 2693.41 1838.12C2692.66 1837.83 2691.76 1837.69 2690.72 1837.69C2688.68 1837.69 2687.11 1838.48 2686.03 1840.06C2684.95 1841.62 2684.41 1843.93 2684.41 1846.97C2684.41 1848.47 2684.54 1849.79 2684.81 1850.94C2685.08 1852.08 2685.48 1853.04 2686 1853.81C2686.54 1854.58 2687.21 1855.17 2688 1855.56C2688.81 1855.94 2689.75 1856.12 2690.81 1856.12C2691.9 1856.12 2692.82 1855.97 2693.59 1855.66C2694.39 1855.32 2695.07 1854.96 2695.66 1854.56C2696.24 1854.17 2696.73 1853.81 2697.12 1853.5C2697.52 1853.17 2697.85 1853 2698.12 1853C2698.31 1853 2698.47 1853.05 2698.59 1853.16C2698.72 1853.26 2698.81 1853.46 2698.88 1853.75C2698.96 1854.02 2699.02 1854.38 2699.06 1854.81C2699.1 1855.25 2699.12 1855.81 2699.12 1856.5ZM2721.34 1858.19C2721.34 1859.1 2721.28 1859.81 2721.16 1860.31C2721.05 1860.79 2720.91 1861.14 2720.72 1861.34C2720.53 1861.53 2720.25 1861.71 2719.88 1861.88C2719.52 1862.02 2719.09 1862.15 2718.59 1862.25C2718.11 1862.38 2717.58 1862.47 2717 1862.53C2716.44 1862.59 2715.86 1862.62 2715.28 1862.62C2713.72 1862.62 2712.36 1862.43 2711.22 1862.03C2710.07 1861.64 2709.12 1861.03 2708.38 1860.22C2707.62 1859.39 2707.07 1858.34 2706.72 1857.09C2706.36 1855.84 2706.19 1854.36 2706.19 1852.66V1838.38H2702.84C2702.45 1838.38 2702.15 1838.14 2701.94 1837.66C2701.73 1837.16 2701.62 1836.33 2701.62 1835.19C2701.62 1834.58 2701.65 1834.07 2701.69 1833.66C2701.75 1833.24 2701.83 1832.92 2701.94 1832.69C2702.04 1832.44 2702.17 1832.26 2702.31 1832.16C2702.48 1832.05 2702.67 1832 2702.88 1832H2706.19V1825.78C2706.19 1825.57 2706.24 1825.39 2706.34 1825.22C2706.47 1825.05 2706.68 1824.92 2706.97 1824.81C2707.28 1824.69 2707.69 1824.6 2708.19 1824.56C2708.71 1824.5 2709.34 1824.47 2710.09 1824.47C2710.86 1824.47 2711.5 1824.5 2712 1824.56C2712.52 1824.6 2712.93 1824.69 2713.22 1824.81C2713.51 1824.92 2713.72 1825.05 2713.84 1825.22C2713.97 1825.39 2714.03 1825.57 2714.03 1825.78V1832H2720.09C2720.3 1832 2720.48 1832.05 2720.62 1832.16C2720.79 1832.26 2720.93 1832.44 2721.03 1832.69C2721.14 1832.92 2721.21 1833.24 2721.25 1833.66C2721.31 1834.07 2721.34 1834.58 2721.34 1835.19C2721.34 1836.33 2721.24 1837.16 2721.03 1837.66C2720.82 1838.14 2720.52 1838.38 2720.12 1838.38H2714.03V1851.47C2714.03 1852.99 2714.27 1854.14 2714.75 1854.91C2715.23 1855.66 2716.08 1856.03 2717.31 1856.03C2717.73 1856.03 2718.1 1856 2718.44 1855.94C2718.77 1855.85 2719.06 1855.77 2719.31 1855.69C2719.58 1855.58 2719.8 1855.5 2719.97 1855.44C2720.16 1855.35 2720.32 1855.31 2720.47 1855.31C2720.59 1855.31 2720.71 1855.35 2720.81 1855.44C2720.94 1855.5 2721.03 1855.65 2721.09 1855.88C2721.16 1856.08 2721.21 1856.38 2721.25 1856.75C2721.31 1857.12 2721.34 1857.6 2721.34 1858.19ZM2754.59 1846.72C2754.59 1849.09 2754.28 1851.26 2753.66 1853.22C2753.03 1855.18 2752.08 1856.86 2750.81 1858.28C2749.54 1859.7 2747.95 1860.79 2746.03 1861.56C2744.11 1862.33 2741.88 1862.72 2739.31 1862.72C2736.83 1862.72 2734.68 1862.38 2732.84 1861.69C2731.01 1861 2729.49 1860 2728.28 1858.69C2727.07 1857.38 2726.18 1855.76 2725.59 1853.84C2725.01 1851.93 2724.72 1849.74 2724.72 1847.28C2724.72 1844.91 2725.03 1842.74 2725.66 1840.78C2726.3 1838.8 2727.26 1837.11 2728.53 1835.72C2729.8 1834.3 2731.39 1833.21 2733.28 1832.44C2735.2 1831.67 2737.44 1831.28 2740 1831.28C2742.5 1831.28 2744.67 1831.62 2746.5 1832.31C2748.33 1832.98 2749.84 1833.97 2751.03 1835.28C2752.24 1836.59 2753.14 1838.21 2753.72 1840.12C2754.3 1842.04 2754.59 1844.24 2754.59 1846.72ZM2746.5 1847.03C2746.5 1845.66 2746.39 1844.4 2746.16 1843.25C2745.95 1842.08 2745.58 1841.07 2745.06 1840.22C2744.54 1839.36 2743.84 1838.7 2742.97 1838.22C2742.11 1837.74 2741.03 1837.5 2739.72 1837.5C2738.55 1837.5 2737.53 1837.72 2736.66 1838.16C2735.78 1838.57 2735.06 1839.2 2734.5 1840.03C2733.94 1840.84 2733.51 1841.83 2733.22 1843C2732.95 1844.15 2732.81 1845.46 2732.81 1846.94C2732.81 1848.31 2732.93 1849.58 2733.16 1850.75C2733.39 1851.9 2733.75 1852.9 2734.25 1853.75C2734.77 1854.6 2735.47 1855.27 2736.34 1855.75C2737.22 1856.21 2738.3 1856.44 2739.59 1856.44C2740.78 1856.44 2741.81 1856.23 2742.69 1855.81C2743.56 1855.38 2744.28 1854.75 2744.84 1853.94C2745.41 1853.12 2745.82 1852.15 2746.09 1851C2746.36 1849.83 2746.5 1848.51 2746.5 1847.03ZM2778.75 1835.66C2778.75 1836.41 2778.73 1837.02 2778.69 1837.5C2778.65 1837.98 2778.58 1838.35 2778.5 1838.62C2778.42 1838.9 2778.3 1839.08 2778.16 1839.19C2778.03 1839.29 2777.86 1839.34 2777.66 1839.34C2777.49 1839.34 2777.3 1839.31 2777.09 1839.25C2776.89 1839.17 2776.65 1839.08 2776.38 1839C2776.12 1838.92 2775.84 1838.84 2775.53 1838.78C2775.22 1838.7 2774.88 1838.66 2774.5 1838.66C2774.06 1838.66 2773.62 1838.75 2773.19 1838.94C2772.75 1839.1 2772.29 1839.38 2771.81 1839.75C2771.35 1840.12 2770.86 1840.62 2770.34 1841.25C2769.84 1841.88 2769.3 1842.65 2768.72 1843.56V1860.94C2768.72 1861.15 2768.66 1861.33 2768.53 1861.5C2768.41 1861.65 2768.19 1861.77 2767.88 1861.88C2767.58 1861.98 2767.19 1862.05 2766.69 1862.09C2766.19 1862.16 2765.55 1862.19 2764.78 1862.19C2764.01 1862.19 2763.38 1862.16 2762.88 1862.09C2762.38 1862.05 2761.97 1861.98 2761.66 1861.88C2761.36 1861.77 2761.16 1861.65 2761.03 1861.5C2760.91 1861.33 2760.84 1861.15 2760.84 1860.94V1833.06C2760.84 1832.85 2760.9 1832.68 2761 1832.53C2761.1 1832.36 2761.29 1832.23 2761.56 1832.12C2761.83 1832.02 2762.18 1831.95 2762.59 1831.91C2763.03 1831.84 2763.57 1831.81 2764.22 1831.81C2764.89 1831.81 2765.44 1831.84 2765.88 1831.91C2766.31 1831.95 2766.65 1832.02 2766.88 1832.12C2767.12 1832.23 2767.3 1832.36 2767.41 1832.53C2767.51 1832.68 2767.56 1832.85 2767.56 1833.06V1836.53C2768.29 1835.49 2768.98 1834.64 2769.62 1833.97C2770.27 1833.28 2770.89 1832.74 2771.47 1832.34C2772.05 1831.95 2772.64 1831.68 2773.22 1831.53C2773.8 1831.36 2774.39 1831.28 2774.97 1831.28C2775.24 1831.28 2775.53 1831.3 2775.84 1831.34C2776.16 1831.36 2776.48 1831.42 2776.81 1831.5C2777.15 1831.56 2777.44 1831.65 2777.69 1831.75C2777.94 1831.83 2778.11 1831.93 2778.22 1832.03C2778.34 1832.14 2778.43 1832.25 2778.47 1832.38C2778.53 1832.5 2778.58 1832.68 2778.62 1832.91C2778.67 1833.11 2778.7 1833.44 2778.72 1833.88C2778.74 1834.31 2778.75 1834.91 2778.75 1835.66ZM2808.66 1846.19C2808.66 1847.15 2808.44 1847.85 2808 1848.31C2807.58 1848.77 2807 1849 2806.25 1849H2789.28C2789.28 1850.19 2789.42 1851.27 2789.69 1852.25C2789.98 1853.21 2790.43 1854.03 2791.03 1854.72C2791.66 1855.39 2792.45 1855.9 2793.41 1856.25C2794.39 1856.6 2795.55 1856.78 2796.91 1856.78C2798.28 1856.78 2799.49 1856.69 2800.53 1856.5C2801.57 1856.29 2802.47 1856.07 2803.22 1855.84C2803.99 1855.59 2804.62 1855.38 2805.12 1855.19C2805.62 1854.98 2806.03 1854.88 2806.34 1854.88C2806.53 1854.88 2806.69 1854.92 2806.81 1855C2806.94 1855.06 2807.04 1855.19 2807.12 1855.38C2807.21 1855.56 2807.26 1855.83 2807.28 1856.19C2807.32 1856.52 2807.34 1856.95 2807.34 1857.47C2807.34 1857.93 2807.33 1858.32 2807.31 1858.66C2807.29 1858.97 2807.26 1859.24 2807.22 1859.47C2807.18 1859.7 2807.11 1859.9 2807.03 1860.06C2806.95 1860.21 2806.83 1860.35 2806.69 1860.5C2806.56 1860.65 2806.2 1860.84 2805.59 1861.09C2804.99 1861.34 2804.22 1861.59 2803.28 1861.84C2802.34 1862.07 2801.27 1862.27 2800.06 1862.44C2798.85 1862.62 2797.56 1862.72 2796.19 1862.72C2793.71 1862.72 2791.53 1862.41 2789.66 1861.78C2787.8 1861.16 2786.25 1860.21 2785 1858.94C2783.75 1857.67 2782.81 1856.06 2782.19 1854.12C2781.58 1852.19 2781.28 1849.92 2781.28 1847.31C2781.28 1844.83 2781.6 1842.6 2782.25 1840.62C2782.9 1838.62 2783.83 1836.94 2785.06 1835.56C2786.29 1834.17 2787.78 1833.1 2789.53 1832.38C2791.3 1831.65 2793.29 1831.28 2795.5 1831.28C2797.83 1831.28 2799.82 1831.62 2801.47 1832.31C2803.14 1833 2804.5 1833.96 2805.56 1835.19C2806.62 1836.4 2807.41 1837.83 2807.91 1839.5C2808.41 1841.17 2808.66 1842.98 2808.66 1844.94V1846.19ZM2801.03 1843.94C2801.09 1841.73 2800.65 1840 2799.69 1838.75C2798.75 1837.48 2797.29 1836.84 2795.31 1836.84C2794.31 1836.84 2793.44 1837.03 2792.69 1837.41C2791.96 1837.78 2791.34 1838.29 2790.84 1838.94C2790.36 1839.56 2789.99 1840.31 2789.72 1841.19C2789.47 1842.04 2789.32 1842.96 2789.28 1843.94H2801.03ZM2834.78 1853.06C2834.78 1854.65 2834.48 1856.04 2833.88 1857.25C2833.29 1858.46 2832.46 1859.47 2831.38 1860.28C2830.29 1861.09 2829.01 1861.7 2827.53 1862.09C2826.05 1862.51 2824.45 1862.72 2822.72 1862.72C2821.68 1862.72 2820.68 1862.64 2819.72 1862.47C2818.78 1862.32 2817.94 1862.14 2817.19 1861.91C2816.44 1861.66 2815.81 1861.41 2815.31 1861.16C2814.81 1860.91 2814.45 1860.68 2814.22 1860.47C2813.99 1860.24 2813.81 1859.9 2813.69 1859.44C2813.56 1858.96 2813.5 1858.26 2813.5 1857.34C2813.5 1856.74 2813.52 1856.26 2813.56 1855.91C2813.6 1855.53 2813.67 1855.24 2813.75 1855.03C2813.83 1854.8 2813.94 1854.66 2814.06 1854.59C2814.19 1854.51 2814.34 1854.47 2814.53 1854.47C2814.76 1854.47 2815.09 1854.6 2815.53 1854.88C2815.99 1855.12 2816.55 1855.41 2817.22 1855.72C2817.89 1856.03 2818.66 1856.32 2819.53 1856.59C2820.43 1856.86 2821.44 1857 2822.56 1857C2823.27 1857 2823.9 1856.93 2824.44 1856.78C2825 1856.64 2825.48 1856.43 2825.88 1856.16C2826.29 1855.89 2826.6 1855.54 2826.81 1855.12C2827.02 1854.71 2827.12 1854.23 2827.12 1853.69C2827.12 1853.06 2826.93 1852.53 2826.53 1852.09C2826.16 1851.64 2825.65 1851.24 2825 1850.91C2824.38 1850.57 2823.66 1850.26 2822.84 1849.97C2822.05 1849.68 2821.23 1849.35 2820.38 1849C2819.54 1848.65 2818.72 1848.24 2817.91 1847.78C2817.11 1847.32 2816.4 1846.76 2815.75 1846.09C2815.12 1845.43 2814.61 1844.62 2814.22 1843.69C2813.84 1842.75 2813.66 1841.62 2813.66 1840.31C2813.66 1838.98 2813.92 1837.76 2814.44 1836.66C2814.96 1835.53 2815.71 1834.57 2816.69 1833.78C2817.67 1832.99 2818.85 1832.38 2820.25 1831.94C2821.67 1831.5 2823.25 1831.28 2825 1831.28C2825.88 1831.28 2826.72 1831.34 2827.53 1831.47C2828.36 1831.59 2829.11 1831.75 2829.78 1831.94C2830.45 1832.12 2831.01 1832.33 2831.47 1832.56C2831.93 1832.77 2832.25 1832.96 2832.44 1833.12C2832.65 1833.27 2832.79 1833.43 2832.88 1833.59C2832.96 1833.74 2833.02 1833.93 2833.06 1834.16C2833.1 1834.36 2833.14 1834.64 2833.16 1834.97C2833.2 1835.28 2833.22 1835.68 2833.22 1836.16C2833.22 1836.72 2833.2 1837.18 2833.16 1837.53C2833.14 1837.89 2833.08 1838.17 2833 1838.38C2832.94 1838.58 2832.84 1838.73 2832.72 1838.81C2832.59 1838.88 2832.45 1838.91 2832.28 1838.91C2832.09 1838.91 2831.8 1838.8 2831.41 1838.59C2831.01 1838.36 2830.51 1838.12 2829.91 1837.88C2829.32 1837.62 2828.64 1837.4 2827.84 1837.19C2827.07 1836.96 2826.19 1836.84 2825.19 1836.84C2824.48 1836.84 2823.86 1836.92 2823.34 1837.06C2822.82 1837.21 2822.4 1837.42 2822.06 1837.69C2821.73 1837.96 2821.48 1838.28 2821.31 1838.66C2821.15 1839.01 2821.06 1839.4 2821.06 1839.81C2821.06 1840.46 2821.26 1841 2821.66 1841.44C2822.05 1841.88 2822.57 1842.26 2823.22 1842.59C2823.86 1842.93 2824.59 1843.24 2825.41 1843.53C2826.24 1843.82 2827.07 1844.15 2827.91 1844.5C2828.76 1844.83 2829.59 1845.23 2830.41 1845.69C2831.24 1846.15 2831.98 1846.71 2832.62 1847.38C2833.27 1848.04 2833.79 1848.84 2834.19 1849.78C2834.58 1850.7 2834.78 1851.79 2834.78 1853.06ZM2849.97 1856.25C2849.97 1857.08 2849.93 1857.84 2849.84 1858.53C2849.76 1859.2 2849.62 1859.83 2849.44 1860.44C2849.25 1861.04 2849.01 1861.62 2848.72 1862.19C2848.43 1862.77 2848.06 1863.36 2847.62 1863.97L2843.44 1869.97C2843.29 1870.18 2843.12 1870.35 2842.94 1870.5C2842.77 1870.65 2842.56 1870.76 2842.31 1870.84C2842.06 1870.93 2841.76 1870.99 2841.41 1871.03C2841.05 1871.09 2840.6 1871.12 2840.06 1871.12C2839.46 1871.12 2838.97 1871.09 2838.59 1871.03C2838.22 1870.99 2837.95 1870.92 2837.78 1870.81C2837.61 1870.71 2837.52 1870.57 2837.5 1870.41C2837.5 1870.24 2837.55 1870.04 2837.66 1869.81L2841.47 1861.19V1856.25C2841.47 1855.54 2841.55 1854.97 2841.72 1854.53C2841.89 1854.09 2842.15 1853.76 2842.5 1853.53C2842.85 1853.3 2843.3 1853.16 2843.84 1853.09C2844.39 1853.01 2845.04 1852.97 2845.81 1852.97C2846.54 1852.97 2847.17 1853.01 2847.69 1853.09C2848.21 1853.16 2848.64 1853.3 2848.97 1853.53C2849.32 1853.76 2849.57 1854.09 2849.72 1854.53C2849.89 1854.97 2849.97 1855.54 2849.97 1856.25ZM2896.16 1858.78C2896.16 1859.39 2896.12 1859.9 2896.06 1860.31C2896.02 1860.71 2895.95 1861.03 2895.84 1861.28C2895.74 1861.53 2895.6 1861.72 2895.44 1861.84C2895.29 1861.95 2895.12 1862 2894.94 1862H2874.62C2873.94 1862 2873.35 1861.8 2872.88 1861.41C2872.42 1860.99 2872.19 1860.32 2872.19 1859.41V1824.16C2872.19 1823.24 2872.42 1822.58 2872.88 1822.19C2873.35 1821.77 2873.94 1821.56 2874.62 1821.56H2894.81C2895 1821.56 2895.17 1821.61 2895.31 1821.72C2895.46 1821.82 2895.58 1822.01 2895.69 1822.28C2895.79 1822.53 2895.86 1822.86 2895.91 1823.28C2895.97 1823.68 2896 1824.19 2896 1824.81C2896 1825.4 2895.97 1825.9 2895.91 1826.31C2895.86 1826.71 2895.79 1827.03 2895.69 1827.28C2895.58 1827.53 2895.46 1827.72 2895.31 1827.84C2895.17 1827.95 2895 1828 2894.81 1828H2880.38V1837.88H2892.59C2892.78 1837.88 2892.95 1837.94 2893.09 1838.06C2893.26 1838.17 2893.4 1838.34 2893.5 1838.59C2893.6 1838.82 2893.68 1839.15 2893.72 1839.56C2893.78 1839.96 2893.81 1840.45 2893.81 1841.03C2893.81 1841.64 2893.78 1842.14 2893.72 1842.53C2893.68 1842.93 2893.6 1843.25 2893.5 1843.5C2893.4 1843.73 2893.26 1843.9 2893.09 1844C2892.95 1844.1 2892.78 1844.16 2892.59 1844.16H2880.38V1855.56H2894.94C2895.12 1855.56 2895.29 1855.62 2895.44 1855.75C2895.6 1855.85 2895.74 1856.03 2895.84 1856.28C2895.95 1856.53 2896.02 1856.86 2896.06 1857.28C2896.12 1857.68 2896.16 1858.18 2896.16 1858.78ZM2950.56 1860.88C2950.56 1861.08 2950.5 1861.27 2950.38 1861.44C2950.27 1861.6 2950.06 1861.74 2949.75 1861.84C2949.46 1861.95 2949.06 1862.03 2948.56 1862.09C2948.06 1862.16 2947.43 1862.19 2946.66 1862.19C2945.91 1862.19 2945.28 1862.16 2944.78 1862.09C2944.28 1862.03 2943.89 1861.95 2943.59 1861.84C2943.3 1861.74 2943.09 1861.6 2942.97 1861.44C2942.84 1861.27 2942.78 1861.08 2942.78 1860.88V1827.97H2942.72L2931 1860.84C2930.92 1861.11 2930.78 1861.34 2930.59 1861.53C2930.41 1861.7 2930.15 1861.83 2929.81 1861.94C2929.5 1862.04 2929.09 1862.1 2928.59 1862.12C2928.09 1862.17 2927.49 1862.19 2926.78 1862.19C2926.07 1862.19 2925.47 1862.16 2924.97 1862.09C2924.47 1862.05 2924.05 1861.98 2923.72 1861.88C2923.41 1861.75 2923.16 1861.6 2922.97 1861.44C2922.78 1861.27 2922.66 1861.07 2922.59 1860.84L2911.28 1827.97H2911.22V1860.88C2911.22 1861.08 2911.16 1861.27 2911.03 1861.44C2910.93 1861.6 2910.72 1861.74 2910.41 1861.84C2910.09 1861.95 2909.69 1862.03 2909.19 1862.09C2908.71 1862.16 2908.08 1862.19 2907.31 1862.19C2906.56 1862.19 2905.94 1862.16 2905.44 1862.09C2904.94 1862.03 2904.53 1861.95 2904.22 1861.84C2903.93 1861.74 2903.72 1861.6 2903.59 1861.44C2903.49 1861.27 2903.44 1861.08 2903.44 1860.88V1824.84C2903.44 1823.78 2903.72 1822.97 2904.28 1822.41C2904.84 1821.84 2905.59 1821.56 2906.53 1821.56H2911.91C2912.86 1821.56 2913.69 1821.65 2914.38 1821.81C2915.06 1821.96 2915.66 1822.22 2916.16 1822.59C2916.66 1822.95 2917.07 1823.43 2917.41 1824.03C2917.74 1824.61 2918.03 1825.34 2918.28 1826.22L2927.03 1850.31H2927.16L2936.22 1826.28C2936.49 1825.41 2936.78 1824.67 2937.09 1824.06C2937.43 1823.46 2937.8 1822.97 2938.22 1822.59C2938.66 1822.22 2939.17 1821.96 2939.75 1821.81C2940.33 1821.65 2941.01 1821.56 2941.78 1821.56H2947.31C2947.88 1821.56 2948.35 1821.64 2948.75 1821.78C2949.17 1821.93 2949.5 1822.15 2949.75 1822.44C2950.02 1822.71 2950.22 1823.05 2950.34 1823.47C2950.49 1823.86 2950.56 1824.32 2950.56 1824.84V1860.88ZM2986.28 1824.94C2986.28 1825.54 2986.25 1826.06 2986.19 1826.5C2986.15 1826.92 2986.07 1827.26 2985.97 1827.53C2985.86 1827.78 2985.73 1827.97 2985.56 1828.09C2985.42 1828.22 2985.25 1828.28 2985.06 1828.28H2974.94V1860.88C2974.94 1861.08 2974.86 1861.27 2974.72 1861.44C2974.59 1861.6 2974.38 1861.74 2974.06 1861.84C2973.75 1861.95 2973.32 1862.03 2972.78 1862.09C2972.26 1862.16 2971.6 1862.19 2970.81 1862.19C2970.02 1862.19 2969.35 1862.16 2968.81 1862.09C2968.29 1862.03 2967.88 1861.95 2967.56 1861.84C2967.25 1861.74 2967.02 1861.6 2966.88 1861.44C2966.75 1861.27 2966.69 1861.08 2966.69 1860.88V1828.28H2956.56C2956.35 1828.28 2956.18 1828.22 2956.03 1828.09C2955.89 1827.97 2955.76 1827.78 2955.66 1827.53C2955.55 1827.26 2955.47 1826.92 2955.41 1826.5C2955.36 1826.06 2955.34 1825.54 2955.34 1824.94C2955.34 1824.31 2955.36 1823.78 2955.41 1823.34C2955.47 1822.91 2955.55 1822.56 2955.66 1822.31C2955.76 1822.04 2955.89 1821.85 2956.03 1821.75C2956.18 1821.62 2956.35 1821.56 2956.56 1821.56H2985.06C2985.25 1821.56 2985.42 1821.62 2985.56 1821.75C2985.73 1821.85 2985.86 1822.04 2985.97 1822.31C2986.07 1822.56 2986.15 1822.91 2986.19 1823.34C2986.25 1823.78 2986.28 1824.31 2986.28 1824.94Z" fill="black"/>
</svg>
