<svg width="3450" height="2210" viewBox="0 0 3450 2210" fill="none" xmlns="http://www.w3.org/2000/svg">
<path d="M2518.26 1535.27C2519.44 1534.9 2519.22 1534.65 2520.48 1534.76C2521.3 1535.47 2521.21 1535.88 2521.21 1536.92C2521.09 1538.09 2520.66 1540.3 2521.19 1541.39C2521.43 1541.88 2522.8 1541.6 2522.41 1542.34C2521.75 1543.63 2519.45 1550.98 2519.87 1552.13C2521.12 1553.33 2524.04 1553.13 2525.43 1552.34C2526.67 1550.19 2528.43 1551.23 2530.51 1550.08C2530.8 1549.56 2530.76 1549.57 2530.81 1548.97C2534.14 1548.06 2535.16 1549.46 2538.02 1547.33C2540 1545.85 2548.28 1546.05 2551.11 1545.35C2551.59 1545.24 2552.56 1545.33 2552.59 1545.03L2551.53 1544.72C2552.58 1544.02 2565.17 1543.15 2566.92 1543.2C2568.91 1543.02 2570.4 1542.91 2572.42 1542.88C2574.07 1542.93 2575.24 1542.74 2576.75 1542.69C2585.36 1542.36 2593.31 1541.6 2601.72 1544.03C2602.67 1544.3 2606.09 1543.77 2606.59 1543.99C2610.72 1545.87 2615.24 1546.08 2619.16 1548.32C2619.74 1548.65 2621.8 1548.95 2622.21 1549.27C2624.7 1551.21 2632.98 1554.89 2633.51 1558.13C2632.45 1560.55 2630.2 1557.63 2629.14 1557.19C2626.21 1555.95 2623.67 1553.73 2620.78 1552.47C2619.98 1552.13 2617.64 1552.32 2616.51 1551.95C2616.82 1551.53 2616.71 1551.71 2617.33 1551.46C2612.41 1549.84 2608.61 1548.26 2603.29 1547.75C2602.42 1547.67 2600.17 1547.38 2599.43 1547.16L2599.51 1547.13C2598.28 1546.92 2585.84 1546.36 2585.38 1546.51L2584.33 1546.67C2581.1 1546.59 2574.06 1546.49 2571.46 1548.1C2569.37 1548.4 2567.78 1548.71 2565.67 1548.83C2564.13 1548.92 2561.38 1548.77 2560.05 1548.99L2559.85 1549.29L2560.01 1549.79C2558.56 1550.54 2548.46 1551.32 2546.39 1551.47L2547.52 1551.91C2545.01 1552.14 2540.4 1553.04 2537.99 1553.79C2538.28 1554.13 2538.19 1553.95 2538.29 1554.31C2536.14 1554.83 2534.6 1554.66 2532.38 1555.29C2528.74 1556.32 2525.44 1558.9 2521.95 1559.59C2518.85 1560.2 2518.48 1561.52 2515.26 1562.6C2514.3 1562.65 2514.74 1562.52 2513.9 1563.07C2513.36 1564.13 2513.54 1564.38 2513.69 1565.64L2513.03 1565.6L2512.91 1565.28L2513.12 1565C2510.32 1562.24 2507.28 1564.76 2504.58 1565.61C2496.12 1568.28 2489.57 1571.81 2482.01 1576.32C2481.69 1576.89 2481.77 1576.59 2481.8 1577.26L2481.52 1577.42C2478.14 1579.26 2473.3 1581.72 2470.18 1583.96C2465.8 1587.1 2460.69 1589.7 2456.23 1592.89C2452.12 1597.86 2439.38 1605.07 2437.23 1609.39C2435.15 1610.45 2434.03 1612.22 2431.68 1613.55C2428.95 1614.18 2417.84 1629.63 2416.72 1632.88C2415.03 1637.76 2409.27 1649.84 2414.63 1653.55L2415.13 1653.58C2415.8 1653.55 2416.21 1653.52 2416.89 1653.43C2417.14 1653.09 2417.6 1652.45 2417.98 1652.33C2420.52 1651.52 2422.96 1651.3 2425.57 1650.45L2425.34 1650.42C2428.1 1649.51 2430.02 1649.35 2432.66 1648.63C2432.8 1648.5 2433.59 1647.73 2433.68 1647.7C2435.59 1647.19 2446.72 1646.53 2447.84 1646L2447.54 1645.7L2447.65 1645.45C2450.12 1644.75 2457.69 1644.34 2460.38 1644.12C2461.58 1644.12 2462.77 1644.14 2463.97 1644.05C2464.68 1644.08 2465.6 1643.4 2467.16 1643.41L2467.52 1643.41C2466.52 1643.21 2465.31 1643.08 2464.28 1642.95C2469.37 1642.36 2475.02 1642.7 2480.24 1641.89C2481.85 1641.64 2486.85 1642.11 2488.59 1642.24C2490.35 1638.33 2491.9 1632.8 2493.26 1628.67C2494.86 1623.78 2495.3 1618.39 2497.45 1613.53C2497.76 1612.82 2498.11 1609.59 2498.45 1608.37C2498.67 1608.21 2498.72 1608.11 2499.23 1607.91C2500.6 1607.35 2499.36 1605.21 2500.14 1603.32C2500.68 1602.72 2501.07 1602.74 2501.87 1602.58C2502.55 1602.77 2502.61 1602.8 2503.29 1602.59C2503.46 1601.47 2502.8 1601.22 2502.65 1600.6C2501.71 1596.51 2504.95 1590.56 2506.35 1586.34C2507.43 1583.1 2509.79 1565.11 2514.13 1566.3C2514.59 1566.86 2514.78 1567.47 2514.65 1568.19C2514.05 1571.64 2512.39 1574.95 2511.4 1578.32C2510.95 1579.85 2510.95 1581.18 2510.61 1582.7C2510.4 1583.58 2509.23 1585.13 2509.09 1585.9C2508.59 1588.76 2507.9 1591.03 2506.86 1593.75L2506.87 1593.6C2506.21 1595.92 2505.44 1598.21 2504.55 1600.46C2504.51 1600.55 2504.46 1600.63 2504.42 1600.72C2503.61 1602.36 2504.33 1603.65 2503.84 1605.18C2503.43 1606.45 2502.59 1607.56 2502.19 1608.89C2500.86 1613.34 2500.41 1617.79 2499.37 1622.26C2498.85 1624.51 2496.92 1626.11 2496.43 1628.35C2496.11 1629.78 2496.8 1631.3 2496.59 1632.75C2496.18 1635.62 2493.96 1638.39 2495.07 1641.39C2495.27 1641.93 2495.61 1642.23 2496.12 1642.49C2497.25 1643.05 2514.58 1642.66 2517.37 1642.69C2524.72 1642.78 2532.28 1643.85 2539.56 1644.83C2541.68 1645.12 2543.85 1645.16 2545.92 1645.76C2547.01 1646.07 2547.88 1646.66 2548.81 1647.3C2549.51 1647.29 2552.39 1647.19 2552.92 1647.38C2556.28 1648.63 2559.16 1649.86 2562.76 1650.41C2564.95 1650.74 2568.43 1652.98 2570.33 1650.7C2570.08 1650.51 2569.28 1650.34 2568.93 1650.24C2569.38 1649.78 2569.17 1649.93 2569.85 1649.75C2574.92 1649.28 2572.08 1650.22 2575.51 1651.42L2576.18 1653.81C2576.86 1654.46 2577.54 1655.09 2578.16 1655.79C2578.89 1655.98 2581.98 1656.61 2582.31 1657.02L2582.02 1657.41C2583.08 1658.48 2586.49 1658.51 2588.51 1660.2C2590.68 1661.36 2593.59 1662.46 2595.67 1663.68C2598.79 1665.5 2601.49 1668.02 2604.6 1669.78C2607.68 1671.53 2608.74 1673.66 2612.13 1675.42C2612.51 1676.45 2612.95 1677.55 2613.3 1678.59C2616.87 1680.12 2618.5 1687.93 2621.4 1689.78C2621.72 1690.91 2622.09 1692.12 2622.29 1693.26C2622.46 1694.35 2622.69 1695.68 2622.78 1696.75C2622.88 1697.9 2623.49 1697.54 2623.92 1698.89C2624.33 1699.96 2624.47 1700.08 2625.21 1701L2625.13 1701.02C2627.26 1702.77 2629.74 1701.4 2632.54 1702.97C2631.9 1703.16 2632.08 1703.12 2631.4 1703.15L2631.43 1703.33L2631.32 1703.2L2631.49 1703.11L2631.7 1703.43C2637.01 1704.98 2640.96 1707.03 2646.57 1707.93C2650.03 1708.49 2651.13 1708.58 2654.64 1708.52C2656.44 1708.67 2659.47 1708.33 2661.55 1708.43C2662.37 1708.46 2666.96 1708.59 2667.41 1708.54C2672.41 1709.15 2675.46 1708.64 2674.16 1714.72C2674.12 1714.94 2674.09 1715.14 2673.94 1715.31C2673.62 1714.43 2673.88 1714.72 2673.29 1714.21C2672.14 1714.23 2671.35 1715.26 2670.32 1715.39C2668.73 1715.59 2666.14 1715.15 2664.65 1715.55L2664.95 1716.02C2663.17 1716.47 2660.2 1716.51 2658.46 1715.86C2658.69 1715.8 2658.92 1715.73 2659.16 1715.67C2657.21 1715.09 2655.58 1715.35 2653.82 1715.08C2648.05 1714.18 2644.88 1713.75 2639.01 1715.35C2635.55 1718.78 2631.17 1723.08 2630.95 1728.61C2630.85 1731.17 2633.15 1735.36 2634.92 1737.06C2637.36 1739.41 2640.27 1740.03 2643.47 1740.35C2644.87 1740.49 2645.29 1741.46 2646.82 1740.42C2646.9 1740.07 2646.95 1739.76 2647 1739.41L2648.94 1739.2C2650.67 1739.55 2650.17 1738.97 2652.27 1739.82C2653.79 1741.36 2653.19 1741.94 2653.51 1743.33C2652.15 1743.82 2652.24 1743.79 2651.23 1744.95C2650.31 1745.28 2643.42 1745.9 2641.77 1746.09C2638.1 1746.21 2634.04 1744.21 2631.14 1742.13C2630.01 1741.31 2630.83 1741.5 2629.18 1741.06C2628.94 1739.66 2628.85 1737.66 2627.77 1736.86L2627.27 1737.28C2626.43 1736.63 2626.74 1730.91 2625.73 1729.55L2625.32 1729.72L2625.13 1729.59C2625.13 1728.02 2626 1727.95 2626.07 1727.26C2626.61 1721.82 2629.72 1718.52 2632 1713.89C2633.16 1713.69 2635.49 1713.47 2636.17 1712.76C2636.4 1711.77 2636.43 1712.23 2636.15 1711.33C2635.45 1710.94 2635.13 1710.8 2634.38 1710.5C2634.77 1710.26 2634.87 1710.28 2635.32 1710.27L2635.77 1710.26C2633.89 1709.91 2634.1 1709.81 2633.23 1708.3C2632.57 1707.16 2629.39 1706.56 2628.1 1706.23C2627.31 1705.14 2626.14 1704.02 2624.67 1704.36C2623.87 1705 2624.13 1704.76 2623.77 1705.89L2623.55 1706.18C2623.29 1706.53 2623.2 1706.64 2622.91 1706.94C2622.34 1708.95 2622.55 1710.9 2622.63 1712.99C2622.04 1713.86 2621.79 1715.28 2621.52 1716.34C2619.9 1717.33 2619.76 1717.98 2619.06 1719.7C2616.69 1720.79 2615.48 1724.23 2613.27 1725.85C2612.19 1726.64 2610.8 1727.4 2610.34 1728.7C2610.01 1729.66 2602.11 1735.62 2600.85 1736.42C2599.9 1737.02 2598.84 1737.5 2597.8 1737.94C2595.93 1738.73 2594.61 1738.87 2593.38 1740.6C2589.9 1741.65 2591.31 1740.64 2589.05 1742.71C2587.93 1743.74 2581.83 1746.41 2580.35 1746.5C2578.04 1746.72 2577.83 1747.51 2575.71 1747.55C2574.05 1746.72 2574.08 1746.6 2572.21 1746.58L2571.83 1746.57C2573.8 1744.01 2574.16 1746 2575.46 1744.57L2575.35 1744.21C2574.52 1744.25 2574.12 1744.31 2573.3 1744.11C2573.44 1743.32 2573.65 1742.5 2573.83 1741.72C2579.33 1741.28 2577.84 1740.52 2582.31 1738.92C2582.92 1737.85 2582.17 1732.21 2582.17 1730.35L2582.18 1730.03C2582.61 1728.16 2582.35 1721.14 2581.94 1719.11C2581.75 1719.96 2581.74 1720.82 2581.69 1721.7L2581.44 1721.71L2581.58 1721.9L2581.17 1720.96C2580.73 1718.88 2580.41 1716.87 2580.14 1714.76C2580.03 1713.94 2579.48 1713.86 2578.65 1713.37C2578.1 1712.4 2578.35 1711.79 2578.61 1710.67C2579.04 1709.51 2579.65 1709.46 2580.61 1708.72C2582.3 1708.15 2583.03 1709 2584.72 1709.58C2584.81 1711.3 2584.82 1714.9 2585.6 1716.26C2586.12 1716.55 2586.11 1716.54 2586.69 1716.67C2588.08 1719.69 2586.93 1732.5 2588 1733.65C2588.71 1733.68 2588.77 1733.77 2589.39 1733.51L2589.36 1733.13C2589.01 1733 2588.94 1732.98 2588.57 1732.89C2589.67 1732.61 2590.92 1732.33 2591.99 1731.99C2593.6 1729.3 2595.78 1729.44 2597.69 1725.56C2599.93 1724.29 2600.53 1723.26 2602.87 1722.86C2603.14 1722.14 2603.58 1720.8 2603.97 1720.21L2604.62 1720.06L2604.68 1720.87C2605.24 1721.15 2605.24 1721.09 2605.66 1721.55C2605.2 1722.88 2604 1725.18 2604.31 1726.4C2604.72 1726.71 2604.5 1726.65 2604.97 1726.6C2605.02 1726.16 2605.02 1725.91 2605.02 1725.47C2605.96 1725.37 2606.9 1725.25 2607.83 1725.11C2608.52 1721.87 2611.84 1721.08 2613.75 1718.57C2616.24 1715.29 2619.32 1711.41 2619.76 1707.26C2619.57 1704.64 2619.66 1704.85 2619.77 1702.19C2620.15 1701.1 2619.27 1696.78 2618.62 1695.8C2618.24 1696.25 2618.35 1696.22 2618.18 1696.85C2616.97 1695.12 2618.44 1691.65 2615.51 1690.87C2614.59 1690.62 2616.49 1688.61 2613.33 1687.63C2613.14 1686.5 2612.91 1685.28 2612.79 1684.15C2610.81 1683.38 2610.94 1683.69 2610.52 1681.49C2607.92 1680.57 2606.15 1676.99 2603.73 1675.27C2596.98 1670.5 2589.55 1666.47 2582.09 1662.93C2581.01 1662.42 2575.9 1661.74 2575.56 1663.83C2575.2 1666.03 2575.89 1666.38 2574.07 1667.46C2573.06 1669.37 2574.34 1674.15 2572.44 1675.93C2570.73 1677.53 2571.59 1683.16 2570.42 1685.36L2570.29 1685.05C2568.87 1686.73 2569 1692.8 2568.18 1693.38C2565.98 1694.32 2566.63 1701.11 2565.93 1702.14C2563.55 1705.67 2564.69 1708.14 2563.69 1711.65C2562.92 1714.36 2560.44 1715.26 2563.47 1719.01C2562.36 1721.54 2561.6 1722.45 2562.2 1725.41C2562.74 1725.91 2563.56 1725.99 2564.32 1726.17C2563.5 1726.9 2563.03 1726.4 2562.68 1726.92L2563.56 1727.25C2563.06 1727.64 2563.18 1727.51 2562.46 1727.64C2561.44 1729.05 2562.36 1731.43 2560.67 1732.36C2560.32 1732.55 2560.11 1732.86 2560.01 1733.25C2560.44 1734.22 2561.17 1734.44 2562.19 1734.93C2561.78 1736.78 2562.13 1737.38 2560.44 1738.2C2559.81 1739.04 2559.64 1740.69 2559.04 1740.94C2557.53 1741.57 2557.61 1741.52 2557.24 1743.09C2556.04 1743.36 2554.56 1743.22 2553.3 1743.18C2552.73 1739.71 2552.56 1736.62 2553.56 1733.2C2553.79 1732.24 2554.67 1731.03 2554.74 1730.08C2555.21 1723.69 2556.49 1717.33 2558.06 1711.12C2558.63 1708.86 2559.69 1707.88 2560.18 1705.06L2560.75 1705.09C2563.81 1700.86 2561.94 1701.34 2562.9 1697.46L2563.09 1698.74C2563.97 1695.62 2565.17 1692.99 2565.51 1689.65C2565.58 1688.91 2566.67 1687.04 2566.83 1686.13C2567.54 1682.09 2569.19 1678.35 2569.95 1674.35C2570.34 1672.87 2569.56 1669.1 2570.07 1667.87C2571.57 1664.18 2571.92 1662.8 2572.17 1658.89C2571.91 1658.52 2571.57 1658.06 2571.26 1657.74C2569.94 1656.38 2568.13 1655.61 2566.24 1655.58C2565.82 1655.58 2564.68 1655.49 2564.36 1655.65C2560.61 1657.55 2557.22 1660.26 2553.67 1662.5C2551.77 1663.7 2545.52 1666.48 2544.58 1668.18C2543.61 1669.02 2543.2 1670.6 2543.75 1671.78C2545.59 1673.38 2547.06 1671.13 2548.7 1671.88L2548.41 1671.95C2547.43 1672.2 2547.27 1672.19 2546.51 1672.78C2545.71 1674.33 2546 1676.3 2544.12 1676.54C2540.52 1677 2538.37 1678.78 2535.23 1680.35C2532.32 1681.79 2528.94 1682.85 2526.05 1684.39C2525.79 1684.52 2525.41 1685.24 2525.26 1685.5C2524.85 1685.74 2522.31 1686.89 2522.23 1686.97C2518.43 1690.76 2510.72 1696.7 2508.59 1701.39C2506.52 1702.24 2507 1703.27 2504.63 1704.66C2504.4 1705.98 2504.17 1707.22 2504.06 1708.56C2505.59 1708.97 2506.83 1709.18 2508.08 1710.15L2507.64 1710.03C2510.8 1711.79 2513.98 1713.53 2517.16 1715.26C2518.44 1715.94 2519.45 1716.34 2520.67 1716.94C2521.8 1717.49 2523.77 1719.26 2524.88 1719.96C2525.88 1720.6 2527.76 1720.51 2528.84 1721.33L2528.28 1721.51C2531.84 1724.44 2534.67 1728 2538.11 1731.09C2539.79 1732.6 2538.32 1734.14 2540.82 1734.85C2542.74 1738.93 2534.96 1748.59 2531.3 1749.97C2526.62 1751.74 2523.05 1756.91 2518.14 1757.28C2516.54 1757.4 2514.23 1756.87 2513.46 1758.49C2514.69 1760.69 2519.12 1759.78 2521.3 1759.64C2523.1 1759.53 2525.44 1759.3 2527.18 1758.86C2527.28 1758.75 2527.38 1758.63 2527.48 1758.52C2528.93 1757 2538.08 1757.37 2540.78 1756.24L2539.36 1756.02C2540.05 1754.86 2545.97 1755.72 2547.07 1753.62C2548.39 1753.05 2554.75 1752.31 2556.79 1751.82L2555.84 1751.53L2555.78 1751.31C2557.23 1750.72 2563.93 1749.67 2565.59 1749.62C2567.02 1749.8 2568.67 1748.07 2571.52 1748.74L2571.97 1749.17C2571.89 1749.82 2571.84 1749.78 2571.42 1750.31C2570.66 1750.52 2567.83 1751.19 2567.54 1751.64L2568.48 1752.04C2566.81 1752.71 2561.62 1753.02 2560.19 1753.95L2560.73 1754.37C2559.04 1755.14 2557.01 1754.85 2555.43 1755.41C2550.14 1757.3 2543.12 1760.85 2537.32 1760.4L2537.12 1760.62C2537.65 1760.93 2537.48 1760.85 2538.07 1761.01C2537.12 1761.36 2529.64 1762.32 2528.15 1762.5C2527.62 1762.64 2521.9 1763.01 2521.34 1762.98L2521.09 1762.75C2519.46 1761.79 2505.64 1763.3 2502.35 1761.75C2502.21 1761.74 2502.06 1761.72 2501.92 1761.7C2503.01 1761.65 2505.21 1761.76 2506.05 1761.58C2500.15 1761.23 2494.08 1760.67 2488.4 1762.28C2484.64 1763.35 2480.6 1763.65 2477.61 1766.5C2474.68 1766.99 2472.13 1767.54 2469.24 1768.25C2467.41 1768.7 2465.46 1768.74 2463.53 1769.25C2463.1 1770.67 2462.9 1770.99 2461.57 1771.76L2461.37 1772.45L2460.7 1772.48C2460.15 1773.16 2460.35 1776.05 2460.08 1777.13C2458.1 1785.09 2457.97 1792.87 2457.68 1801.01C2457.65 1802.65 2456.07 1804.45 2456.09 1806.06C2456.23 1814.86 2455.69 1823.59 2455.7 1832.39C2455.7 1833.3 2455.96 1841.14 2455.91 1841.29L2455.57 1841.59C2454.59 1841.14 2453.86 1837.91 2453.44 1836.7C2453.83 1834.06 2453.2 1833.74 2452.91 1831.37C2452.8 1830.51 2453.74 1827.78 2453.65 1826.58C2453.46 1824.16 2452.84 1822.46 2452.8 1819.97C2452.77 1818.34 2453.71 1815.9 2453.7 1815.1C2453.57 1812.31 2453.62 1809.48 2453.59 1806.7C2453.55 1803.42 2454.86 1797.85 2453.89 1794.8C2453.63 1792.51 2454.45 1785.28 2454.72 1782.71C2455.13 1778.76 2456.16 1774.94 2456.35 1770.74C2455.88 1768.48 2450.86 1769.55 2449.17 1769.9C2449.53 1770.1 2449.64 1770.03 2450.06 1770.04L2449.53 1770.53C2445.64 1770.31 2440.86 1769.97 2437.11 1770.91C2431.18 1772.4 2425.33 1770.79 2419.34 1770.93C2418.1 1770.96 2417.03 1770.74 2415.83 1770.88C2413.5 1770.74 2413.71 1769.5 2411.78 1768.74C2411.28 1768.54 2411.11 1768.49 2410.61 1768.19C2410.38 1767.2 2410.22 1765.95 2410.06 1764.92L2409.81 1764.62C2410.6 1764.34 2412.09 1764.46 2412.93 1764.66C2412.61 1765.11 2412.6 1765.09 2412.48 1765.62C2413.6 1766.86 2422.38 1766.39 2424.35 1766.08C2424.65 1766.04 2424.78 1765.42 2424.9 1765.12L2425.39 1764.96L2425.63 1765.12C2425.25 1765.59 2425.26 1765.43 2425.16 1765.95C2429.21 1766.88 2432.61 1766.25 2436.61 1766.1C2438.98 1765.98 2444.18 1765.32 2446.16 1765.94C2452.06 1767.33 2452.75 1765.68 2457.73 1763.75C2458.89 1759.03 2458.7 1754.75 2460.46 1750.06C2461.4 1747.58 2461.52 1744.09 2462.93 1741.49C2463.18 1741.02 2463.14 1738.25 2463.38 1737.55C2463.75 1736.34 2464.5 1735.32 2464.94 1734.14C2465.47 1732.55 2465.18 1729.9 2465.73 1728.4C2466.95 1724.98 2468.09 1722 2468.77 1718.4C2469.07 1716.86 2469.68 1715.72 2469.94 1713.96C2468.59 1713.91 2466.98 1713.74 2465.77 1714.29C2464.89 1716.18 2459.18 1717.71 2458.13 1719.32C2457.12 1720.86 2455.03 1719.93 2454.25 1721.15C2452.96 1723.14 2450.79 1722.28 2449.58 1724.42C2448.93 1724.31 2448.88 1724.73 2447.89 1724.37C2446 1723.66 2444.05 1723.14 2442.06 1722.82C2442.89 1722.59 2443.37 1722.76 2443.93 1722.32L2443.83 1721.63C2444.54 1719.9 2446.57 1720.62 2446.81 1720.06C2447.86 1717.66 2452.37 1717.17 2454.31 1715.49C2455.59 1712.15 2458.03 1715.1 2458.75 1712.08C2459.51 1711.36 2460.64 1711.4 2461.7 1711.17C2463.48 1710.77 2462.5 1710.29 2463.38 1709.53C2463.82 1709.14 2465.23 1709.1 2465.96 1708.73C2466.73 1708.33 2466.23 1707.76 2467.12 1707.31C2469.12 1706.28 2472.68 1705.35 2473.99 1703.41L2473.57 1702.48L2473.73 1702.94C2472.96 1702.08 2473.02 1701.76 2472.93 1700.59L2472.9 1700.22C2470.46 1699.27 2468.32 1697.74 2465.93 1696.8C2459.21 1694.14 2452.25 1691.48 2446.11 1687.63C2440.65 1684.21 2434.38 1682.86 2429.51 1678.52C2427.75 1676.96 2426.33 1675.16 2424.33 1673.85C2423.43 1673.25 2421.96 1672.19 2421.95 1671.05C2421.84 1669.31 2418.95 1668.65 2417.7 1667.68C2415.93 1666.32 2414.71 1664.5 2413.07 1662.99C2413.01 1662.93 2412.72 1660.92 2412.35 1660.96C2406.11 1661.66 2400.09 1666.28 2394.04 1668.08C2393.88 1669.38 2393.88 1670.59 2393.85 1671.89C2391.77 1672.02 2386.69 1672.08 2384.96 1672.62C2383.11 1673.2 2379.39 1674.31 2377.62 1674.96C2375.16 1675.87 2372.59 1678.08 2369.37 1677.26C2368.41 1675.85 2369.55 1674.6 2370.26 1673.61L2369.85 1673.33L2369.87 1673.06C2371.31 1671.89 2373.35 1672.42 2374.91 1671.47L2374.96 1670.89C2375.76 1669.94 2377.36 1670.32 2378.35 1669.62C2379.03 1669.15 2378.42 1668.52 2379.4 1668.19C2380.8 1667.73 2382.25 1667.76 2383.56 1667.03C2385.36 1666.02 2387.84 1664.5 2389.67 1663.64C2390.13 1663.43 2393.37 1663.41 2394.13 1663.02C2394.89 1662.63 2394.74 1662.48 2395.03 1661.59C2396.27 1660.81 2398.74 1661.16 2400.5 1659.64C2401.79 1658.53 2403.34 1659.23 2404.38 1657.14C2404.78 1656.94 2409.04 1655.9 2409.91 1655.66C2410.14 1654.42 2409.66 1651.01 2409.62 1649.56C2409.61 1649.17 2409.14 1649.09 2408.78 1648.91C2408.1 1647.23 2409.81 1643.31 2409.66 1641.38C2409.59 1640.52 2409.73 1640.09 2409.93 1639.26C2410.66 1629.27 2417.46 1623.02 2423.15 1615.44C2423.84 1614.52 2424.36 1613.1 2424.74 1612.66C2426.16 1611.04 2428.29 1609.56 2429.97 1608.21C2431.35 1607.2 2430.66 1606.87 2431.58 1605.91C2434.69 1605.19 2434.39 1603.67 2437.18 1601.42C2438.66 1599.85 2443.48 1596.89 2444.49 1595.39C2446.28 1592.7 2449.09 1592.81 2450.5 1590.19C2452.31 1589.37 2454.31 1587.83 2456.24 1586.72C2457.03 1584.45 2457.49 1585.9 2459.45 1584.43C2459.51 1584.24 2459.74 1583.56 2459.87 1583.48C2462.07 1582.11 2465.89 1580.87 2467.48 1578.72C2469.64 1578.23 2477.56 1573.47 2478.91 1571.89L2483.42 1570.8C2483.46 1570.71 2483.83 1569.82 2483.82 1569.82C2489.1 1565.37 2508.07 1558.4 2513.54 1557.05C2514.01 1554.81 2513.7 1552.97 2514.23 1550.72L2515.29 1550.37C2515.97 1549.52 2515.91 1545.86 2516.32 1544.45C2517.27 1541.15 2518.31 1538.74 2518.26 1535.27ZM2510.42 1752.07C2511.54 1752.08 2512.88 1751.63 2513.71 1751.82C2514.17 1752.47 2513.99 1752.11 2514.06 1753.06C2513.98 1753.25 2513.78 1753.65 2513.74 1753.83C2515.27 1754.42 2515.99 1754.29 2517.62 1753.97C2517.77 1753.89 2517.9 1753.81 2518.04 1753.73C2518.71 1753.32 2519.8 1752.79 2519.94 1752.19C2520.32 1751.45 2520.41 1751.23 2521.05 1750.74C2523.94 1748.55 2521.5 1748.84 2525.1 1747.95C2526.41 1746.48 2527.24 1745.21 2528.42 1743.66C2528.61 1743.42 2530.05 1743.14 2530.5 1743.05C2532.65 1740.72 2533.51 1741.26 2534.83 1738.23C2534.76 1737.14 2534.57 1735.98 2534.41 1734.89C2533.78 1734.72 2533.05 1734.58 2532.63 1734.11C2531.12 1732.44 2529.26 1730.6 2527.54 1729.15C2526.32 1728.02 2524.27 1727.25 2523.02 1726.27C2519.34 1723.36 2515.71 1721.37 2511.51 1719.31C2509.01 1718.09 2506.72 1716.07 2503.95 1715.22C2503.2 1714.98 2502.57 1713.54 2501.87 1713.31C2498.74 1712.27 2495.84 1719.12 2494.78 1721.17C2493.08 1722.12 2493.47 1722.46 2492.88 1724.24C2492.38 1725.8 2491.69 1725.25 2490.94 1727.01C2489.91 1727.31 2489.54 1727.47 2488.67 1726.7C2488.44 1726.18 2488.25 1725.79 2487.99 1725.29C2489.04 1721.3 2491.99 1717.52 2493.72 1713.74C2493.86 1713.44 2494.64 1712.89 2494.95 1712.67C2495.25 1711.62 2495.41 1710.38 2495.6 1709.29C2491.39 1708.97 2491.44 1708.38 2487.5 1706.94C2485.46 1706.2 2481.65 1705.85 2479.8 1706.92C2478.61 1707.61 2479.73 1708.01 2477.3 1709.26C2476.56 1709.8 2474.26 1715.84 2473.6 1717.05C2471.92 1720.14 2472.08 1723.82 2471.52 1727.16C2471.38 1727.96 2469.72 1729.97 2469.72 1730.77C2469.71 1735.92 2467.54 1740.03 2466.92 1745.09C2466.4 1747.43 2465.16 1749.81 2465.02 1752.19C2464.86 1754.86 2463.72 1756.75 2462.91 1759.38C2460.92 1765.79 2470.69 1765.57 2474.03 1763.57L2474.16 1763.21C2473.5 1762.79 2473.46 1762.97 2472.47 1763.04L2472.75 1762.65C2474.07 1762.21 2480.6 1761.52 2482.32 1761.31C2483.62 1761.29 2484.85 1761.28 2486.15 1761.16L2486.22 1760.88C2483.85 1759.74 2486.01 1760.17 2485.59 1758.62C2485.14 1758.27 2485.08 1758.25 2484.56 1757.99L2484.58 1756.89C2485.58 1757.27 2488.72 1756.49 2490.64 1756.79C2491.01 1756.83 2493.36 1757.02 2493.61 1756.94C2495.92 1756.17 2499.88 1755.4 2501.39 1753.5C2504.49 1752.99 2507.29 1752.71 2510.42 1752.07ZM2486.56 1697.37C2486.73 1694.5 2490.12 1695.78 2492.43 1694.57C2492.56 1694.06 2492.49 1694.22 2492.76 1693.74C2494.23 1693.07 2495.87 1693.2 2497.43 1692.79C2498.2 1692.59 2498.17 1692.26 2498.47 1691.58C2499.36 1691.16 2501.88 1690.78 2503.11 1690.48L2504.13 1688.74C2505.6 1688.35 2505.64 1688.44 2506.77 1687.56C2508.98 1685.84 2515.29 1683.99 2518.03 1683.58C2518.22 1683.02 2518.34 1682.76 2518.61 1682.22C2521.26 1680.48 2521.22 1679.49 2524.57 1678.71C2525.5 1676.62 2527.91 1675.39 2529.99 1674.54C2531.81 1671.58 2536.18 1669.64 2538.86 1667.59C2542.81 1664.56 2547.09 1661.99 2550.93 1658.85C2551.51 1658.37 2552.7 1658.63 2553.42 1657.82L2553.36 1657.12C2554.16 1656.15 2556.14 1656.7 2557.42 1655.67C2557.73 1654.87 2557.68 1654.84 2557.64 1654.01C2555.19 1653.22 2551.4 1652.53 2548.77 1651.67C2547.51 1651.38 2545.66 1651.39 2544.46 1651.01C2540.38 1649.72 2536.56 1649.23 2532.3 1648.95C2530.36 1648.82 2527 1648.94 2525.29 1648.28L2526.14 1647.98L2526.04 1647.8H2526.07L2526.16 1647.96C2525.82 1647.69 2526.03 1647.79 2525.5 1647.74C2524.27 1647.1 2523.26 1647.14 2521.86 1647.12L2520.05 1645.63C2510.08 1645.9 2505.65 1644.12 2494.9 1646.76C2494.52 1647.15 2493.13 1648.55 2493.02 1648.97C2491.93 1653.26 2490.46 1657.44 2489.79 1661.82C2489.68 1662.58 2488.4 1664.52 2488.16 1665.39C2487.85 1666.51 2488.01 1667.69 2487.77 1668.7C2487.54 1669.66 2486.39 1671.11 2486.13 1672.09C2485.77 1673.41 2485.52 1674.75 2485.13 1676.08C2484.7 1677.51 2484.04 1679.06 2483.7 1680.49C2483.38 1681.82 2483.22 1683.28 2482.91 1684.65C2482.56 1686.2 2481.65 1688.14 2481.33 1689.6C2480.81 1691.91 2480.4 1694.35 2479.92 1696.69C2480.92 1699.2 2485.15 1698.75 2486.56 1697.37ZM2483.71 1647.59C2481.23 1646.98 2475.41 1647.9 2472.36 1647.85C2473.14 1648.02 2473.92 1648.19 2474.7 1648.36C2473.37 1648.8 2466.08 1648.83 2464.19 1649C2460.23 1649.36 2456.33 1649.73 2452.38 1650.33C2452.88 1650.75 2452.98 1650.69 2453.65 1650.83C2450.72 1651.24 2447.67 1651.35 2444.87 1651.99C2443.09 1652.39 2442.52 1652.53 2440.69 1652.64C2441.22 1652.85 2441.34 1652.82 2441.93 1652.9C2441.2 1653.72 2435.65 1653.45 2434.2 1653.77C2432.64 1654.11 2430.89 1654.72 2429.37 1654.99L2430.01 1655.43C2427.76 1655.96 2423.99 1656.12 2422.23 1657.1C2422.37 1657.48 2422.25 1657.29 2422.68 1657.62C2420.18 1658.45 2420.33 1657.6 2418.32 1659.59C2420.23 1662.37 2425.77 1666.21 2428.19 1668.65C2428.58 1669.71 2428.92 1670.27 2429.9 1670.93C2433.78 1673.5 2437.27 1677.14 2441.66 1678.75C2442.75 1679.15 2444.61 1679.42 2444.72 1680.52C2447.85 1682.01 2450.8 1683.59 2454.14 1684.49L2454.18 1684.63L2453.76 1684.89C2454.54 1685.61 2457.87 1686.31 2458.05 1686.65C2459.21 1688.89 2461.36 1687.94 2463.62 1689.12L2463.61 1689.32L2463.17 1689.58C2464.62 1690.82 2467.69 1690.68 2469.34 1691.55L2468.41 1691.71C2468.68 1692.01 2473.68 1694.05 2474.04 1694.1C2477.41 1690.7 2480.09 1675.28 2481.96 1670.35C2483.86 1665.36 2485.08 1659.78 2486.54 1654.64C2487.19 1652.08 2488.4 1652.64 2488.39 1649.24L2488.38 1648.92C2487.73 1647.16 2485.34 1647.61 2483.71 1647.59Z" fill="black"/>
<path d="M2485.19 1743.39C2487.29 1743.68 2487.05 1742.77 2488.81 1744.37C2488.85 1745.59 2488.31 1751.06 2488.2 1752.67C2487.35 1753.16 2485.29 1752.53 2484.27 1752.29C2484.11 1751.64 2484.13 1751.58 2484.09 1750.89C2483.71 1750.25 2483.26 1750.16 2482.56 1749.84L2482.25 1749.7C2481.88 1748.02 2482.08 1745.21 2482.18 1743.44L2485.19 1743.39Z" fill="black"/>
<path d="M2487.7 1739.5L2488.08 1739.86C2487.96 1741.96 2487.79 1742.49 2488.81 1744.37C2487.05 1742.77 2487.29 1743.68 2485.19 1743.39C2485.47 1743.23 2485.85 1743.19 2486.21 1743.11C2486.75 1743.02 2486.74 1743.06 2487.15 1742.71C2487.35 1741.64 2487.53 1740.57 2487.7 1739.5Z" fill="black"/>
<path d="M2486.49 1739.62C2487.19 1739.4 2486.93 1739.46 2487.7 1739.5C2487.53 1740.57 2487.35 1741.64 2487.15 1742.71L2486.88 1742.6C2486.52 1741.64 2486.85 1741 2487.08 1739.86L2486.49 1739.62Z" fill="black"/>
<path d="M2486.49 1739.62L2487.08 1739.86C2486.85 1741 2486.52 1741.64 2486.88 1742.6L2487.15 1742.71C2486.74 1743.06 2486.75 1743.02 2486.21 1743.11L2486.49 1739.62Z" fill="black"/>
<path d="M2494.9 1646.76C2505.65 1644.12 2510.08 1645.9 2520.05 1645.63L2521.86 1647.12C2523.26 1647.14 2524.27 1647.1 2525.5 1647.74C2524.24 1647.67 2523.56 1647.51 2522.46 1648.09L2522.51 1648.12L2521.8 1648.33L2521.61 1648.12C2519.63 1646.04 2514.58 1646.63 2511.76 1646.55C2507.76 1646.45 2498.63 1646.15 2495.4 1647.78C2493.79 1648.59 2490.96 1661.97 2490.12 1664.35C2487.55 1671.71 2485.49 1679.41 2483.59 1686.95C2482.61 1690.59 2481.67 1692.56 2480.92 1696.61C2481.72 1698.78 2484.89 1697.2 2486.56 1697.37C2485.15 1698.75 2480.92 1699.2 2479.92 1696.69C2480.4 1694.35 2480.81 1691.91 2481.33 1689.6C2481.65 1688.14 2482.56 1686.2 2482.91 1684.65C2483.22 1683.28 2483.38 1681.82 2483.7 1680.49C2484.04 1679.06 2484.7 1677.51 2485.13 1676.08C2485.52 1674.75 2485.77 1673.41 2486.13 1672.09C2486.39 1671.11 2487.54 1669.66 2487.77 1668.7C2488.01 1667.69 2487.85 1666.51 2488.16 1665.39C2488.4 1664.52 2489.68 1662.58 2489.79 1661.82C2490.46 1657.44 2491.93 1653.26 2493.02 1648.97C2493.13 1648.55 2494.52 1647.15 2494.9 1646.76Z" fill="black"/>
<path d="M2472.47 1763.04C2473.46 1762.97 2473.5 1762.79 2474.16 1763.21L2474.03 1763.57C2470.69 1765.57 2460.92 1765.79 2462.91 1759.38C2463.72 1756.75 2464.86 1754.86 2465.02 1752.19C2465.16 1749.81 2466.4 1747.43 2466.92 1745.09C2467.54 1740.03 2469.71 1735.92 2469.72 1730.77C2469.72 1729.97 2471.38 1727.96 2471.52 1727.16C2472.08 1723.82 2471.92 1720.14 2473.6 1717.05C2474.26 1715.84 2476.56 1709.8 2477.3 1709.26C2477.21 1710.07 2476.93 1713.04 2476.65 1713.4C2474.02 1716.75 2474.06 1721.1 2472.81 1725.09C2472.36 1726.5 2472.3 1728.41 2471.73 1729.91C2470.71 1730.64 2470.81 1731.07 2470.61 1732.28C2470.23 1734.6 2470 1740.63 2468.82 1742.28C2468.43 1742.83 2465.34 1755.48 2465.14 1756.96C2464.96 1758.28 2465.23 1761.69 2464.41 1762.59C2464.15 1762.87 2464.24 1762.78 2464.01 1763.18C2465.03 1764.64 2470.41 1763.57 2472.2 1763.34L2472.47 1763.04Z" fill="black"/>
<path d="M2484.51 1734.7L2484.52 1734.13L2484.77 1733.91L2485.66 1734.17L2485.81 1733.83C2485.11 1733.33 2484.22 1733.45 2483.16 1733.19C2483.4 1732.87 2484.95 1732.83 2485.82 1732.58C2486.49 1730.14 2487.21 1727.71 2487.99 1725.29C2488.25 1725.79 2488.44 1726.18 2488.67 1726.7C2489.54 1727.47 2489.91 1727.31 2490.94 1727.01C2490.73 1727.79 2490.18 1730.6 2490 1730.91L2489.79 1730.79C2489.71 1730.03 2489.78 1729.8 2489.44 1729.16C2488.81 1730.54 2488.08 1734.3 2487.94 1735.81C2487.14 1735.32 2487.93 1734.65 2487.18 1733.89C2486.87 1734.58 2487.07 1734.4 2486.53 1734.81C2485.7 1734.72 2485.34 1734.7 2484.51 1734.7ZM2486.94 1732.91C2487.39 1732.4 2487.24 1730.7 2486.93 1730.11C2486.63 1731.19 2486.48 1731.83 2486.94 1732.91Z" fill="black"/>
<path d="M2486.94 1732.91C2487.39 1732.4 2487.24 1730.7 2486.93 1730.11C2486.63 1731.19 2486.48 1731.83 2486.94 1732.91Z" fill="black"/>
<path d="M2510.42 1752.07C2510.36 1751.82 2510.39 1751.68 2510.39 1751.41C2511.31 1750.71 2515.3 1750.27 2516.48 1750.44C2516.03 1751.13 2516.09 1750.84 2516.01 1751.6C2516.46 1751.84 2516.58 1751.91 2516.97 1752.23C2516.23 1752.31 2516.06 1752.25 2515.42 1752.58C2517.15 1753.4 2517.9 1752.49 2519.72 1752.22L2519.94 1752.19C2519.8 1752.79 2518.71 1753.32 2518.04 1753.73C2517.9 1753.81 2517.77 1753.89 2517.62 1753.97C2516.47 1753.2 2514.96 1753.23 2513.74 1753.83C2513.78 1753.65 2513.98 1753.25 2514.06 1753.06C2513.99 1752.11 2514.17 1752.47 2513.71 1751.82C2512.88 1751.63 2511.54 1752.08 2510.42 1752.07Z" fill="black"/>
<path d="M2484.56 1757.99C2485.08 1758.25 2485.14 1758.27 2485.59 1758.62C2486.01 1760.17 2483.85 1759.74 2486.22 1760.88L2486.15 1761.16C2484.85 1761.28 2483.62 1761.29 2482.32 1761.31C2482.26 1760.72 2482.24 1761 2482.48 1760.45C2483.17 1759.96 2483.28 1759.9 2484.11 1759.75L2483.9 1759.27L2484.56 1757.99Z" fill="black"/>
<path d="M2484.51 1734.7C2485.34 1734.7 2485.7 1734.72 2486.53 1734.81C2487.07 1734.4 2486.87 1734.58 2487.18 1733.89C2487.93 1734.65 2487.14 1735.32 2487.94 1735.81C2487.17 1736.1 2486.86 1736.03 2486.05 1736.01L2485.75 1736C2485.05 1736.59 2485.22 1736.7 2484.92 1737.81L2484.99 1737.06L2484.76 1737.2L2484.51 1734.7Z" fill="black"/>
<path d="M2488.38 1648.92C2487.73 1647.16 2485.34 1647.61 2483.71 1647.59C2484.75 1649.24 2486.58 1648.92 2488.38 1648.92Z" fill="black"/>
<path d="M2489.63 1755.94C2490.36 1756.17 2490.03 1756.04 2490.64 1756.79C2488.72 1756.49 2485.58 1757.27 2484.58 1756.89L2484.42 1756.1C2486.83 1756.06 2487.17 1756.18 2489.38 1756.37L2489.63 1755.94Z" fill="black"/>
<path d="M2484.42 1756.1L2484.72 1755.73C2486.33 1755.49 2488.03 1755.66 2489.63 1755.94L2489.38 1756.37C2487.17 1756.18 2486.83 1756.06 2484.42 1756.1Z" fill="black"/>
<path d="M2517.62 1753.97C2516.47 1753.2 2514.96 1753.23 2513.74 1753.83C2515.27 1754.42 2515.99 1754.29 2517.62 1753.97Z" fill="black"/>
<path d="M2682.34 1697.16C2682.16 1686.59 2685.22 1680.34 2689.38 1671.22C2690.11 1669.61 2689.24 1664.81 2689.7 1663.11C2690.91 1658.62 2693.39 1654.3 2695.47 1650.15C2696.33 1648.47 2696.39 1645.44 2698.59 1645.22C2703.27 1646.96 2701.41 1655.39 2699.68 1658.66C2699.46 1659.08 2700.01 1661.27 2699.69 1661.71C2699.44 1662.01 2697.92 1664.02 2697.94 1664.15C2698.51 1667.33 2700.19 1667.88 2698.33 1671.18C2697.47 1672.72 2697.36 1676.09 2697.35 1677.58C2696.75 1678.33 2696.24 1678.89 2695.79 1679.81C2695.57 1680.27 2693.16 1688.18 2693.44 1687.85L2693.06 1687.35C2692.85 1687.66 2692.8 1687.66 2692.82 1688.01C2692.96 1690.55 2691.66 1691.31 2691.02 1693.24C2689.8 1696.95 2688.66 1700.69 2687.32 1704.37C2686.95 1706.67 2683.98 1710.76 2683.78 1712.83C2683.53 1715.38 2681.51 1722.87 2682.89 1725.02C2684.2 1727.07 2687.95 1724.73 2689.68 1725.06C2690.04 1725.13 2690.02 1725.36 2690.19 1725.69C2690.14 1726.9 2689.68 1727.19 2689.02 1728.17L2688.83 1728.81C2686.49 1730.38 2684.36 1733.63 2681.12 1733.57C2678.18 1731.31 2679.16 1727.98 2677.62 1725.08C2677.15 1724.21 2675.69 1724.3 2675.47 1723.12C2674.77 1721 2677.64 1719.37 2677.77 1717.9C2678.11 1714.3 2679.13 1710.71 2679.65 1707.12C2680.2 1703.31 2680.1 1700.42 2682.34 1697.16Z" fill="black"/>
<path d="M2700.35 1708.66C2700.22 1705.23 2704.23 1703.35 2701 1700.96L2701.09 1700.69L2701.82 1700.79C2703.1 1699.48 2704.7 1699.87 2706.47 1699.89C2706.66 1701.62 2707.06 1703.19 2707.24 1704.92C2707.36 1706.01 2707.23 1708.05 2707.79 1708.85C2708.15 1708.97 2708.81 1709.08 2708.87 1709.35C2709.24 1711.17 2709.17 1713.73 2709.38 1715.62C2710.73 1716.69 2711.1 1717.56 2712.17 1718.8C2712.72 1718.71 2715.35 1718.37 2715.43 1717.95C2715.71 1716.28 2718.87 1715.95 2719 1715.55C2719.69 1713.38 2720.28 1714.31 2722.99 1713.71C2723.6 1712.12 2724.32 1709.82 2725.47 1708.64C2726.45 1708.57 2727.06 1708.36 2727.84 1708.74C2727.97 1709.61 2727.92 1710.2 2727.89 1711.08C2727 1714.11 2726.05 1712.92 2725.05 1717.3C2723.22 1718.14 2720.82 1720.3 2720.11 1722.22C2716.62 1723.33 2713.55 1726.77 2709.86 1724.66L2709.55 1723.41C2708.57 1722.22 2706.92 1723.33 2707.03 1721.11C2707.05 1720.54 2705.25 1720.37 2705.06 1719.9C2704.55 1718.61 2704.75 1717.55 2704.09 1716.26C2703.7 1716.11 2703.39 1715.98 2703.02 1715.81C2702.41 1714.06 2704.76 1712.08 2704.68 1709.85C2703.95 1708.57 2702.32 1709.29 2701.21 1709.75C2700.89 1708.78 2701.18 1709.12 2700.35 1708.66Z" fill="black"/>
<path d="M2481.8 1577.26C2481.77 1576.59 2481.69 1576.89 2482.01 1576.32C2489.57 1571.81 2496.12 1568.28 2504.58 1565.61C2507.28 1564.76 2510.32 1562.24 2513.12 1565L2512.91 1565.28L2513.03 1565.6L2513.69 1565.64C2513.54 1564.38 2513.36 1564.13 2513.9 1563.07C2514.74 1562.52 2514.3 1562.65 2515.26 1562.6C2515.71 1564.13 2516.51 1570.09 2515.55 1570.82C2513.03 1572.73 2514.21 1574.62 2513.31 1577.49C2513.07 1578.24 2511.89 1578.01 2511.96 1579.37C2511.64 1580.83 2511.59 1584.89 2510.82 1585.75L2510.3 1585.74C2509.64 1587.6 2509.55 1592.29 2507.92 1592.96C2507.71 1593.74 2507.69 1593.5 2508.24 1594.45L2508.38 1594.69C2508.22 1595.2 2508.17 1595.17 2507.76 1595.46C2506.36 1596.46 2506.41 1600.11 2506.31 1601.57C2506.24 1600.71 2506.27 1600.12 2505.86 1599.36C2505.06 1599.82 2505.26 1602.05 2505 1602.92C2504.53 1606.59 2504.01 1607.38 2502.67 1610.72C2501.92 1612.6 2502.23 1616.64 2501.62 1618.52C2500.82 1621.01 2500.06 1623.29 2499.41 1625.84C2498.96 1626.17 2498.72 1626.31 2498.23 1626.58C2496.67 1629.2 2498.7 1635.87 2495.89 1638.46C2495.61 1638.72 2495.74 1641.29 2495.76 1641.89C2498.49 1642.12 2500.96 1641.81 2503.67 1641.79C2507.83 1641.75 2512 1641.82 2516.17 1641.84C2522.22 1642.02 2528.18 1643.02 2534.33 1642.89C2535.05 1643.01 2535.77 1643.14 2536.48 1643.29L2536.76 1643.72C2538.1 1644.2 2539.13 1644.14 2540.55 1644.18C2542.54 1644.63 2547.56 1644.86 2548.67 1645.61L2548.16 1645.97C2549.32 1646.82 2552.04 1646.28 2553.51 1646.6C2556.59 1647.28 2558.89 1649.4 2562.15 1649.49C2563.46 1649.52 2564.93 1649.83 2566.25 1649.76L2565.48 1650.12L2565.48 1650.47C2566.78 1651.25 2568.89 1651.03 2570.33 1650.7C2568.43 1652.98 2564.95 1650.74 2562.76 1650.41C2559.16 1649.86 2556.28 1648.63 2552.92 1647.38C2552.39 1647.19 2549.51 1647.29 2548.81 1647.3C2547.88 1646.66 2547.01 1646.07 2545.92 1645.76C2543.85 1645.16 2541.68 1645.12 2539.56 1644.83C2532.28 1643.85 2524.72 1642.78 2517.37 1642.69C2514.58 1642.66 2497.25 1643.05 2496.12 1642.49C2495.61 1642.23 2495.27 1641.93 2495.07 1641.39C2493.96 1638.39 2496.18 1635.62 2496.59 1632.75C2496.8 1631.3 2496.11 1629.78 2496.43 1628.35C2496.92 1626.11 2498.85 1624.51 2499.37 1622.26C2500.41 1617.79 2500.86 1613.34 2502.19 1608.89C2502.59 1607.56 2503.43 1606.45 2503.84 1605.18C2504.33 1603.65 2503.61 1602.36 2504.42 1600.72C2504.46 1600.63 2504.51 1600.55 2504.55 1600.46C2505.44 1598.21 2506.21 1595.92 2506.87 1593.6L2506.86 1593.75C2507.9 1591.03 2508.59 1588.76 2509.09 1585.9C2509.23 1585.13 2510.4 1583.58 2510.61 1582.7C2510.95 1581.18 2510.95 1579.85 2511.4 1578.32C2512.39 1574.95 2514.05 1571.64 2514.65 1568.19C2514.78 1567.47 2514.59 1566.86 2514.13 1566.3C2509.79 1565.11 2507.43 1583.1 2506.35 1586.34C2504.95 1590.56 2501.71 1596.51 2502.65 1600.6C2502.8 1601.22 2503.46 1601.47 2503.29 1602.59C2502.61 1602.8 2502.55 1602.77 2501.87 1602.58L2502.09 1602.2C2501.34 1601.18 2501.7 1602.24 2500.59 1601.47C2500.56 1600.01 2501.21 1599.12 2501.52 1597.77C2502.71 1592.58 2505.11 1589.01 2505.3 1583.59L2506.56 1582.14C2507.3 1577.49 2508.27 1571.84 2510.53 1567.56C2511.04 1566.57 2511.5 1566.27 2511.55 1565.08C2511.34 1564.78 2511.03 1564.35 2510.6 1564.47C2505.49 1565.98 2496.65 1569.33 2492.09 1571.51C2490.46 1572.3 2482.32 1576.85 2481.8 1577.26ZM2505.89 1586.53C2506.25 1585.81 2506.33 1585.77 2506.34 1584.95C2505.94 1583.98 2505.89 1584.31 2505.52 1583.67C2505.52 1584.43 2505.37 1586.06 2505.7 1586.57L2505.89 1586.53Z" fill="black"/>
<path d="M2505.52 1583.67C2505.89 1584.31 2505.94 1583.98 2506.34 1584.95C2506.33 1585.77 2506.25 1585.81 2505.89 1586.53L2505.7 1586.57C2505.37 1586.06 2505.52 1584.43 2505.52 1583.67Z" fill="black"/>
<path d="M2695.95 1644.74C2698.69 1644.49 2699.27 1644.52 2701.87 1645.26C2702.53 1650.06 2702.69 1654.86 2701.31 1659.56C2700.6 1661.97 2701.25 1663.22 2698.55 1664.26C2698.92 1664.52 2699.94 1665.26 2700.04 1665.61C2700.83 1668.5 2698.02 1677.18 2697.32 1679.83L2697.12 1680C2695.33 1681.56 2695.82 1684.68 2694.83 1687.05C2694.6 1687.05 2694.38 1687.05 2694.15 1687.04C2693.37 1689.24 2693.24 1691.93 2692.52 1694.35C2689.86 1695.99 2691.22 1696.83 2690.41 1699.85C2690.21 1700.61 2689.03 1701.4 2688.78 1702.09C2688.25 1703.54 2688.73 1705.93 2687.47 1706.92C2686.17 1707.93 2686.51 1708.98 2686.05 1710.56C2685.73 1711.66 2685.04 1712.59 2684.69 1713.84C2683.8 1717.11 2683.79 1720.96 2683.38 1724.34C2683.35 1724.62 2683.62 1724.95 2683.87 1725.09C2684.73 1725.53 2685.35 1725.49 2686.23 1725.25C2687.61 1724.04 2686.84 1722.96 2687.32 1721.34C2687.41 1721.79 2687.77 1723.98 2688 1724.07C2688.99 1724.45 2691.2 1724.6 2692.25 1724.32L2692.36 1724.08C2691.38 1723.46 2689.08 1723.97 2688.23 1723.45C2688.4 1722.91 2688.27 1723.03 2688.63 1722.68C2689.28 1723.22 2692.31 1723.51 2693.21 1723.56C2691.35 1726.01 2691.45 1727.55 2689.02 1728.17C2689.68 1727.19 2690.14 1726.9 2690.19 1725.69C2690.02 1725.36 2690.04 1725.13 2689.68 1725.06C2687.95 1724.73 2684.2 1727.07 2682.89 1725.02C2681.51 1722.87 2683.53 1715.38 2683.78 1712.83C2683.98 1710.76 2686.95 1706.67 2687.32 1704.37C2688.66 1700.69 2689.8 1696.95 2691.02 1693.24C2691.66 1691.31 2692.96 1690.55 2692.82 1688.01C2692.8 1687.66 2692.85 1687.66 2693.06 1687.35L2693.44 1687.85C2693.16 1688.18 2695.57 1680.27 2695.79 1679.81C2696.24 1678.89 2696.75 1678.33 2697.35 1677.58C2697.36 1676.09 2697.47 1672.72 2698.33 1671.18C2700.19 1667.88 2698.51 1667.33 2697.94 1664.15C2697.92 1664.02 2699.44 1662.01 2699.69 1661.71C2700.01 1661.27 2699.46 1659.08 2699.68 1658.66C2701.41 1655.39 2703.27 1646.96 2698.59 1645.22C2696.39 1645.44 2696.33 1648.47 2695.47 1650.15C2693.39 1654.3 2690.91 1658.62 2689.7 1663.11C2689.24 1664.81 2690.11 1669.61 2689.38 1671.22C2685.22 1680.34 2682.16 1686.59 2682.34 1697.16C2680.1 1700.42 2680.2 1703.31 2679.65 1707.12C2679.13 1710.71 2678.11 1714.3 2677.77 1717.9C2677.64 1719.37 2674.77 1721 2675.47 1723.12C2675.69 1724.3 2677.15 1724.21 2677.62 1725.08C2679.16 1727.98 2678.18 1731.31 2681.12 1733.57C2684.36 1733.63 2686.49 1730.38 2688.83 1728.81C2688.76 1729.05 2688.19 1731.1 2688.15 1731.13L2687.77 1731.33C2684.56 1733.03 2682.77 1736.24 2678.54 1733.64L2678.78 1733.25C2678.78 1732.69 2678.83 1732.93 2678.7 1732.51C2678.91 1729.99 2678.15 1727.79 2677.37 1725.43L2675.36 1725.14L2674.63 1724.67C2673.92 1719.54 2676.15 1720.66 2676.9 1716.68C2677.7 1712.48 2677.75 1708.78 2679.04 1704.55C2679.99 1701.42 2678.73 1699.81 2681.36 1696.72C2681.49 1690.7 2681.85 1684.76 2684.57 1679.28C2685.54 1677.32 2687.64 1673.34 2688.21 1671.26C2689.06 1668.14 2687.95 1663.94 2689.26 1660.63C2690.51 1657.53 2692.05 1654.4 2693.62 1651.45C2695.14 1648.59 2695.5 1647.93 2695.95 1644.74Z" fill="black"/>
<path d="M2571.04 1541.91C2574.45 1541.72 2577.81 1541.73 2581.23 1541.66C2587.24 1541.53 2594.56 1541.05 2600.39 1542.46L2599.48 1542.51C2603.75 1543.53 2608.58 1543.14 2612.26 1544.72L2611.29 1544.64C2612.09 1544.91 2619.05 1546.7 2619.07 1546.74L2618.37 1547C2619.68 1548.3 2623.41 1547.63 2624.08 1549.6C2624.22 1550.01 2627.2 1550.64 2627.72 1551.3L2627.7 1551.71C2628.97 1552.94 2631.07 1552.09 2631.2 1554.41C2631.21 1554.72 2633.3 1555.13 2633.88 1555.74L2633.89 1556.58C2634.42 1557.07 2634.59 1557.06 2635.29 1557.27C2635.64 1557.78 2635.56 1557.92 2635.57 1558.57C2634.73 1560.23 2634.13 1558.82 2632.37 1561.17L2631.82 1560.96L2632.28 1560.64C2631.08 1559.2 2629.94 1560.68 2628.97 1558.03C2626.88 1556.55 2623.96 1555.88 2621.84 1554.5C2621.36 1554.19 2622.17 1553.58 2620.17 1553.11C2616.82 1552.32 2614.5 1552.61 2611.76 1550.42C2611.33 1550.08 2605.99 1549.93 2605.19 1549.63C2603.57 1549.14 2603.96 1548.41 2601.42 1548.07C2596.62 1547.43 2591.69 1548.21 2587.06 1547.73L2587.23 1547.11C2586.58 1546.56 2586.37 1546.69 2585.38 1546.51C2585.84 1546.36 2598.28 1546.92 2599.51 1547.13L2599.43 1547.16C2600.17 1547.38 2602.42 1547.67 2603.29 1547.75C2608.61 1548.26 2612.41 1549.84 2617.33 1551.46C2616.71 1551.71 2616.82 1551.53 2616.51 1551.95C2617.64 1552.32 2619.98 1552.13 2620.78 1552.47C2623.67 1553.73 2626.21 1555.95 2629.14 1557.19C2630.2 1557.63 2632.45 1560.55 2633.51 1558.13C2632.98 1554.89 2624.7 1551.21 2622.21 1549.27C2621.8 1548.95 2619.74 1548.65 2619.16 1548.32C2615.24 1546.08 2610.72 1545.87 2606.59 1543.99C2606.09 1543.77 2602.67 1544.3 2601.72 1544.03C2593.31 1541.6 2585.36 1542.36 2576.75 1542.69C2575.24 1542.74 2574.07 1542.93 2572.42 1542.88C2573.16 1542.6 2573.32 1542.62 2573.93 1542.14C2572.84 1542.13 2572.1 1542.13 2571.04 1541.91Z" fill="black"/>
<path d="M2547.94 1437.97C2546.88 1438.17 2547.2 1438.11 2546.03 1437.72C2544.58 1435.75 2546.39 1433.75 2547.94 1432.63C2548.56 1429.13 2547.41 1425.23 2548.89 1421.89C2549.09 1421.45 2551.73 1419.87 2552.51 1420.01L2552.62 1420.34C2553.99 1424.34 2555.89 1425.19 2555.91 1430.35C2552.98 1431.34 2553.18 1431.28 2550.91 1433.31C2550.59 1435.33 2550.38 1437.1 2550.17 1439.13C2549.89 1439.15 2549.72 1439.12 2549.44 1439.1C2549.07 1439.65 2549.12 1439.35 2549.16 1440C2549.33 1439.33 2549.14 1438.75 2549 1438.06L2548.39 1438.14L2547.94 1437.97Z" fill="black"/>
<path d="M2453.44 1836.7C2453.86 1837.91 2454.59 1841.14 2455.57 1841.59L2455.91 1841.29C2455.96 1841.14 2455.7 1833.3 2455.7 1832.39C2455.69 1823.59 2456.23 1814.86 2456.09 1806.06C2456.07 1804.45 2457.65 1802.65 2457.68 1801.01C2457.97 1792.87 2458.1 1785.09 2460.08 1777.13C2460.35 1776.05 2460.15 1773.16 2460.7 1772.48L2461.37 1772.45C2461.25 1775.26 2460.91 1777.96 2460.69 1780.77C2460.49 1783.45 2460.44 1786.17 2460.13 1788.85C2459.97 1790.24 2459.09 1791.2 2458.95 1792.57C2458.58 1796.11 2458.78 1800.42 2458.24 1803.87C2458.1 1804.19 2457.75 1804.95 2457.69 1805.25L2457.46 1804.82C2456.4 1805.65 2457.24 1816.65 2457.14 1818.6C2457.08 1819.66 2456.81 1821.32 2456.8 1822.33C2456.91 1824.68 2456.66 1839.3 2457.24 1840.09L2457.91 1839.85C2458.22 1840.62 2457.96 1842.45 2457.73 1843.27C2457.32 1842.78 2457.36 1841.17 2457.34 1840.45C2457.11 1841.44 2456.85 1843.02 2456.27 1843.75C2455.67 1844.1 2455.25 1843.99 2454.55 1843.95L2454.26 1843.63L2454.47 1843.4L2455.93 1843.37C2455.31 1842.7 2455.11 1842.58 2454.2 1842.62C2453.86 1841.45 2453.73 1840.24 2453.43 1839.24C2453.5 1838.43 2453.46 1837.53 2453.44 1836.7Z" fill="black"/>
<path d="M2544.58 1668.18C2545.52 1666.48 2551.77 1663.7 2553.67 1662.5C2557.22 1660.26 2560.61 1657.55 2564.36 1655.65C2564.68 1655.49 2565.82 1655.58 2566.24 1655.58C2568.13 1655.61 2569.94 1656.38 2571.26 1657.74C2571.57 1658.06 2571.91 1658.52 2572.17 1658.89C2571.92 1662.8 2571.57 1664.18 2570.07 1667.87C2569.56 1669.1 2570.34 1672.87 2569.95 1674.35C2569.19 1678.35 2567.54 1682.09 2566.83 1686.13C2566.67 1687.04 2565.58 1688.91 2565.51 1689.65C2565.17 1692.99 2563.97 1695.62 2563.09 1698.74L2562.9 1697.46C2561.94 1701.34 2563.81 1700.86 2560.75 1705.09L2560.18 1705.06C2560.53 1703.26 2561.4 1702.3 2561.62 1701.12C2562.35 1697.31 2563.72 1690.16 2565.38 1686.62L2566.09 1685.2C2566.67 1680.76 2567.71 1677.85 2568.99 1673.6C2569.31 1672.53 2568.62 1669.64 2568.94 1668C2569.43 1665.43 2571.27 1661.32 2570.93 1658.88C2570.16 1658.5 2567.17 1656.77 2566.69 1656.73C2562.97 1656.43 2556.06 1662.29 2552.96 1664.37C2551.23 1665.52 2549.77 1665.18 2549.12 1665.64C2546.61 1667.43 2547.54 1667.24 2544.58 1668.18Z" fill="black"/>
<path d="M2528.08 1497.39C2528.16 1496.15 2528.96 1494.61 2529.35 1493.38C2530.43 1489.99 2531.49 1486.58 2532.42 1483.15C2532.91 1481.33 2533.01 1479.5 2533.77 1477.76C2534.25 1479.11 2533.87 1479.74 2534.61 1480.87C2535.17 1481.01 2535.17 1480.95 2535.77 1480.94C2536.68 1480.51 2536.74 1480.28 2537.33 1479.42C2538.01 1479.73 2538.14 1479.71 2538.57 1480.33C2536.94 1481.09 2536.28 1482.28 2535.59 1483.98C2534.74 1486.2 2534.7 1488.63 2534.22 1490.93C2534 1491.93 2532.64 1492.51 2532.42 1493.51C2532.15 1494.73 2532.22 1496.32 2532.16 1497.48C2532.11 1498.31 2532.17 1500.08 2531.56 1500.48C2530.64 1501.08 2530.62 1502.12 2530.49 1503.1C2530.37 1504.24 2530.64 1504.23 2531.58 1504.71C2531.91 1505.33 2531.8 1505.47 2531.69 1506.17C2531.17 1506.45 2531.25 1506.41 2530.7 1506.6C2529.59 1508.7 2528.66 1510.31 2527.8 1512.57C2527.13 1514.33 2527.32 1518.31 2526.81 1519.04C2526.37 1518.75 2526.51 1518.86 2526.14 1518.44C2526.04 1517.29 2526.18 1516.34 2525.59 1515.55C2524.58 1515.51 2524.27 1515.94 2523.25 1516.54C2523.69 1514 2524.8 1514.42 2525.05 1512.2L2525.51 1512.19L2525.49 1514.02L2525.81 1514.16L2526.19 1514.02L2526.29 1514.46L2526.67 1514.57C2526.76 1514.31 2526.89 1514.16 2526.82 1513.88C2526.2 1511.47 2528.98 1508.56 2530.07 1506.39C2529.88 1505.38 2529.7 1504.39 2529.64 1503.32C2529.43 1499.22 2532.63 1495.31 2531.77 1491.33C2531.72 1491.08 2531.38 1491.09 2531.15 1491.04C2529.62 1492 2530.17 1497.79 2528.67 1499.12L2528.4 1498.99L2528.32 1497.51L2528.08 1497.39Z" fill="black"/>
<path d="M2639.01 1715.35C2644.88 1713.75 2648.05 1714.18 2653.82 1715.08C2655.58 1715.35 2657.21 1715.09 2659.16 1715.67C2658.92 1715.73 2658.69 1715.8 2658.46 1715.86C2660.2 1716.51 2663.17 1716.47 2664.95 1716.02L2664.65 1715.55C2666.14 1715.15 2668.73 1715.59 2670.32 1715.39C2671.35 1715.26 2672.14 1714.23 2673.29 1714.21C2673.88 1714.72 2673.62 1714.43 2673.94 1715.31C2670.67 1716.56 2667.75 1716.36 2664.3 1717.23L2665.39 1717.24C2663.42 1717.69 2660.93 1718.19 2658.96 1717.54C2657.93 1717.2 2657.15 1716.58 2655.96 1716.41C2650.83 1715.68 2644.6 1714.7 2639.57 1716.3C2638.07 1716.78 2638.72 1717.79 2636.16 1718.89C2635.42 1721.43 2634.73 1720.89 2633.91 1722.56C2632.28 1725.87 2632.95 1730.66 2633.69 1734.18C2638.05 1739.23 2640.33 1739.7 2647 1739.41C2646.95 1739.76 2646.9 1740.07 2646.82 1740.42C2645.29 1741.46 2644.87 1740.49 2643.47 1740.35C2640.27 1740.03 2637.36 1739.41 2634.92 1737.06C2633.15 1735.36 2630.85 1731.17 2630.95 1728.61C2631.17 1723.08 2635.55 1718.78 2639.01 1715.35Z" fill="black"/>
<path d="M2607.83 1725.11C2607.34 1725 2606.31 1724.88 2605.78 1724.81C2604.74 1722.49 2607.83 1721 2607.81 1720.54C2607.59 1716.89 2611.44 1715.73 2612.64 1713.06C2613.64 1710.84 2614.13 1712.23 2614.8 1711.11C2615.71 1709.56 2616.17 1707.59 2617.29 1706.17C2617.86 1705.48 2619.35 1706.68 2619.76 1707.26C2619.32 1711.41 2616.24 1715.29 2613.75 1718.57C2611.84 1721.08 2608.52 1721.87 2607.83 1725.11Z" fill="black"/>
<path d="M2537.63 1463.45C2538.59 1463.21 2540.32 1462.62 2541.12 1463.29C2542.95 1464.83 2541.47 1468.26 2539.73 1469.26C2538.9 1470.64 2539.27 1472.24 2538.58 1473.22L2537.9 1473.15L2537.83 1473.43L2538.04 1473.66C2539.81 1475.66 2538.97 1477.8 2538.57 1480.33C2538.14 1479.71 2538.01 1479.73 2537.33 1479.42C2537.99 1477.61 2538.01 1473.94 2536.17 1473.08C2534.55 1473.99 2534.41 1479.12 2534.61 1480.87C2533.87 1479.74 2534.25 1479.11 2533.77 1477.76C2534.46 1476.06 2534.23 1474.73 2534.58 1472.97C2534.77 1472.06 2536 1470.29 2536.21 1469.44C2536.76 1467.19 2536.87 1465.72 2537.63 1463.45Z" fill="black"/>
<path d="M2477.61 1766.5C2480.6 1763.65 2484.64 1763.35 2488.4 1762.28C2494.08 1760.67 2500.15 1761.23 2506.05 1761.58C2505.21 1761.76 2503.01 1761.65 2501.92 1761.7C2502.06 1761.72 2502.21 1761.74 2502.35 1761.75C2505.64 1763.3 2519.46 1761.79 2521.09 1762.75C2520.33 1762.68 2519.4 1762.48 2518.78 1762.84C2518.6 1763.09 2518.55 1763.22 2518.27 1763.37C2520.12 1763.78 2523.14 1763.4 2525.23 1763.58C2518.38 1763.99 2510.94 1764.05 2504.09 1763.53C2501.21 1763.31 2497.47 1761.82 2494.01 1761.99C2491.39 1762.12 2491.53 1763.21 2490.17 1763.61C2487.86 1764.29 2482.7 1763.92 2480.82 1765.53C2479.68 1766.51 2479.23 1766.33 2477.61 1766.5Z" fill="black"/>
<path d="M2523.25 1516.54C2524.27 1515.94 2524.58 1515.51 2525.59 1515.55C2526.18 1516.34 2526.04 1517.29 2526.14 1518.44C2525.35 1521.47 2525.28 1524.24 2524.63 1526.88L2524.42 1526.95L2524.12 1526.15L2523.94 1526.17C2523.44 1528.01 2522.89 1531.19 2522.75 1533.1L2520.2 1531.42L2520.05 1531.23L2519.78 1531.33C2519.74 1531.9 2519.72 1532.01 2519.59 1532.56L2519.42 1532.39C2519.33 1530.95 2520.43 1529.46 2520.6 1528.02C2520.82 1526.27 2520.59 1524.92 2521.35 1523.23C2523.11 1521.93 2523.05 1518.65 2523.25 1516.54Z" fill="black"/>
<path d="M2607.69 1716.17L2607.78 1716.19C2607.93 1716.03 2608.21 1714.18 2608.35 1713.65C2609.07 1713.3 2609.25 1713.47 2610.19 1713.53L2610.45 1713.16C2610.62 1710.97 2612.26 1709.33 2613.6 1707.57C2614.63 1707.41 2614.78 1707.49 2615.58 1706.77L2615.95 1707.49C2616.51 1707.07 2616.41 1705.61 2616.6 1705.48C2618.08 1704.46 2618.7 1703.58 2619.77 1702.19C2619.66 1704.85 2619.57 1704.64 2619.76 1707.26C2619.35 1706.68 2617.86 1705.48 2617.29 1706.17C2616.17 1707.59 2615.71 1709.56 2614.8 1711.11C2614.13 1712.23 2613.64 1710.84 2612.64 1713.06C2611.44 1715.73 2607.59 1716.89 2607.81 1720.54C2607.83 1721 2604.74 1722.49 2605.78 1724.81C2606.31 1724.88 2607.34 1725 2607.83 1725.11C2606.9 1725.25 2605.96 1725.37 2605.02 1725.47C2605.02 1725.91 2605.02 1726.16 2604.97 1726.6C2604.5 1726.65 2604.72 1726.71 2604.31 1726.4C2604 1725.18 2605.2 1722.88 2605.66 1721.55C2605.24 1721.09 2605.24 1721.15 2604.68 1720.87L2604.62 1720.06L2605.83 1720.22C2607.34 1719.36 2606.43 1718.37 2606.97 1716.42L2607.69 1716.17Z" fill="black"/>
<path d="M2528.08 1497.39L2528.32 1497.51L2528.4 1498.99L2528.67 1499.12C2530.17 1497.79 2529.62 1492 2531.15 1491.04C2531.38 1491.09 2531.72 1491.08 2531.77 1491.33C2532.63 1495.31 2529.43 1499.22 2529.64 1503.32C2529.7 1504.39 2529.88 1505.38 2530.07 1506.39C2528.98 1508.56 2526.2 1511.47 2526.82 1513.88C2526.89 1514.16 2526.76 1514.31 2526.67 1514.57L2526.29 1514.46L2526.19 1514.02C2526.15 1513.27 2526.23 1512.06 2525.87 1511.57L2525.51 1512.19L2525.05 1512.2C2525.28 1508.49 2526.33 1506.31 2527.32 1502.85C2527.7 1501.53 2527.93 1498.84 2528.08 1497.39Z" fill="black"/>
<path d="M2547.94 1437.97L2548.39 1438.14C2548.37 1438.96 2548.26 1439.59 2548.57 1440.34C2548.98 1439.72 2548.95 1438.83 2549 1438.06C2549.14 1438.75 2549.33 1439.33 2549.16 1440C2549.12 1439.35 2549.07 1439.65 2549.44 1439.1C2549.72 1439.12 2549.89 1439.15 2550.17 1439.13C2550.01 1439.81 2549.92 1440.17 2549.38 1440.66C2548.21 1441.72 2548.21 1443.45 2548.03 1445.05C2547.38 1445.66 2546.88 1446.08 2546.41 1446.82C2545.87 1447.67 2546.07 1451.52 2545.22 1451.79C2542.18 1452.79 2544.11 1457.68 2542.82 1458.92C2542.29 1457.61 2543.22 1455.7 2542.21 1453.08C2541.95 1454.25 2542.02 1455.58 2542.02 1456.8L2541.72 1456.76C2541.63 1456.25 2541.54 1453.79 2541.67 1453.45C2542.3 1451.84 2543.67 1445.76 2544.53 1444.7L2545.46 1444.61C2546.2 1443.49 2545.98 1439.95 2547.11 1439.53L2547.27 1440.51L2547.53 1440.6C2547.91 1439.88 2547.88 1438.85 2547.94 1437.97Z" fill="black"/>
<path d="M2415.13 1653.58L2414.63 1653.55C2409.27 1649.84 2415.03 1637.76 2416.72 1632.88C2417.84 1629.63 2428.95 1614.18 2431.68 1613.55C2429.92 1617.08 2427.35 1616.84 2425.94 1621.06C2423.55 1622.43 2422.58 1626.48 2419.92 1628.17C2419.1 1631.23 2418.44 1630.47 2417.81 1632.02C2416.81 1634.45 2416.14 1638.04 2415.02 1640.6C2414.77 1641.34 2414.55 1643.74 2414.51 1644.55C2414.16 1644.89 2413.95 1645.1 2413.57 1645.41C2412.52 1648.45 2413.06 1648.97 2414.52 1651.48C2414.67 1652.22 2414.73 1652.99 2415.13 1653.58Z" fill="black"/>
<path d="M2413.43 1753.12C2414.16 1753.14 2414.23 1753.15 2414.93 1753.32C2414.59 1753.72 2414.75 1753.51 2414.44 1753.93C2416.46 1754.99 2419.26 1755.37 2416.05 1758.26C2415.68 1758.59 2415.47 1761.62 2415.39 1762.35C2414.41 1762.85 2411.82 1761.62 2410.28 1761.32L2410.72 1757.89C2413.08 1756.17 2412.17 1755.99 2413.33 1753.34L2413.43 1753.12Z" fill="black"/>
<path d="M2647.63 1649.87C2647.78 1649.06 2647.65 1648.06 2647.12 1647.41C2644.76 1645.94 2638.85 1649.22 2636.71 1647.15C2636.81 1645.85 2637.96 1644.03 2638.62 1642.87C2639.21 1642.56 2640.14 1642.65 2640.85 1642.65C2641.9 1642.95 2642.43 1642.84 2642.85 1643.9C2641.05 1643.8 2639.68 1642.68 2638.34 1644.98C2638.4 1647.46 2643.68 1646.59 2645.15 1645.6V1645.34C2644.39 1645 2644.32 1645.14 2644.07 1644.56L2644.36 1644.16L2645.11 1644.15C2646.45 1644.35 2647.95 1644.55 2649.27 1644.81C2649.36 1645.71 2649.37 1646.83 2649.85 1647.56C2650.27 1647.76 2650.36 1647.81 2650.81 1647.98C2650.99 1648.62 2651.03 1648.33 2650.84 1648.88L2650.39 1647.88L2650.01 1647.86L2649.73 1648.19L2649.94 1648.77L2649.62 1649.19C2650.32 1649.16 2650.56 1649.11 2651.26 1649.23L2651.55 1649.54C2649.9 1649.82 2649 1649.31 2647.63 1649.87Z" fill="black"/>
<path d="M2453.89 1794.8C2454.86 1797.85 2453.55 1803.42 2453.59 1806.7C2453.62 1809.48 2453.57 1812.31 2453.7 1815.1C2453.71 1815.9 2452.77 1818.34 2452.8 1819.97C2452.84 1822.46 2453.46 1824.16 2453.65 1826.58C2453.74 1827.78 2452.8 1830.51 2452.91 1831.37C2453.2 1833.74 2453.83 1834.06 2453.44 1836.7C2453.34 1836.67 2453.43 1836.68 2453.1 1836.72C2452.95 1837.85 2452.97 1838.16 2452.53 1839.18C2452.44 1837.52 2452.45 1835.89 2452.29 1834.25C2451.85 1832.24 2451.85 1830.27 2452.4 1828.27L2452.69 1827.13L2453.29 1827.29L2453.03 1827.41L2453.17 1827.66C2453.66 1826.62 2453.46 1824.8 2452.7 1823.88L2452.48 1824.04C2452.48 1825.09 2452.46 1826.14 2452.42 1827.19C2452.16 1824.9 2451.73 1820.88 2452.1 1818.69C2452.84 1814.38 2451.51 1805.73 2452.75 1801.95C2453.5 1805.27 2452.17 1812.8 2453.02 1815.6L2453.21 1815.63C2453.23 1815.56 2453.37 1815.22 2453.37 1815.02C2453.39 1810.74 2453.57 1806.43 2453.32 1802.16C2453.16 1801.93 2453 1801.69 2452.84 1801.46C2454.05 1800 2453.85 1796.76 2453.89 1794.8Z" fill="black"/>
<path d="M2429.61 1733.2L2429.87 1733.25L2429.84 1733.73C2430.83 1734.18 2431.14 1733.48 2432.21 1733.89L2432.2 1734.12L2430.97 1734.24C2430.35 1734.82 2430.71 1735.25 2430.18 1736.13L2429.32 1735.72C2428.22 1736.2 2428.61 1737.32 2428.15 1738.46L2426.51 1738.48C2425.87 1738.9 2425.99 1739.46 2425.72 1740.51C2425.34 1740.61 2425.16 1740.66 2424.76 1740.73L2424.43 1740.78C2423.87 1741.33 2423.92 1741.75 2423.8 1742.54L2423.76 1742.86C2423.28 1743.45 2423.04 1743.29 2422.05 1743.47C2421.38 1744.08 2421.45 1744.56 2421.2 1745.57L2420.82 1745.7L2420.57 1744.87L2420.27 1744.87C2419.51 1746.04 2418.69 1747.18 2417.83 1748.27C2417.17 1749.11 2416.9 1749.67 2415.9 1749.79C2415.39 1749.43 2415.56 1749.68 2415.33 1749.08L2415.53 1748.84L2416.36 1749.01C2417.98 1748.26 2417.44 1746.45 2418.46 1745.39C2418.47 1746.09 2418.43 1746.16 2418.58 1746.85C2419.44 1745.73 2419.67 1743.69 2420.6 1742.33C2421.45 1741.09 2423.31 1740.89 2423.88 1740.02C2423.24 1740.02 2423.17 1740.05 2422.57 1739.88L2422.74 1739.51C2424.82 1739.17 2425.89 1736.43 2427.53 1735.05C2427.83 1734.8 2429.15 1735.49 2430.05 1734.9L2429.9 1734.57C2429.43 1734.55 2428.97 1734.53 2428.51 1734.51C2429.37 1733.82 2429.27 1734.09 2429.61 1733.2Z" fill="black"/>
<path d="M2415.83 1770.88C2417.03 1770.74 2418.1 1770.96 2419.34 1770.93C2425.33 1770.79 2431.18 1772.4 2437.11 1770.91C2440.86 1769.97 2445.64 1770.31 2449.53 1770.53L2449.43 1770.82C2446.12 1771.04 2442.08 1771.25 2438.73 1771.67C2438.42 1771.71 2437.77 1772.29 2437.69 1772.33C2436.08 1773.08 2429.98 1772.89 2428.23 1772.76C2427.74 1772.62 2427.22 1772.45 2426.73 1772.3L2426.66 1772.15C2425.82 1771.44 2420.48 1771.66 2419.1 1771.67C2418 1771.42 2416.91 1771.16 2415.83 1770.88Z" fill="black"/>
<path d="M2573.84 1707.07C2575.32 1706.64 2576.21 1706.29 2577.76 1706.33C2578.34 1706.99 2578.16 1706.79 2578.32 1707.8L2578.21 1708.14C2579.18 1708.55 2579.55 1708.67 2580.61 1708.72C2579.65 1709.46 2579.04 1709.51 2578.61 1710.67C2578.61 1709.5 2578.81 1709.55 2578.24 1708.84C2576.46 1708.34 2574.74 1710.84 2573.63 1712.11C2573.52 1712.66 2573.46 1712.86 2573.42 1713.41C2572.45 1712.43 2572.17 1712.84 2570.93 1712.68C2571.06 1712.26 2571.52 1710.68 2571.73 1710.42C2573.14 1708.68 2573.33 1709.29 2573.84 1707.07Z" fill="black"/>
<path d="M2571.83 1746.57L2572.21 1746.58C2574.08 1746.6 2574.05 1746.72 2575.71 1747.55C2577.83 1747.51 2578.04 1746.72 2580.35 1746.5C2578.34 1748.14 2577.07 1748.28 2574.81 1749.33L2574.89 1749.37C2573.46 1750.05 2572.92 1750.03 2571.42 1750.31C2571.84 1749.78 2571.89 1749.82 2571.97 1749.17L2571.52 1748.74C2568.67 1748.07 2567.02 1749.8 2565.59 1749.62C2565.09 1749.42 2564.89 1749.36 2564.38 1749.25L2563.92 1749.15L2564.03 1748.84C2566.66 1748.02 2570.51 1747.86 2573.31 1747.45C2573.01 1747.17 2572.3 1747.37 2571.56 1746.85L2571.83 1746.57Z" fill="black"/>
<path d="M2534.61 1480.87C2534.41 1479.12 2534.55 1473.99 2536.17 1473.08C2538.01 1473.94 2537.99 1477.61 2537.33 1479.42C2536.74 1480.28 2536.68 1480.51 2535.77 1480.94C2535.17 1480.95 2535.17 1481.01 2534.61 1480.87Z" fill="black"/>
<path d="M2456.8 1822.33C2456.81 1821.32 2457.08 1819.66 2457.14 1818.6C2457.24 1816.65 2456.4 1805.65 2457.46 1804.82L2457.69 1805.25C2457.75 1804.95 2458.1 1804.19 2458.24 1803.87C2457.86 1807.3 2458.5 1819.95 2457.69 1821.31C2456.91 1821.87 2457.18 1821.53 2456.8 1822.33Z" fill="black"/>
<path d="M2438.28 1725.17L2440.97 1725.04L2440.82 1724.91L2440.65 1724.98L2440.89 1724.95L2440.47 1724.6L2440.45 1724.09C2440.97 1723.26 2441.14 1723.26 2442.06 1722.82C2444.05 1723.14 2446 1723.66 2447.89 1724.37C2448.88 1724.73 2448.93 1724.31 2449.58 1724.42L2449.45 1724.86C2449.09 1725.04 2448.31 1725.37 2447.95 1725.4C2446.69 1725.48 2446.54 1726.68 2445.66 1727.05L2445.5 1726.88C2445.82 1726.24 2446.09 1725.75 2446.45 1725.14L2446.09 1724.73L2445.86 1724.87C2445.83 1725.75 2446.02 1725.54 2445.59 1725.94C2445.52 1725.56 2445.45 1725.18 2445.39 1724.8C2444.58 1724.58 2442.21 1724.95 2441.66 1725.61C2440.36 1725.82 2439.56 1725.5 2438.28 1725.17Z" fill="black"/>
<path d="M2674.63 1724.67L2675.36 1725.14C2674.67 1725.67 2674.69 1726.39 2673.96 1727.36C2672.26 1727.53 2672.61 1727.79 2672.02 1729.32C2671.67 1729.17 2671.56 1729.06 2671.27 1728.81L2670.85 1728.89C2670.32 1729.58 2669.82 1730.56 2669.38 1731.32C2668.51 1730.79 2667.9 1731.23 2666.39 1731L2666.21 1730.69C2667.28 1730.26 2668.08 1730.9 2669.27 1730.61L2669.27 1730.45C2668.7 1730.25 2668.49 1730.19 2667.95 1729.91C2669.37 1728.07 2670 1727.46 2672.2 1726.98C2672.39 1726.29 2672.5 1725.79 2672.82 1725.14C2673.42 1724.97 2674.03 1724.81 2674.63 1724.67Z" fill="black"/>
<path d="M2644.36 1644.16L2644.07 1644.56C2644.32 1645.14 2644.39 1645 2645.15 1645.34V1645.6C2643.68 1646.59 2638.4 1647.46 2638.34 1644.98C2639.68 1642.68 2641.05 1643.8 2642.85 1643.9L2643.09 1643.73C2643.49 1643.87 2643.96 1644.06 2644.36 1644.16Z" fill="black"/>
<path d="M2652.73 1737.38C2654.16 1737.33 2656.24 1737.22 2657.58 1737.64L2657.73 1737.99L2657.47 1738.18C2656.68 1738.22 2655.56 1738.2 2654.86 1738.5L2655.19 1738.52C2653.97 1738.83 2653.31 1739.43 2653.47 1740.77C2654.48 1742.75 2656.51 1741.86 2658.5 1742.3L2658.38 1742.44C2657 1742.47 2655.5 1742.43 2654.16 1742.73C2653.87 1743.04 2653.99 1742.86 2653.81 1743.29L2653.51 1743.33C2653.19 1741.94 2653.79 1741.36 2652.27 1739.82C2650.17 1738.97 2650.67 1739.55 2648.94 1739.2C2650.22 1738.53 2651.12 1739.31 2652.45 1738.56C2652.67 1737.94 2652.63 1738.03 2652.73 1737.38Z" fill="black"/>
<path d="M2409.93 1639.26C2409.73 1640.09 2409.59 1640.52 2409.66 1641.38C2409.81 1643.31 2408.1 1647.23 2408.78 1648.91C2409.14 1649.09 2409.61 1649.17 2409.62 1649.56C2409.66 1651.01 2410.14 1654.42 2409.91 1655.66L2409.62 1654.75L2409.07 1654.52C2408.07 1652.7 2408.52 1643.67 2408.61 1640.99C2409.03 1640.33 2409.44 1639.86 2409.93 1639.26Z" fill="black"/>
<path d="M2691.31 1717.45L2691.39 1716.87C2691.89 1716.58 2692.17 1716.56 2692.73 1716.43L2693 1716.71C2692.92 1717.73 2692.77 1718.35 2692.55 1719.36C2691.3 1719.77 2690.86 1719.97 2690.42 1721.17C2689.76 1721.43 2689.85 1721.3 2689.02 1721.07L2688.9 1721.36C2689.54 1721.97 2689.71 1722.03 2690.46 1722.43L2688.65 1722.38C2688.42 1722.19 2688.38 1722.01 2688.22 1721.71C2688.42 1720.75 2688.93 1719.25 2689.24 1718.27C2690.09 1718.12 2690.49 1718.01 2691.32 1717.76L2691.56 1718C2691.53 1718.52 2691.52 1718.74 2691.55 1719.27L2691.83 1719.33C2692.33 1718.57 2692.43 1718.02 2692.08 1717.16L2691.31 1717.45Z" fill="black"/>
<path d="M2654.64 1708.52L2655.89 1708.24C2655.96 1708.02 2656.03 1707.8 2656.1 1707.58C2657.91 1707.12 2664.09 1706.93 2665.66 1707.72C2666.26 1708.55 2666.06 1708.28 2667.41 1708.54C2666.96 1708.59 2662.37 1708.46 2661.55 1708.43C2659.47 1708.33 2656.44 1708.67 2654.64 1708.52Z" fill="black"/>
<path d="M2571.46 1548.1C2574.06 1546.49 2581.1 1546.59 2584.33 1546.67C2583.64 1546.91 2583.86 1546.68 2583.52 1547.24L2583.32 1547.18C2583.88 1547.62 2584.36 1547.25 2584.88 1547.61C2580.19 1547.74 2576.15 1547.7 2571.46 1548.1Z" fill="black"/>
<path d="M2520.2 1531.42L2522.75 1533.1C2522.54 1535.09 2522.76 1535.54 2521.21 1536.92C2521.21 1535.88 2521.3 1535.47 2520.48 1534.76C2519.22 1534.65 2519.44 1534.9 2518.26 1535.27C2518.45 1534.69 2518.5 1534.65 2518.85 1534.13C2519.39 1533.91 2519.81 1533.73 2520.33 1533.47C2520.62 1532.83 2520.36 1532.16 2520.2 1531.42Z" fill="black"/>
<path d="M2541.72 1459.06C2541.75 1460.02 2541.5 1460.3 2540.84 1460.98C2540.11 1461.12 2540.46 1461.16 2539.76 1460.76C2539.01 1459.59 2538.61 1458.34 2539.7 1457.14C2540.24 1456.55 2540.97 1456.74 2541.72 1456.76C2541.73 1457.72 2541.74 1457.89 2541.53 1458.81L2541.72 1459.06Z" fill="black"/>
<path d="M2437.91 1725.8L2439.33 1725.95L2438.28 1726.14C2438.25 1726.5 2438.21 1726.37 2438.3 1726.55L2438.36 1727.39C2437.76 1727.82 2437.77 1728.4 2437.38 1729.08C2436.8 1729.14 2436.76 1729.11 2436.19 1729.01C2434.91 1731.27 2434.82 1731.28 2432.23 1730.96L2432.2 1730.75C2434.25 1729.74 2435.4 1728.75 2437.08 1727.29C2438.04 1726.46 2437.75 1727.25 2437.91 1725.8Z" fill="black"/>
<path d="M2570.93 1712.68C2572.17 1712.84 2572.45 1712.43 2573.42 1713.41C2572.55 1714.17 2572 1713.68 2571.34 1714.51C2571.17 1715.33 2571.08 1715.88 2570.98 1716.71L2570.69 1716.84L2570.54 1715.68L2570.23 1715.56L2569.88 1716.42L2568.87 1716.24C2569.15 1714.99 2569.25 1713.6 2570.63 1713.22L2570.93 1712.68Z" fill="black"/>
<path d="M2449.53 1770.53L2450.06 1770.04C2449.64 1770.03 2449.53 1770.1 2449.17 1769.9C2450.86 1769.55 2455.88 1768.48 2456.35 1770.74C2453.87 1770.69 2451.91 1770.53 2449.43 1770.82L2449.53 1770.53Z" fill="black"/>
<path d="M2452.75 1801.95L2452.84 1801.46C2453 1801.69 2453.16 1801.93 2453.32 1802.16C2453.57 1806.43 2453.39 1810.74 2453.37 1815.02C2453.37 1815.22 2453.23 1815.56 2453.21 1815.63L2453.02 1815.6C2452.17 1812.8 2453.5 1805.27 2452.75 1801.95Z" fill="black"/>
<path d="M2521.09 1762.75L2521.34 1762.98C2521.9 1763.01 2527.62 1762.64 2528.15 1762.5C2526.94 1763.38 2526.69 1763.64 2525.23 1763.58C2523.14 1763.4 2520.12 1763.78 2518.27 1763.37C2518.55 1763.22 2518.6 1763.09 2518.78 1762.84C2519.4 1762.48 2520.33 1762.68 2521.09 1762.75Z" fill="black"/>
<path d="M2443.82 1764.66C2444.71 1764.61 2445.7 1764.43 2446.46 1764.83C2446.63 1765.5 2446.62 1765.15 2446.16 1765.94C2444.18 1765.32 2438.98 1765.98 2436.61 1766.1C2437.68 1765.81 2437.83 1765.7 2438.76 1765.09C2439.69 1765.33 2443.66 1765.28 2444.53 1764.94L2443.82 1764.66Z" fill="black"/>
<path d="M2568.87 1716.24L2569.88 1716.42L2570.23 1715.56L2570.54 1715.68L2570.69 1716.84L2570.98 1716.71C2570.73 1718.41 2569.66 1717.05 2569.05 1717.99C2568.9 1718.23 2568.96 1719.52 2568.41 1720.12C2568.01 1719.28 2568.58 1718.55 2568.44 1717.23L2568.07 1717.07C2567.6 1718.13 2568.23 1719.2 2567.68 1720.36C2567.35 1719.67 2567.46 1718.1 2567.45 1717.24C2567.87 1716.46 2567.82 1716.69 2568.87 1716.24Z" fill="black"/>
<path d="M2622.63 1712.99C2622.55 1710.9 2622.34 1708.95 2622.91 1706.94C2623.2 1706.64 2623.29 1706.53 2623.55 1706.18L2623.77 1705.89C2623.78 1707.74 2624.25 1711.88 2622.63 1712.99Z" fill="black"/>
<path d="M2566.92 1543.2C2566.89 1542.28 2566.73 1542.63 2567.24 1542.05C2568.44 1541.67 2569.75 1541.85 2571.04 1541.91C2572.1 1542.13 2572.84 1542.13 2573.93 1542.14C2573.32 1542.62 2573.16 1542.6 2572.42 1542.88C2570.4 1542.91 2568.91 1543.02 2566.92 1543.2Z" fill="black"/>
<path d="M2414.52 1651.48C2413.06 1648.97 2412.52 1648.45 2413.57 1645.41C2413.95 1645.1 2414.16 1644.89 2414.51 1644.55C2414.23 1647.11 2414.28 1648.9 2414.52 1651.48Z" fill="black"/>
<path d="M2726.9 1707.22L2727.32 1707.16C2728.65 1706.96 2728.16 1706.58 2729.81 1706.76L2730 1707.43C2729.18 1708.58 2728.15 1709.75 2727.89 1711.08C2727.92 1710.2 2727.97 1709.61 2727.84 1708.74C2727.06 1708.36 2726.45 1708.57 2725.47 1708.64L2725.56 1708.37C2726.74 1708.33 2727.2 1708.23 2728.29 1707.69L2728.15 1707.43L2726.9 1707.22Z" fill="black"/>
<path d="M2677.37 1725.43C2678.15 1727.79 2678.91 1729.99 2678.7 1732.51L2678.32 1732.34C2678.03 1732.7 2678.19 1732.52 2677.84 1732.89C2677.36 1731.78 2677.36 1726.83 2677.37 1725.43Z" fill="black"/>
<path d="M2652.73 1737.38C2654.29 1736.51 2656.51 1736.78 2657.27 1735.69L2657.12 1735.19L2658.44 1735.36L2658.61 1735.61C2657.92 1736.44 2657.79 1736.59 2657.58 1737.64C2656.24 1737.22 2654.16 1737.33 2652.73 1737.38Z" fill="black"/>
<path d="M2581.17 1720.96L2581.58 1721.9L2581.44 1721.71L2581.69 1721.7C2581.74 1720.82 2581.75 1719.96 2581.94 1719.11C2582.35 1721.14 2582.61 1728.16 2582.18 1730.03C2582 1726.5 2581.39 1723.99 2581.17 1720.96Z" fill="black"/>
<path d="M2647.63 1649.87C2649 1649.31 2649.9 1649.82 2651.55 1649.54C2651.66 1650.14 2651.74 1650.2 2651.56 1650.76C2650.48 1651.29 2648.53 1651.23 2647.65 1650.46L2647.63 1649.87Z" fill="black"/>
<path d="M2444.53 1728.02L2444.76 1728.12L2444.5 1728.52C2441.5 1729.79 2443.19 1731.79 2439.61 1730.91C2439.54 1730.65 2439.54 1730.8 2439.72 1730.47C2440.95 1730.53 2442.34 1729.84 2443.01 1728.83L2442.47 1728.51L2442.55 1728.24C2443.43 1728.27 2443.69 1728.29 2444.53 1728.02Z" fill="black"/>
<path d="M2657.12 1735.19C2659.18 1734.66 2659.74 1734.83 2661.77 1735.27C2659.86 1736.51 2659.25 1735.27 2657.73 1737.99L2657.58 1737.64C2657.79 1736.59 2657.92 1736.44 2658.61 1735.61L2658.44 1735.36L2657.12 1735.19Z" fill="black"/>
<path d="M2541.72 1456.76L2542.02 1456.8C2542.02 1455.58 2541.95 1454.25 2542.21 1453.08C2543.22 1455.7 2542.29 1457.61 2542.82 1458.92L2541.72 1459.06L2541.53 1458.81C2541.74 1457.89 2541.73 1457.72 2541.72 1456.76Z" fill="black"/>
<path d="M2603.97 1720.21C2606.71 1719.22 2604.95 1716.09 2607.69 1716.17L2606.97 1716.42C2606.43 1718.37 2607.34 1719.36 2605.83 1720.22L2604.62 1720.06L2603.97 1720.21Z" fill="black"/>
<path d="M2687.32 1721.34L2688.22 1721.71C2688.38 1722.01 2688.42 1722.19 2688.65 1722.38L2688.63 1722.68C2688.27 1723.03 2688.4 1722.91 2688.23 1723.45C2689.08 1723.97 2691.38 1723.46 2692.36 1724.08L2692.25 1724.32C2691.2 1724.6 2688.99 1724.45 2688 1724.07C2687.77 1723.98 2687.41 1721.79 2687.32 1721.34Z" fill="black"/>
<path d="M2566.25 1649.76C2567.87 1649.94 2568.26 1649.91 2569.85 1649.75C2569.17 1649.93 2569.38 1649.78 2568.93 1650.24C2569.28 1650.34 2570.08 1650.51 2570.33 1650.7C2568.89 1651.03 2566.78 1651.25 2565.48 1650.47L2565.48 1650.12L2566.25 1649.76Z" fill="black"/>
<path d="M2429.61 1733.2C2430.28 1732.34 2430.9 1732.62 2431.91 1732.8L2432.32 1732.61L2432.17 1732.33L2430.96 1732.1C2431.31 1731.38 2432.54 1731.87 2433.38 1731.42L2433.74 1731.52C2433.39 1732.31 2433.08 1732.4 2432.74 1733.38C2432.01 1733.76 2430.84 1733.4 2429.87 1733.25L2429.61 1733.2Z" fill="black"/>
<path d="M2438.3 1726.55C2439.59 1726.68 2440.71 1726.72 2441.93 1727.14L2442.13 1727.73L2441.98 1728.02C2440.85 1728.19 2439.44 1727.75 2438.36 1727.39L2438.3 1726.55Z" fill="black"/>
<path d="M2419.1 1771.67C2420.48 1771.66 2425.82 1771.44 2426.66 1772.15L2426.73 1772.3C2425.61 1772.29 2421.16 1771.97 2420.6 1772.2L2420.54 1772.44C2420.27 1772.41 2419.39 1771.83 2419.1 1771.67Z" fill="black"/>
<path d="M2565.38 1686.62C2564.85 1686.52 2564.4 1686.43 2563.87 1686.3L2564.03 1685.84L2563.4 1684.92L2563.52 1684.66C2564.47 1684.81 2565.15 1684.97 2566.09 1685.2L2565.38 1686.62Z" fill="black"/>
<path d="M2505 1602.92C2505.26 1602.05 2505.06 1599.82 2505.86 1599.36C2506.27 1600.12 2506.24 1600.71 2506.31 1601.57L2506.4 1602.09C2505.96 1602.71 2505.59 1602.5 2505 1602.92Z" fill="black"/>
<path d="M2420.54 1772.44L2420.6 1772.2C2421.16 1771.97 2425.61 1772.29 2426.73 1772.3C2427.22 1772.45 2427.74 1772.62 2428.23 1772.76C2426.18 1772.75 2422.45 1772.79 2420.54 1772.44Z" fill="black"/>
<path d="M2577.76 1706.33L2578.15 1705.81C2577.69 1705.47 2577.43 1705.67 2576.63 1705.78L2576.61 1705.39C2577.46 1704.82 2578.9 1704.89 2579.75 1705.42L2579.8 1705.97C2579.23 1706.01 2579.39 1706.02 2578.84 1705.92C2578.41 1706.61 2578.42 1707 2578.32 1707.8C2578.16 1706.79 2578.34 1706.99 2577.76 1706.33Z" fill="black"/>
<path d="M2461.45 1643.22C2462.64 1643 2463.07 1642.97 2464.28 1642.95C2465.31 1643.08 2466.52 1643.21 2467.52 1643.41L2467.16 1643.41C2465.6 1643.4 2464.68 1644.08 2463.97 1644.05C2462.89 1643.57 2462.6 1643.44 2461.45 1643.22Z" fill="black"/>
<path d="M2585.38 1546.51C2586.37 1546.69 2586.58 1546.56 2587.23 1547.11L2587.06 1547.73C2586.38 1547.73 2585.57 1547.66 2584.88 1547.61C2584.36 1547.25 2583.88 1547.62 2583.32 1547.18L2583.52 1547.24C2583.86 1546.68 2583.64 1546.91 2584.33 1546.67L2585.38 1546.51Z" fill="black"/>
<path d="M2700.35 1708.66C2701.18 1709.12 2700.89 1708.78 2701.21 1709.75L2700.32 1709.97C2698.53 1710.1 2698.54 1711.81 2698.19 1713.37L2697.73 1713.11C2698.5 1709.47 2699.39 1710.35 2700.35 1708.66Z" fill="black"/>
<path d="M2438.93 1731.38C2439.39 1731.49 2439.85 1731.6 2440.31 1731.69L2440.2 1731.82C2440.1 1732.48 2439.16 1733.18 2438.58 1733.78C2437.7 1733.54 2438 1733.78 2437.5 1733.21C2437.92 1732.77 2438.44 1732.54 2438.98 1732.24L2438.93 1731.38Z" fill="black"/>
<path d="M2452.42 1827.19C2452.46 1826.14 2452.48 1825.09 2452.48 1824.04L2452.7 1823.88C2453.46 1824.8 2453.66 1826.62 2453.17 1827.66L2453.03 1827.41L2453.29 1827.29L2452.69 1827.13L2452.4 1828.27L2452.42 1827.19Z" fill="black"/>
<path d="M2534.33 1642.89C2535.77 1642.88 2539.59 1642.94 2540.96 1643.2C2539.53 1644.12 2538.36 1643.09 2536.76 1643.72L2536.48 1643.29C2535.77 1643.14 2535.05 1643.01 2534.33 1642.89Z" fill="black"/>
<path d="M2622.78 1696.75C2623.25 1696.03 2623.19 1695.08 2623.25 1694.18L2623.54 1694.04C2623.7 1695.69 2623.84 1697.22 2623.92 1698.89C2623.49 1697.54 2622.88 1697.9 2622.78 1696.75Z" fill="black"/>
<path d="M2452.29 1834.25C2452.45 1835.89 2452.44 1837.52 2452.53 1839.18C2452.97 1838.16 2452.95 1837.85 2453.1 1836.72C2453.43 1836.68 2453.34 1836.67 2453.44 1836.7C2453.46 1837.53 2453.5 1838.43 2453.43 1839.24C2452.36 1838.82 2453.58 1839.53 2452.41 1839.63C2452.03 1838.73 2452.24 1835.36 2452.29 1834.25Z" fill="black"/>
<path d="M2698.19 1713.37C2698.54 1711.81 2698.53 1710.1 2700.32 1709.97L2700.33 1710.2C2699.2 1711.01 2699.19 1711.58 2698.92 1712.96L2698.8 1713.26L2698.19 1713.37Z" fill="black"/>
<path d="M2640.85 1642.65C2642.56 1642.68 2644.73 1642.9 2646.38 1643.31C2645.27 1643.61 2644.81 1643.49 2643.66 1643.38C2643.4 1643.51 2643.27 1643.53 2643.09 1643.73L2642.85 1643.9C2642.43 1642.84 2641.9 1642.95 2640.85 1642.65Z" fill="black"/>
<path d="M2438.76 1765.09C2440.59 1764.65 2441.94 1764.7 2443.82 1764.66L2444.53 1764.94C2443.66 1765.28 2439.69 1765.33 2438.76 1765.09Z" fill="black"/>
<path d="M2622.29 1693.26C2622.64 1693.39 2622.99 1693.5 2623.34 1693.61L2623.54 1694.04L2623.25 1694.18C2623.19 1695.08 2623.25 1696.03 2622.78 1696.75C2622.69 1695.68 2622.46 1694.35 2622.29 1693.26Z" fill="black"/>
<path d="M2437.91 1725.8L2438.28 1725.17C2439.56 1725.5 2440.36 1725.82 2441.66 1725.61L2441.72 1726.84C2440.97 1726.41 2440.15 1726.2 2439.33 1725.95L2437.91 1725.8Z" fill="black"/>
<path d="M2540.96 1643.2L2541.04 1643.5C2540.77 1643.81 2540.59 1643.89 2540.55 1644.18C2539.13 1644.14 2538.1 1644.2 2536.76 1643.72C2538.36 1643.09 2539.53 1644.12 2540.96 1643.2Z" fill="black"/>
<path d="M2460.38 1644.12L2460.36 1644.09C2460.5 1643.75 2461.08 1643.47 2461.45 1643.22C2462.6 1643.44 2462.89 1643.57 2463.97 1644.05C2462.77 1644.14 2461.58 1644.12 2460.38 1644.12Z" fill="black"/>
<path d="M2646.38 1643.31C2646.07 1643.95 2645.91 1644 2645.11 1644.15L2644.36 1644.16C2643.96 1644.06 2643.49 1643.87 2643.09 1643.73C2643.27 1643.53 2643.4 1643.51 2643.66 1643.38C2644.81 1643.49 2645.27 1643.61 2646.38 1643.31Z" fill="black"/>
<path d="M2439.33 1725.95C2440.15 1726.2 2440.97 1726.41 2441.72 1726.84L2441.93 1727.14C2440.71 1726.72 2439.59 1726.68 2438.3 1726.55C2438.21 1726.37 2438.25 1726.5 2438.28 1726.14L2439.33 1725.95Z" fill="black"/>
<path d="M2725.56 1708.37C2726.12 1707.65 2726.15 1707.68 2726.9 1707.22L2728.15 1707.43L2728.29 1707.69C2727.2 1708.23 2726.74 1708.33 2725.56 1708.37Z" fill="black"/>
<path d="M2698.92 1712.96C2699.19 1711.58 2699.2 1711.01 2700.33 1710.2C2700.11 1711.06 2699.68 1712.22 2699.42 1713.16L2699.12 1713.27L2698.92 1712.96Z" fill="black"/>
<path d="M2525.51 1512.19L2525.87 1511.57C2526.23 1512.06 2526.15 1513.27 2526.19 1514.02L2525.81 1514.16L2525.49 1514.02L2525.51 1512.19Z" fill="black"/>
<path d="M2697.73 1713.11L2698.19 1713.37C2698 1713.58 2697.81 1713.78 2697.62 1713.99C2697.12 1714.52 2696.99 1714.73 2696.38 1714.75C2696.53 1714.04 2697.16 1713.63 2697.73 1713.11Z" fill="black"/>
<path d="M2691.31 1717.45L2692.08 1717.16C2692.43 1718.02 2692.33 1718.57 2691.83 1719.33L2691.55 1719.27C2691.52 1718.74 2691.53 1718.52 2691.56 1718L2691.32 1717.76L2691.31 1717.45Z" fill="black"/>
<path d="M2548.39 1438.14L2549 1438.06C2548.95 1438.83 2548.98 1439.72 2548.57 1440.34C2548.26 1439.59 2548.37 1438.96 2548.39 1438.14Z" fill="black"/>
</svg>
