<svg width="6900" height="5209" viewBox="0 0 6900 5209" fill="none" xmlns="http://www.w3.org/2000/svg">
<path d="M1633.04 1732.4L1658 1769.83L1654.58 1772.2C1652.13 1769.92 1650.12 1768.78 1648.54 1768.78C1646.97 1768.78 1642.54 1770.88 1635.28 1775.09C1620.21 1783.75 1607.52 1789.62 1597.18 1792.69C1586.94 1795.66 1574.72 1797.15 1560.54 1797.15C1532.26 1797.15 1509.05 1790.45 1490.92 1777.06C1480.24 1769.26 1471.84 1759.59 1465.71 1748.03C1458.61 1734.81 1455.07 1720.23 1455.07 1704.29C1455.07 1682.57 1461.41 1663.7 1474.11 1647.68C1493.2 1623.6 1522.05 1611.56 1560.67 1611.56C1574.86 1611.56 1587.03 1613.05 1597.18 1616.02C1607.34 1619 1620.04 1624.87 1635.28 1633.62C1642.54 1637.74 1646.97 1639.8 1648.54 1639.8C1650.12 1639.8 1652.13 1638.66 1654.58 1636.38L1658 1638.75L1633.04 1676.18L1629.5 1673.82C1629.67 1672.42 1629.76 1671.23 1629.76 1670.27C1629.76 1667.73 1628.66 1665.37 1626.48 1663.18C1624.29 1660.9 1620.39 1658.19 1614.79 1655.03C1599.29 1646.28 1582.87 1641.9 1565.53 1641.9C1545.04 1641.9 1528.71 1647.02 1516.54 1657.27C1502.18 1669.26 1495 1684.94 1495 1704.29C1495 1723.64 1502.18 1739.32 1516.54 1751.31C1528.71 1761.56 1545.04 1766.68 1565.53 1766.68C1582.87 1766.68 1599.29 1762.3 1614.79 1753.54C1620.39 1750.39 1624.29 1747.72 1626.48 1745.53C1628.66 1743.26 1629.76 1740.85 1629.76 1738.31C1629.76 1737.35 1629.67 1736.21 1629.5 1734.89L1633.04 1732.4ZM1725.25 1731.48V1767.34H1818.64C1821.35 1767.34 1823.41 1766.72 1824.81 1765.5C1826.3 1764.27 1827.48 1762.04 1828.36 1758.8H1832.03V1802.41H1828.36C1827.57 1799.34 1826.43 1797.15 1824.94 1795.84C1823.45 1794.61 1821.35 1794 1818.64 1794H1681.64V1790.32C1684.71 1789.53 1686.85 1788.4 1688.08 1786.91C1689.39 1785.42 1690.05 1783.32 1690.05 1780.6V1660.29C1690.05 1657.57 1689.43 1655.52 1688.21 1654.11C1686.98 1652.71 1684.79 1651.53 1681.64 1650.57V1646.89H1814.56C1817.37 1646.89 1819.47 1646.28 1820.87 1645.05C1822.36 1643.83 1823.54 1641.64 1824.42 1638.48H1827.96V1682.09H1824.42C1823.54 1678.85 1822.36 1676.62 1820.87 1675.39C1819.47 1674.17 1817.37 1673.55 1814.56 1673.55H1725.25V1705.87H1780.68C1783.39 1705.87 1785.45 1705.25 1786.85 1704.03C1788.34 1702.8 1789.57 1700.61 1790.53 1697.46H1794.07V1740.02H1790.53C1789.65 1736.86 1788.47 1734.67 1786.98 1733.45C1785.58 1732.14 1783.48 1731.48 1780.68 1731.48H1725.25ZM1897.84 1733.58V1780.6C1897.84 1783.32 1898.45 1785.42 1899.68 1786.91C1900.9 1788.31 1903.09 1789.49 1906.25 1790.45V1794H1854.23V1790.32C1857.3 1789.53 1859.44 1788.4 1860.67 1786.91C1861.98 1785.42 1862.64 1783.32 1862.64 1780.6V1660.29C1862.64 1657.57 1862.03 1655.52 1860.8 1654.11C1859.57 1652.71 1857.38 1651.53 1854.23 1650.57V1646.89H1950.64C1963.16 1646.89 1972.71 1647.55 1979.27 1648.86C1985.84 1650.09 1991.71 1652.36 1996.88 1655.69C2007.47 1662.61 2012.77 1673.9 2012.77 1689.58C2012.77 1701.49 2009.48 1710.81 2002.92 1717.56C1996.44 1724.21 1985.93 1729.03 1971.39 1732L1999.24 1770.88C2004.32 1778.06 2008.35 1782.97 2011.32 1785.59C2014.39 1788.13 2017.85 1789.75 2021.7 1790.45V1794H1959.97V1790.45C1964.52 1789.23 1966.8 1787.26 1966.8 1784.54C1966.8 1782.62 1965.4 1779.68 1962.59 1775.74L1933.17 1733.58H1897.84ZM1897.84 1706.92H1950.9C1958.96 1706.92 1964.91 1706.04 1968.77 1704.29C1974.2 1701.93 1976.91 1697.24 1976.91 1690.24C1976.91 1684.02 1974.98 1679.68 1971.13 1677.23C1967.37 1674.78 1960.62 1673.55 1950.9 1673.55H1897.84V1706.92ZM2121.66 1673.55V1780.6C2121.66 1783.32 2122.27 1785.42 2123.49 1786.91C2124.72 1788.31 2126.91 1789.49 2130.06 1790.45V1794H2078.05V1790.32C2081.11 1789.53 2083.26 1788.4 2084.48 1786.91C2085.8 1785.42 2086.45 1783.32 2086.45 1780.6V1673.55H2043.11C2040.31 1673.55 2038.16 1674.21 2036.67 1675.52C2035.27 1676.75 2034.13 1678.94 2033.26 1682.09H2029.71V1638.48H2033.39C2034.18 1641.55 2035.27 1643.74 2036.67 1645.05C2038.16 1646.28 2040.31 1646.89 2043.11 1646.89H2165C2167.8 1646.89 2169.9 1646.28 2171.31 1645.05C2172.79 1643.83 2173.98 1641.64 2174.85 1638.48H2178.4V1682.09H2174.85C2173.98 1678.94 2172.79 1676.75 2171.31 1675.52C2169.9 1674.21 2167.8 1673.55 2165 1673.55H2121.66ZM2237.24 1660.29V1780.6C2237.24 1783.32 2237.85 1785.42 2239.08 1786.91C2240.31 1788.31 2242.5 1789.49 2245.65 1790.45V1794H2193.63V1790.32C2196.7 1789.53 2198.84 1788.4 2200.07 1786.91C2201.38 1785.42 2202.04 1783.32 2202.04 1780.6V1660.29C2202.04 1657.57 2201.43 1655.52 2200.2 1654.11C2198.98 1652.71 2196.79 1651.53 2193.63 1650.57V1646.89H2245.65V1650.57C2242.5 1651.44 2240.31 1652.63 2239.08 1654.11C2237.85 1655.52 2237.24 1657.57 2237.24 1660.29ZM2315.26 1731.48V1780.6C2315.26 1783.32 2315.88 1785.42 2317.1 1786.91C2318.33 1788.31 2320.52 1789.49 2323.67 1790.45V1794H2271.65V1790.32C2274.72 1789.53 2276.86 1788.4 2278.09 1786.91C2279.4 1785.42 2280.06 1783.32 2280.06 1780.6V1660.29C2280.06 1657.57 2279.45 1655.52 2278.22 1654.11C2277 1652.71 2274.81 1651.53 2271.65 1650.57V1646.89H2403.53C2406.33 1646.89 2408.43 1646.28 2409.83 1645.05C2411.32 1643.83 2412.5 1641.64 2413.38 1638.48H2416.93V1682.09H2413.38C2412.5 1678.94 2411.32 1676.75 2409.83 1675.52C2408.43 1674.21 2406.33 1673.55 2403.53 1673.55H2315.26V1705.87H2370.69C2373.49 1705.87 2375.59 1705.25 2377 1704.03C2378.4 1702.8 2379.58 1700.61 2380.54 1697.46H2384.09V1740.02H2380.54C2379.67 1736.86 2378.48 1734.67 2377 1733.45C2375.59 1732.14 2373.49 1731.48 2370.69 1731.48H2315.26ZM2479.18 1660.29V1780.6C2479.18 1783.32 2479.8 1785.42 2481.02 1786.91C2482.25 1788.31 2484.44 1789.49 2487.59 1790.45V1794H2435.58V1790.32C2438.64 1789.53 2440.79 1788.4 2442.01 1786.91C2443.33 1785.42 2443.98 1783.32 2443.98 1780.6V1660.29C2443.98 1657.57 2443.37 1655.52 2442.14 1654.11C2440.92 1652.71 2438.73 1651.53 2435.58 1650.57V1646.89H2487.59V1650.57C2484.44 1651.44 2482.25 1652.63 2481.02 1654.11C2479.8 1655.52 2479.18 1657.57 2479.18 1660.29ZM2657.42 1741.33L2679.62 1773.64L2676.6 1775.87C2674.5 1774.39 2672.83 1773.64 2671.61 1773.64C2670.12 1773.64 2666.66 1775.26 2661.23 1778.5C2649.24 1785.51 2638.64 1790.37 2629.45 1793.08C2620.25 1795.8 2609.66 1797.15 2597.66 1797.15C2573.67 1797.15 2554.1 1791.42 2538.95 1779.95C2530.37 1773.38 2523.54 1765.15 2518.46 1755.25C2513.03 1744.57 2510.31 1732.97 2510.31 1720.45C2510.31 1703.19 2515.3 1687.96 2525.29 1674.74C2540.96 1654.07 2565 1643.74 2597.4 1643.74C2609.39 1643.74 2620.03 1645.1 2629.31 1647.81C2638.68 1650.52 2649.32 1655.38 2661.23 1662.39C2666.66 1665.63 2670.12 1667.25 2671.61 1667.25C2672.83 1667.25 2674.5 1666.51 2676.6 1665.02L2679.62 1667.38L2657.42 1699.56L2654.53 1697.46C2654.62 1696.41 2654.71 1695.75 2654.8 1695.49C2654.88 1694.7 2654.93 1694.13 2654.93 1693.78C2654.93 1689.49 2649.02 1684.63 2637.2 1679.2C2625.99 1674.04 2614.69 1671.45 2603.31 1671.45C2587.37 1671.45 2574.24 1675.66 2563.9 1684.06C2552.08 1693.52 2546.17 1705.65 2546.17 1720.45C2546.17 1735.33 2552.08 1747.5 2563.9 1756.96C2574.32 1765.28 2587.46 1769.44 2603.31 1769.44C2615.74 1769.44 2628.13 1766.33 2640.48 1760.11C2650.11 1755.21 2654.93 1750.92 2654.93 1747.24C2654.93 1747.07 2654.8 1745.84 2654.53 1743.56L2657.42 1741.33ZM2812.68 1757.22H2745.03L2737.41 1773.25C2735.57 1777.1 2734.66 1780.12 2734.66 1782.31C2734.66 1786.51 2737.46 1789.18 2743.06 1790.32V1794H2688.95V1790.32C2692.27 1789.8 2694.73 1788.79 2696.3 1787.3C2697.97 1785.81 2699.89 1782.88 2702.08 1778.5L2755.8 1669.75C2757.82 1665.63 2758.82 1662.04 2758.82 1658.97C2758.82 1655.38 2756.37 1652.58 2751.47 1650.57V1646.89H2808.6V1650.57C2803.79 1652.49 2801.38 1655.47 2801.38 1659.5C2801.38 1662.39 2802.47 1665.94 2804.66 1670.14L2860.35 1775.61C2863.42 1781.39 2865.83 1785.16 2867.58 1786.91C2869.33 1788.57 2872 1789.75 2875.59 1790.45V1794H2815.57V1790.45C2821.26 1789.49 2824.1 1786.82 2824.1 1782.44C2824.1 1779.73 2823.01 1776.36 2820.82 1772.33L2812.68 1757.22ZM2802.04 1736.6L2778 1689.45L2755.15 1736.6H2802.04ZM2969.11 1673.55V1780.6C2969.11 1783.32 2969.72 1785.42 2970.95 1786.91C2972.18 1788.31 2974.36 1789.49 2977.52 1790.45V1794H2925.5V1790.32C2928.57 1789.53 2930.71 1788.4 2931.94 1786.91C2933.25 1785.42 2933.91 1783.32 2933.91 1780.6V1673.55H2890.56C2887.76 1673.55 2885.62 1674.21 2884.13 1675.52C2882.73 1676.75 2881.59 1678.94 2880.71 1682.09H2877.17V1638.48H2880.85C2881.63 1641.55 2882.73 1643.74 2884.13 1645.05C2885.62 1646.28 2887.76 1646.89 2890.56 1646.89H3012.46C3015.26 1646.89 3017.36 1646.28 3018.76 1645.05C3020.25 1643.83 3021.43 1641.64 3022.31 1638.48H3025.85V1682.09H3022.31C3021.43 1678.94 3020.25 1676.75 3018.76 1675.52C3017.36 1674.21 3015.26 1673.55 3012.46 1673.55H2969.11ZM3086.54 1731.48V1767.34H3179.92C3182.64 1767.34 3184.7 1766.72 3186.1 1765.5C3187.59 1764.27 3188.77 1762.04 3189.64 1758.8H3193.32V1802.41H3189.64C3188.86 1799.34 3187.72 1797.15 3186.23 1795.84C3184.74 1794.61 3182.64 1794 3179.92 1794H3042.93V1790.32C3045.99 1789.53 3048.14 1788.4 3049.36 1786.91C3050.68 1785.42 3051.33 1783.32 3051.33 1780.6V1660.29C3051.33 1657.57 3050.72 1655.52 3049.5 1654.11C3048.27 1652.71 3046.08 1651.53 3042.93 1650.57V1646.89H3175.85C3178.65 1646.89 3180.76 1646.28 3182.16 1645.05C3183.65 1643.83 3184.83 1641.64 3185.7 1638.48H3189.25V1682.09H3185.7C3184.83 1678.85 3183.65 1676.62 3182.16 1675.39C3180.76 1674.17 3178.65 1673.55 3175.85 1673.55H3086.54V1705.87H3141.96C3144.68 1705.87 3146.74 1705.25 3148.14 1704.03C3149.63 1702.8 3150.85 1700.61 3151.82 1697.46H3155.36V1740.02H3151.82C3150.94 1736.86 3149.76 1734.67 3148.27 1733.45C3146.87 1732.14 3144.77 1731.48 3141.96 1731.48H3086.54ZM3365.52 1643.74C3388.9 1643.74 3408.38 1649.69 3423.97 1661.6C3442.62 1675.96 3451.94 1695.97 3451.94 1721.63C3451.94 1745.71 3442.62 1764.93 3423.97 1779.29C3408.56 1791.2 3389.16 1797.15 3365.78 1797.15C3342.4 1797.15 3323.01 1791.2 3307.59 1779.29C3288.85 1764.93 3279.49 1745.31 3279.49 1720.45C3279.49 1695.31 3288.85 1675.7 3307.59 1661.6C3323.09 1649.96 3342.4 1644 3365.52 1643.74ZM3365.65 1671.58C3350.5 1671.58 3338.15 1676.44 3328.61 1686.16C3319.77 1695.27 3315.34 1706.7 3315.34 1720.45C3315.34 1734.11 3319.77 1745.49 3328.61 1754.6C3338.15 1764.4 3350.54 1769.31 3365.78 1769.31C3380.93 1769.31 3393.28 1764.4 3402.82 1754.6C3411.66 1745.58 3416.09 1734.41 3416.09 1721.1C3416.09 1706.65 3411.66 1695.01 3402.82 1686.16C3393.19 1676.62 3380.8 1671.76 3365.65 1671.58ZM3518.14 1731.48V1780.6C3518.14 1783.32 3518.76 1785.42 3519.98 1786.91C3521.21 1788.31 3523.4 1789.49 3526.55 1790.45V1794H3474.54V1790.32C3477.6 1789.53 3479.75 1788.4 3480.97 1786.91C3482.29 1785.42 3482.94 1783.32 3482.94 1780.6V1660.29C3482.94 1657.57 3482.33 1655.52 3481.1 1654.11C3479.88 1652.71 3477.69 1651.53 3474.54 1650.57V1646.89H3606.41C3609.21 1646.89 3611.31 1646.28 3612.71 1645.05C3614.2 1643.83 3615.39 1641.64 3616.26 1638.48H3619.81V1682.09H3616.26C3615.39 1678.94 3614.2 1676.75 3612.71 1675.52C3611.31 1674.21 3609.21 1673.55 3606.41 1673.55H3518.14V1705.87H3573.57C3576.37 1705.87 3578.48 1705.25 3579.88 1704.03C3581.28 1702.8 3582.46 1700.61 3583.42 1697.46H3586.97V1740.02H3583.42C3582.55 1736.86 3581.37 1734.67 3579.88 1733.45C3578.48 1732.14 3576.37 1731.48 3573.57 1731.48H3518.14ZM3882.77 1732.4L3907.72 1769.83L3904.31 1772.2C3901.85 1769.92 3899.84 1768.78 3898.26 1768.78C3896.69 1768.78 3892.27 1770.88 3885 1775.09C3869.94 1783.75 3857.24 1789.62 3846.91 1792.69C3836.66 1795.66 3824.45 1797.15 3810.26 1797.15C3781.98 1797.15 3758.77 1790.45 3740.65 1777.06C3729.96 1769.26 3721.56 1759.59 3715.43 1748.03C3708.34 1734.81 3704.79 1720.23 3704.79 1704.29C3704.79 1682.57 3711.14 1663.7 3723.83 1647.68C3742.92 1623.6 3771.78 1611.56 3810.39 1611.56C3824.58 1611.56 3836.75 1613.05 3846.91 1616.02C3857.06 1619 3869.76 1624.87 3885 1633.62C3892.27 1637.74 3896.69 1639.8 3898.26 1639.8C3899.84 1639.8 3901.85 1638.66 3904.31 1636.38L3907.72 1638.75L3882.77 1676.18L3879.22 1673.82C3879.39 1672.42 3879.48 1671.23 3879.48 1670.27C3879.48 1667.73 3878.39 1665.37 3876.2 1663.18C3874.01 1660.9 3870.11 1658.19 3864.51 1655.03C3849.01 1646.28 3832.59 1641.9 3815.25 1641.9C3794.76 1641.9 3778.43 1647.02 3766.26 1657.27C3751.9 1669.26 3744.72 1684.94 3744.72 1704.29C3744.72 1723.64 3751.9 1739.32 3766.26 1751.31C3778.43 1761.56 3794.76 1766.68 3815.25 1766.68C3832.59 1766.68 3849.01 1762.3 3864.51 1753.54C3870.11 1750.39 3874.01 1747.72 3876.2 1745.53C3878.39 1743.26 3879.48 1740.85 3879.48 1738.31C3879.48 1737.35 3879.39 1736.21 3879.22 1734.89L3882.77 1732.4ZM4014.11 1643.74C4037.49 1643.74 4056.98 1649.69 4072.56 1661.6C4091.21 1675.96 4100.54 1695.97 4100.54 1721.63C4100.54 1745.71 4091.21 1764.93 4072.56 1779.29C4057.15 1791.2 4037.76 1797.15 4014.38 1797.15C3991 1797.15 3971.6 1791.2 3956.19 1779.29C3937.45 1764.93 3928.08 1745.31 3928.08 1720.45C3928.08 1695.31 3937.45 1675.7 3956.19 1661.6C3971.69 1649.96 3991 1644 4014.11 1643.74ZM4014.24 1671.58C3999.1 1671.58 3986.75 1676.44 3977.2 1686.16C3968.36 1695.27 3963.94 1706.7 3963.94 1720.45C3963.94 1734.11 3968.36 1745.49 3977.2 1754.6C3986.75 1764.4 3999.14 1769.31 4014.38 1769.31C4029.52 1769.31 4041.87 1764.4 4051.42 1754.6C4060.26 1745.58 4064.68 1734.41 4064.68 1721.1C4064.68 1706.65 4060.26 1695.01 4051.42 1686.16C4041.78 1676.62 4029.39 1671.76 4014.24 1671.58ZM4217.18 1789.4L4163.59 1697.33V1780.6C4163.59 1783.32 4164.2 1785.42 4165.43 1786.91C4166.65 1788.31 4168.84 1789.49 4171.99 1790.45V1794H4123.13V1790.32C4126.2 1789.53 4128.34 1788.4 4129.57 1786.91C4130.88 1785.42 4131.54 1783.32 4131.54 1780.6V1660.29C4131.54 1657.57 4130.92 1655.52 4129.7 1654.11C4128.47 1652.63 4126.28 1651.44 4123.13 1650.57V1646.89H4185.26V1650.57C4181.14 1651.88 4179.09 1654.38 4179.09 1658.06C4179.09 1661.65 4180.57 1666.02 4183.55 1671.19L4220.2 1733.05L4257.11 1672.11C4261.31 1665.19 4263.41 1660.29 4263.41 1657.4C4263.41 1653.81 4261.27 1651.53 4256.97 1650.57V1646.89H4317.53V1650.57C4314.37 1651.44 4312.18 1652.63 4310.96 1654.11C4309.73 1655.52 4309.12 1657.57 4309.12 1660.29V1780.6C4309.12 1783.32 4309.73 1785.42 4310.96 1786.91C4312.18 1788.4 4314.37 1789.58 4317.53 1790.45V1794H4265.51V1790.32C4268.58 1789.53 4270.72 1788.4 4271.95 1786.91C4273.26 1785.42 4273.92 1783.32 4273.92 1780.6V1697.33L4217.18 1789.4ZM4387.14 1733.58V1780.6C4387.14 1783.32 4387.75 1785.42 4388.98 1786.91C4390.2 1788.31 4392.39 1789.49 4395.55 1790.45V1794H4343.53V1790.32C4346.6 1789.53 4348.74 1788.4 4349.97 1786.91C4351.28 1785.42 4351.94 1783.32 4351.94 1780.6V1660.29C4351.94 1657.57 4351.33 1655.52 4350.1 1654.11C4348.87 1652.71 4346.69 1651.53 4343.53 1650.57V1646.89H4439.42C4458.42 1646.89 4472.74 1649.74 4482.37 1655.43C4487.97 1658.76 4492.35 1663.48 4495.5 1669.61C4498.65 1675.74 4500.23 1682.62 4500.23 1690.24C4500.23 1704.86 4495.24 1715.76 4485.26 1722.94C4475.27 1730.03 4459.99 1733.58 4439.42 1733.58H4387.14ZM4387.14 1706.92H4437.31C4446.51 1706.92 4452.9 1706.04 4456.49 1704.29C4461.75 1701.75 4464.37 1697.07 4464.37 1690.24C4464.37 1683.41 4461.75 1678.72 4456.49 1676.18C4452.99 1674.43 4446.6 1673.55 4437.31 1673.55H4387.14V1706.92ZM4562.62 1767.34H4644.98C4647.78 1767.34 4649.88 1766.72 4651.28 1765.5C4652.68 1764.27 4653.86 1762.04 4654.83 1758.8H4658.37V1802.41H4654.83C4653.95 1799.25 4652.77 1797.06 4651.28 1795.84C4649.88 1794.61 4647.78 1794 4644.98 1794H4519.01V1790.32C4522.08 1789.53 4524.22 1788.4 4525.45 1786.91C4526.76 1785.42 4527.42 1783.32 4527.42 1780.6V1660.29C4527.42 1657.57 4526.81 1655.52 4525.58 1654.11C4524.35 1652.71 4522.17 1651.53 4519.01 1650.57V1646.89H4571.03V1650.57C4567.87 1651.44 4565.69 1652.63 4564.46 1654.11C4563.23 1655.52 4562.62 1657.57 4562.62 1660.29V1767.34ZM4717.09 1731.48V1767.34H4810.47C4813.19 1767.34 4815.25 1766.72 4816.65 1765.5C4818.14 1764.27 4819.32 1762.04 4820.19 1758.8H4823.87V1802.41H4820.19C4819.41 1799.34 4818.27 1797.15 4816.78 1795.84C4815.29 1794.61 4813.19 1794 4810.47 1794H4673.48V1790.32C4676.54 1789.53 4678.69 1788.4 4679.91 1786.91C4681.23 1785.42 4681.88 1783.32 4681.88 1780.6V1660.29C4681.88 1657.57 4681.27 1655.52 4680.05 1654.11C4678.82 1652.71 4676.63 1651.53 4673.48 1650.57V1646.89H4806.4C4809.2 1646.89 4811.31 1646.28 4812.71 1645.05C4814.2 1643.83 4815.38 1641.64 4816.25 1638.48H4819.8V1682.09H4816.25C4815.38 1678.85 4814.2 1676.62 4812.71 1675.39C4811.31 1674.17 4809.2 1673.55 4806.4 1673.55H4717.09V1705.87H4772.51C4775.23 1705.87 4777.29 1705.25 4778.69 1704.03C4780.18 1702.8 4781.4 1700.61 4782.37 1697.46H4785.91V1740.02H4782.37C4781.49 1736.86 4780.31 1734.67 4778.82 1733.45C4777.42 1732.14 4775.32 1731.48 4772.51 1731.48H4717.09ZM4928.82 1673.55V1780.6C4928.82 1783.32 4929.43 1785.42 4930.66 1786.91C4931.88 1788.31 4934.07 1789.49 4937.22 1790.45V1794H4885.21V1790.32C4888.28 1789.53 4890.42 1788.4 4891.65 1786.91C4892.96 1785.42 4893.62 1783.32 4893.62 1780.6V1673.55H4850.27C4847.47 1673.55 4845.32 1674.21 4843.84 1675.52C4842.43 1676.75 4841.3 1678.94 4840.42 1682.09H4836.87V1638.48H4840.55C4841.34 1641.55 4842.43 1643.74 4843.84 1645.05C4845.32 1646.28 4847.47 1646.89 4850.27 1646.89H4972.16C4974.96 1646.89 4977.07 1646.28 4978.47 1645.05C4979.96 1643.83 4981.14 1641.64 4982.01 1638.48H4985.56V1682.09H4982.01C4981.14 1678.94 4979.96 1676.75 4978.47 1675.52C4977.07 1674.21 4974.96 1673.55 4972.16 1673.55H4928.82ZM5044.4 1660.29V1780.6C5044.4 1783.32 5045.02 1785.42 5046.24 1786.91C5047.47 1788.31 5049.66 1789.49 5052.81 1790.45V1794H5000.8V1790.32C5003.86 1789.53 5006.01 1788.4 5007.23 1786.91C5008.55 1785.42 5009.2 1783.32 5009.2 1780.6V1660.29C5009.2 1657.57 5008.59 1655.52 5007.36 1654.11C5006.14 1652.71 5003.95 1651.53 5000.8 1650.57V1646.89H5052.81V1650.57C5049.66 1651.44 5047.47 1652.63 5046.24 1654.11C5045.02 1655.52 5044.4 1657.57 5044.4 1660.29ZM5161.57 1643.74C5184.95 1643.74 5204.43 1649.69 5220.02 1661.6C5238.67 1675.96 5247.99 1695.97 5247.99 1721.63C5247.99 1745.71 5238.67 1764.93 5220.02 1779.29C5204.6 1791.2 5185.21 1797.15 5161.83 1797.15C5138.45 1797.15 5119.05 1791.2 5103.64 1779.29C5084.9 1764.93 5075.53 1745.31 5075.53 1720.45C5075.53 1695.31 5084.9 1675.7 5103.64 1661.6C5119.14 1649.96 5138.45 1644 5161.57 1643.74ZM5161.7 1671.58C5146.55 1671.58 5134.2 1676.44 5124.66 1686.16C5115.81 1695.27 5111.39 1706.7 5111.39 1720.45C5111.39 1734.11 5115.81 1745.49 5124.66 1754.6C5134.2 1764.4 5146.59 1769.31 5161.83 1769.31C5176.98 1769.31 5189.32 1764.4 5198.87 1754.6C5207.71 1745.58 5212.13 1734.41 5212.13 1721.1C5212.13 1706.65 5207.71 1695.01 5198.87 1686.16C5189.24 1676.62 5176.85 1671.76 5161.7 1671.58ZM5311.04 1697.07V1780.6C5311.04 1783.32 5311.65 1785.42 5312.88 1786.91C5314.19 1788.4 5316.38 1789.58 5319.45 1790.45V1794H5270.58V1790.32C5273.65 1789.53 5275.79 1788.4 5277.02 1786.91C5278.33 1785.42 5278.99 1783.32 5278.99 1780.6V1660.29C5278.99 1657.57 5278.38 1655.52 5277.15 1654.11C5275.93 1652.71 5273.74 1651.53 5270.58 1650.57V1646.89H5327.06V1650.57C5323.21 1651.53 5321.28 1653.24 5321.28 1655.69C5321.28 1657.79 5322.69 1660.24 5325.49 1663.05L5404.3 1741.33V1660.29C5404.3 1657.57 5403.68 1655.52 5402.46 1654.11C5401.23 1652.63 5399.04 1651.44 5395.89 1650.57V1646.89H5444.75V1650.57C5441.6 1651.44 5439.41 1652.63 5438.18 1654.11C5436.96 1655.52 5436.35 1657.57 5436.35 1660.29V1780.6C5436.35 1783.32 5436.96 1785.42 5438.18 1786.91C5439.41 1788.31 5441.6 1789.49 5444.75 1790.45V1794H5392.08V1790.45C5395.93 1789.67 5397.86 1788.05 5397.86 1785.59C5397.86 1784.37 5397.33 1783.1 5396.28 1781.78C5395.23 1780.47 5392.83 1777.89 5389.06 1774.04L5311.04 1697.07Z" fill="#00518E"/>
</svg>
