<svg width="6900" height="5209" viewBox="0 0 6900 5209" fill="none" xmlns="http://www.w3.org/2000/svg">
<path d="M3006.69 1888.16L3005.99 1891.8C3000.29 1897.92 2995.17 1900.98 2990.64 1900.98C2986.89 1900.98 2985.01 1899.01 2985.01 1895.08C2985.01 1893.75 2985.31 1891.56 2985.91 1888.52L2988.61 1874.92C2989.34 1871.07 2989.7 1868.5 2989.7 1867.23C2989.7 1865.04 2988.85 1863.95 2987.16 1863.95C2985.99 1863.95 2983.89 1864.4 2980.87 1865.31L2981.34 1862.89L3000.44 1856.64L2997.47 1869.14L2993.65 1888.44C2993.05 1891.46 2992.75 1893.39 2992.75 1894.22C2992.75 1895.91 2993.52 1896.76 2995.05 1896.76C2997.63 1896.76 3001.51 1893.89 3006.69 1888.16ZM2992.36 1849.84L2994.97 1844.53L3005.99 1837.34L3002.63 1844.53L2992.36 1849.84ZM3003.97 1898.67L3009.09 1893.4C3012.48 1895.87 3015.93 1897.11 3019.44 1897.11C3021.61 1897.11 3023.43 1896.55 3024.91 1895.43C3026.4 1894.28 3027.14 1892.88 3027.14 1891.21C3027.14 1889.36 3025.67 1886.84 3022.72 1883.63L3019.17 1879.73C3015.71 1875.92 3013.97 1872.75 3013.97 1870.2C3013.97 1866.65 3015.65 1863.52 3019.01 1860.78C3022.37 1858.02 3026.21 1856.64 3030.54 1856.64C3032.91 1856.64 3035.56 1857.14 3038.51 1858.12L3036.79 1866.76H3034.33L3034.44 1866.09C3034.5 1865.86 3034.52 1865.59 3034.52 1865.27C3034.52 1861.76 3032.26 1860 3027.72 1860C3022.65 1860 3020.11 1862.03 3020.11 1866.09C3020.11 1868.15 3021.62 1870.89 3024.64 1874.3L3027.84 1877.85C3031.33 1881.78 3033.08 1885.01 3033.08 1887.54C3033.08 1891.03 3031.23 1894.14 3027.53 1896.88C3023.83 1899.61 3019.63 1900.98 3014.91 1900.98C3011.61 1900.98 3007.96 1900.21 3003.97 1898.67ZM3045.41 1925.31L3050.69 1919.73C3053.34 1921.03 3056.1 1921.68 3058.97 1921.68C3065.61 1921.68 3070.02 1916.18 3072.21 1905.2L3078.23 1874.92C3078.93 1871.07 3079.28 1868.5 3079.28 1867.23C3079.28 1865.04 3078.45 1863.95 3076.78 1863.95C3075.58 1863.95 3073.47 1864.4 3070.45 1865.31L3070.96 1862.89L3090.02 1856.64L3087.06 1869.26L3085.14 1878.79H3085.81C3088.77 1872.23 3092.32 1866.9 3096.43 1862.81C3100.57 1858.7 3104.45 1856.64 3108.07 1856.64C3113.62 1856.64 3116.39 1860.08 3116.39 1866.95C3116.39 1875 3113.21 1882.62 3106.86 1889.8C3100.53 1896.99 3093.81 1900.59 3086.7 1900.59C3085.97 1900.59 3084.49 1900.44 3082.25 1900.16C3081.96 1900.13 3081.52 1900.08 3080.92 1900C3078.86 1908.41 3075.3 1914.84 3070.22 1919.3C3065.17 1923.78 3058.89 1926.02 3051.39 1926.02C3049.52 1926.02 3047.52 1925.78 3045.41 1925.31ZM3082.02 1894.49C3085.27 1895.92 3088.53 1896.64 3091.78 1896.64C3096.5 1896.64 3100.27 1893.65 3103.11 1887.66C3106.47 1880.57 3108.15 1874.21 3108.15 1868.55C3108.15 1864.47 3106.94 1862.42 3104.52 1862.42C3102.3 1862.42 3099.1 1864.78 3094.91 1869.49C3090.71 1874.18 3087 1879.56 3083.77 1885.62L3082.02 1894.49ZM3125.2 1900.47L3128.09 1888.44L3131.88 1869.34C3132.27 1867.41 3132.46 1865.74 3132.46 1864.34C3132.46 1862.1 3131.68 1860.98 3130.12 1860.98C3127.36 1860.98 3123.41 1863.92 3118.28 1869.8L3118.99 1866.33C3125 1859.84 3130.22 1856.6 3134.65 1856.6C3138.4 1856.6 3140.27 1858.75 3140.27 1863.05C3140.27 1864.95 3140.04 1867.06 3139.57 1869.38L3137.7 1878.79H3138.2C3141.3 1872.28 3144.96 1866.97 3149.18 1862.85C3153.43 1858.71 3157.31 1856.64 3160.82 1856.64C3162.64 1856.64 3164.27 1857.04 3165.7 1857.85L3160.51 1864.88C3158.97 1863.87 3157.67 1863.36 3156.6 1863.36C3151.52 1863.36 3144.77 1870.82 3136.33 1885.74L3133.48 1900L3125.2 1900.47ZM3178.1 1900.98C3174.69 1900.98 3171.84 1899.65 3169.55 1896.99C3167.28 1894.31 3166.15 1890.98 3166.15 1886.99C3166.15 1879.49 3168.99 1872.57 3174.67 1866.21C3180.34 1859.83 3186.53 1856.64 3193.22 1856.64C3196.84 1856.64 3199.82 1857.94 3202.17 1860.55C3204.51 1863.15 3205.68 1866.47 3205.68 1870.51C3205.68 1878.29 3202.84 1885.33 3197.17 1891.6C3191.49 1897.85 3185.13 1900.98 3178.1 1900.98ZM3182.56 1897.58C3186.41 1897.58 3189.8 1895.1 3192.71 1890.16C3195.66 1885.18 3197.13 1879.41 3197.13 1872.85C3197.13 1864.23 3194.5 1859.92 3189.24 1859.92C3185.51 1859.92 3182.15 1862.49 3179.16 1867.62C3176.19 1872.72 3174.71 1878.48 3174.71 1884.88C3174.71 1893.35 3177.32 1897.58 3182.56 1897.58ZM3245.31 1878.79H3244.64C3237.25 1893.58 3230.03 1900.98 3223 1900.98C3218.84 1900.98 3216.75 1898.52 3216.75 1893.59C3216.75 1892.19 3216.96 1890.43 3217.38 1888.32L3221.17 1869.14C3221.77 1866.15 3222.07 1864.19 3222.07 1863.28C3222.07 1861.67 3221.3 1860.86 3219.76 1860.86C3217.21 1860.86 3213.33 1863.71 3208.12 1869.41L3208.82 1865.82C3214.5 1859.7 3219.62 1856.64 3224.18 1856.64C3227.95 1856.64 3229.84 1858.59 3229.84 1862.5C3229.84 1863.8 3229.53 1866.02 3228.9 1869.14L3225.07 1888.36C3224.73 1890.08 3224.57 1891.3 3224.57 1892.03C3224.57 1894.14 3225.33 1895.2 3226.87 1895.2C3228.82 1895.2 3231.78 1892.84 3235.74 1888.12C3239.72 1883.39 3243.38 1877.88 3246.71 1871.6L3249.53 1857.58L3257.81 1857.11L3254.92 1869.14L3251.09 1888.44C3250.49 1891.43 3250.19 1893.39 3250.19 1894.3C3250.19 1895.94 3250.96 1896.76 3252.5 1896.76C3255.07 1896.76 3258.95 1893.89 3264.14 1888.16L3263.43 1891.8C3257.73 1897.92 3252.61 1900.98 3248.08 1900.98C3244.31 1900.98 3242.42 1899.01 3242.42 1895.08C3242.42 1893.75 3242.73 1891.54 3243.35 1888.44L3245.31 1878.79ZM3297.24 1878.79H3296.54C3293.54 1885.35 3289.99 1890.69 3285.87 1894.8C3281.76 1898.92 3277.9 1900.98 3274.31 1900.98C3268.79 1900.98 3266.03 1897.53 3266.03 1890.62C3266.03 1885.94 3267.37 1881.03 3270.05 1875.9C3272.76 1870.77 3276.25 1866.46 3280.52 1862.97C3283.38 1860.65 3286.25 1859.1 3289.11 1858.32C3291.98 1857.51 3296.13 1857.11 3301.57 1857.11C3303.11 1851.95 3304.71 1848.02 3306.38 1845.31C3308.05 1842.58 3310.39 1840.03 3313.41 1837.66C3318.57 1833.59 3324.26 1831.56 3330.48 1831.56C3333.06 1831.56 3335.4 1831.84 3337.51 1832.38L3332.16 1837.93C3329.06 1836.58 3326.43 1835.9 3324.27 1835.9C3320.1 1835.9 3316.96 1837.42 3314.86 1840.47C3312.75 1843.49 3310.86 1849.17 3309.19 1857.5L3303.06 1888.44C3302.43 1891.46 3302.12 1893.39 3302.12 1894.22C3302.12 1895.91 3302.89 1896.76 3304.43 1896.76C3307.03 1896.76 3310.92 1893.89 3316.11 1888.16L3315.36 1891.8C3309.69 1897.92 3304.58 1900.98 3300.05 1900.98C3296.27 1900.98 3294.39 1899.01 3294.39 1895.08C3294.39 1893.8 3294.7 1891.59 3295.32 1888.44L3297.24 1878.79ZM3300.36 1863.16C3297.13 1861.71 3293.88 1860.98 3290.6 1860.98C3285.88 1860.98 3282.11 1863.97 3279.27 1869.96C3275.91 1877.04 3274.23 1883.41 3274.23 1889.06C3274.23 1893.15 3275.44 1895.2 3277.86 1895.2C3280.1 1895.2 3283.32 1892.84 3287.51 1888.12C3291.73 1883.41 3295.43 1878.03 3298.61 1871.99L3300.36 1863.16ZM3342.68 1887.97L3341.98 1891.56C3335.84 1897.84 3330.55 1900.98 3326.12 1900.98C3322.42 1900.98 3320.58 1898.98 3320.58 1895C3320.58 1893.36 3320.85 1891.16 3321.4 1888.4L3326.75 1861.45C3328.62 1852.02 3332.15 1844.69 3337.33 1839.45C3342.54 1834.19 3348.87 1831.56 3356.32 1831.56C3358.92 1831.56 3361.27 1831.84 3363.35 1832.38L3358 1837.97C3354.98 1836.59 3352.37 1835.9 3350.18 1835.9C3346.04 1835.9 3342.93 1837.41 3340.85 1840.43C3338.77 1843.45 3336.89 1849.17 3335.22 1857.58L3329.09 1888.44C3328.49 1891.43 3328.19 1893.39 3328.19 1894.3C3328.19 1895.94 3328.96 1896.76 3330.5 1896.76C3332.24 1896.76 3335.61 1894.44 3340.61 1889.8C3341.01 1889.44 3341.7 1888.83 3342.68 1887.97ZM3347.12 1924.88L3352.51 1919.41C3355.08 1920.92 3357.84 1921.68 3360.79 1921.68C3364.41 1921.68 3367.22 1920.39 3369.22 1917.81C3371.26 1915.23 3373.09 1910.55 3374.73 1903.75L3380.79 1878.79H3380.28C3377.23 1884.99 3374.13 1890.08 3370.98 1894.06C3367.83 1898.02 3365.34 1900 3363.52 1900C3361.62 1900 3360.19 1898.98 3359.22 1896.95C3358.29 1894.9 3357.47 1891.09 3356.76 1885.55L3354.89 1870.35C3354.19 1864.73 3353 1861.91 3351.33 1861.91C3349.72 1861.91 3347.1 1864.19 3343.48 1868.75L3344.26 1864.77C3348.35 1859.35 3352.22 1856.64 3355.87 1856.64C3357.95 1856.64 3359.43 1857.58 3360.32 1859.45C3361.2 1861.33 3362.04 1865.27 3362.82 1871.29L3364.46 1884.34C3365.06 1889 3366.05 1891.33 3367.43 1891.33C3369.04 1891.33 3371.32 1889.08 3374.26 1884.57C3374.78 1883.74 3377.69 1878.91 3382.97 1870.08L3385.94 1857.58L3394.26 1857.11L3390.79 1869.3L3383.95 1897.07C3381.63 1906.47 3377.94 1913.65 3372.86 1918.59C3367.81 1923.54 3361.61 1926.02 3354.26 1926.02C3351.48 1926.02 3349.09 1925.64 3347.12 1924.88ZM3401.02 1925.31L3406.29 1919.73C3408.95 1921.03 3411.71 1921.68 3414.57 1921.68C3421.21 1921.68 3425.62 1916.18 3427.81 1905.2L3433.83 1874.92C3434.53 1871.07 3434.88 1868.5 3434.88 1867.23C3434.88 1865.04 3434.05 1863.95 3432.38 1863.95C3431.18 1863.95 3429.08 1864.4 3426.05 1865.31L3426.56 1862.89L3445.62 1856.64L3442.66 1869.26L3440.74 1878.79H3441.41C3444.38 1872.23 3447.92 1866.9 3452.03 1862.81C3456.17 1858.7 3460.05 1856.64 3463.67 1856.64C3469.22 1856.64 3471.99 1860.08 3471.99 1866.95C3471.99 1875 3468.82 1882.62 3462.46 1889.8C3456.13 1896.99 3449.41 1900.59 3442.3 1900.59C3441.58 1900.59 3440.09 1900.44 3437.85 1900.16C3437.57 1900.13 3437.12 1900.08 3436.52 1900C3434.47 1908.41 3430.9 1914.84 3425.82 1919.3C3420.77 1923.78 3414.49 1926.02 3406.99 1926.02C3405.12 1926.02 3403.12 1925.78 3401.02 1925.31ZM3437.62 1894.49C3440.87 1895.92 3444.13 1896.64 3447.38 1896.64C3452.1 1896.64 3455.87 1893.65 3458.71 1887.66C3462.07 1880.57 3463.75 1874.21 3463.75 1868.55C3463.75 1864.47 3462.54 1862.42 3460.12 1862.42C3457.9 1862.42 3454.7 1864.78 3450.51 1869.49C3446.32 1874.18 3442.6 1879.56 3439.38 1885.62L3437.62 1894.49ZM3480.8 1900.47L3483.69 1888.44L3487.48 1869.34C3487.87 1867.41 3488.06 1865.74 3488.06 1864.34C3488.06 1862.1 3487.28 1860.98 3485.72 1860.98C3482.96 1860.98 3479.01 1863.92 3473.88 1869.8L3474.59 1866.33C3480.6 1859.84 3485.82 1856.6 3490.25 1856.6C3494 1856.6 3495.88 1858.75 3495.88 1863.05C3495.88 1864.95 3495.64 1867.06 3495.17 1869.38L3493.3 1878.79H3493.81C3496.9 1872.28 3500.56 1866.97 3504.78 1862.85C3509.03 1858.71 3512.91 1856.64 3516.42 1856.64C3518.25 1856.64 3519.87 1857.04 3521.31 1857.85L3516.11 1864.88C3514.57 1863.87 3513.27 1863.36 3512.2 1863.36C3507.13 1863.36 3500.37 1870.82 3491.93 1885.74L3489.08 1900L3480.8 1900.47ZM3555.97 1889.34L3555.38 1892.34C3547.1 1898.1 3540.05 1900.98 3534.21 1900.98C3530.51 1900.98 3527.51 1899.69 3525.19 1897.11C3522.9 1894.51 3521.75 1891.15 3521.75 1887.03C3521.75 1879.69 3524.56 1872.79 3530.19 1866.33C3535.81 1859.84 3541.82 1856.6 3548.2 1856.6C3550.51 1856.6 3552.39 1857.38 3553.82 1858.95C3555.25 1860.51 3555.97 1862.54 3555.97 1865.04C3555.97 1870.04 3553.42 1874.34 3548.31 1877.93C3543.21 1881.52 3537.12 1883.32 3530.03 1883.32L3529.99 1885.08C3529.99 1892.68 3532.78 1896.48 3538.35 1896.48C3543.17 1896.48 3549.04 1894.1 3555.97 1889.34ZM3530.11 1880.9C3535.94 1880.43 3540.5 1878.93 3543.78 1876.41C3547.06 1873.85 3548.71 1870.56 3548.71 1866.52C3548.71 1862.54 3547.26 1860.55 3544.37 1860.55C3541.24 1860.55 3538.22 1862.63 3535.31 1866.8C3532.39 1870.94 3530.66 1875.64 3530.11 1880.9ZM3558.99 1898.67L3564.11 1893.4C3567.5 1895.87 3570.95 1897.11 3574.46 1897.11C3576.63 1897.11 3578.45 1896.55 3579.93 1895.43C3581.42 1894.28 3582.16 1892.88 3582.16 1891.21C3582.16 1889.36 3580.69 1886.84 3577.74 1883.63L3574.19 1879.73C3570.73 1875.92 3568.99 1872.75 3568.99 1870.2C3568.99 1866.65 3570.67 1863.52 3574.03 1860.78C3577.39 1858.02 3581.23 1856.64 3585.56 1856.64C3587.93 1856.64 3590.58 1857.14 3593.53 1858.12L3591.81 1866.76H3589.35L3589.46 1866.09C3589.52 1865.86 3589.54 1865.59 3589.54 1865.27C3589.54 1861.76 3587.28 1860 3582.74 1860C3577.67 1860 3575.13 1862.03 3575.13 1866.09C3575.13 1868.15 3576.64 1870.89 3579.66 1874.3L3582.86 1877.85C3586.35 1881.78 3588.1 1885.01 3588.1 1887.54C3588.1 1891.03 3586.25 1894.14 3582.55 1896.88C3578.85 1899.61 3574.65 1900.98 3569.93 1900.98C3566.63 1900.98 3562.98 1900.21 3558.99 1898.67ZM3633.5 1889.34L3632.92 1892.34C3624.64 1898.1 3617.58 1900.98 3611.75 1900.98C3608.05 1900.98 3605.04 1899.69 3602.72 1897.11C3600.43 1894.51 3599.28 1891.15 3599.28 1887.03C3599.28 1879.69 3602.1 1872.79 3607.72 1866.33C3613.35 1859.84 3619.35 1856.6 3625.73 1856.6C3628.05 1856.6 3629.92 1857.38 3631.36 1858.95C3632.79 1860.51 3633.5 1862.54 3633.5 1865.04C3633.5 1870.04 3630.95 1874.34 3625.85 1877.93C3620.74 1881.52 3614.65 1883.32 3607.57 1883.32L3607.53 1885.08C3607.53 1892.68 3610.31 1896.48 3615.89 1896.48C3620.7 1896.48 3626.58 1894.1 3633.5 1889.34ZM3607.64 1880.9C3613.48 1880.43 3618.03 1878.93 3621.32 1876.41C3624.6 1873.85 3626.24 1870.56 3626.24 1866.52C3626.24 1862.54 3624.79 1860.55 3621.9 1860.55C3618.78 1860.55 3615.76 1862.63 3612.84 1866.8C3609.92 1870.94 3608.19 1875.64 3607.64 1880.9ZM3644.34 1900.47L3647.23 1888.44L3651.06 1869.14C3651.66 1866.15 3651.96 1864.19 3651.96 1863.28C3651.96 1861.67 3651.19 1860.86 3649.65 1860.86C3647.1 1860.86 3643.22 1863.71 3638.01 1869.41L3638.72 1865.82C3644.39 1859.7 3649.51 1856.64 3654.07 1856.64C3657.82 1856.64 3659.69 1858.59 3659.69 1862.5C3659.69 1863.83 3659.39 1866.04 3658.79 1869.14L3656.88 1878.79H3657.47C3660.72 1872.12 3664.39 1866.77 3668.48 1862.73C3672.6 1858.67 3676.42 1856.64 3679.97 1856.64C3684.24 1856.64 3686.37 1859.01 3686.37 1863.75C3686.37 1865.29 3686.15 1867.16 3685.71 1869.38L3681.92 1888.44C3681.32 1891.46 3681.02 1893.41 3681.02 1894.3C3681.02 1895.94 3681.79 1896.76 3683.33 1896.76C3685.93 1896.76 3689.82 1893.89 3695 1888.16L3694.26 1891.8C3688.59 1897.92 3683.47 1900.98 3678.91 1900.98C3675.16 1900.98 3673.29 1899.01 3673.29 1895.08C3673.29 1893.78 3673.6 1891.56 3674.22 1888.44L3678.01 1869.3C3678.33 1867.81 3678.48 1866.56 3678.48 1865.55C3678.48 1863.44 3677.7 1862.38 3676.14 1862.38C3671.16 1862.38 3664.26 1870.27 3655.43 1886.05L3652.58 1900L3644.34 1900.47ZM3707.52 1860.47H3698.58L3701.27 1857.58H3708.07L3710.29 1846.52L3718.38 1844.57L3715.8 1857.58H3730.53L3727.33 1861.02C3723.97 1860.65 3720.98 1860.47 3718.38 1860.47H3715.22L3709.9 1887.23C3709.36 1889.99 3709.08 1891.93 3709.08 1893.05C3709.08 1895.1 3710 1896.13 3711.82 1896.13C3714.63 1896.13 3718.47 1894.05 3723.34 1889.88L3722.64 1893.48C3717.59 1898.48 3712.73 1900.98 3708.07 1900.98C3703.64 1900.98 3701.43 1898.53 3701.43 1893.63C3701.43 1891.89 3701.71 1889.57 3702.29 1886.68L3707.52 1860.47ZM3767.34 1889.34L3766.76 1892.34C3758.48 1898.1 3751.42 1900.98 3745.58 1900.98C3741.89 1900.98 3738.88 1899.69 3736.56 1897.11C3734.27 1894.51 3733.12 1891.15 3733.12 1887.03C3733.12 1879.69 3735.94 1872.79 3741.56 1866.33C3747.19 1859.84 3753.19 1856.6 3759.57 1856.6C3761.89 1856.6 3763.76 1857.38 3765.19 1858.95C3766.63 1860.51 3767.34 1862.54 3767.34 1865.04C3767.34 1870.04 3764.79 1874.34 3759.69 1877.93C3754.58 1881.52 3748.49 1883.32 3741.4 1883.32L3741.37 1885.08C3741.37 1892.68 3744.15 1896.48 3749.73 1896.48C3754.54 1896.48 3760.42 1894.1 3767.34 1889.34ZM3741.48 1880.9C3747.32 1880.43 3751.87 1878.93 3755.15 1876.41C3758.44 1873.85 3760.08 1870.56 3760.08 1866.52C3760.08 1862.54 3758.63 1860.55 3755.74 1860.55C3752.62 1860.55 3749.6 1862.63 3746.68 1866.8C3743.76 1870.94 3742.03 1875.64 3741.48 1880.9ZM3806.11 1878.79H3805.41C3802.41 1885.35 3798.86 1890.69 3794.74 1894.8C3790.63 1898.92 3786.77 1900.98 3783.18 1900.98C3777.66 1900.98 3774.9 1897.53 3774.9 1890.62C3774.9 1885.94 3776.24 1881.03 3778.92 1875.9C3781.63 1870.77 3785.12 1866.46 3789.39 1862.97C3792.25 1860.65 3795.12 1859.1 3797.98 1858.32C3800.85 1857.51 3805 1857.11 3810.45 1857.11C3811.98 1851.95 3813.58 1848.02 3815.25 1845.31C3816.92 1842.58 3819.26 1840.03 3822.28 1837.66C3827.44 1833.59 3833.13 1831.56 3839.35 1831.56C3841.93 1831.56 3844.27 1831.84 3846.38 1832.38L3841.03 1837.93C3837.93 1836.58 3835.3 1835.9 3833.14 1835.9C3828.97 1835.9 3825.84 1837.42 3823.73 1840.47C3821.62 1843.49 3819.73 1849.17 3818.06 1857.5L3811.93 1888.44C3811.3 1891.46 3810.99 1893.39 3810.99 1894.22C3810.99 1895.91 3811.76 1896.76 3813.3 1896.76C3815.9 1896.76 3819.79 1893.89 3824.98 1888.16L3824.23 1891.8C3818.56 1897.92 3813.45 1900.98 3808.92 1900.98C3805.15 1900.98 3803.26 1899.01 3803.26 1895.08C3803.26 1893.8 3803.57 1891.59 3804.2 1888.44L3806.11 1878.79ZM3809.23 1863.16C3806 1861.71 3802.75 1860.98 3799.47 1860.98C3794.75 1860.98 3790.98 1863.97 3788.14 1869.96C3784.78 1877.04 3783.1 1883.41 3783.1 1889.06C3783.1 1893.15 3784.31 1895.2 3786.73 1895.2C3788.97 1895.2 3792.19 1892.84 3796.38 1888.12C3800.6 1883.41 3804.3 1878.03 3807.48 1871.99L3809.23 1863.16ZM3863.53 1860.47H3854.58L3857.28 1857.58H3864.07L3866.3 1846.52L3874.38 1844.57L3871.81 1857.58H3886.53L3883.33 1861.02C3879.97 1860.65 3876.99 1860.47 3874.38 1860.47H3871.22L3865.91 1887.23C3865.36 1889.99 3865.09 1891.93 3865.09 1893.05C3865.09 1895.1 3866 1896.13 3867.82 1896.13C3870.63 1896.13 3874.48 1894.05 3879.35 1889.88L3878.64 1893.48C3873.59 1898.48 3868.73 1900.98 3864.07 1900.98C3859.64 1900.98 3857.43 1898.53 3857.43 1893.63C3857.43 1891.89 3857.72 1889.57 3858.29 1886.68L3863.53 1860.47ZM3901.08 1900.98C3897.67 1900.98 3894.82 1899.65 3892.53 1896.99C3890.26 1894.31 3889.13 1890.98 3889.13 1886.99C3889.13 1879.49 3891.97 1872.57 3897.64 1866.21C3903.32 1859.83 3909.51 1856.64 3916.2 1856.64C3919.82 1856.64 3922.8 1857.94 3925.14 1860.55C3927.49 1863.15 3928.66 1866.47 3928.66 1870.51C3928.66 1878.29 3925.82 1885.33 3920.14 1891.6C3914.47 1897.85 3908.11 1900.98 3901.08 1900.98ZM3905.53 1897.58C3909.39 1897.58 3912.77 1895.1 3915.69 1890.16C3918.63 1885.18 3920.1 1879.41 3920.1 1872.85C3920.1 1864.23 3917.47 1859.92 3912.21 1859.92C3908.49 1859.92 3905.13 1862.49 3902.14 1867.62C3899.17 1872.72 3897.68 1878.48 3897.68 1884.88C3897.68 1893.35 3900.3 1897.58 3905.53 1897.58Z" fill="black"/>
</svg>
