<svg width="6900" height="5209" viewBox="0 0 6900 5209" fill="none" xmlns="http://www.w3.org/2000/svg">
<path d="M1501.33 2155.07V2238.6C1501.33 2241.32 1501.94 2243.42 1503.17 2244.91C1504.48 2246.4 1506.67 2247.58 1509.73 2248.45V2252H1460.87V2248.32C1463.94 2247.53 1466.08 2246.4 1467.31 2244.91C1468.62 2243.42 1469.28 2241.32 1469.28 2238.6V2118.29C1469.28 2115.57 1468.67 2113.52 1467.44 2112.11C1466.21 2110.71 1464.02 2109.53 1460.87 2108.57V2104.89H1517.35V2108.57C1513.5 2109.53 1511.57 2111.24 1511.57 2113.69C1511.57 2115.79 1512.97 2118.24 1515.78 2121.05L1594.58 2199.33V2118.29C1594.58 2115.57 1593.97 2113.52 1592.75 2112.11C1591.52 2110.63 1589.33 2109.44 1586.18 2108.57V2104.89H1635.04V2108.57C1631.89 2109.44 1629.7 2110.63 1628.47 2112.11C1627.25 2113.52 1626.63 2115.57 1626.63 2118.29V2238.6C1626.63 2241.32 1627.25 2243.42 1628.47 2244.91C1629.7 2246.31 1631.89 2247.49 1635.04 2248.45V2252H1582.37V2248.45C1586.22 2247.67 1588.15 2246.05 1588.15 2243.59C1588.15 2242.37 1587.62 2241.1 1586.57 2239.78C1585.52 2238.47 1583.11 2235.89 1579.35 2232.04L1501.33 2155.07ZM1772.56 2215.22H1704.92L1697.3 2231.25C1695.46 2235.1 1694.54 2238.12 1694.54 2240.31C1694.54 2244.51 1697.34 2247.18 1702.95 2248.32V2252H1648.83V2248.32C1652.16 2247.8 1654.61 2246.79 1656.19 2245.3C1657.85 2243.81 1659.78 2240.88 1661.97 2236.5L1715.69 2127.75C1717.7 2123.63 1718.71 2120.04 1718.71 2116.97C1718.71 2113.38 1716.26 2110.58 1711.35 2108.57V2104.89H1768.49V2108.57C1763.67 2110.49 1761.26 2113.47 1761.26 2117.5C1761.26 2120.39 1762.36 2123.94 1764.55 2128.14L1820.24 2233.61C1823.3 2239.39 1825.71 2243.16 1827.46 2244.91C1829.21 2246.57 1831.89 2247.75 1835.48 2248.45V2252H1775.45V2248.45C1781.14 2247.49 1783.99 2244.82 1783.99 2240.44C1783.99 2237.73 1782.89 2234.36 1780.7 2230.33L1772.56 2215.22ZM1761.92 2194.6L1737.88 2147.45L1715.03 2194.6H1761.92ZM1941.87 2247.4L1888.28 2155.33V2238.6C1888.28 2241.32 1888.89 2243.42 1890.12 2244.91C1891.34 2246.31 1893.53 2247.49 1896.68 2248.45V2252H1847.82V2248.32C1850.89 2247.53 1853.03 2246.4 1854.26 2244.91C1855.57 2243.42 1856.23 2241.32 1856.23 2238.6V2118.29C1856.23 2115.57 1855.62 2113.52 1854.39 2112.11C1853.16 2110.63 1850.97 2109.44 1847.82 2108.57V2104.89H1909.95V2108.57C1905.83 2109.88 1903.78 2112.38 1903.78 2116.06C1903.78 2119.65 1905.26 2124.02 1908.24 2129.19L1944.89 2191.05L1981.8 2130.11C1986 2123.19 1988.1 2118.29 1988.1 2115.4C1988.1 2111.81 1985.96 2109.53 1981.67 2108.57V2104.89H2042.22V2108.57C2039.06 2109.44 2036.88 2110.63 2035.65 2112.11C2034.42 2113.52 2033.81 2115.57 2033.81 2118.29V2238.6C2033.81 2241.32 2034.42 2243.42 2035.65 2244.91C2036.88 2246.4 2039.06 2247.58 2042.22 2248.45V2252H1990.2V2248.32C1993.27 2247.53 1995.41 2246.4 1996.64 2244.91C1997.95 2243.42 1998.61 2241.32 1998.61 2238.6V2155.33L1941.87 2247.4ZM2111.83 2189.48V2225.34H2205.22C2207.93 2225.34 2209.99 2224.72 2211.39 2223.5C2212.88 2222.27 2214.06 2220.04 2214.94 2216.8H2218.62V2260.41H2214.94C2214.15 2257.34 2213.01 2255.15 2211.52 2253.84C2210.04 2252.61 2207.93 2252 2205.22 2252H2068.22V2248.32C2071.29 2247.53 2073.43 2246.4 2074.66 2244.91C2075.97 2243.42 2076.63 2241.32 2076.63 2238.6V2118.29C2076.63 2115.57 2076.02 2113.52 2074.79 2112.11C2073.57 2110.71 2071.38 2109.53 2068.22 2108.57V2104.89H2201.15C2203.95 2104.89 2206.05 2104.28 2207.45 2103.05C2208.94 2101.83 2210.12 2099.64 2211 2096.48H2214.54V2140.09H2211C2210.12 2136.85 2208.94 2134.62 2207.45 2133.39C2206.05 2132.17 2203.95 2131.55 2201.15 2131.55H2111.83V2163.87H2167.26C2169.97 2163.87 2172.03 2163.25 2173.43 2162.03C2174.92 2160.8 2176.15 2158.61 2177.11 2155.46H2180.66V2198.02H2177.11C2176.24 2194.86 2175.05 2192.67 2173.56 2191.45C2172.16 2190.14 2170.06 2189.48 2167.26 2189.48H2111.83Z" fill="black"/>
</svg>
