<svg width="6900" height="5209" viewBox="0 0 6900 5209" fill="none" xmlns="http://www.w3.org/2000/svg">
<path d="M3380.22 1583L3386 1577.22L3386.58 1577.38C3386.9 1577.43 3387.65 1577.45 3388.85 1577.45C3391.74 1577.45 3393.87 1576.42 3395.25 1574.37C3396.66 1572.31 3397.96 1568.29 3399.16 1562.3L3405.37 1530.97H3395.49C3385.46 1530.97 3380.45 1534.93 3380.45 1542.84C3380.45 1543.78 3380.57 1544.94 3380.8 1546.32L3372.68 1550.11C3373.77 1542.45 3377.09 1536.39 3382.64 1531.91C3388.18 1527.43 3395.16 1525.19 3403.58 1525.19H3420.14C3427.61 1525.19 3432.56 1524.69 3434.98 1523.7C3437.4 1522.71 3439.04 1520.51 3439.9 1517.1L3445.76 1514.72C3443.94 1519.56 3440.42 1523.48 3435.22 1526.48C3430.01 1529.47 3424.1 1530.97 3417.48 1530.97H3413.58L3408.15 1558.2C3407.18 1563.09 3405.75 1566.96 3403.85 1569.8C3401.97 1572.61 3399.02 1575.3 3394.98 1577.88L3410.06 1578.2L3404.63 1583.98L3380.22 1583ZM3427.6 1583.47L3430.49 1571.44L3435.85 1544.45C3437.72 1535.02 3441.25 1527.69 3446.43 1522.45C3451.64 1517.19 3457.97 1514.56 3465.42 1514.56C3467.99 1514.56 3470.34 1514.84 3472.45 1515.38L3467.1 1520.97C3464.05 1519.59 3461.45 1518.9 3459.28 1518.9C3455.14 1518.9 3452.03 1520.41 3449.95 1523.43C3447.86 1526.42 3445.99 1532.14 3444.32 1540.58L3440.1 1561.79H3440.73C3443.96 1555.12 3447.63 1549.77 3451.74 1545.73C3455.86 1541.67 3459.67 1539.64 3463.19 1539.64C3467.49 1539.64 3469.64 1542.01 3469.64 1546.75C3469.64 1548.31 3469.41 1550.19 3468.97 1552.38L3465.18 1571.44C3464.58 1574.43 3464.28 1576.39 3464.28 1577.3C3464.28 1578.94 3465.05 1579.76 3466.59 1579.76C3469.19 1579.76 3473.07 1576.89 3478.23 1571.16L3477.53 1574.8C3471.82 1580.92 3466.71 1583.98 3462.17 1583.98C3458.42 1583.98 3456.55 1582.01 3456.55 1578.08C3456.55 1576.78 3456.85 1574.56 3457.45 1571.44L3461.28 1552.3C3461.56 1550.81 3461.71 1549.56 3461.71 1548.55C3461.71 1546.44 3460.92 1545.38 3459.36 1545.38C3454.41 1545.38 3447.51 1553.27 3438.66 1569.05L3435.85 1583L3427.6 1583.47ZM3507.14 1571.16L3506.44 1574.8C3500.73 1580.92 3495.62 1583.98 3491.09 1583.98C3487.34 1583.98 3485.46 1582.01 3485.46 1578.08C3485.46 1576.75 3485.76 1574.56 3486.36 1571.52L3489.05 1557.92C3489.78 1554.07 3490.15 1551.5 3490.15 1550.23C3490.15 1548.04 3489.3 1546.95 3487.61 1546.95C3486.44 1546.95 3484.34 1547.4 3481.32 1548.31L3481.79 1545.89L3500.89 1539.64L3497.92 1552.14L3494.09 1571.44C3493.49 1574.46 3493.2 1576.39 3493.2 1577.22C3493.2 1578.91 3493.96 1579.76 3495.5 1579.76C3498.08 1579.76 3501.96 1576.89 3507.14 1571.16ZM3492.8 1532.84L3495.42 1527.53L3506.44 1520.34L3503.08 1527.53L3492.8 1532.84ZM3503.94 1581.67L3509.06 1576.4C3512.45 1578.87 3515.9 1580.11 3519.41 1580.11C3521.57 1580.11 3523.4 1579.55 3524.88 1578.43C3526.36 1577.28 3527.11 1575.88 3527.11 1574.21C3527.11 1572.36 3525.64 1569.84 3522.69 1566.63L3519.14 1562.73C3515.67 1558.92 3513.94 1555.75 3513.94 1553.2C3513.94 1549.65 3515.62 1546.52 3518.98 1543.78C3522.34 1541.02 3526.18 1539.64 3530.51 1539.64C3532.88 1539.64 3535.53 1540.14 3538.47 1541.12L3536.76 1549.76H3534.29L3534.41 1549.09C3534.46 1548.86 3534.49 1548.59 3534.49 1548.27C3534.49 1544.76 3532.22 1543 3527.69 1543C3522.61 1543 3520.08 1545.03 3520.08 1549.09C3520.08 1551.15 3521.59 1553.89 3524.61 1557.3L3527.81 1560.85C3531.3 1564.78 3533.04 1568.01 3533.04 1570.54C3533.04 1574.03 3531.2 1577.14 3527.5 1579.88C3523.8 1582.61 3519.59 1583.98 3514.88 1583.98C3511.57 1583.98 3507.93 1583.21 3503.94 1581.67Z" fill="black"/>
</svg>
