<svg width="6900" height="5209" viewBox="0 0 6900 5209" fill="none" xmlns="http://www.w3.org/2000/svg">
<path d="M3194.88 3858.69C3195.01 3854.73 3193.84 3848.53 3196.51 3845.31C3197.99 3843.52 3202.15 3842.68 3203.97 3844.66C3203.91 3846.53 3203.02 3846.74 3201.31 3848.33C3200.1 3850.86 3201.47 3858.42 3201.09 3861.72C3200.72 3865.05 3198.5 3865.35 3198.37 3867.23C3197.94 3873.34 3197.93 3879.97 3197.85 3886.08L3194.96 3889.97C3194.88 3891.55 3194.84 3893.13 3194.83 3894.71C3194.82 3897.1 3194.56 3899.42 3196.23 3901.12C3199.66 3900.62 3203.85 3893.5 3205.67 3892.84C3211.22 3890.85 3213.75 3887.45 3217.95 3884.68C3224.75 3880.19 3232.86 3877.16 3239.6 3872.24C3242.35 3870.23 3242.82 3872.34 3246.4 3868.52C3247.4 3868.49 3252.53 3868.42 3252.96 3868.16C3259.02 3864.62 3263.18 3865.43 3270 3865.05L3270.4 3864.7C3275.53 3860.18 3283.12 3861.98 3289.52 3862.64C3292.1 3862.91 3295.64 3864.48 3298.32 3864.96C3303.87 3865.96 3305.73 3863.26 3309.67 3867.77C3311.51 3868.7 3318.18 3868.42 3320.62 3868.42C3328.66 3875.04 3345.3 3877.15 3352.51 3886.09C3355.88 3890.27 3353.56 3888.14 3355.23 3892.2C3356.89 3893.4 3359.66 3892.9 3360.13 3893.53C3367.06 3902.77 3374.09 3911.56 3379.64 3921.77C3380.75 3923.81 3382.16 3929.78 3383.33 3932.2C3387.34 3934.65 3385.3 3935.49 3385.91 3939.84C3386.12 3941.76 3388.41 3942.11 3388.81 3943.94C3389.96 3949.07 3386.97 3950.86 3390.6 3954.99C3393.01 3957.74 3391.12 3968.53 3392.07 3972.33C3392.29 3973.98 3394.69 3977.07 3394.35 3978.71C3393.08 3985.01 3390.29 3985.41 3393.57 3991.89C3397.36 3999.34 3389.15 4010.83 3393.57 4017.84C3394.11 4018.7 3397.58 4018.98 3398.68 4019.03C3408.74 4019.45 3418.45 4021.5 3428.6 4020.91C3432.66 4020.69 3437.44 4021.57 3441.53 4021.9C3445.43 4022.22 3449.17 4022.15 3453.08 4022.17C3455.53 4020.32 3458.45 4019.07 3460.51 4016.73C3464.9 4011.74 3466.5 4004.47 3469.36 3998.55C3469.75 3997.75 3471.23 3997.31 3471.55 3996.41C3472.9 3992.69 3473.27 3986.74 3477.37 3984.94C3485.01 3984.12 3481.08 3990.96 3481.44 3993.59C3484.84 3998.31 3488.15 3990.05 3494.8 4000.55C3504.3 4000.81 3517.26 4001.9 3525.92 4005.87C3527.81 4005.16 3529.79 4004.49 3531.82 4004.23C3538.8 4003.35 3548.65 4006.58 3554.8 4006.67C3565.16 4006.83 3575.9 4006.51 3586.35 4007.12C3587.95 4007.22 3588.41 4008 3589.8 4009.13C3594.72 4009.45 3592.44 4003.07 3601.41 4009.98C3610.42 4009.21 3629.07 4009.95 3639 4009.97L3662.75 4010.01C3665.63 4010.02 3670.55 4010.02 3673.27 4010.06C3675.65 4010.09 3674.89 4012.46 3680.53 4012.54C3688.73 4012.67 3697.08 4013.22 3705.28 4013C3711.46 4012.83 3717.13 4012.42 3723.36 4012.62C3728.33 4009.37 3733.93 4008.12 3738.63 4012.48C3777.41 4013.04 3816.19 4013.21 3854.98 4013C3858.12 4012.98 3861.51 4012.71 3864.63 4013.04C3866.64 4013.25 3869.25 4014.98 3871.22 4014.08C3871.62 4013.9 3871.99 4013.67 3872.41 4013.5C3874.44 4012.7 4010.82 4012.36 4022.13 4013.14C4024.08 4013.27 4025.71 4015.14 4027.59 4015.3C4029.32 4015.45 4031.23 4013.93 4033.08 4013.84C4036.66 4013.68 4040.28 4014 4043.87 4013.93C4051.52 4013.78 4060.43 4012.74 4067.97 4014.18C4069 4014.37 4069.87 4015.07 4070.82 4015.47C4072.44 4016.15 4074.09 4015.07 4075.56 4014.47C4076.92 4013.92 4077.59 4014.19 4078.87 4014.8C4082.16 4016.36 4120.28 4015.73 4127.73 4016.23C4129.66 4016.35 4131.14 4017.73 4132.99 4018.22C4135.86 4018.97 4139.23 4018.83 4142.18 4018.98C4144.33 4019.09 4145.02 4019.23 4146.45 4020.79C4148.36 4022.88 4154.75 4022.26 4157.56 4022.33C4164.33 4022.5 4171.26 4021.99 4178 4022.44C4179.73 4022.56 4181.27 4023.84 4182.91 4023.82C4184.37 4023.81 4186.35 4022.65 4187.74 4023.03C4188.55 4023.25 4189.46 4024.01 4190.15 4024.48C4194.44 4027.33 4196.34 4028.46 4201.46 4028.71C4202.55 4043.55 4200.65 4040.88 4186.81 4040.77C4185.64 4039.99 4184.04 4038.7 4182.87 4037.83C4173.25 4037.58 4168.66 4035.33 4159.89 4038.66C4155.06 4036.56 4155.64 4035.61 4152.32 4032.79C4148.79 4029.78 4144.79 4034.77 4140.29 4029.72C4137.87 4027.01 4123.32 4028.26 4119.73 4028.57C4119.36 4028.36 4116.75 4026.84 4116.4 4026.81C4104.33 4025.62 4091.97 4024.5 4079.89 4026.32C4078.5 4026.53 4077.01 4027.65 4076.14 4027.96C4072.37 4029.31 4073.24 4027.02 4070.95 4025.52C4070.66 4025.33 4067.61 4025.3 4066.93 4025.3C4057.76 4025.19 4048.59 4025.18 4039.42 4025.25C4033.08 4025.33 4026.42 4025.4 4020.09 4025.36C4016.74 4025.34 4018.45 4022.59 4012.89 4022.24C4008.05 4021.64 4003.37 4025.33 3998.84 4022.89C3996.66 4021.71 3992.06 4022.35 3989.47 4022.37L3966.76 4022.69C3951.69 4022.83 3936 4021.31 3921.08 4023.25C3919.96 4023.39 3916.81 4022.81 3915.2 4022.74C3909.57 4022.51 3903.86 4021.42 3898.4 4023.33C3898.27 4023.37 3896.03 4022.01 3893.68 4022.03C3889.17 4022.09 3883.79 4024.42 3879.22 4024.4C3875.73 4024.24 3871.39 4022.36 3867.77 4022.41C3867.33 4022.42 3865 4023.28 3864.34 4023.42C3857.64 4020.59 3824.93 4023.51 3816.41 4022.21C3814.74 4021.95 3810.49 4022.3 3808.45 4022.16C3802.31 4021.73 3796.33 4020.26 3790.24 4019.76C3789.04 4020.44 3788.73 4020.69 3787.35 4020.93C3782.77 4018.17 3780.81 4020.68 3775.45 4020.62C3774.72 4020.61 3771.75 4019.46 3770.78 4019.15C3769.47 4018.33 3766.7 4020.55 3766.04 4020.51C3762.71 4020.31 3745.31 4018.13 3742.88 4019.12C3732.42 4023.39 3723.59 4016.77 3715.23 4021.61C3709.85 4018.59 3709.71 4020.69 3704.36 4020.26C3680.34 4018.29 3656.23 4019.45 3632.14 4019.24C3627.64 4019.21 3622.92 4016.21 3620.47 4016.61C3619.65 4017.73 3619.44 4018.18 3618.23 4018.89C3614.63 4018.96 3598.51 4018.55 3595.16 4017.29C3592.45 4014.72 3588.02 4018.43 3587.16 4017.98C3582.81 4015.73 3573.93 4016.27 3568.86 4016.65C3567.71 4017.42 3567.08 4018.03 3565.72 4018C3564.94 4017.4 3563.13 4015.96 3562.18 4015.99C3545.75 4016.64 3529.35 4015.88 3512.9 4016.17C3509.94 4016.22 3507.2 4013.89 3504.13 4013.92C3502.91 4014.68 3502.38 4015.22 3500.98 4015.07C3500.6 4014.72 3499.21 4013.43 3498.8 4013.41C3494.31 4013.23 3489.49 4013.14 3485 4012.93C3482.83 4014.75 3480.95 4016.02 3478.62 4017.62L3482.85 4021.04C3490.51 4020.48 3532.06 4023.45 3533.59 4022.92C3536.93 4021.76 3542.28 4025.12 3546 4025.38C3556.43 4026.11 3567.09 4024.82 3577.57 4025.42C3579.8 4025.55 3580.96 4027.96 3583.15 4028.28C3585.66 4028.65 3588.67 4028.33 3591.24 4028.35C3596.43 4028.4 3601.69 4028.52 3606.86 4028.91C3614.54 4029.48 3621.65 4033.32 3626.67 4039.16C3620.67 4045.44 3622.14 4044.38 3614.67 4041.3C3614.17 4041.09 3610.45 4042.12 3609.54 4042.37C3606.4 4041.82 3603.05 4037.9 3599.07 4037.58C3594.33 4037.2 3590.06 4037.58 3585.24 4037.31C3581.7 4037.12 3579.56 4034.64 3575.6 4034.52C3568.11 4034.3 3552.83 4035.07 3546.25 4032.34C3539.96 4029.74 3540.89 4032.12 3535.35 4032.5C3529.85 4032.88 3523.7 4031.5 3517.76 4031.32C3512.23 4026.36 3512.69 4029.11 3506.74 4030.98C3505.05 4030.95 3503.9 4029.58 3502.56 4028.42C3491.73 4028.15 3480.81 4028.58 3469.92 4028.3C3463.96 4028.15 3462.09 4029.17 3458 4033.68C3455.47 4036.43 3453.5 4041.29 3451.1 4043.96C3446.5 4049.09 3442.61 4053.8 3438.99 4059.69C3438.05 4061.21 3436.16 4062.06 3435.12 4063.89C3434.25 4064.13 3433.39 4064.16 3432.49 4064.24C3431.58 4063.32 3431.84 4062.91 3431.72 4061.35C3430.98 4052.75 3452.44 4034.4 3449.95 4028.87C3448.64 4028.18 3441.35 4028.16 3439.76 4028.42C3433.18 4029.46 3395.81 4026.33 3392.62 4030.25C3391.51 4034.75 3392.06 4035.94 3389.16 4039.67C3388.92 4044.5 3389.6 4054.08 3388.79 4058.15C3386.84 4068 3385.75 4072.88 3385.66 4083.01C3381.61 4088.34 3379.61 4103.61 3379.43 4110.4C3379.02 4110.94 3377.43 4113.06 3377.33 4113.55C3375.64 4122.33 3373.68 4128.85 3373.23 4137.74C3369.75 4141.67 3370.41 4143.1 3370.29 4148.6C3369.44 4149.66 3368.04 4151.31 3367.29 4152.37L3367.37 4160.02C3362.5 4164.82 3362.01 4183.16 3355.17 4190.84C3355.1 4195.46 3355.6 4196.48 3352.39 4199.6L3352.21 4199.77C3351.65 4209.16 3347.26 4211.79 3343.61 4219.7C3341.02 4225.34 3340.12 4229.53 3336.78 4235.2C3333.66 4240.5 3332.28 4247.48 3327.54 4252.47C3325.9 4254.58 3325.38 4256.67 3323.19 4258.83C3320.24 4260.25 3316.66 4259.76 3315.11 4256.05C3313.36 4251.86 3313.15 4249.49 3310.82 4244.87C3307.02 4237.31 3301.89 4228.22 3299.05 4220.04C3299.05 4220.04 3298.05 4219.28 3297.98 4219.23C3298.28 4216.11 3296.55 4212.58 3299.29 4211.1C3306.94 4220.28 3311.22 4230.95 3316.91 4241.41C3318.83 4244.96 3316.72 4247.28 3319.71 4249.7C3321.38 4250.11 3321.75 4250.27 3323.45 4249.68C3324.7 4247.92 3324.06 4248.19 3324.25 4246.03C3325.32 4242.49 3326.43 4245.12 3327.44 4240.6C3329.21 4232.58 3335.51 4224.81 3337.46 4216.48C3337.56 4216.04 3339.08 4214.57 3339.42 4214.27C3339.55 4206.13 3346.89 4192.53 3349.45 4184.21C3349.69 4183.21 3351.82 4181.93 3351.9 4181.11C3352.4 4176.17 3350.58 4174.73 3354.8 4171.75C3355.41 4167.13 3354.33 4168.12 3356.47 4164.03C3359.9 4157.48 3360.4 4145.13 3361.89 4138.03C3362.52 4135.01 3366.92 4126.34 3366.89 4125.77C3366.45 4117.53 3370.54 4112.8 3370.4 4105.81C3375.19 4099.56 3372.53 4097.48 3373.71 4090.58C3374.64 4085.16 3377.95 4078.69 3379.39 4073.46C3380.37 4069.87 3379.1 4063.78 3379.67 4059.98C3380.98 4053.92 3384.87 4035.5 3382.44 4029.6C3379.32 4026.96 3360.99 4029.22 3356.01 4028.33C3353.19 4027.82 3352.63 4026.77 3350.14 4026.34C3345.31 4029.07 3346.52 4025.09 3344.12 4025.71C3341.08 4026.48 3339.65 4028.53 3335.18 4028.71C3330.67 4028.89 3330.49 4026.14 3327.08 4026.23C3318 4026.41 3308.85 4025.69 3299.82 4025.41C3285.85 4024.98 3272.24 4026.48 3258.46 4023.66C3252.91 4022.52 3245.85 4022.46 3240.18 4022.39L3194.48 4022.21C3185.58 4022.15 3174.97 4021.96 3166.16 4022.51C3157.83 4023.03 3157.58 4043.29 3151.95 4048.77L3151.73 4056.49L3148.89 4060.2C3148.82 4068.93 3146.4 4069.94 3143.58 4078.34C3140.51 4087.51 3139.47 4091.42 3139.32 4100.78C3134.98 4106.22 3134.79 4113.89 3137.01 4120.27C3138 4120.32 3141.16 4120.55 3141.65 4121.09C3142.35 4121.84 3151.29 4124.3 3151.41 4124.48C3154.61 4129.46 3158.63 4124.18 3161.94 4129.64C3162.12 4129.95 3165.53 4129.84 3166.24 4131.75L3165.46 4132.68C3164.47 4132.95 3163.17 4133.17 3162.21 4132.78C3154.06 4129.41 3145.86 4126.21 3137.54 4123.26C3133.87 4121.96 3133.41 4122.9 3130.15 4124.57C3130.57 4131.6 3127.7 4137.14 3126.42 4143.97C3126.32 4144.51 3124.75 4146.24 3124.31 4146.72C3124.37 4157.07 3117.49 4171.68 3117.78 4181.27L3115.09 4185.15C3114.87 4188.21 3115.38 4199.15 3114.72 4201.15C3111.33 4211.44 3112.64 4220.6 3111.65 4230.34C3110.55 4241.13 3105.46 4250.18 3105.54 4262.08L3102.58 4265.97C3102.56 4267.85 3102.56 4278.76 3102 4279.31C3097.18 4283.94 3100.81 4289.59 3098.88 4294.92C3096.85 4296.57 3096.58 4297.62 3094.5 4299.41C3090.59 4300.3 3089.16 4295.74 3087.5 4292.71C3091.62 4285.47 3093.48 4274.89 3093.37 4266.54L3096.18 4263.06C3096.38 4257.38 3095.6 4255.31 3099.2 4251.13C3099.56 4245.76 3099.25 4244.45 3102.21 4239.96C3101.71 4229.35 3103.68 4221.83 3105.53 4211.65C3105.94 4210.16 3105.2 4202.07 3105.68 4201.22C3109.18 4194.98 3107.93 4188.64 3109.2 4181.86C3111.11 4171.64 3114.46 4161.87 3117.31 4151.92C3118.03 4149.09 3117.94 4145.45 3118.61 4142.67C3119.98 4137.04 3120.88 4131.81 3121.49 4126.08C3121.77 4123.43 3124.62 4121.9 3123.63 4118.43C3122.32 4117.4 3120.25 4117.62 3118.5 4117.61C3118.61 4116.44 3118.52 4115.69 3119.3 4114.85C3121.46 4113.91 3121.71 4113.76 3123.19 4111.93C3129.94 4107.01 3127.41 4094.39 3133.22 4087.14C3133.2 4086.32 3133.2 4085.5 3133.21 4084.68C3133.31 4078.43 3141.67 4054.86 3143.44 4047.67C3143.54 4047.26 3144.94 4045.86 3145.36 4045.46C3145.66 4040.61 3145.32 4039.53 3148.45 4035.83C3148.68 4029.37 3150.7 4029.2 3150.71 4024.64C3147.94 4019.25 3125.74 4024.33 3120.45 4024.96C3114.75 4025.64 3113.4 4022.12 3107.28 4024.84C3105.69 4025.55 3088.44 4024.95 3086.97 4024.16L3086.73 4024.03C3084.58 4022.87 3081.34 4025.05 3077.14 4025.02C3070.54 4025.4 3062.32 4024.92 3055.92 4025.31C3047.63 4025.82 3038.81 4023.48 3031.8 4027.74C3030.25 4028.68 3026.02 4026.03 3024.16 4024.99C3021.82 4026.29 3021.41 4026.53 3019.02 4027.36C3015.06 4028.74 2993.89 4027.58 2992.01 4029.07C2991.32 4029.6 2990.65 4030.15 2990 4030.72C2988.05 4031.15 2987.71 4030.81 2985.95 4030.11C2983.45 4029.13 2978.7 4030.24 2975.93 4030.6C2967.35 4031.73 2959.01 4031.45 2950.4 4031.42C2948.88 4031.42 2947.39 4033.76 2945.63 4033.45C2934.14 4034.21 2922.76 4035.82 2911.35 4037.25C2907.37 4037.75 2903.61 4037.64 2899.76 4038.02C2897.01 4038.29 2892.18 4040.29 2889.29 4040.61C2885.99 4040.97 2882.28 4040.4 2878.93 4040.76C2876.53 4041.01 2872.32 4043.55 2870.22 4043.66C2863.45 4044.04 2856.77 4043.58 2849.97 4044.19C2846.67 4044.49 2846.07 4046.42 2844.28 4046.56C2837.81 4047.06 2829.78 4047.33 2823.35 4047.14C2821.34 4048.56 2818.78 4049.71 2819.6 4052.35C2820.09 4052.65 2840.46 4054.79 2842.74 4056.05C2842.91 4056.14 2851.9 4056.14 2852.94 4056.02C2858.74 4055.36 2861.31 4057.6 2866.55 4059.09C2871.45 4059.73 2877.98 4058.85 2883.13 4059.25C2888.17 4059.62 2892.96 4060.96 2897.99 4061.76C2903.79 4062.69 2908.91 4060.76 2913.29 4065.09C2916.78 4065.48 2922.58 4065.35 2926.26 4065.37C2931.21 4069.05 2934.89 4067.94 2940.6 4069.05C2943.88 4069.69 2947.03 4070.65 2950.39 4071.18C2955.62 4072.02 2961.01 4071.06 2965.26 4074.5C2965.46 4074.65 2972.76 4074.42 2973.97 4074.78C2976.47 4075.51 2976.5 4077.23 2978.84 4077.47C2983.38 4078.11 2989.22 4076.22 2992.73 4079.52L2992.47 4081.79C2990.2 4083.23 2986.94 4082.13 2983.66 4082.59C2981.78 4079.98 2968.52 4080.46 2965.14 4080.51C2958.83 4075.73 2951.61 4078.56 2944.11 4077.46C2942.77 4077.27 2941.55 4075.37 2940.75 4075.24C2935.78 4074.44 2929.75 4074.61 2924.68 4074.6C2923.29 4073.37 2922.1 4072.49 2920.6 4071.4C2912.07 4072.21 2911.58 4069.18 2904.16 4068.57C2898.76 4068.12 2890.58 4068.4 2884.94 4068.47C2884.25 4067.93 2882.47 4066.52 2881.72 4066.42C2866.34 4064.22 2850.68 4066.05 2835.25 4065.1C2830.41 4064.8 2823.18 4061.68 2817.68 4061.62C2815.88 4061.6 2811.56 4059.69 2809.31 4059.49C2805.53 4059.15 2801.88 4059.05 2798.09 4058.95C2789.35 4058.29 2780.68 4058.44 2771.94 4058.48C2769.21 4058.36 2764.55 4058.68 2762.21 4057.22C2760.06 4055.88 2759.08 4050.65 2761.11 4048.81C2763.65 4046.5 2767.39 4046.82 2770.52 4046.72C2771.12 4046.21 2773.49 4044.17 2774.11 4044.09C2779.05 4043.45 2784.5 4044.44 2789.41 4043.9C2792.76 4043.16 2793.77 4041.96 2797.35 4041.44C2808.14 4039.85 2818.69 4042.45 2828.77 4037.75C2830.09 4037.14 2839.77 4037.98 2842.83 4036.94C2844.78 4034.74 2845.52 4034.35 2848.52 4034.51C2860.26 4035.14 2870.51 4034.15 2882.01 4031.65C2884.82 4031.03 2892.09 4031.45 2895.35 4031.52C2901.5 4027.05 2912.33 4028.33 2919.97 4028.49C2924.61 4024.99 2926.48 4026.01 2932.15 4024.86C2935.85 4024.12 2940.12 4022.67 2943.84 4022.46C2953.64 4021.91 2963.63 4022.56 2973.45 4022.17C2976.51 4022.04 2979.21 4019.75 2982.03 4019.61C2995.24 4018.98 3008.72 4019.15 3021.99 4019.09C3030.68 4019.06 3038.28 4016.44 3045.08 4016.17C3058.04 4015.64 3072.78 4016.31 3085.74 4016.05C3095.67 4015.85 3103.27 4015.34 3113.46 4015.45C3118.12 4011.84 3133.65 4012.9 3139.69 4013.7C3145.23 4014.44 3148.12 4012.81 3154.09 4013.17C3157.38 4005.76 3157.8 4008.27 3158.25 3998.86L3160.76 3995.77C3161.05 3990.82 3160.5 3989.8 3163.89 3986.47C3164.23 3976.02 3178.46 3942.46 3175.83 3935.94C3175.67 3935.55 3175.15 3935.44 3174.77 3935.27C3170.36 3935.9 3168.08 3942.29 3165.65 3945.23C3159.95 3952.14 3160.31 3958.89 3157.25 3966.65C3156.27 3967.53 3156.04 3967.83 3154.59 3967.8C3150.55 3967.72 3151.72 3960.33 3151.81 3957.93C3153.87 3955.38 3155.46 3951.13 3157.41 3947.66C3159.62 3943.72 3162.56 3940.22 3164.09 3936.23C3166.96 3928.78 3178.64 3919.26 3182.69 3912.49C3185.82 3906.06 3185.59 3898.28 3186.09 3891.35C3185.83 3894.97 3189.69 3881 3189.1 3882.76C3191.63 3875.27 3191.96 3870.44 3191.93 3862.72L3194.88 3858.69ZM3253.79 3874.5C3248.49 3878.21 3237.55 3881.04 3230.99 3885.01C3215.89 3894.15 3198.22 3905.28 3188.95 3920.75C3187.78 3922.88 3190.17 3927.59 3185.69 3933.75C3185.83 3944.37 3180.11 3954.78 3179.14 3964.57L3176.35 3967.58C3176.54 3970.46 3176.82 3972.73 3175.42 3975.36C3173.16 3979.61 3173.35 3982.39 3173.15 3987.02L3170.56 3990.27L3170.57 3990.6C3170.6 3998.14 3164 4005.15 3167.63 4012.14C3171.44 4015.1 3234.99 4011.57 3245.51 4013.07C3246.51 4013.21 3247.26 4013.71 3248.05 4014.29C3251.32 4016.73 3278.1 4016.13 3283.75 4016.09C3287.39 4016.04 3298.22 4014.98 3301.07 4017.8C3301.49 4018.22 3305.28 4016.22 3306.25 4016.2C3313.4 4016.01 3322.3 4015.83 3329.31 4016.23C3336.88 4023.09 3336.97 4015.74 3340.66 4016.22C3352.96 4017.84 3370.37 4019.62 3382.51 4019.11C3383.06 4017.9 3385.01 4013.67 3385.18 4012.46C3386.28 4004.28 3385.8 3994.67 3385.51 3986.39C3385.39 3982.99 3383.72 3979.35 3384.91 3976.2C3385.84 3973.77 3383.39 3971.96 3383.14 3969.78C3382.41 3963.16 3383.74 3955.21 3381.89 3948.88C3381.65 3948.06 3378.2 3943.53 3377.46 3941.92C3372.99 3932.14 3369.71 3920.6 3361.74 3913.08C3360.45 3911.6 3359.47 3908.23 3358.21 3906.97C3351.23 3899.97 3344.3 3892.65 3335.78 3887.49C3330.08 3884.03 3327.59 3880.85 3320.67 3880.46C3318.67 3878.59 3318.78 3878.53 3316.37 3877.81C3310.2 3875.95 3304.22 3874.64 3297.79 3874.12C3297.45 3874.09 3296.01 3872.24 3295.75 3871.88C3294.82 3871.49 3280.39 3870.69 3279.38 3871.01C3276.42 3871.42 3271.13 3871.17 3268.85 3871.93C3262.36 3874.09 3260.49 3874.63 3253.79 3874.5Z" fill="black"/>
<path d="M3297.98 4219.23C3294.65 4215.99 3292.58 4211.28 3289.62 4207.67C3282.25 4198.67 3271.63 4190.92 3262.19 4184.15C3255.68 4179.49 3210.41 4152.15 3204.78 4151.64C3200.91 4151.29 3197.67 4147.78 3194.09 4146.3C3192.89 4145.8 3190.49 4145.85 3189.6 4145.2C3188.99 4144.74 3188.65 4143.23 3187.97 4142.82C3186.44 4141.89 3183.83 4142.78 3182.07 4141.53C3181.76 4141.31 3181.8 4140.74 3181.74 4140.37C3185.24 4135.96 3191.99 4142.73 3195.68 4144.46C3197.95 4145.53 3198.88 4145.35 3201.34 4145.43C3204.31 4148.19 3209.21 4149.38 3213.08 4151.21C3232 4160.18 3250.63 4170 3267.32 4182.73C3274.05 4187.88 3298.14 4203.47 3299.29 4211.1C3296.55 4212.58 3298.28 4216.11 3297.98 4219.23Z" fill="black"/>
<path d="M2992.73 4079.52C2996.74 4081.19 3002.21 4080.49 3006.54 4081.06C3011.4 4081.71 3016.03 4082.46 3020.9 4083.17C3022.69 4083.44 3026.05 4086.52 3026.57 4086.43C3033.21 4085.23 3036.39 4087.08 3042.44 4089.52C3043.68 4090.03 3047.07 4089.27 3048.52 4089.61C3049.37 4089.77 3051.26 4092.14 3051.36 4092.17C3055.54 4093.23 3060.48 4093.68 3064.62 4095C3067.36 4095.87 3072.83 4095.64 3074.57 4097.38C3078.62 4101.43 3080.88 4096.26 3085.28 4101.44C3090.62 4103.46 3089.45 4099.77 3094.07 4104.51C3095.72 4106.19 3109.29 4108.52 3112.05 4108.67C3115.69 4111.58 3118.48 4112.86 3123.19 4111.93C3121.71 4113.76 3121.46 4113.91 3119.3 4114.85C3118.52 4115.69 3118.61 4116.44 3118.5 4117.61C3118.38 4117.39 3117.57 4115.99 3117.35 4115.92C3107.76 4112.54 3097.92 4109.14 3088.29 4105.74C3087.25 4105.37 3084.55 4105.32 3083.93 4105.34L3080.47 4102.48C3078.38 4102.41 3076.29 4102.32 3074.2 4102.2C3073.89 4101.88 3073.57 4101.57 3073.24 4101.26C3070.34 4098.54 3066.82 4099.24 3062.8 4099.35C3058.96 4095.55 3057.01 4096.64 3052 4095.85C3048.89 4095.37 3045.9 4094.75 3042.82 4094.13C3036.71 4092.9 3033.22 4093.97 3027.95 4090.06C3015.91 4090.2 3006.49 4086.96 2994.84 4084.53C2991.33 4083.8 2986.67 4084.05 2983.66 4082.59C2986.94 4082.13 2990.2 4083.23 2992.47 4081.79L2992.73 4079.52Z" fill="black"/>
<path d="M3431.72 4061.35C3431.84 4062.91 3431.58 4063.32 3432.49 4064.24C3433.39 4064.16 3434.25 4064.13 3435.12 4063.89C3434.75 4067.91 3434.19 4066.34 3432.43 4069.33C3431.56 4070.8 3432.77 4071.82 3431 4074.04L3430.04 4073.92C3426.99 4070.51 3427.89 4064.05 3431.72 4061.35Z" fill="black"/>
</svg>
