<svg width="6900" height="5209" viewBox="0 0 6900 5209" fill="none" xmlns="http://www.w3.org/2000/svg">
<path d="M2360.96 4814.13C2360.96 4814.61 2360.93 4815.02 2360.88 4815.37C2360.83 4815.72 2360.75 4816.01 2360.62 4816.24C2360.52 4816.44 2360.38 4816.59 2360.21 4816.69C2360.06 4816.79 2359.88 4816.84 2359.68 4816.84H2345.99V4859.02C2345.99 4859.22 2345.94 4859.4 2345.84 4859.55C2345.74 4859.7 2345.57 4859.82 2345.32 4859.92C2345.07 4860 2344.73 4860.06 2344.3 4860.11C2343.9 4860.19 2343.39 4860.23 2342.76 4860.23C2342.16 4860.23 2341.65 4860.19 2341.22 4860.11C2340.79 4860.06 2340.46 4860 2340.2 4859.92C2339.95 4859.82 2339.78 4859.7 2339.68 4859.55C2339.58 4859.4 2339.53 4859.22 2339.53 4859.02V4816.84H2325.84C2325.64 4816.84 2325.45 4816.79 2325.28 4816.69C2325.13 4816.59 2325 4816.44 2324.9 4816.24C2324.8 4816.01 2324.71 4815.72 2324.64 4815.37C2324.59 4815.02 2324.56 4814.61 2324.56 4814.13C2324.56 4813.65 2324.59 4813.24 2324.64 4812.89C2324.71 4812.51 2324.8 4812.21 2324.9 4811.99C2325 4811.76 2325.13 4811.6 2325.28 4811.5C2325.45 4811.4 2325.64 4811.35 2325.84 4811.35H2359.68C2359.88 4811.35 2360.06 4811.4 2360.21 4811.5C2360.38 4811.6 2360.52 4811.76 2360.62 4811.99C2360.75 4812.21 2360.83 4812.51 2360.88 4812.89C2360.93 4813.24 2360.96 4813.65 2360.96 4814.13ZM2382.24 4827.44C2382.24 4827.99 2382.23 4828.46 2382.2 4828.83C2382.18 4829.21 2382.13 4829.51 2382.05 4829.73C2381.98 4829.93 2381.88 4830.1 2381.75 4830.22C2381.65 4830.32 2381.5 4830.37 2381.3 4830.37C2381.1 4830.37 2380.85 4830.32 2380.55 4830.22C2380.27 4830.1 2379.95 4829.98 2379.57 4829.88C2379.22 4829.76 2378.82 4829.65 2378.37 4829.55C2377.92 4829.45 2377.43 4829.4 2376.9 4829.4C2376.27 4829.4 2375.66 4829.52 2375.06 4829.77C2374.46 4830.02 2373.82 4830.44 2373.14 4831.01C2372.49 4831.59 2371.8 4832.35 2371.07 4833.31C2370.35 4834.26 2369.54 4835.42 2368.67 4836.8V4859.06C2368.67 4859.26 2368.62 4859.44 2368.52 4859.59C2368.42 4859.71 2368.25 4859.82 2368.03 4859.92C2367.8 4860.03 2367.49 4860.1 2367.09 4860.15C2366.69 4860.2 2366.17 4860.23 2365.55 4860.23C2364.94 4860.23 2364.44 4860.2 2364.04 4860.15C2363.64 4860.1 2363.31 4860.03 2363.06 4859.92C2362.84 4859.82 2362.68 4859.71 2362.58 4859.59C2362.5 4859.44 2362.46 4859.26 2362.46 4859.06V4825.22C2362.46 4825.02 2362.5 4824.86 2362.58 4824.73C2362.65 4824.58 2362.8 4824.46 2363.03 4824.36C2363.25 4824.23 2363.54 4824.16 2363.89 4824.13C2364.24 4824.08 2364.71 4824.06 2365.28 4824.06C2365.83 4824.06 2366.28 4824.08 2366.64 4824.13C2367.01 4824.16 2367.3 4824.23 2367.5 4824.36C2367.7 4824.46 2367.84 4824.58 2367.91 4824.73C2368.01 4824.86 2368.06 4825.02 2368.06 4825.22V4830.15C2368.99 4828.79 2369.86 4827.69 2370.66 4826.84C2371.49 4825.99 2372.26 4825.32 2372.99 4824.85C2373.72 4824.34 2374.43 4824.01 2375.13 4823.83C2375.86 4823.63 2376.59 4823.53 2377.31 4823.53C2377.64 4823.53 2378 4823.56 2378.4 4823.61C2378.83 4823.63 2379.27 4823.69 2379.72 4823.79C2380.17 4823.89 2380.57 4824.01 2380.92 4824.13C2381.3 4824.26 2381.56 4824.38 2381.71 4824.51C2381.86 4824.63 2381.96 4824.76 2382.01 4824.88C2382.06 4824.98 2382.1 4825.12 2382.13 4825.3C2382.18 4825.47 2382.2 4825.74 2382.2 4826.09C2382.23 4826.41 2382.24 4826.86 2382.24 4827.44ZM2413.22 4859.1C2413.22 4859.4 2413.12 4859.62 2412.92 4859.77C2412.72 4859.92 2412.44 4860.04 2412.09 4860.11C2411.74 4860.19 2411.23 4860.23 2410.55 4860.23C2409.9 4860.23 2409.37 4860.19 2408.97 4860.11C2408.59 4860.04 2408.32 4859.92 2408.14 4859.77C2407.97 4859.62 2407.88 4859.4 2407.88 4859.1V4855.71C2406.4 4857.29 2404.75 4858.52 2402.92 4859.4C2401.11 4860.28 2399.2 4860.71 2397.17 4860.71C2395.39 4860.71 2393.77 4860.48 2392.31 4860C2390.89 4859.55 2389.66 4858.88 2388.63 4858.01C2387.63 4857.13 2386.84 4856.05 2386.26 4854.77C2385.71 4853.5 2385.43 4852.04 2385.43 4850.41C2385.43 4848.51 2385.82 4846.85 2386.6 4845.45C2387.38 4844.05 2388.49 4842.88 2389.95 4841.95C2391.4 4841.03 2393.18 4840.34 2395.29 4839.89C2397.39 4839.41 2399.76 4839.17 2402.39 4839.17H2407.05V4836.54C2407.05 4835.24 2406.92 4834.08 2406.64 4833.08C2406.36 4832.08 2405.91 4831.25 2405.29 4830.6C2404.68 4829.92 2403.9 4829.42 2402.92 4829.09C2401.94 4828.74 2400.74 4828.57 2399.31 4828.57C2397.78 4828.57 2396.4 4828.76 2395.17 4829.13C2393.97 4829.48 2392.9 4829.88 2391.98 4830.34C2391.07 4830.76 2390.31 4831.16 2389.68 4831.54C2389.08 4831.89 2388.63 4832.06 2388.33 4832.06C2388.13 4832.06 2387.95 4832.01 2387.8 4831.91C2387.65 4831.81 2387.51 4831.66 2387.39 4831.46C2387.29 4831.26 2387.21 4831.01 2387.16 4830.71C2387.11 4830.39 2387.09 4830.03 2387.09 4829.66C2387.09 4829.03 2387.13 4828.54 2387.2 4828.19C2387.3 4827.82 2387.51 4827.47 2387.84 4827.14C2388.19 4826.81 2388.78 4826.44 2389.61 4826.01C2390.44 4825.56 2391.39 4825.16 2392.47 4824.81C2393.54 4824.43 2394.72 4824.13 2396 4823.91C2397.28 4823.66 2398.57 4823.53 2399.87 4823.53C2402.3 4823.53 2404.37 4823.81 2406.08 4824.36C2407.78 4824.91 2409.16 4825.72 2410.21 4826.8C2411.26 4827.85 2412.03 4829.17 2412.5 4830.75C2412.98 4832.33 2413.22 4834.17 2413.22 4836.28V4859.1ZM2407.05 4843.65H2401.75C2400.05 4843.65 2398.57 4843.8 2397.32 4844.1C2396.06 4844.37 2395.02 4844.8 2394.19 4845.37C2393.37 4845.93 2392.75 4846.6 2392.35 4847.4C2391.98 4848.18 2391.79 4849.08 2391.79 4850.11C2391.79 4851.87 2392.34 4853.27 2393.44 4854.32C2394.57 4855.35 2396.14 4855.86 2398.14 4855.86C2399.77 4855.86 2401.28 4855.45 2402.65 4854.62C2404.06 4853.8 2405.52 4852.53 2407.05 4850.83V4843.65ZM2430.85 4859.06C2430.85 4859.26 2430.8 4859.44 2430.7 4859.59C2430.6 4859.71 2430.44 4859.82 2430.21 4859.92C2429.99 4860.03 2429.67 4860.1 2429.27 4860.15C2428.87 4860.2 2428.36 4860.23 2427.73 4860.23C2427.13 4860.23 2426.63 4860.2 2426.23 4860.15C2425.83 4860.1 2425.5 4860.03 2425.25 4859.92C2425.02 4859.82 2424.86 4859.71 2424.76 4859.59C2424.69 4859.44 2424.65 4859.26 2424.65 4859.06V4825.22C2424.65 4825.05 2424.69 4824.88 2424.76 4824.73C2424.86 4824.58 2425.02 4824.46 2425.25 4824.36C2425.5 4824.26 2425.83 4824.18 2426.23 4824.13C2426.63 4824.08 2427.13 4824.06 2427.73 4824.06C2428.36 4824.06 2428.87 4824.08 2429.27 4824.13C2429.67 4824.18 2429.99 4824.26 2430.21 4824.36C2430.44 4824.46 2430.6 4824.58 2430.7 4824.73C2430.8 4824.88 2430.85 4825.05 2430.85 4825.22V4859.06ZM2431.57 4813.79C2431.57 4815.25 2431.29 4816.24 2430.74 4816.76C2430.19 4817.29 2429.17 4817.55 2427.69 4817.55C2426.24 4817.55 2425.24 4817.3 2424.69 4816.8C2424.16 4816.27 2423.9 4815.3 2423.9 4813.87C2423.9 4812.41 2424.17 4811.42 2424.72 4810.9C2425.28 4810.37 2426.29 4810.11 2427.77 4810.11C2429.22 4810.11 2430.21 4810.37 2430.74 4810.9C2431.29 4811.4 2431.57 4812.36 2431.57 4813.79ZM2471.46 4859.06C2471.46 4859.26 2471.41 4859.44 2471.31 4859.59C2471.21 4859.71 2471.04 4859.82 2470.82 4859.92C2470.59 4860.03 2470.28 4860.1 2469.88 4860.15C2469.48 4860.2 2468.98 4860.23 2468.38 4860.23C2467.75 4860.23 2467.23 4860.2 2466.83 4860.15C2466.43 4860.1 2466.12 4860.03 2465.89 4859.92C2465.67 4859.82 2465.51 4859.71 2465.4 4859.59C2465.3 4859.44 2465.25 4859.26 2465.25 4859.06V4839.25C2465.25 4837.32 2465.1 4835.76 2464.8 4834.58C2464.5 4833.41 2464.06 4832.39 2463.49 4831.54C2462.91 4830.69 2462.16 4830.03 2461.23 4829.58C2460.33 4829.13 2459.28 4828.91 2458.07 4828.91C2456.52 4828.91 2454.97 4829.46 2453.41 4830.56C2451.86 4831.66 2450.23 4833.28 2448.52 4835.41V4859.06C2448.52 4859.26 2448.47 4859.44 2448.37 4859.59C2448.27 4859.71 2448.11 4859.82 2447.88 4859.92C2447.66 4860.03 2447.35 4860.1 2446.94 4860.15C2446.54 4860.2 2446.03 4860.23 2445.4 4860.23C2444.8 4860.23 2444.3 4860.2 2443.9 4860.15C2443.5 4860.1 2443.17 4860.03 2442.92 4859.92C2442.7 4859.82 2442.53 4859.71 2442.43 4859.59C2442.36 4859.44 2442.32 4859.26 2442.32 4859.06V4825.22C2442.32 4825.02 2442.36 4824.86 2442.43 4824.73C2442.51 4824.58 2442.66 4824.46 2442.88 4824.36C2443.11 4824.23 2443.4 4824.16 2443.75 4824.13C2444.1 4824.08 2444.56 4824.06 2445.14 4824.06C2445.69 4824.06 2446.14 4824.08 2446.49 4824.13C2446.87 4824.16 2447.16 4824.23 2447.36 4824.36C2447.56 4824.46 2447.7 4824.58 2447.77 4824.73C2447.87 4824.86 2447.92 4825.02 2447.92 4825.22V4829.7C2449.83 4827.57 2451.72 4826.01 2453.6 4825.03C2455.5 4824.03 2457.42 4823.53 2459.35 4823.53C2461.61 4823.53 2463.5 4823.92 2465.03 4824.7C2466.58 4825.45 2467.84 4826.46 2468.79 4827.74C2469.74 4829.02 2470.42 4830.52 2470.82 4832.25C2471.24 4833.96 2471.46 4836.01 2471.46 4838.42V4859.06ZM2488.98 4859.06C2488.98 4859.26 2488.93 4859.44 2488.83 4859.59C2488.73 4859.71 2488.56 4859.82 2488.34 4859.92C2488.11 4860.03 2487.8 4860.1 2487.4 4860.15C2487 4860.2 2486.48 4860.23 2485.86 4860.23C2485.26 4860.23 2484.76 4860.2 2484.35 4860.15C2483.95 4860.1 2483.63 4860.03 2483.38 4859.92C2483.15 4859.82 2482.99 4859.71 2482.89 4859.59C2482.81 4859.44 2482.77 4859.26 2482.77 4859.06V4825.22C2482.77 4825.05 2482.81 4824.88 2482.89 4824.73C2482.99 4824.58 2483.15 4824.46 2483.38 4824.36C2483.63 4824.26 2483.95 4824.18 2484.35 4824.13C2484.76 4824.08 2485.26 4824.06 2485.86 4824.06C2486.48 4824.06 2487 4824.08 2487.4 4824.13C2487.8 4824.18 2488.11 4824.26 2488.34 4824.36C2488.56 4824.46 2488.73 4824.58 2488.83 4824.73C2488.93 4824.88 2488.98 4825.05 2488.98 4825.22V4859.06ZM2489.69 4813.79C2489.69 4815.25 2489.42 4816.24 2488.87 4816.76C2488.31 4817.29 2487.3 4817.55 2485.82 4817.55C2484.37 4817.55 2483.36 4817.3 2482.81 4816.8C2482.29 4816.27 2482.02 4815.3 2482.02 4813.87C2482.02 4812.41 2482.3 4811.42 2482.85 4810.9C2483.4 4810.37 2484.42 4810.11 2485.9 4810.11C2487.35 4810.11 2488.34 4810.37 2488.87 4810.9C2489.42 4811.4 2489.69 4812.36 2489.69 4813.79ZM2529.58 4859.06C2529.58 4859.26 2529.53 4859.44 2529.43 4859.59C2529.33 4859.71 2529.17 4859.82 2528.94 4859.92C2528.72 4860.03 2528.41 4860.1 2528 4860.15C2527.6 4860.2 2527.1 4860.23 2526.5 4860.23C2525.87 4860.23 2525.36 4860.2 2524.96 4860.15C2524.56 4860.1 2524.25 4860.03 2524.02 4859.92C2523.79 4859.82 2523.63 4859.71 2523.53 4859.59C2523.43 4859.44 2523.38 4859.26 2523.38 4859.06V4839.25C2523.38 4837.32 2523.23 4835.76 2522.93 4834.58C2522.63 4833.41 2522.19 4832.39 2521.61 4831.54C2521.04 4830.69 2520.28 4830.03 2519.36 4829.58C2518.46 4829.13 2517.4 4828.91 2516.2 4828.91C2514.65 4828.91 2513.09 4829.46 2511.54 4830.56C2509.98 4831.66 2508.35 4833.28 2506.65 4835.41V4859.06C2506.65 4859.26 2506.6 4859.44 2506.5 4859.59C2506.4 4859.71 2506.24 4859.82 2506.01 4859.92C2505.78 4860.03 2505.47 4860.1 2505.07 4860.15C2504.67 4860.2 2504.16 4860.23 2503.53 4860.23C2502.93 4860.23 2502.43 4860.2 2502.02 4860.15C2501.62 4860.1 2501.3 4860.03 2501.05 4859.92C2500.82 4859.82 2500.66 4859.71 2500.56 4859.59C2500.48 4859.44 2500.45 4859.26 2500.45 4859.06V4825.22C2500.45 4825.02 2500.48 4824.86 2500.56 4824.73C2500.63 4824.58 2500.78 4824.46 2501.01 4824.36C2501.24 4824.23 2501.52 4824.16 2501.87 4824.13C2502.23 4824.08 2502.69 4824.06 2503.27 4824.06C2503.82 4824.06 2504.27 4824.08 2504.62 4824.13C2505 4824.16 2505.28 4824.23 2505.48 4824.36C2505.68 4824.46 2505.82 4824.58 2505.9 4824.73C2506 4824.86 2506.05 4825.02 2506.05 4825.22V4829.7C2507.95 4827.57 2509.85 4826.01 2511.73 4825.03C2513.63 4824.03 2515.55 4823.53 2517.48 4823.53C2519.73 4823.53 2521.63 4823.92 2523.15 4824.7C2524.71 4825.45 2525.96 4826.46 2526.91 4827.74C2527.87 4829.02 2528.54 4830.52 2528.94 4832.25C2529.37 4833.96 2529.58 4836.01 2529.58 4838.42V4859.06ZM2569.17 4826.76C2569.17 4827.64 2569.05 4828.28 2568.8 4828.68C2568.57 4829.06 2568.27 4829.25 2567.9 4829.25H2563.05C2563.92 4830.15 2564.54 4831.15 2564.89 4832.25C2565.24 4833.33 2565.41 4834.46 2565.41 4835.64C2565.41 4837.59 2565.1 4839.32 2564.47 4840.83C2563.85 4842.33 2562.95 4843.61 2561.77 4844.66C2560.61 4845.69 2559.24 4846.48 2557.63 4847.03C2556.03 4847.58 2554.25 4847.86 2552.29 4847.86C2550.91 4847.86 2549.6 4847.68 2548.35 4847.33C2547.12 4846.95 2546.16 4846.49 2545.49 4845.94C2545.04 4846.39 2544.66 4846.9 2544.36 4847.48C2544.08 4848.06 2543.95 4848.72 2543.95 4849.47C2543.95 4850.35 2544.35 4851.08 2545.15 4851.65C2545.98 4852.23 2547.07 4852.54 2548.42 4852.59L2557.26 4852.97C2558.94 4853.02 2560.48 4853.26 2561.88 4853.68C2563.28 4854.08 2564.5 4854.67 2565.53 4855.45C2566.56 4856.2 2567.36 4857.14 2567.93 4858.27C2568.51 4859.37 2568.8 4860.66 2568.8 4862.14C2568.8 4863.7 2568.47 4865.18 2567.82 4866.58C2567.17 4867.98 2566.17 4869.21 2564.81 4870.26C2563.48 4871.34 2561.78 4872.18 2559.7 4872.78C2557.62 4873.41 2555.16 4873.72 2552.33 4873.72C2549.6 4873.72 2547.27 4873.49 2545.34 4873.01C2543.43 4872.56 2541.87 4871.93 2540.64 4871.13C2539.41 4870.33 2538.52 4869.36 2537.97 4868.23C2537.42 4867.13 2537.14 4865.93 2537.14 4864.62C2537.14 4863.8 2537.24 4863 2537.44 4862.22C2537.64 4861.44 2537.94 4860.7 2538.34 4860C2538.77 4859.3 2539.28 4858.63 2539.89 4858.01C2540.51 4857.36 2541.23 4856.72 2542.03 4856.09C2540.8 4855.46 2539.89 4854.67 2539.28 4853.72C2538.71 4852.77 2538.42 4851.74 2538.42 4850.64C2538.42 4849.11 2538.73 4847.74 2539.36 4846.54C2539.99 4845.34 2540.76 4844.26 2541.69 4843.31C2540.91 4842.38 2540.3 4841.34 2539.85 4840.19C2539.4 4839.01 2539.17 4837.59 2539.17 4835.94C2539.17 4834.01 2539.5 4832.28 2540.15 4830.75C2540.8 4829.22 2541.7 4827.93 2542.86 4826.88C2544.01 4825.82 2545.39 4825.02 2546.99 4824.47C2548.62 4823.89 2550.39 4823.61 2552.29 4823.61C2553.32 4823.61 2554.27 4823.67 2555.15 4823.79C2556.05 4823.89 2556.89 4824.04 2557.67 4824.24H2567.9C2568.32 4824.24 2568.64 4824.46 2568.84 4824.88C2569.06 4825.28 2569.17 4825.91 2569.17 4826.76ZM2559.47 4835.67C2559.47 4833.37 2558.83 4831.58 2557.56 4830.3C2556.3 4828.99 2554.51 4828.34 2552.18 4828.34C2550.98 4828.34 2549.92 4828.54 2549.02 4828.94C2548.14 4829.35 2547.41 4829.9 2546.8 4830.6C2546.23 4831.3 2545.79 4832.12 2545.49 4833.04C2545.21 4833.94 2545.07 4834.9 2545.07 4835.9C2545.07 4838.13 2545.7 4839.89 2546.95 4841.16C2548.23 4842.44 2550.01 4843.08 2552.29 4843.08C2553.52 4843.08 2554.59 4842.89 2555.49 4842.52C2556.39 4842.12 2557.13 4841.58 2557.71 4840.9C2558.31 4840.2 2558.75 4839.4 2559.02 4838.49C2559.32 4837.59 2559.47 4836.65 2559.47 4835.67ZM2562.59 4862.48C2562.59 4861.03 2561.99 4859.91 2560.79 4859.14C2559.61 4858.33 2558.01 4857.91 2555.98 4857.86L2547.22 4857.56C2546.42 4858.18 2545.75 4858.78 2545.22 4859.36C2544.72 4859.91 2544.32 4860.44 2544.02 4860.94C2543.72 4861.47 2543.51 4861.98 2543.38 4862.48C2543.28 4862.98 2543.23 4863.5 2543.23 4864.02C2543.23 4865.65 2544.06 4866.88 2545.71 4867.71C2547.37 4868.56 2549.67 4868.99 2552.63 4868.99C2554.51 4868.99 2556.08 4868.8 2557.33 4868.42C2558.61 4868.07 2559.64 4867.59 2560.41 4866.99C2561.19 4866.39 2561.74 4865.7 2562.07 4864.93C2562.42 4864.15 2562.59 4863.33 2562.59 4862.48ZM2631.74 4857.71C2631.94 4858.26 2632.04 4858.71 2632.04 4859.06C2632.06 4859.39 2631.97 4859.64 2631.77 4859.81C2631.57 4859.99 2631.24 4860.1 2630.76 4860.15C2630.31 4860.2 2629.69 4860.23 2628.92 4860.23C2628.14 4860.23 2627.51 4860.2 2627.04 4860.15C2626.59 4860.13 2626.24 4860.08 2625.98 4860C2625.76 4859.9 2625.58 4859.77 2625.46 4859.62C2625.36 4859.47 2625.26 4859.29 2625.16 4859.06L2620.98 4847.22H2600.76L2596.77 4858.91C2596.7 4859.14 2596.6 4859.34 2596.47 4859.51C2596.34 4859.66 2596.16 4859.8 2595.91 4859.92C2595.68 4860.03 2595.34 4860.1 2594.89 4860.15C2594.47 4860.2 2593.9 4860.23 2593.2 4860.23C2592.47 4860.23 2591.87 4860.19 2591.39 4860.11C2590.94 4860.06 2590.62 4859.95 2590.42 4859.77C2590.24 4859.6 2590.15 4859.35 2590.15 4859.02C2590.18 4858.67 2590.29 4858.22 2590.49 4857.67L2606.81 4812.48C2606.91 4812.2 2607.04 4811.98 2607.19 4811.8C2607.36 4811.62 2607.6 4811.49 2607.9 4811.39C2608.23 4811.29 2608.63 4811.22 2609.1 4811.2C2609.6 4811.15 2610.23 4811.12 2610.98 4811.12C2611.78 4811.12 2612.45 4811.15 2612.98 4811.2C2613.5 4811.22 2613.93 4811.29 2614.25 4811.39C2614.58 4811.49 2614.83 4811.64 2615.01 4811.84C2615.18 4812.01 2615.32 4812.24 2615.42 4812.51L2631.74 4857.71ZM2610.79 4817.82H2610.76L2602.37 4842.07H2619.29L2610.79 4817.82ZM2668.17 4859.06C2668.17 4859.26 2668.12 4859.44 2668.02 4859.59C2667.94 4859.74 2667.79 4859.86 2667.57 4859.96C2667.37 4860.04 2667.09 4860.1 2666.74 4860.15C2666.39 4860.2 2665.96 4860.23 2665.46 4860.23C2664.94 4860.23 2664.5 4860.2 2664.15 4860.15C2663.8 4860.1 2663.51 4860.04 2663.28 4859.96C2663.06 4859.86 2662.89 4859.74 2662.79 4859.59C2662.69 4859.44 2662.64 4859.26 2662.64 4859.06V4854.59C2660.86 4856.52 2659.01 4858.02 2657.08 4859.1C2655.17 4860.18 2653.08 4860.71 2650.8 4860.71C2648.32 4860.71 2646.2 4860.24 2644.44 4859.29C2642.69 4858.31 2641.26 4857 2640.16 4855.38C2639.08 4853.72 2638.29 4851.79 2637.79 4849.59C2637.29 4847.35 2637.04 4845.01 2637.04 4842.55C2637.04 4839.65 2637.35 4837.03 2637.98 4834.7C2638.6 4832.34 2639.53 4830.34 2640.76 4828.68C2641.99 4827.03 2643.5 4825.76 2645.31 4824.88C2647.14 4823.98 2649.24 4823.53 2651.63 4823.53C2653.61 4823.53 2655.41 4823.97 2657.04 4824.85C2658.69 4825.7 2660.32 4826.96 2661.93 4828.64V4808.98C2661.93 4808.8 2661.97 4808.64 2662.04 4808.49C2662.14 4808.32 2662.32 4808.19 2662.57 4808.12C2662.82 4808.01 2663.13 4807.94 2663.51 4807.89C2663.91 4807.81 2664.41 4807.78 2665.01 4807.78C2665.64 4807.78 2666.15 4807.81 2666.55 4807.89C2666.95 4807.94 2667.27 4808.01 2667.49 4808.12C2667.72 4808.19 2667.88 4808.32 2667.98 4808.49C2668.11 4808.64 2668.17 4808.8 2668.17 4808.98V4859.06ZM2661.93 4835.26C2660.25 4833.18 2658.62 4831.6 2657.04 4830.52C2655.49 4829.42 2653.86 4828.87 2652.15 4828.87C2650.57 4828.87 2649.23 4829.25 2648.13 4830C2647.03 4830.75 2646.12 4831.74 2645.42 4832.97C2644.75 4834.2 2644.24 4835.59 2643.92 4837.14C2643.62 4838.69 2643.47 4840.27 2643.47 4841.88C2643.47 4843.58 2643.59 4845.25 2643.84 4846.88C2644.12 4848.51 2644.58 4849.96 2645.23 4851.24C2645.89 4852.49 2646.75 4853.51 2647.83 4854.29C2648.91 4855.04 2650.26 4855.41 2651.89 4855.41C2652.72 4855.41 2653.51 4855.3 2654.26 4855.07C2655.03 4854.85 2655.82 4854.47 2656.63 4853.95C2657.43 4853.42 2658.27 4852.74 2659.15 4851.92C2660.02 4851.06 2660.95 4850.02 2661.93 4848.8V4835.26ZM2729.83 4859.06C2729.83 4859.26 2729.78 4859.44 2729.68 4859.59C2729.58 4859.71 2729.42 4859.82 2729.19 4859.92C2728.96 4860.03 2728.65 4860.1 2728.25 4860.15C2727.85 4860.2 2727.35 4860.23 2726.75 4860.23C2726.12 4860.23 2725.61 4860.2 2725.2 4860.15C2724.8 4860.1 2724.48 4860.03 2724.23 4859.92C2724 4859.82 2723.84 4859.71 2723.74 4859.59C2723.64 4859.44 2723.59 4859.26 2723.59 4859.06V4838.49C2723.59 4837.07 2723.46 4835.76 2723.21 4834.58C2722.96 4833.41 2722.56 4832.39 2722.01 4831.54C2721.46 4830.69 2720.76 4830.03 2719.9 4829.58C2719.05 4829.13 2718.05 4828.91 2716.9 4828.91C2715.47 4828.91 2714.03 4829.46 2712.57 4830.56C2711.14 4831.66 2709.56 4833.28 2707.83 4835.41V4859.06C2707.83 4859.26 2707.78 4859.44 2707.68 4859.59C2707.58 4859.71 2707.41 4859.82 2707.16 4859.92C2706.93 4860.03 2706.62 4860.1 2706.22 4860.15C2705.82 4860.2 2705.32 4860.23 2704.71 4860.23C2704.14 4860.23 2703.64 4860.2 2703.21 4860.15C2702.81 4860.1 2702.48 4860.03 2702.23 4859.92C2702.01 4859.82 2701.84 4859.71 2701.74 4859.59C2701.67 4859.44 2701.63 4859.26 2701.63 4859.06V4838.49C2701.63 4837.07 2701.49 4835.76 2701.22 4834.58C2700.94 4833.41 2700.53 4832.39 2699.98 4831.54C2699.43 4830.69 2698.72 4830.03 2697.87 4829.58C2697.04 4829.13 2696.05 4828.91 2694.9 4828.91C2693.47 4828.91 2692.03 4829.46 2690.58 4830.56C2689.12 4831.66 2687.54 4833.28 2685.84 4835.41V4859.06C2685.84 4859.26 2685.79 4859.44 2685.69 4859.59C2685.59 4859.71 2685.43 4859.82 2685.2 4859.92C2684.98 4860.03 2684.66 4860.1 2684.26 4860.15C2683.86 4860.2 2683.35 4860.23 2682.72 4860.23C2682.12 4860.23 2681.62 4860.2 2681.22 4860.15C2680.81 4860.1 2680.49 4860.03 2680.24 4859.92C2680.01 4859.82 2679.85 4859.71 2679.75 4859.59C2679.67 4859.44 2679.64 4859.26 2679.64 4859.06V4825.22C2679.64 4825.02 2679.67 4824.86 2679.75 4824.73C2679.82 4824.58 2679.97 4824.46 2680.2 4824.36C2680.43 4824.23 2680.71 4824.16 2681.06 4824.13C2681.42 4824.08 2681.88 4824.06 2682.46 4824.06C2683.01 4824.06 2683.46 4824.08 2683.81 4824.13C2684.19 4824.16 2684.47 4824.23 2684.67 4824.36C2684.87 4824.46 2685.01 4824.58 2685.09 4824.73C2685.19 4824.86 2685.24 4825.02 2685.24 4825.22V4829.7C2687.14 4827.57 2688.99 4826.01 2690.77 4825.03C2692.57 4824.03 2694.39 4823.53 2696.22 4823.53C2697.62 4823.53 2698.87 4823.69 2699.98 4824.02C2701.1 4824.34 2702.09 4824.81 2702.95 4825.41C2703.8 4825.99 2704.53 4826.69 2705.13 4827.52C2705.73 4828.32 2706.23 4829.22 2706.63 4830.22C2707.76 4828.99 2708.82 4827.95 2709.83 4827.1C2710.85 4826.25 2711.83 4825.56 2712.76 4825.03C2713.71 4824.51 2714.63 4824.13 2715.5 4823.91C2716.41 4823.66 2717.31 4823.53 2718.21 4823.53C2720.39 4823.53 2722.22 4823.92 2723.7 4824.7C2725.18 4825.45 2726.37 4826.46 2727.27 4827.74C2728.2 4829.02 2728.85 4830.52 2729.23 4832.25C2729.63 4833.96 2729.83 4835.76 2729.83 4837.67V4859.06ZM2747.35 4859.06C2747.35 4859.26 2747.3 4859.44 2747.2 4859.59C2747.1 4859.71 2746.94 4859.82 2746.71 4859.92C2746.48 4860.03 2746.17 4860.1 2745.77 4860.15C2745.37 4860.2 2744.86 4860.23 2744.23 4860.23C2743.63 4860.23 2743.13 4860.2 2742.73 4860.15C2742.32 4860.1 2742 4860.03 2741.75 4859.92C2741.52 4859.82 2741.36 4859.71 2741.26 4859.59C2741.18 4859.44 2741.15 4859.26 2741.15 4859.06V4825.22C2741.15 4825.05 2741.18 4824.88 2741.26 4824.73C2741.36 4824.58 2741.52 4824.46 2741.75 4824.36C2742 4824.26 2742.32 4824.18 2742.73 4824.13C2743.13 4824.08 2743.63 4824.06 2744.23 4824.06C2744.86 4824.06 2745.37 4824.08 2745.77 4824.13C2746.17 4824.18 2746.48 4824.26 2746.71 4824.36C2746.94 4824.46 2747.1 4824.58 2747.2 4824.73C2747.3 4824.88 2747.35 4825.05 2747.35 4825.22V4859.06ZM2748.06 4813.79C2748.06 4815.25 2747.79 4816.24 2747.24 4816.76C2746.69 4817.29 2745.67 4817.55 2744.19 4817.55C2742.74 4817.55 2741.74 4817.3 2741.18 4816.8C2740.66 4816.27 2740.39 4815.3 2740.39 4813.87C2740.39 4812.41 2740.67 4811.42 2741.22 4810.9C2741.77 4810.37 2742.79 4810.11 2744.27 4810.11C2745.72 4810.11 2746.71 4810.37 2747.24 4810.9C2747.79 4811.4 2748.06 4812.36 2748.06 4813.79ZM2787.96 4859.06C2787.96 4859.26 2787.9 4859.44 2787.8 4859.59C2787.7 4859.71 2787.54 4859.82 2787.32 4859.92C2787.09 4860.03 2786.78 4860.1 2786.38 4860.15C2785.97 4860.2 2785.47 4860.23 2784.87 4860.23C2784.25 4860.23 2783.73 4860.2 2783.33 4860.15C2782.93 4860.1 2782.62 4860.03 2782.39 4859.92C2782.17 4859.82 2782 4859.71 2781.9 4859.59C2781.8 4859.44 2781.75 4859.26 2781.75 4859.06V4839.25C2781.75 4837.32 2781.6 4835.76 2781.3 4834.58C2781 4833.41 2780.56 4832.39 2779.98 4831.54C2779.41 4830.69 2778.66 4830.03 2777.73 4829.58C2776.83 4829.13 2775.77 4828.91 2774.57 4828.91C2773.02 4828.91 2771.46 4829.46 2769.91 4830.56C2768.35 4831.66 2766.72 4833.28 2765.02 4835.41V4859.06C2765.02 4859.26 2764.97 4859.44 2764.87 4859.59C2764.77 4859.71 2764.61 4859.82 2764.38 4859.92C2764.16 4860.03 2763.84 4860.1 2763.44 4860.15C2763.04 4860.2 2762.53 4860.23 2761.9 4860.23C2761.3 4860.23 2760.8 4860.2 2760.4 4860.15C2759.99 4860.1 2759.67 4860.03 2759.42 4859.92C2759.19 4859.82 2759.03 4859.71 2758.93 4859.59C2758.85 4859.44 2758.82 4859.26 2758.82 4859.06V4825.22C2758.82 4825.02 2758.85 4824.86 2758.93 4824.73C2759 4824.58 2759.16 4824.46 2759.38 4824.36C2759.61 4824.23 2759.89 4824.16 2760.25 4824.13C2760.6 4824.08 2761.06 4824.06 2761.64 4824.06C2762.19 4824.06 2762.64 4824.08 2762.99 4824.13C2763.37 4824.16 2763.65 4824.23 2763.85 4824.36C2764.06 4824.46 2764.19 4824.58 2764.27 4824.73C2764.37 4824.86 2764.42 4825.02 2764.42 4825.22V4829.7C2766.32 4827.57 2768.22 4826.01 2770.1 4825.03C2772 4824.03 2773.92 4823.53 2775.85 4823.53C2778.1 4823.53 2780 4823.92 2781.53 4824.7C2783.08 4825.45 2784.33 4826.46 2785.29 4827.74C2786.24 4829.02 2786.91 4830.52 2787.32 4832.25C2787.74 4833.96 2787.96 4836.01 2787.96 4838.42V4859.06ZM2805.48 4859.06C2805.48 4859.26 2805.43 4859.44 2805.33 4859.59C2805.22 4859.71 2805.06 4859.82 2804.84 4859.92C2804.61 4860.03 2804.3 4860.1 2803.9 4860.15C2803.5 4860.2 2802.98 4860.23 2802.35 4860.23C2801.75 4860.23 2801.25 4860.2 2800.85 4860.15C2800.45 4860.1 2800.12 4860.03 2799.87 4859.92C2799.65 4859.82 2799.49 4859.71 2799.38 4859.59C2799.31 4859.44 2799.27 4859.26 2799.27 4859.06V4825.22C2799.27 4825.05 2799.31 4824.88 2799.38 4824.73C2799.49 4824.58 2799.65 4824.46 2799.87 4824.36C2800.12 4824.26 2800.45 4824.18 2800.85 4824.13C2801.25 4824.08 2801.75 4824.06 2802.35 4824.06C2802.98 4824.06 2803.5 4824.08 2803.9 4824.13C2804.3 4824.18 2804.61 4824.26 2804.84 4824.36C2805.06 4824.46 2805.22 4824.58 2805.33 4824.73C2805.43 4824.88 2805.48 4825.05 2805.48 4825.22V4859.06ZM2806.19 4813.79C2806.19 4815.25 2805.91 4816.24 2805.36 4816.76C2804.81 4817.29 2803.8 4817.55 2802.32 4817.55C2800.86 4817.55 2799.86 4817.3 2799.31 4816.8C2798.78 4816.27 2798.52 4815.3 2798.52 4813.87C2798.52 4812.41 2798.8 4811.42 2799.35 4810.9C2799.9 4810.37 2800.91 4810.11 2802.39 4810.11C2803.85 4810.11 2804.84 4810.37 2805.36 4810.9C2805.91 4811.4 2806.19 4812.36 2806.19 4813.79ZM2838.19 4849.85C2838.19 4851.58 2837.86 4853.12 2837.21 4854.47C2836.58 4855.83 2835.68 4856.97 2834.5 4857.89C2833.32 4858.82 2831.92 4859.52 2830.29 4860C2828.66 4860.48 2826.87 4860.71 2824.91 4860.71C2823.71 4860.71 2822.56 4860.61 2821.45 4860.41C2820.38 4860.24 2819.4 4860.01 2818.52 4859.74C2817.67 4859.44 2816.94 4859.14 2816.34 4858.83C2815.74 4858.51 2815.3 4858.22 2815.03 4857.97C2814.75 4857.72 2814.55 4857.37 2814.42 4856.92C2814.3 4856.47 2814.24 4855.85 2814.24 4855.07C2814.24 4854.6 2814.26 4854.2 2814.31 4853.87C2814.36 4853.55 2814.42 4853.28 2814.5 4853.08C2814.57 4852.88 2814.67 4852.74 2814.8 4852.67C2814.95 4852.57 2815.11 4852.52 2815.29 4852.52C2815.56 4852.52 2815.97 4852.69 2816.49 4853.04C2817.04 4853.37 2817.71 4853.73 2818.48 4854.13C2819.29 4854.54 2820.23 4854.91 2821.3 4855.26C2822.38 4855.59 2823.62 4855.75 2825.03 4855.75C2826.08 4855.75 2827.03 4855.64 2827.88 4855.41C2828.74 4855.19 2829.48 4854.86 2830.1 4854.44C2830.73 4853.98 2831.2 4853.42 2831.53 4852.74C2831.88 4852.07 2832.06 4851.26 2832.06 4850.34C2832.06 4849.38 2831.81 4848.58 2831.31 4847.93C2830.83 4847.28 2830.19 4846.7 2829.39 4846.2C2828.59 4845.7 2827.68 4845.26 2826.68 4844.89C2825.68 4844.48 2824.64 4844.07 2823.56 4843.65C2822.51 4843.22 2821.47 4842.74 2820.44 4842.22C2819.44 4841.66 2818.53 4841 2817.73 4840.22C2816.93 4839.45 2816.28 4838.52 2815.78 4837.44C2815.3 4836.36 2815.06 4835.07 2815.06 4833.57C2815.06 4832.24 2815.31 4830.97 2815.81 4829.77C2816.34 4828.54 2817.12 4827.48 2818.15 4826.58C2819.17 4825.65 2820.45 4824.91 2821.98 4824.36C2823.53 4823.81 2825.34 4823.53 2827.4 4823.53C2828.3 4823.53 2829.2 4823.61 2830.1 4823.76C2831 4823.91 2831.82 4824.09 2832.55 4824.32C2833.27 4824.55 2833.89 4824.8 2834.39 4825.07C2834.91 4825.32 2835.3 4825.55 2835.55 4825.75C2835.83 4825.95 2836 4826.12 2836.08 4826.27C2836.18 4826.43 2836.24 4826.6 2836.27 4826.8C2836.32 4826.98 2836.36 4827.2 2836.38 4827.48C2836.43 4827.75 2836.46 4828.09 2836.46 4828.49C2836.46 4828.92 2836.43 4829.3 2836.38 4829.62C2836.36 4829.92 2836.29 4830.17 2836.19 4830.37C2836.12 4830.57 2836.02 4830.72 2835.89 4830.82C2835.77 4830.9 2835.63 4830.94 2835.48 4830.94C2835.25 4830.94 2834.93 4830.8 2834.5 4830.52C2834.07 4830.25 2833.52 4829.96 2832.85 4829.66C2832.17 4829.33 2831.37 4829.03 2830.44 4828.76C2829.54 4828.48 2828.5 4828.34 2827.32 4828.34C2826.27 4828.34 2825.34 4828.47 2824.54 4828.72C2823.74 4828.94 2823.07 4829.28 2822.54 4829.73C2822.04 4830.16 2821.66 4830.67 2821.38 4831.28C2821.13 4831.88 2821 4832.53 2821 4833.23C2821 4834.21 2821.25 4835.04 2821.76 4835.71C2822.26 4836.36 2822.91 4836.94 2823.71 4837.44C2824.51 4837.94 2825.43 4838.39 2826.46 4838.79C2827.48 4839.2 2828.52 4839.61 2829.58 4840.04C2830.65 4840.46 2831.71 4840.94 2832.73 4841.46C2833.79 4841.99 2834.71 4842.63 2835.52 4843.38C2836.32 4844.13 2836.96 4845.04 2837.43 4846.09C2837.93 4847.14 2838.19 4848.39 2838.19 4849.85ZM2863.79 4856.58C2863.79 4857.31 2863.74 4857.88 2863.64 4858.31C2863.54 4858.73 2863.39 4859.05 2863.19 4859.25C2862.99 4859.45 2862.69 4859.64 2862.29 4859.81C2861.88 4859.99 2861.42 4860.13 2860.89 4860.23C2860.39 4860.35 2859.85 4860.45 2859.28 4860.53C2858.7 4860.6 2858.12 4860.64 2857.55 4860.64C2855.79 4860.64 2854.29 4860.41 2853.04 4859.96C2851.78 4859.49 2850.76 4858.78 2849.95 4857.86C2849.15 4856.9 2848.56 4855.71 2848.19 4854.29C2847.84 4852.83 2847.66 4851.13 2847.66 4849.17V4829.4H2842.92C2842.55 4829.4 2842.25 4829.19 2842.02 4828.79C2841.79 4828.39 2841.68 4827.74 2841.68 4826.84C2841.68 4826.36 2841.71 4825.96 2841.76 4825.64C2841.83 4825.31 2841.92 4825.05 2842.02 4824.85C2842.12 4824.62 2842.25 4824.47 2842.4 4824.4C2842.57 4824.29 2842.76 4824.24 2842.96 4824.24H2847.66V4816.2C2847.66 4816.02 2847.7 4815.86 2847.77 4815.71C2847.87 4815.56 2848.04 4815.43 2848.26 4815.33C2848.51 4815.21 2848.84 4815.12 2849.24 4815.07C2849.64 4815.02 2850.14 4815 2850.74 4815C2851.37 4815 2851.88 4815.02 2852.28 4815.07C2852.69 4815.12 2853 4815.21 2853.22 4815.33C2853.45 4815.43 2853.61 4815.56 2853.71 4815.71C2853.81 4815.86 2853.86 4816.02 2853.86 4816.2V4824.24H2862.55C2862.75 4824.24 2862.92 4824.29 2863.08 4824.4C2863.23 4824.47 2863.35 4824.62 2863.45 4824.85C2863.58 4825.05 2863.66 4825.31 2863.71 4825.64C2863.76 4825.96 2863.79 4826.36 2863.79 4826.84C2863.79 4827.74 2863.68 4828.39 2863.45 4828.79C2863.23 4829.19 2862.92 4829.4 2862.55 4829.4H2853.86V4848.27C2853.86 4850.6 2854.2 4852.37 2854.88 4853.57C2855.58 4854.75 2856.82 4855.34 2858.6 4855.34C2859.18 4855.34 2859.69 4855.29 2860.14 4855.19C2860.59 4855.06 2860.99 4854.94 2861.35 4854.81C2861.7 4854.69 2862 4854.57 2862.25 4854.47C2862.5 4854.35 2862.72 4854.29 2862.92 4854.29C2863.05 4854.29 2863.16 4854.32 2863.26 4854.4C2863.39 4854.45 2863.48 4854.56 2863.53 4854.74C2863.6 4854.91 2863.66 4855.15 2863.71 4855.45C2863.76 4855.75 2863.79 4856.13 2863.79 4856.58ZM2891.76 4827.44C2891.76 4827.99 2891.75 4828.46 2891.72 4828.83C2891.7 4829.21 2891.65 4829.51 2891.57 4829.73C2891.5 4829.93 2891.4 4830.1 2891.27 4830.22C2891.17 4830.32 2891.02 4830.37 2890.82 4830.37C2890.62 4830.37 2890.37 4830.32 2890.07 4830.22C2889.79 4830.1 2889.47 4829.98 2889.09 4829.88C2888.74 4829.76 2888.34 4829.65 2887.89 4829.55C2887.44 4829.45 2886.95 4829.4 2886.42 4829.4C2885.8 4829.4 2885.18 4829.52 2884.58 4829.77C2883.98 4830.02 2883.34 4830.44 2882.66 4831.01C2882.01 4831.59 2881.32 4832.35 2880.6 4833.31C2879.87 4834.26 2879.07 4835.42 2878.19 4836.8V4859.06C2878.19 4859.26 2878.14 4859.44 2878.04 4859.59C2877.94 4859.71 2877.78 4859.82 2877.55 4859.92C2877.32 4860.03 2877.01 4860.1 2876.61 4860.15C2876.21 4860.2 2875.7 4860.23 2875.07 4860.23C2874.47 4860.23 2873.97 4860.2 2873.56 4860.15C2873.16 4860.1 2872.84 4860.03 2872.59 4859.92C2872.36 4859.82 2872.2 4859.71 2872.1 4859.59C2872.02 4859.44 2871.99 4859.26 2871.99 4859.06V4825.22C2871.99 4825.02 2872.02 4824.86 2872.1 4824.73C2872.17 4824.58 2872.32 4824.46 2872.55 4824.36C2872.78 4824.23 2873.06 4824.16 2873.41 4824.13C2873.77 4824.08 2874.23 4824.06 2874.81 4824.06C2875.36 4824.06 2875.81 4824.08 2876.16 4824.13C2876.54 4824.16 2876.82 4824.23 2877.02 4824.36C2877.22 4824.46 2877.36 4824.58 2877.44 4824.73C2877.54 4824.86 2877.59 4825.02 2877.59 4825.22V4830.15C2878.52 4828.79 2879.38 4827.69 2880.18 4826.84C2881.01 4825.99 2881.79 4825.32 2882.51 4824.85C2883.24 4824.34 2883.95 4824.01 2884.66 4823.83C2885.38 4823.63 2886.11 4823.53 2886.84 4823.53C2887.16 4823.53 2887.53 4823.56 2887.93 4823.61C2888.35 4823.63 2888.79 4823.69 2889.24 4823.79C2889.69 4823.89 2890.1 4824.01 2890.45 4824.13C2890.82 4824.26 2891.09 4824.38 2891.24 4824.51C2891.39 4824.63 2891.49 4824.76 2891.54 4824.88C2891.59 4824.98 2891.62 4825.12 2891.65 4825.3C2891.7 4825.47 2891.72 4825.74 2891.72 4826.09C2891.75 4826.41 2891.76 4826.86 2891.76 4827.44ZM2922.74 4859.1C2922.74 4859.4 2922.64 4859.62 2922.44 4859.77C2922.24 4859.92 2921.97 4860.04 2921.61 4860.11C2921.26 4860.19 2920.75 4860.23 2920.07 4860.23C2919.42 4860.23 2918.9 4860.19 2918.49 4860.11C2918.12 4860.04 2917.84 4859.92 2917.67 4859.77C2917.49 4859.62 2917.4 4859.4 2917.4 4859.1V4855.71C2915.92 4857.29 2914.27 4858.52 2912.44 4859.4C2910.64 4860.28 2908.72 4860.71 2906.69 4860.71C2904.91 4860.71 2903.29 4860.48 2901.84 4860C2900.41 4859.55 2899.18 4858.88 2898.15 4858.01C2897.15 4857.13 2896.36 4856.05 2895.79 4854.77C2895.23 4853.5 2894.96 4852.04 2894.96 4850.41C2894.96 4848.51 2895.35 4846.85 2896.12 4845.45C2896.9 4844.05 2898.02 4842.88 2899.47 4841.95C2900.92 4841.03 2902.7 4840.34 2904.81 4839.89C2906.91 4839.41 2909.28 4839.17 2911.91 4839.17H2916.58V4836.54C2916.58 4835.24 2916.44 4834.08 2916.16 4833.08C2915.89 4832.08 2915.44 4831.25 2914.81 4830.6C2914.21 4829.92 2913.42 4829.42 2912.44 4829.09C2911.46 4828.74 2910.26 4828.57 2908.83 4828.57C2907.3 4828.57 2905.92 4828.76 2904.7 4829.13C2903.49 4829.48 2902.43 4829.88 2901.5 4830.34C2900.6 4830.76 2899.83 4831.16 2899.21 4831.54C2898.6 4831.89 2898.15 4832.06 2897.85 4832.06C2897.65 4832.06 2897.48 4832.01 2897.33 4831.91C2897.18 4831.81 2897.04 4831.66 2896.91 4831.46C2896.81 4831.26 2896.74 4831.01 2896.69 4830.71C2896.64 4830.39 2896.61 4830.03 2896.61 4829.66C2896.61 4829.03 2896.65 4828.54 2896.73 4828.19C2896.83 4827.82 2897.04 4827.47 2897.36 4827.14C2897.72 4826.81 2898.3 4826.44 2899.13 4826.01C2899.96 4825.56 2900.91 4825.16 2901.99 4824.81C2903.07 4824.43 2904.24 4824.13 2905.52 4823.91C2906.8 4823.66 2908.09 4823.53 2909.4 4823.53C2911.83 4823.53 2913.89 4823.81 2915.6 4824.36C2917.3 4824.91 2918.68 4825.72 2919.73 4826.8C2920.79 4827.85 2921.55 4829.17 2922.03 4830.75C2922.5 4832.33 2922.74 4834.17 2922.74 4836.28V4859.1ZM2916.58 4843.65H2911.28C2909.57 4843.65 2908.09 4843.8 2906.84 4844.1C2905.59 4844.37 2904.55 4844.8 2903.72 4845.37C2902.89 4845.93 2902.28 4846.6 2901.88 4847.4C2901.5 4848.18 2901.31 4849.08 2901.31 4850.11C2901.31 4851.87 2901.86 4853.27 2902.97 4854.32C2904.09 4855.35 2905.66 4855.86 2907.67 4855.86C2909.3 4855.86 2910.8 4855.45 2912.18 4854.62C2913.58 4853.8 2915.05 4852.53 2916.58 4850.83V4843.65ZM2951.02 4856.58C2951.02 4857.31 2950.97 4857.88 2950.87 4858.31C2950.77 4858.73 2950.62 4859.05 2950.41 4859.25C2950.21 4859.45 2949.91 4859.64 2949.51 4859.81C2949.11 4859.99 2948.65 4860.13 2948.12 4860.23C2947.62 4860.35 2947.08 4860.45 2946.5 4860.53C2945.93 4860.6 2945.35 4860.64 2944.77 4860.64C2943.02 4860.64 2941.52 4860.41 2940.26 4859.96C2939.01 4859.49 2937.98 4858.78 2937.18 4857.86C2936.38 4856.9 2935.79 4855.71 2935.41 4854.29C2935.06 4852.83 2934.89 4851.13 2934.89 4849.17V4829.4H2930.15C2929.77 4829.4 2929.47 4829.19 2929.25 4828.79C2929.02 4828.39 2928.91 4827.74 2928.91 4826.84C2928.91 4826.36 2928.93 4825.96 2928.98 4825.64C2929.06 4825.31 2929.15 4825.05 2929.25 4824.85C2929.35 4824.62 2929.47 4824.47 2929.62 4824.4C2929.8 4824.29 2929.99 4824.24 2930.19 4824.24H2934.89V4816.2C2934.89 4816.02 2934.92 4815.86 2935 4815.71C2935.1 4815.56 2935.26 4815.43 2935.49 4815.33C2935.74 4815.21 2936.06 4815.12 2936.47 4815.07C2936.87 4815.02 2937.37 4815 2937.97 4815C2938.6 4815 2939.11 4815.02 2939.51 4815.07C2939.91 4815.12 2940.23 4815.21 2940.45 4815.33C2940.68 4815.43 2940.84 4815.56 2940.94 4815.71C2941.04 4815.86 2941.09 4816.02 2941.09 4816.2V4824.24H2949.78C2949.98 4824.24 2950.15 4824.29 2950.3 4824.4C2950.45 4824.47 2950.58 4824.62 2950.68 4824.85C2950.8 4825.05 2950.89 4825.31 2950.94 4825.64C2950.99 4825.96 2951.02 4826.36 2951.02 4826.84C2951.02 4827.74 2950.9 4828.39 2950.68 4828.79C2950.45 4829.19 2950.15 4829.4 2949.78 4829.4H2941.09V4848.27C2941.09 4850.6 2941.43 4852.37 2942.11 4853.57C2942.81 4854.75 2944.05 4855.34 2945.83 4855.34C2946.4 4855.34 2946.92 4855.29 2947.37 4855.19C2947.82 4855.06 2948.22 4854.94 2948.57 4854.81C2948.92 4854.69 2949.22 4854.57 2949.47 4854.47C2949.73 4854.35 2949.95 4854.29 2950.15 4854.29C2950.28 4854.29 2950.39 4854.32 2950.49 4854.4C2950.62 4854.45 2950.7 4854.56 2950.75 4854.74C2950.83 4854.91 2950.89 4855.15 2950.94 4855.45C2950.99 4855.75 2951.02 4856.13 2951.02 4856.58ZM2989.93 4841.77C2989.93 4844.52 2989.57 4847.07 2988.84 4849.4C2988.11 4851.7 2987.02 4853.7 2985.57 4855.38C2984.14 4857.05 2982.33 4858.37 2980.15 4859.32C2978 4860.25 2975.49 4860.71 2972.63 4860.71C2969.85 4860.71 2967.42 4860.3 2965.34 4859.47C2963.29 4858.65 2961.57 4857.44 2960.19 4855.86C2958.81 4854.29 2957.78 4852.37 2957.11 4850.11C2956.43 4847.86 2956.09 4845.3 2956.09 4842.44C2956.09 4839.68 2956.44 4837.15 2957.14 4834.85C2957.87 4832.52 2958.95 4830.51 2960.38 4828.83C2961.83 4827.15 2963.64 4825.85 2965.79 4824.92C2967.95 4823.99 2970.47 4823.53 2973.35 4823.53C2976.13 4823.53 2978.55 4823.94 2980.61 4824.77C2982.69 4825.6 2984.42 4826.8 2985.79 4828.38C2987.17 4829.96 2988.2 4831.88 2988.88 4834.13C2989.58 4836.39 2989.93 4838.93 2989.93 4841.77ZM2983.39 4842.18C2983.39 4840.35 2983.21 4838.62 2982.86 4836.99C2982.54 4835.36 2981.98 4833.93 2981.21 4832.7C2980.43 4831.48 2979.38 4830.51 2978.05 4829.81C2976.72 4829.08 2975.07 4828.72 2973.09 4828.72C2971.26 4828.72 2969.68 4829.04 2968.35 4829.7C2967.05 4830.35 2965.97 4831.28 2965.12 4832.48C2964.26 4833.66 2963.62 4835.06 2963.2 4836.69C2962.8 4838.32 2962.6 4840.1 2962.6 4842.03C2962.6 4843.88 2962.76 4845.63 2963.08 4847.25C2963.44 4848.88 2964 4850.31 2964.78 4851.54C2965.58 4852.74 2966.64 4853.71 2967.97 4854.44C2969.3 4855.14 2970.96 4855.49 2972.94 4855.49C2974.74 4855.49 2976.31 4855.16 2977.64 4854.51C2978.96 4853.86 2980.05 4852.94 2980.91 4851.77C2981.76 4850.59 2982.39 4849.18 2982.79 4847.56C2983.19 4845.93 2983.39 4844.13 2983.39 4842.18ZM3018.84 4827.44C3018.84 4827.99 3018.83 4828.46 3018.8 4828.83C3018.78 4829.21 3018.73 4829.51 3018.65 4829.73C3018.58 4829.93 3018.48 4830.1 3018.35 4830.22C3018.25 4830.32 3018.1 4830.37 3017.9 4830.37C3017.7 4830.37 3017.45 4830.32 3017.15 4830.22C3016.87 4830.1 3016.55 4829.98 3016.17 4829.88C3015.82 4829.76 3015.42 4829.65 3014.97 4829.55C3014.52 4829.45 3014.03 4829.4 3013.5 4829.4C3012.88 4829.4 3012.26 4829.52 3011.66 4829.77C3011.06 4830.02 3010.42 4830.44 3009.74 4831.01C3009.09 4831.59 3008.4 4832.35 3007.68 4833.31C3006.95 4834.26 3006.15 4835.42 3005.27 4836.8V4859.06C3005.27 4859.26 3005.22 4859.44 3005.12 4859.59C3005.02 4859.71 3004.86 4859.82 3004.63 4859.92C3004.4 4860.03 3004.09 4860.1 3003.69 4860.15C3003.29 4860.2 3002.78 4860.23 3002.15 4860.23C3001.55 4860.23 3001.05 4860.2 3000.65 4860.15C3000.24 4860.1 2999.92 4860.03 2999.67 4859.92C2999.44 4859.82 2999.28 4859.71 2999.18 4859.59C2999.1 4859.44 2999.07 4859.26 2999.07 4859.06V4825.22C2999.07 4825.02 2999.1 4824.86 2999.18 4824.73C2999.25 4824.58 2999.4 4824.46 2999.63 4824.36C2999.86 4824.23 3000.14 4824.16 3000.49 4824.13C3000.85 4824.08 3001.31 4824.06 3001.89 4824.06C3002.44 4824.06 3002.89 4824.08 3003.24 4824.13C3003.62 4824.16 3003.9 4824.23 3004.1 4824.36C3004.3 4824.46 3004.44 4824.58 3004.52 4824.73C3004.62 4824.86 3004.67 4825.02 3004.67 4825.22V4830.15C3005.6 4828.79 3006.46 4827.69 3007.26 4826.84C3008.09 4825.99 3008.87 4825.32 3009.59 4824.85C3010.32 4824.34 3011.03 4824.01 3011.74 4823.83C3012.46 4823.63 3013.19 4823.53 3013.92 4823.53C3014.24 4823.53 3014.61 4823.56 3015.01 4823.61C3015.43 4823.63 3015.87 4823.69 3016.32 4823.79C3016.77 4823.89 3017.18 4824.01 3017.53 4824.13C3017.9 4824.26 3018.17 4824.38 3018.32 4824.51C3018.47 4824.63 3018.57 4824.76 3018.62 4824.88C3018.67 4824.98 3018.7 4825.12 3018.73 4825.3C3018.78 4825.47 3018.8 4825.74 3018.8 4826.09C3018.83 4826.41 3018.84 4826.86 3018.84 4827.44Z" fill="black"/>
</svg>
