<svg width="6900" height="5209" viewBox="0 0 6900 5209" fill="none" xmlns="http://www.w3.org/2000/svg">
<path d="M2604.82 4215.66C2607.38 4214.87 2606.91 4214.31 2609.64 4214.56C2611.43 4216.1 2611.23 4217 2611.24 4219.26C2610.97 4221.79 2610.04 4226.61 2611.19 4228.97C2611.72 4230.05 2614.67 4229.42 2613.84 4231.04C2612.4 4233.84 2607.4 4249.83 2608.33 4252.31C2611.04 4254.93 2617.38 4254.51 2620.39 4252.77C2623.08 4248.11 2626.89 4250.37 2631.42 4247.86C2632.03 4246.74 2631.95 4246.76 2632.05 4245.46C2639.29 4243.48 2641.51 4246.52 2647.71 4241.89C2652 4238.68 2669.97 4239.1 2676.11 4237.59C2677.14 4237.34 2679.24 4237.54 2679.31 4236.89L2677.02 4236.21C2679.28 4234.69 2706.6 4232.81 2710.41 4232.9C2714.73 4232.52 2717.95 4232.29 2722.33 4232.21C2725.91 4232.31 2728.44 4231.92 2731.74 4231.79C2750.4 4231.09 2767.65 4229.43 2785.9 4234.71C2787.97 4235.3 2795.39 4234.14 2796.48 4234.64C2805.43 4238.72 2815.24 4239.16 2823.73 4244.03C2825 4244.76 2829.46 4245.4 2830.36 4246.11C2835.76 4250.33 2853.73 4258.33 2854.87 4265.37C2852.57 4270.62 2847.68 4264.29 2845.4 4263.32C2839.04 4260.62 2833.52 4255.79 2827.26 4253.07C2825.53 4252.32 2820.45 4252.74 2817.99 4251.93C2818.67 4251.03 2818.43 4251.4 2819.78 4250.88C2809.09 4247.34 2800.86 4243.91 2789.31 4242.8C2787.42 4242.62 2782.53 4241.99 2780.93 4241.52L2781.11 4241.45C2778.44 4240.99 2751.45 4239.78 2750.45 4240.11L2748.17 4240.46C2741.17 4240.28 2725.89 4240.06 2720.24 4243.55C2715.72 4244.22 2712.28 4244.88 2707.68 4245.15C2704.35 4245.34 2698.38 4245.03 2695.49 4245.5L2695.06 4246.16L2695.4 4247.24C2692.26 4248.86 2670.35 4250.55 2665.86 4250.89L2668.31 4251.85C2662.88 4252.35 2652.86 4254.31 2647.64 4255.93C2648.26 4256.67 2648.07 4256.28 2648.28 4257.05C2643.61 4258.19 2640.28 4257.83 2635.46 4259.2C2627.57 4261.44 2620.42 4267.05 2612.84 4268.54C2606.1 4269.87 2605.3 4272.73 2598.33 4275.09C2596.24 4275.19 2597.2 4274.9 2595.38 4276.12C2594.2 4278.41 2594.58 4278.96 2594.91 4281.69L2593.49 4281.61L2593.22 4280.91L2593.67 4280.3C2587.6 4274.31 2581.01 4279.78 2575.16 4281.63C2556.8 4287.43 2542.6 4295.1 2526.19 4304.92C2525.49 4306.14 2525.66 4305.49 2525.73 4306.96L2525.12 4307.3C2517.78 4311.3 2507.29 4316.65 2500.52 4321.51C2491.01 4328.34 2479.93 4334.01 2470.25 4340.94C2461.33 4351.75 2433.69 4367.42 2429.03 4376.81C2424.51 4379.12 2422.08 4382.96 2416.99 4385.86C2411.07 4387.21 2386.97 4420.8 2384.53 4427.88C2380.87 4438.48 2368.36 4464.75 2379.99 4472.82L2381.08 4472.89C2382.54 4472.81 2383.43 4472.76 2384.9 4472.55C2385.43 4471.81 2386.44 4470.42 2387.26 4470.16C2392.78 4468.4 2398.06 4467.91 2403.74 4466.07L2403.24 4466C2409.22 4464.04 2413.38 4463.69 2419.12 4462.12C2419.41 4461.83 2421.12 4460.16 2421.34 4460.1C2425.47 4458.98 2449.62 4457.56 2452.05 4456.4L2451.4 4455.76L2451.63 4455.21C2456.99 4453.69 2473.42 4452.8 2479.26 4452.31C2481.87 4452.31 2484.45 4452.37 2487.05 4452.16C2488.59 4452.24 2490.58 4450.76 2493.96 4450.77L2494.74 4450.78C2492.57 4450.34 2489.95 4450.06 2487.72 4449.76C2498.75 4448.48 2511.02 4449.22 2522.34 4447.47C2525.83 4446.93 2536.69 4447.95 2540.46 4448.22C2544.28 4439.73 2547.63 4427.71 2550.58 4418.72C2554.06 4408.1 2555.02 4396.37 2559.67 4385.81C2560.35 4384.27 2561.12 4377.24 2561.85 4374.6C2562.34 4374.24 2562.43 4374.03 2563.55 4373.58C2566.52 4372.38 2563.82 4367.73 2565.51 4363.6C2566.69 4362.31 2567.53 4362.34 2569.26 4362C2570.74 4362.43 2570.88 4362.49 2572.35 4362.03C2572.73 4359.6 2571.28 4359.04 2570.97 4357.71C2568.92 4348.8 2575.96 4335.86 2579 4326.69C2581.34 4319.66 2586.45 4280.55 2595.88 4283.13C2596.87 4284.34 2597.28 4285.67 2597.01 4287.24C2595.7 4294.74 2592.1 4301.95 2589.95 4309.26C2588.98 4312.59 2588.96 4315.48 2588.23 4318.78C2587.78 4320.7 2585.24 4324.06 2584.95 4325.74C2583.85 4331.97 2582.35 4336.89 2580.09 4342.81L2580.12 4342.47C2578.7 4347.53 2577.02 4352.51 2575.08 4357.39C2575 4357.59 2574.89 4357.77 2574.8 4357.96C2573.05 4361.52 2574.6 4364.34 2573.54 4367.67C2572.66 4370.42 2570.83 4372.83 2569.96 4375.73C2567.08 4385.39 2566.1 4395.07 2563.85 4404.78C2562.71 4409.67 2558.53 4413.17 2557.46 4418.02C2556.78 4421.13 2558.26 4424.44 2557.82 4427.6C2556.93 4433.83 2552.12 4439.87 2554.52 4446.38C2554.96 4447.56 2555.7 4448.21 2556.8 4448.76C2559.25 4449.99 2596.85 4449.15 2602.89 4449.21C2618.84 4449.4 2635.25 4451.73 2651.05 4453.85C2655.65 4454.48 2660.35 4454.58 2664.83 4455.87C2667.21 4456.56 2669.09 4457.84 2671.11 4459.22C2672.64 4459.19 2678.88 4458.98 2680.02 4459.41C2687.32 4462.11 2693.57 4464.79 2701.38 4465.98C2706.12 4466.71 2713.67 4471.57 2717.79 4466.63C2717.27 4466.2 2715.51 4465.83 2714.76 4465.61C2715.75 4464.63 2715.29 4464.95 2716.75 4464.56C2727.76 4463.54 2721.59 4465.58 2729.04 4468.17L2730.5 4473.37C2731.97 4474.8 2733.44 4476.16 2734.78 4477.69C2736.36 4478.09 2743.07 4479.46 2743.79 4480.35L2743.15 4481.21C2745.47 4483.52 2752.87 4483.59 2757.23 4487.27C2761.95 4489.8 2768.27 4492.19 2772.78 4494.83C2779.54 4498.79 2785.4 4504.27 2792.14 4508.1C2798.84 4511.91 2801.13 4516.53 2808.49 4520.35C2809.32 4522.6 2810.27 4524.99 2811.03 4527.25C2818.77 4530.58 2822.3 4547.56 2828.61 4551.59C2829.29 4554.04 2830.09 4556.66 2830.54 4559.15C2830.89 4561.51 2831.41 4564.41 2831.59 4566.74C2831.81 4569.23 2833.13 4568.45 2834.08 4571.37C2834.96 4573.72 2835.27 4573.96 2836.88 4575.98L2836.69 4576.02C2841.32 4579.82 2846.69 4576.84 2852.78 4580.26C2851.39 4580.67 2851.77 4580.58 2850.3 4580.64L2850.37 4581.04L2850.12 4580.76L2850.5 4580.57L2850.95 4581.26C2862.47 4584.62 2871.03 4589.08 2883.2 4591.05C2890.72 4592.26 2893.09 4592.45 2900.72 4592.33C2904.62 4592.64 2911.19 4591.91 2915.71 4592.12C2917.48 4592.2 2927.45 4592.48 2928.42 4592.36C2939.26 4593.68 2945.89 4592.57 2943.08 4605.8C2942.97 4606.29 2942.92 4606.72 2942.58 4607.07C2941.89 4605.17 2942.45 4605.8 2941.17 4604.68C2938.69 4604.73 2936.97 4606.97 2934.75 4607.25C2931.28 4607.7 2925.66 4606.73 2922.43 4607.61L2923.07 4608.62C2919.22 4609.61 2912.78 4609.69 2909.01 4608.27C2909.51 4608.14 2910.01 4608 2910.51 4607.87C2906.29 4606.61 2902.75 4607.18 2898.94 4606.58C2886.42 4604.63 2879.54 4603.69 2866.8 4607.17C2859.3 4614.63 2849.8 4623.98 2849.32 4636C2849.1 4641.57 2854.08 4650.67 2857.93 4654.38C2863.22 4659.49 2869.54 4660.83 2876.49 4661.53C2879.52 4661.83 2880.42 4663.93 2883.75 4661.68C2883.91 4660.92 2884.03 4660.25 2884.15 4659.47L2888.36 4659.02C2892.11 4659.78 2891.01 4658.52 2895.59 4660.36C2898.87 4663.72 2897.57 4664.97 2898.26 4667.99C2895.32 4669.07 2895.51 4669 2893.32 4671.53C2891.32 4672.24 2876.37 4673.6 2872.79 4673.99C2864.84 4674.26 2856.03 4669.91 2849.74 4665.38C2847.28 4663.61 2849.07 4664.03 2845.49 4663.07C2844.97 4660.02 2844.77 4655.67 2842.42 4653.93L2841.33 4654.85C2839.52 4653.43 2840.2 4641 2837.99 4638.03L2837.11 4638.41L2836.7 4638.13C2836.7 4634.72 2838.59 4634.56 2838.74 4633.06C2839.91 4621.25 2846.64 4614.05 2851.6 4604C2854.11 4603.56 2859.17 4603.09 2860.65 4601.54C2861.13 4599.4 2861.21 4600.39 2860.61 4598.43C2859.09 4597.58 2858.39 4597.27 2856.77 4596.62C2857.62 4596.11 2857.83 4596.16 2858.81 4596.12L2859.78 4596.1C2855.7 4595.35 2856.16 4595.13 2854.26 4591.83C2852.84 4589.37 2845.94 4588.07 2843.15 4587.35C2841.41 4584.97 2838.89 4582.54 2835.69 4583.27C2833.96 4584.67 2834.51 4584.14 2833.74 4586.59L2833.27 4587.24C2832.71 4587.99 2832.51 4588.23 2831.89 4588.89C2830.64 4593.26 2831.1 4597.5 2831.27 4602.04C2830 4603.92 2829.45 4607.02 2828.87 4609.32C2825.35 4611.47 2825.05 4612.89 2823.52 4616.63C2818.38 4618.99 2815.76 4626.47 2810.97 4629.99C2808.63 4631.72 2805.6 4633.37 2804.61 4636.18C2803.88 4638.28 2786.74 4651.24 2784.02 4652.98C2781.95 4654.29 2779.66 4655.33 2777.41 4656.29C2773.35 4658.01 2770.47 4658.3 2767.8 4662.06C2760.25 4664.34 2763.33 4662.15 2758.41 4666.66C2755.99 4668.88 2742.75 4674.7 2739.55 4674.9C2734.53 4675.37 2734.08 4677.08 2729.47 4677.16C2725.88 4675.37 2725.95 4675.11 2721.88 4675.06L2721.06 4675.05C2725.32 4669.48 2726.11 4673.8 2728.94 4670.69L2728.69 4669.91C2726.88 4669.99 2726.03 4670.13 2724.25 4669.69C2724.55 4667.98 2725 4666.2 2725.39 4664.5C2737.34 4663.54 2734.1 4661.89 2743.8 4658.42C2745.12 4656.08 2743.49 4643.82 2743.5 4639.79L2743.5 4639.09C2744.44 4635.02 2743.88 4619.76 2742.98 4615.35C2742.57 4617.2 2742.55 4619.07 2742.45 4620.97L2741.91 4621.01L2742.21 4621.41L2741.33 4619.36C2740.37 4614.84 2739.67 4610.48 2739.08 4605.89C2738.85 4604.1 2737.66 4603.93 2735.85 4602.86C2734.66 4600.76 2735.2 4599.42 2735.77 4596.99C2736.7 4594.47 2738.03 4594.36 2740.1 4592.76C2743.77 4591.52 2745.36 4593.36 2749.01 4594.62C2749.21 4598.36 2749.24 4606.2 2750.93 4609.15C2752.06 4609.77 2752.03 4609.76 2753.29 4610.04C2756.3 4616.6 2753.81 4644.44 2756.13 4646.95C2757.67 4647.02 2757.82 4647.21 2759.16 4646.66L2759.08 4645.82C2758.32 4645.55 2758.17 4645.49 2757.37 4645.3C2759.75 4644.7 2762.48 4644.08 2764.79 4643.35C2768.28 4637.5 2773.01 4637.8 2777.16 4629.36C2782.02 4626.61 2783.32 4624.38 2788.39 4623.5C2788.98 4621.93 2789.93 4619.02 2790.78 4617.73L2792.2 4617.42L2792.33 4619.18C2793.55 4619.77 2793.53 4619.65 2794.45 4620.65C2793.44 4623.53 2790.85 4628.54 2791.52 4631.2C2792.41 4631.86 2791.93 4631.74 2792.96 4631.63C2793.06 4630.67 2793.07 4630.13 2793.07 4629.18C2795.1 4628.96 2797.14 4628.7 2799.16 4628.39C2800.65 4621.34 2807.86 4619.62 2812 4614.17C2817.4 4607.04 2824.1 4598.6 2825.04 4589.58C2824.64 4583.9 2824.83 4584.35 2825.07 4578.56C2825.88 4576.18 2823.97 4566.81 2822.56 4564.66C2821.75 4565.64 2821.98 4565.57 2821.62 4566.96C2818.99 4563.18 2822.19 4555.65 2815.81 4553.95C2813.82 4553.41 2817.95 4549.03 2811.09 4546.91C2810.68 4544.44 2810.19 4541.8 2809.91 4539.33C2805.62 4537.68 2805.9 4538.33 2804.99 4533.57C2799.35 4531.55 2795.52 4523.76 2790.25 4520.04C2775.63 4509.67 2759.5 4500.91 2743.33 4493.21C2740.98 4492.09 2729.88 4490.62 2729.15 4495.15C2728.37 4499.94 2729.86 4500.72 2725.91 4503.05C2723.71 4507.2 2726.5 4517.61 2722.37 4521.48C2718.66 4524.95 2720.53 4537.19 2718 4541.97L2717.72 4541.3C2714.62 4544.95 2714.91 4558.16 2713.13 4559.42C2708.36 4561.45 2709.77 4576.21 2708.26 4578.45C2703.09 4586.13 2705.56 4591.5 2703.39 4599.12C2701.72 4605.01 2696.35 4606.97 2702.91 4615.13C2700.51 4620.63 2698.86 4622.6 2700.16 4629.04C2701.34 4630.13 2703.11 4630.3 2704.75 4630.69C2702.98 4632.28 2701.97 4631.19 2701.2 4632.33L2703.11 4633.04C2702.03 4633.9 2702.29 4633.6 2700.73 4633.89C2698.51 4636.96 2700.5 4642.12 2696.84 4644.14C2696.08 4644.57 2695.63 4645.24 2695.41 4646.08C2696.34 4648.2 2697.93 4648.68 2700.13 4649.75C2699.26 4653.76 2700.01 4655.06 2696.34 4656.85C2694.98 4658.67 2694.62 4662.26 2693.31 4662.8C2690.04 4664.18 2690.2 4664.08 2689.39 4667.48C2686.79 4668.06 2683.58 4667.76 2680.85 4667.67C2679.63 4660.13 2679.25 4653.4 2681.42 4645.98C2681.92 4643.89 2683.83 4641.27 2683.98 4639.2C2685 4625.3 2687.77 4611.48 2691.17 4597.97C2692.41 4593.05 2694.71 4590.92 2695.79 4584.8L2697.02 4584.87C2703.65 4575.66 2699.6 4576.72 2701.69 4568.28L2702.09 4571.06C2704 4564.27 2706.59 4558.57 2707.34 4551.3C2707.5 4549.68 2709.86 4545.62 2710.2 4543.65C2711.75 4534.85 2715.32 4526.72 2716.97 4518.03C2717.82 4514.81 2716.13 4506.63 2717.23 4503.94C2720.5 4495.92 2721.25 4492.91 2721.8 4484.43C2721.22 4483.63 2720.5 4482.62 2719.82 4481.92C2716.95 4478.98 2713.03 4477.28 2708.92 4477.22C2708.01 4477.22 2705.55 4477.02 2704.85 4477.38C2696.72 4481.52 2689.36 4487.39 2681.65 4492.28C2677.53 4494.89 2663.97 4500.93 2661.94 4504.62C2659.84 4506.45 2658.95 4509.89 2660.14 4512.45C2664.11 4515.94 2667.3 4511.03 2670.88 4512.67L2670.25 4512.82C2668.13 4513.36 2667.77 4513.33 2666.12 4514.62C2664.39 4517.99 2665.02 4522.28 2660.94 4522.79C2653.13 4523.79 2648.45 4527.67 2641.64 4531.07C2635.33 4534.21 2628 4536.51 2621.74 4539.85C2621.17 4540.15 2620.35 4541.71 2620.02 4542.28C2619.12 4542.81 2613.61 4545.3 2613.43 4545.47C2605.21 4553.72 2588.48 4566.63 2583.85 4576.81C2579.37 4578.67 2580.4 4580.91 2575.26 4583.92C2574.77 4586.79 2574.26 4589.49 2574.02 4592.4C2577.34 4593.3 2580.03 4593.76 2582.75 4595.86L2581.79 4595.6C2588.65 4599.43 2595.54 4603.22 2602.44 4606.97C2605.23 4608.44 2607.41 4609.32 2610.06 4610.62C2612.5 4611.82 2616.78 4615.67 2619.2 4617.2C2621.36 4618.57 2625.45 4618.39 2627.78 4620.18L2626.56 4620.57C2634.29 4626.93 2640.44 4634.66 2647.89 4641.39C2651.54 4644.68 2648.36 4648.02 2653.79 4649.56C2657.94 4658.43 2641.07 4679.43 2633.12 4682.44C2622.98 4686.28 2615.22 4697.52 2604.57 4698.33C2601.11 4698.58 2596.08 4697.43 2594.42 4700.95C2597.1 4705.75 2606.7 4703.75 2611.43 4703.46C2615.34 4703.22 2620.41 4702.71 2624.18 4701.76C2624.4 4701.52 2624.62 4701.27 2624.84 4701.03C2627.97 4697.71 2647.84 4698.52 2653.68 4696.07L2650.61 4695.59C2652.1 4693.07 2664.96 4694.95 2667.35 4690.38C2670.2 4689.12 2684.01 4687.52 2688.42 4686.45L2686.36 4685.84L2686.24 4685.34C2689.38 4684.06 2703.92 4681.78 2707.51 4681.67C2710.62 4682.06 2714.19 4678.31 2720.38 4679.76L2721.37 4680.69C2721.18 4682.1 2721.08 4682.03 2720.16 4683.17C2718.52 4683.64 2712.38 4685.08 2711.74 4686.07L2713.79 4686.93C2710.17 4688.39 2698.9 4689.07 2695.8 4691.09L2696.98 4692.01C2693.31 4693.68 2688.91 4693.04 2685.46 4694.27C2674 4698.37 2658.78 4706.08 2646.19 4705.12L2645.75 4705.58C2646.9 4706.27 2646.52 4706.08 2647.82 4706.45C2645.74 4707.19 2629.52 4709.28 2626.28 4709.69C2625.14 4709.98 2612.73 4710.79 2611.52 4710.71L2610.97 4710.23C2607.43 4708.13 2577.45 4711.41 2570.32 4708.05C2570 4708.01 2569.69 4707.98 2569.37 4707.94C2571.74 4707.82 2576.53 4708.07 2578.33 4707.68C2565.55 4706.92 2552.37 4705.69 2540.05 4709.2C2531.89 4711.53 2523.12 4712.18 2516.64 4718.38C2510.27 4719.43 2504.74 4720.63 2498.48 4722.17C2494.51 4723.16 2490.28 4723.25 2486.09 4724.36C2485.16 4727.44 2484.73 4728.14 2481.83 4729.81L2481.41 4731.31L2479.96 4731.37C2478.76 4732.86 2479.19 4739.12 2478.6 4741.49C2474.31 4758.79 2474.03 4775.69 2473.39 4793.39C2473.34 4796.97 2469.9 4800.88 2469.95 4804.37C2470.25 4823.5 2469.09 4842.49 2469.1 4861.62C2469.1 4863.6 2469.66 4880.64 2469.56 4880.96L2468.83 4881.63C2466.7 4880.64 2465.11 4873.63 2464.21 4871C2465.05 4865.25 2463.67 4864.56 2463.05 4859.39C2462.82 4857.54 2464.84 4851.6 2464.65 4849C2464.25 4843.72 2462.91 4840.03 2462.81 4834.63C2462.74 4831.07 2464.79 4825.78 2464.77 4824.02C2464.48 4817.96 2464.59 4811.82 2464.52 4805.78C2464.43 4798.63 2467.28 4786.53 2465.17 4779.9C2464.62 4774.92 2466.4 4759.19 2466.97 4753.61C2467.85 4745.02 2470.11 4736.72 2470.5 4727.58C2469.5 4722.68 2458.61 4725 2454.93 4725.75C2455.71 4726.2 2455.94 4726.05 2456.86 4726.08L2455.72 4727.14C2447.28 4726.66 2436.89 4725.93 2428.77 4727.97C2415.91 4731.2 2403.21 4727.7 2390.21 4728.01C2387.53 4728.08 2385.2 4727.59 2382.6 4727.91C2377.55 4727.59 2378.01 4724.89 2373.81 4723.24C2372.73 4722.82 2372.36 4722.71 2371.28 4722.05C2370.77 4719.89 2370.42 4717.17 2370.08 4714.94L2369.53 4714.29C2371.26 4713.68 2374.49 4713.94 2376.31 4714.38C2375.62 4715.36 2375.59 4715.3 2375.33 4716.45C2377.77 4719.16 2396.8 4718.13 2401.08 4717.46C2401.73 4717.36 2402.02 4716.02 2402.29 4715.37L2403.33 4715.03L2403.86 4715.37C2403.03 4716.4 2403.06 4716.04 2402.85 4717.17C2411.62 4719.2 2419.01 4717.83 2427.68 4717.5C2432.83 4717.25 2444.11 4715.81 2448.41 4717.15C2461.2 4720.18 2462.71 4716.59 2473.5 4712.39C2476.01 4702.14 2475.61 4692.83 2479.43 4682.64C2481.46 4677.23 2481.74 4669.65 2484.78 4664C2485.33 4662.98 2485.25 4656.95 2485.77 4655.44C2486.57 4652.8 2488.2 4650.59 2489.15 4648.02C2490.31 4644.57 2489.68 4638.79 2490.85 4635.53C2493.52 4628.11 2495.98 4621.62 2497.46 4613.8C2498.1 4610.45 2499.44 4607.97 2500 4604.16C2497.06 4604.03 2493.58 4603.66 2490.95 4604.86C2489.04 4608.97 2476.65 4612.3 2474.37 4615.79C2472.18 4619.15 2467.64 4617.14 2465.95 4619.77C2463.16 4624.12 2458.45 4622.23 2455.82 4626.88C2454.41 4626.65 2454.3 4627.57 2452.16 4626.78C2448.06 4625.24 2443.82 4624.12 2439.5 4623.41C2441.3 4622.92 2442.35 4623.28 2443.56 4622.33L2443.34 4620.83C2444.88 4617.05 2449.28 4618.62 2449.82 4617.41C2452.09 4612.2 2461.88 4611.12 2466.09 4607.48C2468.86 4600.21 2474.15 4606.62 2475.71 4600.06C2477.37 4598.5 2479.83 4598.59 2482.11 4598.07C2485.99 4597.21 2483.86 4596.16 2485.76 4594.51C2486.72 4593.68 2489.79 4593.59 2491.36 4592.77C2493.04 4591.9 2491.96 4590.67 2493.87 4589.69C2498.22 4587.46 2505.93 4585.43 2508.79 4581.21L2507.87 4579.18L2508.22 4580.2C2506.55 4578.32 2506.68 4577.62 2506.48 4575.09L2506.42 4574.28C2501.12 4572.21 2496.48 4568.89 2491.3 4566.84C2476.72 4561.06 2461.62 4555.27 2448.3 4546.91C2436.46 4539.48 2422.85 4536.53 2412.28 4527.11C2408.46 4523.7 2405.38 4519.79 2401.04 4516.94C2399.1 4515.64 2395.89 4513.35 2395.88 4510.87C2395.64 4507.07 2389.37 4505.64 2386.65 4503.54C2382.82 4500.58 2380.17 4496.62 2376.62 4493.33C2376.48 4493.21 2375.85 4488.84 2375.05 4488.93C2361.51 4490.44 2348.44 4500.5 2335.33 4504.4C2334.97 4507.22 2334.98 4509.86 2334.92 4512.69C2330.41 4512.97 2319.39 4513.11 2315.63 4514.28C2311.61 4515.54 2303.54 4517.94 2299.69 4519.37C2294.36 4521.34 2288.78 4526.14 2281.8 4524.36C2279.71 4521.3 2282.19 4518.57 2283.72 4516.42L2282.85 4515.82L2282.89 4515.23C2286.01 4512.69 2290.44 4513.84 2293.81 4511.78L2293.93 4510.52C2295.66 4508.45 2299.13 4509.28 2301.3 4507.76C2302.75 4506.73 2301.43 4505.36 2303.56 4504.65C2306.6 4503.64 2309.74 4503.71 2312.58 4502.11C2316.5 4499.92 2321.88 4496.61 2325.84 4494.76C2326.85 4494.29 2333.87 4494.25 2335.53 4493.4C2337.17 4492.56 2336.85 4492.23 2337.48 4490.29C2340.17 4488.6 2345.53 4489.35 2349.34 4486.05C2352.13 4483.64 2355.5 4485.17 2357.76 4480.62C2358.62 4480.18 2367.88 4477.93 2369.75 4477.39C2370.25 4474.72 2369.21 4467.29 2369.14 4464.15C2369.12 4463.29 2368.1 4463.12 2367.31 4462.74C2365.83 4459.06 2369.53 4450.56 2369.21 4446.36C2369.07 4444.49 2369.36 4443.56 2369.79 4441.75C2371.38 4420.03 2386.13 4406.44 2398.48 4389.96C2399.98 4387.97 2401.11 4384.86 2401.93 4383.92C2405.01 4380.4 2409.64 4377.18 2413.28 4374.24C2416.28 4372.04 2414.77 4371.34 2416.78 4369.25C2423.52 4367.67 2422.87 4364.37 2428.92 4359.48C2432.13 4356.06 2442.6 4349.63 2444.78 4346.36C2448.67 4340.53 2454.77 4340.75 2457.82 4335.07C2461.75 4333.29 2466.08 4329.94 2470.27 4327.51C2471.99 4322.59 2472.99 4325.74 2477.23 4322.54C2477.37 4322.13 2477.87 4320.65 2478.16 4320.47C2482.93 4317.5 2491.2 4314.79 2494.65 4310.13C2499.35 4309.07 2516.52 4298.73 2519.45 4295.28L2529.25 4292.92C2529.33 4292.71 2530.13 4290.77 2530.11 4290.78C2541.57 4281.11 2582.73 4265.94 2594.59 4263.03C2595.61 4258.16 2594.93 4254.15 2596.09 4249.26L2598.39 4248.5C2599.87 4246.66 2599.73 4238.69 2600.61 4235.63C2602.68 4228.46 2604.94 4223.2 2604.82 4215.66ZM2587.82 4686.99C2590.26 4687.03 2593.16 4686.05 2594.95 4686.46C2595.96 4687.88 2595.56 4687.09 2595.72 4689.16C2595.54 4689.57 2595.11 4690.43 2595.02 4690.82C2598.34 4692.12 2599.91 4691.82 2603.45 4691.13C2603.76 4690.96 2604.06 4690.79 2604.36 4690.6C2605.8 4689.72 2608.17 4688.57 2608.47 4687.27C2609.31 4685.65 2609.5 4685.17 2610.89 4684.12C2617.14 4679.35 2611.86 4679.98 2619.67 4678.04C2622.52 4674.86 2624.31 4672.08 2626.88 4668.73C2627.29 4668.19 2630.41 4667.6 2631.38 4667.4C2636.06 4662.33 2637.92 4663.5 2640.77 4656.91C2640.62 4654.53 2640.21 4652.03 2639.87 4649.66C2638.5 4649.28 2636.92 4648.98 2636 4647.95C2632.74 4644.32 2628.69 4640.32 2624.97 4637.17C2622.31 4634.72 2617.86 4633.05 2615.15 4630.9C2607.18 4624.59 2599.29 4620.27 2590.18 4615.79C2584.77 4613.12 2579.8 4608.74 2573.78 4606.89C2572.15 4606.37 2570.79 4603.23 2569.28 4602.73C2562.48 4600.47 2556.18 4615.37 2553.89 4619.83C2550.19 4621.88 2551.04 4622.63 2549.78 4626.51C2548.68 4629.88 2547.18 4628.69 2545.55 4632.53C2543.33 4633.18 2542.51 4633.52 2540.62 4631.85C2540.14 4630.72 2539.71 4629.87 2539.16 4628.78C2541.44 4620.11 2547.83 4611.89 2551.58 4603.68C2551.88 4603.01 2553.59 4601.81 2554.26 4601.35C2554.9 4599.07 2555.27 4596.37 2555.66 4594C2546.53 4593.3 2546.64 4592.01 2538.09 4588.89C2533.67 4587.28 2525.4 4586.52 2521.39 4588.85C2518.81 4590.34 2521.23 4591.22 2515.97 4593.93C2514.37 4595.12 2509.37 4608.24 2507.94 4610.87C2504.3 4617.57 2504.65 4625.59 2503.42 4632.85C2503.12 4634.59 2499.52 4638.95 2499.52 4640.69C2499.5 4651.89 2494.78 4660.83 2493.45 4671.83C2492.33 4676.91 2489.62 4682.08 2489.31 4687.26C2488.97 4693.08 2486.5 4697.19 2484.74 4702.88C2480.43 4716.83 2501.61 4716.36 2508.86 4712L2509.16 4711.22C2507.71 4710.31 2507.63 4710.7 2505.48 4710.85L2506.1 4710.01C2508.96 4709.04 2523.13 4707.54 2526.85 4707.08C2529.67 4707.04 2532.35 4707.03 2535.17 4706.77L2535.31 4706.14C2530.18 4703.68 2534.87 4704.61 2533.95 4701.25C2532.97 4700.48 2532.84 4700.43 2531.71 4699.87L2531.77 4697.47C2533.93 4698.32 2540.74 4696.61 2544.9 4697.26C2545.71 4697.36 2550.8 4697.76 2551.34 4697.58C2556.36 4695.91 2564.95 4694.24 2568.24 4690.11C2574.96 4689.01 2581.02 4688.39 2587.82 4686.99ZM2536.06 4568.08C2536.43 4561.85 2543.79 4564.62 2548.8 4562C2549.06 4560.88 2548.93 4561.24 2549.51 4560.19C2552.71 4558.74 2556.26 4559.02 2559.63 4558.13C2561.32 4557.68 2561.25 4556.97 2561.89 4555.5C2563.82 4554.57 2569.3 4553.74 2571.97 4553.11L2574.18 4549.32C2577.36 4548.46 2577.44 4548.67 2579.9 4546.76C2584.69 4543.01 2598.39 4538.99 2604.33 4538.1C2604.75 4536.88 2605.01 4536.32 2605.58 4535.15C2611.34 4531.37 2611.24 4529.21 2618.52 4527.52C2620.53 4522.96 2625.77 4520.29 2630.28 4518.44C2634.22 4512.02 2643.72 4507.79 2649.52 4503.33C2658.1 4496.75 2667.37 4491.17 2675.7 4484.34C2676.98 4483.29 2679.56 4483.85 2681.1 4482.11L2680.98 4480.57C2682.72 4478.46 2687.01 4479.65 2689.78 4477.42C2690.47 4475.69 2690.36 4475.61 2690.27 4473.82C2684.94 4472.09 2676.72 4470.61 2671.02 4468.74C2668.29 4468.09 2664.27 4468.12 2661.68 4467.3C2652.82 4464.49 2644.54 4463.42 2635.28 4462.81C2631.08 4462.53 2623.8 4462.8 2620.08 4461.36L2621.92 4460.71L2621.71 4460.31H2621.78L2621.97 4460.66C2621.23 4460.08 2621.68 4460.3 2620.54 4460.17C2617.86 4458.8 2615.67 4458.89 2612.65 4458.83L2608.72 4455.59C2587.07 4456.18 2577.48 4452.32 2554.16 4458.05C2553.32 4458.91 2550.3 4461.94 2550.07 4462.86C2547.71 4472.18 2544.51 4481.28 2543.06 4490.79C2542.81 4492.44 2540.05 4496.66 2539.52 4498.56C2538.85 4500.99 2539.2 4503.56 2538.68 4505.75C2538.18 4507.83 2535.69 4511 2535.12 4513.11C2534.35 4516 2533.79 4518.91 2532.94 4521.79C2532.03 4524.9 2530.6 4528.28 2529.85 4531.38C2529.15 4534.27 2528.8 4537.45 2528.14 4540.43C2527.38 4543.8 2525.4 4548.02 2524.7 4551.19C2523.59 4556.22 2522.7 4561.52 2521.64 4566.61C2523.82 4572.05 2533 4571.09 2536.06 4568.08ZM2529.86 4459.86C2524.5 4458.54 2511.87 4460.53 2505.25 4460.42C2506.94 4460.78 2508.64 4461.15 2510.33 4461.53C2507.43 4462.5 2491.63 4462.56 2487.51 4462.93C2478.94 4463.7 2470.46 4464.51 2461.89 4465.81C2462.99 4466.72 2463.2 4466.61 2464.65 4466.9C2458.29 4467.8 2451.68 4468.04 2445.6 4469.41C2441.74 4470.29 2440.52 4470.6 2436.54 4470.83C2437.68 4471.29 2437.96 4471.22 2439.22 4471.39C2437.65 4473.18 2425.6 4472.6 2422.45 4473.29C2419.07 4474.03 2415.27 4475.36 2411.97 4475.94L2413.36 4476.9C2408.49 4478.06 2400.3 4478.4 2396.48 4480.53C2396.79 4481.37 2396.52 4480.95 2397.45 4481.65C2392.03 4483.47 2392.36 4481.63 2388.01 4485.94C2392.15 4492 2404.16 4500.34 2409.42 4505.64C2410.25 4507.96 2411 4509.17 2413.13 4510.59C2421.54 4516.19 2429.12 4524.1 2438.64 4527.6C2441 4528.47 2445.05 4529.06 2445.29 4531.46C2452.06 4534.68 2458.47 4538.12 2465.73 4540.08L2465.8 4540.39L2464.89 4540.94C2466.58 4542.52 2473.81 4544.04 2474.2 4544.79C2476.72 4549.65 2481.37 4547.57 2486.28 4550.14L2486.27 4550.57L2485.32 4551.14C2488.45 4553.83 2495.11 4553.53 2498.68 4555.43L2496.68 4555.77C2497.26 4556.42 2508.11 4560.85 2508.89 4560.97C2516.21 4553.57 2522.01 4520.06 2526.07 4509.34C2530.19 4498.5 2532.84 4486.37 2536.01 4475.18C2537.43 4469.62 2540.05 4470.83 2540.02 4463.44L2540.01 4462.76C2538.59 4458.92 2533.41 4459.89 2529.86 4459.86Z" fill="black"/>
<path d="M2533.07 4668.12C2537.64 4668.77 2537.12 4666.78 2540.93 4670.25C2541.02 4672.92 2539.85 4684.8 2539.62 4688.3C2537.76 4689.37 2533.3 4687.99 2531.08 4687.48C2530.73 4686.06 2530.79 4685.93 2530.69 4684.44C2529.88 4683.04 2528.89 4682.84 2527.37 4682.15L2526.71 4681.86C2525.91 4678.19 2526.33 4672.08 2526.55 4668.23L2533.07 4668.12Z" fill="black"/>
<path d="M2538.52 4659.67L2539.36 4660.45C2539.1 4665.03 2538.73 4666.17 2540.93 4670.25C2537.12 4666.78 2537.64 4668.77 2533.07 4668.12C2533.7 4667.78 2534.52 4667.69 2535.29 4667.52C2536.47 4667.34 2536.43 4667.42 2537.33 4666.65C2537.76 4664.33 2538.16 4662 2538.52 4659.67Z" fill="black"/>
<path d="M2535.9 4659.94C2537.42 4659.46 2536.86 4659.59 2538.52 4659.67C2538.16 4662 2537.76 4664.33 2537.33 4666.65L2536.76 4666.41C2535.98 4664.34 2536.69 4662.92 2537.18 4660.46L2535.9 4659.94Z" fill="black"/>
<path d="M2535.9 4659.94L2537.18 4660.46C2536.69 4662.92 2535.98 4664.34 2536.76 4666.41L2537.33 4666.65C2536.43 4667.42 2536.47 4667.34 2535.29 4667.52L2535.9 4659.94Z" fill="black"/>
<path d="M2554.16 4458.05C2577.48 4452.32 2587.07 4456.18 2608.72 4455.59L2612.65 4458.83C2615.67 4458.89 2617.86 4458.8 2620.54 4460.17C2617.81 4460.04 2616.34 4459.68 2613.95 4460.95L2614.04 4461L2612.52 4461.46L2612.1 4461.01C2607.81 4456.49 2596.84 4457.77 2590.73 4457.6C2582.05 4457.37 2562.25 4456.73 2555.23 4460.27C2551.74 4462.03 2545.59 4491.13 2543.79 4496.3C2538.19 4512.29 2533.74 4529.03 2529.62 4545.43C2527.49 4553.34 2525.45 4557.63 2523.82 4566.43C2525.56 4571.15 2532.44 4567.72 2536.06 4568.08C2533 4571.09 2523.82 4572.05 2521.64 4566.61C2522.7 4561.52 2523.59 4556.22 2524.7 4551.19C2525.4 4548.02 2527.38 4543.8 2528.14 4540.43C2528.8 4537.45 2529.15 4534.27 2529.85 4531.38C2530.6 4528.28 2532.03 4524.9 2532.94 4521.79C2533.79 4518.91 2534.35 4516 2535.12 4513.11C2535.69 4511 2538.18 4507.83 2538.68 4505.75C2539.2 4503.56 2538.85 4500.99 2539.52 4498.56C2540.05 4496.66 2542.81 4492.44 2543.06 4490.79C2544.51 4481.28 2547.71 4472.18 2550.07 4462.86C2550.3 4461.94 2553.32 4458.91 2554.16 4458.05Z" fill="black"/>
<path d="M2505.48 4710.85C2507.63 4710.7 2507.71 4710.31 2509.16 4711.22L2508.86 4712C2501.61 4716.36 2480.43 4716.83 2484.74 4702.88C2486.5 4697.19 2488.97 4693.08 2489.31 4687.26C2489.62 4682.08 2492.33 4676.91 2493.45 4671.83C2494.78 4660.83 2499.5 4651.89 2499.52 4640.69C2499.52 4638.95 2503.12 4634.59 2503.42 4632.85C2504.65 4625.59 2504.3 4617.57 2507.94 4610.87C2509.37 4608.24 2514.37 4595.12 2515.97 4593.93C2515.77 4595.69 2515.17 4602.15 2514.56 4602.93C2508.85 4610.2 2508.95 4619.66 2506.22 4628.34C2505.25 4631.42 2505.11 4635.57 2503.88 4638.83C2501.67 4640.42 2501.88 4641.35 2501.45 4643.97C2500.62 4649.01 2500.12 4662.13 2497.57 4665.72C2496.72 4666.92 2490.02 4694.42 2489.58 4697.62C2489.18 4700.49 2489.78 4707.91 2487.99 4709.88C2487.43 4710.49 2487.63 4710.27 2487.14 4711.15C2489.34 4714.34 2501.02 4712.01 2504.9 4711.51L2505.48 4710.85Z" fill="black"/>
<path d="M2531.6 4649.24L2531.63 4648.01L2532.16 4647.52L2534.11 4648.09L2534.42 4647.35C2532.91 4646.27 2530.97 4646.51 2528.67 4645.96C2529.2 4645.27 2532.56 4645.17 2534.45 4644.64C2535.9 4639.32 2537.47 4634.03 2539.16 4628.78C2539.71 4629.87 2540.14 4630.72 2540.62 4631.85C2542.51 4633.52 2543.33 4633.18 2545.55 4632.53C2545.1 4634.21 2543.92 4640.31 2543.52 4641L2543.06 4640.73C2542.89 4639.08 2543.04 4638.58 2542.3 4637.18C2540.94 4640.18 2539.34 4648.37 2539.05 4651.66C2537.31 4650.58 2539.02 4649.13 2537.41 4647.48C2536.74 4648.98 2537.16 4648.58 2535.99 4649.48C2534.18 4649.28 2533.41 4649.23 2531.6 4649.24ZM2536.88 4645.35C2537.85 4644.23 2537.53 4640.54 2536.85 4639.25C2536.2 4641.61 2535.89 4643 2536.88 4645.35Z" fill="black"/>
<path d="M2536.88 4645.35C2537.85 4644.23 2537.53 4640.54 2536.85 4639.25C2536.2 4641.61 2535.89 4643 2536.88 4645.35Z" fill="black"/>
<path d="M2587.82 4686.99C2587.68 4686.46 2587.75 4686.15 2587.76 4685.57C2589.74 4684.05 2598.42 4683.1 2600.98 4683.45C2599.99 4684.97 2600.13 4684.33 2599.95 4685.97C2600.92 4686.51 2601.18 4686.65 2602.04 4687.34C2600.43 4687.52 2600.05 4687.38 2598.67 4688.11C2602.41 4689.9 2604.06 4687.91 2608.01 4687.33L2608.47 4687.27C2608.17 4688.57 2605.8 4689.72 2604.36 4690.6C2604.06 4690.79 2603.76 4690.96 2603.45 4691.13C2600.94 4689.47 2597.66 4689.52 2595.02 4690.82C2595.11 4690.43 2595.54 4689.57 2595.72 4689.16C2595.56 4687.09 2595.96 4687.88 2594.95 4686.46C2593.16 4686.05 2590.26 4687.03 2587.82 4686.99Z" fill="black"/>
<path d="M2531.71 4699.87C2532.84 4700.43 2532.97 4700.48 2533.95 4701.25C2534.87 4704.61 2530.18 4703.68 2535.31 4706.14L2535.17 4706.77C2532.35 4707.03 2529.67 4707.04 2526.85 4707.08C2526.74 4705.8 2526.69 4706.42 2527.2 4705.23C2528.7 4704.16 2528.94 4704.03 2530.74 4703.69L2530.29 4702.66L2531.71 4699.87Z" fill="black"/>
<path d="M2531.6 4649.24C2533.41 4649.23 2534.18 4649.28 2535.99 4649.48C2537.16 4648.58 2536.74 4648.98 2537.41 4647.48C2539.02 4649.13 2537.31 4650.58 2539.05 4651.66C2537.38 4652.27 2536.7 4652.14 2534.94 4652.09L2534.31 4652.07C2532.77 4653.35 2533.15 4653.59 2532.51 4655.99L2532.66 4654.37L2532.16 4654.67L2531.6 4649.24Z" fill="black"/>
<path d="M2540.01 4462.76C2538.59 4458.92 2533.41 4459.89 2529.86 4459.86C2532.14 4463.44 2536.1 4462.76 2540.01 4462.76Z" fill="black"/>
<path d="M2542.72 4695.42C2544.31 4695.92 2543.58 4695.64 2544.9 4697.26C2540.74 4696.61 2533.93 4698.32 2531.77 4697.47L2531.42 4695.76C2536.64 4695.68 2537.38 4695.94 2542.18 4696.34L2542.72 4695.42Z" fill="black"/>
<path d="M2531.42 4695.76L2532.05 4694.95C2535.56 4694.44 2539.25 4694.81 2542.72 4695.42L2542.18 4696.34C2537.38 4695.94 2536.64 4695.68 2531.42 4695.76Z" fill="black"/>
<path d="M2603.45 4691.13C2600.94 4689.47 2597.66 4689.52 2595.02 4690.82C2598.34 4692.12 2599.91 4691.82 2603.45 4691.13Z" fill="black"/>
<path d="M2960.81 4567.62C2960.43 4544.64 2967.05 4531.06 2976.09 4511.23C2977.67 4507.73 2975.79 4497.29 2976.78 4493.61C2979.4 4483.84 2984.79 4474.44 2989.3 4465.42C2991.17 4461.76 2991.3 4455.19 2996.06 4454.71C3006.21 4458.48 3002.18 4476.82 2998.44 4483.93C2997.96 4484.83 2999.16 4489.61 2998.46 4490.56C2997.9 4491.21 2994.61 4495.59 2994.66 4495.87C2995.89 4502.77 2999.53 4503.98 2995.51 4511.15C2993.64 4514.48 2993.4 4521.81 2993.38 4525.06C2992.08 4526.69 2990.97 4527.91 2989.99 4529.9C2989.51 4530.9 2984.29 4548.09 2984.89 4547.39L2984.07 4546.29C2983.61 4546.98 2983.5 4546.98 2983.54 4547.74C2983.85 4553.26 2981.03 4554.91 2979.65 4559.11C2977 4567.17 2974.52 4575.29 2971.61 4583.3C2970.81 4588.3 2964.38 4597.2 2963.93 4601.69C2963.39 4607.24 2959.01 4623.52 2962 4628.2C2964.85 4632.65 2972.98 4627.57 2976.74 4628.29C2977.52 4628.44 2977.47 4628.92 2977.84 4629.64C2977.74 4632.28 2976.74 4632.91 2975.3 4635.05L2974.89 4636.43C2969.81 4639.84 2965.2 4646.9 2958.17 4646.78C2951.79 4641.86 2953.91 4634.63 2950.56 4628.32C2949.56 4626.44 2946.38 4626.62 2945.91 4624.07C2944.4 4619.45 2950.61 4615.92 2950.91 4612.71C2951.63 4604.89 2953.84 4597.07 2954.97 4589.29C2956.17 4580.99 2955.94 4574.7 2960.81 4567.62Z" fill="black"/>
<path d="M2999.88 4592.63C2999.61 4585.17 3008.31 4581.09 3001.29 4575.88L3001.49 4575.3L3003.07 4575.51C3005.85 4572.68 3009.32 4573.52 3013.16 4573.56C3013.57 4577.32 3014.44 4580.73 3014.84 4584.5C3015.09 4586.86 3014.81 4591.31 3016.03 4593.05C3016.82 4593.3 3018.24 4593.55 3018.36 4594.14C3019.18 4598.09 3019.03 4603.66 3019.47 4607.77C3022.41 4610.09 3023.2 4611.97 3025.52 4614.68C3026.73 4614.48 3032.44 4613.75 3032.6 4612.83C3033.22 4609.19 3040.07 4608.47 3040.34 4607.6C3041.84 4602.89 3043.14 4604.91 3049.01 4603.61C3050.32 4600.14 3051.9 4595.16 3054.38 4592.58C3056.5 4592.43 3057.84 4591.97 3059.53 4592.8C3059.81 4594.7 3059.7 4595.97 3059.65 4597.89C3057.7 4604.47 3055.65 4601.88 3053.47 4611.41C3049.5 4613.24 3044.3 4617.94 3042.75 4622.1C3035.18 4624.52 3028.53 4631.99 3020.52 4627.4L3019.85 4624.7C3017.72 4622.1 3014.15 4624.51 3014.37 4619.7C3014.43 4618.44 3010.51 4618.08 3010.11 4617.05C3009 4614.25 3009.44 4611.96 3007.99 4609.14C3007.16 4608.82 3006.48 4608.54 3005.67 4608.17C3004.36 4604.38 3009.46 4600.05 3009.27 4595.21C3007.7 4592.43 3004.16 4593.99 3001.75 4595C3001.05 4592.89 3001.7 4593.62 2999.88 4592.63Z" fill="black"/>
<path d="M2525.73 4306.96C2525.66 4305.49 2525.49 4306.14 2526.19 4304.92C2542.6 4295.1 2556.8 4287.43 2575.16 4281.63C2581.01 4279.78 2587.6 4274.31 2593.67 4280.3L2593.22 4280.91L2593.49 4281.61L2594.91 4281.69C2594.58 4278.96 2594.2 4278.41 2595.38 4276.12C2597.2 4274.9 2596.24 4275.19 2598.33 4275.09C2599.29 4278.41 2601.03 4291.36 2598.94 4292.95C2593.48 4297.11 2596.03 4301.21 2594.09 4307.45C2593.58 4309.08 2591.01 4308.59 2591.15 4311.54C2590.46 4314.73 2590.37 4323.54 2588.69 4325.41L2587.56 4325.39C2586.13 4329.43 2585.93 4339.63 2582.4 4341.09C2581.95 4342.79 2581.89 4342.26 2583.09 4344.33L2583.39 4344.85C2583.05 4345.97 2582.94 4345.89 2582.05 4346.52C2579.02 4348.7 2579.12 4356.64 2578.9 4359.82C2578.75 4357.94 2578.82 4356.66 2577.92 4355.01C2576.19 4355.99 2576.62 4360.85 2576.06 4362.75C2575.03 4370.73 2573.91 4372.43 2571 4379.7C2569.37 4383.79 2570.04 4392.56 2568.73 4396.66C2567 4402.08 2565.35 4407.03 2563.92 4412.57C2562.95 4413.29 2562.43 4413.59 2561.37 4414.19C2558 4419.87 2562.4 4434.38 2556.29 4440.02C2555.68 4440.57 2555.97 4446.17 2556.02 4447.47C2561.93 4447.96 2567.3 4447.3 2573.17 4447.25C2582.2 4447.17 2591.26 4447.32 2600.29 4447.36C2613.41 4447.74 2626.35 4449.92 2639.7 4449.64C2641.26 4449.9 2642.81 4450.19 2644.36 4450.51L2644.98 4451.45C2647.88 4452.48 2650.12 4452.35 2653.2 4452.44C2657.5 4453.42 2668.4 4453.92 2670.81 4455.54L2669.69 4456.33C2672.22 4458.18 2678.13 4457 2681.31 4457.71C2687.99 4459.19 2692.98 4463.8 2700.04 4463.99C2702.91 4464.06 2706.08 4464.72 2708.95 4464.58L2707.27 4465.36L2707.28 4466.11C2710.1 4467.81 2714.68 4467.34 2717.79 4466.63C2713.67 4471.57 2706.12 4466.71 2701.38 4465.98C2693.57 4464.79 2687.32 4462.11 2680.02 4459.41C2678.88 4458.98 2672.64 4459.19 2671.11 4459.22C2669.09 4457.84 2667.21 4456.56 2664.83 4455.87C2660.35 4454.58 2655.65 4454.48 2651.05 4453.85C2635.25 4451.73 2618.84 4449.4 2602.89 4449.21C2596.85 4449.15 2559.25 4449.99 2556.8 4448.76C2555.7 4448.21 2554.96 4447.56 2554.52 4446.38C2552.12 4439.87 2556.93 4433.83 2557.82 4427.6C2558.26 4424.44 2556.78 4421.13 2557.46 4418.02C2558.53 4413.17 2562.71 4409.67 2563.85 4404.78C2566.1 4395.07 2567.08 4385.39 2569.96 4375.73C2570.83 4372.83 2572.66 4370.42 2573.54 4367.67C2574.6 4364.34 2573.05 4361.52 2574.8 4357.96C2574.89 4357.77 2575 4357.59 2575.08 4357.39C2577.02 4352.51 2578.7 4347.53 2580.12 4342.47L2580.09 4342.81C2582.35 4336.89 2583.85 4331.97 2584.95 4325.74C2585.24 4324.06 2587.78 4320.7 2588.23 4318.78C2588.96 4315.48 2588.98 4312.59 2589.95 4309.26C2592.1 4301.95 2595.7 4294.74 2597.01 4287.24C2597.28 4285.67 2596.87 4284.34 2595.88 4283.13C2586.45 4280.55 2581.34 4319.66 2579 4326.69C2575.96 4335.86 2568.92 4348.8 2570.97 4357.71C2571.28 4359.04 2572.73 4359.6 2572.35 4362.03C2570.88 4362.49 2570.74 4362.43 2569.26 4362L2569.76 4361.18C2568.11 4358.96 2568.91 4361.27 2566.5 4359.58C2566.43 4356.41 2567.85 4354.48 2568.52 4351.55C2571.08 4340.25 2576.31 4332.5 2576.72 4320.72L2579.44 4317.56C2581.04 4307.45 2583.16 4295.18 2588.05 4285.86C2589.17 4283.73 2590.17 4283.06 2590.27 4280.49C2589.82 4279.82 2589.14 4278.88 2588.21 4279.16C2577.11 4282.44 2557.95 4289.71 2548.06 4294.46C2544.52 4296.16 2526.86 4306.07 2525.73 4306.96ZM2577.99 4327.11C2578.76 4325.55 2578.95 4325.45 2578.97 4323.68C2578.09 4321.57 2577.99 4322.29 2577.19 4320.88C2577.18 4322.55 2576.87 4326.09 2577.59 4327.2L2577.99 4327.11Z" fill="black"/>
<path d="M2577.19 4320.88C2577.99 4322.29 2578.09 4321.57 2578.97 4323.68C2578.95 4325.45 2578.76 4325.55 2577.99 4327.11L2577.59 4327.2C2576.87 4326.09 2577.18 4322.55 2577.19 4320.88Z" fill="black"/>
<path d="M2990.35 4453.66C2996.28 4453.11 2997.55 4453.19 3003.18 4454.78C3004.63 4465.23 3004.97 4475.66 3001.97 4485.87C3000.43 4491.12 3001.84 4493.84 2995.98 4496.11C2996.78 4496.67 2999 4498.27 2999.21 4499.04C3000.93 4505.32 2994.83 4524.2 2993.31 4529.95L2992.89 4530.31C2988.99 4533.7 2990.07 4540.5 2987.91 4545.65C2987.42 4545.65 2986.94 4545.64 2986.44 4545.63C2984.75 4550.4 2984.46 4556.26 2982.9 4561.51C2977.14 4565.07 2980.07 4566.91 2978.33 4573.46C2977.89 4575.13 2975.34 4576.84 2974.79 4578.35C2973.65 4581.5 2974.69 4586.68 2971.94 4588.84C2969.13 4591.05 2969.87 4593.33 2968.86 4596.75C2968.16 4599.14 2966.67 4601.16 2965.92 4603.89C2963.98 4611 2963.97 4619.36 2963.08 4626.72C2963 4627.32 2963.58 4628.04 2964.13 4628.34C2966 4629.31 2967.33 4629.22 2969.25 4628.7C2972.25 4626.06 2970.58 4623.7 2971.61 4620.2C2971.81 4621.17 2972.59 4625.94 2973.09 4626.13C2975.24 4626.95 2980.04 4627.28 2982.31 4626.66L2982.55 4626.15C2980.42 4624.8 2975.44 4625.9 2973.59 4624.77C2973.96 4623.6 2973.69 4623.86 2974.46 4623.12C2975.88 4624.27 2982.44 4624.9 2984.41 4625.01C2980.36 4630.35 2980.57 4633.7 2975.3 4635.05C2976.74 4632.91 2977.74 4632.28 2977.84 4629.64C2977.47 4628.92 2977.52 4628.44 2976.74 4628.29C2972.98 4627.57 2964.85 4632.65 2962 4628.2C2959.01 4623.52 2963.39 4607.24 2963.93 4601.69C2964.38 4597.2 2970.81 4588.3 2971.61 4583.3C2974.52 4575.29 2977 4567.17 2979.65 4559.11C2981.03 4554.91 2983.85 4553.26 2983.54 4547.74C2983.5 4546.98 2983.61 4546.98 2984.07 4546.29L2984.89 4547.39C2984.29 4548.09 2989.51 4530.9 2989.99 4529.9C2990.97 4527.91 2992.08 4526.69 2993.38 4525.06C2993.4 4521.81 2993.64 4514.48 2995.51 4511.15C2999.53 4503.98 2995.89 4502.77 2994.66 4495.87C2994.61 4495.59 2997.9 4491.21 2998.46 4490.56C2999.16 4489.61 2997.96 4484.83 2998.44 4483.93C3002.18 4476.82 3006.21 4458.48 2996.06 4454.71C2991.3 4455.19 2991.17 4461.76 2989.3 4465.42C2984.79 4474.44 2979.4 4483.84 2976.78 4493.61C2975.79 4497.29 2977.67 4507.73 2976.09 4511.23C2967.05 4531.06 2960.43 4544.64 2960.81 4567.62C2955.94 4574.7 2956.17 4580.99 2954.97 4589.29C2953.84 4597.07 2951.63 4604.89 2950.91 4612.71C2950.61 4615.92 2944.4 4619.45 2945.91 4624.07C2946.38 4626.62 2949.56 4626.44 2950.56 4628.32C2953.91 4634.63 2951.79 4641.86 2958.17 4646.78C2965.2 4646.9 2969.81 4639.84 2974.89 4636.43C2974.74 4636.96 2973.51 4641.41 2973.41 4641.49L2972.6 4641.91C2965.62 4645.61 2961.75 4652.58 2952.56 4646.94L2953.1 4646.08C2953.1 4644.86 2953.2 4645.39 2952.92 4644.49C2953.37 4638.99 2951.71 4634.21 2950.04 4629.08L2945.66 4628.45L2944.1 4627.43C2942.55 4616.28 2947.39 4618.72 2949.02 4610.07C2950.74 4600.93 2950.86 4592.89 2953.65 4583.69C2955.72 4576.89 2952.98 4573.39 2958.69 4566.66C2958.96 4553.58 2959.76 4540.66 2965.65 4528.75C2967.76 4524.48 2972.3 4515.84 2973.54 4511.31C2975.38 4504.53 2972.99 4495.41 2975.82 4488.21C2978.54 4481.46 2981.89 4474.66 2985.3 4468.24C2988.59 4462.04 2989.37 4460.59 2990.35 4453.66Z" fill="black"/>
<path d="M2719.33 4230.11C2726.74 4229.69 2734.03 4229.72 2741.45 4229.56C2754.48 4229.28 2770.36 4228.22 2783.01 4231.3L2781.04 4231.41C2790.31 4233.64 2800.78 4232.77 2808.77 4236.22L2806.67 4236.05C2808.41 4236.62 2823.49 4240.51 2823.55 4240.6L2822.03 4241.17C2824.88 4244 2832.96 4242.54 2834.41 4246.83C2834.71 4247.71 2841.19 4249.08 2842.3 4250.52L2842.27 4251.41C2845.01 4254.07 2849.57 4252.24 2849.85 4257.27C2849.89 4257.95 2854.42 4258.84 2855.68 4260.16L2855.7 4262C2856.86 4263.07 2857.22 4263.04 2858.73 4263.51C2859.49 4264.61 2859.31 4264.91 2859.34 4266.32C2857.51 4269.94 2856.22 4266.86 2852.39 4271.97L2851.2 4271.51L2852.19 4270.82C2849.61 4267.7 2847.12 4270.91 2845.03 4265.16C2840.48 4261.93 2834.16 4260.49 2829.55 4257.47C2828.52 4256.79 2830.27 4255.48 2825.93 4254.45C2818.66 4252.73 2813.62 4253.38 2807.68 4248.61C2806.75 4247.86 2795.16 4247.54 2793.42 4246.9C2789.91 4245.82 2790.77 4244.23 2785.25 4243.49C2774.83 4242.11 2764.14 4243.79 2754.09 4242.76L2754.46 4241.42C2753.06 4240.22 2752.6 4240.5 2750.45 4240.11C2751.45 4239.78 2778.44 4240.99 2781.11 4241.45L2780.93 4241.52C2782.53 4241.99 2787.42 4242.62 2789.31 4242.8C2800.86 4243.91 2809.09 4247.34 2819.78 4250.88C2818.43 4251.4 2818.67 4251.03 2817.99 4251.93C2820.45 4252.74 2825.53 4252.32 2827.26 4253.07C2833.52 4255.79 2839.04 4260.62 2845.4 4263.32C2847.68 4264.29 2852.57 4270.62 2854.87 4265.37C2853.73 4258.33 2835.76 4250.33 2830.36 4246.11C2829.46 4245.4 2825 4244.76 2823.73 4244.03C2815.24 4239.16 2805.43 4238.72 2796.48 4234.64C2795.39 4234.14 2787.97 4235.3 2785.9 4234.71C2767.65 4229.43 2750.4 4231.09 2731.74 4231.79C2728.44 4231.92 2725.91 4232.31 2722.33 4232.21C2723.94 4231.6 2724.29 4231.64 2725.61 4230.6C2723.25 4230.59 2721.64 4230.59 2719.33 4230.11Z" fill="black"/>
<path d="M2669.23 4004.13C2666.92 4004.58 2667.62 4004.43 2665.09 4003.59C2661.94 3999.31 2665.87 3994.95 2669.22 3992.53C2670.56 3984.91 2668.08 3976.43 2671.29 3969.18C2671.72 3968.22 2677.44 3964.79 2679.14 3965.08L2679.38 3965.81C2682.34 3974.51 2686.48 3976.36 2686.51 3987.57C2680.17 3989.73 2680.6 3989.58 2675.67 3994C2674.97 3998.4 2674.51 4002.24 2674.07 4006.67C2673.45 4006.69 2673.08 4006.64 2672.47 4006.58C2671.67 4007.79 2671.79 4007.12 2671.87 4008.55C2672.24 4007.08 2671.82 4005.83 2671.53 4004.32L2670.21 4004.5L2669.23 4004.13Z" fill="black"/>
<path d="M2464.21 4871C2465.11 4873.63 2466.7 4880.64 2468.83 4881.63L2469.56 4880.96C2469.66 4880.64 2469.1 4863.6 2469.1 4861.62C2469.09 4842.49 2470.25 4823.5 2469.95 4804.37C2469.9 4800.88 2473.34 4796.97 2473.39 4793.39C2474.03 4775.69 2474.31 4758.79 2478.6 4741.49C2479.19 4739.12 2478.76 4732.86 2479.96 4731.37L2481.41 4731.31C2481.14 4737.43 2480.4 4743.3 2479.93 4749.39C2479.48 4755.23 2479.38 4761.14 2478.71 4766.97C2478.37 4769.99 2476.46 4772.07 2476.15 4775.05C2475.36 4782.75 2475.79 4792.12 2474.62 4799.62C2474.32 4800.32 2473.56 4801.97 2473.41 4802.62L2472.93 4801.69C2470.63 4803.48 2472.44 4827.4 2472.22 4831.64C2472.09 4833.95 2471.51 4837.55 2471.48 4839.76C2471.73 4844.85 2471.18 4876.63 2472.44 4878.35L2473.91 4877.85C2474.57 4879.5 2474.02 4883.5 2473.52 4885.27C2472.62 4884.2 2472.69 4880.7 2472.66 4879.15C2472.15 4881.29 2471.61 4884.74 2470.33 4886.33C2469.04 4887.09 2468.12 4886.84 2466.6 4886.74L2465.97 4886.06L2466.44 4885.56L2469.59 4885.49C2468.27 4884.03 2467.82 4883.77 2465.84 4883.85C2465.12 4881.32 2464.83 4878.68 2464.18 4876.52C2464.33 4874.74 2464.23 4872.79 2464.21 4871Z" fill="black"/>
<path d="M2661.94 4504.62C2663.97 4500.93 2677.53 4494.89 2681.65 4492.28C2689.36 4487.39 2696.72 4481.52 2704.85 4477.38C2705.55 4477.02 2708.01 4477.22 2708.92 4477.22C2713.03 4477.28 2716.95 4478.98 2719.82 4481.92C2720.5 4482.62 2721.22 4483.63 2721.8 4484.43C2721.25 4492.91 2720.5 4495.92 2717.23 4503.94C2716.13 4506.63 2717.82 4514.81 2716.97 4518.03C2715.32 4526.72 2711.75 4534.85 2710.2 4543.65C2709.86 4545.62 2707.5 4549.68 2707.34 4551.3C2706.59 4558.57 2704 4564.27 2702.09 4571.06L2701.69 4568.28C2699.6 4576.72 2703.65 4575.66 2697.02 4584.87L2695.79 4584.8C2696.53 4580.9 2698.42 4578.8 2698.91 4576.24C2700.49 4567.95 2703.46 4552.41 2707.07 4544.72L2708.59 4541.62C2709.85 4531.97 2712.11 4525.64 2714.9 4516.4C2715.59 4514.08 2714.09 4507.79 2714.78 4504.22C2715.84 4498.64 2719.84 4489.7 2719.11 4484.41C2717.44 4483.58 2710.94 4479.81 2709.9 4479.73C2701.83 4479.07 2686.84 4491.81 2680.11 4496.33C2676.36 4498.85 2673.19 4498.1 2671.79 4499.1C2666.34 4502.99 2668.36 4502.57 2661.94 4504.62Z" fill="black"/>
<path d="M2626.13 4133.32C2626.31 4130.61 2628.04 4127.27 2628.9 4124.59C2631.24 4117.22 2633.54 4109.82 2635.55 4102.35C2636.62 4098.39 2636.82 4094.42 2638.48 4090.65C2639.51 4093.58 2638.69 4094.95 2640.31 4097.39C2641.51 4097.71 2641.52 4097.58 2642.83 4097.55C2644.79 4096.62 2644.92 4096.12 2646.21 4094.25C2647.68 4094.92 2647.97 4094.89 2648.89 4096.22C2645.35 4097.89 2643.93 4100.48 2642.44 4104.16C2640.58 4108.99 2640.51 4114.27 2639.45 4119.27C2638.99 4121.44 2636.03 4122.71 2635.55 4124.88C2634.96 4127.52 2635.12 4130.98 2634.98 4133.52C2634.88 4135.32 2635.02 4139.16 2633.69 4140.03C2631.68 4141.35 2631.64 4143.59 2631.36 4145.73C2631.11 4148.21 2631.69 4148.19 2633.73 4149.23C2634.44 4150.58 2634.21 4150.88 2633.96 4152.4C2632.85 4153.02 2633.02 4152.93 2631.83 4153.33C2629.4 4157.91 2627.39 4161.39 2625.53 4166.32C2624.08 4170.15 2624.49 4178.79 2623.39 4180.38C2622.43 4179.75 2622.72 4179.99 2621.93 4179.07C2621.72 4176.57 2622.01 4174.51 2620.74 4172.79C2618.54 4172.71 2617.86 4173.63 2615.66 4174.94C2616.62 4169.44 2619.02 4170.34 2619.55 4165.51L2620.56 4165.5L2620.51 4169.48L2621.22 4169.78L2622.03 4169.46L2622.26 4170.42L2623.07 4170.68C2623.28 4170.11 2623.56 4169.77 2623.4 4169.16C2622.05 4163.92 2628.1 4157.6 2630.44 4152.89C2630.05 4150.69 2629.64 4148.53 2629.52 4146.21C2629.06 4137.3 2636 4128.78 2634.15 4120.14C2634.03 4119.59 2633.29 4119.62 2632.8 4119.51C2629.47 4121.6 2630.68 4134.18 2627.41 4137.09L2626.82 4136.79L2626.66 4133.58L2626.13 4133.32Z" fill="black"/>
<path d="M2866.8 4607.17C2879.54 4603.69 2886.42 4604.63 2898.94 4606.58C2902.75 4607.18 2906.29 4606.61 2910.51 4607.87C2910.01 4608 2909.51 4608.14 2909.01 4608.27C2912.78 4609.69 2919.22 4609.61 2923.07 4608.62L2922.43 4607.61C2925.66 4606.73 2931.28 4607.7 2934.75 4607.25C2936.97 4606.97 2938.69 4604.73 2941.17 4604.68C2942.45 4605.8 2941.89 4605.17 2942.58 4607.07C2935.49 4609.81 2929.17 4609.36 2921.67 4611.26L2924.04 4611.27C2919.76 4612.26 2914.37 4613.34 2910.08 4611.92C2907.87 4611.19 2906.16 4609.85 2903.58 4609.47C2892.46 4607.89 2878.93 4605.75 2868.02 4609.24C2864.77 4610.28 2866.17 4612.47 2860.63 4614.87C2859.01 4620.38 2857.51 4619.22 2855.73 4622.85C2852.2 4630.05 2853.65 4640.47 2855.25 4648.1C2864.72 4659.08 2869.67 4660.1 2884.15 4659.47C2884.03 4660.25 2883.91 4660.92 2883.75 4661.68C2880.42 4663.93 2879.52 4661.83 2876.49 4661.53C2869.54 4660.83 2863.22 4659.49 2857.93 4654.38C2854.08 4650.67 2849.1 4641.57 2849.32 4636C2849.8 4623.98 2859.3 4614.63 2866.8 4607.17Z" fill="black"/>
<path d="M2799.16 4628.39C2798.11 4628.16 2795.87 4627.89 2794.72 4627.73C2792.45 4622.7 2799.17 4619.44 2799.11 4618.46C2798.64 4610.52 2806.99 4607.99 2809.59 4602.19C2811.76 4597.36 2812.83 4600.4 2814.28 4597.94C2816.26 4594.58 2817.25 4590.31 2819.68 4587.21C2820.93 4585.71 2824.16 4588.32 2825.04 4589.58C2824.1 4598.6 2817.4 4607.04 2812 4614.17C2807.86 4619.62 2800.65 4621.34 2799.16 4628.39Z" fill="black"/>
<path d="M2646.85 4059.52C2648.94 4059.02 2652.69 4057.73 2654.42 4059.18C2658.4 4062.52 2655.19 4069.98 2651.41 4072.17C2649.61 4075.17 2650.41 4078.64 2648.92 4080.77L2647.45 4080.62L2647.28 4081.22L2647.74 4081.73C2651.58 4086.08 2649.76 4090.72 2648.89 4096.22C2647.97 4094.89 2647.68 4094.92 2646.21 4094.25C2647.63 4090.31 2647.68 4082.34 2643.69 4080.46C2640.17 4082.45 2639.87 4093.6 2640.31 4097.39C2638.69 4094.95 2639.51 4093.58 2638.48 4090.65C2639.97 4086.94 2639.47 4084.05 2640.25 4080.23C2640.65 4078.25 2643.33 4074.4 2643.77 4072.55C2644.96 4067.65 2645.21 4064.46 2646.85 4059.52Z" fill="black"/>
<path d="M2516.64 4718.38C2523.12 4712.18 2531.89 4711.53 2540.05 4709.2C2552.37 4705.69 2565.55 4706.92 2578.33 4707.68C2576.53 4708.07 2571.74 4707.82 2569.37 4707.94C2569.69 4707.98 2570 4708.01 2570.32 4708.05C2577.45 4711.41 2607.43 4708.13 2610.97 4710.23C2609.31 4710.07 2607.31 4709.64 2605.96 4710.41C2605.56 4710.95 2605.47 4711.23 2604.86 4711.57C2608.87 4712.46 2615.41 4711.63 2619.95 4712.02C2605.08 4712.92 2588.96 4713.04 2574.08 4711.91C2567.84 4711.44 2559.72 4708.19 2552.21 4708.56C2546.53 4708.84 2546.83 4711.21 2543.89 4712.08C2538.87 4713.57 2527.69 4712.77 2523.59 4716.27C2521.13 4718.38 2520.16 4718 2516.64 4718.38Z" fill="black"/>
<path d="M2615.66 4174.94C2617.86 4173.63 2618.54 4172.71 2620.74 4172.79C2622.01 4174.51 2621.72 4176.57 2621.93 4179.07C2620.21 4185.67 2620.05 4191.69 2618.66 4197.44L2618.19 4197.58L2617.55 4195.84L2617.15 4195.89C2616.08 4199.89 2614.87 4206.79 2614.57 4210.95L2609.04 4207.3L2608.71 4206.88L2608.13 4207.1C2608.05 4208.34 2608.01 4208.57 2607.71 4209.78L2607.36 4209.4C2607.15 4206.29 2609.53 4203.04 2609.92 4199.91C2610.39 4196.1 2609.88 4193.16 2611.54 4189.5C2615.35 4186.67 2615.23 4179.54 2615.66 4174.94Z" fill="black"/>
<path d="M2798.85 4608.95L2799.05 4609C2799.37 4608.65 2799.99 4604.64 2800.29 4603.47C2801.85 4602.71 2802.24 4603.07 2804.28 4603.2L2804.85 4602.41C2805.22 4597.65 2808.78 4594.09 2811.69 4590.26C2813.92 4589.9 2814.24 4590.08 2815.98 4588.51L2816.78 4590.09C2817.98 4589.17 2817.77 4586.01 2818.18 4585.71C2821.4 4583.49 2822.74 4581.58 2825.07 4578.56C2824.83 4584.35 2824.64 4583.9 2825.04 4589.58C2824.16 4588.32 2820.93 4585.71 2819.68 4587.21C2817.25 4590.31 2816.26 4594.58 2814.28 4597.94C2812.83 4600.4 2811.76 4597.36 2809.59 4602.19C2806.99 4607.99 2798.64 4610.52 2799.11 4618.46C2799.17 4619.44 2792.45 4622.7 2794.72 4627.73C2795.87 4627.89 2798.11 4628.16 2799.16 4628.39C2797.14 4628.7 2795.1 4628.96 2793.07 4629.18C2793.07 4630.13 2793.06 4630.67 2792.96 4631.63C2791.93 4631.74 2792.41 4631.86 2791.52 4631.2C2790.85 4628.54 2793.44 4623.53 2794.45 4620.65C2793.53 4619.65 2793.55 4619.77 2792.33 4619.18L2792.2 4617.42L2794.82 4617.76C2798.1 4615.89 2796.11 4613.73 2797.29 4609.51L2798.85 4608.95Z" fill="black"/>
<path d="M2626.13 4133.32L2626.66 4133.58L2626.82 4136.79L2627.41 4137.09C2630.68 4134.18 2629.47 4121.6 2632.8 4119.51C2633.29 4119.62 2634.03 4119.59 2634.15 4120.14C2636 4128.78 2629.06 4137.3 2629.52 4146.21C2629.64 4148.53 2630.05 4150.69 2630.44 4152.89C2628.1 4157.6 2622.05 4163.92 2623.4 4169.16C2623.56 4169.77 2623.28 4170.11 2623.07 4170.68L2622.26 4170.42L2622.03 4169.46C2621.96 4167.85 2622.12 4165.21 2621.34 4164.14L2620.56 4165.5L2619.55 4165.51C2620.06 4157.44 2622.33 4152.72 2624.48 4145.19C2625.31 4142.31 2625.82 4136.48 2626.13 4133.32Z" fill="black"/>
<path d="M2669.23 4004.13L2670.21 4004.5C2670.15 4006.29 2669.91 4007.65 2670.6 4009.29C2671.48 4007.94 2671.41 4006.01 2671.53 4004.32C2671.82 4005.83 2672.24 4007.08 2671.87 4008.55C2671.79 4007.12 2671.67 4007.79 2672.47 4006.58C2673.08 4006.64 2673.45 4006.69 2674.07 4006.67C2673.72 4008.14 2673.52 4008.92 2672.35 4009.99C2669.81 4012.28 2669.8 4016.04 2669.43 4019.53C2668 4020.86 2666.93 4021.76 2665.91 4023.37C2664.73 4025.22 2665.16 4033.58 2663.32 4034.19C2656.72 4036.36 2660.91 4046.99 2658.11 4049.67C2656.96 4046.84 2658.98 4042.68 2656.79 4036.98C2656.23 4039.52 2656.38 4042.42 2656.37 4045.06L2655.72 4044.98C2655.54 4043.89 2655.34 4038.52 2655.63 4037.79C2656.99 4034.29 2659.96 4021.06 2661.82 4018.77L2663.85 4018.58C2665.44 4016.13 2664.96 4008.44 2667.41 4007.52L2667.78 4009.65L2668.33 4009.86C2669.15 4008.29 2669.08 4006.04 2669.23 4004.13Z" fill="black"/>
<path d="M2381.08 4472.89L2379.99 4472.82C2368.36 4464.75 2380.87 4438.48 2384.53 4427.88C2386.97 4420.8 2411.07 4387.21 2416.99 4385.86C2413.17 4393.53 2407.6 4393 2404.53 4402.17C2399.35 4405.16 2397.24 4413.96 2391.48 4417.64C2389.7 4424.3 2388.26 4422.64 2386.89 4426.01C2384.74 4431.29 2383.27 4439.09 2380.84 4444.67C2380.31 4446.28 2379.82 4451.48 2379.74 4453.24C2378.97 4453.99 2378.52 4454.44 2377.69 4455.12C2375.43 4461.72 2376.59 4462.86 2379.77 4468.31C2380.08 4469.92 2380.21 4471.6 2381.08 4472.89Z" fill="black"/>
<path d="M2377.4 4689.28C2378.97 4689.32 2379.12 4689.35 2380.66 4689.71C2379.91 4690.58 2380.27 4690.14 2379.59 4691.04C2383.97 4693.35 2390.04 4694.18 2383.08 4700.47C2382.28 4701.19 2381.82 4707.77 2381.64 4709.35C2379.52 4710.44 2373.9 4707.75 2370.55 4707.11L2371.52 4699.65C2376.63 4695.9 2374.65 4695.51 2377.18 4689.76L2377.4 4689.28Z" fill="black"/>
<path d="M2885.52 4464.82C2885.84 4463.04 2885.55 4460.89 2884.41 4459.46C2879.28 4456.26 2866.45 4463.4 2861.82 4458.89C2862.03 4456.07 2864.52 4452.11 2865.97 4449.6C2867.25 4448.93 2869.26 4449.12 2870.81 4449.11C2873.09 4449.78 2874.24 4449.53 2875.14 4451.84C2871.24 4451.61 2868.27 4449.18 2865.35 4454.19C2865.49 4459.57 2876.94 4457.68 2880.13 4455.53V4454.97C2878.47 4454.23 2878.32 4454.53 2877.78 4453.28L2878.42 4452.4L2880.04 4452.38C2882.94 4452.81 2886.21 4453.24 2889.06 4453.81C2889.27 4455.77 2889.28 4458.21 2890.33 4459.79C2891.23 4460.23 2891.44 4460.33 2892.42 4460.7C2892.79 4462.09 2892.89 4461.47 2892.48 4462.65L2891.5 4460.49L2890.66 4460.45L2890.06 4461.16L2890.52 4462.43L2889.83 4463.33C2891.36 4463.27 2891.87 4463.15 2893.38 4463.42L2894 4464.1C2890.43 4464.71 2888.48 4463.6 2885.52 4464.82Z" fill="black"/>
<path d="M2465.17 4779.9C2467.28 4786.53 2464.43 4798.63 2464.52 4805.78C2464.59 4811.82 2464.48 4817.96 2464.77 4824.02C2464.79 4825.78 2462.74 4831.07 2462.81 4834.63C2462.91 4840.03 2464.25 4843.72 2464.65 4849C2464.84 4851.6 2462.82 4857.54 2463.05 4859.39C2463.67 4864.56 2465.05 4865.25 2464.21 4871C2463.99 4870.92 2464.17 4870.95 2463.45 4871.04C2463.15 4873.49 2463.17 4874.17 2462.22 4876.38C2462.02 4872.77 2462.05 4869.23 2461.71 4865.66C2460.75 4861.28 2460.76 4857.01 2461.94 4852.67L2462.56 4850.18L2463.88 4850.53L2463.3 4850.8L2463.6 4851.34C2464.68 4849.08 2464.24 4845.12 2462.59 4843.13L2462.11 4843.47C2462.11 4845.75 2462.07 4848.03 2461.99 4850.31C2461.41 4845.34 2460.48 4836.59 2461.3 4831.84C2462.9 4822.47 2460.01 4803.67 2462.71 4795.44C2464.32 4802.66 2461.44 4819.03 2463.29 4825.11L2463.7 4825.17C2463.75 4825.02 2464.05 4824.28 2464.05 4823.86C2464.09 4814.56 2464.47 4805.18 2463.95 4795.9C2463.6 4795.39 2463.24 4794.88 2462.89 4794.37C2465.53 4791.21 2465.1 4784.15 2465.17 4779.9Z" fill="black"/>
<path d="M2412.5 4645.98L2413.07 4646.08L2412.99 4647.14C2415.14 4648.11 2415.82 4646.58 2418.13 4647.48L2418.11 4647.97L2415.44 4648.23C2414.11 4649.51 2414.88 4650.44 2413.73 4652.35L2411.86 4651.45C2409.48 4652.5 2410.32 4654.93 2409.34 4657.41L2405.77 4657.46C2404.38 4658.36 2404.64 4659.59 2404.06 4661.86C2403.23 4662.1 2402.85 4662.19 2401.98 4662.34L2401.25 4662.46C2400.05 4663.66 2400.15 4664.56 2399.9 4666.28L2399.81 4666.97C2398.76 4668.26 2398.25 4667.92 2396.1 4668.31C2394.64 4669.63 2394.79 4670.68 2394.24 4672.88L2393.43 4673.14L2392.88 4671.36L2392.23 4671.35C2390.58 4673.89 2388.81 4676.36 2386.93 4678.74C2385.51 4680.57 2384.92 4681.78 2382.75 4682.05C2381.65 4681.26 2382.02 4681.81 2381.51 4680.5L2381.95 4679.98L2383.74 4680.34C2387.26 4678.72 2386.09 4674.78 2388.32 4672.48C2388.32 4674 2388.24 4674.16 2388.57 4675.66C2390.44 4673.22 2390.94 4668.78 2392.94 4665.83C2394.79 4663.12 2398.84 4662.7 2400.06 4660.79C2398.67 4660.8 2398.52 4660.88 2397.21 4660.5L2397.6 4659.7C2402.1 4658.95 2404.42 4652.99 2407.98 4650C2408.63 4649.46 2411.49 4650.95 2413.45 4649.67L2413.12 4648.95C2412.12 4648.91 2411.11 4648.87 2410.11 4648.82C2411.97 4647.33 2411.77 4647.92 2412.5 4645.98Z" fill="black"/>
<path d="M2382.6 4727.91C2385.2 4727.59 2387.53 4728.08 2390.21 4728.01C2403.21 4727.7 2415.91 4731.2 2428.77 4727.97C2436.89 4725.93 2447.28 4726.66 2455.72 4727.14L2455.51 4727.75C2448.31 4728.25 2439.54 4728.71 2432.29 4729.61C2431.6 4729.69 2430.2 4730.97 2430.04 4731.05C2426.54 4732.67 2413.29 4732.27 2409.5 4731.98C2408.43 4731.67 2407.32 4731.31 2406.25 4730.98L2406.09 4730.65C2404.27 4729.11 2392.7 4729.6 2389.69 4729.6C2387.32 4729.07 2384.95 4728.5 2382.6 4727.91Z" fill="black"/>
<path d="M2725.42 4589.17C2728.62 4588.23 2730.55 4587.47 2733.91 4587.56C2735.18 4589.01 2734.78 4588.56 2735.13 4590.76L2734.9 4591.49C2736.99 4592.39 2737.81 4592.65 2740.1 4592.76C2738.03 4594.36 2736.7 4594.47 2735.77 4596.99C2735.76 4594.46 2736.2 4594.57 2734.96 4593.03C2731.11 4591.93 2727.36 4597.38 2724.97 4600.12C2724.72 4601.33 2724.59 4601.75 2724.49 4602.96C2722.41 4600.81 2721.79 4601.71 2719.1 4601.37C2719.38 4600.45 2720.38 4597.01 2720.84 4596.45C2723.9 4592.66 2724.32 4593.99 2725.42 4589.17Z" fill="black"/>
<path d="M2721.06 4675.05L2721.88 4675.06C2725.95 4675.11 2725.88 4675.37 2729.47 4677.16C2734.08 4677.08 2734.53 4675.37 2739.55 4674.9C2735.18 4678.47 2732.43 4678.76 2727.52 4681.05L2727.69 4681.12C2724.59 4682.62 2723.42 4682.57 2720.16 4683.17C2721.08 4682.03 2721.18 4682.1 2721.37 4680.69L2720.38 4679.76C2714.19 4678.31 2710.62 4682.06 2707.51 4681.67C2706.43 4681.24 2706 4681.11 2704.89 4680.87L2703.89 4680.66L2704.13 4679.99C2709.83 4678.19 2718.19 4677.84 2724.28 4676.96C2723.62 4676.34 2722.07 4676.79 2720.47 4675.66L2721.06 4675.05Z" fill="black"/>
<path d="M2640.31 4097.39C2639.87 4093.6 2640.17 4082.45 2643.69 4080.46C2647.68 4082.34 2647.63 4090.31 2646.21 4094.25C2644.92 4096.12 2644.79 4096.62 2642.83 4097.55C2641.52 4097.58 2641.51 4097.71 2640.31 4097.39Z" fill="black"/>
<path d="M2471.48 4839.76C2471.51 4837.55 2472.09 4833.95 2472.22 4831.64C2472.44 4827.4 2470.63 4803.48 2472.93 4801.69L2473.41 4802.62C2473.56 4801.97 2474.32 4800.32 2474.62 4799.62C2473.8 4807.07 2475.17 4834.57 2473.42 4837.54C2471.74 4838.75 2472.31 4838 2471.48 4839.76Z" fill="black"/>
<path d="M2431.31 4628.53L2437.13 4628.23L2436.82 4627.95L2436.46 4628.12L2436.98 4628.05L2436.07 4627.28L2436.02 4626.16C2437.13 4624.38 2437.51 4624.36 2439.5 4623.41C2443.82 4624.12 2448.06 4625.24 2452.16 4626.78C2454.3 4627.57 2454.41 4626.65 2455.82 4626.88L2455.54 4627.84C2454.77 4628.23 2453.08 4628.96 2452.29 4629.01C2449.55 4629.19 2449.24 4631.81 2447.31 4632.6L2446.98 4632.23C2447.67 4630.85 2448.24 4629.78 2449.02 4628.46L2448.25 4627.57L2447.74 4627.87C2447.69 4629.79 2448.09 4629.32 2447.18 4630.2C2447.02 4629.37 2446.87 4628.55 2446.73 4627.72C2444.98 4627.24 2439.84 4628.05 2438.64 4629.47C2435.81 4629.93 2434.09 4629.24 2431.31 4628.53Z" fill="black"/>
<path d="M2944.1 4627.43L2945.66 4628.45C2944.18 4629.6 2944.21 4631.18 2942.64 4633.27C2938.94 4633.65 2939.7 4634.22 2938.42 4637.54C2937.67 4637.21 2937.43 4636.97 2936.8 4636.44L2935.88 4636.61C2934.75 4638.11 2933.65 4640.23 2932.71 4641.9C2930.82 4640.75 2929.49 4641.7 2926.2 4641.2L2925.82 4640.52C2928.15 4639.59 2929.87 4640.98 2932.45 4640.35L2932.46 4640.01C2931.23 4639.57 2930.77 4639.43 2929.59 4638.82C2932.67 4634.83 2934.03 4633.5 2938.82 4632.45C2939.23 4630.96 2939.47 4629.87 2940.16 4628.46C2941.46 4628.09 2942.78 4627.74 2944.1 4627.43Z" fill="black"/>
<path d="M2878.42 4452.4L2877.78 4453.28C2878.32 4454.53 2878.47 4454.23 2880.13 4454.97V4455.53C2876.94 4457.68 2865.49 4459.57 2865.35 4454.19C2868.27 4449.18 2871.24 4451.61 2875.14 4451.84L2875.66 4451.46C2876.53 4451.77 2877.55 4452.19 2878.42 4452.4Z" fill="black"/>
<path d="M2896.58 4655.07C2899.67 4654.96 2904.19 4654.72 2907.1 4655.64L2907.43 4656.39L2906.86 4656.81C2905.13 4656.9 2902.71 4656.84 2901.19 4657.5L2901.9 4657.54C2899.26 4658.21 2897.83 4659.52 2898.17 4662.44C2900.36 4666.74 2904.77 4664.81 2909.08 4665.76L2908.83 4666.06C2905.84 4666.12 2902.58 4666.04 2899.68 4666.7C2899.04 4667.38 2899.3 4666.98 2898.93 4667.91L2898.26 4667.99C2897.57 4664.97 2898.87 4663.72 2895.59 4660.36C2891.01 4658.52 2892.11 4659.78 2888.36 4659.02C2891.12 4657.57 2893.08 4659.26 2895.96 4657.62C2896.44 4656.29 2896.36 4656.48 2896.58 4655.07Z" fill="black"/>
<path d="M2369.79 4441.75C2369.36 4443.56 2369.07 4444.49 2369.21 4446.36C2369.53 4450.56 2365.83 4459.06 2367.31 4462.74C2368.1 4463.12 2369.12 4463.29 2369.14 4464.15C2369.21 4467.29 2370.25 4474.72 2369.75 4477.39L2369.14 4475.42L2367.93 4474.92C2365.76 4470.96 2366.74 4451.33 2366.95 4445.5C2367.84 4444.07 2368.73 4443.05 2369.79 4441.75Z" fill="black"/>
<path d="M2980.27 4611.74L2980.45 4610.46C2981.54 4609.85 2982.14 4609.8 2983.36 4609.51L2983.95 4610.12C2983.77 4612.35 2983.44 4613.69 2982.96 4615.9C2980.26 4616.78 2979.3 4617.22 2978.35 4619.83C2976.91 4620.38 2977.11 4620.1 2975.3 4619.61L2975.06 4620.23C2976.44 4621.55 2976.81 4621.68 2978.43 4622.56L2974.5 4622.45C2974 4622.03 2973.91 4621.65 2973.56 4621.01C2974 4618.92 2975.12 4615.65 2975.78 4613.51C2977.62 4613.2 2978.49 4612.96 2980.29 4612.41L2980.81 4612.92C2980.74 4614.07 2980.72 4614.54 2980.81 4615.69L2981.41 4615.82C2982.5 4614.18 2982.7 4612.97 2981.94 4611.11L2980.27 4611.74Z" fill="black"/>
<path d="M2900.72 4592.33L2903.42 4591.71C2903.58 4591.24 2903.73 4590.76 2903.89 4590.29C2907.8 4589.27 2921.22 4588.86 2924.62 4590.59C2925.92 4592.38 2925.5 4591.81 2928.42 4592.36C2927.45 4592.48 2917.48 4592.2 2915.71 4592.12C2911.19 4591.91 2904.62 4592.64 2900.72 4592.33Z" fill="black"/>
<path d="M2720.24 4243.55C2725.89 4240.06 2741.17 4240.28 2748.17 4240.46C2746.67 4240.97 2747.16 4240.48 2746.43 4241.69L2745.98 4241.56C2747.2 4242.52 2748.23 4241.71 2749.36 4242.51C2739.19 4242.78 2730.44 4242.69 2720.24 4243.55Z" fill="black"/>
<path d="M2609.04 4207.3L2614.57 4210.95C2614.11 4215.28 2614.59 4216.26 2611.24 4219.26C2611.23 4217 2611.43 4216.1 2609.64 4214.56C2606.91 4214.31 2607.38 4214.87 2604.82 4215.66C2605.23 4214.4 2605.36 4214.32 2606.11 4213.2C2607.28 4212.72 2608.19 4212.31 2609.33 4211.76C2609.96 4210.37 2609.38 4208.9 2609.04 4207.3Z" fill="black"/>
<path d="M2655.73 4049.98C2655.8 4052.07 2655.24 4052.68 2653.82 4054.15C2652.23 4054.46 2653 4054.56 2651.47 4053.67C2649.85 4051.13 2648.98 4048.42 2651.35 4045.8C2652.51 4044.52 2654.1 4044.94 2655.72 4044.98C2655.74 4047.06 2655.77 4047.43 2655.32 4049.44L2655.73 4049.98Z" fill="black"/>
<path d="M2430.51 4629.89L2433.58 4630.21L2431.31 4630.63C2431.25 4631.4 2431.15 4631.12 2431.35 4631.52L2431.48 4633.35C2430.19 4634.29 2430.2 4635.53 2429.36 4637.02C2428.1 4637.14 2428.01 4637.09 2426.77 4636.88C2424 4641.78 2423.81 4641.81 2418.18 4641.11L2418.11 4640.64C2422.56 4638.46 2425.06 4636.3 2428.71 4633.13C2430.78 4631.33 2430.16 4633.04 2430.51 4629.89Z" fill="black"/>
<path d="M2719.1 4601.37C2721.79 4601.71 2722.41 4600.81 2724.49 4602.96C2722.63 4604.6 2721.42 4603.54 2719.99 4605.34C2719.62 4607.12 2719.43 4608.33 2719.22 4610.13L2718.58 4610.42L2718.26 4607.88L2717.58 4607.64L2716.81 4609.5L2714.64 4609.1C2715.25 4606.39 2715.45 4603.36 2718.45 4602.54L2719.1 4601.37Z" fill="black"/>
<path d="M2455.72 4727.14L2456.86 4726.08C2455.94 4726.05 2455.71 4726.2 2454.93 4725.75C2458.61 4725 2469.5 4722.68 2470.5 4727.58C2465.13 4727.48 2460.89 4727.13 2455.51 4727.75L2455.72 4727.14Z" fill="black"/>
<path d="M2462.71 4795.44L2462.89 4794.37C2463.24 4794.88 2463.6 4795.39 2463.95 4795.9C2464.47 4805.18 2464.09 4814.56 2464.05 4823.86C2464.05 4824.28 2463.75 4825.02 2463.7 4825.17L2463.29 4825.11C2461.44 4819.03 2464.32 4802.66 2462.71 4795.44Z" fill="black"/>
<path d="M2610.97 4710.23L2611.52 4710.71C2612.73 4710.79 2625.14 4709.98 2626.28 4709.69C2623.66 4711.59 2623.12 4712.16 2619.95 4712.02C2615.41 4711.63 2608.87 4712.46 2604.86 4711.57C2605.47 4711.23 2605.56 4710.95 2605.96 4710.41C2607.31 4709.64 2609.31 4710.07 2610.97 4710.23Z" fill="black"/>
<path d="M2443.33 4714.38C2445.26 4714.26 2447.41 4713.88 2449.05 4714.75C2449.42 4716.2 2449.41 4715.43 2448.41 4717.15C2444.11 4715.81 2432.83 4717.25 2427.68 4717.5C2430 4716.87 2430.34 4716.64 2432.36 4715.31C2434.36 4715.83 2442.99 4715.72 2444.87 4714.97L2443.33 4714.38Z" fill="black"/>
<path d="M2714.64 4609.1L2716.81 4609.5L2717.58 4607.64L2718.26 4607.88L2718.58 4610.42L2719.22 4610.13C2718.68 4613.83 2716.35 4610.87 2715.03 4612.91C2714.69 4613.44 2714.82 4616.23 2713.64 4617.55C2712.76 4615.72 2713.99 4614.12 2713.71 4611.26L2712.89 4610.9C2711.87 4613.22 2713.24 4615.55 2712.04 4618.06C2711.33 4616.56 2711.57 4613.15 2711.55 4611.29C2712.45 4609.59 2712.35 4610.07 2714.64 4609.1Z" fill="black"/>
<path d="M2831.27 4602.04C2831.1 4597.5 2830.64 4593.26 2831.89 4588.89C2832.51 4588.23 2832.71 4587.99 2833.27 4587.24L2833.74 4586.59C2833.75 4590.62 2834.77 4599.62 2831.27 4602.04Z" fill="black"/>
<path d="M2710.41 4232.9C2710.34 4230.91 2710 4231.66 2711.09 4230.41C2713.7 4229.59 2716.54 4229.98 2719.33 4230.11C2721.64 4230.59 2723.25 4230.59 2725.61 4230.6C2724.29 4231.64 2723.94 4231.6 2722.33 4232.21C2717.95 4232.29 2714.73 4232.52 2710.41 4232.9Z" fill="black"/>
<path d="M2379.77 4468.31C2376.59 4462.86 2375.43 4461.72 2377.69 4455.12C2378.52 4454.44 2378.97 4453.99 2379.74 4453.24C2379.13 4458.81 2379.24 4462.7 2379.77 4468.31Z" fill="black"/>
<path d="M3057.48 4589.5L3058.39 4589.36C3061.28 4588.92 3060.22 4588.1 3063.8 4588.5L3064.22 4589.95C3062.44 4592.44 3060.2 4595 3059.65 4597.89C3059.7 4595.97 3059.81 4594.7 3059.53 4592.8C3057.84 4591.97 3056.5 4592.43 3054.38 4592.58L3054.57 4591.98C3057.14 4591.9 3058.15 4591.7 3060.5 4590.51L3060.2 4589.96L3057.48 4589.5Z" fill="black"/>
<path d="M2950.04 4629.08C2951.71 4634.21 2953.37 4638.99 2952.92 4644.49L2952.09 4644.11C2951.47 4644.89 2951.81 4644.49 2951.05 4645.29C2950.02 4642.89 2950.02 4632.14 2950.04 4629.08Z" fill="black"/>
<path d="M2896.58 4655.07C2899.95 4653.17 2904.78 4653.75 2906.43 4651.38L2906.11 4650.29L2908.97 4650.67L2909.32 4651.21C2907.84 4653.03 2907.56 4653.35 2907.1 4655.64C2904.19 4654.72 2899.67 4654.96 2896.58 4655.07Z" fill="black"/>
<path d="M2741.33 4619.36L2742.21 4621.41L2741.91 4621.01L2742.45 4620.97C2742.55 4619.07 2742.57 4617.2 2742.98 4615.35C2743.88 4619.76 2744.44 4635.02 2743.5 4639.09C2743.12 4631.4 2741.79 4625.95 2741.33 4619.36Z" fill="black"/>
<path d="M2885.52 4464.82C2888.48 4463.6 2890.43 4464.71 2894 4464.1C2894.26 4465.39 2894.44 4465.53 2894.04 4466.75C2891.69 4467.89 2887.47 4467.78 2885.56 4466.09L2885.52 4464.82Z" fill="black"/>
<path d="M2444.86 4634.72L2445.36 4634.93L2444.8 4635.8C2438.29 4638.56 2441.96 4642.9 2434.19 4641C2434.04 4640.43 2434.04 4640.76 2434.44 4640.03C2437.1 4640.17 2440.11 4638.67 2441.56 4636.47L2440.39 4635.78L2440.58 4635.18C2442.48 4635.27 2443.05 4635.3 2444.86 4634.72Z" fill="black"/>
<path d="M2906.11 4650.29C2910.56 4649.15 2911.79 4649.52 2916.18 4650.47C2912.05 4653.18 2910.72 4650.48 2907.43 4656.39L2907.1 4655.64C2907.56 4653.35 2907.84 4653.03 2909.32 4651.21L2908.97 4650.67L2906.11 4650.29Z" fill="black"/>
<path d="M2655.72 4044.98L2656.37 4045.06C2656.38 4042.42 2656.23 4039.52 2656.79 4036.98C2658.98 4042.68 2656.96 4046.84 2658.11 4049.67L2655.73 4049.98L2655.32 4049.44C2655.77 4047.43 2655.74 4047.06 2655.72 4044.98Z" fill="black"/>
<path d="M2790.78 4617.73C2796.72 4615.58 2792.91 4608.77 2798.85 4608.95L2797.29 4609.51C2796.11 4613.73 2798.1 4615.89 2794.82 4617.76L2792.2 4617.42L2790.78 4617.73Z" fill="black"/>
<path d="M2971.61 4620.2L2973.56 4621.01C2973.91 4621.65 2974 4622.03 2974.5 4622.45L2974.46 4623.12C2973.69 4623.86 2973.96 4623.6 2973.59 4624.77C2975.44 4625.9 2980.42 4624.8 2982.55 4626.15L2982.31 4626.66C2980.04 4627.28 2975.24 4626.95 2973.09 4626.13C2972.59 4625.94 2971.81 4621.17 2971.61 4620.2Z" fill="black"/>
<path d="M2708.95 4464.58C2712.46 4464.97 2713.3 4464.89 2716.75 4464.56C2715.29 4464.95 2715.75 4464.63 2714.76 4465.61C2715.51 4465.83 2717.27 4466.2 2717.79 4466.63C2714.68 4467.34 2710.1 4467.81 2707.28 4466.11L2707.27 4465.36L2708.95 4464.58Z" fill="black"/>
<path d="M2412.5 4645.98C2413.95 4644.1 2415.3 4644.71 2417.5 4645.1L2418.38 4644.7L2418.05 4644.09L2415.43 4643.6C2416.19 4642.02 2418.85 4643.09 2420.68 4642.1L2421.45 4642.33C2420.7 4644.05 2420.02 4644.23 2419.28 4646.37C2417.69 4647.2 2415.17 4646.41 2413.07 4646.08L2412.5 4645.98Z" fill="black"/>
<path d="M2431.35 4631.52C2434.14 4631.8 2436.57 4631.88 2439.22 4632.79L2439.66 4634.09L2439.33 4634.72C2436.89 4635.08 2433.83 4634.12 2431.48 4633.35L2431.35 4631.52Z" fill="black"/>
<path d="M2389.69 4729.6C2392.7 4729.6 2404.27 4729.11 2406.09 4730.65L2406.25 4730.98C2403.83 4730.97 2394.17 4730.26 2392.95 4730.77L2392.81 4731.29C2392.24 4731.23 2390.31 4729.96 2389.69 4729.6Z" fill="black"/>
<path d="M2707.07 4544.72C2705.9 4544.49 2704.94 4544.3 2703.79 4544.02L2704.14 4543.02L2702.76 4541.02L2703.03 4540.46C2705.09 4540.78 2706.56 4541.12 2708.59 4541.62L2707.07 4544.72Z" fill="black"/>
<path d="M2576.06 4362.75C2576.62 4360.85 2576.19 4355.99 2577.92 4355.01C2578.82 4356.66 2578.75 4357.94 2578.9 4359.82L2579.1 4360.94C2578.14 4362.28 2577.35 4361.83 2576.06 4362.75Z" fill="black"/>
<path d="M2392.81 4731.29L2392.95 4730.77C2394.17 4730.26 2403.83 4730.97 2406.25 4730.98C2407.32 4731.31 2408.43 4731.67 2409.5 4731.98C2405.06 4731.97 2396.97 4732.05 2392.81 4731.29Z" fill="black"/>
<path d="M2733.91 4587.56L2734.76 4586.43C2733.76 4585.68 2733.2 4586.13 2731.48 4586.36L2731.43 4585.52C2733.26 4584.27 2736.4 4584.43 2738.25 4585.57L2738.35 4586.78C2737.1 4586.88 2737.47 4586.88 2736.26 4586.67C2735.33 4588.18 2735.36 4589.02 2735.13 4590.76C2734.78 4588.56 2735.18 4589.01 2733.91 4587.56Z" fill="black"/>
<path d="M2481.58 4450.36C2484.15 4449.87 2485.09 4449.8 2487.72 4449.76C2489.95 4450.06 2492.57 4450.34 2494.74 4450.78L2493.96 4450.77C2490.58 4450.76 2488.59 4452.24 2487.05 4452.16C2484.71 4451.13 2484.07 4450.83 2481.58 4450.36Z" fill="black"/>
<path d="M2750.45 4240.11C2752.6 4240.5 2753.06 4240.22 2754.46 4241.42L2754.09 4242.76C2752.62 4242.76 2750.87 4242.6 2749.36 4242.51C2748.23 4241.71 2747.2 4242.52 2745.98 4241.56L2746.43 4241.69C2747.16 4240.48 2746.67 4240.97 2748.17 4240.46L2750.45 4240.11Z" fill="black"/>
<path d="M2999.88 4592.63C3001.7 4593.62 3001.05 4592.89 3001.75 4595L2999.82 4595.47C2995.94 4595.76 2995.95 4599.47 2995.2 4602.86L2994.21 4602.3C2995.87 4594.39 2997.8 4596.3 2999.88 4592.63Z" fill="black"/>
<path d="M2432.73 4642.02C2433.72 4642.26 2434.71 4642.49 2435.71 4642.7L2435.47 4642.97C2435.25 4644.41 2433.23 4645.94 2431.95 4647.23C2430.04 4646.72 2430.71 4647.24 2429.61 4646C2430.54 4645.05 2431.66 4644.54 2432.82 4643.89L2432.73 4642.02Z" fill="black"/>
<path d="M2461.99 4850.31C2462.07 4848.03 2462.11 4845.75 2462.11 4843.47L2462.59 4843.13C2464.24 4845.12 2464.68 4849.08 2463.6 4851.34L2463.3 4850.8L2463.88 4850.53L2462.56 4850.18L2461.94 4852.67L2461.99 4850.31Z" fill="black"/>
<path d="M2639.7 4449.64C2642.82 4449.61 2651.11 4449.74 2654.08 4450.31C2650.99 4452.31 2648.43 4450.07 2644.98 4451.45L2644.36 4450.51C2642.81 4450.19 2641.26 4449.9 2639.7 4449.64Z" fill="black"/>
<path d="M2831.59 4566.74C2832.62 4565.16 2832.49 4563.1 2832.6 4561.16L2833.24 4560.83C2833.59 4564.44 2833.89 4567.76 2834.08 4571.37C2833.13 4568.45 2831.81 4569.23 2831.59 4566.74Z" fill="black"/>
<path d="M2461.71 4865.66C2462.05 4869.23 2462.02 4872.77 2462.22 4876.38C2463.17 4874.17 2463.15 4873.49 2463.45 4871.04C2464.17 4870.95 2463.99 4870.92 2464.21 4871C2464.23 4872.79 2464.33 4874.74 2464.18 4876.52C2461.86 4875.6 2464.51 4877.15 2461.97 4877.37C2461.14 4875.4 2461.6 4868.07 2461.71 4865.66Z" fill="black"/>
<path d="M2995.2 4602.86C2995.95 4599.47 2995.94 4595.76 2999.82 4595.47L2999.84 4595.98C2997.4 4597.74 2997.37 4598.98 2996.78 4601.98L2996.53 4602.63L2995.2 4602.86Z" fill="black"/>
<path d="M2870.81 4449.11C2874.51 4449.19 2879.22 4449.65 2882.8 4450.55C2880.39 4451.2 2879.39 4450.94 2876.88 4450.7C2876.34 4450.98 2876.06 4451.04 2875.66 4451.46L2875.14 4451.84C2874.24 4449.53 2873.09 4449.78 2870.81 4449.11Z" fill="black"/>
<path d="M2432.36 4715.31C2436.32 4714.35 2439.24 4714.47 2443.33 4714.38L2444.87 4714.97C2442.99 4715.72 2434.36 4715.83 2432.36 4715.31Z" fill="black"/>
<path d="M2830.54 4559.15C2831.29 4559.42 2832.05 4559.68 2832.81 4559.91L2833.24 4560.83L2832.6 4561.16C2832.49 4563.1 2832.62 4565.16 2831.59 4566.74C2831.41 4564.41 2830.89 4561.51 2830.54 4559.15Z" fill="black"/>
<path d="M2430.51 4629.89L2431.31 4628.53C2434.09 4629.24 2435.81 4629.93 2438.64 4629.47L2438.77 4632.16C2437.14 4631.22 2435.38 4630.77 2433.58 4630.21L2430.51 4629.89Z" fill="black"/>
<path d="M2654.08 4450.31L2654.26 4450.96C2653.66 4451.64 2653.28 4451.8 2653.2 4452.44C2650.12 4452.35 2647.88 4452.48 2644.98 4451.45C2648.43 4450.07 2650.99 4452.31 2654.08 4450.31Z" fill="black"/>
<path d="M2479.26 4452.31L2479.22 4452.24C2479.53 4451.52 2480.77 4450.9 2481.58 4450.36C2484.07 4450.83 2484.71 4451.13 2487.05 4452.16C2484.45 4452.37 2481.87 4452.31 2479.26 4452.31Z" fill="black"/>
<path d="M2882.8 4450.55C2882.12 4451.94 2881.77 4452.06 2880.04 4452.38L2878.42 4452.4C2877.55 4452.19 2876.53 4451.77 2875.66 4451.46C2876.06 4451.04 2876.34 4450.98 2876.88 4450.7C2879.39 4450.94 2880.39 4451.2 2882.8 4450.55Z" fill="black"/>
<path d="M2433.58 4630.21C2435.38 4630.77 2437.14 4631.22 2438.77 4632.16L2439.22 4632.79C2436.57 4631.88 2434.14 4631.8 2431.35 4631.52C2431.15 4631.12 2431.25 4631.4 2431.31 4630.63L2433.58 4630.21Z" fill="black"/>
<path d="M3054.57 4591.98C3055.8 4590.43 3055.86 4590.49 3057.48 4589.5L3060.2 4589.96L3060.5 4590.51C3058.15 4591.7 3057.14 4591.9 3054.57 4591.98Z" fill="black"/>
<path d="M2996.78 4601.98C2997.37 4598.98 2997.4 4597.74 2999.84 4595.98C2999.37 4597.84 2998.44 4600.36 2997.86 4602.41L2997.22 4602.64L2996.78 4601.98Z" fill="black"/>
<path d="M2620.56 4165.5L2621.34 4164.14C2622.12 4165.21 2621.96 4167.85 2622.03 4169.46L2621.22 4169.78L2620.51 4169.48L2620.56 4165.5Z" fill="black"/>
<path d="M2994.21 4602.3L2995.2 4602.86C2994.79 4603.31 2994.38 4603.76 2993.97 4604.2C2992.87 4605.36 2992.59 4605.83 2991.27 4605.86C2991.6 4604.32 2992.97 4603.43 2994.21 4602.3Z" fill="black"/>
<path d="M2980.27 4611.74L2981.94 4611.11C2982.7 4612.97 2982.5 4614.18 2981.41 4615.82L2980.81 4615.69C2980.72 4614.54 2980.74 4614.07 2980.81 4612.92L2980.29 4612.41L2980.27 4611.74Z" fill="black"/>
<path d="M2670.21 4004.5L2671.53 4004.32C2671.41 4006.01 2671.48 4007.94 2670.6 4009.29C2669.91 4007.65 2670.15 4006.29 2670.21 4004.5Z" fill="black"/>
</svg>
