<svg width="6900" height="5209" viewBox="0 0 6900 5209" fill="none" xmlns="http://www.w3.org/2000/svg">
<path d="M3949.56 4370.4C3951.54 4367.41 3955.37 4364.28 3958.48 4362.56C3960.48 4362.88 3959.83 4362.74 3961.55 4364.45C3962.53 4363 3964.83 4358.88 3966.01 4358.19C3976.76 4352 3989.04 4348.69 4000.84 4345.12C4004.33 4344.06 4008.21 4341.87 4011.8 4341.28C4051.21 4334.81 4092.44 4338.52 4130.4 4350.8C4133.49 4351.8 4142.31 4352.32 4144 4353.98C4149.35 4359.22 4150.73 4357.57 4156.97 4359.67C4160.43 4360.99 4163.69 4363.61 4166.96 4365.16C4169.12 4366.19 4173.6 4366.41 4175.77 4367.63C4181.5 4370.85 4187.24 4373.22 4193.41 4375.45C4194.04 4375.68 4192.85 4377.32 4195.1 4378.05C4202.72 4375.32 4205.6 4382.02 4209.58 4382.43C4217.29 4383.22 4251.43 4410.54 4253.65 4409.35C4265.85 4402.79 4278.39 4385.17 4288.55 4378.1C4288.87 4378.4 4292.51 4382.04 4292.29 4381.87L4291.88 4382.35C4286.46 4388.65 4262.38 4410.48 4260.44 4415.55C4262.54 4419.22 4274.84 4430.27 4278.55 4432.88C4285.01 4437.45 4288.9 4444.43 4294.8 4448.77L4296.43 4448.86L4295.93 4449.76L4294.13 4450.44C4289.4 4448.14 4277.6 4429.42 4269.85 4432.06L4268.63 4433.68C4270.42 4435.58 4276.07 4438.24 4278.08 4439.64C4278.31 4439.79 4277.89 4442.24 4278.9 4444.3C4282.95 4445.55 4281.43 4442.67 4283.24 4444.78C4282.63 4449.51 4291.69 4456.88 4289.84 4459.16C4278.76 4472.81 4256.54 4493.99 4238.95 4498.52C4236.84 4499.06 4234.8 4499.87 4232.9 4500.93C4226.59 4504.37 4206.04 4498.85 4204.58 4499.78C4204.3 4501.54 4204.18 4500.81 4205.27 4502.51C4210.43 4505.49 4220.55 4507.12 4226.28 4506.08C4240.89 4503.42 4233.92 4507.87 4237.56 4511.82L4239.28 4511.83L4240.06 4510.94L4239.74 4508.94C4242.02 4507.17 4243.47 4508.25 4244.91 4506.14L4243.98 4504.43C4246.89 4501.58 4251.28 4505.13 4254.51 4497.39C4255.45 4495.13 4261.9 4496.59 4263.79 4489.47L4265.72 4490.1L4266.27 4489.26L4265.24 4487.11L4265.69 4486.13C4266.61 4486.68 4266.8 4486.88 4267.61 4487.6C4278.6 4481.32 4278.62 4476.17 4288.76 4471.27C4292.25 4469.58 4292.95 4465.96 4297.78 4467.84C4300.52 4468.91 4303.23 4470.73 4305.53 4472.62C4305.86 4473.94 4305.97 4473.96 4305.46 4475.26C4302.88 4471.47 4297.45 4467.2 4292.74 4470.22C4282.56 4476.74 4273.69 4485.48 4264.18 4492.94C4260.52 4495.91 4247.92 4505.19 4245.7 4507.43C4238.75 4514.43 4210.83 4536.91 4208.21 4543.94C4213.5 4561.48 4286.44 4512.11 4293.89 4504.49C4296.73 4501.59 4314.93 4494.83 4316.69 4491.78C4315.75 4489.06 4313.62 4484.61 4311.94 4482.33C4315.81 4484.66 4314.2 4483.76 4315.86 4487.44C4316.25 4488.29 4317.96 4488.22 4319.08 4491.07C4318.99 4491.3 4318.3 4493.16 4318.28 4493.18C4314.83 4496.4 4290.64 4505.49 4290.38 4509.6C4292.04 4510.93 4292.14 4511.13 4294.16 4511.34C4294.7 4509.1 4294.77 4508.5 4296.06 4506.52C4298.14 4506.39 4303.54 4505.79 4304.71 4506.37C4304.51 4513.66 4297.16 4512.9 4297.89 4520.76C4298.07 4522.76 4295.86 4521.62 4294.59 4524.78L4295.06 4525.41C4298.49 4526.48 4306.08 4512.91 4308.9 4511.11C4313.81 4507.98 4317.6 4499.68 4322.41 4497.96C4326.02 4499.77 4325.65 4505.03 4329.77 4504.46C4331.33 4502.86 4331.2 4503.48 4331.42 4501.66C4326.39 4497.65 4328.04 4498 4327.31 4492.75C4326.43 4492.94 4325.7 4493.12 4324.83 4493.36L4324.26 4492.69L4325.14 4490.64C4321.86 4486.27 4316.81 4479.21 4312.73 4475.93C4312.35 4473.09 4312.15 4472.81 4310.22 4470.76L4313.21 4471.35C4315.48 4473.46 4323.16 4482.72 4324.36 4485.42L4323.3 4487.27C4330.81 4493.13 4335.88 4505.91 4340.26 4507.86C4343.53 4506.5 4348.72 4502.57 4351.96 4500.41C4363.6 4492.69 4379.06 4484.72 4388.62 4474.65C4391.65 4471.46 4391.13 4472 4395.11 4471.87C4402.03 4466.65 4410.48 4462.58 4417.51 4457.43C4425.21 4451.79 4433.51 4444.45 4442.08 4440.15C4451.09 4435.62 4449.47 4440.67 4457.96 4431.96C4460.49 4431.19 4463 4429.85 4464.85 4432.08C4465.21 4437.53 4451.13 4452.52 4447.55 4457.13C4445.68 4459.54 4442.27 4460.81 4442.98 4464.47C4450.18 4462.93 4461.05 4459.89 4468.26 4457.46C4468.8 4457.3 4474.89 4458.11 4474.89 4458.11C4477.91 4456.33 4481.78 4451.67 4485.6 4452.82C4492.97 4455.02 4491.88 4451.08 4494.67 4450.72C4501.03 4449.9 4512.9 4448.1 4519.53 4448.45C4525.93 4448.8 4521.1 4447.38 4525.96 4445.92C4530.17 4445.52 4536.06 4447.69 4539.48 4444.09C4540.45 4443.03 4544.95 4443.3 4546.51 4443.29C4562.94 4444.77 4578.23 4438.25 4594.69 4438.82C4597.69 4438.93 4605.08 4439.09 4607.89 4438.67C4620.38 4436.77 4632.83 4436.06 4645.32 4434.24C4650.4 4433.51 4656.66 4434.21 4661.88 4433.67C4670.98 4433.6 4718.6 4428.92 4724.77 4433.33C4715.49 4433.64 4706.13 4433.31 4696.8 4433.59C4674.86 4434.26 4652.95 4435.71 4631.11 4437.94C4625.85 4438.46 4616.8 4437.51 4613.36 4440.94C4606.43 4441.01 4598.25 4440.29 4591.55 4440.86C4575.13 4442.25 4559.01 4446.09 4542.42 4445.56C4542 4445.55 4540.03 4447.18 4539.6 4447.56C4529.68 4448.43 4519.98 4450.07 4510.06 4450.63C4508.71 4450.71 4506.78 4453.22 4505.15 4452.76C4499.64 4451.72 4480.8 4455.84 4476.89 4459.11L4477.16 4460C4483.03 4460.99 4515.59 4453.19 4524.55 4452.81C4524.88 4452.8 4526.75 4449.93 4530.26 4450.97C4532.82 4451.19 4536.31 4451.16 4538.72 4451.29C4542.29 4451.47 4543.16 4448.44 4544.3 4448.54C4560.13 4449.97 4574.8 4445.55 4590.81 4445.44C4601.31 4445.37 4612.33 4442.72 4622.8 4442.07C4629.13 4441.84 4635.46 4441.51 4641.79 4441.29C4647.56 4441.1 4654.45 4439.39 4660.07 4439.5C4675.79 4439.81 4692.07 4437.89 4707.63 4437.84C4722.51 4437.8 4738.52 4442.68 4753.42 4443.99C4758.37 4444.9 4764.68 4443.72 4769.43 4444.28C4776.15 4445.06 4782.26 4442 4787.96 4442.03C4816.04 4442.23 4844.39 4440.28 4872.38 4441.4C4874.73 4441.49 4878.5 4441.46 4880.52 4441.98C4869.29 4443.22 4862.34 4442.09 4851.61 4442.34L4789.05 4443.7C4783.25 4443.81 4778.25 4445.63 4773.11 4445.92C4763.58 4446.47 4753.27 4446.3 4743.67 4446.29C4742.7 4445.46 4742.18 4444.97 4741.29 4444.07C4729.67 4442.27 4715.84 4440.34 4704.11 4439.51C4696.74 4439.17 4688.9 4441.09 4681.66 4441.22C4667.07 4441.48 4652.93 4441.59 4638.41 4443.39C4633.18 4444.04 4626.77 4443.12 4621.4 4443.83C4617.33 4444.37 4613.44 4445.92 4609.27 4446.07C4595.41 4446.51 4581.59 4447.98 4567.75 4448.77C4566.92 4448.81 4565.65 4449.46 4564.97 4450.01C4561.7 4452.59 4551.43 4449.94 4547.53 4450.81C4537.99 4452.94 4528.44 4454.86 4518.67 4455.49C4512.8 4455.87 4505.33 4458.41 4499.49 4459.26C4492.64 4460.26 4488.06 4460.27 4481.09 4461.94C4472.96 4463.9 4467.55 4466.69 4459.61 4468.54C4455.3 4470.3 4443.84 4470.57 4440.18 4472.49C4430.63 4477.5 4423.48 4493.08 4418.77 4502.36C4418.14 4503.6 4415.5 4505.44 4414.82 4506.34C4414.82 4506.33 4414.71 4511.1 4414.11 4511.52C4412.63 4512.72 4411.44 4513.94 4410.18 4515.41C4410.23 4518.11 4410.74 4519.1 4408.17 4520L4406.51 4518.78L4405.97 4519.36L4406.61 4521.24C4398.95 4535.43 4403.55 4534.23 4390.47 4547.03C4390.97 4548.84 4390.97 4549.02 4390.97 4550.92C4389.03 4555.03 4386.83 4554.27 4385.2 4556.81L4386.12 4560.12C4385.66 4562.65 4379.1 4573.67 4376.96 4575.95C4378.71 4583.3 4383.69 4590.33 4385.94 4597.46C4386.04 4597.8 4384.24 4599.96 4384.52 4601.87C4385.77 4601.96 4386.39 4601.94 4387.63 4601.9L4388.45 4603.01C4388.8 4605.24 4387.58 4606.96 4386.53 4609.09L4387.38 4609.43L4388.79 4607.47C4390.56 4607.4 4389.75 4607.16 4391.22 4608.44C4391.05 4611.62 4389.79 4610.74 4388.65 4614.01C4389.89 4614.39 4390.91 4614.24 4392.21 4614.19L4392.87 4615.11C4391.89 4616.43 4391.87 4616.38 4391.39 4617.93L4392.28 4618.57L4394.31 4617.29C4397.38 4618.91 4394.54 4622.25 4394.97 4622.87C4397.55 4626.51 4399.79 4628.32 4401.07 4632.82C4402.49 4637.76 4402.84 4636.26 4400.87 4641.22L4401.33 4642.19C4403.05 4640.93 4402.47 4640.99 4404.34 4640.8C4406.62 4643.79 4404.32 4643.42 4404.8 4644.32C4407.51 4649.47 4410.91 4654.36 4411.92 4660.24L4412.03 4660.9C4416.08 4663.74 4426.01 4703.18 4428.76 4709.68C4429.59 4711.62 4431.87 4734.42 4425.81 4734.03C4422.97 4731.61 4418.09 4728.54 4418.92 4724.57C4421.15 4725.15 4421.1 4725.5 4423.15 4724.92C4426.77 4717.62 4407.95 4671.86 4404.97 4661.71C4398.8 4658.05 4399.81 4650.94 4399.57 4650.78C4396.6 4648.74 4387.28 4619.7 4387.58 4620.11C4381.09 4611.28 4378.46 4596.99 4373.58 4589.09C4370.5 4589.24 4372.3 4591.91 4371.36 4592.5C4367.14 4595.1 4367.17 4597.86 4365.31 4601.37C4360.27 4610.88 4355.3 4620.84 4349.02 4629.54C4348.14 4630.78 4348 4630.23 4347.48 4631.95C4347.82 4633.02 4347.91 4633.76 4348.11 4634.86C4343.07 4643.13 4345.21 4645.1 4337.21 4648.93C4337.87 4651 4338.1 4651.82 4338.4 4653.96C4334.14 4661.07 4324.23 4684.94 4319.29 4688.39C4319.18 4688.46 4319.08 4688.52 4318.97 4688.59L4319.63 4690.93C4318.64 4694.62 4316.4 4694.55 4315 4697.43C4314.52 4698.41 4315.81 4699.99 4313.95 4702.61C4312.03 4702.89 4311.86 4702.83 4310.52 4704.12C4310.14 4709.38 4301.71 4719.33 4298.98 4724.88C4296.46 4729.99 4295.5 4725.99 4296.07 4733.5C4295.29 4735.76 4291.72 4737.86 4289.57 4739.54C4290.92 4742.13 4291.03 4741.44 4290.81 4744.01C4285.97 4749.4 4273.8 4773.67 4271.98 4780.72C4270.25 4781.54 4270.78 4781.26 4268.31 4780.42C4271.14 4785.52 4267.46 4788.76 4265.3 4793.15C4256.38 4811.3 4245.67 4829.69 4235.58 4847.26L4234.55 4847.5L4232.51 4845.91L4231.92 4846.89C4232.22 4847.39 4233.82 4849.96 4233.71 4850.35C4232.18 4855.58 4227.35 4864.39 4223.96 4868.83C4222.25 4871.06 4220.5 4871.17 4218.76 4871.28C4217.37 4870.72 4215.56 4870.22 4215.1 4868.48C4213.17 4861.32 4212.31 4853.83 4210.81 4846.64C4207.8 4833.08 4211.89 4819.51 4212.69 4805.86C4212.7 4805.55 4215.45 4790.88 4215.24 4791.43L4216.2 4791.09C4218.36 4792.94 4218.53 4792.9 4220.61 4791.36L4221.32 4791.76C4216.67 4805.37 4216.16 4842.15 4220.64 4855.57L4222.23 4855.88C4224.49 4854.57 4226.62 4846.22 4228.42 4843.48C4235.5 4832.71 4240.44 4820.35 4247.34 4809.69C4251.88 4802.67 4254.42 4796.19 4258.09 4788.8L4278.06 4748.8C4284.31 4736.23 4290.99 4726.72 4295.79 4713.21C4297.74 4707.72 4310.36 4690.45 4314 4684.95C4314.44 4678.48 4316.55 4681.71 4319.11 4676.71C4328.88 4657.68 4337.29 4638.3 4346.59 4619.04C4352.96 4605.85 4364.33 4591.85 4367.65 4577.7C4368.45 4574.27 4356.18 4554.79 4353.55 4551.02C4349.52 4545.4 4341.76 4527.86 4336.77 4524.55C4333.06 4525.01 4304.13 4555.95 4299.08 4560.92C4295.92 4564.03 4292.22 4574.36 4287.13 4576.96C4286.03 4577.52 4283.77 4583.76 4283.7 4585.2L4286.32 4586.62L4286.63 4587.76L4285.7 4588.98L4282.94 4588.79C4274.67 4596.87 4255.52 4652.42 4249.91 4665.49C4247.81 4670.37 4238.94 4706.15 4237.46 4707.81C4234.71 4707.91 4233.5 4708.57 4232.49 4705.79C4232.88 4703.76 4233.71 4703.36 4235.07 4701.97C4236.6 4700.4 4233.46 4700.71 4233.79 4696.09L4234.8 4695.42L4237.22 4696.91C4241.71 4692.79 4238.28 4683.73 4238.78 4677.61L4239.4 4677.42L4242.03 4680.74C4245.91 4676.7 4239.52 4675 4241.34 4668.83C4243.47 4668.68 4242.42 4672.26 4244.64 4673.24C4247.14 4667.97 4244.49 4667.66 4242.89 4662.43C4243.36 4660.22 4242.94 4660.55 4244.29 4659.25C4245.43 4660.18 4245.39 4662.35 4247.12 4664.44C4249.82 4659.98 4246.16 4659.89 4246.39 4655.71C4247.53 4655.92 4248.28 4656.41 4249.3 4656.94C4250.34 4655.46 4249.95 4655.14 4249.85 4653.01C4247.94 4650.46 4247.35 4650.23 4248.21 4647.36L4249.23 4646.87C4249.97 4647.94 4250.67 4649.26 4251.82 4649.71C4252.78 4647.08 4254.87 4642.29 4254.6 4639.74C4253.38 4638.14 4253.19 4637.95 4252.47 4636.1C4252.95 4634.07 4252.53 4634.39 4253.84 4633.47C4254.9 4634.86 4255.47 4636.23 4256.23 4637.8C4260 4635.77 4258.53 4628.93 4258.03 4625.47L4258.78 4624.56C4259.67 4625.6 4259.96 4626.16 4261.26 4626.6C4262.75 4624.67 4261.5 4622.83 4262.11 4621.17C4262.44 4620.29 4263.83 4620.89 4264.32 4618.04C4263.13 4617.28 4262.99 4617.23 4261.97 4616.18L4262.59 4614.55C4265.51 4614.51 4263.19 4615.43 4266.32 4616.59C4267.41 4613.39 4265.12 4610.94 4265.63 4610.62C4268.62 4608.79 4269.45 4609.64 4270.8 4606.06C4269.71 4605.41 4268.82 4605.42 4267.56 4605.26L4267.05 4604C4269.17 4602.94 4272.65 4601.51 4273.61 4599.52C4272.96 4598.23 4272.32 4597.06 4271.61 4595.8C4272 4593.81 4271.59 4594.34 4272.94 4593.37L4274.96 4595.15L4275.96 4594.83C4277.26 4590.43 4273.55 4592.47 4274.28 4587.58L4275.31 4586.95L4277.99 4588.1L4278.43 4587.31C4277.05 4585.21 4276.76 4584.75 4275.88 4582.3C4276.07 4577.07 4281.19 4577.06 4284.32 4571.72C4288.05 4565.55 4291.93 4559.49 4296.36 4553.8C4298.52 4551.03 4305.64 4545.02 4305.69 4541.72C4303.91 4541.52 4295.78 4546.37 4294.17 4547.53C4286.6 4552.95 4285.7 4548.79 4278.83 4546.14C4278.28 4546.27 4276.14 4545.28 4276.67 4544.47C4281.73 4536.76 4296.09 4514.6 4302.28 4509.52L4302.32 4508.38L4301.07 4507.97C4297.88 4508.7 4273.62 4526.91 4269.44 4530.33C4266.39 4532.83 4259.11 4535.45 4255.23 4536.89C4254.46 4538.05 4252.83 4540.45 4251.63 4541.03C4239.1 4547.1 4226.98 4554.25 4212.75 4555.28C4209.13 4555.54 4202.51 4546.87 4200.23 4544.11L4200.18 4540.03C4207.93 4530.92 4216.4 4525.32 4224.12 4517.12C4228.22 4512.77 4230.73 4511.86 4235 4508.14C4234.06 4506.38 4223.41 4508.44 4220.49 4508.13C4209.57 4507.01 4196.74 4502.39 4189.25 4494C4188.11 4492.72 4185.88 4495.4 4184.58 4495.83L4183.24 4494.3L4182.15 4494.47C4182.8 4497.15 4183.09 4496.55 4182.25 4498.65C4180.01 4499.65 4180.96 4499.44 4177.91 4498.64L4177.09 4499.49L4179.21 4501.74C4178.91 4503.57 4179.35 4502.86 4177.98 4503.97L4175.89 4502.25C4174.11 4502.82 4170.46 4506.87 4168.29 4508.67C4169.24 4509.79 4169.5 4509.99 4170 4511.42L4168.89 4512.42C4166.98 4511.7 4166.69 4511.72 4164.64 4511.85C4162.21 4512.97 4151.92 4525.46 4150.55 4528.23L4151.17 4528.34C4155.64 4525.51 4162.55 4515.75 4166.72 4515.57C4166.42 4519.2 4161.04 4522.15 4158.55 4524.79C4154.65 4528.93 4150.91 4533.21 4146.86 4537.19C4146.11 4536.2 4146 4535.57 4145.64 4534.4L4144.32 4534.71C4140.27 4538.7 4105.96 4571.65 4105.45 4573.11C4105.27 4573.61 4105.54 4573.81 4105.76 4574.26C4107.07 4573.9 4111.45 4568.94 4113.29 4567.3L4115.23 4567.47L4115.17 4568.41C4113.44 4570.43 4095.19 4589.38 4093.77 4589.66L4092.81 4586.58L4092.07 4586.38C4091.02 4587.23 4090.98 4587.61 4090.49 4588.84C4091.15 4590.57 4091.31 4590.87 4091.5 4592.67C4089.63 4596.58 4071.78 4610.44 4067.62 4613.75C4064.89 4615.93 4063.24 4619.63 4059.64 4622.32C4056.65 4622 4058.86 4620.77 4056.39 4619.96C4055.41 4621.45 4053.79 4622.37 4053.44 4623.27C4056.15 4623.39 4056.74 4622.89 4058.22 4624.41C4058.17 4624.72 4058.11 4625.31 4057.89 4625.51C4052.93 4630.25 4037.78 4652.32 4031.87 4652.36C4031.79 4649.71 4035.79 4648.13 4038.14 4644.27L4037.66 4643.44L4035.56 4643.61C4033.36 4646 4030.07 4649.74 4027.58 4651.66C4022.52 4655.54 4011.68 4661.08 4008.24 4666.01C4009.55 4666.9 4010 4667.09 4010.92 4668.34C4009.17 4670.76 4005.23 4666.76 4002.2 4670.2C4000.29 4672.36 3988.18 4678.99 3987.45 4680.43L3990.4 4681.87L3990.21 4682.92C3980.91 4690.17 3970.75 4696.98 3960.28 4702.34C3958.32 4703.6 3956.49 4705.22 3954.28 4706.05C3948.67 4708.13 3930.22 4713.04 3925.44 4708.9C3925.86 4706.9 3929.19 4706.54 3931.77 4706.09C3964.78 4700.27 3989.8 4672.59 4017.04 4655.32C4023.87 4650.98 4033.74 4640.65 4037.8 4640.62L4039.72 4642.64C4041.57 4641.87 4042.29 4641 4043.75 4639.64L4043.74 4638.57C4041.84 4637.83 4040.81 4637.79 4038.82 4637.53L4038.79 4636.64C4041.31 4633.98 4043.89 4631.38 4046.54 4628.85L4047.79 4628.88L4048.98 4630.92L4049.82 4630.98C4051.56 4628.88 4052.99 4627.6 4053.21 4624.91L4052.85 4624.76L4049.17 4627.46L4048.48 4626.65C4048.52 4626.16 4048.57 4625.57 4048.62 4624.89C4053.32 4620.67 4060.9 4610.18 4065 4606.49C4070.83 4601.06 4079.86 4595.67 4085.16 4589.91C4097.4 4576.63 4107.72 4565.1 4121.9 4553.76C4135.13 4541.85 4146.53 4528.2 4158.23 4514.87C4164.64 4507.57 4178.37 4496.96 4183.28 4489.6C4183.29 4483.57 4177.39 4484 4176.07 4479.17C4172.34 4465.5 4150.59 4426.06 4158.4 4413.67C4160.3 4414.69 4159.43 4416.23 4161.25 4419.28L4163.51 4419.1C4166.57 4421.94 4164.21 4422.91 4165.94 4426.7C4169.48 4434.49 4173.47 4442.08 4176.93 4449.9C4176.21 4451.1 4176.14 4451.12 4175.79 4452.54C4177.16 4459.46 4182.33 4477.26 4187.69 4481.35C4191.58 4481.43 4197.51 4470.84 4200.11 4468.85C4204.41 4465.58 4243.95 4419.74 4245.12 4419.48C4245.45 4420.96 4244.15 4424.08 4243.57 4425.65L4244.23 4426.44C4250.57 4422.5 4245.93 4415.9 4241.8 4412.63C4225.97 4400.1 4208.47 4387.74 4189.29 4381.13C4187.29 4380.45 4185.27 4379.47 4183.28 4378.71C4164.83 4371.74 4147.39 4362.21 4128.35 4356.9C4120.18 4354.59 4112.57 4351.66 4103.99 4350.81C4102.42 4350.65 4100.29 4348.52 4098.63 4348.29C4094.15 4348.02 4089.52 4348.66 4085.02 4348.27C4069.99 4344.62 4055.43 4342.97 4039.95 4343.83C4039.95 4343.83 4038.09 4345.48 4038.09 4345.48C4035.47 4345.37 4032.41 4345.44 4029.75 4345.62C4021.39 4346.24 4011.33 4346.32 4003.34 4348.87C3992.18 4352.42 3980.55 4356.85 3970.28 4362.4C3965.57 4364.97 3961.01 4367.8 3956.62 4370.88C3953.07 4373.36 3953.09 4374.77 3948.8 4374.99C3951.69 4374.32 3955.13 4370.74 3956.79 4368.3L3956.31 4367.39C3953.45 4367.32 3952.44 4368.82 3949.56 4370.4ZM4231.04 4500.28C4235.09 4497.27 4240.71 4496.82 4245.33 4494.39C4259.62 4486.86 4271.63 4477.55 4282.15 4465.27C4284.27 4462.82 4286.73 4461.6 4288 4458.61C4288.72 4452.11 4272.16 4438.59 4266.99 4435.5C4267.1 4435.57 4266.31 4432.54 4266.1 4432.44C4262.95 4430.97 4254.48 4422.5 4251.89 4421.98C4245.77 4430.17 4234.18 4441.26 4227.4 4449.39C4222.99 4454.67 4226.23 4455.1 4217.83 4459.13C4211.4 4465.29 4199.96 4482.35 4193.51 4487.17C4206.24 4500.4 4213.22 4500.32 4231.04 4500.28ZM4355.41 4535.23C4358.38 4537.25 4370.09 4561.78 4372.49 4566.38L4373.57 4566.33C4377.39 4563.14 4388.67 4535.62 4393.17 4529.41C4397.12 4523.98 4421.66 4483.57 4421.71 4480.08C4419.11 4479.77 4415.03 4483.27 4412.37 4484.48C4407.54 4486.68 4401.5 4487.62 4396.87 4489.5C4381.52 4495.73 4367.71 4504.34 4353.46 4512.65C4350 4514.67 4347.05 4514.07 4345.39 4517.92C4345.55 4520.36 4346.42 4521.49 4347.63 4523.58C4347.56 4525.58 4353.55 4534.04 4355.41 4535.23ZM4293.28 4539.55C4294.63 4538.24 4294.22 4538.91 4295.29 4538.36C4307.34 4532.21 4320.63 4524.45 4330.16 4514.76C4333.03 4511.84 4324.11 4502.99 4323.24 4499.33L4322.71 4498.84C4317.4 4504.11 4288.11 4536.42 4286.76 4542.31C4289.04 4543.56 4291.63 4540.99 4293.28 4539.55ZM4389.8 4484.59C4402.28 4477.26 4420.64 4474.64 4431.58 4465.58C4433.16 4464.28 4437.78 4453.98 4442.53 4449.29C4441.43 4448.02 4441.87 4448.43 4440.13 4447.83C4432.51 4457.28 4387.4 4481.86 4386.74 4484.59C4388.31 4484.93 4388.23 4484.93 4389.8 4484.59Z" fill="black"/>
<path d="M4438.49 4458.22C4439.82 4459.4 4440.32 4459.67 4441.09 4461.23C4441.17 4463.59 4440.72 4465.12 4442.03 4466.41C4449.98 4465.36 4469.25 4457.32 4473.96 4459.86L4474.63 4461.28C4472.25 4465.87 4468.1 4462.31 4466.15 4463.5C4459.63 4467.52 4455.55 4467.08 4448.9 4468.12C4442.87 4469.07 4431.29 4475.96 4427.26 4480.64C4427.43 4482.06 4427.61 4483.39 4427.7 4484.82L4424.56 4484.21L4423.54 4485.09L4424.94 4487.16C4422.17 4492.17 4417.63 4487.67 4420.37 4495.25L4419.78 4496.04C4417.77 4496.19 4417.6 4495.83 4416.56 4496.9C4417.67 4499.22 4418.04 4498.97 4417.51 4501.08C4415.99 4501.95 4414.86 4501.67 4413.19 4501.28C4412.43 4496.23 4424.32 4484 4423.43 4478.78C4421.53 4477.81 4419.87 4476.63 4417.84 4476.81L4416.87 4477.54C4417.25 4478.89 4417.24 4478.96 4417.98 4480.25C4415.39 4482.52 4405.37 4484.58 4401.9 4485.65C4401.4 4485.81 4402.51 4488.51 4399.44 4488.02C4398.11 4487.8 4395.57 4486.88 4394.34 4486.48C4393.89 4487.95 4393.87 4488.16 4393.71 4489.71C4392.27 4489.94 4391.23 4490.06 4389.77 4490.17C4387.67 4493.72 4382.13 4494.08 4378.35 4496.36C4367.31 4503.02 4356 4509.13 4344.87 4515.55C4343.44 4516.37 4343.57 4517.98 4343.61 4519.19C4344.99 4521.34 4345.4 4522.18 4347.63 4523.58C4347.56 4525.58 4353.55 4534.04 4355.41 4535.23L4352.2 4536.71L4350.59 4536.29C4350.04 4538.42 4350.97 4539.27 4351.85 4541.79C4350.25 4542.2 4350.95 4542.31 4349.66 4541.81C4349.04 4540.01 4346.92 4532.14 4346.58 4531.71L4344.54 4532.85C4341.93 4531.04 4341.93 4525.64 4337.52 4522.95C4334.78 4522.58 4335.72 4522.38 4333.49 4523.31L4332.77 4525.66C4325.28 4528.85 4317.25 4542.67 4310.19 4547.07C4304.65 4546.02 4308.5 4542.9 4305.66 4539.74C4301 4540.23 4295.38 4547.87 4288.73 4547.38C4285.88 4547.18 4281.21 4546.69 4279.11 4544.66L4279.19 4543.32C4282.3 4539.85 4283.14 4537.39 4285.83 4533.65C4286.85 4533.91 4288.85 4533.44 4289.98 4533.25C4290.45 4536.37 4287.24 4537.74 4284.97 4539.68C4284.61 4541.93 4284.48 4540.99 4285.86 4543.31C4290.82 4543.72 4306.36 4535.04 4310.12 4531.15C4313.16 4528.02 4314.04 4531.69 4316.51 4530.37L4315.47 4528.66L4316.13 4527.67C4317.27 4527.97 4317.54 4528.06 4318.75 4528.16C4318.63 4527.65 4318.49 4527.05 4318.33 4526.35C4322 4522.31 4329.81 4519.03 4332.85 4514.24C4334.1 4512.28 4330.42 4510.27 4329.58 4506.95L4330.42 4505.64C4336.36 4505.46 4339.2 4514.98 4346.72 4505.97C4347.66 4504.84 4350.53 4502.52 4351.9 4501.98C4350.85 4502.39 4354.05 4502.59 4354.33 4502.56C4354.97 4501.09 4355.15 4500.71 4356.05 4499.39C4356.99 4499.76 4357.92 4500.15 4358.85 4500.55L4359.51 4499.68L4358.74 4497.6C4360.61 4496.22 4362.36 4498.67 4364.5 4496.92C4364.96 4496.54 4366.9 4493.14 4367.87 4492.62L4370.3 4492.54C4374.6 4489.63 4377.95 4484.28 4382.67 4481.89C4384.47 4480.99 4384.52 4480.68 4386 4481.15C4386 4482.7 4385.97 4484.24 4385.92 4485.79C4390.48 4488.76 4402.83 4476.47 4412.4 4478.41L4413.08 4480.4L4413.81 4480.42C4414.12 4478.78 4413.85 4477.93 4413.57 4476.25C4415.47 4474.43 4426.06 4472.37 4428.76 4470.28C4433.65 4466.49 4433.74 4460.8 4438.49 4458.22Z" fill="black"/>
<path d="M4214.76 4814.96C4217.08 4818.83 4214.79 4836.11 4215.97 4841.78C4222.59 4847.7 4214 4854.38 4220.6 4857.51C4228.34 4856.72 4223.2 4854.37 4227.15 4851.12L4228.57 4851.79C4231.59 4857.09 4227.85 4854.77 4227.34 4861.1C4223.93 4863.17 4223.04 4864.88 4220.94 4868.24C4215.49 4868.35 4213.35 4849.56 4212.7 4844.88C4211.47 4836.13 4210.1 4826.41 4215.03 4818.81C4215.06 4818.77 4214.79 4815.27 4214.76 4814.96Z" fill="black"/>
<path d="M4451.72 4438.25C4455.89 4437.87 4459.05 4432.66 4462.99 4433.21C4463 4440.13 4454.4 4440.67 4452.69 4445.03L4453.49 4447.82C4452.06 4449.85 4446.22 4454.89 4444.11 4456.45L4443.84 4458.11C4441.6 4458.83 4441.54 4457.81 4438.49 4458.22C4441.1 4448.89 4445.13 4454.81 4444.52 4446.87C4442.48 4446.32 4440.95 4447.13 4439.03 4448.25C4438.19 4448.75 4437.36 4449.26 4436.53 4449.8C4434.36 4449.17 4435.15 4449.53 4433.32 4447.61L4433.22 4447.16C4437.5 4446.18 4441.73 4445.68 4444.76 4442.13L4444.38 4440.6C4446.24 4439.84 4447.12 4440.12 4449.11 4440.34C4450.43 4439.5 4450.66 4439.39 4451.72 4438.25Z" fill="black"/>
<path d="M4046.2 4340.11C4051.91 4339.04 4073.57 4340.21 4080.51 4341.81C4081.26 4341.98 4081.19 4343.16 4081.32 4344.16C4079.84 4344.25 4078.36 4344.29 4076.88 4344.29C4071.22 4344.24 4064.67 4342.07 4058.77 4341.8C4055.55 4341.65 4048.08 4342.02 4046.2 4340.11Z" fill="black"/>
<path d="M4351.85 4541.79C4350.97 4539.27 4350.04 4538.42 4350.59 4536.29L4352.2 4536.71C4356.6 4539.63 4356.31 4543.08 4358.03 4547.39C4358.29 4548.03 4362.37 4549.26 4363.07 4552.57L4362.66 4554.5C4357.86 4554.33 4352.49 4545.91 4351.85 4541.79Z" fill="black"/>
<path d="M4724.77 4433.33C4729.69 4436.83 4732.1 4434.65 4737.76 4435.11C4740.06 4435.3 4746.68 4440.43 4748 4440.34C4765.73 4439.16 4783.34 4437.66 4801.14 4437.32C4807.63 4437.19 4814.78 4435.28 4821.33 4435.16C4825.37 4435.04 4831.59 4438.13 4836.75 4438.12L4838.11 4435.75C4850.05 4432.77 4871.98 4436.54 4884.83 4435.58C4901.27 4434.34 4915.64 4434.87 4932.04 4436.16L4933.81 4438.11C4950.78 4438.39 4969.5 4438.59 4986.26 4437.54C5001.09 4436.61 5002.63 4434.16 5018.59 4435.67L5019.18 4435.08L5018.45 4432.49L5019.67 4432.23C5020.8 4433.25 5021.1 4433.79 5021.98 4435.04C5020.4 4437.71 5014.86 4439.93 5011.9 4440.23C4976 4443.77 4939.87 4443.35 4903.86 4441.16C4898.03 4440.8 4885.37 4443.28 4880.52 4441.98C4878.5 4441.46 4874.73 4441.49 4872.38 4441.4C4844.39 4440.28 4816.04 4442.23 4787.96 4442.03C4782.26 4442 4776.15 4445.06 4769.43 4444.28C4764.68 4443.72 4758.37 4444.9 4753.42 4443.99C4738.52 4442.68 4722.51 4437.8 4707.63 4437.84C4692.07 4437.89 4675.79 4439.81 4660.07 4439.5C4654.45 4439.39 4647.56 4441.1 4641.79 4441.29C4635.46 4441.51 4629.13 4441.84 4622.8 4442.07C4612.33 4442.72 4601.31 4445.37 4590.81 4445.44C4574.8 4445.55 4560.13 4449.97 4544.3 4448.54C4543.16 4448.44 4542.29 4451.47 4538.72 4451.29C4536.31 4451.16 4532.82 4451.19 4530.26 4450.97C4526.75 4449.93 4524.88 4452.8 4524.55 4452.81C4515.59 4453.19 4483.03 4460.99 4477.16 4460L4476.89 4459.11C4480.8 4455.84 4499.64 4451.72 4505.15 4452.76C4506.78 4453.22 4508.71 4450.71 4510.06 4450.63C4519.98 4450.07 4529.68 4448.43 4539.6 4447.56C4540.03 4447.18 4542 4445.55 4542.42 4445.56C4559.01 4446.09 4575.13 4442.25 4591.55 4440.86C4598.25 4440.29 4606.43 4441.01 4613.36 4440.94C4616.8 4437.51 4625.85 4438.46 4631.11 4437.94C4652.95 4435.71 4674.86 4434.26 4696.8 4433.59C4706.13 4433.31 4715.49 4433.64 4724.77 4433.33Z" fill="black"/>
<path d="M4894.25 4436.58C4899.13 4437.01 4912.62 4435.67 4915.52 4437.8L4914.89 4438.41C4911.89 4438.97 4895.62 4439.89 4893.87 4438.11L4894.25 4436.58Z" fill="black"/>
<path d="M4305.46 4475.26C4305.97 4473.96 4305.86 4473.94 4305.53 4472.62C4303.23 4470.73 4300.52 4468.91 4297.78 4467.84C4292.95 4465.96 4292.25 4469.58 4288.76 4471.27C4278.62 4476.17 4278.6 4481.32 4267.61 4487.6C4266.8 4486.88 4266.61 4486.68 4265.69 4486.13L4265.24 4487.11L4266.27 4489.26L4265.72 4490.1L4263.79 4489.47C4261.9 4496.59 4255.45 4495.13 4254.51 4497.39C4251.28 4505.13 4246.89 4501.58 4243.98 4504.43L4244.91 4506.14C4243.47 4508.25 4242.02 4507.17 4239.74 4508.94L4240.06 4510.94L4239.28 4511.83L4237.56 4511.82C4233.92 4507.87 4240.89 4503.42 4226.28 4506.08C4220.55 4507.12 4210.43 4505.49 4205.27 4502.51C4204.18 4500.81 4204.3 4501.54 4204.58 4499.78C4206.04 4498.85 4226.59 4504.37 4232.9 4500.93C4234.8 4499.87 4236.84 4499.06 4238.95 4498.52C4256.54 4493.99 4278.76 4472.81 4289.84 4459.16C4291.69 4456.88 4282.63 4449.51 4283.24 4444.78C4281.43 4442.67 4282.95 4445.55 4278.9 4444.3C4277.89 4442.24 4278.31 4439.79 4278.08 4439.64C4276.07 4438.24 4270.42 4435.58 4268.63 4433.68L4269.85 4432.06C4277.6 4429.42 4289.4 4448.14 4294.13 4450.44L4295.93 4449.76L4297.48 4450.18C4298.95 4452.98 4297.14 4452.84 4297.87 4456.18C4309.43 4459.4 4337.01 4429.14 4348.87 4447.19C4350.13 4449.11 4349.21 4449.8 4351.76 4451.18C4352.92 4455.9 4347.29 4466.24 4347.58 4471.56C4347.79 4475.42 4344.77 4474.15 4343.24 4478.18C4343.87 4479.81 4344.18 4480.64 4344.59 4482.33L4343.8 4483.46C4341.8 4483.5 4342.6 4483.84 4341.24 4482.63C4340.68 4480.36 4340.22 4479.72 4338.76 4477.92C4337.32 4472.17 4343.84 4469.41 4343.68 4464.28C4343.52 4458.99 4344.73 4447.33 4336.2 4448.67C4329.51 4449.72 4329.62 4450.54 4322.49 4449.56C4318.89 4454.11 4316.84 4457.04 4310.95 4457.84L4308.96 4459.66C4307.43 4459.51 4307.48 4459.42 4306.33 4458.47C4303.41 4462.09 4309.49 4467.2 4310.22 4470.76C4312.15 4472.81 4312.35 4473.09 4312.73 4475.93C4316.81 4479.21 4321.86 4486.27 4325.14 4490.64L4324.26 4492.69L4324.83 4493.36C4325.7 4493.12 4326.43 4492.94 4327.31 4492.75C4328.04 4498 4326.39 4497.65 4331.42 4501.66C4331.2 4503.48 4331.33 4502.86 4329.77 4504.46C4325.65 4505.03 4326.02 4499.77 4322.41 4497.96C4317.6 4499.68 4313.81 4507.98 4308.9 4511.11C4306.08 4512.91 4298.49 4526.48 4295.06 4525.41L4294.59 4524.78C4295.86 4521.62 4298.07 4522.76 4297.89 4520.76C4297.16 4512.9 4304.51 4513.66 4304.71 4506.37C4303.54 4505.79 4298.14 4506.39 4296.06 4506.52C4294.77 4508.5 4294.7 4509.1 4294.16 4511.34C4292.14 4511.13 4292.04 4510.93 4290.38 4509.6C4290.64 4505.49 4314.83 4496.4 4318.28 4493.18C4318.3 4493.16 4318.99 4491.3 4319.08 4491.07C4317.96 4488.22 4316.25 4488.29 4315.86 4487.44C4314.2 4483.76 4315.81 4484.66 4311.94 4482.33C4309.94 4480 4307.57 4477.54 4305.46 4475.26Z" fill="black"/>
<path d="M4288.55 4378.1C4298.03 4368.74 4312.03 4355.56 4325.92 4355.69C4326.5 4355.69 4327.08 4355.7 4327.66 4355.72C4329.66 4357.47 4331.84 4359.28 4333.68 4361.18C4333.77 4374.64 4335.6 4389.44 4331.17 4401.92C4324.62 4420.34 4315.22 4435.65 4302.13 4449.98C4300.28 4452.01 4298.8 4453.47 4297.87 4456.18C4297.14 4452.84 4298.95 4452.98 4297.48 4450.18L4295.93 4449.76L4296.43 4448.86C4315.5 4427.02 4330.41 4410.36 4331.46 4378.79C4331.58 4375.09 4330.1 4365.06 4327.57 4362.52C4318.58 4360.52 4314.34 4370.64 4306.46 4370.24C4302.9 4373.05 4294.78 4378.82 4292.29 4381.87C4292.51 4382.04 4288.87 4378.4 4288.55 4378.1Z" fill="black"/>
<path d="M4393.75 4322.55C4396 4322.26 4398.9 4322.11 4400.75 4323.52L4400.15 4324.24C4395.8 4325.29 4395.8 4324.41 4391.93 4324.62C4389.38 4325.56 4387.68 4326.95 4384.9 4327.5C4372.9 4329.86 4360.23 4332.9 4347.96 4332.34C4347.29 4332.31 4347.38 4332.46 4346.76 4332.86C4345.4 4342.64 4370.54 4354.42 4371.95 4357.3L4370.55 4359.75C4371.44 4359.97 4375.25 4358.66 4376.82 4358.36C4380.64 4361.09 4384.72 4363.63 4388.36 4366.25L4388.01 4367.04L4386.14 4367.63C4380.53 4364.15 4379.14 4365.78 4377.18 4364.98C4363.38 4359.31 4345.55 4345.36 4334.64 4334.96C4333.42 4333.79 4333.81 4332.01 4334.07 4330.91C4335.27 4330 4341.48 4329.75 4343.36 4329.63C4352.88 4329.02 4362.13 4326.7 4371.57 4325.36C4377.56 4324.5 4388.86 4325.52 4393.75 4322.55Z" fill="black"/>
<path d="M3887.53 4517.16C3888.07 4517.9 3888.2 4518.35 3888.56 4519.18C3887.54 4524.92 3887.91 4527.4 3884.57 4532.23C3885.14 4548.48 3884.06 4566.63 3883.79 4583.12C3883.65 4592.12 3884.69 4617.79 3883.21 4624.75C3878.1 4618.86 3879.94 4546.73 3880.64 4534.22C3880.87 4530.04 3882.29 4521.31 3884.44 4517.54L3887.53 4517.16Z" fill="black"/>
<path d="M3907.67 4418.87C3908.47 4419.66 3910.08 4421.15 3910.74 4421.95C3910.23 4427.08 3904.9 4432.86 3903.51 4438.18C3902.72 4440.63 3903.64 4444.34 3902.68 4446.68C3897.07 4460.41 3894.53 4472.7 3893.29 4487.43C3893.14 4489.18 3886.32 4492.25 3889.95 4499.4C3890.33 4500.16 3888.08 4514.06 3887.21 4515.87L3887.53 4517.16L3884.44 4517.54C3883.79 4495.42 3891.61 4485.08 3891.56 4466.3C3893.2 4463.45 3894.09 4461.93 3896.13 4459.38L3896.29 4446.62L3900.85 4443.19C3900.89 4432.38 3904.26 4431.16 3906.04 4421.45C3906.33 4419.91 3906.64 4420.05 3907.67 4418.87Z" fill="black"/>
<path d="M3949.56 4370.4C3952.44 4368.82 3953.45 4367.32 3956.31 4367.39L3956.79 4368.3C3955.13 4370.74 3951.69 4374.32 3948.8 4374.99C3945.7 4380.09 3938.76 4384.63 3933.81 4387.98C3933.95 4388.75 3934.08 4389.53 3934.22 4390.31C3932.84 4391.89 3929.99 4394.06 3928.46 4395.46C3923.7 4399.83 3920.51 4404.41 3916.78 4409.42C3913.42 4413.94 3913.89 4420.58 3910.74 4421.95C3910.08 4421.15 3908.47 4419.66 3907.67 4418.87C3912.36 4401.64 3935.12 4380.94 3949.05 4370.78L3949.56 4370.4Z" fill="black"/>
</svg>
