<svg width="6900" height="5209" viewBox="0 0 6900 5209" fill="none" xmlns="http://www.w3.org/2000/svg">
<path d="M655.41 4698.26C655.41 4699.53 655.345 4700.59 655.214 4701.47C655.127 4702.3 654.974 4702.97 654.756 4703.5C654.538 4704.02 654.254 4704.41 653.905 4704.67C653.6 4704.89 653.251 4705 652.858 4705H610.329C608.89 4705 607.668 4704.59 606.665 4703.76C605.705 4702.88 605.226 4701.49 605.226 4699.57V4625.76C605.226 4623.85 605.705 4622.47 606.665 4621.64C607.668 4620.77 608.89 4620.33 610.329 4620.33H652.597C652.989 4620.33 653.338 4620.44 653.644 4620.66C653.949 4620.88 654.211 4621.27 654.429 4621.84C654.647 4622.36 654.799 4623.06 654.887 4623.93C655.018 4624.76 655.083 4625.83 655.083 4627.14C655.083 4628.36 655.018 4629.41 654.887 4630.28C654.799 4631.11 654.647 4631.78 654.429 4632.31C654.211 4632.83 653.949 4633.22 653.644 4633.49C653.338 4633.7 652.989 4633.81 652.597 4633.81H622.368V4654.49H647.951C648.344 4654.49 648.693 4654.62 648.998 4654.88C649.347 4655.1 649.631 4655.47 649.849 4655.99C650.067 4656.47 650.219 4657.15 650.307 4658.02C650.438 4658.85 650.503 4659.88 650.503 4661.1C650.503 4662.36 650.438 4663.41 650.307 4664.24C650.219 4665.07 650.067 4665.74 649.849 4666.27C649.631 4666.75 649.347 4667.09 648.998 4667.31C648.693 4667.53 648.344 4667.64 647.951 4667.64H622.368V4691.52H652.858C653.251 4691.52 653.6 4691.65 653.905 4691.91C654.254 4692.13 654.538 4692.5 654.756 4693.03C654.974 4693.55 655.127 4694.25 655.214 4695.12C655.345 4695.95 655.41 4697 655.41 4698.26ZM769.323 4702.64C769.323 4703.08 769.192 4703.47 768.931 4703.82C768.713 4704.17 768.276 4704.45 767.622 4704.67C767.011 4704.89 766.183 4705.07 765.136 4705.2C764.089 4705.33 762.758 4705.39 761.145 4705.39C759.574 4705.39 758.266 4705.33 757.219 4705.2C756.172 4705.07 755.343 4704.89 754.732 4704.67C754.122 4704.45 753.686 4704.17 753.424 4703.82C753.162 4703.47 753.031 4703.08 753.031 4702.64V4633.75H752.9L728.364 4702.58C728.19 4703.15 727.906 4703.63 727.514 4704.02C727.121 4704.37 726.576 4704.65 725.878 4704.87C725.224 4705.09 724.373 4705.22 723.326 4705.26C722.279 4705.35 721.014 4705.39 719.531 4705.39C718.048 4705.39 716.783 4705.33 715.736 4705.2C714.689 4705.11 713.817 4704.96 713.119 4704.74C712.465 4704.48 711.941 4704.17 711.549 4703.82C711.156 4703.47 710.895 4703.06 710.764 4702.58L687.078 4633.75H686.947V4702.64C686.947 4703.08 686.816 4703.47 686.555 4703.82C686.337 4704.17 685.9 4704.45 685.246 4704.67C684.592 4704.89 683.741 4705.07 682.694 4705.2C681.691 4705.33 680.382 4705.39 678.769 4705.39C677.198 4705.39 675.89 4705.33 674.843 4705.2C673.796 4705.07 672.945 4704.89 672.291 4704.67C671.68 4704.45 671.244 4704.17 670.982 4703.82C670.764 4703.47 670.655 4703.08 670.655 4702.64V4627.2C670.655 4624.98 671.244 4623.28 672.422 4622.1C673.6 4620.92 675.17 4620.33 677.133 4620.33H688.387C690.393 4620.33 692.116 4620.51 693.556 4620.86C694.995 4621.16 696.238 4621.71 697.285 4622.49C698.332 4623.23 699.204 4624.24 699.902 4625.5C700.6 4626.72 701.211 4628.25 701.734 4630.08L720.055 4680.53H720.316L739.291 4630.21C739.858 4628.38 740.469 4626.83 741.123 4625.57C741.821 4624.3 742.606 4623.28 743.479 4622.49C744.395 4621.71 745.463 4621.16 746.685 4620.86C747.906 4620.51 749.324 4620.33 750.938 4620.33H762.519C763.696 4620.33 764.7 4620.49 765.528 4620.79C766.401 4621.1 767.099 4621.56 767.622 4622.17C768.189 4622.73 768.604 4623.45 768.865 4624.33C769.171 4625.15 769.323 4626.11 769.323 4627.2V4702.64ZM844.109 4627.4C844.109 4628.67 844.044 4629.76 843.913 4630.67C843.826 4631.54 843.673 4632.26 843.455 4632.83C843.237 4633.35 842.953 4633.75 842.604 4634.01C842.299 4634.27 841.95 4634.4 841.558 4634.4H820.358V4702.64C820.358 4703.08 820.206 4703.47 819.9 4703.82C819.639 4704.17 819.181 4704.45 818.526 4704.67C817.872 4704.89 816.978 4705.07 815.844 4705.2C814.753 4705.33 813.379 4705.39 811.722 4705.39C810.064 4705.39 808.668 4705.33 807.534 4705.2C806.444 4705.07 805.571 4704.89 804.917 4704.67C804.263 4704.45 803.783 4704.17 803.478 4703.82C803.216 4703.47 803.085 4703.08 803.085 4702.64V4634.4H781.886C781.45 4634.4 781.079 4634.27 780.773 4634.01C780.468 4633.75 780.206 4633.35 779.988 4632.83C779.77 4632.26 779.596 4631.54 779.465 4630.67C779.378 4629.76 779.334 4628.67 779.334 4627.4C779.334 4626.09 779.378 4624.98 779.465 4624.06C779.596 4623.15 779.77 4622.43 779.988 4621.9C780.206 4621.34 780.468 4620.94 780.773 4620.73C781.079 4620.46 781.45 4620.33 781.886 4620.33H841.558C841.95 4620.33 842.299 4620.46 842.604 4620.73C842.953 4620.94 843.237 4621.34 843.455 4621.9C843.673 4622.43 843.826 4623.15 843.913 4624.06C844.044 4624.98 844.109 4626.09 844.109 4627.4ZM931 4697.8C931 4699.11 930.935 4700.22 930.804 4701.14C930.716 4702.01 930.564 4702.75 930.346 4703.36C930.128 4703.93 929.844 4704.35 929.495 4704.61C929.19 4704.87 928.819 4705 928.383 4705H889.583C888.144 4705 886.922 4704.59 885.919 4703.76C884.959 4702.88 884.479 4701.49 884.479 4699.57V4622.69C884.479 4622.25 884.61 4621.86 884.872 4621.51C885.177 4621.16 885.657 4620.88 886.312 4620.66C886.966 4620.44 887.838 4620.27 888.929 4620.14C890.063 4620.01 891.459 4619.94 893.116 4619.94C894.817 4619.94 896.213 4620.01 897.304 4620.14C898.394 4620.27 899.267 4620.44 899.921 4620.66C900.575 4620.88 901.033 4621.16 901.295 4621.51C901.6 4621.86 901.753 4622.25 901.753 4622.69V4690.8H928.383C928.819 4690.8 929.19 4690.93 929.495 4691.19C929.844 4691.41 930.128 4691.81 930.346 4692.37C930.564 4692.9 930.716 4693.62 930.804 4694.53C930.935 4695.4 931 4696.49 931 4697.8ZM956.648 4702.78C956.648 4703.21 956.518 4703.6 956.256 4703.95C955.994 4704.26 955.536 4704.52 954.882 4704.74C954.271 4704.96 953.442 4705.11 952.396 4705.2C951.349 4705.33 950.018 4705.39 948.404 4705.39C946.79 4705.39 945.46 4705.33 944.413 4705.2C943.366 4705.11 942.516 4704.96 941.861 4704.74C941.251 4704.52 940.814 4704.26 940.553 4703.95C940.291 4703.6 940.16 4703.21 940.16 4702.78V4644.54C940.16 4644.11 940.291 4643.74 940.553 4643.43C940.814 4643.08 941.251 4642.8 941.861 4642.58C942.516 4642.32 943.366 4642.12 944.413 4641.99C945.46 4641.86 946.79 4641.79 948.404 4641.79C950.018 4641.79 951.349 4641.86 952.396 4641.99C953.442 4642.12 954.271 4642.32 954.882 4642.58C955.536 4642.8 955.994 4643.08 956.256 4643.43C956.518 4643.74 956.648 4644.11 956.648 4644.54V4702.78ZM957.892 4624.65C957.892 4627.97 957.215 4630.26 955.863 4631.52C954.511 4632.79 952.003 4633.42 948.339 4633.42C944.631 4633.42 942.123 4632.81 940.814 4631.59C939.549 4630.37 938.917 4628.16 938.917 4624.98C938.917 4621.66 939.571 4619.37 940.88 4618.11C942.232 4616.8 944.762 4616.15 948.47 4616.15C952.134 4616.15 954.62 4616.78 955.929 4618.04C957.237 4619.27 957.892 4621.47 957.892 4624.65ZM1017.3 4693.48C1017.3 4694.62 1017.26 4695.58 1017.17 4696.36C1017.13 4697.1 1017.04 4697.74 1016.91 4698.26C1016.82 4698.78 1016.69 4699.22 1016.52 4699.57C1016.39 4699.87 1016.06 4700.29 1015.54 4700.81C1015.01 4701.29 1014.12 4701.9 1012.85 4702.64C1011.59 4703.34 1010.15 4703.97 1008.53 4704.54C1006.92 4705.11 1005.15 4705.57 1003.23 4705.92C1001.36 4706.26 999.418 4706.44 997.411 4706.44C992.918 4706.44 988.927 4705.74 985.438 4704.35C981.992 4702.95 979.091 4700.9 976.735 4698.2C974.38 4695.45 972.591 4692.11 971.37 4688.18C970.192 4684.26 969.604 4679.77 969.604 4674.71C969.604 4668.86 970.323 4663.82 971.763 4659.59C973.246 4655.32 975.296 4651.78 977.913 4648.99C980.53 4646.2 983.627 4644.13 987.204 4642.78C990.781 4641.42 994.707 4640.75 998.981 4640.75C1000.73 4640.75 1002.43 4640.9 1004.08 4641.21C1005.79 4641.51 1007.36 4641.93 1008.8 4642.45C1010.28 4642.97 1011.59 4643.56 1012.72 4644.22C1013.9 4644.87 1014.73 4645.44 1015.21 4645.92C1015.69 4646.4 1016.01 4646.81 1016.19 4647.16C1016.41 4647.47 1016.56 4647.88 1016.65 4648.4C1016.78 4648.93 1016.87 4649.58 1016.91 4650.37C1017 4651.11 1017.04 4652.02 1017.04 4653.11C1017.04 4655.64 1016.82 4657.43 1016.39 4658.48C1015.95 4659.48 1015.38 4659.98 1014.68 4659.98C1013.94 4659.98 1013.16 4659.68 1012.33 4659.07C1011.5 4658.46 1010.52 4657.78 1009.38 4657.04C1008.25 4656.3 1006.9 4655.62 1005.33 4655.01C1003.76 4654.4 1001.88 4654.1 999.701 4654.1C995.426 4654.1 992.155 4655.75 989.887 4659.07C987.618 4662.34 986.484 4667.16 986.484 4673.53C986.484 4676.67 986.768 4679.44 987.335 4681.84C987.902 4684.24 988.731 4686.24 989.821 4687.86C990.955 4689.47 992.351 4690.69 994.009 4691.52C995.71 4692.31 997.673 4692.7 999.897 4692.7C1002.17 4692.7 1004.11 4692.37 1005.72 4691.72C1007.38 4691.02 1008.82 4690.26 1010.04 4689.43C1011.26 4688.6 1012.29 4687.86 1013.11 4687.2C1013.94 4686.51 1014.64 4686.16 1015.21 4686.16C1015.6 4686.16 1015.93 4686.27 1016.19 4686.48C1016.45 4686.7 1016.65 4687.12 1016.78 4687.73C1016.95 4688.29 1017.08 4689.04 1017.17 4689.95C1017.26 4690.87 1017.3 4692.04 1017.3 4693.48ZM1083.19 4671.89C1083.19 4673.9 1082.73 4675.38 1081.82 4676.34C1080.94 4677.3 1079.72 4677.78 1078.15 4677.78H1042.62C1042.62 4680.27 1042.91 4682.54 1043.47 4684.59C1044.08 4686.59 1045.02 4688.32 1046.29 4689.75C1047.6 4691.15 1049.25 4692.22 1051.26 4692.96C1053.31 4693.7 1055.75 4694.07 1058.59 4694.07C1061.47 4694.07 1064 4693.88 1066.18 4693.48C1068.36 4693.05 1070.23 4692.59 1071.8 4692.11C1073.42 4691.59 1074.75 4691.13 1075.8 4690.74C1076.84 4690.3 1077.69 4690.08 1078.35 4690.08C1078.74 4690.08 1079.07 4690.17 1079.33 4690.34C1079.59 4690.47 1079.81 4690.74 1079.98 4691.13C1080.16 4691.52 1080.27 4692.09 1080.31 4692.83C1080.4 4693.53 1080.44 4694.42 1080.44 4695.51C1080.44 4696.47 1080.42 4697.3 1080.38 4698C1080.33 4698.65 1080.27 4699.22 1080.18 4699.7C1080.09 4700.18 1079.96 4700.59 1079.79 4700.94C1079.61 4701.25 1079.37 4701.55 1079.07 4701.86C1078.81 4702.16 1078.04 4702.58 1076.78 4703.1C1075.51 4703.63 1073.9 4704.15 1071.94 4704.67C1069.97 4705.15 1067.73 4705.57 1065.2 4705.92C1062.67 4706.31 1059.96 4706.5 1057.08 4706.5C1051.89 4706.5 1047.33 4705.85 1043.41 4704.54C1039.53 4703.23 1036.28 4701.25 1033.66 4698.59C1031.04 4695.93 1029.08 4692.57 1027.77 4688.51C1026.51 4684.46 1025.87 4679.7 1025.87 4674.25C1025.87 4669.06 1026.55 4664.39 1027.9 4660.25C1029.25 4656.06 1031.22 4652.53 1033.79 4649.65C1036.36 4646.72 1039.48 4644.5 1043.15 4642.97C1046.85 4641.45 1051.02 4640.68 1055.64 4640.68C1060.53 4640.68 1064.69 4641.4 1068.14 4642.84C1071.63 4644.28 1074.49 4646.29 1076.71 4648.86C1078.94 4651.39 1080.57 4654.4 1081.62 4657.89C1082.67 4661.38 1083.19 4665.18 1083.19 4669.28V4671.89ZM1067.22 4667.18C1067.36 4662.56 1066.42 4658.94 1064.41 4656.32C1062.45 4653.66 1059.39 4652.33 1055.25 4652.33C1053.16 4652.33 1051.33 4652.72 1049.75 4653.51C1048.23 4654.29 1046.94 4655.36 1045.89 4656.71C1044.89 4658.02 1044.11 4659.59 1043.54 4661.42C1043.02 4663.21 1042.71 4665.13 1042.62 4667.18H1067.22ZM1152.54 4702.78C1152.54 4703.21 1152.41 4703.6 1152.15 4703.95C1151.89 4704.26 1151.45 4704.52 1150.84 4704.74C1150.23 4704.96 1149.38 4705.11 1148.29 4705.2C1147.25 4705.33 1145.94 4705.39 1144.37 4705.39C1142.75 4705.39 1141.4 4705.33 1140.31 4705.2C1139.26 4705.11 1138.43 4704.96 1137.82 4704.74C1137.21 4704.52 1136.78 4704.26 1136.51 4703.95C1136.25 4703.6 1136.12 4703.21 1136.12 4702.78V4669.47C1136.12 4666.64 1135.9 4664.41 1135.47 4662.8C1135.08 4661.18 1134.49 4659.81 1133.7 4658.68C1132.92 4657.5 1131.89 4656.6 1130.63 4655.99C1129.4 4655.34 1127.97 4655.01 1126.31 4655.01C1124.21 4655.01 1122.1 4655.78 1119.96 4657.3C1117.82 4658.83 1115.6 4661.05 1113.29 4663.98V4702.78C1113.29 4703.21 1113.16 4703.6 1112.89 4703.95C1112.63 4704.26 1112.17 4704.52 1111.52 4704.74C1110.91 4704.96 1110.08 4705.11 1109.03 4705.2C1107.99 4705.33 1106.66 4705.39 1105.04 4705.39C1103.43 4705.39 1102.1 4705.33 1101.05 4705.2C1100 4705.11 1099.15 4704.96 1098.5 4704.74C1097.89 4704.52 1097.45 4704.26 1097.19 4703.95C1096.93 4703.6 1096.8 4703.21 1096.8 4702.78V4644.41C1096.8 4643.98 1096.91 4643.61 1097.13 4643.3C1097.34 4642.95 1097.74 4642.67 1098.3 4642.45C1098.87 4642.23 1099.59 4642.08 1100.46 4641.99C1101.38 4641.86 1102.51 4641.79 1103.87 4641.79C1105.26 4641.79 1106.42 4641.86 1107.33 4641.99C1108.25 4642.08 1108.95 4642.23 1109.43 4642.45C1109.95 4642.67 1110.32 4642.95 1110.54 4643.3C1110.76 4643.61 1110.87 4643.98 1110.87 4644.41V4651.15C1114.09 4647.66 1117.37 4645.04 1120.68 4643.3C1124.04 4641.56 1127.53 4640.68 1131.15 4640.68C1135.12 4640.68 1138.46 4641.34 1141.16 4642.65C1143.91 4643.95 1146.11 4645.74 1147.77 4648.01C1149.47 4650.24 1150.69 4652.85 1151.43 4655.86C1152.17 4658.87 1152.54 4662.49 1152.54 4666.72V4702.78ZM1209.86 4686.29C1209.86 4689.6 1209.23 4692.52 1207.96 4695.05C1206.74 4697.58 1205 4699.7 1202.73 4701.4C1200.46 4703.1 1197.78 4704.37 1194.68 4705.2C1191.58 4706.07 1188.23 4706.5 1184.61 4706.5C1182.42 4706.5 1180.33 4706.33 1178.32 4705.98C1176.36 4705.68 1174.59 4705.28 1173.02 4704.8C1171.45 4704.28 1170.15 4703.76 1169.1 4703.23C1168.05 4702.71 1167.29 4702.23 1166.81 4701.79C1166.33 4701.31 1165.96 4700.59 1165.7 4699.63C1165.43 4698.63 1165.3 4697.17 1165.3 4695.25C1165.3 4693.99 1165.35 4692.98 1165.43 4692.24C1165.52 4691.46 1165.65 4690.85 1165.83 4690.41C1166 4689.93 1166.22 4689.62 1166.48 4689.49C1166.74 4689.32 1167.07 4689.23 1167.46 4689.23C1167.94 4689.23 1168.64 4689.51 1169.56 4690.08C1170.52 4690.61 1171.69 4691.19 1173.09 4691.85C1174.49 4692.5 1176.1 4693.11 1177.93 4693.68C1179.81 4694.25 1181.92 4694.53 1184.28 4694.53C1185.76 4694.53 1187.07 4694.38 1188.2 4694.07C1189.38 4693.77 1190.39 4693.33 1191.21 4692.76C1192.09 4692.2 1192.74 4691.48 1193.18 4690.61C1193.61 4689.73 1193.83 4688.73 1193.83 4687.6C1193.83 4686.29 1193.42 4685.17 1192.59 4684.26C1191.8 4683.3 1190.73 4682.47 1189.38 4681.77C1188.07 4681.07 1186.57 4680.42 1184.87 4679.81C1183.21 4679.2 1181.49 4678.52 1179.7 4677.78C1177.95 4677.04 1176.23 4676.19 1174.53 4675.23C1172.87 4674.27 1171.37 4673.09 1170.01 4671.7C1168.71 4670.3 1167.64 4668.62 1166.81 4666.66C1166.02 4664.7 1165.63 4662.34 1165.63 4659.59C1165.63 4656.8 1166.18 4654.25 1167.27 4651.94C1168.36 4649.58 1169.93 4647.57 1171.98 4645.92C1174.03 4644.26 1176.51 4642.97 1179.44 4642.06C1182.4 4641.14 1185.72 4640.68 1189.38 4640.68C1191.21 4640.68 1192.98 4640.81 1194.68 4641.08C1196.43 4641.34 1198 4641.66 1199.39 4642.06C1200.79 4642.45 1201.97 4642.89 1202.93 4643.37C1203.89 4643.8 1204.56 4644.19 1204.95 4644.54C1205.39 4644.85 1205.7 4645.18 1205.87 4645.52C1206.04 4645.83 1206.18 4646.22 1206.26 4646.7C1206.35 4647.14 1206.42 4647.71 1206.46 4648.4C1206.55 4649.06 1206.59 4649.89 1206.59 4650.89C1206.59 4652.07 1206.55 4653.03 1206.46 4653.77C1206.42 4654.51 1206.31 4655.1 1206.13 4655.54C1206 4655.97 1205.8 4656.28 1205.54 4656.45C1205.28 4656.58 1204.98 4656.65 1204.63 4656.65C1204.23 4656.65 1203.62 4656.43 1202.79 4655.99C1201.97 4655.51 1200.92 4655.01 1199.65 4654.49C1198.43 4653.96 1196.99 4653.49 1195.34 4653.05C1193.72 4652.57 1191.87 4652.33 1189.77 4652.33C1188.29 4652.33 1187 4652.48 1185.91 4652.79C1184.82 4653.09 1183.93 4653.53 1183.23 4654.1C1182.53 4654.66 1182.01 4655.34 1181.66 4656.12C1181.31 4656.87 1181.14 4657.67 1181.14 4658.54C1181.14 4659.9 1181.55 4661.03 1182.38 4661.95C1183.21 4662.86 1184.3 4663.67 1185.65 4664.37C1187 4665.07 1188.53 4665.72 1190.23 4666.33C1191.98 4666.94 1193.72 4667.62 1195.47 4668.36C1197.26 4669.06 1199 4669.89 1200.7 4670.85C1202.45 4671.81 1203.99 4672.98 1205.35 4674.38C1206.7 4675.77 1207.79 4677.45 1208.62 4679.42C1209.45 4681.34 1209.86 4683.63 1209.86 4686.29ZM1276.21 4671.89C1276.21 4673.9 1275.75 4675.38 1274.83 4676.34C1273.96 4677.3 1272.74 4677.78 1271.17 4677.78H1235.64C1235.64 4680.27 1235.92 4682.54 1236.49 4684.59C1237.1 4686.59 1238.04 4688.32 1239.3 4689.75C1240.61 4691.15 1242.27 4692.22 1244.28 4692.96C1246.33 4693.7 1248.77 4694.07 1251.61 4694.07C1254.48 4694.07 1257.01 4693.88 1259.2 4693.48C1261.38 4693.05 1263.25 4692.59 1264.82 4692.11C1266.44 4691.59 1267.77 4691.13 1268.81 4690.74C1269.86 4690.3 1270.71 4690.08 1271.37 4690.08C1271.76 4690.08 1272.08 4690.17 1272.35 4690.34C1272.61 4690.47 1272.83 4690.74 1273 4691.13C1273.18 4691.52 1273.28 4692.09 1273.33 4692.83C1273.42 4693.53 1273.46 4694.42 1273.46 4695.51C1273.46 4696.47 1273.44 4697.3 1273.39 4698C1273.35 4698.65 1273.28 4699.22 1273.2 4699.7C1273.11 4700.18 1272.98 4700.59 1272.8 4700.94C1272.63 4701.25 1272.39 4701.55 1272.08 4701.86C1271.82 4702.16 1271.06 4702.58 1269.79 4703.1C1268.53 4703.63 1266.92 4704.15 1264.95 4704.67C1262.99 4705.15 1260.74 4705.57 1258.21 4705.92C1255.68 4706.31 1252.98 4706.5 1250.1 4706.5C1244.91 4706.5 1240.35 4705.85 1236.43 4704.54C1232.54 4703.23 1229.29 4701.25 1226.68 4698.59C1224.06 4695.93 1222.1 4692.57 1220.79 4688.51C1219.52 4684.46 1218.89 4679.7 1218.89 4674.25C1218.89 4669.06 1219.57 4664.39 1220.92 4660.25C1222.27 4656.06 1224.23 4652.53 1226.81 4649.65C1229.38 4646.72 1232.5 4644.5 1236.16 4642.97C1239.87 4641.45 1244.04 4640.68 1248.66 4640.68C1253.55 4640.68 1257.71 4641.4 1261.16 4642.84C1264.65 4644.28 1267.5 4646.29 1269.73 4648.86C1271.95 4651.39 1273.59 4654.4 1274.64 4657.89C1275.68 4661.38 1276.21 4665.18 1276.21 4669.28V4671.89ZM1260.24 4667.18C1260.37 4662.56 1259.44 4658.94 1257.43 4656.32C1255.47 4653.66 1252.41 4652.33 1248.27 4652.33C1246.17 4652.33 1244.34 4652.72 1242.77 4653.51C1241.25 4654.29 1239.96 4655.36 1238.91 4656.71C1237.91 4658.02 1237.12 4659.59 1236.56 4661.42C1236.03 4663.21 1235.73 4665.13 1235.64 4667.18H1260.24ZM1390.97 4698.98C1390.97 4699.98 1390.8 4700.88 1390.45 4701.66C1390.1 4702.45 1389.62 4703.1 1389.01 4703.63C1388.44 4704.15 1387.74 4704.54 1386.91 4704.8C1386.13 4705.02 1385.32 4705.13 1384.49 4705.13H1377.17C1375.64 4705.13 1374.31 4704.98 1373.17 4704.67C1372.08 4704.37 1371.06 4703.82 1370.1 4703.04C1369.18 4702.21 1368.29 4701.12 1367.42 4699.77C1366.54 4698.37 1365.56 4696.58 1364.47 4694.4L1343.4 4654.82C1342.18 4652.46 1340.94 4649.93 1339.67 4647.23C1338.41 4644.48 1337.27 4641.82 1336.27 4639.24H1336.14C1336.32 4642.38 1336.45 4645.52 1336.53 4648.67C1336.62 4651.76 1336.66 4654.97 1336.66 4658.28V4702.58C1336.66 4703.02 1336.53 4703.41 1336.27 4703.76C1336.05 4704.11 1335.64 4704.41 1335.03 4704.67C1334.46 4704.89 1333.68 4705.07 1332.67 4705.2C1331.67 4705.33 1330.38 4705.39 1328.81 4705.39C1327.29 4705.39 1326.02 4705.33 1325.02 4705.2C1324.01 4705.07 1323.23 4704.89 1322.66 4704.67C1322.1 4704.41 1321.7 4704.11 1321.48 4703.76C1321.27 4703.41 1321.16 4703.02 1321.16 4702.58V4626.48C1321.16 4624.43 1321.75 4622.91 1322.92 4621.9C1324.15 4620.86 1325.63 4620.33 1327.37 4620.33H1336.6C1338.26 4620.33 1339.65 4620.49 1340.79 4620.79C1341.92 4621.05 1342.92 4621.51 1343.8 4622.17C1344.71 4622.82 1345.56 4623.74 1346.35 4624.91C1347.13 4626.05 1347.94 4627.47 1348.77 4629.17L1365.26 4660.12C1366.22 4661.99 1367.15 4663.84 1368.07 4665.68C1369.03 4667.47 1369.95 4669.28 1370.82 4671.11C1371.69 4672.9 1372.54 4674.66 1373.37 4676.41C1374.2 4678.15 1375.01 4679.9 1375.79 4681.64H1375.86C1375.73 4678.59 1375.62 4675.4 1375.53 4672.09C1375.49 4668.77 1375.46 4665.61 1375.46 4662.6V4622.89C1375.46 4622.45 1375.59 4622.06 1375.86 4621.71C1376.12 4621.36 1376.55 4621.05 1377.17 4620.79C1377.78 4620.53 1378.58 4620.36 1379.59 4620.27C1380.59 4620.14 1381.88 4620.07 1383.45 4620.07C1384.93 4620.07 1386.17 4620.14 1387.18 4620.27C1388.18 4620.36 1388.94 4620.53 1389.47 4620.79C1390.03 4621.05 1390.43 4621.36 1390.64 4621.71C1390.86 4622.06 1390.97 4622.45 1390.97 4622.89V4698.98ZM1463.86 4702.78C1463.86 4703.21 1463.75 4703.6 1463.53 4703.95C1463.31 4704.26 1462.92 4704.52 1462.35 4704.74C1461.83 4704.96 1461.11 4705.11 1460.2 4705.2C1459.32 4705.33 1458.21 4705.39 1456.86 4705.39C1455.42 4705.39 1454.24 4705.33 1453.33 4705.2C1452.45 4705.11 1451.75 4704.96 1451.23 4704.74C1450.71 4704.52 1450.34 4704.26 1450.12 4703.95C1449.9 4703.6 1449.79 4703.21 1449.79 4702.78V4696.04C1446.56 4699.53 1443.27 4702.14 1439.91 4703.89C1436.6 4705.63 1433.15 4706.5 1429.57 4706.5C1425.56 4706.5 1422.18 4705.85 1419.43 4704.54C1416.73 4703.23 1414.53 4701.44 1412.82 4699.18C1411.17 4696.91 1409.97 4694.29 1409.23 4691.33C1408.53 4688.32 1408.18 4684.59 1408.18 4680.14V4644.41C1408.18 4643.98 1408.29 4643.61 1408.51 4643.3C1408.77 4642.95 1409.2 4642.67 1409.81 4642.45C1410.47 4642.23 1411.32 4642.08 1412.37 4641.99C1413.46 4641.86 1414.79 4641.79 1416.36 4641.79C1417.97 4641.79 1419.3 4641.86 1420.35 4641.99C1421.4 4642.08 1422.22 4642.23 1422.83 4642.45C1423.49 4642.67 1423.95 4642.95 1424.21 4643.3C1424.47 4643.61 1424.6 4643.98 1424.6 4644.41V4677.39C1424.6 4680.44 1424.8 4682.78 1425.19 4684.39C1425.58 4686 1426.17 4687.4 1426.96 4688.58C1427.79 4689.71 1428.81 4690.61 1430.03 4691.26C1431.3 4691.87 1432.76 4692.18 1434.42 4692.18C1436.51 4692.18 1438.6 4691.41 1440.7 4689.89C1442.83 4688.36 1445.1 4686.13 1447.5 4683.21V4644.41C1447.5 4643.98 1447.61 4643.61 1447.83 4643.3C1448.09 4642.95 1448.53 4642.67 1449.14 4642.45C1449.79 4642.23 1450.64 4642.08 1451.69 4641.99C1452.74 4641.86 1454.07 4641.79 1455.68 4641.79C1457.29 4641.79 1458.62 4641.86 1459.67 4641.99C1460.72 4642.08 1461.55 4642.23 1462.16 4642.45C1462.77 4642.67 1463.21 4642.95 1463.47 4643.3C1463.73 4643.61 1463.86 4643.98 1463.86 4644.41V4702.78ZM1573.32 4702.78C1573.32 4703.21 1573.19 4703.6 1572.93 4703.95C1572.67 4704.26 1572.23 4704.52 1571.62 4704.74C1571.01 4704.96 1570.18 4705.11 1569.14 4705.2C1568.09 4705.33 1566.76 4705.39 1565.14 4705.39C1563.49 4705.39 1562.13 4705.33 1561.09 4705.2C1560.04 4705.11 1559.19 4704.96 1558.54 4704.74C1557.93 4704.52 1557.49 4704.26 1557.23 4703.95C1557.01 4703.6 1556.9 4703.21 1556.9 4702.78V4668.16C1556.9 4666.2 1556.7 4664.41 1556.31 4662.8C1555.96 4661.18 1555.4 4659.81 1554.61 4658.68C1553.87 4657.5 1552.91 4656.6 1551.73 4655.99C1550.6 4655.34 1549.22 4655.01 1547.61 4655.01C1545.65 4655.01 1543.66 4655.78 1541.66 4657.3C1539.65 4658.83 1537.47 4661.05 1535.11 4663.98V4702.78C1535.11 4703.21 1534.98 4703.6 1534.72 4703.95C1534.46 4704.26 1534 4704.52 1533.35 4704.74C1532.74 4704.96 1531.91 4705.11 1530.86 4705.2C1529.81 4705.33 1528.5 4705.39 1526.93 4705.39C1525.32 4705.39 1523.99 4705.33 1522.94 4705.2C1521.9 4705.11 1521.04 4704.96 1520.39 4704.74C1519.78 4704.52 1519.34 4704.26 1519.08 4703.95C1518.82 4703.6 1518.69 4703.21 1518.69 4702.78V4668.16C1518.69 4666.2 1518.49 4664.41 1518.1 4662.8C1517.75 4661.18 1517.21 4659.81 1516.46 4658.68C1515.72 4657.5 1514.76 4656.6 1513.59 4655.99C1512.41 4655.34 1511.03 4655.01 1509.46 4655.01C1507.46 4655.01 1505.45 4655.78 1503.44 4657.3C1501.44 4658.83 1499.28 4661.05 1496.97 4663.98V4702.78C1496.97 4703.21 1496.84 4703.6 1496.57 4703.95C1496.31 4704.26 1495.85 4704.52 1495.2 4704.74C1494.59 4704.96 1493.76 4705.11 1492.71 4705.2C1491.67 4705.33 1490.34 4705.39 1488.72 4705.39C1487.11 4705.39 1485.78 4705.33 1484.73 4705.2C1483.68 4705.11 1482.83 4704.96 1482.18 4704.74C1481.57 4704.52 1481.13 4704.26 1480.87 4703.95C1480.61 4703.6 1480.48 4703.21 1480.48 4702.78V4644.41C1480.48 4643.98 1480.59 4643.61 1480.81 4643.3C1481.02 4642.95 1481.42 4642.67 1481.98 4642.45C1482.55 4642.23 1483.27 4642.08 1484.14 4641.99C1485.06 4641.86 1486.19 4641.79 1487.54 4641.79C1488.94 4641.79 1490.1 4641.86 1491.01 4641.99C1491.93 4642.08 1492.63 4642.23 1493.11 4642.45C1493.63 4642.67 1494 4642.95 1494.22 4643.3C1494.44 4643.61 1494.55 4643.98 1494.55 4644.41V4651.15C1497.77 4647.66 1500.98 4645.04 1504.16 4643.3C1507.39 4641.56 1510.75 4640.68 1514.24 4640.68C1516.64 4640.68 1518.8 4640.94 1520.72 4641.47C1522.64 4641.95 1524.34 4642.67 1525.82 4643.63C1527.35 4644.54 1528.66 4645.66 1529.75 4646.96C1530.84 4648.27 1531.75 4649.73 1532.5 4651.35C1534.24 4649.47 1535.94 4647.86 1537.6 4646.51C1539.3 4645.15 1540.96 4644.06 1542.57 4643.23C1544.23 4642.36 1545.86 4641.73 1547.48 4641.34C1549.14 4640.9 1550.82 4640.68 1552.52 4640.68C1556.4 4640.68 1559.67 4641.34 1562.33 4642.65C1564.99 4643.95 1567.13 4645.74 1568.74 4648.01C1570.4 4650.24 1571.58 4652.85 1572.28 4655.86C1572.97 4658.87 1573.32 4662.06 1573.32 4665.42V4702.78ZM1648.24 4672.81C1648.24 4678 1647.67 4682.67 1646.54 4686.81C1645.4 4690.95 1643.77 4694.49 1641.63 4697.41C1639.49 4700.33 1636.86 4702.58 1633.71 4704.15C1630.62 4705.72 1627.08 4706.5 1623.12 4706.5C1621.15 4706.5 1619.32 4706.31 1617.62 4705.92C1615.92 4705.57 1614.28 4704.98 1612.71 4704.15C1611.19 4703.32 1609.66 4702.27 1608.13 4701.01C1606.65 4699.74 1605.12 4698.22 1603.55 4696.43V4702.78C1603.55 4703.26 1603.42 4703.67 1603.16 4704.02C1602.94 4704.32 1602.55 4704.59 1601.98 4704.8C1601.46 4705.02 1600.74 4705.17 1599.82 4705.26C1598.91 4705.35 1597.79 4705.39 1596.49 4705.39C1595.13 4705.39 1594 4705.35 1593.08 4705.26C1592.21 4705.17 1591.49 4705.02 1590.92 4704.8C1590.4 4704.59 1590.03 4704.32 1589.81 4704.02C1589.59 4703.67 1589.48 4703.26 1589.48 4702.78V4616.74C1589.48 4616.3 1589.62 4615.91 1589.88 4615.56C1590.14 4615.21 1590.57 4614.93 1591.19 4614.71C1591.84 4614.45 1592.69 4614.25 1593.74 4614.12C1594.78 4613.99 1596.11 4613.92 1597.73 4613.92C1599.34 4613.92 1600.67 4613.99 1601.72 4614.12C1602.77 4614.25 1603.6 4614.45 1604.21 4614.71C1604.86 4614.93 1605.32 4615.21 1605.58 4615.56C1605.84 4615.91 1605.97 4616.3 1605.97 4616.74V4648.99C1607.46 4647.51 1608.94 4646.24 1610.42 4645.2C1611.9 4644.15 1613.39 4643.3 1614.87 4642.65C1616.35 4641.95 1617.88 4641.45 1619.45 4641.14C1621.02 4640.84 1622.68 4640.68 1624.42 4640.68C1628.74 4640.68 1632.41 4641.56 1635.42 4643.3C1638.43 4645 1640.87 4647.31 1642.74 4650.24C1644.66 4653.16 1646.06 4656.58 1646.93 4660.51C1647.8 4664.39 1648.24 4668.49 1648.24 4672.81ZM1631.16 4673.99C1631.16 4671.5 1630.97 4669.1 1630.57 4666.79C1630.23 4664.48 1629.59 4662.43 1628.68 4660.64C1627.76 4658.85 1626.56 4657.43 1625.08 4656.39C1623.64 4655.3 1621.81 4654.75 1619.58 4654.75C1618.49 4654.75 1617.42 4654.9 1616.38 4655.21C1615.33 4655.51 1614.24 4656.04 1613.1 4656.78C1612.01 4657.52 1610.88 4658.48 1609.7 4659.66C1608.52 4660.83 1607.28 4662.3 1605.97 4664.04V4683.41C1608.28 4686.37 1610.49 4688.64 1612.58 4690.21C1614.72 4691.74 1616.94 4692.5 1619.25 4692.5C1621.39 4692.5 1623.2 4691.96 1624.69 4690.87C1626.17 4689.78 1627.39 4688.36 1628.35 4686.61C1629.35 4684.87 1630.07 4682.88 1630.51 4680.66C1630.94 4678.44 1631.16 4676.21 1631.16 4673.99ZM1715.37 4671.89C1715.37 4673.9 1714.91 4675.38 1714 4676.34C1713.12 4677.3 1711.9 4677.78 1710.33 4677.78H1674.8C1674.8 4680.27 1675.09 4682.54 1675.66 4684.59C1676.27 4686.59 1677.2 4688.32 1678.47 4689.75C1679.78 4691.15 1681.43 4692.22 1683.44 4692.96C1685.49 4693.7 1687.93 4694.07 1690.77 4694.07C1693.65 4694.07 1696.18 4693.88 1698.36 4693.48C1700.54 4693.05 1702.42 4692.59 1703.99 4692.11C1705.6 4691.59 1706.93 4691.13 1707.98 4690.74C1709.02 4690.3 1709.88 4690.08 1710.53 4690.08C1710.92 4690.08 1711.25 4690.17 1711.51 4690.34C1711.77 4690.47 1711.99 4690.74 1712.17 4691.13C1712.34 4691.52 1712.45 4692.09 1712.49 4692.83C1712.58 4693.53 1712.62 4694.42 1712.62 4695.51C1712.62 4696.47 1712.6 4697.3 1712.56 4698C1712.51 4698.65 1712.45 4699.22 1712.36 4699.7C1712.27 4700.18 1712.14 4700.59 1711.97 4700.94C1711.79 4701.25 1711.55 4701.55 1711.25 4701.86C1710.99 4702.16 1710.22 4702.58 1708.96 4703.1C1707.69 4703.63 1706.08 4704.15 1704.12 4704.67C1702.15 4705.15 1699.91 4705.57 1697.38 4705.92C1694.85 4706.31 1692.14 4706.5 1689.26 4706.5C1684.07 4706.5 1679.52 4705.85 1675.59 4704.54C1671.71 4703.23 1668.46 4701.25 1665.84 4698.59C1663.22 4695.93 1661.26 4692.57 1659.95 4688.51C1658.69 4684.46 1658.05 4679.7 1658.05 4674.25C1658.05 4669.06 1658.73 4664.39 1660.08 4660.25C1661.44 4656.06 1663.4 4652.53 1665.97 4649.65C1668.55 4646.72 1671.66 4644.5 1675.33 4642.97C1679.04 4641.45 1683.2 4640.68 1687.83 4640.68C1692.71 4640.68 1696.88 4641.4 1700.32 4642.84C1703.81 4644.28 1706.67 4646.29 1708.89 4648.86C1711.12 4651.39 1712.75 4654.4 1713.8 4657.89C1714.85 4661.38 1715.37 4665.18 1715.37 4669.28V4671.89ZM1699.41 4667.18C1699.54 4662.56 1698.6 4658.94 1696.59 4656.32C1694.63 4653.66 1691.58 4652.33 1687.43 4652.33C1685.34 4652.33 1683.51 4652.72 1681.94 4653.51C1680.41 4654.29 1679.12 4655.36 1678.08 4656.71C1677.07 4658.02 1676.29 4659.59 1675.72 4661.42C1675.2 4663.21 1674.89 4665.13 1674.8 4667.18H1699.41ZM1766.47 4649.84C1766.47 4651.41 1766.43 4652.7 1766.34 4653.7C1766.25 4654.71 1766.12 4655.49 1765.95 4656.06C1765.77 4656.63 1765.53 4657.02 1765.23 4657.24C1764.97 4657.45 1764.62 4657.56 1764.18 4657.56C1763.83 4657.56 1763.44 4657.5 1763 4657.37C1762.57 4657.19 1762.07 4657.02 1761.5 4656.84C1760.98 4656.67 1760.39 4656.52 1759.73 4656.39C1759.08 4656.21 1758.36 4656.12 1757.57 4656.12C1756.66 4656.12 1755.74 4656.32 1754.83 4656.71C1753.91 4657.06 1752.95 4657.63 1751.95 4658.41C1750.99 4659.2 1749.96 4660.25 1748.87 4661.55C1747.82 4662.86 1746.69 4664.48 1745.47 4666.4V4702.78C1745.47 4703.21 1745.34 4703.6 1745.08 4703.95C1744.81 4704.26 1744.36 4704.52 1743.7 4704.74C1743.09 4704.96 1742.26 4705.11 1741.22 4705.2C1740.17 4705.33 1738.84 4705.39 1737.22 4705.39C1735.61 4705.39 1734.28 4705.33 1733.23 4705.2C1732.19 4705.11 1731.34 4704.96 1730.68 4704.74C1730.07 4704.52 1729.63 4704.26 1729.37 4703.95C1729.11 4703.6 1728.98 4703.21 1728.98 4702.78V4644.41C1728.98 4643.98 1729.09 4643.61 1729.31 4643.3C1729.53 4642.95 1729.92 4642.67 1730.49 4642.45C1731.05 4642.23 1731.77 4642.08 1732.64 4641.99C1733.56 4641.86 1734.69 4641.79 1736.05 4641.79C1737.44 4641.79 1738.6 4641.86 1739.51 4641.99C1740.43 4642.08 1741.13 4642.23 1741.61 4642.45C1742.13 4642.67 1742.5 4642.95 1742.72 4643.3C1742.94 4643.61 1743.05 4643.98 1743.05 4644.41V4651.67C1744.57 4649.49 1746.01 4647.71 1747.37 4646.31C1748.72 4644.87 1750.01 4643.74 1751.23 4642.91C1752.45 4642.08 1753.67 4641.51 1754.89 4641.21C1756.11 4640.86 1757.33 4640.68 1758.55 4640.68C1759.12 4640.68 1759.73 4640.73 1760.39 4640.81C1761.04 4640.86 1761.72 4640.97 1762.42 4641.14C1763.11 4641.27 1763.72 4641.45 1764.25 4641.66C1764.77 4641.84 1765.14 4642.03 1765.36 4642.25C1765.62 4642.47 1765.8 4642.71 1765.88 4642.97C1766.01 4643.23 1766.12 4643.61 1766.21 4644.08C1766.3 4644.52 1766.36 4645.2 1766.41 4646.11C1766.45 4647.03 1766.47 4648.27 1766.47 4649.84Z" fill="black"/>
</svg>
