<svg width="6900" height="5209" viewBox="0 0 6900 5209" fill="none" xmlns="http://www.w3.org/2000/svg">
<path d="M691.684 4504.65C691.684 4506.89 691.571 4508.8 691.347 4510.37C691.197 4511.87 690.935 4513.14 690.561 4514.19C690.186 4515.17 689.7 4515.88 689.101 4516.33C688.576 4516.78 687.94 4517 687.191 4517H620.595C618.124 4517 616.028 4516.29 614.306 4514.87C612.659 4513.37 611.835 4510.97 611.835 4507.68V4375.72C611.835 4374.97 612.06 4374.3 612.509 4373.7C613.033 4373.1 613.856 4372.61 614.979 4372.24C616.103 4371.86 617.6 4371.57 619.472 4371.34C621.418 4371.12 623.814 4371 626.659 4371C629.579 4371 631.975 4371.12 633.847 4371.34C635.718 4371.57 637.216 4371.86 638.339 4372.24C639.462 4372.61 640.248 4373.1 640.697 4373.7C641.221 4374.3 641.483 4374.97 641.483 4375.72V4492.63H687.191C687.94 4492.63 688.576 4492.85 689.101 4493.3C689.7 4493.68 690.186 4494.35 690.561 4495.33C690.935 4496.22 691.197 4497.46 691.347 4499.03C691.571 4500.53 691.684 4502.4 691.684 4504.65ZM806.908 4494.99C806.908 4496.86 806.833 4498.47 806.684 4499.82C806.609 4501.09 806.459 4502.21 806.234 4503.19C806.01 4504.08 805.71 4504.87 805.336 4505.54C804.962 4506.22 804.363 4507 803.539 4507.9C802.715 4508.73 801.106 4509.81 798.71 4511.16C796.389 4512.51 793.507 4513.82 790.062 4515.09C786.693 4516.29 782.8 4517.3 778.383 4518.12C774.04 4518.95 769.324 4519.36 764.232 4519.36C754.275 4519.36 745.29 4517.82 737.279 4514.75C729.268 4511.68 722.455 4507.12 716.84 4501.05C711.225 4494.91 706.92 4487.28 703.925 4478.14C700.93 4469.01 699.433 4458.38 699.433 4446.25C699.433 4433.89 701.08 4422.93 704.374 4413.34C707.668 4403.76 712.273 4395.71 718.188 4389.2C724.102 4382.68 731.177 4377.74 739.413 4374.37C747.724 4371 756.858 4369.32 766.815 4369.32C770.858 4369.32 774.752 4369.66 778.495 4370.33C782.239 4371 785.683 4371.9 788.827 4373.03C792.047 4374.07 794.929 4375.31 797.475 4376.73C800.02 4378.15 801.78 4379.39 802.753 4380.44C803.801 4381.41 804.512 4382.23 804.887 4382.91C805.261 4383.58 805.561 4384.44 805.785 4385.49C806.01 4386.54 806.16 4387.77 806.234 4389.2C806.384 4390.62 806.459 4392.38 806.459 4394.48C806.459 4396.72 806.384 4398.63 806.234 4400.2C806.085 4401.78 805.823 4403.05 805.448 4404.02C805.074 4404.99 804.625 4405.71 804.101 4406.16C803.576 4406.6 802.978 4406.83 802.304 4406.83C801.181 4406.83 799.758 4406.19 798.036 4404.92C796.314 4403.57 794.068 4402.11 791.298 4400.54C788.603 4398.89 785.346 4397.43 781.527 4396.16C777.784 4394.81 773.292 4394.14 768.051 4394.14C762.286 4394.14 757.12 4395.34 752.553 4397.73C748.061 4400.05 744.205 4403.42 740.985 4407.84C737.841 4412.18 735.445 4417.46 733.798 4423.67C732.151 4429.89 731.327 4436.89 731.327 4444.68C731.327 4453.21 732.188 4460.62 733.91 4466.91C735.707 4473.13 738.215 4478.25 741.435 4482.3C744.729 4486.34 748.66 4489.37 753.227 4491.39C757.868 4493.34 763.072 4494.31 768.837 4494.31C774.078 4494.31 778.607 4493.72 782.426 4492.52C786.244 4491.24 789.501 4489.86 792.196 4488.36C794.966 4486.86 797.213 4485.52 798.935 4484.32C800.731 4483.12 802.117 4482.52 803.09 4482.52C803.839 4482.52 804.438 4482.67 804.887 4482.97C805.336 4483.27 805.71 4483.87 806.01 4484.77C806.309 4485.67 806.534 4486.94 806.684 4488.59C806.833 4490.16 806.908 4492.29 806.908 4494.99ZM947.963 4506.67C947.963 4508.39 947.663 4509.92 947.064 4511.27C946.465 4512.62 945.642 4513.74 944.594 4514.64C943.62 4515.54 942.423 4516.21 941 4516.66C939.652 4517.04 938.267 4517.22 936.845 4517.22H924.267C921.646 4517.22 919.363 4516.96 917.416 4516.44C915.544 4515.91 913.785 4514.98 912.138 4513.63C910.565 4512.21 909.031 4510.34 907.533 4508.02C906.036 4505.62 904.351 4502.55 902.479 4498.81L866.317 4430.86C864.221 4426.82 862.087 4422.48 859.916 4417.83C857.745 4413.12 855.798 4408.55 854.076 4404.13H853.852C854.151 4409.52 854.376 4414.92 854.525 4420.31C854.675 4425.62 854.75 4431.12 854.75 4436.81V4512.84C854.75 4513.59 854.525 4514.27 854.076 4514.87C853.702 4515.47 852.991 4515.99 851.942 4516.44C850.969 4516.81 849.621 4517.11 847.899 4517.34C846.177 4517.56 843.969 4517.67 841.273 4517.67C838.653 4517.67 836.482 4517.56 834.76 4517.34C833.038 4517.11 831.69 4516.81 830.717 4516.44C829.743 4515.99 829.07 4515.47 828.695 4514.87C828.321 4514.27 828.134 4513.59 828.134 4512.84V4382.23C828.134 4378.72 829.145 4376.1 831.166 4374.37C833.262 4372.58 835.808 4371.68 838.803 4371.68H854.638C857.483 4371.68 859.879 4371.94 861.825 4372.46C863.772 4372.91 865.494 4373.7 866.991 4374.82C868.563 4375.95 870.023 4377.52 871.371 4379.54C872.719 4381.49 874.104 4383.92 875.526 4386.84L903.827 4439.96C905.474 4443.18 907.084 4446.36 908.656 4449.5C910.303 4452.57 911.876 4455.68 913.373 4458.83C914.87 4461.9 916.33 4464.93 917.753 4467.92C919.175 4470.92 920.561 4473.91 921.908 4476.91H922.021C921.796 4471.67 921.609 4466.2 921.459 4460.51C921.384 4454.82 921.347 4449.39 921.347 4444.23V4376.06C921.347 4375.31 921.571 4374.64 922.021 4374.04C922.47 4373.44 923.218 4372.91 924.267 4372.46C925.315 4372.01 926.7 4371.72 928.422 4371.57C930.144 4371.34 932.353 4371.23 935.048 4371.23C937.593 4371.23 939.727 4371.34 941.449 4371.57C943.171 4371.72 944.481 4372.01 945.38 4372.46C946.353 4372.91 947.027 4373.44 947.401 4374.04C947.776 4374.64 947.963 4375.31 947.963 4376.06V4506.67ZM1073.07 4513.18C1073.07 4513.93 1072.88 4514.6 1072.51 4515.2C1072.13 4515.73 1071.46 4516.18 1070.49 4516.55C1069.59 4516.93 1068.35 4517.19 1066.78 4517.34C1065.28 4517.56 1063.37 4517.67 1061.05 4517.67C1058.58 4517.67 1056.56 4517.56 1054.99 4517.34C1053.49 4517.19 1052.29 4516.93 1051.4 4516.55C1050.5 4516.18 1049.86 4515.73 1049.49 4515.2C1049.11 4514.6 1048.92 4513.93 1048.92 4513.18V4501.61C1043.38 4507.6 1037.73 4512.1 1031.97 4515.09C1026.28 4518.09 1020.36 4519.58 1014.22 4519.58C1007.33 4519.58 1001.53 4518.46 996.815 4516.21C992.174 4513.97 988.393 4510.9 985.473 4507C982.628 4503.11 980.569 4498.62 979.296 4493.53C978.098 4488.36 977.499 4481.96 977.499 4474.32V4413.01C977.499 4412.26 977.686 4411.62 978.061 4411.1C978.51 4410.5 979.258 4410.01 980.307 4409.64C981.43 4409.26 982.89 4409 984.687 4408.85C986.558 4408.63 988.842 4408.51 991.537 4408.51C994.307 4408.51 996.591 4408.63 998.388 4408.85C1000.18 4409 1001.61 4409.26 1002.66 4409.64C1003.78 4410.01 1004.56 4410.5 1005.01 4411.1C1005.46 4411.62 1005.69 4412.26 1005.69 4413.01V4469.61C1005.69 4474.85 1006.02 4478.85 1006.7 4481.62C1007.37 4484.39 1008.38 4486.79 1009.73 4488.81C1011.15 4490.76 1012.91 4492.29 1015.01 4493.42C1017.18 4494.46 1019.69 4494.99 1022.53 4494.99C1026.13 4494.99 1029.72 4493.68 1033.31 4491.06C1036.98 4488.44 1040.88 4484.62 1044.99 4479.6V4413.01C1044.99 4412.26 1045.18 4411.62 1045.56 4411.1C1046 4410.5 1046.75 4410.01 1047.8 4409.64C1048.92 4409.26 1050.38 4409 1052.18 4408.85C1053.98 4408.63 1056.26 4408.51 1059.03 4408.51C1061.8 4408.51 1064.09 4408.63 1065.88 4408.85C1067.68 4409 1069.1 4409.26 1070.15 4409.64C1071.2 4410.01 1071.95 4410.5 1072.4 4411.1C1072.85 4411.62 1073.07 4412.26 1073.07 4413.01V4513.18ZM1260.96 4513.18C1260.96 4513.93 1260.73 4514.6 1260.28 4515.2C1259.83 4515.73 1259.08 4516.18 1258.04 4516.55C1256.99 4516.93 1255.57 4517.19 1253.77 4517.34C1251.97 4517.56 1249.69 4517.67 1246.92 4517.67C1244.07 4517.67 1241.75 4517.56 1239.96 4517.34C1238.16 4517.19 1236.7 4516.93 1235.58 4516.55C1234.53 4516.18 1233.78 4515.73 1233.33 4515.2C1232.95 4514.6 1232.77 4513.93 1232.77 4513.18V4453.77C1232.77 4450.4 1232.43 4447.33 1231.76 4444.56C1231.16 4441.79 1230.18 4439.43 1228.84 4437.49C1227.56 4435.47 1225.92 4433.93 1223.9 4432.88C1221.95 4431.76 1219.59 4431.2 1216.82 4431.2C1213.45 4431.2 1210.04 4432.51 1206.6 4435.13C1203.16 4437.75 1199.41 4441.57 1195.37 4446.58V4513.18C1195.37 4513.93 1195.15 4514.6 1194.7 4515.2C1194.25 4515.73 1193.46 4516.18 1192.34 4516.55C1191.29 4516.93 1189.87 4517.19 1188.07 4517.34C1186.27 4517.56 1184.03 4517.67 1181.33 4517.67C1178.56 4517.67 1176.28 4517.56 1174.48 4517.34C1172.68 4517.19 1171.22 4516.93 1170.1 4516.55C1169.05 4516.18 1168.3 4515.73 1167.86 4515.2C1167.41 4514.6 1167.18 4513.93 1167.18 4513.18V4453.77C1167.18 4450.4 1166.84 4447.33 1166.17 4444.56C1165.57 4441.79 1164.64 4439.43 1163.36 4437.49C1162.09 4435.47 1160.44 4433.93 1158.42 4432.88C1156.4 4431.76 1154.04 4431.2 1151.35 4431.2C1147.9 4431.2 1144.46 4432.51 1141.01 4435.13C1137.57 4437.75 1133.86 4441.57 1129.9 4446.58V4513.18C1129.9 4513.93 1129.67 4514.6 1129.22 4515.2C1128.77 4515.73 1127.99 4516.18 1126.86 4516.55C1125.82 4516.93 1124.39 4517.19 1122.6 4517.34C1120.8 4517.56 1118.52 4517.67 1115.75 4517.67C1112.98 4517.67 1110.69 4517.56 1108.9 4517.34C1107.1 4517.19 1105.64 4516.93 1104.52 4516.55C1103.47 4516.18 1102.72 4515.73 1102.27 4515.2C1101.82 4514.6 1101.6 4513.93 1101.6 4513.18V4413.01C1101.6 4412.26 1101.78 4411.62 1102.16 4411.1C1102.53 4410.5 1103.21 4410.01 1104.18 4409.64C1105.15 4409.26 1106.39 4409 1107.88 4408.85C1109.46 4408.63 1111.4 4408.51 1113.72 4408.51C1116.12 4408.51 1118.1 4408.63 1119.68 4408.85C1121.25 4409 1122.45 4409.26 1123.27 4409.64C1124.17 4410.01 1124.81 4410.5 1125.18 4411.1C1125.55 4411.62 1125.74 4412.26 1125.74 4413.01V4424.57C1131.28 4418.58 1136.78 4414.09 1142.25 4411.1C1147.79 4408.1 1153.56 4406.6 1159.54 4406.6C1163.66 4406.6 1167.37 4407.05 1170.66 4407.95C1173.96 4408.78 1176.88 4410.01 1179.42 4411.66C1182.04 4413.23 1184.29 4415.14 1186.16 4417.39C1188.03 4419.63 1189.61 4422.14 1190.88 4424.91C1193.87 4421.69 1196.79 4418.92 1199.64 4416.6C1202.56 4414.28 1205.4 4412.41 1208.17 4410.98C1211.02 4409.49 1213.83 4408.4 1216.6 4407.73C1219.44 4406.98 1222.32 4406.6 1225.24 4406.6C1231.91 4406.6 1237.52 4407.73 1242.09 4409.97C1246.66 4412.22 1250.32 4415.29 1253.09 4419.18C1255.94 4423 1257.96 4427.49 1259.16 4432.66C1260.36 4437.83 1260.96 4443.29 1260.96 4449.06V4513.18ZM1389.54 4461.75C1389.54 4470.66 1388.57 4478.67 1386.62 4485.78C1384.68 4492.89 1381.87 4498.96 1378.2 4503.97C1374.53 4508.99 1370 4512.84 1364.61 4515.54C1359.3 4518.24 1353.23 4519.58 1346.42 4519.58C1343.05 4519.58 1339.91 4519.25 1336.99 4518.57C1334.07 4517.97 1331.26 4516.96 1328.56 4515.54C1325.94 4514.12 1323.32 4512.32 1320.7 4510.15C1318.16 4507.98 1315.54 4505.36 1312.84 4502.29V4513.18C1312.84 4514.01 1312.62 4514.72 1312.17 4515.32C1311.79 4515.84 1311.12 4516.29 1310.15 4516.66C1309.25 4517.04 1308.01 4517.3 1306.44 4517.45C1304.87 4517.6 1302.96 4517.67 1300.71 4517.67C1298.39 4517.67 1296.44 4517.6 1294.87 4517.45C1293.37 4517.3 1292.14 4517.04 1291.17 4516.66C1290.27 4516.29 1289.63 4515.84 1289.26 4515.32C1288.88 4514.72 1288.7 4514.01 1288.7 4513.18V4365.5C1288.7 4364.75 1288.92 4364.08 1289.37 4363.48C1289.82 4362.88 1290.57 4362.39 1291.62 4362.02C1292.74 4361.57 1294.2 4361.23 1296 4361.01C1297.79 4360.78 1300.08 4360.67 1302.85 4360.67C1305.62 4360.67 1307.9 4360.78 1309.7 4361.01C1311.49 4361.23 1312.92 4361.57 1313.96 4362.02C1315.09 4362.39 1315.87 4362.88 1316.32 4363.48C1316.77 4364.08 1317 4364.75 1317 4365.5V4420.87C1319.54 4418.32 1322.09 4416.15 1324.63 4414.35C1327.18 4412.56 1329.72 4411.1 1332.27 4409.97C1334.82 4408.78 1337.44 4407.91 1340.13 4407.39C1342.83 4406.87 1345.67 4406.6 1348.67 4406.6C1356.08 4406.6 1362.37 4408.1 1367.53 4411.1C1372.7 4414.02 1376.89 4417.98 1380.11 4423C1383.41 4428.02 1385.8 4433.89 1387.3 4440.63C1388.8 4447.3 1389.54 4454.33 1389.54 4461.75ZM1360.23 4463.77C1360.23 4459.5 1359.9 4455.38 1359.22 4451.41C1358.62 4447.45 1357.54 4443.93 1355.97 4440.86C1354.39 4437.79 1352.33 4435.35 1349.79 4433.56C1347.32 4431.69 1344.17 4430.75 1340.36 4430.75C1338.48 4430.75 1336.65 4431.01 1334.85 4431.54C1333.06 4432.06 1331.18 4432.96 1329.24 4434.23C1327.37 4435.5 1325.42 4437.15 1323.4 4439.17C1321.38 4441.19 1319.24 4443.7 1317 4446.7V4479.94C1320.96 4485.03 1324.75 4488.92 1328.34 4491.62C1332.01 4494.24 1335.83 4495.55 1339.79 4495.55C1343.46 4495.55 1346.57 4494.61 1349.12 4492.74C1351.66 4490.87 1353.76 4488.44 1355.4 4485.44C1357.13 4482.45 1358.36 4479.04 1359.11 4475.22C1359.86 4471.4 1360.23 4467.59 1360.23 4463.77ZM1504.77 4460.17C1504.77 4463.62 1503.98 4466.16 1502.41 4467.81C1500.91 4469.46 1498.82 4470.28 1496.12 4470.28H1435.14C1435.14 4474.55 1435.63 4478.44 1436.6 4481.96C1437.65 4485.4 1439.26 4488.36 1441.43 4490.83C1443.68 4493.23 1446.52 4495.06 1449.96 4496.34C1453.48 4497.61 1457.68 4498.25 1462.54 4498.25C1467.48 4498.25 1471.83 4497.91 1475.57 4497.23C1479.31 4496.49 1482.53 4495.7 1485.23 4494.88C1488 4493.98 1490.28 4493.19 1492.08 4492.52C1493.88 4491.77 1495.34 4491.39 1496.46 4491.39C1497.13 4491.39 1497.69 4491.54 1498.14 4491.84C1498.59 4492.07 1498.97 4492.52 1499.27 4493.19C1499.57 4493.87 1499.75 4494.84 1499.83 4496.11C1499.98 4497.31 1500.05 4498.84 1500.05 4500.72C1500.05 4502.36 1500.02 4503.79 1499.94 4504.98C1499.87 4506.11 1499.75 4507.08 1499.6 4507.9C1499.45 4508.73 1499.23 4509.44 1498.93 4510.04C1498.63 4510.56 1498.22 4511.09 1497.69 4511.61C1497.25 4512.13 1495.93 4512.84 1493.76 4513.74C1491.59 4514.64 1488.82 4515.54 1485.45 4516.44C1482.08 4517.26 1478.23 4517.97 1473.89 4518.57C1469.54 4519.25 1464.9 4519.58 1459.96 4519.58C1451.05 4519.58 1443.23 4518.46 1436.49 4516.21C1429.82 4513.97 1424.25 4510.56 1419.75 4505.99C1415.26 4501.43 1411.89 4495.66 1409.65 4488.7C1407.48 4481.74 1406.39 4473.58 1406.39 4464.22C1406.39 4455.31 1407.55 4447.3 1409.87 4440.18C1412.19 4433 1415.56 4426.93 1419.98 4421.99C1424.4 4416.97 1429.75 4413.16 1436.04 4410.54C1442.4 4407.91 1449.55 4406.6 1457.49 4406.6C1465.87 4406.6 1473.02 4407.84 1478.94 4410.31C1484.93 4412.78 1489.83 4416.23 1493.65 4420.64C1497.47 4424.99 1500.28 4430.15 1502.07 4436.14C1503.87 4442.13 1504.77 4448.64 1504.77 4455.68V4460.17ZM1477.37 4452.09C1477.59 4444.15 1475.98 4437.94 1472.54 4433.45C1469.17 4428.88 1463.93 4426.59 1456.82 4426.59C1453.22 4426.59 1450.08 4427.27 1447.38 4428.62C1444.76 4429.96 1442.55 4431.8 1440.76 4434.12C1439.03 4436.37 1437.69 4439.06 1436.71 4442.21C1435.81 4445.27 1435.29 4448.57 1435.14 4452.09H1477.37ZM1592.48 4422.33C1592.48 4425.02 1592.4 4427.23 1592.25 4428.95C1592.11 4430.68 1591.88 4432.02 1591.58 4433C1591.28 4433.97 1590.87 4434.64 1590.35 4435.02C1589.9 4435.39 1589.3 4435.58 1588.55 4435.58C1587.95 4435.58 1587.28 4435.47 1586.53 4435.24C1585.78 4434.94 1584.92 4434.64 1583.94 4434.34C1583.05 4434.04 1582.04 4433.78 1580.91 4433.56C1579.79 4433.26 1578.55 4433.11 1577.21 4433.11C1575.63 4433.11 1574.06 4433.45 1572.49 4434.12C1570.92 4434.72 1569.27 4435.69 1567.55 4437.04C1565.9 4438.39 1564.14 4440.18 1562.27 4442.43C1560.47 4444.68 1558.53 4447.45 1556.43 4450.74V4513.18C1556.43 4513.93 1556.21 4514.6 1555.76 4515.2C1555.31 4515.73 1554.52 4516.18 1553.4 4516.55C1552.35 4516.93 1550.93 4517.19 1549.13 4517.34C1547.33 4517.56 1545.05 4517.67 1542.28 4517.67C1539.51 4517.67 1537.23 4517.56 1535.43 4517.34C1533.63 4517.19 1532.17 4516.93 1531.05 4516.55C1530 4516.18 1529.25 4515.73 1528.8 4515.2C1528.35 4514.6 1528.13 4513.93 1528.13 4513.18V4413.01C1528.13 4412.26 1528.32 4411.62 1528.69 4411.1C1529.06 4410.5 1529.74 4410.01 1530.71 4409.64C1531.69 4409.26 1532.92 4409 1534.42 4408.85C1535.99 4408.63 1537.94 4408.51 1540.26 4408.51C1542.65 4408.51 1544.64 4408.63 1546.21 4408.85C1547.78 4409 1548.98 4409.26 1549.8 4409.64C1550.7 4410.01 1551.34 4410.5 1551.71 4411.1C1552.09 4411.62 1552.27 4412.26 1552.27 4413.01V4425.47C1554.89 4421.73 1557.37 4418.66 1559.69 4416.26C1562.01 4413.79 1564.22 4411.85 1566.31 4410.42C1568.41 4409 1570.51 4408.03 1572.6 4407.5C1574.7 4406.9 1576.79 4406.6 1578.89 4406.6C1579.86 4406.6 1580.91 4406.68 1582.04 4406.83C1583.16 4406.9 1584.32 4407.09 1585.52 4407.39C1586.71 4407.62 1587.76 4407.91 1588.66 4408.29C1589.56 4408.59 1590.2 4408.93 1590.57 4409.3C1591.02 4409.67 1591.32 4410.09 1591.47 4410.54C1591.69 4410.98 1591.88 4411.62 1592.03 4412.44C1592.18 4413.19 1592.29 4414.35 1592.37 4415.93C1592.44 4417.5 1592.48 4419.63 1592.48 4422.33Z" fill="black"/>
</svg>
