<svg width="3450" height="2210" viewBox="0 0 3450 2210" fill="none" xmlns="http://www.w3.org/2000/svg">
<path d="M1833.92 466H1808.77L1798.77 439.984H1752.98L1743.53 466H1719L1763.61 351.469H1788.06L1833.92 466ZM1791.34 420.688L1775.56 378.188L1760.09 420.688H1791.34ZM1848.26 466V351.469H1896.94C1909.18 351.469 1918.06 352.51 1923.58 354.594C1929.15 356.625 1933.6 360.271 1936.94 365.531C1940.27 370.792 1941.94 376.807 1941.94 383.578C1941.94 392.172 1939.41 399.281 1934.36 404.906C1929.31 410.479 1921.75 413.995 1911.7 415.453C1916.7 418.37 1920.82 421.573 1924.04 425.062C1927.33 428.552 1931.73 434.75 1937.25 443.656L1951.23 466H1923.58L1906.86 441.078C1900.92 432.172 1896.86 426.573 1894.67 424.281C1892.48 421.938 1890.16 420.349 1887.72 419.516C1885.27 418.63 1881.39 418.188 1876.08 418.188H1871.39V466H1848.26ZM1871.39 399.906H1888.5C1899.59 399.906 1906.52 399.438 1909.28 398.5C1912.04 397.562 1914.2 395.948 1915.76 393.656C1917.33 391.365 1918.11 388.5 1918.11 385.062C1918.11 381.208 1917.07 378.109 1914.98 375.766C1912.95 373.37 1910.06 371.859 1906.31 371.234C1904.44 370.974 1898.81 370.844 1889.44 370.844H1871.39V399.906ZM1965.42 466V351.469H2000.03L2020.81 429.594L2041.36 351.469H2076.04V466H2054.56V375.844L2031.82 466H2009.56L1986.9 375.844V466H1965.42ZM2100.93 466V351.469H2185.85V370.844H2124.06V396.234H2181.56V415.531H2124.06V446.703H2188.04V466H2100.93ZM2209.49 351.469H2251.76C2261.29 351.469 2268.55 352.198 2273.55 353.656C2280.27 355.635 2286.03 359.151 2290.82 364.203C2295.61 369.255 2299.26 375.453 2301.76 382.797C2304.26 390.089 2305.51 399.099 2305.51 409.828C2305.51 419.255 2304.34 427.38 2301.99 434.203C2299.13 442.536 2295.04 449.281 2289.73 454.438C2285.72 458.344 2280.3 461.391 2273.48 463.578C2268.37 465.193 2261.55 466 2253.01 466H2209.49V351.469ZM2232.62 370.844V446.703H2249.88C2256.34 446.703 2261 446.339 2263.87 445.609C2267.62 444.672 2270.72 443.083 2273.16 440.844C2275.66 438.604 2277.7 434.932 2279.26 429.828C2280.82 424.672 2281.6 417.667 2281.6 408.812C2281.6 399.958 2280.82 393.161 2279.26 388.422C2277.7 383.682 2275.51 379.984 2272.7 377.328C2269.88 374.672 2266.32 372.875 2261.99 371.938C2258.76 371.208 2252.44 370.844 2243.01 370.844H2232.62ZM2321.26 428.734L2343.76 426.547C2345.11 434.099 2347.84 439.646 2351.96 443.188C2356.13 446.729 2361.72 448.5 2368.76 448.5C2376.2 448.5 2381.8 446.938 2385.55 443.812C2389.36 440.635 2391.26 436.938 2391.26 432.719C2391.26 430.01 2390.45 427.719 2388.83 425.844C2387.27 423.917 2384.51 422.25 2380.55 420.844C2377.84 419.906 2371.67 418.24 2362.04 415.844C2349.64 412.771 2340.94 408.995 2335.94 404.516C2328.91 398.214 2325.4 390.531 2325.4 381.469C2325.4 375.635 2327.04 370.193 2330.32 365.141C2333.65 360.036 2338.42 356.156 2344.62 353.5C2350.87 350.844 2358.39 349.516 2367.19 349.516C2381.57 349.516 2392.38 352.667 2399.62 358.969C2406.91 365.271 2410.74 373.682 2411.1 384.203L2387.97 385.219C2386.99 379.333 2384.85 375.115 2381.57 372.562C2378.34 369.958 2373.47 368.656 2366.96 368.656C2360.24 368.656 2354.98 370.036 2351.18 372.797C2348.73 374.568 2347.51 376.938 2347.51 379.906C2347.51 382.615 2348.65 384.932 2350.94 386.859C2353.86 389.307 2360.94 391.859 2372.19 394.516C2383.44 397.172 2391.75 399.932 2397.12 402.797C2402.53 405.609 2406.75 409.49 2409.77 414.438C2412.84 419.333 2414.38 425.401 2414.38 432.641C2414.38 439.203 2412.56 445.349 2408.91 451.078C2405.27 456.807 2400.11 461.078 2393.44 463.891C2386.78 466.651 2378.47 468.031 2368.52 468.031C2354.04 468.031 2342.92 464.698 2335.16 458.031C2327.4 451.312 2322.77 441.547 2321.26 428.734ZM2539.04 466H2513.88L2503.88 439.984H2458.1L2448.65 466H2424.11L2468.72 351.469H2493.18L2539.04 466ZM2496.46 420.688L2480.68 378.188L2465.21 420.688H2496.46ZM2553.46 466V351.469H2631.97V370.844H2576.58V397.953H2624.39V417.328H2576.58V466H2553.46ZM2653.03 466V351.469H2737.95V370.844H2676.16V396.234H2733.66V415.531H2676.16V446.703H2740.14V466H2653.03Z" fill="black"/>
</svg>
