<svg width="3450" height="2210" viewBox="0 0 3450 2210" fill="none" xmlns="http://www.w3.org/2000/svg">
<path d="M1516.32 566.572L1529.26 565.314C1530.04 569.657 1531.61 572.846 1533.98 574.883C1536.37 576.919 1539.59 577.938 1543.64 577.938C1547.92 577.938 1551.14 577.039 1553.29 575.242C1555.48 573.415 1556.57 571.289 1556.57 568.863C1556.57 567.306 1556.11 565.988 1555.18 564.91C1554.28 563.802 1552.7 562.844 1550.42 562.035C1548.86 561.496 1545.31 560.538 1539.77 559.16C1532.65 557.393 1527.64 555.222 1524.77 552.646C1520.73 549.023 1518.71 544.605 1518.71 539.395C1518.71 536.04 1519.65 532.911 1521.54 530.006C1523.45 527.071 1526.19 524.84 1529.76 523.312C1533.35 521.785 1537.68 521.021 1542.74 521.021C1551 521.021 1557.22 522.833 1561.38 526.457C1565.57 530.081 1567.77 534.917 1567.98 540.967L1554.69 541.551C1554.12 538.167 1552.89 535.741 1551 534.273C1549.15 532.776 1546.35 532.027 1542.6 532.027C1538.74 532.027 1535.72 532.821 1533.53 534.408C1532.12 535.426 1531.42 536.789 1531.42 538.496C1531.42 540.053 1532.08 541.386 1533.39 542.494C1535.07 543.902 1539.14 545.369 1545.61 546.896C1552.08 548.424 1556.86 550.011 1559.94 551.658C1563.06 553.275 1565.48 555.507 1567.22 558.352C1568.99 561.167 1569.87 564.656 1569.87 568.818C1569.87 572.592 1568.82 576.126 1566.73 579.42C1564.63 582.714 1561.67 585.17 1557.83 586.787C1554 588.374 1549.22 589.168 1543.5 589.168C1535.18 589.168 1528.78 587.251 1524.32 583.418C1519.86 579.555 1517.19 573.939 1516.32 566.572ZM1591.14 554.848L1579.68 552.781C1580.97 548.169 1583.19 544.755 1586.33 542.539C1589.47 540.323 1594.15 539.215 1600.35 539.215C1605.98 539.215 1610.17 539.889 1612.92 541.236C1615.68 542.554 1617.61 544.246 1618.72 546.312C1619.86 548.349 1620.43 552.107 1620.43 557.588L1620.29 572.322C1620.29 576.515 1620.49 579.615 1620.87 581.621C1621.29 583.598 1622.06 585.724 1623.17 588H1610.68C1610.35 587.161 1609.94 585.919 1609.46 584.271C1609.25 583.523 1609.11 583.029 1609.02 582.789C1606.86 584.885 1604.55 586.458 1602.1 587.506C1599.64 588.554 1597.02 589.078 1594.24 589.078C1589.32 589.078 1585.45 587.745 1582.6 585.08C1579.79 582.415 1578.38 579.046 1578.38 574.973C1578.38 572.277 1579.02 569.882 1580.31 567.785C1581.6 565.659 1583.39 564.042 1585.7 562.934C1588.04 561.796 1591.39 560.807 1595.76 559.969C1601.66 558.861 1605.75 557.827 1608.03 556.869V555.611C1608.03 553.186 1607.43 551.464 1606.23 550.445C1605.03 549.397 1602.77 548.873 1599.45 548.873C1597.2 548.873 1595.45 549.322 1594.19 550.221C1592.93 551.089 1591.92 552.632 1591.14 554.848ZM1608.03 565.09C1606.41 565.629 1603.85 566.273 1600.35 567.021C1596.84 567.77 1594.55 568.504 1593.47 569.223C1591.83 570.391 1591 571.873 1591 573.67C1591 575.437 1591.66 576.964 1592.98 578.252C1594.3 579.54 1595.97 580.184 1598.01 580.184C1600.29 580.184 1602.46 579.435 1604.52 577.938C1606.05 576.799 1607.05 575.407 1607.53 573.76C1607.86 572.682 1608.03 570.63 1608.03 567.605V565.09ZM1628.12 540.293H1635.13V536.699C1635.13 532.686 1635.55 529.691 1636.39 527.715C1637.26 525.738 1638.83 524.136 1641.11 522.908C1643.41 521.65 1646.32 521.021 1649.82 521.021C1653.42 521.021 1656.93 521.561 1660.38 522.639L1658.67 531.443C1656.66 530.964 1654.73 530.725 1652.88 530.725C1651.05 530.725 1649.73 531.159 1648.92 532.027C1648.14 532.866 1647.76 534.498 1647.76 536.924V540.293H1657.19V550.221H1647.76V588H1635.13V550.221H1628.12V540.293ZM1692.65 572.816L1705.23 574.928C1703.61 579.54 1701.05 583.059 1697.55 585.484C1694.07 587.88 1689.71 589.078 1684.47 589.078C1676.18 589.078 1670.04 586.368 1666.06 580.947C1662.91 576.605 1661.34 571.124 1661.34 564.506C1661.34 556.6 1663.41 550.415 1667.54 545.953C1671.67 541.461 1676.9 539.215 1683.22 539.215C1690.31 539.215 1695.91 541.566 1700.02 546.268C1704.12 550.939 1706.08 558.112 1705.9 567.785H1674.28C1674.37 571.529 1675.38 574.449 1677.33 576.545C1679.28 578.611 1681.7 579.645 1684.61 579.645C1686.58 579.645 1688.25 579.105 1689.59 578.027C1690.94 576.949 1691.96 575.212 1692.65 572.816ZM1693.37 560.059C1693.28 556.405 1692.33 553.635 1690.54 551.748C1688.74 549.831 1686.55 548.873 1683.98 548.873C1681.22 548.873 1678.95 549.876 1677.15 551.883C1675.35 553.889 1674.47 556.615 1674.5 560.059H1693.37ZM1738.85 540.293V550.355H1730.22V569.582C1730.22 573.475 1730.3 575.751 1730.45 576.41C1730.63 577.039 1731 577.563 1731.57 577.982C1732.17 578.402 1732.89 578.611 1733.73 578.611C1734.89 578.611 1736.59 578.207 1738.8 577.398L1739.88 587.191C1736.94 588.449 1733.62 589.078 1729.91 589.078C1727.63 589.078 1725.58 588.704 1723.75 587.955C1721.93 587.176 1720.58 586.188 1719.71 584.99C1718.87 583.762 1718.29 582.115 1717.96 580.049C1717.69 578.581 1717.55 575.617 1717.55 571.154V550.355H1711.76V540.293H1717.55V530.814L1730.22 523.447V540.293H1738.85ZM1742.37 540.293H1755.8L1767.21 574.164L1778.35 540.293H1791.42L1774.58 586.203L1771.57 594.514C1770.46 597.299 1769.4 599.425 1768.38 600.893C1767.39 602.36 1766.24 603.543 1764.92 604.441C1763.63 605.37 1762.03 606.089 1760.11 606.598C1758.22 607.107 1756.08 607.361 1753.69 607.361C1751.26 607.361 1748.88 607.107 1746.55 606.598L1745.42 596.715C1747.4 597.104 1749.18 597.299 1750.77 597.299C1753.7 597.299 1755.87 596.43 1757.28 594.693C1758.69 592.986 1759.77 590.8 1760.52 588.135L1742.37 540.293ZM1884.98 579.959L1877.35 589.707C1873.6 587.88 1870.01 585.365 1866.57 582.16C1863.9 584.556 1861.07 586.323 1858.08 587.461C1855.08 588.599 1851.52 589.168 1847.38 589.168C1839.18 589.168 1833.01 586.862 1828.88 582.25C1825.67 578.686 1824.07 574.583 1824.07 569.941C1824.07 565.719 1825.33 561.93 1827.84 558.576C1830.36 555.192 1834.12 552.257 1839.12 549.771C1836.87 547.106 1835.18 544.576 1834.04 542.18C1832.9 539.754 1832.34 537.463 1832.34 535.307C1832.34 531.324 1833.92 527.954 1837.1 525.199C1840.3 522.414 1844.85 521.021 1850.75 521.021C1856.44 521.021 1860.89 522.474 1864.1 525.379C1867.3 528.284 1868.9 531.833 1868.9 536.025C1868.9 538.691 1868.11 541.221 1866.52 543.617C1864.93 546.013 1861.73 548.723 1856.91 551.748L1866.07 563.832C1867.15 561.915 1868.08 559.415 1868.86 556.33L1880.27 558.936C1879.13 562.979 1878.14 565.943 1877.3 567.83C1876.46 569.687 1875.57 571.244 1874.61 572.502C1876.01 573.82 1877.83 575.272 1880.04 576.859C1882.29 578.417 1883.94 579.45 1884.98 579.959ZM1850.62 544.156L1854.03 541.551C1856.55 539.604 1857.81 537.673 1857.81 535.756C1857.81 534.139 1857.19 532.761 1855.96 531.623C1854.77 530.485 1853.13 529.916 1851.07 529.916C1849.06 529.916 1847.49 530.425 1846.35 531.443C1845.21 532.432 1844.64 533.585 1844.64 534.902C1844.64 536.46 1845.6 538.346 1847.52 540.562L1850.62 544.156ZM1845.68 557.857C1842.77 559.325 1840.6 561.092 1839.16 563.158C1837.73 565.225 1837.01 567.336 1837.01 569.492C1837.01 572.217 1837.89 574.449 1839.66 576.186C1841.45 577.893 1843.85 578.746 1846.85 578.746C1848.82 578.746 1850.72 578.357 1852.55 577.578C1854.38 576.799 1856.37 575.512 1858.53 573.715L1845.68 557.857ZM1920.33 588V522.145H1948.31C1955.35 522.145 1960.46 522.743 1963.63 523.941C1966.84 525.109 1969.4 527.206 1971.31 530.23C1973.23 533.255 1974.19 536.714 1974.19 540.607C1974.19 545.549 1972.74 549.637 1969.83 552.871C1966.93 556.076 1962.58 558.097 1956.8 558.936C1959.68 560.613 1962.04 562.454 1963.9 564.461C1965.79 566.467 1968.32 570.031 1971.49 575.152L1979.53 588H1963.63L1954.02 573.67C1950.6 568.549 1948.27 565.329 1947.01 564.012C1945.75 562.664 1944.42 561.751 1943.01 561.271C1941.61 560.762 1939.37 560.508 1936.32 560.508H1933.62V588H1920.33ZM1933.62 549.996H1943.46C1949.84 549.996 1953.82 549.727 1955.41 549.188C1957 548.648 1958.24 547.72 1959.14 546.402C1960.04 545.085 1960.49 543.438 1960.49 541.461C1960.49 539.245 1959.89 537.463 1958.69 536.115C1957.52 534.738 1955.86 533.869 1953.7 533.51C1952.63 533.36 1949.39 533.285 1944 533.285H1933.62V549.996ZM2015.04 572.816L2027.62 574.928C2026 579.54 2023.44 583.059 2019.94 585.484C2016.46 587.88 2012.1 589.078 2006.86 589.078C1998.57 589.078 1992.43 586.368 1988.45 580.947C1985.3 576.605 1983.73 571.124 1983.73 564.506C1983.73 556.6 1985.8 550.415 1989.93 545.953C1994.06 541.461 1999.29 539.215 2005.61 539.215C2012.7 539.215 2018.3 541.566 2022.41 546.268C2026.51 550.939 2028.47 558.112 2028.29 567.785H1996.67C1996.76 571.529 1997.77 574.449 1999.72 576.545C2001.67 578.611 2004.09 579.645 2007 579.645C2008.98 579.645 2010.64 579.105 2011.98 578.027C2013.33 576.949 2014.35 575.212 2015.04 572.816ZM2015.76 560.059C2015.67 556.405 2014.73 553.635 2012.93 551.748C2011.13 549.831 2008.95 548.873 2006.37 548.873C2003.61 548.873 2001.34 549.876 1999.54 551.883C1997.74 553.889 1996.86 556.615 1996.89 560.059H2015.76ZM2034.91 574.389L2047.58 572.457C2048.12 574.913 2049.21 576.785 2050.86 578.072C2052.51 579.33 2054.81 579.959 2057.78 579.959C2061.04 579.959 2063.5 579.36 2065.14 578.162C2066.25 577.324 2066.81 576.201 2066.81 574.793C2066.81 573.835 2066.51 573.041 2065.91 572.412C2065.28 571.813 2063.87 571.259 2061.69 570.75C2051.5 568.504 2045.05 566.452 2042.32 564.596C2038.55 562.02 2036.66 558.441 2036.66 553.859C2036.66 549.727 2038.3 546.253 2041.56 543.438C2044.83 540.622 2049.89 539.215 2056.74 539.215C2063.27 539.215 2068.12 540.278 2071.3 542.404C2074.47 544.531 2076.66 547.675 2077.86 551.838L2065.95 554.039C2065.44 552.182 2064.47 550.76 2063.03 549.771C2061.63 548.783 2059.6 548.289 2056.97 548.289C2053.64 548.289 2051.26 548.753 2049.83 549.682C2048.87 550.34 2048.39 551.194 2048.39 552.242C2048.39 553.141 2048.81 553.904 2049.65 554.533C2050.78 555.372 2054.71 556.555 2061.42 558.082C2068.15 559.609 2072.86 561.481 2075.52 563.697C2078.16 565.943 2079.47 569.073 2079.47 573.086C2079.47 577.458 2077.65 581.217 2073.99 584.361C2070.34 587.506 2064.94 589.078 2057.78 589.078C2051.28 589.078 2046.13 587.76 2042.32 585.125C2038.55 582.49 2036.08 578.911 2034.91 574.389ZM2132.9 554.398L2120.46 556.645C2120.04 554.159 2119.08 552.287 2117.59 551.029C2116.12 549.771 2114.2 549.143 2111.84 549.143C2108.69 549.143 2106.18 550.236 2104.29 552.422C2102.43 554.578 2101.5 558.202 2101.5 563.293C2101.5 568.953 2102.45 572.951 2104.33 575.287C2106.25 577.623 2108.81 578.791 2112.02 578.791C2114.41 578.791 2116.37 578.117 2117.9 576.77C2119.43 575.392 2120.51 573.041 2121.13 569.717L2133.53 571.828C2132.25 577.518 2129.77 581.816 2126.12 584.721C2122.47 587.626 2117.57 589.078 2111.43 589.078C2104.45 589.078 2098.88 586.877 2094.72 582.475C2090.59 578.072 2088.52 571.978 2088.52 564.191C2088.52 556.315 2090.6 550.191 2094.77 545.818C2098.93 541.416 2104.56 539.215 2111.66 539.215C2117.47 539.215 2122.08 540.473 2125.49 542.988C2128.94 545.474 2131.41 549.277 2132.9 554.398ZM2174.65 588V580.857C2172.92 583.403 2170.63 585.41 2167.78 586.877C2164.97 588.344 2161.99 589.078 2158.84 589.078C2155.64 589.078 2152.76 588.374 2150.22 586.967C2147.67 585.559 2145.83 583.583 2144.69 581.037C2143.55 578.492 2142.98 574.973 2142.98 570.48V540.293H2155.61V562.215C2155.61 568.923 2155.83 573.041 2156.28 574.568C2156.76 576.066 2157.61 577.264 2158.84 578.162C2160.07 579.031 2161.63 579.465 2163.51 579.465C2165.67 579.465 2167.6 578.881 2169.31 577.713C2171.02 576.515 2172.18 575.048 2172.81 573.311C2173.44 571.544 2173.76 567.246 2173.76 560.418V540.293H2186.38V588H2174.65ZM2227.86 572.816L2240.44 574.928C2238.82 579.54 2236.26 583.059 2232.76 585.484C2229.28 587.88 2224.92 589.078 2219.68 589.078C2211.39 589.078 2205.25 586.368 2201.26 580.947C2198.12 576.605 2196.55 571.124 2196.55 564.506C2196.55 556.6 2198.61 550.415 2202.75 545.953C2206.88 541.461 2212.11 539.215 2218.43 539.215C2225.52 539.215 2231.12 541.566 2235.23 546.268C2239.33 550.939 2241.29 558.112 2241.11 567.785H2209.49C2209.58 571.529 2210.59 574.449 2212.54 576.545C2214.49 578.611 2216.91 579.645 2219.82 579.645C2221.79 579.645 2223.46 579.105 2224.8 578.027C2226.15 576.949 2227.17 575.212 2227.86 572.816ZM2228.58 560.059C2228.49 556.405 2227.54 553.635 2225.75 551.748C2223.95 549.831 2221.76 548.873 2219.19 548.873C2216.43 548.873 2214.16 549.876 2212.36 551.883C2210.56 553.889 2209.68 556.615 2209.71 560.059H2228.58ZM2293.43 588V533.285H2273.89V522.145H2326.23V533.285H2306.73V588H2293.43ZM2342.46 588H2329.84V540.293H2341.56V547.076C2343.57 543.872 2345.37 541.76 2346.95 540.742C2348.57 539.724 2350.4 539.215 2352.43 539.215C2355.31 539.215 2358.08 540.008 2360.74 541.596L2356.84 552.602C2354.71 551.224 2352.73 550.535 2350.91 550.535C2349.14 550.535 2347.64 551.029 2346.41 552.018C2345.19 552.976 2344.21 554.728 2343.49 557.273C2342.81 559.819 2342.46 565.15 2342.46 573.266V588ZM2376.39 554.848L2364.94 552.781C2366.23 548.169 2368.44 544.755 2371.59 542.539C2374.73 540.323 2379.4 539.215 2385.6 539.215C2391.23 539.215 2395.43 539.889 2398.18 541.236C2400.94 542.554 2402.87 544.246 2403.98 546.312C2405.11 548.349 2405.68 552.107 2405.68 557.588L2405.55 572.322C2405.55 576.515 2405.74 579.615 2406.13 581.621C2406.55 583.598 2407.32 585.724 2408.42 588H2395.94C2395.61 587.161 2395.2 585.919 2394.72 584.271C2394.51 583.523 2394.36 583.029 2394.27 582.789C2392.12 584.885 2389.81 586.458 2387.36 587.506C2384.9 588.554 2382.28 589.078 2379.49 589.078C2374.58 589.078 2370.7 587.745 2367.86 585.08C2365.04 582.415 2363.64 579.046 2363.64 574.973C2363.64 572.277 2364.28 569.882 2365.57 567.785C2366.86 565.659 2368.65 564.042 2370.96 562.934C2373.29 561.796 2376.65 560.807 2381.02 559.969C2386.92 558.861 2391.01 557.827 2393.29 556.869V555.611C2393.29 553.186 2392.69 551.464 2391.49 550.445C2390.29 549.397 2388.03 548.873 2384.71 548.873C2382.46 548.873 2380.71 549.322 2379.45 550.221C2378.19 551.089 2377.17 552.632 2376.39 554.848ZM2393.29 565.09C2391.67 565.629 2389.11 566.273 2385.6 567.021C2382.1 567.77 2379.81 568.504 2378.73 569.223C2377.08 570.391 2376.26 571.873 2376.26 573.67C2376.26 575.437 2376.92 576.964 2378.24 578.252C2379.55 579.54 2381.23 580.184 2383.27 580.184C2385.54 580.184 2387.71 579.435 2389.78 577.938C2391.31 576.799 2392.31 575.407 2392.79 573.76C2393.12 572.682 2393.29 570.63 2393.29 567.605V565.09ZM2418.91 533.824V522.145H2431.53V533.824H2418.91ZM2418.91 588V540.293H2431.53V588H2418.91ZM2488.64 588H2476.02V563.652C2476.02 558.501 2475.75 555.177 2475.21 553.68C2474.67 552.152 2473.79 550.969 2472.56 550.131C2471.36 549.292 2469.91 548.873 2468.2 548.873C2466.02 548.873 2464.06 549.472 2462.32 550.67C2460.58 551.868 2459.38 553.455 2458.73 555.432C2458.1 557.408 2457.78 561.062 2457.78 566.393V588H2445.16V540.293H2456.88V547.301C2461.05 541.91 2466.29 539.215 2472.61 539.215C2475.39 539.215 2477.94 539.724 2480.24 540.742C2482.55 541.73 2484.29 543.003 2485.45 544.561C2486.65 546.118 2487.48 547.885 2487.93 549.861C2488.4 551.838 2488.64 554.668 2488.64 558.352V588ZM2502.23 533.824V522.145H2514.85V533.824H2502.23ZM2502.23 588V540.293H2514.85V588H2502.23ZM2571.96 588H2559.34V563.652C2559.34 558.501 2559.07 555.177 2558.53 553.68C2557.99 552.152 2557.11 550.969 2555.88 550.131C2554.68 549.292 2553.23 548.873 2551.52 548.873C2549.34 548.873 2547.38 549.472 2545.64 550.67C2543.9 551.868 2542.7 553.455 2542.05 555.432C2541.42 557.408 2541.1 561.062 2541.1 566.393V588H2528.48V540.293H2540.2V547.301C2544.37 541.91 2549.61 539.215 2555.93 539.215C2558.71 539.215 2561.26 539.724 2563.56 540.742C2565.87 541.73 2567.61 543.003 2568.77 544.561C2569.97 546.118 2570.8 547.885 2571.24 549.861C2571.72 551.838 2571.96 554.668 2571.96 558.352V588ZM2584.38 591.145L2598.8 592.896C2599.04 594.574 2599.59 595.727 2600.46 596.355C2601.66 597.254 2603.55 597.703 2606.12 597.703C2609.42 597.703 2611.89 597.209 2613.53 596.221C2614.64 595.562 2615.48 594.499 2616.05 593.031C2616.44 591.983 2616.63 590.051 2616.63 587.236V580.273C2612.86 585.424 2608.1 588 2602.35 588C2595.94 588 2590.86 585.29 2587.12 579.869C2584.18 575.587 2582.72 570.256 2582.72 563.877C2582.72 555.881 2584.63 549.771 2588.47 545.549C2592.33 541.326 2597.12 539.215 2602.84 539.215C2608.74 539.215 2613.61 541.805 2617.44 546.986V540.293H2629.26V583.104C2629.26 588.734 2628.79 592.941 2627.86 595.727C2626.94 598.512 2625.63 600.698 2623.96 602.285C2622.28 603.872 2620.03 605.115 2617.22 606.014C2614.43 606.912 2610.9 607.361 2606.62 607.361C2598.53 607.361 2592.79 605.969 2589.41 603.184C2586.03 600.428 2584.33 596.924 2584.33 592.672C2584.33 592.253 2584.35 591.743 2584.38 591.145ZM2595.65 563.158C2595.65 568.219 2596.63 571.933 2598.57 574.299C2600.55 576.635 2602.98 577.803 2605.85 577.803C2608.94 577.803 2611.54 576.605 2613.67 574.209C2615.79 571.783 2616.86 568.204 2616.86 563.473C2616.86 558.531 2615.84 554.863 2613.8 552.467C2611.77 550.071 2609.19 548.873 2606.08 548.873C2603.05 548.873 2600.55 550.056 2598.57 552.422C2596.63 554.758 2595.65 558.337 2595.65 563.158ZM2711.09 563.787L2723.99 567.875C2722.01 575.062 2718.72 580.408 2714.1 583.912C2709.52 587.386 2703.7 589.123 2696.63 589.123C2687.88 589.123 2680.7 586.143 2675.07 580.184C2669.44 574.194 2666.62 566.018 2666.62 555.656C2666.62 544.695 2669.45 536.19 2675.11 530.141C2680.77 524.061 2688.21 521.021 2697.44 521.021C2705.49 521.021 2712.04 523.402 2717.07 528.164C2720.06 530.979 2722.31 535.022 2723.81 540.293L2710.64 543.438C2709.87 540.023 2708.23 537.328 2705.75 535.352C2703.29 533.375 2700.3 532.387 2696.76 532.387C2691.88 532.387 2687.91 534.139 2684.86 537.643C2681.83 541.146 2680.32 546.822 2680.32 554.668C2680.32 562.993 2681.82 568.923 2684.81 572.457C2687.81 575.991 2691.7 577.758 2696.49 577.758C2700.03 577.758 2703.07 576.635 2705.61 574.389C2708.16 572.143 2709.99 568.609 2711.09 563.787ZM2763.71 572.816L2776.29 574.928C2774.68 579.54 2772.11 583.059 2768.61 585.484C2765.14 587.88 2760.78 589.078 2755.54 589.078C2747.24 589.078 2741.1 586.368 2737.12 580.947C2733.98 576.605 2732.4 571.124 2732.4 564.506C2732.4 556.6 2734.47 550.415 2738.6 545.953C2742.74 541.461 2747.96 539.215 2754.28 539.215C2761.38 539.215 2766.98 541.566 2771.08 546.268C2775.18 550.939 2777.15 558.112 2776.97 567.785H2745.34C2745.43 571.529 2746.45 574.449 2748.4 576.545C2750.34 578.611 2752.77 579.645 2755.67 579.645C2757.65 579.645 2759.31 579.105 2760.66 578.027C2762.01 576.949 2763.03 575.212 2763.71 572.816ZM2764.43 560.059C2764.34 556.405 2763.4 553.635 2761.6 551.748C2759.81 549.831 2757.62 548.873 2755.04 548.873C2752.29 548.873 2750.01 549.876 2748.22 551.883C2746.42 553.889 2745.54 556.615 2745.57 560.059H2764.43ZM2831.43 588H2818.81V563.652C2818.81 558.501 2818.54 555.177 2818 553.68C2817.46 552.152 2816.57 550.969 2815.35 550.131C2814.15 549.292 2812.7 548.873 2810.99 548.873C2808.8 548.873 2806.84 549.472 2805.1 550.67C2803.37 551.868 2802.17 553.455 2801.51 555.432C2800.88 557.408 2800.57 561.062 2800.57 566.393V588H2787.94V540.293H2799.67V547.301C2803.83 541.91 2809.07 539.215 2815.39 539.215C2818.18 539.215 2820.72 539.724 2823.03 540.742C2825.33 541.73 2827.07 543.003 2828.24 544.561C2829.44 546.118 2830.26 547.885 2830.71 549.861C2831.19 551.838 2831.43 554.668 2831.43 558.352V588ZM2866.89 540.293V550.355H2858.26V569.582C2858.26 573.475 2858.34 575.751 2858.49 576.41C2858.67 577.039 2859.04 577.563 2859.61 577.982C2860.21 578.402 2860.93 578.611 2861.77 578.611C2862.94 578.611 2864.63 578.207 2866.84 577.398L2867.92 587.191C2864.99 588.449 2861.66 589.078 2857.95 589.078C2855.67 589.078 2853.62 588.704 2851.8 587.955C2849.97 587.176 2848.62 586.188 2847.75 584.99C2846.91 583.762 2846.33 582.115 2846 580.049C2845.73 578.581 2845.6 575.617 2845.6 571.154V550.355H2839.8V540.293H2845.6V530.814L2858.26 523.447V540.293H2866.89ZM2904.01 572.816L2916.59 574.928C2914.97 579.54 2912.41 583.059 2908.91 585.484C2905.43 587.88 2901.08 589.078 2895.84 589.078C2887.54 589.078 2881.4 586.368 2877.42 580.947C2874.27 576.605 2872.7 571.124 2872.7 564.506C2872.7 556.6 2874.77 550.415 2878.9 545.953C2883.03 541.461 2888.26 539.215 2894.58 539.215C2901.68 539.215 2907.28 541.566 2911.38 546.268C2915.48 550.939 2917.44 558.112 2917.26 567.785H2885.64C2885.73 571.529 2886.75 574.449 2888.69 576.545C2890.64 578.611 2893.07 579.645 2895.97 579.645C2897.95 579.645 2899.61 579.105 2900.96 578.027C2902.3 576.949 2903.32 575.212 2904.01 572.816ZM2904.73 560.059C2904.64 556.405 2903.7 553.635 2901.9 551.748C2900.1 549.831 2897.92 548.873 2895.34 548.873C2892.59 548.873 2890.31 549.876 2888.51 551.883C2886.72 553.889 2885.83 556.615 2885.86 560.059H2904.73ZM2940.42 588H2927.79V540.293H2939.52V547.076C2941.52 543.872 2943.32 541.76 2944.91 540.742C2946.53 539.724 2948.35 539.215 2950.39 539.215C2953.26 539.215 2956.03 540.008 2958.7 541.596L2954.79 552.602C2952.66 551.224 2950.69 550.535 2948.86 550.535C2947.09 550.535 2945.6 551.029 2944.37 552.018C2943.14 552.976 2942.17 554.728 2941.45 557.273C2940.76 559.819 2940.42 565.15 2940.42 573.266V588Z" fill="black"/>
</svg>
