<svg width="3450" height="2210" viewBox="0 0 3450 2210" fill="none" xmlns="http://www.w3.org/2000/svg">
<path d="M1931.38 2058.71C1931.38 2058.96 1931.37 2059.18 1931.36 2059.37C1931.34 2059.55 1931.31 2059.72 1931.26 2059.86C1931.23 2060 1931.18 2060.12 1931.12 2060.23C1931.06 2060.34 1930.95 2060.48 1930.79 2060.63C1930.64 2060.79 1930.31 2061.03 1929.81 2061.36C1929.31 2061.67 1928.68 2061.98 1927.93 2062.3C1927.2 2062.59 1926.35 2062.84 1925.38 2063.05C1924.43 2063.27 1923.38 2063.38 1922.24 2063.38C1920.27 2063.38 1918.49 2063.05 1916.9 2062.39C1915.32 2061.73 1913.97 2060.77 1912.84 2059.48C1911.73 2058.2 1910.87 2056.62 1910.26 2054.75C1909.67 2052.86 1909.37 2050.69 1909.37 2048.23C1909.37 2045.72 1909.69 2043.48 1910.33 2041.51C1910.99 2039.54 1911.9 2037.88 1913.08 2036.52C1914.25 2035.14 1915.65 2034.09 1917.27 2033.38C1918.91 2032.66 1920.72 2032.3 1922.71 2032.3C1923.58 2032.3 1924.43 2032.38 1925.26 2032.55C1926.09 2032.71 1926.86 2032.91 1927.56 2033.16C1928.26 2033.41 1928.89 2033.7 1929.43 2034.03C1929.98 2034.36 1930.36 2034.63 1930.56 2034.85C1930.78 2035.05 1930.92 2035.21 1930.98 2035.32C1931.04 2035.43 1931.09 2035.56 1931.12 2035.72C1931.17 2035.86 1931.2 2036.03 1931.22 2036.23C1931.25 2036.44 1931.26 2036.68 1931.26 2036.96C1931.26 2037.27 1931.25 2037.54 1931.22 2037.76C1931.18 2037.98 1931.14 2038.16 1931.08 2038.32C1931.01 2038.46 1930.93 2038.57 1930.84 2038.65C1930.76 2038.71 1930.66 2038.74 1930.54 2038.74C1930.32 2038.74 1930.01 2038.59 1929.62 2038.3C1929.23 2037.98 1928.72 2037.65 1928.1 2037.29C1927.49 2036.91 1926.74 2036.58 1925.85 2036.28C1924.97 2035.97 1923.92 2035.81 1922.68 2035.81C1921.34 2035.81 1920.11 2036.09 1919.01 2036.63C1917.91 2037.16 1916.97 2037.95 1916.19 2039C1915.41 2040.05 1914.8 2041.33 1914.36 2042.84C1913.94 2044.34 1913.73 2046.06 1913.73 2048C1913.73 2049.92 1913.93 2051.62 1914.34 2053.11C1914.76 2054.58 1915.36 2055.81 1916.12 2056.81C1916.9 2057.8 1917.86 2058.55 1918.98 2059.06C1920.11 2059.56 1921.38 2059.81 1922.8 2059.81C1924.01 2059.81 1925.05 2059.66 1925.94 2059.37C1926.85 2059.07 1927.61 2058.74 1928.24 2058.38C1928.88 2058.01 1929.4 2057.67 1929.81 2057.38C1930.22 2057.08 1930.54 2056.93 1930.77 2056.93C1930.88 2056.93 1930.97 2056.95 1931.05 2057C1931.13 2057.05 1931.19 2057.14 1931.24 2057.28C1931.29 2057.41 1931.32 2057.59 1931.33 2057.82C1931.36 2058.05 1931.38 2058.35 1931.38 2058.71ZM1955.32 2051.63C1955.32 2053.35 1955.09 2054.94 1954.64 2056.39C1954.19 2057.83 1953.51 2059.07 1952.6 2060.12C1951.71 2061.16 1950.59 2061.98 1949.23 2062.58C1947.88 2063.16 1946.32 2063.45 1944.54 2063.45C1942.8 2063.45 1941.29 2063.19 1939.99 2062.67C1938.71 2062.16 1937.64 2061.41 1936.78 2060.42C1935.92 2059.44 1935.28 2058.24 1934.86 2056.84C1934.44 2055.43 1934.23 2053.84 1934.23 2052.05C1934.23 2050.34 1934.44 2048.76 1934.88 2047.32C1935.34 2045.87 1936.01 2044.62 1936.9 2043.57C1937.8 2042.52 1938.93 2041.71 1940.27 2041.13C1941.62 2040.55 1943.19 2040.27 1944.98 2040.27C1946.72 2040.27 1948.23 2040.52 1949.51 2041.04C1950.8 2041.55 1951.88 2042.3 1952.74 2043.29C1953.6 2044.27 1954.24 2045.47 1954.66 2046.88C1955.1 2048.28 1955.32 2049.87 1955.32 2051.63ZM1951.24 2051.89C1951.24 2050.75 1951.13 2049.67 1950.91 2048.66C1950.71 2047.64 1950.37 2046.75 1949.88 2045.98C1949.4 2045.22 1948.74 2044.62 1947.91 2044.18C1947.09 2043.73 1946.05 2043.5 1944.82 2043.5C1943.68 2043.5 1942.69 2043.7 1941.87 2044.11C1941.05 2044.52 1940.38 2045.09 1939.85 2045.84C1939.32 2046.58 1938.92 2047.45 1938.66 2048.47C1938.41 2049.48 1938.28 2050.59 1938.28 2051.8C1938.28 2052.95 1938.38 2054.04 1938.59 2055.05C1938.8 2056.07 1939.16 2056.96 1939.64 2057.73C1940.14 2058.48 1940.8 2059.08 1941.63 2059.53C1942.46 2059.97 1943.49 2060.19 1944.73 2060.19C1945.85 2060.19 1946.83 2059.98 1947.66 2059.58C1948.48 2059.17 1949.16 2058.6 1949.69 2057.87C1950.23 2057.13 1950.62 2056.26 1950.87 2055.24C1951.12 2054.23 1951.24 2053.11 1951.24 2051.89ZM1978.51 2062.41C1978.51 2062.54 1978.48 2062.65 1978.42 2062.74C1978.37 2062.82 1978.27 2062.89 1978.13 2062.95C1977.99 2063.02 1977.81 2063.06 1977.57 2063.09C1977.35 2063.12 1977.08 2063.14 1976.75 2063.14C1976.39 2063.14 1976.1 2063.12 1975.86 2063.09C1975.64 2063.06 1975.46 2063.02 1975.32 2062.95C1975.2 2062.89 1975.11 2062.82 1975.06 2062.74C1975.02 2062.65 1974.99 2062.54 1974.99 2062.41V2059.62C1973.79 2060.95 1972.6 2061.92 1971.43 2062.53C1970.26 2063.14 1969.07 2063.45 1967.87 2063.45C1966.46 2063.45 1965.27 2063.21 1964.31 2062.74C1963.35 2062.27 1962.58 2061.64 1961.99 2060.84C1961.39 2060.03 1960.96 2059.09 1960.7 2058.03C1960.45 2056.95 1960.32 2055.65 1960.32 2054.12V2041.32C1960.32 2041.2 1960.35 2041.09 1960.39 2041.02C1960.45 2040.92 1960.56 2040.84 1960.72 2040.78C1960.88 2040.7 1961.08 2040.66 1961.33 2040.64C1961.58 2040.61 1961.89 2040.59 1962.27 2040.59C1962.64 2040.59 1962.95 2040.61 1963.2 2040.64C1963.45 2040.66 1963.65 2040.7 1963.79 2040.78C1963.95 2040.84 1964.06 2040.92 1964.12 2041.02C1964.18 2041.09 1964.21 2041.2 1964.21 2041.32V2053.6C1964.21 2054.84 1964.3 2055.83 1964.47 2056.58C1964.66 2057.31 1964.93 2057.95 1965.29 2058.48C1965.67 2058.99 1966.13 2059.4 1966.7 2059.7C1967.26 2059.98 1967.92 2060.12 1968.67 2060.12C1969.63 2060.12 1970.6 2059.77 1971.55 2059.09C1972.52 2058.4 1973.54 2057.39 1974.62 2056.06V2041.32C1974.62 2041.2 1974.64 2041.09 1974.69 2041.02C1974.75 2040.92 1974.86 2040.84 1975.02 2040.78C1975.17 2040.7 1975.37 2040.66 1975.6 2040.64C1975.85 2040.61 1976.17 2040.59 1976.56 2040.59C1976.94 2040.59 1977.25 2040.61 1977.5 2040.64C1977.75 2040.66 1977.95 2040.7 1978.09 2040.78C1978.23 2040.84 1978.33 2040.92 1978.39 2041.02C1978.47 2041.09 1978.51 2041.2 1978.51 2041.32V2062.41ZM1997.41 2042.7C1997.41 2043.05 1997.4 2043.34 1997.39 2043.57C1997.37 2043.8 1997.34 2043.99 1997.29 2044.13C1997.25 2044.26 1997.18 2044.36 1997.11 2044.44C1997.04 2044.5 1996.95 2044.53 1996.82 2044.53C1996.7 2044.53 1996.54 2044.5 1996.36 2044.44C1996.18 2044.36 1995.98 2044.29 1995.75 2044.23C1995.53 2044.15 1995.28 2044.08 1995 2044.02C1994.71 2043.95 1994.41 2043.92 1994.08 2043.92C1993.69 2043.92 1993.31 2044 1992.93 2044.16C1992.56 2044.31 1992.16 2044.57 1991.74 2044.93C1991.33 2045.29 1990.9 2045.77 1990.45 2046.36C1990 2046.95 1989.5 2047.68 1988.95 2048.54V2062.41C1988.95 2062.54 1988.92 2062.65 1988.86 2062.74C1988.79 2062.82 1988.69 2062.89 1988.55 2062.95C1988.41 2063.02 1988.21 2063.06 1987.96 2063.09C1987.71 2063.12 1987.39 2063.14 1987 2063.14C1986.63 2063.14 1986.32 2063.12 1986.07 2063.09C1985.82 2063.06 1985.61 2063.02 1985.46 2062.95C1985.32 2062.89 1985.21 2062.82 1985.15 2062.74C1985.11 2062.65 1985.08 2062.54 1985.08 2062.41V2041.32C1985.08 2041.2 1985.11 2041.09 1985.15 2041.02C1985.2 2040.92 1985.29 2040.84 1985.43 2040.78C1985.57 2040.7 1985.75 2040.66 1985.97 2040.64C1986.19 2040.61 1986.48 2040.59 1986.84 2040.59C1987.18 2040.59 1987.46 2040.61 1987.68 2040.64C1987.92 2040.66 1988.1 2040.7 1988.22 2040.78C1988.35 2040.84 1988.43 2040.92 1988.48 2041.02C1988.54 2041.09 1988.57 2041.2 1988.57 2041.32V2044.39C1989.15 2043.55 1989.69 2042.86 1990.19 2042.33C1990.71 2041.8 1991.19 2041.38 1991.64 2041.09C1992.1 2040.77 1992.54 2040.56 1992.98 2040.45C1993.43 2040.33 1993.89 2040.27 1994.34 2040.27C1994.54 2040.27 1994.77 2040.28 1995.02 2040.31C1995.28 2040.33 1995.56 2040.37 1995.84 2040.43C1996.12 2040.49 1996.37 2040.56 1996.59 2040.64C1996.82 2040.72 1996.99 2040.8 1997.08 2040.88C1997.18 2040.95 1997.24 2041.03 1997.27 2041.11C1997.3 2041.17 1997.32 2041.26 1997.34 2041.37C1997.37 2041.48 1997.39 2041.64 1997.39 2041.86C1997.4 2042.06 1997.41 2042.34 1997.41 2042.7ZM2013.64 2056.67C2013.64 2057.75 2013.44 2058.71 2013.03 2059.55C2012.64 2060.4 2012.08 2061.11 2011.34 2061.69C2010.61 2062.27 2009.73 2062.7 2008.72 2063C2007.7 2063.3 2006.58 2063.45 2005.37 2063.45C2004.62 2063.45 2003.9 2063.38 2003.21 2063.26C2002.54 2063.15 2001.93 2063.01 2001.38 2062.84C2000.85 2062.65 2000.4 2062.46 2000.02 2062.27C1999.65 2062.07 1999.37 2061.89 1999.2 2061.73C1999.03 2061.58 1998.9 2061.36 1998.83 2061.08C1998.75 2060.8 1998.71 2060.41 1998.71 2059.93C1998.71 2059.63 1998.72 2059.38 1998.76 2059.18C1998.79 2058.98 1998.83 2058.81 1998.87 2058.69C1998.92 2058.56 1998.98 2058.48 1999.06 2058.43C1999.15 2058.37 1999.26 2058.34 1999.37 2058.34C1999.54 2058.34 1999.79 2058.45 2000.12 2058.66C2000.46 2058.87 2000.87 2059.09 2001.36 2059.34C2001.86 2059.59 2002.44 2059.83 2003.12 2060.05C2003.79 2060.25 2004.56 2060.35 2005.44 2060.35C2006.09 2060.35 2006.69 2060.28 2007.22 2060.14C2007.75 2060 2008.21 2059.8 2008.6 2059.53C2008.99 2059.25 2009.29 2058.9 2009.49 2058.48C2009.71 2058.05 2009.82 2057.55 2009.82 2056.98C2009.82 2056.38 2009.66 2055.88 2009.35 2055.48C2009.05 2055.07 2008.65 2054.71 2008.15 2054.4C2007.65 2054.09 2007.09 2053.81 2006.47 2053.58C2005.84 2053.33 2005.19 2053.07 2004.52 2052.8C2003.87 2052.54 2003.22 2052.24 2002.58 2051.91C2001.95 2051.57 2001.39 2051.16 2000.89 2050.67C2000.39 2050.19 1999.98 2049.61 1999.67 2048.94C1999.37 2048.27 1999.22 2047.46 1999.22 2046.52C1999.22 2045.7 1999.38 2044.91 1999.69 2044.16C2000.02 2043.39 2000.51 2042.73 2001.15 2042.16C2001.79 2041.59 2002.58 2041.12 2003.54 2040.78C2004.51 2040.44 2005.63 2040.27 2006.91 2040.27C2007.47 2040.27 2008.04 2040.31 2008.6 2040.41C2009.16 2040.5 2009.67 2040.62 2010.12 2040.76C2010.58 2040.9 2010.96 2041.05 2011.27 2041.23C2011.6 2041.38 2011.84 2041.52 2012 2041.65C2012.17 2041.77 2012.28 2041.88 2012.33 2041.98C2012.39 2042.07 2012.43 2042.18 2012.44 2042.3C2012.47 2042.41 2012.5 2042.55 2012.51 2042.73C2012.54 2042.9 2012.56 2043.11 2012.56 2043.36C2012.56 2043.62 2012.54 2043.86 2012.51 2044.06C2012.5 2044.25 2012.46 2044.41 2012.4 2044.53C2012.35 2044.66 2012.29 2044.75 2012.21 2044.81C2012.13 2044.86 2012.04 2044.88 2011.95 2044.88C2011.81 2044.88 2011.61 2044.8 2011.34 2044.62C2011.08 2044.45 2010.73 2044.27 2010.31 2044.09C2009.89 2043.88 2009.39 2043.7 2008.81 2043.52C2008.25 2043.35 2007.6 2043.27 2006.87 2043.27C2006.21 2043.27 2005.63 2043.34 2005.13 2043.5C2004.63 2043.64 2004.22 2043.85 2003.89 2044.13C2003.58 2044.4 2003.33 2044.72 2003.16 2045.09C2003.01 2045.47 2002.93 2045.88 2002.93 2046.31C2002.93 2046.92 2003.08 2047.44 2003.4 2047.86C2003.71 2048.27 2004.12 2048.62 2004.62 2048.94C2005.12 2049.25 2005.69 2049.53 2006.33 2049.78C2006.97 2050.03 2007.62 2050.29 2008.27 2050.55C2008.94 2050.82 2009.6 2051.12 2010.24 2051.45C2010.9 2051.77 2011.47 2052.17 2011.97 2052.64C2012.47 2053.11 2012.87 2053.67 2013.17 2054.33C2013.48 2054.98 2013.64 2055.77 2013.64 2056.67ZM2036.62 2050.95C2036.62 2051.56 2036.46 2052 2036.15 2052.27C2035.85 2052.52 2035.51 2052.64 2035.12 2052.64H2021.29C2021.29 2053.81 2021.41 2054.87 2021.64 2055.8C2021.88 2056.74 2022.27 2057.55 2022.81 2058.22C2023.36 2058.89 2024.07 2059.41 2024.95 2059.77C2025.82 2060.12 2026.89 2060.3 2028.16 2060.3C2029.16 2060.3 2030.05 2060.23 2030.83 2060.07C2031.61 2059.9 2032.28 2059.71 2032.84 2059.51C2033.42 2059.3 2033.89 2059.12 2034.25 2058.97C2034.63 2058.8 2034.91 2058.71 2035.09 2058.71C2035.2 2058.71 2035.3 2058.74 2035.38 2058.8C2035.47 2058.85 2035.54 2058.93 2035.59 2059.04C2035.63 2059.15 2035.66 2059.3 2035.68 2059.51C2035.71 2059.7 2035.73 2059.93 2035.73 2060.21C2035.73 2060.41 2035.72 2060.59 2035.7 2060.75C2035.69 2060.89 2035.66 2061.02 2035.63 2061.15C2035.62 2061.26 2035.58 2061.36 2035.52 2061.45C2035.47 2061.55 2035.4 2061.64 2035.3 2061.73C2035.23 2061.81 2034.98 2061.95 2034.55 2062.16C2034.13 2062.34 2033.59 2062.53 2032.91 2062.72C2032.24 2062.91 2031.46 2063.07 2030.57 2063.21C2029.7 2063.37 2028.76 2063.45 2027.76 2063.45C2026.02 2063.45 2024.5 2063.2 2023.19 2062.72C2021.89 2062.23 2020.8 2061.52 2019.91 2060.56C2019.02 2059.61 2018.34 2058.41 2017.89 2056.98C2017.44 2055.54 2017.21 2053.87 2017.21 2051.96C2017.21 2050.15 2017.45 2048.52 2017.91 2047.09C2018.38 2045.63 2019.05 2044.41 2019.93 2043.41C2020.82 2042.39 2021.89 2041.62 2023.14 2041.09C2024.39 2040.54 2025.79 2040.27 2027.34 2040.27C2028.99 2040.27 2030.4 2040.53 2031.55 2041.06C2032.73 2041.59 2033.69 2042.31 2034.44 2043.22C2035.19 2044.11 2035.73 2045.16 2036.08 2046.38C2036.44 2047.59 2036.62 2048.88 2036.62 2050.25V2050.95ZM2032.73 2049.8C2032.77 2047.77 2032.32 2046.18 2031.37 2045.02C2030.43 2043.87 2029.03 2043.29 2027.17 2043.29C2026.22 2043.29 2025.38 2043.47 2024.66 2043.83C2023.95 2044.19 2023.34 2044.66 2022.86 2045.26C2022.38 2045.85 2022 2046.55 2021.73 2047.34C2021.47 2048.12 2021.32 2048.95 2021.29 2049.8H2032.73ZM2076.01 2047.39C2076.01 2050.02 2075.68 2052.31 2075 2054.28C2074.33 2056.23 2073.35 2057.86 2072.05 2059.16C2070.77 2060.44 2069.19 2061.4 2067.32 2062.04C2065.44 2062.68 2063.21 2063 2060.61 2063H2054.19C2053.83 2063 2053.49 2062.88 2053.16 2062.65C2052.85 2062.4 2052.69 2061.97 2052.69 2061.36V2034.31C2052.69 2033.7 2052.85 2033.28 2053.16 2033.05C2053.49 2032.8 2053.83 2032.67 2054.19 2032.67H2061.06C2063.68 2032.67 2065.9 2033.02 2067.72 2033.7C2069.53 2034.38 2071.04 2035.35 2072.26 2036.63C2073.5 2037.9 2074.43 2039.44 2075.05 2041.25C2075.69 2043.06 2076.01 2045.11 2076.01 2047.39ZM2071.77 2047.55C2071.77 2045.91 2071.57 2044.39 2071.16 2042.98C2070.75 2041.56 2070.11 2040.34 2069.24 2039.3C2068.38 2038.27 2067.29 2037.47 2065.96 2036.89C2064.63 2036.31 2062.92 2036.02 2060.82 2036.02H2056.72V2059.62H2060.87C2062.81 2059.62 2064.44 2059.38 2065.77 2058.9C2067.1 2058.41 2068.21 2057.67 2069.1 2056.67C2069.99 2055.67 2070.65 2054.42 2071.09 2052.92C2071.54 2051.41 2071.77 2049.62 2071.77 2047.55ZM2085.07 2062.41C2085.07 2062.54 2085.04 2062.65 2084.98 2062.74C2084.91 2062.82 2084.81 2062.89 2084.67 2062.95C2084.53 2063.02 2084.33 2063.06 2084.08 2063.09C2083.83 2063.12 2083.51 2063.14 2083.12 2063.14C2082.75 2063.14 2082.44 2063.12 2082.19 2063.09C2081.94 2063.06 2081.73 2063.02 2081.58 2062.95C2081.44 2062.89 2081.33 2062.82 2081.27 2062.74C2081.23 2062.65 2081.2 2062.54 2081.2 2062.41V2041.32C2081.2 2041.21 2081.23 2041.11 2081.27 2041.02C2081.33 2040.92 2081.44 2040.84 2081.58 2040.78C2081.73 2040.72 2081.94 2040.67 2082.19 2040.64C2082.44 2040.61 2082.75 2040.59 2083.12 2040.59C2083.51 2040.59 2083.83 2040.61 2084.08 2040.64C2084.33 2040.67 2084.53 2040.72 2084.67 2040.78C2084.81 2040.84 2084.91 2040.92 2084.98 2041.02C2085.04 2041.11 2085.07 2041.21 2085.07 2041.32V2062.41ZM2085.51 2034.2C2085.51 2035.1 2085.34 2035.72 2085 2036.05C2084.65 2036.38 2084.02 2036.54 2083.1 2036.54C2082.19 2036.54 2081.57 2036.38 2081.23 2036.07C2080.9 2035.74 2080.73 2035.13 2080.73 2034.24C2080.73 2033.34 2080.9 2032.72 2081.25 2032.39C2081.59 2032.06 2082.23 2031.9 2083.15 2031.9C2084.05 2031.9 2084.67 2032.06 2085 2032.39C2085.34 2032.7 2085.51 2033.3 2085.51 2034.2ZM2103.97 2042.7C2103.97 2043.05 2103.96 2043.34 2103.95 2043.57C2103.93 2043.8 2103.9 2043.99 2103.85 2044.13C2103.81 2044.26 2103.74 2044.36 2103.66 2044.44C2103.6 2044.5 2103.51 2044.53 2103.38 2044.53C2103.26 2044.53 2103.1 2044.5 2102.91 2044.44C2102.74 2044.36 2102.54 2044.29 2102.31 2044.23C2102.09 2044.15 2101.84 2044.08 2101.56 2044.02C2101.27 2043.95 2100.97 2043.92 2100.64 2043.92C2100.25 2043.92 2099.87 2044 2099.49 2044.16C2099.12 2044.31 2098.72 2044.57 2098.3 2044.93C2097.89 2045.29 2097.46 2045.77 2097.01 2046.36C2096.56 2046.95 2096.06 2047.68 2095.51 2048.54V2062.41C2095.51 2062.54 2095.48 2062.65 2095.41 2062.74C2095.35 2062.82 2095.25 2062.89 2095.11 2062.95C2094.97 2063.02 2094.77 2063.06 2094.52 2063.09C2094.27 2063.12 2093.95 2063.14 2093.56 2063.14C2093.19 2063.14 2092.88 2063.12 2092.63 2063.09C2092.38 2063.06 2092.17 2063.02 2092.02 2062.95C2091.88 2062.89 2091.77 2062.82 2091.71 2062.74C2091.66 2062.65 2091.64 2062.54 2091.64 2062.41V2041.32C2091.64 2041.2 2091.66 2041.09 2091.71 2041.02C2091.76 2040.92 2091.85 2040.84 2091.99 2040.78C2092.13 2040.7 2092.31 2040.66 2092.53 2040.64C2092.75 2040.61 2093.04 2040.59 2093.4 2040.59C2093.74 2040.59 2094.02 2040.61 2094.24 2040.64C2094.48 2040.66 2094.66 2040.7 2094.78 2040.78C2094.91 2040.84 2094.99 2040.92 2095.04 2041.02C2095.1 2041.09 2095.13 2041.2 2095.13 2041.32V2044.39C2095.71 2043.55 2096.25 2042.86 2096.75 2042.33C2097.27 2041.8 2097.75 2041.38 2098.2 2041.09C2098.66 2040.77 2099.1 2040.56 2099.54 2040.45C2099.99 2040.33 2100.45 2040.27 2100.9 2040.27C2101.1 2040.27 2101.33 2040.28 2101.58 2040.31C2101.84 2040.33 2102.12 2040.37 2102.4 2040.43C2102.68 2040.49 2102.93 2040.56 2103.15 2040.64C2103.38 2040.72 2103.55 2040.8 2103.64 2040.88C2103.74 2040.95 2103.8 2041.03 2103.83 2041.11C2103.86 2041.17 2103.88 2041.26 2103.9 2041.37C2103.93 2041.48 2103.95 2041.64 2103.95 2041.86C2103.96 2042.06 2103.97 2042.34 2103.97 2042.7ZM2125.14 2050.95C2125.14 2051.56 2124.99 2052 2124.67 2052.27C2124.38 2052.52 2124.03 2052.64 2123.64 2052.64H2109.82C2109.82 2053.81 2109.93 2054.87 2110.17 2055.8C2110.4 2056.74 2110.79 2057.55 2111.34 2058.22C2111.89 2058.89 2112.6 2059.41 2113.47 2059.77C2114.35 2060.12 2115.42 2060.3 2116.68 2060.3C2117.68 2060.3 2118.57 2060.23 2119.35 2060.07C2120.14 2059.9 2120.81 2059.71 2121.37 2059.51C2121.95 2059.3 2122.42 2059.12 2122.78 2058.97C2123.15 2058.8 2123.43 2058.71 2123.62 2058.71C2123.73 2058.71 2123.82 2058.74 2123.9 2058.8C2124 2058.85 2124.07 2058.93 2124.11 2059.04C2124.16 2059.15 2124.19 2059.3 2124.21 2059.51C2124.24 2059.7 2124.25 2059.93 2124.25 2060.21C2124.25 2060.41 2124.25 2060.59 2124.23 2060.75C2124.21 2060.89 2124.19 2061.02 2124.16 2061.15C2124.14 2061.26 2124.1 2061.36 2124.04 2061.45C2124 2061.55 2123.92 2061.64 2123.83 2061.73C2123.75 2061.81 2123.5 2061.95 2123.08 2062.16C2122.66 2062.34 2122.11 2062.53 2121.44 2062.72C2120.77 2062.91 2119.99 2063.07 2119.1 2063.21C2118.22 2063.37 2117.28 2063.45 2116.28 2063.45C2114.55 2063.45 2113.03 2063.2 2111.71 2062.72C2110.42 2062.23 2109.32 2061.52 2108.43 2060.56C2107.54 2059.61 2106.87 2058.41 2106.42 2056.98C2105.96 2055.54 2105.74 2053.87 2105.74 2051.96C2105.74 2050.15 2105.97 2048.52 2106.44 2047.09C2106.91 2045.63 2107.58 2044.41 2108.46 2043.41C2109.35 2042.39 2110.42 2041.62 2111.67 2041.09C2112.92 2040.54 2114.32 2040.27 2115.86 2040.27C2117.52 2040.27 2118.92 2040.53 2120.08 2041.06C2121.25 2041.59 2122.21 2042.31 2122.96 2043.22C2123.71 2044.11 2124.26 2045.16 2124.6 2046.38C2124.96 2047.59 2125.14 2048.88 2125.14 2050.25V2050.95ZM2121.25 2049.8C2121.3 2047.77 2120.85 2046.18 2119.89 2045.02C2118.96 2043.87 2117.56 2043.29 2115.7 2043.29C2114.75 2043.29 2113.91 2043.47 2113.19 2043.83C2112.47 2044.19 2111.87 2044.66 2111.39 2045.26C2110.9 2045.85 2110.53 2046.55 2110.26 2047.34C2110 2048.12 2109.85 2048.95 2109.82 2049.8H2121.25ZM2145.64 2059.2C2145.64 2059.47 2145.63 2059.7 2145.61 2059.91C2145.6 2060.09 2145.57 2060.26 2145.52 2060.4C2145.49 2060.52 2145.44 2060.64 2145.38 2060.75C2145.33 2060.84 2145.21 2060.99 2145.01 2061.2C2144.82 2061.38 2144.49 2061.62 2144.02 2061.92C2143.55 2062.2 2143.02 2062.46 2142.43 2062.7C2141.85 2062.91 2141.22 2063.09 2140.53 2063.23C2139.84 2063.38 2139.13 2063.45 2138.4 2063.45C2136.88 2063.45 2135.54 2063.2 2134.36 2062.7C2133.19 2062.2 2132.21 2061.47 2131.41 2060.52C2130.63 2059.55 2130.03 2058.37 2129.61 2056.98C2129.2 2055.57 2129 2053.95 2129 2052.12C2129 2050.05 2129.25 2048.27 2129.75 2046.78C2130.26 2045.28 2130.96 2044.05 2131.83 2043.1C2132.72 2042.15 2133.76 2041.45 2134.95 2040.99C2136.15 2040.52 2137.45 2040.29 2138.84 2040.29C2139.51 2040.29 2140.16 2040.35 2140.79 2040.48C2141.43 2040.6 2142.01 2040.77 2142.54 2040.97C2143.08 2041.17 2143.54 2041.41 2143.95 2041.67C2144.37 2041.94 2144.68 2042.16 2144.86 2042.35C2145.05 2042.54 2145.18 2042.69 2145.24 2042.8C2145.32 2042.91 2145.38 2043.04 2145.43 2043.2C2145.47 2043.34 2145.51 2043.5 2145.52 2043.69C2145.54 2043.88 2145.54 2044.11 2145.54 2044.39C2145.54 2045 2145.47 2045.43 2145.33 2045.68C2145.19 2045.91 2145.02 2046.03 2144.82 2046.03C2144.58 2046.03 2144.31 2045.91 2144 2045.66C2143.7 2045.39 2143.32 2045.1 2142.85 2044.79C2142.38 2044.48 2141.81 2044.2 2141.14 2043.95C2140.48 2043.68 2139.7 2043.55 2138.79 2043.55C2136.93 2043.55 2135.51 2044.27 2134.51 2045.7C2133.52 2047.12 2133.03 2049.2 2133.03 2051.91C2133.03 2053.27 2133.15 2054.47 2133.4 2055.5C2133.67 2056.52 2134.05 2057.37 2134.55 2058.05C2135.05 2058.74 2135.66 2059.26 2136.38 2059.6C2137.11 2059.93 2137.95 2060.09 2138.89 2060.09C2139.78 2060.09 2140.56 2059.95 2141.23 2059.67C2141.9 2059.39 2142.48 2059.09 2142.97 2058.76C2143.47 2058.41 2143.88 2058.11 2144.21 2057.84C2144.55 2057.56 2144.82 2057.42 2145.01 2057.42C2145.11 2057.42 2145.21 2057.45 2145.29 2057.52C2145.36 2057.58 2145.43 2057.69 2145.47 2057.84C2145.54 2057.98 2145.58 2058.17 2145.59 2058.41C2145.62 2058.62 2145.64 2058.89 2145.64 2059.2ZM2161.16 2060.87C2161.16 2061.32 2161.13 2061.68 2161.07 2061.95C2161.01 2062.21 2160.91 2062.41 2160.79 2062.53C2160.66 2062.66 2160.48 2062.77 2160.23 2062.88C2159.98 2062.99 2159.69 2063.08 2159.36 2063.14C2159.05 2063.22 2158.71 2063.28 2158.35 2063.33C2157.99 2063.38 2157.63 2063.4 2157.27 2063.4C2156.18 2063.4 2155.24 2063.26 2154.46 2062.98C2153.68 2062.68 2153.04 2062.24 2152.54 2061.66C2152.04 2061.07 2151.67 2060.33 2151.44 2059.44C2151.22 2058.53 2151.11 2057.47 2151.11 2056.25V2043.92H2148.16C2147.92 2043.92 2147.73 2043.8 2147.59 2043.55C2147.45 2043.3 2147.38 2042.89 2147.38 2042.33C2147.38 2042.03 2147.4 2041.78 2147.43 2041.58C2147.48 2041.38 2147.53 2041.21 2147.59 2041.09C2147.66 2040.95 2147.73 2040.85 2147.83 2040.8C2147.94 2040.74 2148.05 2040.71 2148.18 2040.71H2151.11V2035.7C2151.11 2035.59 2151.13 2035.48 2151.18 2035.39C2151.24 2035.3 2151.34 2035.22 2151.48 2035.16C2151.64 2035.08 2151.84 2035.02 2152.09 2034.99C2152.34 2034.96 2152.66 2034.95 2153.03 2034.95C2153.42 2034.95 2153.74 2034.96 2153.99 2034.99C2154.24 2035.02 2154.44 2035.08 2154.58 2035.16C2154.72 2035.22 2154.82 2035.3 2154.88 2035.39C2154.94 2035.48 2154.98 2035.59 2154.98 2035.7V2040.71H2160.39C2160.51 2040.71 2160.62 2040.74 2160.72 2040.8C2160.81 2040.85 2160.89 2040.95 2160.95 2041.09C2161.03 2041.21 2161.09 2041.38 2161.12 2041.58C2161.15 2041.78 2161.16 2042.03 2161.16 2042.33C2161.16 2042.89 2161.09 2043.3 2160.95 2043.55C2160.81 2043.8 2160.62 2043.92 2160.39 2043.92H2154.98V2055.69C2154.98 2057.14 2155.19 2058.24 2155.61 2058.99C2156.05 2059.73 2156.82 2060.09 2157.93 2060.09C2158.29 2060.09 2158.61 2060.06 2158.89 2060C2159.17 2059.92 2159.42 2059.84 2159.64 2059.77C2159.86 2059.69 2160.05 2059.62 2160.2 2059.55C2160.36 2059.48 2160.5 2059.44 2160.62 2059.44C2160.7 2059.44 2160.77 2059.46 2160.84 2059.51C2160.91 2059.54 2160.97 2059.61 2161 2059.72C2161.05 2059.83 2161.09 2059.98 2161.12 2060.16C2161.15 2060.35 2161.16 2060.59 2161.16 2060.87ZM2184.85 2051.63C2184.85 2053.35 2184.62 2054.94 2184.17 2056.39C2183.71 2057.83 2183.03 2059.07 2182.13 2060.12C2181.24 2061.16 2180.11 2061.98 2178.75 2062.58C2177.41 2063.16 2175.85 2063.45 2174.06 2063.45C2172.33 2063.45 2170.81 2063.19 2169.52 2062.67C2168.24 2062.16 2167.17 2061.41 2166.31 2060.42C2165.45 2059.44 2164.81 2058.24 2164.38 2056.84C2163.96 2055.43 2163.75 2053.84 2163.75 2052.05C2163.75 2050.34 2163.97 2048.76 2164.41 2047.32C2164.86 2045.87 2165.53 2044.62 2166.42 2043.57C2167.33 2042.52 2168.45 2041.71 2169.8 2041.13C2171.14 2040.55 2172.71 2040.27 2174.51 2040.27C2176.24 2040.27 2177.75 2040.52 2179.03 2041.04C2180.33 2041.55 2181.41 2042.3 2182.27 2043.29C2183.13 2044.27 2183.77 2045.47 2184.19 2046.88C2184.63 2048.28 2184.85 2049.87 2184.85 2051.63ZM2180.77 2051.89C2180.77 2050.75 2180.66 2049.67 2180.44 2048.66C2180.24 2047.64 2179.89 2046.75 2179.41 2045.98C2178.92 2045.22 2178.27 2044.62 2177.44 2044.18C2176.61 2043.73 2175.58 2043.5 2174.35 2043.5C2173.2 2043.5 2172.22 2043.7 2171.39 2044.11C2170.58 2044.52 2169.91 2045.09 2169.38 2045.84C2168.85 2046.58 2168.45 2047.45 2168.18 2048.47C2167.93 2049.48 2167.81 2050.59 2167.81 2051.8C2167.81 2052.95 2167.91 2054.04 2168.11 2055.05C2168.33 2056.07 2168.68 2056.96 2169.17 2057.73C2169.67 2058.48 2170.33 2059.08 2171.16 2059.53C2171.99 2059.97 2173.02 2060.19 2174.25 2060.19C2175.38 2060.19 2176.35 2059.98 2177.18 2059.58C2178.01 2059.17 2178.69 2058.6 2179.22 2057.87C2179.75 2057.13 2180.14 2056.26 2180.39 2055.24C2180.64 2054.23 2180.77 2053.11 2180.77 2051.89ZM2202.29 2042.7C2202.29 2043.05 2202.28 2043.34 2202.27 2043.57C2202.25 2043.8 2202.22 2043.99 2202.18 2044.13C2202.13 2044.26 2202.07 2044.36 2201.99 2044.44C2201.93 2044.5 2201.83 2044.53 2201.71 2044.53C2201.58 2044.53 2201.43 2044.5 2201.24 2044.44C2201.07 2044.36 2200.86 2044.29 2200.63 2044.23C2200.41 2044.15 2200.16 2044.08 2199.88 2044.02C2199.6 2043.95 2199.29 2043.92 2198.96 2043.92C2198.57 2043.92 2198.19 2044 2197.82 2044.16C2197.44 2044.31 2197.04 2044.57 2196.62 2044.93C2196.21 2045.29 2195.78 2045.77 2195.33 2046.36C2194.88 2046.95 2194.38 2047.68 2193.83 2048.54V2062.41C2193.83 2062.54 2193.8 2062.65 2193.74 2062.74C2193.68 2062.82 2193.57 2062.89 2193.43 2062.95C2193.29 2063.02 2193.1 2063.06 2192.85 2063.09C2192.6 2063.12 2192.28 2063.14 2191.89 2063.14C2191.51 2063.14 2191.2 2063.12 2190.95 2063.09C2190.7 2063.06 2190.5 2063.02 2190.34 2062.95C2190.2 2062.89 2190.1 2062.82 2190.03 2062.74C2189.99 2062.65 2189.96 2062.54 2189.96 2062.41V2041.32C2189.96 2041.2 2189.99 2041.09 2190.03 2041.02C2190.08 2040.92 2190.18 2040.84 2190.32 2040.78C2190.46 2040.7 2190.64 2040.66 2190.86 2040.64C2191.07 2040.61 2191.36 2040.59 2191.72 2040.59C2192.07 2040.59 2192.35 2040.61 2192.57 2040.64C2192.8 2040.66 2192.98 2040.7 2193.11 2040.78C2193.23 2040.84 2193.32 2040.92 2193.36 2041.02C2193.43 2041.09 2193.46 2041.2 2193.46 2041.32V2044.39C2194.03 2043.55 2194.57 2042.86 2195.07 2042.33C2195.59 2041.8 2196.07 2041.38 2196.53 2041.09C2196.98 2040.77 2197.43 2040.56 2197.86 2040.45C2198.32 2040.33 2198.77 2040.27 2199.22 2040.27C2199.43 2040.27 2199.65 2040.28 2199.9 2040.31C2200.17 2040.33 2200.44 2040.37 2200.72 2040.43C2201 2040.49 2201.25 2040.56 2201.47 2040.64C2201.71 2040.72 2201.87 2040.8 2201.96 2040.88C2202.06 2040.95 2202.12 2041.03 2202.15 2041.11C2202.18 2041.17 2202.21 2041.26 2202.22 2041.37C2202.25 2041.48 2202.27 2041.64 2202.27 2041.86C2202.28 2042.06 2202.29 2042.34 2202.29 2042.7ZM2216.77 2068.65C2216.71 2068.85 2216.62 2069.01 2216.52 2069.12C2216.42 2069.24 2216.3 2069.34 2216.14 2069.4C2215.98 2069.46 2215.79 2069.51 2215.55 2069.54C2215.34 2069.57 2215.06 2069.59 2214.73 2069.59C2214.34 2069.59 2214.02 2069.55 2213.75 2069.49C2213.5 2069.45 2213.3 2069.37 2213.16 2069.26C2213.02 2069.16 2212.94 2069.04 2212.91 2068.88C2212.88 2068.74 2212.91 2068.57 2213 2068.37L2227.18 2029.48C2227.24 2029.28 2227.32 2029.12 2227.41 2029.02C2227.52 2028.89 2227.65 2028.8 2227.79 2028.73C2227.95 2028.66 2228.14 2028.61 2228.38 2028.59C2228.61 2028.56 2228.89 2028.55 2229.22 2028.55C2229.61 2028.55 2229.93 2028.58 2230.18 2028.64C2230.43 2028.69 2230.62 2028.76 2230.77 2028.85C2230.91 2028.95 2230.99 2029.07 2231.02 2029.23C2231.05 2029.38 2231.03 2029.56 2230.95 2029.77L2216.77 2068.65ZM2260.88 2061.24C2260.88 2061.55 2260.86 2061.82 2260.83 2062.04C2260.8 2062.24 2260.75 2062.42 2260.67 2062.58C2260.61 2062.72 2260.52 2062.83 2260.41 2062.91C2260.32 2062.97 2260.2 2063 2260.06 2063H2246.65C2246.29 2063 2245.95 2062.88 2245.62 2062.65C2245.31 2062.4 2245.15 2061.97 2245.15 2061.36V2033.28C2245.15 2033.16 2245.18 2033.05 2245.25 2032.95C2245.31 2032.86 2245.42 2032.79 2245.57 2032.74C2245.73 2032.68 2245.94 2032.63 2246.21 2032.6C2246.47 2032.55 2246.79 2032.53 2247.17 2032.53C2247.56 2032.53 2247.88 2032.55 2248.13 2032.6C2248.39 2032.63 2248.61 2032.68 2248.76 2032.74C2248.92 2032.79 2249.03 2032.86 2249.09 2032.95C2249.15 2033.05 2249.18 2033.16 2249.18 2033.28V2059.51H2260.06C2260.2 2059.51 2260.32 2059.55 2260.41 2059.62C2260.52 2059.69 2260.61 2059.79 2260.67 2059.93C2260.75 2060.05 2260.8 2060.23 2260.83 2060.45C2260.86 2060.66 2260.88 2060.93 2260.88 2061.24ZM2282.33 2050.95C2282.33 2051.56 2282.18 2052 2281.87 2052.27C2281.57 2052.52 2281.23 2052.64 2280.83 2052.64H2267.01C2267.01 2053.81 2267.12 2054.87 2267.36 2055.8C2267.59 2056.74 2267.98 2057.55 2268.53 2058.22C2269.08 2058.89 2269.79 2059.41 2270.66 2059.77C2271.54 2060.12 2272.61 2060.3 2273.87 2060.3C2274.87 2060.3 2275.76 2060.23 2276.55 2060.07C2277.33 2059.9 2278 2059.71 2278.56 2059.51C2279.14 2059.3 2279.61 2059.12 2279.97 2058.97C2280.34 2058.8 2280.62 2058.71 2280.81 2058.71C2280.92 2058.71 2281.01 2058.74 2281.09 2058.8C2281.19 2058.85 2281.26 2058.93 2281.3 2059.04C2281.35 2059.15 2281.38 2059.3 2281.4 2059.51C2281.43 2059.7 2281.44 2059.93 2281.44 2060.21C2281.44 2060.41 2281.44 2060.59 2281.42 2060.75C2281.4 2060.89 2281.38 2061.02 2281.35 2061.15C2281.33 2061.26 2281.3 2061.36 2281.23 2061.45C2281.19 2061.55 2281.12 2061.64 2281.02 2061.73C2280.94 2061.81 2280.69 2061.95 2280.27 2062.16C2279.85 2062.34 2279.3 2062.53 2278.63 2062.72C2277.96 2062.91 2277.18 2063.07 2276.29 2063.21C2275.41 2063.37 2274.48 2063.45 2273.48 2063.45C2271.74 2063.45 2270.22 2063.2 2268.9 2062.72C2267.61 2062.23 2266.51 2061.52 2265.62 2060.56C2264.73 2059.61 2264.06 2058.41 2263.61 2056.98C2263.15 2055.54 2262.93 2053.87 2262.93 2051.96C2262.93 2050.15 2263.16 2048.52 2263.63 2047.09C2264.1 2045.63 2264.77 2044.41 2265.65 2043.41C2266.54 2042.39 2267.61 2041.62 2268.86 2041.09C2270.11 2040.54 2271.51 2040.27 2273.05 2040.27C2274.71 2040.27 2276.12 2040.53 2277.27 2041.06C2278.44 2041.59 2279.4 2042.31 2280.15 2043.22C2280.9 2044.11 2281.45 2045.16 2281.8 2046.38C2282.15 2047.59 2282.33 2048.88 2282.33 2050.25V2050.95ZM2278.44 2049.8C2278.49 2047.77 2278.04 2046.18 2277.08 2045.02C2276.15 2043.87 2274.75 2043.29 2272.89 2043.29C2271.94 2043.29 2271.1 2043.47 2270.38 2043.83C2269.66 2044.19 2269.06 2044.66 2268.58 2045.26C2268.09 2045.85 2267.72 2046.55 2267.45 2047.34C2267.19 2048.12 2267.04 2048.95 2267.01 2049.8H2278.44ZM2303.56 2062.44C2303.56 2062.62 2303.49 2062.77 2303.37 2062.86C2303.24 2062.95 2303.07 2063.02 2302.85 2063.07C2302.63 2063.12 2302.31 2063.14 2301.89 2063.14C2301.49 2063.14 2301.16 2063.12 2300.91 2063.07C2300.67 2063.02 2300.5 2062.95 2300.39 2062.86C2300.28 2062.77 2300.23 2062.62 2300.23 2062.44V2060.33C2299.31 2061.31 2298.27 2062.08 2297.13 2062.62C2296.01 2063.17 2294.81 2063.45 2293.55 2063.45C2292.44 2063.45 2291.43 2063.3 2290.52 2063C2289.63 2062.72 2288.87 2062.3 2288.23 2061.76C2287.6 2061.21 2287.11 2060.54 2286.75 2059.74C2286.41 2058.95 2286.24 2058.04 2286.24 2057.02C2286.24 2055.84 2286.48 2054.8 2286.96 2053.93C2287.45 2053.05 2288.14 2052.33 2289.05 2051.75C2289.95 2051.17 2291.06 2050.74 2292.38 2050.46C2293.69 2050.16 2295.16 2050.02 2296.81 2050.02H2299.71V2048.38C2299.71 2047.56 2299.63 2046.84 2299.45 2046.22C2299.28 2045.59 2299 2045.08 2298.61 2044.67C2298.24 2044.25 2297.74 2043.94 2297.13 2043.73C2296.52 2043.52 2295.77 2043.41 2294.88 2043.41C2293.93 2043.41 2293.07 2043.52 2292.31 2043.76C2291.56 2043.98 2290.89 2044.23 2290.31 2044.51C2289.75 2044.77 2289.27 2045.02 2288.88 2045.26C2288.51 2045.48 2288.23 2045.59 2288.04 2045.59C2287.91 2045.59 2287.81 2045.55 2287.71 2045.49C2287.62 2045.43 2287.53 2045.34 2287.45 2045.21C2287.39 2045.09 2287.34 2044.93 2287.31 2044.74C2287.28 2044.54 2287.27 2044.32 2287.27 2044.09C2287.27 2043.7 2287.29 2043.39 2287.34 2043.17C2287.4 2042.94 2287.53 2042.72 2287.74 2042.52C2287.95 2042.31 2288.32 2042.08 2288.84 2041.81C2289.35 2041.53 2289.95 2041.28 2290.62 2041.06C2291.29 2040.83 2292.02 2040.64 2292.82 2040.5C2293.62 2040.34 2294.42 2040.27 2295.24 2040.27C2296.75 2040.27 2298.04 2040.44 2299.1 2040.78C2300.16 2041.12 2301.02 2041.63 2301.68 2042.3C2302.34 2042.96 2302.81 2043.78 2303.11 2044.77C2303.41 2045.75 2303.56 2046.9 2303.56 2048.21V2062.44ZM2299.71 2052.8H2296.41C2295.34 2052.8 2294.42 2052.9 2293.64 2053.09C2292.86 2053.26 2292.21 2053.52 2291.7 2053.88C2291.18 2054.23 2290.8 2054.65 2290.55 2055.15C2290.31 2055.63 2290.2 2056.2 2290.2 2056.84C2290.2 2057.93 2290.54 2058.8 2291.23 2059.46C2291.93 2060.1 2292.91 2060.42 2294.16 2060.42C2295.17 2060.42 2296.11 2060.16 2296.97 2059.65C2297.84 2059.13 2298.76 2058.34 2299.71 2057.28V2052.8ZM2328.17 2062.41C2328.17 2062.54 2328.14 2062.65 2328.08 2062.74C2328.03 2062.84 2327.94 2062.91 2327.8 2062.98C2327.67 2063.02 2327.5 2063.06 2327.28 2063.09C2327.07 2063.12 2326.8 2063.14 2326.49 2063.14C2326.16 2063.14 2325.89 2063.12 2325.67 2063.09C2325.45 2063.06 2325.27 2063.02 2325.13 2062.98C2324.99 2062.91 2324.89 2062.84 2324.82 2062.74C2324.76 2062.65 2324.73 2062.54 2324.73 2062.41V2059.62C2323.62 2060.83 2322.46 2061.77 2321.26 2062.44C2320.07 2063.11 2318.77 2063.45 2317.35 2063.45C2315.8 2063.45 2314.48 2063.15 2313.39 2062.55C2312.29 2061.95 2311.4 2061.13 2310.71 2060.12C2310.04 2059.09 2309.55 2057.88 2309.24 2056.51C2308.92 2055.12 2308.77 2053.66 2308.77 2052.12C2308.77 2050.31 2308.96 2048.68 2309.35 2047.23C2309.74 2045.76 2310.32 2044.51 2311.09 2043.48C2311.85 2042.45 2312.8 2041.66 2313.92 2041.11C2315.07 2040.55 2316.38 2040.27 2317.86 2040.27C2319.1 2040.27 2320.22 2040.54 2321.24 2041.09C2322.27 2041.62 2323.28 2042.41 2324.28 2043.45V2031.2C2324.28 2031.09 2324.31 2030.98 2324.35 2030.89C2324.42 2030.78 2324.53 2030.7 2324.68 2030.66C2324.84 2030.59 2325.03 2030.55 2325.27 2030.52C2325.52 2030.47 2325.83 2030.45 2326.21 2030.45C2326.6 2030.45 2326.92 2030.47 2327.17 2030.52C2327.42 2030.55 2327.61 2030.59 2327.75 2030.66C2327.89 2030.7 2327.99 2030.78 2328.06 2030.89C2328.14 2030.98 2328.17 2031.09 2328.17 2031.2V2062.41ZM2324.28 2047.58C2323.24 2046.28 2322.22 2045.3 2321.24 2044.62C2320.27 2043.94 2319.25 2043.59 2318.19 2043.59C2317.21 2043.59 2316.37 2043.83 2315.68 2044.3C2314.99 2044.77 2314.43 2045.38 2313.99 2046.15C2313.57 2046.91 2313.26 2047.78 2313.06 2048.75C2312.87 2049.72 2312.78 2050.7 2312.78 2051.7C2312.78 2052.77 2312.85 2053.8 2313.01 2054.82C2313.18 2055.84 2313.47 2056.74 2313.88 2057.54C2314.28 2058.32 2314.82 2058.95 2315.49 2059.44C2316.17 2059.91 2317.01 2060.14 2318.03 2060.14C2318.54 2060.14 2319.03 2060.07 2319.5 2059.93C2319.99 2059.79 2320.48 2059.55 2320.98 2059.23C2321.48 2058.9 2322 2058.48 2322.55 2057.96C2323.1 2057.43 2323.67 2056.78 2324.28 2056.02V2047.58ZM2364.12 2041.55C2364.12 2043.07 2363.87 2044.44 2363.37 2045.66C2362.87 2046.88 2362.16 2047.91 2361.22 2048.77C2360.3 2049.63 2359.16 2050.3 2357.8 2050.77C2356.45 2051.23 2354.84 2051.47 2352.97 2051.47H2349.52V2062.39C2349.52 2062.52 2349.48 2062.62 2349.41 2062.72C2349.34 2062.81 2349.23 2062.89 2349.08 2062.95C2348.94 2063 2348.73 2063.04 2348.47 2063.07C2348.22 2063.12 2347.9 2063.14 2347.51 2063.14C2347.12 2063.14 2346.79 2063.12 2346.52 2063.07C2346.27 2063.04 2346.07 2063 2345.91 2062.95C2345.76 2062.89 2345.65 2062.81 2345.59 2062.72C2345.52 2062.62 2345.49 2062.52 2345.49 2062.39V2034.41C2345.49 2033.78 2345.66 2033.34 2345.98 2033.07C2346.31 2032.8 2346.68 2032.67 2347.09 2032.67H2353.58C2354.23 2032.67 2354.86 2032.7 2355.45 2032.77C2356.06 2032.81 2356.77 2032.93 2357.59 2033.12C2358.41 2033.29 2359.25 2033.62 2360.09 2034.12C2360.95 2034.61 2361.68 2035.21 2362.27 2035.93C2362.87 2036.65 2363.32 2037.48 2363.63 2038.44C2363.96 2039.38 2364.12 2040.41 2364.12 2041.55ZM2359.88 2041.88C2359.88 2040.65 2359.65 2039.62 2359.18 2038.79C2358.73 2037.96 2358.16 2037.34 2357.47 2036.94C2356.8 2036.53 2356.09 2036.27 2355.36 2036.16C2354.64 2036.05 2353.94 2036 2353.25 2036H2349.52V2048.16H2353.16C2354.37 2048.16 2355.38 2048.01 2356.18 2047.7C2356.99 2047.38 2357.67 2046.95 2358.22 2046.41C2358.76 2045.84 2359.18 2045.18 2359.46 2044.41C2359.74 2043.63 2359.88 2042.79 2359.88 2041.88ZM2381.6 2042.7C2381.6 2043.05 2381.59 2043.34 2381.57 2043.57C2381.56 2043.8 2381.52 2043.99 2381.48 2044.13C2381.43 2044.26 2381.37 2044.36 2381.29 2044.44C2381.23 2044.5 2381.13 2044.53 2381.01 2044.53C2380.88 2044.53 2380.73 2044.5 2380.54 2044.44C2380.37 2044.36 2380.17 2044.29 2379.93 2044.23C2379.71 2044.15 2379.46 2044.08 2379.18 2044.02C2378.9 2043.95 2378.6 2043.92 2378.27 2043.92C2377.88 2043.92 2377.49 2044 2377.12 2044.16C2376.74 2044.31 2376.35 2044.57 2375.92 2044.93C2375.52 2045.29 2375.09 2045.77 2374.63 2046.36C2374.18 2046.95 2373.68 2047.68 2373.13 2048.54V2062.41C2373.13 2062.54 2373.1 2062.65 2373.04 2062.74C2372.98 2062.82 2372.88 2062.89 2372.74 2062.95C2372.6 2063.02 2372.4 2063.06 2372.15 2063.09C2371.9 2063.12 2371.58 2063.14 2371.19 2063.14C2370.81 2063.14 2370.5 2063.12 2370.25 2063.09C2370 2063.06 2369.8 2063.02 2369.64 2062.95C2369.5 2062.89 2369.4 2062.82 2369.34 2062.74C2369.29 2062.65 2369.27 2062.54 2369.27 2062.41V2041.32C2369.27 2041.2 2369.29 2041.09 2369.34 2041.02C2369.38 2040.92 2369.48 2040.84 2369.62 2040.78C2369.76 2040.7 2369.94 2040.66 2370.16 2040.64C2370.38 2040.61 2370.67 2040.59 2371.02 2040.59C2371.37 2040.59 2371.65 2040.61 2371.87 2040.64C2372.1 2040.66 2372.28 2040.7 2372.41 2040.78C2372.53 2040.84 2372.62 2040.92 2372.67 2041.02C2372.73 2041.09 2372.76 2041.2 2372.76 2041.32V2044.39C2373.34 2043.55 2373.88 2042.86 2374.38 2042.33C2374.89 2041.8 2375.38 2041.38 2375.83 2041.09C2376.28 2040.77 2376.73 2040.56 2377.17 2040.45C2377.62 2040.33 2378.07 2040.27 2378.52 2040.27C2378.73 2040.27 2378.95 2040.28 2379.2 2040.31C2379.47 2040.33 2379.74 2040.37 2380.02 2040.43C2380.31 2040.49 2380.56 2040.56 2380.77 2040.64C2381.01 2040.72 2381.17 2040.8 2381.27 2040.88C2381.36 2040.95 2381.42 2041.03 2381.45 2041.11C2381.49 2041.17 2381.51 2041.26 2381.52 2041.37C2381.56 2041.48 2381.57 2041.64 2381.57 2041.86C2381.59 2042.06 2381.6 2042.34 2381.6 2042.7ZM2402.77 2050.95C2402.77 2051.56 2402.61 2052 2402.3 2052.27C2402 2052.52 2401.66 2052.64 2401.27 2052.64H2387.44C2387.44 2053.81 2387.56 2054.87 2387.79 2055.8C2388.03 2056.74 2388.42 2057.55 2388.96 2058.22C2389.51 2058.89 2390.22 2059.41 2391.1 2059.77C2391.97 2060.12 2393.04 2060.3 2394.31 2060.3C2395.31 2060.3 2396.2 2060.23 2396.98 2060.07C2397.76 2059.9 2398.43 2059.71 2399 2059.51C2399.57 2059.3 2400.04 2059.12 2400.4 2058.97C2400.78 2058.8 2401.06 2058.71 2401.25 2058.71C2401.36 2058.71 2401.45 2058.74 2401.53 2058.8C2401.62 2058.85 2401.69 2058.93 2401.74 2059.04C2401.78 2059.15 2401.82 2059.3 2401.83 2059.51C2401.86 2059.7 2401.88 2059.93 2401.88 2060.21C2401.88 2060.41 2401.87 2060.59 2401.86 2060.75C2401.84 2060.89 2401.82 2061.02 2401.78 2061.15C2401.77 2061.26 2401.73 2061.36 2401.67 2061.45C2401.62 2061.55 2401.55 2061.64 2401.46 2061.73C2401.38 2061.81 2401.13 2061.95 2400.71 2062.16C2400.28 2062.34 2399.74 2062.53 2399.07 2062.72C2398.39 2062.91 2397.61 2063.07 2396.72 2063.21C2395.85 2063.37 2394.91 2063.45 2393.91 2063.45C2392.18 2063.45 2390.65 2063.2 2389.34 2062.72C2388.04 2062.23 2386.95 2061.52 2386.06 2060.56C2385.17 2059.61 2384.5 2058.41 2384.04 2056.98C2383.59 2055.54 2383.36 2053.87 2383.36 2051.96C2383.36 2050.15 2383.6 2048.52 2384.07 2047.09C2384.53 2045.63 2385.21 2044.41 2386.08 2043.41C2386.97 2042.39 2388.04 2041.62 2389.29 2041.09C2390.54 2040.54 2391.94 2040.27 2393.49 2040.27C2395.14 2040.27 2396.55 2040.53 2397.71 2041.06C2398.88 2041.59 2399.84 2042.31 2400.59 2043.22C2401.34 2044.11 2401.89 2045.16 2402.23 2046.38C2402.59 2047.59 2402.77 2048.88 2402.77 2050.25V2050.95ZM2398.88 2049.8C2398.93 2047.77 2398.47 2046.18 2397.52 2045.02C2396.58 2043.87 2395.18 2043.29 2393.32 2043.29C2392.37 2043.29 2391.53 2043.47 2390.82 2043.83C2390.1 2044.19 2389.5 2044.66 2389.01 2045.26C2388.53 2045.85 2388.15 2046.55 2387.89 2047.34C2387.62 2048.12 2387.47 2048.95 2387.44 2049.8H2398.88ZM2423.26 2059.2C2423.26 2059.47 2423.26 2059.7 2423.24 2059.91C2423.22 2060.09 2423.19 2060.26 2423.15 2060.4C2423.11 2060.52 2423.07 2060.64 2423.01 2060.75C2422.96 2060.84 2422.83 2060.99 2422.63 2061.2C2422.44 2061.38 2422.11 2061.62 2421.65 2061.92C2421.18 2062.2 2420.65 2062.46 2420.05 2062.7C2419.47 2062.91 2418.84 2063.09 2418.15 2063.23C2417.47 2063.38 2416.76 2063.45 2416.02 2063.45C2414.51 2063.45 2413.16 2063.2 2411.99 2062.7C2410.82 2062.2 2409.83 2061.47 2409.04 2060.52C2408.26 2059.55 2407.65 2058.37 2407.23 2056.98C2406.83 2055.57 2406.62 2053.95 2406.62 2052.12C2406.62 2050.05 2406.87 2048.27 2407.37 2046.78C2407.89 2045.28 2408.58 2044.05 2409.46 2043.1C2410.35 2042.15 2411.39 2041.45 2412.58 2040.99C2413.78 2040.52 2415.08 2040.29 2416.47 2040.29C2417.14 2040.29 2417.79 2040.35 2418.41 2040.48C2419.05 2040.6 2419.64 2040.77 2420.17 2040.97C2420.7 2041.17 2421.17 2041.41 2421.58 2041.67C2422 2041.94 2422.3 2042.16 2422.49 2042.35C2422.68 2042.54 2422.8 2042.69 2422.86 2042.8C2422.94 2042.91 2423.01 2043.04 2423.05 2043.2C2423.1 2043.34 2423.13 2043.5 2423.15 2043.69C2423.16 2043.88 2423.17 2044.11 2423.17 2044.39C2423.17 2045 2423.1 2045.43 2422.96 2045.68C2422.82 2045.91 2422.65 2046.03 2422.44 2046.03C2422.21 2046.03 2421.94 2045.91 2421.62 2045.66C2421.33 2045.39 2420.94 2045.1 2420.47 2044.79C2420.01 2044.48 2419.44 2044.2 2418.76 2043.95C2418.11 2043.68 2417.33 2043.55 2416.42 2043.55C2414.56 2043.55 2413.13 2044.27 2412.13 2045.7C2411.15 2047.12 2410.65 2049.2 2410.65 2051.91C2410.65 2053.27 2410.78 2054.47 2411.03 2055.5C2411.29 2056.52 2411.68 2057.37 2412.18 2058.05C2412.68 2058.74 2413.29 2059.26 2414.01 2059.6C2414.74 2059.93 2415.58 2060.09 2416.51 2060.09C2417.4 2060.09 2418.19 2059.95 2418.86 2059.67C2419.53 2059.39 2420.11 2059.09 2420.59 2058.76C2421.09 2058.41 2421.51 2058.11 2421.83 2057.84C2422.18 2057.56 2422.44 2057.42 2422.63 2057.42C2422.74 2057.42 2422.83 2057.45 2422.91 2057.52C2422.99 2057.58 2423.05 2057.69 2423.1 2057.84C2423.16 2057.98 2423.2 2058.17 2423.22 2058.41C2423.25 2058.62 2423.26 2058.89 2423.26 2059.2ZM2445.82 2050.95C2445.82 2051.56 2445.66 2052 2445.35 2052.27C2445.05 2052.52 2444.71 2052.64 2444.32 2052.64H2430.49C2430.49 2053.81 2430.61 2054.87 2430.84 2055.8C2431.08 2056.74 2431.47 2057.55 2432.02 2058.22C2432.56 2058.89 2433.27 2059.41 2434.15 2059.77C2435.02 2060.12 2436.09 2060.3 2437.36 2060.3C2438.36 2060.3 2439.25 2060.23 2440.03 2060.07C2440.81 2059.9 2441.48 2059.71 2442.05 2059.51C2442.62 2059.3 2443.09 2059.12 2443.45 2058.97C2443.83 2058.8 2444.11 2058.71 2444.3 2058.71C2444.41 2058.71 2444.5 2058.74 2444.58 2058.8C2444.67 2058.85 2444.74 2058.93 2444.79 2059.04C2444.84 2059.15 2444.87 2059.3 2444.88 2059.51C2444.91 2059.7 2444.93 2059.93 2444.93 2060.21C2444.93 2060.41 2444.92 2060.59 2444.91 2060.75C2444.89 2060.89 2444.87 2061.02 2444.84 2061.15C2444.82 2061.26 2444.78 2061.36 2444.72 2061.45C2444.67 2061.55 2444.6 2061.64 2444.51 2061.73C2444.43 2061.81 2444.18 2061.95 2443.76 2062.16C2443.34 2062.34 2442.79 2062.53 2442.12 2062.72C2441.45 2062.91 2440.66 2063.07 2439.77 2063.21C2438.9 2063.37 2437.96 2063.45 2436.96 2063.45C2435.23 2063.45 2433.7 2063.2 2432.39 2062.72C2431.09 2062.23 2430 2061.52 2429.11 2060.56C2428.22 2059.61 2427.55 2058.41 2427.09 2056.98C2426.64 2055.54 2426.41 2053.87 2426.41 2051.96C2426.41 2050.15 2426.65 2048.52 2427.12 2047.09C2427.59 2045.63 2428.26 2044.41 2429.13 2043.41C2430.02 2042.39 2431.09 2041.62 2432.34 2041.09C2433.59 2040.54 2434.99 2040.27 2436.54 2040.27C2438.2 2040.27 2439.6 2040.53 2440.76 2041.06C2441.93 2041.59 2442.89 2042.31 2443.64 2043.22C2444.39 2044.11 2444.94 2045.16 2445.28 2046.38C2445.64 2047.59 2445.82 2048.88 2445.82 2050.25V2050.95ZM2441.93 2049.8C2441.98 2047.77 2441.52 2046.18 2440.57 2045.02C2439.63 2043.87 2438.23 2043.29 2436.37 2043.29C2435.42 2043.29 2434.59 2043.47 2433.87 2043.83C2433.15 2044.19 2432.55 2044.66 2432.06 2045.26C2431.58 2045.85 2431.2 2046.55 2430.94 2047.34C2430.67 2048.12 2430.52 2048.95 2430.49 2049.8H2441.93ZM2470.56 2051.54C2470.56 2053.38 2470.35 2055.04 2469.95 2056.51C2469.56 2057.98 2468.97 2059.23 2468.19 2060.26C2467.42 2061.27 2466.47 2062.06 2465.33 2062.62C2464.19 2063.17 2462.88 2063.45 2461.42 2063.45C2460.79 2063.45 2460.21 2063.38 2459.68 2063.26C2459.15 2063.13 2458.63 2062.94 2458.11 2062.67C2457.61 2062.41 2457.11 2062.07 2456.61 2061.66C2456.11 2061.26 2455.58 2060.78 2455.02 2060.23V2070.78C2455.02 2070.91 2454.99 2071.02 2454.92 2071.11C2454.86 2071.2 2454.76 2071.28 2454.62 2071.34C2454.48 2071.41 2454.28 2071.45 2454.03 2071.48C2453.78 2071.52 2453.46 2071.53 2453.07 2071.53C2452.7 2071.53 2452.38 2071.52 2452.13 2071.48C2451.88 2071.45 2451.68 2071.41 2451.53 2071.34C2451.38 2071.28 2451.28 2071.2 2451.22 2071.11C2451.17 2071.02 2451.15 2070.91 2451.15 2070.78V2041.32C2451.15 2041.18 2451.17 2041.07 2451.22 2040.99C2451.27 2040.9 2451.36 2040.82 2451.5 2040.76C2451.64 2040.7 2451.82 2040.66 2452.04 2040.64C2452.26 2040.61 2452.53 2040.59 2452.84 2040.59C2453.17 2040.59 2453.43 2040.61 2453.63 2040.64C2453.85 2040.66 2454.03 2040.7 2454.17 2040.76C2454.31 2040.82 2454.41 2040.9 2454.46 2040.99C2454.52 2041.07 2454.55 2041.18 2454.55 2041.32V2044.16C2455.19 2043.5 2455.81 2042.93 2456.4 2042.45C2456.99 2041.96 2457.59 2041.56 2458.18 2041.25C2458.79 2040.92 2459.41 2040.68 2460.03 2040.52C2460.67 2040.35 2461.35 2040.27 2462.05 2040.27C2463.58 2040.27 2464.88 2040.56 2465.96 2041.16C2467.04 2041.75 2467.92 2042.56 2468.59 2043.59C2469.28 2044.62 2469.78 2045.83 2470.09 2047.2C2470.4 2048.56 2470.56 2050.01 2470.56 2051.54ZM2466.48 2051.98C2466.48 2050.91 2466.39 2049.87 2466.22 2048.87C2466.06 2047.85 2465.78 2046.95 2465.38 2046.17C2464.99 2045.39 2464.46 2044.77 2463.78 2044.3C2463.11 2043.83 2462.28 2043.59 2461.28 2043.59C2460.78 2043.59 2460.28 2043.67 2459.8 2043.83C2459.31 2043.97 2458.82 2044.2 2458.32 2044.53C2457.82 2044.84 2457.3 2045.27 2456.75 2045.8C2456.21 2046.31 2455.63 2046.95 2455.02 2047.72V2056.11C2456.08 2057.41 2457.09 2058.4 2458.04 2059.09C2458.99 2059.77 2459.99 2060.12 2461.04 2060.12C2462.01 2060.12 2462.84 2059.88 2463.53 2059.41C2464.23 2058.95 2464.79 2058.32 2465.21 2057.54C2465.65 2056.76 2465.97 2055.88 2466.17 2054.91C2466.38 2053.95 2466.48 2052.97 2466.48 2051.98ZM2486.53 2060.87C2486.53 2061.32 2486.5 2061.68 2486.43 2061.95C2486.37 2062.21 2486.28 2062.41 2486.15 2062.53C2486.03 2062.66 2485.84 2062.77 2485.59 2062.88C2485.34 2062.99 2485.05 2063.08 2484.72 2063.14C2484.41 2063.22 2484.07 2063.28 2483.72 2063.33C2483.36 2063.38 2483 2063.4 2482.64 2063.4C2481.54 2063.4 2480.61 2063.26 2479.82 2062.98C2479.04 2062.68 2478.4 2062.24 2477.9 2061.66C2477.4 2061.07 2477.04 2060.33 2476.8 2059.44C2476.58 2058.53 2476.47 2057.47 2476.47 2056.25V2043.92H2473.52C2473.29 2043.92 2473.1 2043.8 2472.96 2043.55C2472.82 2043.3 2472.75 2042.89 2472.75 2042.33C2472.75 2042.03 2472.76 2041.78 2472.79 2041.58C2472.84 2041.38 2472.89 2041.21 2472.96 2041.09C2473.02 2040.95 2473.1 2040.85 2473.19 2040.8C2473.3 2040.74 2473.42 2040.71 2473.54 2040.71H2476.47V2035.7C2476.47 2035.59 2476.5 2035.48 2476.54 2035.39C2476.61 2035.3 2476.71 2035.22 2476.85 2035.16C2477 2035.08 2477.21 2035.02 2477.46 2034.99C2477.71 2034.96 2478.02 2034.95 2478.39 2034.95C2478.79 2034.95 2479.11 2034.96 2479.36 2034.99C2479.61 2035.02 2479.8 2035.08 2479.94 2035.16C2480.08 2035.22 2480.18 2035.3 2480.25 2035.39C2480.31 2035.48 2480.34 2035.59 2480.34 2035.7V2040.71H2485.75C2485.88 2040.71 2485.99 2040.74 2486.08 2040.8C2486.18 2040.85 2486.25 2040.95 2486.32 2041.09C2486.39 2041.21 2486.45 2041.38 2486.48 2041.58C2486.51 2041.78 2486.53 2042.03 2486.53 2042.33C2486.53 2042.89 2486.46 2043.3 2486.32 2043.55C2486.18 2043.8 2485.99 2043.92 2485.75 2043.92H2480.34V2055.69C2480.34 2057.14 2480.55 2058.24 2480.97 2058.99C2481.41 2059.73 2482.18 2060.09 2483.29 2060.09C2483.65 2060.09 2483.97 2060.06 2484.25 2060C2484.54 2059.92 2484.79 2059.84 2485 2059.77C2485.22 2059.69 2485.41 2059.62 2485.57 2059.55C2485.72 2059.48 2485.86 2059.44 2485.99 2059.44C2486.07 2059.44 2486.14 2059.46 2486.2 2059.51C2486.28 2059.54 2486.33 2059.61 2486.36 2059.72C2486.41 2059.83 2486.45 2059.98 2486.48 2060.16C2486.51 2060.35 2486.53 2060.59 2486.53 2060.87ZM2510.21 2051.63C2510.21 2053.35 2509.98 2054.94 2509.53 2056.39C2509.08 2057.83 2508.4 2059.07 2507.49 2060.12C2506.6 2061.16 2505.48 2061.98 2504.12 2062.58C2502.77 2063.16 2501.21 2063.45 2499.43 2063.45C2497.69 2063.45 2496.18 2063.19 2494.88 2062.67C2493.6 2062.16 2492.53 2061.41 2491.67 2060.42C2490.81 2059.44 2490.17 2058.24 2489.75 2056.84C2489.33 2055.43 2489.12 2053.84 2489.12 2052.05C2489.12 2050.34 2489.33 2048.76 2489.77 2047.32C2490.23 2045.87 2490.9 2044.62 2491.79 2043.57C2492.69 2042.52 2493.82 2041.71 2495.16 2041.13C2496.51 2040.55 2498.08 2040.27 2499.87 2040.27C2501.61 2040.27 2503.12 2040.52 2504.4 2041.04C2505.69 2041.55 2506.77 2042.3 2507.63 2043.29C2508.49 2044.27 2509.13 2045.47 2509.55 2046.88C2509.99 2048.28 2510.21 2049.87 2510.21 2051.63ZM2506.13 2051.89C2506.13 2050.75 2506.02 2049.67 2505.8 2048.66C2505.6 2047.64 2505.26 2046.75 2504.77 2045.98C2504.29 2045.22 2503.63 2044.62 2502.8 2044.18C2501.98 2043.73 2500.94 2043.5 2499.71 2043.5C2498.57 2043.5 2497.58 2043.7 2496.76 2044.11C2495.94 2044.52 2495.27 2045.09 2494.74 2045.84C2494.21 2046.58 2493.81 2047.45 2493.55 2048.47C2493.3 2049.48 2493.17 2050.59 2493.17 2051.8C2493.17 2052.95 2493.27 2054.04 2493.48 2055.05C2493.69 2056.07 2494.05 2056.96 2494.53 2057.73C2495.03 2058.48 2495.69 2059.08 2496.52 2059.53C2497.35 2059.97 2498.38 2060.19 2499.62 2060.19C2500.74 2060.19 2501.72 2059.98 2502.55 2059.58C2503.37 2059.17 2504.05 2058.6 2504.58 2057.87C2505.12 2057.13 2505.51 2056.26 2505.76 2055.24C2506.01 2054.23 2506.13 2053.11 2506.13 2051.89ZM2527.66 2042.7C2527.66 2043.05 2527.65 2043.34 2527.63 2043.57C2527.62 2043.8 2527.59 2043.99 2527.54 2044.13C2527.49 2044.26 2527.43 2044.36 2527.35 2044.44C2527.29 2044.5 2527.2 2044.53 2527.07 2044.53C2526.95 2044.53 2526.79 2044.5 2526.6 2044.44C2526.43 2044.36 2526.23 2044.29 2525.99 2044.23C2525.77 2044.15 2525.52 2044.08 2525.24 2044.02C2524.96 2043.95 2524.66 2043.92 2524.33 2043.92C2523.94 2043.92 2523.56 2044 2523.18 2044.16C2522.81 2044.31 2522.41 2044.57 2521.98 2044.93C2521.58 2045.29 2521.15 2045.77 2520.7 2046.36C2520.24 2046.95 2519.74 2047.68 2519.2 2048.54V2062.41C2519.2 2062.54 2519.16 2062.65 2519.1 2062.74C2519.04 2062.82 2518.94 2062.89 2518.8 2062.95C2518.66 2063.02 2518.46 2063.06 2518.21 2063.09C2517.96 2063.12 2517.64 2063.14 2517.25 2063.14C2516.88 2063.14 2516.56 2063.12 2516.31 2063.09C2516.06 2063.06 2515.86 2063.02 2515.7 2062.95C2515.56 2062.89 2515.46 2062.82 2515.4 2062.74C2515.35 2062.65 2515.33 2062.54 2515.33 2062.41V2041.32C2515.33 2041.2 2515.35 2041.09 2515.4 2041.02C2515.45 2040.92 2515.54 2040.84 2515.68 2040.78C2515.82 2040.7 2516 2040.66 2516.22 2040.64C2516.44 2040.61 2516.73 2040.59 2517.09 2040.59C2517.43 2040.59 2517.71 2040.61 2517.93 2040.64C2518.16 2040.66 2518.34 2040.7 2518.47 2040.78C2518.59 2040.84 2518.68 2040.92 2518.73 2041.02C2518.79 2041.09 2518.82 2041.2 2518.82 2041.32V2044.39C2519.4 2043.55 2519.94 2042.86 2520.44 2042.33C2520.95 2041.8 2521.44 2041.38 2521.89 2041.09C2522.34 2040.77 2522.79 2040.56 2523.23 2040.45C2523.68 2040.33 2524.13 2040.27 2524.59 2040.27C2524.79 2040.27 2525.02 2040.28 2525.27 2040.31C2525.53 2040.33 2525.81 2040.37 2526.09 2040.43C2526.37 2040.49 2526.62 2040.56 2526.84 2040.64C2527.07 2040.72 2527.23 2040.8 2527.33 2040.88C2527.42 2040.95 2527.48 2041.03 2527.52 2041.11C2527.55 2041.17 2527.57 2041.26 2527.59 2041.37C2527.62 2041.48 2527.63 2041.64 2527.63 2041.86C2527.65 2042.06 2527.66 2042.34 2527.66 2042.7Z" fill="black"/>
</svg>
