<svg width="3450" height="2210" viewBox="0 0 3450 2210" fill="none" xmlns="http://www.w3.org/2000/svg">
<path d="M1403.97 1995.91C1403.84 1996.41 1403.67 1996.81 1403.44 1997.12C1403.23 1997.42 1402.91 1997.65 1402.47 1997.81C1402.03 1997.96 1401.47 1998.05 1400.78 1998.09C1400.09 1998.16 1399.22 1998.19 1398.16 1998.19C1396.97 1998.19 1396.01 1998.16 1395.28 1998.09C1394.57 1998.05 1394.01 1997.96 1393.59 1997.81C1393.18 1997.65 1392.88 1997.42 1392.69 1997.12C1392.5 1996.81 1392.35 1996.41 1392.25 1995.91L1385.78 1970.28H1385.72L1379.59 1995.91C1379.49 1996.39 1379.34 1996.78 1379.16 1997.09C1378.97 1997.39 1378.67 1997.61 1378.25 1997.78C1377.85 1997.95 1377.3 1998.05 1376.59 1998.09C1375.91 1998.16 1374.99 1998.19 1373.84 1998.19C1372.64 1998.19 1371.67 1998.16 1370.94 1998.09C1370.23 1998.05 1369.67 1997.96 1369.25 1997.81C1368.83 1997.65 1368.53 1997.42 1368.34 1997.12C1368.16 1996.81 1368 1996.41 1367.88 1995.91L1358.69 1960.62C1358.5 1959.88 1358.4 1959.29 1358.38 1958.88C1358.35 1958.44 1358.47 1958.1 1358.72 1957.88C1358.99 1957.65 1359.42 1957.51 1360 1957.47C1360.6 1957.41 1361.44 1957.38 1362.5 1957.38C1363.48 1957.38 1364.25 1957.4 1364.81 1957.44C1365.4 1957.46 1365.83 1957.53 1366.12 1957.66C1366.42 1957.76 1366.61 1957.93 1366.72 1958.16C1366.82 1958.36 1366.91 1958.67 1366.97 1959.06L1374.06 1990.03H1374.09L1381.47 1959.28C1381.55 1958.89 1381.66 1958.56 1381.78 1958.31C1381.93 1958.06 1382.16 1957.88 1382.47 1957.75C1382.8 1957.6 1383.25 1957.51 1383.81 1957.47C1384.38 1957.41 1385.12 1957.38 1386.06 1957.38C1387.06 1957.38 1387.85 1957.4 1388.44 1957.44C1389.04 1957.48 1389.5 1957.57 1389.81 1957.72C1390.15 1957.84 1390.39 1958.03 1390.53 1958.28C1390.68 1958.53 1390.79 1958.86 1390.88 1959.28L1398.5 1990.03H1398.56L1405.66 1959.16C1405.72 1958.82 1405.8 1958.54 1405.91 1958.31C1406.01 1958.06 1406.21 1957.88 1406.5 1957.75C1406.79 1957.6 1407.21 1957.51 1407.75 1957.47C1408.29 1957.41 1409.05 1957.38 1410.03 1957.38C1410.95 1957.38 1411.66 1957.41 1412.16 1957.47C1412.68 1957.51 1413.05 1957.65 1413.28 1957.88C1413.51 1958.1 1413.6 1958.45 1413.56 1958.91C1413.54 1959.34 1413.44 1959.95 1413.25 1960.72L1403.97 1995.91ZM1426.81 1996.94C1426.81 1997.15 1426.75 1997.33 1426.62 1997.5C1426.5 1997.65 1426.28 1997.77 1425.97 1997.88C1425.68 1997.98 1425.28 1998.05 1424.78 1998.09C1424.28 1998.16 1423.65 1998.19 1422.88 1998.19C1422.1 1998.19 1421.47 1998.16 1420.97 1998.09C1420.47 1998.05 1420.06 1997.98 1419.75 1997.88C1419.46 1997.77 1419.25 1997.65 1419.12 1997.5C1419 1997.33 1418.94 1997.15 1418.94 1996.94V1969.12C1418.94 1968.92 1419 1968.74 1419.12 1968.59C1419.25 1968.43 1419.46 1968.29 1419.75 1968.19C1420.06 1968.06 1420.47 1967.97 1420.97 1967.91C1421.47 1967.84 1422.1 1967.81 1422.88 1967.81C1423.65 1967.81 1424.28 1967.84 1424.78 1967.91C1425.28 1967.97 1425.68 1968.06 1425.97 1968.19C1426.28 1968.29 1426.5 1968.43 1426.62 1968.59C1426.75 1968.74 1426.81 1968.92 1426.81 1969.12V1996.94ZM1427.41 1959.62C1427.41 1961.21 1427.08 1962.3 1426.44 1962.91C1425.79 1963.51 1424.59 1963.81 1422.84 1963.81C1421.07 1963.81 1419.88 1963.52 1419.25 1962.94C1418.65 1962.35 1418.34 1961.3 1418.34 1959.78C1418.34 1958.2 1418.66 1957.1 1419.28 1956.5C1419.93 1955.88 1421.14 1955.56 1422.91 1955.56C1424.66 1955.56 1425.84 1955.86 1426.47 1956.47C1427.09 1957.05 1427.41 1958.1 1427.41 1959.62ZM1442.56 1996.94C1442.56 1997.15 1442.5 1997.33 1442.38 1997.5C1442.25 1997.65 1442.03 1997.77 1441.72 1997.88C1441.43 1997.98 1441.03 1998.05 1440.53 1998.09C1440.03 1998.16 1439.4 1998.19 1438.62 1998.19C1437.85 1998.19 1437.22 1998.16 1436.72 1998.09C1436.22 1998.05 1435.81 1997.98 1435.5 1997.88C1435.21 1997.77 1435 1997.65 1434.88 1997.5C1434.75 1997.33 1434.69 1997.15 1434.69 1996.94V1955.84C1434.69 1955.64 1434.75 1955.45 1434.88 1955.28C1435 1955.11 1435.21 1954.98 1435.5 1954.88C1435.81 1954.75 1436.22 1954.66 1436.72 1954.59C1437.22 1954.53 1437.85 1954.5 1438.62 1954.5C1439.4 1954.5 1440.03 1954.53 1440.53 1954.59C1441.03 1954.66 1441.43 1954.75 1441.72 1954.88C1442.03 1954.98 1442.25 1955.11 1442.38 1955.28C1442.5 1955.45 1442.56 1955.64 1442.56 1955.84V1996.94ZM1476.34 1996.97C1476.34 1997.18 1476.28 1997.36 1476.16 1997.53C1476.05 1997.68 1475.84 1997.8 1475.53 1997.91C1475.24 1997.99 1474.83 1998.05 1474.31 1998.09C1473.79 1998.16 1473.11 1998.19 1472.28 1998.19C1471.43 1998.19 1470.73 1998.17 1470.19 1998.12C1469.67 1998.08 1469.23 1998.02 1468.88 1997.94C1468.54 1997.83 1468.28 1997.7 1468.09 1997.53C1467.91 1997.36 1467.74 1997.15 1467.59 1996.88L1458.31 1982.19V1996.94C1458.31 1997.15 1458.25 1997.33 1458.12 1997.5C1458 1997.65 1457.78 1997.77 1457.47 1997.88C1457.18 1997.98 1456.78 1998.05 1456.28 1998.09C1455.78 1998.16 1455.15 1998.19 1454.38 1998.19C1453.6 1998.19 1452.97 1998.16 1452.47 1998.09C1451.97 1998.05 1451.56 1997.98 1451.25 1997.88C1450.96 1997.77 1450.75 1997.65 1450.62 1997.5C1450.5 1997.33 1450.44 1997.15 1450.44 1996.94V1955.84C1450.44 1955.64 1450.5 1955.45 1450.62 1955.28C1450.75 1955.11 1450.96 1954.98 1451.25 1954.88C1451.56 1954.75 1451.97 1954.66 1452.47 1954.59C1452.97 1954.53 1453.6 1954.5 1454.38 1954.5C1455.15 1954.5 1455.78 1954.53 1456.28 1954.59C1456.78 1954.66 1457.18 1954.75 1457.47 1954.88C1457.78 1954.98 1458 1955.11 1458.12 1955.28C1458.25 1955.45 1458.31 1955.64 1458.31 1955.84V1980.31L1466.56 1969.22C1466.73 1968.97 1466.92 1968.75 1467.12 1968.56C1467.33 1968.38 1467.6 1968.23 1467.94 1968.12C1468.29 1968.02 1468.72 1967.95 1469.22 1967.91C1469.74 1967.84 1470.4 1967.81 1471.19 1967.81C1471.96 1967.81 1472.6 1967.84 1473.12 1967.91C1473.67 1967.95 1474.09 1968.02 1474.41 1968.12C1474.74 1968.23 1474.97 1968.36 1475.09 1968.53C1475.22 1968.68 1475.28 1968.86 1475.28 1969.09C1475.28 1969.41 1475.2 1969.74 1475.03 1970.09C1474.89 1970.45 1474.66 1970.82 1474.34 1971.22L1466.19 1980.47L1475.62 1995.06C1475.88 1995.48 1476.05 1995.84 1476.16 1996.16C1476.28 1996.45 1476.34 1996.72 1476.34 1996.97ZM1497.34 1998L1493.97 2007.88C1493.78 2008.4 1493.27 2008.77 1492.44 2009C1491.6 2009.23 1490.39 2009.34 1488.78 2009.34C1487.95 2009.34 1487.28 2009.3 1486.78 2009.22C1486.28 2009.16 1485.91 2009.04 1485.66 2008.88C1485.41 2008.71 1485.27 2008.5 1485.25 2008.25C1485.23 2008 1485.29 2007.7 1485.44 2007.34L1489.16 1998C1488.89 1997.88 1488.64 1997.69 1488.41 1997.44C1488.2 1997.17 1488.04 1996.89 1487.94 1996.59L1478.34 1970.97C1478.07 1970.24 1477.94 1969.69 1477.94 1969.31C1477.94 1968.92 1478.06 1968.61 1478.31 1968.41C1478.56 1968.18 1478.98 1968.02 1479.56 1967.94C1480.17 1967.85 1480.96 1967.81 1481.94 1967.81C1482.83 1967.81 1483.54 1967.83 1484.06 1967.88C1484.58 1967.9 1484.99 1967.97 1485.28 1968.09C1485.57 1968.22 1485.79 1968.42 1485.94 1968.69C1486.08 1968.94 1486.23 1969.3 1486.38 1969.78L1492.94 1988.44H1493.03L1499.03 1969.41C1499.16 1968.86 1499.31 1968.51 1499.5 1968.34C1499.71 1968.16 1500.04 1968.02 1500.5 1967.94C1500.96 1967.85 1501.76 1967.81 1502.91 1967.81C1503.8 1967.81 1504.54 1967.85 1505.12 1967.94C1505.73 1968.02 1506.17 1968.18 1506.44 1968.41C1506.73 1968.64 1506.88 1968.95 1506.88 1969.34C1506.88 1969.72 1506.79 1970.17 1506.62 1970.69L1497.34 1998ZM1550.44 1985.88C1550.44 1988 1550.04 1989.86 1549.25 1991.47C1548.46 1993.07 1547.39 1994.42 1546.03 1995.5C1544.68 1996.56 1543.09 1997.36 1541.28 1997.91C1539.47 1998.45 1537.53 1998.72 1535.47 1998.72C1534.07 1998.72 1532.77 1998.6 1531.56 1998.38C1530.38 1998.15 1529.32 1997.88 1528.41 1997.56C1527.49 1997.23 1526.72 1996.89 1526.09 1996.53C1525.49 1996.18 1525.05 1995.86 1524.78 1995.59C1524.51 1995.32 1524.31 1994.94 1524.19 1994.44C1524.08 1993.92 1524.03 1993.18 1524.03 1992.22C1524.03 1991.57 1524.05 1991.03 1524.09 1990.59C1524.14 1990.16 1524.2 1989.8 1524.28 1989.53C1524.39 1989.26 1524.51 1989.07 1524.66 1988.97C1524.82 1988.84 1525.01 1988.78 1525.22 1988.78C1525.51 1988.78 1525.92 1988.96 1526.44 1989.31C1526.98 1989.65 1527.67 1990.02 1528.5 1990.44C1529.33 1990.85 1530.32 1991.24 1531.47 1991.59C1532.64 1991.93 1533.98 1992.09 1535.5 1992.09C1536.5 1992.09 1537.4 1991.98 1538.19 1991.75C1538.98 1991.5 1539.65 1991.16 1540.19 1990.72C1540.75 1990.28 1541.18 1989.74 1541.47 1989.09C1541.76 1988.45 1541.91 1987.73 1541.91 1986.94C1541.91 1986.02 1541.66 1985.24 1541.16 1984.59C1540.66 1983.93 1540 1983.34 1539.19 1982.84C1538.4 1982.32 1537.49 1981.84 1536.47 1981.41C1535.45 1980.95 1534.4 1980.47 1533.31 1979.97C1532.23 1979.47 1531.18 1978.91 1530.16 1978.28C1529.14 1977.64 1528.22 1976.88 1527.41 1976C1526.61 1975.1 1525.97 1974.05 1525.47 1972.84C1524.97 1971.64 1524.72 1970.19 1524.72 1968.5C1524.72 1966.56 1525.07 1964.86 1525.78 1963.41C1526.51 1961.93 1527.48 1960.71 1528.69 1959.75C1529.92 1958.77 1531.35 1958.04 1533 1957.56C1534.67 1957.08 1536.43 1956.84 1538.28 1956.84C1539.24 1956.84 1540.2 1956.92 1541.16 1957.06C1542.11 1957.21 1543.01 1957.41 1543.84 1957.66C1544.68 1957.91 1545.42 1958.19 1546.06 1958.5C1546.71 1958.81 1547.14 1959.07 1547.34 1959.28C1547.55 1959.49 1547.69 1959.67 1547.75 1959.81C1547.83 1959.96 1547.9 1960.16 1547.94 1960.41C1548 1960.64 1548.04 1960.94 1548.06 1961.31C1548.08 1961.67 1548.09 1962.11 1548.09 1962.66C1548.09 1963.26 1548.07 1963.77 1548.03 1964.19C1548.01 1964.6 1547.96 1964.95 1547.88 1965.22C1547.81 1965.49 1547.71 1965.69 1547.56 1965.81C1547.44 1965.94 1547.26 1966 1547.03 1966C1546.8 1966 1546.44 1965.85 1545.94 1965.56C1545.44 1965.27 1544.82 1964.96 1544.09 1964.62C1543.36 1964.27 1542.52 1963.96 1541.56 1963.69C1540.6 1963.4 1539.55 1963.25 1538.41 1963.25C1537.51 1963.25 1536.73 1963.36 1536.06 1963.59C1535.4 1963.8 1534.83 1964.1 1534.38 1964.5C1533.94 1964.88 1533.6 1965.33 1533.38 1965.88C1533.17 1966.42 1533.06 1966.99 1533.06 1967.59C1533.06 1968.49 1533.3 1969.27 1533.78 1969.94C1534.28 1970.58 1534.94 1971.17 1535.75 1971.69C1536.58 1972.19 1537.52 1972.67 1538.56 1973.12C1539.6 1973.56 1540.67 1974.03 1541.75 1974.53C1542.83 1975.03 1543.9 1975.6 1544.94 1976.25C1545.98 1976.88 1546.91 1977.64 1547.72 1978.53C1548.53 1979.41 1549.19 1980.45 1549.69 1981.66C1550.19 1982.84 1550.44 1984.25 1550.44 1985.88ZM1565.5 1993.5C1565.5 1995.44 1565.16 1996.74 1564.47 1997.41C1563.8 1998.07 1562.59 1998.41 1560.84 1998.41C1559.09 1998.41 1557.89 1998.08 1557.22 1997.44C1556.55 1996.77 1556.22 1995.52 1556.22 1993.69C1556.22 1991.73 1556.55 1990.42 1557.22 1989.75C1557.91 1989.08 1559.14 1988.75 1560.91 1988.75C1562.64 1988.75 1563.83 1989.08 1564.5 1989.75C1565.17 1990.4 1565.5 1991.65 1565.5 1993.5ZM1610.56 1994.56C1610.56 1995.19 1610.53 1995.72 1610.47 1996.16C1610.43 1996.57 1610.35 1996.93 1610.25 1997.22C1610.15 1997.49 1610.01 1997.69 1609.84 1997.81C1609.7 1997.94 1609.52 1998 1609.31 1998H1590.78C1590.09 1998 1589.51 1997.8 1589.03 1997.41C1588.57 1996.99 1588.34 1996.32 1588.34 1995.41V1958.69C1588.34 1958.48 1588.41 1958.29 1588.53 1958.12C1588.68 1957.96 1588.91 1957.82 1589.22 1957.72C1589.53 1957.61 1589.95 1957.53 1590.47 1957.47C1591.01 1957.41 1591.68 1957.38 1592.47 1957.38C1593.28 1957.38 1593.95 1957.41 1594.47 1957.47C1594.99 1957.53 1595.41 1957.61 1595.72 1957.72C1596.03 1957.82 1596.25 1957.96 1596.38 1958.12C1596.52 1958.29 1596.59 1958.48 1596.59 1958.69V1991.22H1609.31C1609.52 1991.22 1609.7 1991.28 1609.84 1991.41C1610.01 1991.51 1610.15 1991.7 1610.25 1991.97C1610.35 1992.22 1610.43 1992.56 1610.47 1993C1610.53 1993.42 1610.56 1993.94 1610.56 1994.56ZM1638.69 1997.03C1638.69 1997.32 1638.58 1997.55 1638.38 1997.72C1638.17 1997.89 1637.83 1998 1637.38 1998.06C1636.94 1998.15 1636.28 1998.19 1635.41 1998.19C1634.47 1998.19 1633.78 1998.15 1633.34 1998.06C1632.93 1998 1632.62 1997.89 1632.44 1997.72C1632.27 1997.55 1632.19 1997.32 1632.19 1997.03V1994.81C1631.04 1996.04 1629.73 1997 1628.25 1997.69C1626.79 1998.38 1625.17 1998.72 1623.38 1998.72C1621.9 1998.72 1620.53 1998.52 1619.28 1998.12C1618.05 1997.75 1616.98 1997.19 1616.06 1996.44C1615.17 1995.67 1614.47 1994.72 1613.97 1993.59C1613.47 1992.47 1613.22 1991.16 1613.22 1989.66C1613.22 1988.03 1613.53 1986.62 1614.16 1985.44C1614.8 1984.23 1615.75 1983.24 1617 1982.47C1618.27 1981.68 1619.84 1981.09 1621.72 1980.72C1623.59 1980.34 1625.77 1980.16 1628.25 1980.16H1630.97V1978.47C1630.97 1977.59 1630.88 1976.83 1630.69 1976.19C1630.52 1975.52 1630.23 1974.97 1629.81 1974.53C1629.42 1974.09 1628.88 1973.77 1628.19 1973.56C1627.52 1973.35 1626.69 1973.25 1625.69 1973.25C1624.38 1973.25 1623.2 1973.4 1622.16 1973.69C1621.14 1973.98 1620.23 1974.3 1619.44 1974.66C1618.65 1975.01 1617.98 1975.33 1617.44 1975.62C1616.92 1975.92 1616.49 1976.06 1616.16 1976.06C1615.93 1976.06 1615.72 1975.99 1615.53 1975.84C1615.36 1975.7 1615.22 1975.49 1615.09 1975.22C1614.99 1974.95 1614.91 1974.61 1614.84 1974.22C1614.78 1973.82 1614.75 1973.39 1614.75 1972.91C1614.75 1972.26 1614.8 1971.75 1614.91 1971.38C1615.01 1971 1615.21 1970.67 1615.5 1970.38C1615.79 1970.06 1616.3 1969.73 1617.03 1969.38C1617.76 1969 1618.61 1968.66 1619.59 1968.34C1620.57 1968.03 1621.64 1967.78 1622.78 1967.59C1623.95 1967.39 1625.15 1967.28 1626.38 1967.28C1628.56 1967.28 1630.43 1967.5 1631.97 1967.94C1633.53 1968.35 1634.81 1969.01 1635.81 1969.91C1636.81 1970.78 1637.54 1971.92 1638 1973.31C1638.46 1974.71 1638.69 1976.36 1638.69 1978.28V1997.03ZM1630.97 1985.09H1627.97C1626.7 1985.09 1625.61 1985.19 1624.72 1985.38C1623.82 1985.56 1623.09 1985.84 1622.53 1986.22C1621.97 1986.59 1621.55 1987.05 1621.28 1987.59C1621.03 1988.11 1620.91 1988.72 1620.91 1989.41C1620.91 1990.57 1621.27 1991.49 1622 1992.16C1622.75 1992.82 1623.78 1993.16 1625.09 1993.16C1626.2 1993.16 1627.21 1992.88 1628.12 1992.31C1629.06 1991.75 1630.01 1990.93 1630.97 1989.84V1985.09ZM1674.75 1982.72C1674.75 1985.09 1674.44 1987.26 1673.81 1989.22C1673.19 1991.18 1672.24 1992.86 1670.97 1994.28C1669.7 1995.7 1668.1 1996.79 1666.19 1997.56C1664.27 1998.33 1662.03 1998.72 1659.47 1998.72C1656.99 1998.72 1654.83 1998.38 1653 1997.69C1651.17 1997 1649.65 1996 1648.44 1994.69C1647.23 1993.38 1646.33 1991.76 1645.75 1989.84C1645.17 1987.93 1644.88 1985.74 1644.88 1983.28C1644.88 1980.91 1645.19 1978.74 1645.81 1976.78C1646.46 1974.8 1647.42 1973.11 1648.69 1971.72C1649.96 1970.3 1651.54 1969.21 1653.44 1968.44C1655.35 1967.67 1657.59 1967.28 1660.16 1967.28C1662.66 1967.28 1664.82 1967.62 1666.66 1968.31C1668.49 1968.98 1670 1969.97 1671.19 1971.28C1672.4 1972.59 1673.29 1974.21 1673.88 1976.12C1674.46 1978.04 1674.75 1980.24 1674.75 1982.72ZM1666.66 1983.03C1666.66 1981.66 1666.54 1980.4 1666.31 1979.25C1666.1 1978.08 1665.74 1977.07 1665.22 1976.22C1664.7 1975.36 1664 1974.7 1663.12 1974.22C1662.27 1973.74 1661.19 1973.5 1659.88 1973.5C1658.71 1973.5 1657.69 1973.72 1656.81 1974.16C1655.94 1974.57 1655.22 1975.2 1654.66 1976.03C1654.09 1976.84 1653.67 1977.83 1653.38 1979C1653.1 1980.15 1652.97 1981.46 1652.97 1982.94C1652.97 1984.31 1653.08 1985.58 1653.31 1986.75C1653.54 1987.9 1653.91 1988.9 1654.41 1989.75C1654.93 1990.6 1655.62 1991.27 1656.5 1991.75C1657.38 1992.21 1658.46 1992.44 1659.75 1992.44C1660.94 1992.44 1661.97 1992.23 1662.84 1991.81C1663.72 1991.38 1664.44 1990.75 1665 1989.94C1665.56 1989.12 1665.98 1988.15 1666.25 1987C1666.52 1985.83 1666.66 1984.51 1666.66 1983.03ZM1689.31 1992.25C1689.31 1993.08 1689.27 1993.84 1689.19 1994.53C1689.1 1995.2 1688.97 1995.83 1688.78 1996.44C1688.59 1997.04 1688.35 1997.62 1688.06 1998.19C1687.77 1998.77 1687.41 1999.36 1686.97 1999.97L1682.78 2005.97C1682.64 2006.18 1682.47 2006.35 1682.28 2006.5C1682.11 2006.65 1681.91 2006.76 1681.66 2006.84C1681.41 2006.93 1681.1 2006.99 1680.75 2007.03C1680.4 2007.09 1679.95 2007.12 1679.41 2007.12C1678.8 2007.12 1678.31 2007.09 1677.94 2007.03C1677.56 2006.99 1677.29 2006.92 1677.12 2006.81C1676.96 2006.71 1676.86 2006.57 1676.84 2006.41C1676.84 2006.24 1676.9 2006.04 1677 2005.81L1680.81 1997.19V1992.25C1680.81 1991.54 1680.9 1990.97 1681.06 1990.53C1681.23 1990.09 1681.49 1989.76 1681.84 1989.53C1682.2 1989.3 1682.65 1989.16 1683.19 1989.09C1683.73 1989.01 1684.39 1988.97 1685.16 1988.97C1685.89 1988.97 1686.51 1989.01 1687.03 1989.09C1687.55 1989.16 1687.98 1989.3 1688.31 1989.53C1688.67 1989.76 1688.92 1990.09 1689.06 1990.53C1689.23 1990.97 1689.31 1991.54 1689.31 1992.25ZM1744.66 1994.94C1744.91 1995.69 1745.06 1996.28 1745.12 1996.72C1745.19 1997.16 1745.1 1997.49 1744.88 1997.72C1744.65 1997.93 1744.24 1998.05 1743.66 1998.09C1743.07 1998.16 1742.27 1998.19 1741.25 1998.19C1740.19 1998.19 1739.35 1998.17 1738.75 1998.12C1738.17 1998.1 1737.72 1998.05 1737.41 1997.97C1737.09 1997.86 1736.88 1997.73 1736.75 1997.56C1736.62 1997.4 1736.52 1997.18 1736.44 1996.91L1733.72 1988.78H1718.53L1715.97 1996.69C1715.89 1996.98 1715.77 1997.23 1715.62 1997.44C1715.5 1997.62 1715.28 1997.78 1714.97 1997.91C1714.68 1998.01 1714.25 1998.08 1713.69 1998.12C1713.15 1998.17 1712.43 1998.19 1711.53 1998.19C1710.57 1998.19 1709.82 1998.16 1709.28 1998.09C1708.74 1998.03 1708.36 1997.89 1708.16 1997.66C1707.95 1997.41 1707.88 1997.06 1707.94 1996.62C1708 1996.19 1708.16 1995.6 1708.41 1994.88L1720.88 1959C1721 1958.65 1721.15 1958.36 1721.31 1958.16C1721.48 1957.93 1721.74 1957.76 1722.09 1957.66C1722.47 1957.53 1722.98 1957.46 1723.62 1957.44C1724.27 1957.4 1725.12 1957.38 1726.19 1957.38C1727.42 1957.38 1728.4 1957.4 1729.12 1957.44C1729.85 1957.46 1730.42 1957.53 1730.81 1957.66C1731.23 1957.76 1731.52 1957.93 1731.69 1958.16C1731.88 1958.39 1732.03 1958.7 1732.16 1959.09L1744.66 1994.94ZM1726.09 1965.28H1726.06L1720.34 1982.47H1731.81L1726.09 1965.28ZM1774.31 1994.78C1774.31 1995.39 1774.28 1995.9 1774.22 1996.31C1774.18 1996.71 1774.1 1997.03 1774 1997.28C1773.9 1997.53 1773.76 1997.72 1773.59 1997.84C1773.45 1997.95 1773.28 1998 1773.09 1998H1752.78C1752.09 1998 1751.51 1997.8 1751.03 1997.41C1750.57 1996.99 1750.34 1996.32 1750.34 1995.41V1960.16C1750.34 1959.24 1750.57 1958.58 1751.03 1958.19C1751.51 1957.77 1752.09 1957.56 1752.78 1957.56H1772.97C1773.16 1957.56 1773.32 1957.61 1773.47 1957.72C1773.61 1957.82 1773.74 1958.01 1773.84 1958.28C1773.95 1958.53 1774.02 1958.86 1774.06 1959.28C1774.12 1959.68 1774.16 1960.19 1774.16 1960.81C1774.16 1961.4 1774.12 1961.9 1774.06 1962.31C1774.02 1962.71 1773.95 1963.03 1773.84 1963.28C1773.74 1963.53 1773.61 1963.72 1773.47 1963.84C1773.32 1963.95 1773.16 1964 1772.97 1964H1758.53V1973.88H1770.75C1770.94 1973.88 1771.1 1973.94 1771.25 1974.06C1771.42 1974.17 1771.55 1974.34 1771.66 1974.59C1771.76 1974.82 1771.83 1975.15 1771.88 1975.56C1771.94 1975.96 1771.97 1976.45 1771.97 1977.03C1771.97 1977.64 1771.94 1978.14 1771.88 1978.53C1771.83 1978.93 1771.76 1979.25 1771.66 1979.5C1771.55 1979.73 1771.42 1979.9 1771.25 1980C1771.1 1980.1 1770.94 1980.16 1770.75 1980.16H1758.53V1991.56H1773.09C1773.28 1991.56 1773.45 1991.62 1773.59 1991.75C1773.76 1991.85 1773.9 1992.03 1774 1992.28C1774.1 1992.53 1774.18 1992.86 1774.22 1993.28C1774.28 1993.68 1774.31 1994.18 1774.31 1994.78ZM1828.72 1996.88C1828.72 1997.08 1828.66 1997.27 1828.53 1997.44C1828.43 1997.6 1828.22 1997.74 1827.91 1997.84C1827.61 1997.95 1827.22 1998.03 1826.72 1998.09C1826.22 1998.16 1825.58 1998.19 1824.81 1998.19C1824.06 1998.19 1823.44 1998.16 1822.94 1998.09C1822.44 1998.03 1822.04 1997.95 1821.75 1997.84C1821.46 1997.74 1821.25 1997.6 1821.12 1997.44C1821 1997.27 1820.94 1997.08 1820.94 1996.88V1963.97H1820.88L1809.16 1996.84C1809.07 1997.11 1808.94 1997.34 1808.75 1997.53C1808.56 1997.7 1808.3 1997.83 1807.97 1997.94C1807.66 1998.04 1807.25 1998.1 1806.75 1998.12C1806.25 1998.17 1805.65 1998.19 1804.94 1998.19C1804.23 1998.19 1803.62 1998.16 1803.12 1998.09C1802.62 1998.05 1802.21 1997.98 1801.88 1997.88C1801.56 1997.75 1801.31 1997.6 1801.12 1997.44C1800.94 1997.27 1800.81 1997.07 1800.75 1996.84L1789.44 1963.97H1789.38V1996.88C1789.38 1997.08 1789.31 1997.27 1789.19 1997.44C1789.08 1997.6 1788.88 1997.74 1788.56 1997.84C1788.25 1997.95 1787.84 1998.03 1787.34 1998.09C1786.86 1998.16 1786.24 1998.19 1785.47 1998.19C1784.72 1998.19 1784.09 1998.16 1783.59 1998.09C1783.09 1998.03 1782.69 1997.95 1782.38 1997.84C1782.08 1997.74 1781.88 1997.6 1781.75 1997.44C1781.65 1997.27 1781.59 1997.08 1781.59 1996.88V1960.84C1781.59 1959.78 1781.88 1958.97 1782.44 1958.41C1783 1957.84 1783.75 1957.56 1784.69 1957.56H1790.06C1791.02 1957.56 1791.84 1957.65 1792.53 1957.81C1793.22 1957.96 1793.81 1958.22 1794.31 1958.59C1794.81 1958.95 1795.23 1959.43 1795.56 1960.03C1795.9 1960.61 1796.19 1961.34 1796.44 1962.22L1805.19 1986.31H1805.31L1814.38 1962.28C1814.65 1961.41 1814.94 1960.67 1815.25 1960.06C1815.58 1959.46 1815.96 1958.97 1816.38 1958.59C1816.81 1958.22 1817.32 1957.96 1817.91 1957.81C1818.49 1957.65 1819.17 1957.56 1819.94 1957.56H1825.47C1826.03 1957.56 1826.51 1957.64 1826.91 1957.78C1827.32 1957.93 1827.66 1958.15 1827.91 1958.44C1828.18 1958.71 1828.38 1959.05 1828.5 1959.47C1828.65 1959.86 1828.72 1960.32 1828.72 1960.84V1996.88ZM1864.44 1960.94C1864.44 1961.54 1864.41 1962.06 1864.34 1962.5C1864.3 1962.92 1864.23 1963.26 1864.12 1963.53C1864.02 1963.78 1863.89 1963.97 1863.72 1964.09C1863.57 1964.22 1863.41 1964.28 1863.22 1964.28H1853.09V1996.88C1853.09 1997.08 1853.02 1997.27 1852.88 1997.44C1852.75 1997.6 1852.53 1997.74 1852.22 1997.84C1851.91 1997.95 1851.48 1998.03 1850.94 1998.09C1850.42 1998.16 1849.76 1998.19 1848.97 1998.19C1848.18 1998.19 1847.51 1998.16 1846.97 1998.09C1846.45 1998.03 1846.03 1997.95 1845.72 1997.84C1845.41 1997.74 1845.18 1997.6 1845.03 1997.44C1844.91 1997.27 1844.84 1997.08 1844.84 1996.88V1964.28H1834.72C1834.51 1964.28 1834.33 1964.22 1834.19 1964.09C1834.04 1963.97 1833.92 1963.78 1833.81 1963.53C1833.71 1963.26 1833.62 1962.92 1833.56 1962.5C1833.52 1962.06 1833.5 1961.54 1833.5 1960.94C1833.5 1960.31 1833.52 1959.78 1833.56 1959.34C1833.62 1958.91 1833.71 1958.56 1833.81 1958.31C1833.92 1958.04 1834.04 1957.85 1834.19 1957.75C1834.33 1957.62 1834.51 1957.56 1834.72 1957.56H1863.22C1863.41 1957.56 1863.57 1957.62 1863.72 1957.75C1863.89 1957.85 1864.02 1958.04 1864.12 1958.31C1864.23 1958.56 1864.3 1958.91 1864.34 1959.34C1864.41 1959.78 1864.44 1960.31 1864.44 1960.94ZM1872.06 1992.25C1872.06 1993.08 1872.02 1993.84 1871.94 1994.53C1871.85 1995.2 1871.72 1995.83 1871.53 1996.44C1871.34 1997.04 1871.1 1997.62 1870.81 1998.19C1870.52 1998.77 1870.16 1999.36 1869.72 1999.97L1865.53 2005.97C1865.39 2006.18 1865.22 2006.35 1865.03 2006.5C1864.86 2006.65 1864.66 2006.76 1864.41 2006.84C1864.16 2006.93 1863.85 2006.99 1863.5 2007.03C1863.15 2007.09 1862.7 2007.12 1862.16 2007.12C1861.55 2007.12 1861.06 2007.09 1860.69 2007.03C1860.31 2006.99 1860.04 2006.92 1859.88 2006.81C1859.71 2006.71 1859.61 2006.57 1859.59 2006.41C1859.59 2006.24 1859.65 2006.04 1859.75 2005.81L1863.56 1997.19V1992.25C1863.56 1991.54 1863.65 1990.97 1863.81 1990.53C1863.98 1990.09 1864.24 1989.76 1864.59 1989.53C1864.95 1989.3 1865.4 1989.16 1865.94 1989.09C1866.48 1989.01 1867.14 1988.97 1867.91 1988.97C1868.64 1988.97 1869.26 1989.01 1869.78 1989.09C1870.3 1989.16 1870.73 1989.3 1871.06 1989.53C1871.42 1989.76 1871.67 1990.09 1871.81 1990.53C1871.98 1990.97 1872.06 1991.54 1872.06 1992.25ZM1918.25 1985.88C1918.25 1988 1917.85 1989.86 1917.06 1991.47C1916.27 1993.07 1915.2 1994.42 1913.84 1995.5C1912.49 1996.56 1910.91 1997.36 1909.09 1997.91C1907.28 1998.45 1905.34 1998.72 1903.28 1998.72C1901.89 1998.72 1900.58 1998.6 1899.38 1998.38C1898.19 1998.15 1897.14 1997.88 1896.22 1997.56C1895.3 1997.23 1894.53 1996.89 1893.91 1996.53C1893.3 1996.18 1892.86 1995.86 1892.59 1995.59C1892.32 1995.32 1892.12 1994.94 1892 1994.44C1891.9 1993.92 1891.84 1993.18 1891.84 1992.22C1891.84 1991.57 1891.86 1991.03 1891.91 1990.59C1891.95 1990.16 1892.01 1989.8 1892.09 1989.53C1892.2 1989.26 1892.32 1989.07 1892.47 1988.97C1892.64 1988.84 1892.82 1988.78 1893.03 1988.78C1893.32 1988.78 1893.73 1988.96 1894.25 1989.31C1894.79 1989.65 1895.48 1990.02 1896.31 1990.44C1897.15 1990.85 1898.14 1991.24 1899.28 1991.59C1900.45 1991.93 1901.79 1992.09 1903.31 1992.09C1904.31 1992.09 1905.21 1991.98 1906 1991.75C1906.79 1991.5 1907.46 1991.16 1908 1990.72C1908.56 1990.28 1908.99 1989.74 1909.28 1989.09C1909.57 1988.45 1909.72 1987.73 1909.72 1986.94C1909.72 1986.02 1909.47 1985.24 1908.97 1984.59C1908.47 1983.93 1907.81 1983.34 1907 1982.84C1906.21 1982.32 1905.3 1981.84 1904.28 1981.41C1903.26 1980.95 1902.21 1980.47 1901.12 1979.97C1900.04 1979.47 1898.99 1978.91 1897.97 1978.28C1896.95 1977.64 1896.03 1976.88 1895.22 1976C1894.43 1975.1 1893.78 1974.05 1893.28 1972.84C1892.78 1971.64 1892.53 1970.19 1892.53 1968.5C1892.53 1966.56 1892.89 1964.86 1893.59 1963.41C1894.32 1961.93 1895.29 1960.71 1896.5 1959.75C1897.73 1958.77 1899.17 1958.04 1900.81 1957.56C1902.48 1957.08 1904.24 1956.84 1906.09 1956.84C1907.05 1956.84 1908.01 1956.92 1908.97 1957.06C1909.93 1957.21 1910.82 1957.41 1911.66 1957.66C1912.49 1957.91 1913.23 1958.19 1913.88 1958.5C1914.52 1958.81 1914.95 1959.07 1915.16 1959.28C1915.36 1959.49 1915.5 1959.67 1915.56 1959.81C1915.65 1959.96 1915.71 1960.16 1915.75 1960.41C1915.81 1960.64 1915.85 1960.94 1915.88 1961.31C1915.9 1961.67 1915.91 1962.11 1915.91 1962.66C1915.91 1963.26 1915.89 1963.77 1915.84 1964.19C1915.82 1964.6 1915.77 1964.95 1915.69 1965.22C1915.62 1965.49 1915.52 1965.69 1915.38 1965.81C1915.25 1965.94 1915.07 1966 1914.84 1966C1914.61 1966 1914.25 1965.85 1913.75 1965.56C1913.25 1965.27 1912.64 1964.96 1911.91 1964.62C1911.18 1964.27 1910.33 1963.96 1909.38 1963.69C1908.42 1963.4 1907.36 1963.25 1906.22 1963.25C1905.32 1963.25 1904.54 1963.36 1903.88 1963.59C1903.21 1963.8 1902.65 1964.1 1902.19 1964.5C1901.75 1964.88 1901.42 1965.33 1901.19 1965.88C1900.98 1966.42 1900.88 1966.99 1900.88 1967.59C1900.88 1968.49 1901.11 1969.27 1901.59 1969.94C1902.09 1970.58 1902.75 1971.17 1903.56 1971.69C1904.4 1972.19 1905.33 1972.67 1906.38 1973.12C1907.42 1973.56 1908.48 1974.03 1909.56 1974.53C1910.65 1975.03 1911.71 1975.6 1912.75 1976.25C1913.79 1976.88 1914.72 1977.64 1915.53 1978.53C1916.34 1979.41 1917 1980.45 1917.5 1981.66C1918 1982.84 1918.25 1984.25 1918.25 1985.88ZM1960.91 1977.31C1960.91 1980.67 1960.49 1983.67 1959.66 1986.31C1958.82 1988.96 1957.58 1991.21 1955.94 1993.06C1954.29 1994.9 1952.25 1996.3 1949.81 1997.28C1947.4 1998.24 1944.59 1998.72 1941.41 1998.72C1938.26 1998.72 1935.51 1998.31 1933.16 1997.5C1930.82 1996.67 1928.88 1995.41 1927.31 1993.72C1925.75 1992.03 1924.57 1989.89 1923.78 1987.28C1923.01 1984.68 1922.62 1981.59 1922.62 1978.03C1922.62 1974.76 1923.04 1971.82 1923.88 1969.22C1924.71 1966.59 1925.95 1964.36 1927.59 1962.53C1929.24 1960.7 1931.27 1959.29 1933.69 1958.31C1936.12 1957.33 1938.95 1956.84 1942.16 1956.84C1945.22 1956.84 1947.92 1957.25 1950.25 1958.06C1952.6 1958.88 1954.56 1960.12 1956.12 1961.81C1957.71 1963.5 1958.9 1965.64 1959.69 1968.22C1960.5 1970.78 1960.91 1973.81 1960.91 1977.31ZM1952.28 1977.75C1952.28 1975.62 1952.11 1973.7 1951.78 1971.97C1951.45 1970.22 1950.88 1968.73 1950.06 1967.5C1949.27 1966.25 1948.21 1965.29 1946.88 1964.62C1945.54 1963.94 1943.88 1963.59 1941.88 1963.59C1939.85 1963.59 1938.17 1963.98 1936.81 1964.75C1935.46 1965.5 1934.36 1966.51 1933.53 1967.78C1932.7 1969.05 1932.1 1970.54 1931.75 1972.25C1931.42 1973.94 1931.25 1975.73 1931.25 1977.62C1931.25 1979.83 1931.42 1981.82 1931.75 1983.59C1932.08 1985.34 1932.65 1986.84 1933.44 1988.09C1934.23 1989.34 1935.29 1990.3 1936.62 1990.97C1937.96 1991.61 1939.64 1991.94 1941.66 1991.94C1943.68 1991.94 1945.36 1991.56 1946.72 1990.81C1948.07 1990.06 1949.17 1989.04 1950 1987.75C1950.83 1986.46 1951.42 1984.96 1951.75 1983.25C1952.1 1981.52 1952.28 1979.69 1952.28 1977.75ZM1993.31 1994.66C1993.31 1995.26 1993.28 1995.78 1993.22 1996.22C1993.18 1996.64 1993.1 1996.98 1993 1997.25C1992.9 1997.52 1992.76 1997.72 1992.59 1997.84C1992.43 1997.95 1992.24 1998 1992.03 1998H1968.78C1968.32 1998 1967.93 1997.96 1967.59 1997.88C1967.26 1997.79 1966.99 1997.64 1966.78 1997.41C1966.57 1997.16 1966.42 1996.8 1966.31 1996.34C1966.23 1995.89 1966.19 1995.29 1966.19 1994.56C1966.19 1993.88 1966.22 1993.29 1966.28 1992.81C1966.34 1992.31 1966.46 1991.88 1966.62 1991.5C1966.79 1991.1 1967 1990.73 1967.25 1990.38C1967.52 1990 1967.86 1989.59 1968.28 1989.16L1975.28 1981.66C1976.68 1980.2 1977.8 1978.88 1978.66 1977.69C1979.51 1976.48 1980.18 1975.39 1980.66 1974.41C1981.14 1973.41 1981.46 1972.49 1981.62 1971.66C1981.81 1970.82 1981.91 1970.03 1981.91 1969.28C1981.91 1968.59 1981.79 1967.95 1981.56 1967.34C1981.35 1966.72 1981.03 1966.18 1980.59 1965.72C1980.18 1965.26 1979.65 1964.91 1979 1964.66C1978.35 1964.39 1977.59 1964.25 1976.72 1964.25C1975.49 1964.25 1974.4 1964.41 1973.44 1964.72C1972.5 1965.03 1971.67 1965.39 1970.94 1965.78C1970.23 1966.16 1969.64 1966.51 1969.16 1966.84C1968.68 1967.16 1968.3 1967.31 1968.03 1967.31C1967.84 1967.31 1967.68 1967.25 1967.53 1967.12C1967.41 1967 1967.3 1966.79 1967.22 1966.5C1967.14 1966.21 1967.06 1965.82 1967 1965.34C1966.96 1964.84 1966.94 1964.24 1966.94 1963.53C1966.94 1963.05 1966.95 1962.66 1966.97 1962.34C1967.01 1962.01 1967.06 1961.73 1967.12 1961.5C1967.19 1961.25 1967.27 1961.04 1967.38 1960.88C1967.48 1960.69 1967.66 1960.47 1967.91 1960.22C1968.18 1959.97 1968.66 1959.66 1969.34 1959.28C1970.05 1958.89 1970.92 1958.51 1971.94 1958.16C1972.96 1957.78 1974.08 1957.47 1975.31 1957.22C1976.54 1956.97 1977.82 1956.84 1979.16 1956.84C1981.26 1956.84 1983.09 1957.11 1984.66 1957.66C1986.24 1958.18 1987.55 1958.92 1988.59 1959.88C1989.64 1960.81 1990.41 1961.94 1990.91 1963.25C1991.43 1964.54 1991.69 1965.94 1991.69 1967.44C1991.69 1968.75 1991.56 1970.04 1991.31 1971.31C1991.06 1972.58 1990.54 1973.96 1989.75 1975.44C1988.96 1976.9 1987.84 1978.52 1986.41 1980.31C1984.97 1982.08 1983.06 1984.15 1980.69 1986.5L1975.97 1991.34H1991.91C1992.11 1991.34 1992.3 1991.41 1992.47 1991.53C1992.66 1991.66 1992.81 1991.85 1992.94 1992.12C1993.06 1992.38 1993.16 1992.72 1993.22 1993.16C1993.28 1993.57 1993.31 1994.07 1993.31 1994.66ZM2009.06 1992.25C2009.06 1993.08 2009.02 1993.84 2008.94 1994.53C2008.85 1995.2 2008.72 1995.83 2008.53 1996.44C2008.34 1997.04 2008.1 1997.62 2007.81 1998.19C2007.52 1998.77 2007.16 1999.36 2006.72 1999.97L2002.53 2005.97C2002.39 2006.18 2002.22 2006.35 2002.03 2006.5C2001.86 2006.65 2001.66 2006.76 2001.41 2006.84C2001.16 2006.93 2000.85 2006.99 2000.5 2007.03C2000.15 2007.09 1999.7 2007.12 1999.16 2007.12C1998.55 2007.12 1998.06 2007.09 1997.69 2007.03C1997.31 2006.99 1997.04 2006.92 1996.88 2006.81C1996.71 2006.71 1996.61 2006.57 1996.59 2006.41C1996.59 2006.24 1996.65 2006.04 1996.75 2005.81L2000.56 1997.19V1992.25C2000.56 1991.54 2000.65 1990.97 2000.81 1990.53C2000.98 1990.09 2001.24 1989.76 2001.59 1989.53C2001.95 1989.3 2002.4 1989.16 2002.94 1989.09C2003.48 1989.01 2004.14 1988.97 2004.91 1988.97C2005.64 1988.97 2006.26 1989.01 2006.78 1989.09C2007.3 1989.16 2007.73 1989.3 2008.06 1989.53C2008.42 1989.76 2008.67 1990.09 2008.81 1990.53C2008.98 1990.97 2009.06 1991.54 2009.06 1992.25ZM2064.41 1994.94C2064.66 1995.69 2064.81 1996.28 2064.88 1996.72C2064.94 1997.16 2064.85 1997.49 2064.62 1997.72C2064.4 1997.93 2063.99 1998.05 2063.41 1998.09C2062.82 1998.16 2062.02 1998.19 2061 1998.19C2059.94 1998.19 2059.1 1998.17 2058.5 1998.12C2057.92 1998.1 2057.47 1998.05 2057.16 1997.97C2056.84 1997.86 2056.62 1997.73 2056.5 1997.56C2056.38 1997.4 2056.27 1997.18 2056.19 1996.91L2053.47 1988.78H2038.28L2035.72 1996.69C2035.64 1996.98 2035.52 1997.23 2035.38 1997.44C2035.25 1997.62 2035.03 1997.78 2034.72 1997.91C2034.43 1998.01 2034 1998.08 2033.44 1998.12C2032.9 1998.17 2032.18 1998.19 2031.28 1998.19C2030.32 1998.19 2029.57 1998.16 2029.03 1998.09C2028.49 1998.03 2028.11 1997.89 2027.91 1997.66C2027.7 1997.41 2027.62 1997.06 2027.69 1996.62C2027.75 1996.19 2027.91 1995.6 2028.16 1994.88L2040.62 1959C2040.75 1958.65 2040.9 1958.36 2041.06 1958.16C2041.23 1957.93 2041.49 1957.76 2041.84 1957.66C2042.22 1957.53 2042.73 1957.46 2043.38 1957.44C2044.02 1957.4 2044.88 1957.38 2045.94 1957.38C2047.17 1957.38 2048.15 1957.4 2048.88 1957.44C2049.6 1957.46 2050.17 1957.53 2050.56 1957.66C2050.98 1957.76 2051.27 1957.93 2051.44 1958.16C2051.62 1958.39 2051.78 1958.7 2051.91 1959.09L2064.41 1994.94ZM2045.84 1965.28H2045.81L2040.09 1982.47H2051.56L2045.84 1965.28ZM2094.06 1985.88C2094.06 1988 2093.67 1989.86 2092.88 1991.47C2092.08 1993.07 2091.01 1994.42 2089.66 1995.5C2088.3 1996.56 2086.72 1997.36 2084.91 1997.91C2083.09 1998.45 2081.16 1998.72 2079.09 1998.72C2077.7 1998.72 2076.4 1998.6 2075.19 1998.38C2074 1998.15 2072.95 1997.88 2072.03 1997.56C2071.11 1997.23 2070.34 1996.89 2069.72 1996.53C2069.11 1996.18 2068.68 1995.86 2068.41 1995.59C2068.14 1995.32 2067.94 1994.94 2067.81 1994.44C2067.71 1993.92 2067.66 1993.18 2067.66 1992.22C2067.66 1991.57 2067.68 1991.03 2067.72 1990.59C2067.76 1990.16 2067.82 1989.8 2067.91 1989.53C2068.01 1989.26 2068.14 1989.07 2068.28 1988.97C2068.45 1988.84 2068.64 1988.78 2068.84 1988.78C2069.14 1988.78 2069.54 1988.96 2070.06 1989.31C2070.6 1989.65 2071.29 1990.02 2072.12 1990.44C2072.96 1990.85 2073.95 1991.24 2075.09 1991.59C2076.26 1991.93 2077.6 1992.09 2079.12 1992.09C2080.12 1992.09 2081.02 1991.98 2081.81 1991.75C2082.6 1991.5 2083.27 1991.16 2083.81 1990.72C2084.38 1990.28 2084.8 1989.74 2085.09 1989.09C2085.39 1988.45 2085.53 1987.73 2085.53 1986.94C2085.53 1986.02 2085.28 1985.24 2084.78 1984.59C2084.28 1983.93 2083.62 1983.34 2082.81 1982.84C2082.02 1982.32 2081.11 1981.84 2080.09 1981.41C2079.07 1980.95 2078.02 1980.47 2076.94 1979.97C2075.85 1979.47 2074.8 1978.91 2073.78 1978.28C2072.76 1977.64 2071.84 1976.88 2071.03 1976C2070.24 1975.1 2069.59 1974.05 2069.09 1972.84C2068.59 1971.64 2068.34 1970.19 2068.34 1968.5C2068.34 1966.56 2068.7 1964.86 2069.41 1963.41C2070.14 1961.93 2071.1 1960.71 2072.31 1959.75C2073.54 1958.77 2074.98 1958.04 2076.62 1957.56C2078.29 1957.08 2080.05 1956.84 2081.91 1956.84C2082.86 1956.84 2083.82 1956.92 2084.78 1957.06C2085.74 1957.21 2086.64 1957.41 2087.47 1957.66C2088.3 1957.91 2089.04 1958.19 2089.69 1958.5C2090.33 1958.81 2090.76 1959.07 2090.97 1959.28C2091.18 1959.49 2091.31 1959.67 2091.38 1959.81C2091.46 1959.96 2091.52 1960.16 2091.56 1960.41C2091.62 1960.64 2091.67 1960.94 2091.69 1961.31C2091.71 1961.67 2091.72 1962.11 2091.72 1962.66C2091.72 1963.26 2091.7 1963.77 2091.66 1964.19C2091.64 1964.6 2091.58 1964.95 2091.5 1965.22C2091.44 1965.49 2091.33 1965.69 2091.19 1965.81C2091.06 1965.94 2090.89 1966 2090.66 1966C2090.43 1966 2090.06 1965.85 2089.56 1965.56C2089.06 1965.27 2088.45 1964.96 2087.72 1964.62C2086.99 1964.27 2086.15 1963.96 2085.19 1963.69C2084.23 1963.4 2083.18 1963.25 2082.03 1963.25C2081.14 1963.25 2080.35 1963.36 2079.69 1963.59C2079.02 1963.8 2078.46 1964.1 2078 1964.5C2077.56 1964.88 2077.23 1965.33 2077 1965.88C2076.79 1966.42 2076.69 1966.99 2076.69 1967.59C2076.69 1968.49 2076.93 1969.27 2077.41 1969.94C2077.91 1970.58 2078.56 1971.17 2079.38 1971.69C2080.21 1972.19 2081.15 1972.67 2082.19 1973.12C2083.23 1973.56 2084.29 1974.03 2085.38 1974.53C2086.46 1975.03 2087.52 1975.6 2088.56 1976.25C2089.6 1976.88 2090.53 1977.64 2091.34 1978.53C2092.16 1979.41 2092.81 1980.45 2093.31 1981.66C2093.81 1982.84 2094.06 1984.25 2094.06 1985.88ZM2131.91 1996.88C2131.91 1997.08 2131.83 1997.27 2131.69 1997.44C2131.56 1997.6 2131.34 1997.74 2131.03 1997.84C2130.72 1997.95 2130.3 1998.03 2129.78 1998.09C2129.26 1998.16 2128.6 1998.19 2127.81 1998.19C2127 1998.19 2126.32 1998.16 2125.78 1998.09C2125.26 1998.03 2124.84 1997.95 2124.53 1997.84C2124.24 1997.74 2124.02 1997.6 2123.88 1997.44C2123.75 1997.27 2123.69 1997.08 2123.69 1996.88V1980.53H2108.56V1996.88C2108.56 1997.08 2108.5 1997.27 2108.38 1997.44C2108.25 1997.6 2108.03 1997.74 2107.72 1997.84C2107.41 1997.95 2106.99 1998.03 2106.47 1998.09C2105.95 1998.16 2105.28 1998.19 2104.47 1998.19C2103.68 1998.19 2103.01 1998.16 2102.47 1998.09C2101.95 1998.03 2101.53 1997.95 2101.22 1997.84C2100.91 1997.74 2100.68 1997.6 2100.53 1997.44C2100.41 1997.27 2100.34 1997.08 2100.34 1996.88V1958.69C2100.34 1958.48 2100.41 1958.29 2100.53 1958.12C2100.68 1957.96 2100.91 1957.82 2101.22 1957.72C2101.53 1957.61 2101.95 1957.53 2102.47 1957.47C2103.01 1957.41 2103.68 1957.38 2104.47 1957.38C2105.28 1957.38 2105.95 1957.41 2106.47 1957.47C2106.99 1957.53 2107.41 1957.61 2107.72 1957.72C2108.03 1957.82 2108.25 1957.96 2108.38 1958.12C2108.5 1958.29 2108.56 1958.48 2108.56 1958.69V1973.53H2123.69V1958.69C2123.69 1958.48 2123.75 1958.29 2123.88 1958.12C2124.02 1957.96 2124.24 1957.82 2124.53 1957.72C2124.84 1957.61 2125.26 1957.53 2125.78 1957.47C2126.32 1957.41 2127 1957.38 2127.81 1957.38C2128.6 1957.38 2129.26 1957.41 2129.78 1957.47C2130.3 1957.53 2130.72 1957.61 2131.03 1957.72C2131.34 1957.82 2131.56 1957.96 2131.69 1958.12C2131.83 1958.29 2131.91 1958.48 2131.91 1958.69V1996.88ZM2148.97 1996.88C2148.97 1997.08 2148.9 1997.27 2148.75 1997.44C2148.62 1997.6 2148.41 1997.74 2148.09 1997.84C2147.78 1997.95 2147.36 1998.03 2146.84 1998.09C2146.32 1998.16 2145.66 1998.19 2144.84 1998.19C2144.05 1998.19 2143.39 1998.16 2142.84 1998.09C2142.32 1998.03 2141.91 1997.95 2141.59 1997.84C2141.28 1997.74 2141.05 1997.6 2140.91 1997.44C2140.78 1997.27 2140.72 1997.08 2140.72 1996.88V1958.69C2140.72 1958.48 2140.78 1958.29 2140.91 1958.12C2141.05 1957.96 2141.28 1957.82 2141.59 1957.72C2141.93 1957.61 2142.35 1957.53 2142.88 1957.47C2143.4 1957.41 2144.05 1957.38 2144.84 1957.38C2145.66 1957.38 2146.32 1957.41 2146.84 1957.47C2147.36 1957.53 2147.78 1957.61 2148.09 1957.72C2148.41 1957.82 2148.62 1957.96 2148.75 1958.12C2148.9 1958.29 2148.97 1958.48 2148.97 1958.69V1996.88ZM2166.56 1992.25C2166.56 1993.08 2166.52 1993.84 2166.44 1994.53C2166.35 1995.2 2166.22 1995.83 2166.03 1996.44C2165.84 1997.04 2165.6 1997.62 2165.31 1998.19C2165.02 1998.77 2164.66 1999.36 2164.22 1999.97L2160.03 2005.97C2159.89 2006.18 2159.72 2006.35 2159.53 2006.5C2159.36 2006.65 2159.16 2006.76 2158.91 2006.84C2158.66 2006.93 2158.35 2006.99 2158 2007.03C2157.65 2007.09 2157.2 2007.12 2156.66 2007.12C2156.05 2007.12 2155.56 2007.09 2155.19 2007.03C2154.81 2006.99 2154.54 2006.92 2154.38 2006.81C2154.21 2006.71 2154.11 2006.57 2154.09 2006.41C2154.09 2006.24 2154.15 2006.04 2154.25 2005.81L2158.06 1997.19V1992.25C2158.06 1991.54 2158.15 1990.97 2158.31 1990.53C2158.48 1990.09 2158.74 1989.76 2159.09 1989.53C2159.45 1989.3 2159.9 1989.16 2160.44 1989.09C2160.98 1989.01 2161.64 1988.97 2162.41 1988.97C2163.14 1988.97 2163.76 1989.01 2164.28 1989.09C2164.8 1989.16 2165.23 1989.3 2165.56 1989.53C2165.92 1989.76 2166.17 1990.09 2166.31 1990.53C2166.48 1990.97 2166.56 1991.54 2166.56 1992.25ZM2221.91 1994.94C2222.16 1995.69 2222.31 1996.28 2222.38 1996.72C2222.44 1997.16 2222.35 1997.49 2222.12 1997.72C2221.9 1997.93 2221.49 1998.05 2220.91 1998.09C2220.32 1998.16 2219.52 1998.19 2218.5 1998.19C2217.44 1998.19 2216.6 1998.17 2216 1998.12C2215.42 1998.1 2214.97 1998.05 2214.66 1997.97C2214.34 1997.86 2214.12 1997.73 2214 1997.56C2213.88 1997.4 2213.77 1997.18 2213.69 1996.91L2210.97 1988.78H2195.78L2193.22 1996.69C2193.14 1996.98 2193.02 1997.23 2192.88 1997.44C2192.75 1997.62 2192.53 1997.78 2192.22 1997.91C2191.93 1998.01 2191.5 1998.08 2190.94 1998.12C2190.4 1998.17 2189.68 1998.19 2188.78 1998.19C2187.82 1998.19 2187.07 1998.16 2186.53 1998.09C2185.99 1998.03 2185.61 1997.89 2185.41 1997.66C2185.2 1997.41 2185.12 1997.06 2185.19 1996.62C2185.25 1996.19 2185.41 1995.6 2185.66 1994.88L2198.12 1959C2198.25 1958.65 2198.4 1958.36 2198.56 1958.16C2198.73 1957.93 2198.99 1957.76 2199.34 1957.66C2199.72 1957.53 2200.23 1957.46 2200.88 1957.44C2201.52 1957.4 2202.38 1957.38 2203.44 1957.38C2204.67 1957.38 2205.65 1957.4 2206.38 1957.44C2207.1 1957.46 2207.67 1957.53 2208.06 1957.66C2208.48 1957.76 2208.77 1957.93 2208.94 1958.16C2209.12 1958.39 2209.28 1958.7 2209.41 1959.09L2221.91 1994.94ZM2203.34 1965.28H2203.31L2197.59 1982.47H2209.06L2203.34 1965.28ZM2259.16 1996.88C2259.16 1997.08 2259.08 1997.27 2258.94 1997.44C2258.81 1997.6 2258.59 1997.74 2258.28 1997.84C2257.97 1997.95 2257.55 1998.03 2257.03 1998.09C2256.51 1998.16 2255.85 1998.19 2255.06 1998.19C2254.25 1998.19 2253.57 1998.16 2253.03 1998.09C2252.51 1998.03 2252.09 1997.95 2251.78 1997.84C2251.49 1997.74 2251.27 1997.6 2251.12 1997.44C2251 1997.27 2250.94 1997.08 2250.94 1996.88V1980.53H2235.81V1996.88C2235.81 1997.08 2235.75 1997.27 2235.62 1997.44C2235.5 1997.6 2235.28 1997.74 2234.97 1997.84C2234.66 1997.95 2234.24 1998.03 2233.72 1998.09C2233.2 1998.16 2232.53 1998.19 2231.72 1998.19C2230.93 1998.19 2230.26 1998.16 2229.72 1998.09C2229.2 1998.03 2228.78 1997.95 2228.47 1997.84C2228.16 1997.74 2227.93 1997.6 2227.78 1997.44C2227.66 1997.27 2227.59 1997.08 2227.59 1996.88V1958.69C2227.59 1958.48 2227.66 1958.29 2227.78 1958.12C2227.93 1957.96 2228.16 1957.82 2228.47 1957.72C2228.78 1957.61 2229.2 1957.53 2229.72 1957.47C2230.26 1957.41 2230.93 1957.38 2231.72 1957.38C2232.53 1957.38 2233.2 1957.41 2233.72 1957.47C2234.24 1957.53 2234.66 1957.61 2234.97 1957.72C2235.28 1957.82 2235.5 1957.96 2235.62 1958.12C2235.75 1958.29 2235.81 1958.48 2235.81 1958.69V1973.53H2250.94V1958.69C2250.94 1958.48 2251 1958.29 2251.12 1958.12C2251.27 1957.96 2251.49 1957.82 2251.78 1957.72C2252.09 1957.61 2252.51 1957.53 2253.03 1957.47C2253.57 1957.41 2254.25 1957.38 2255.06 1957.38C2255.85 1957.38 2256.51 1957.41 2257.03 1957.47C2257.55 1957.53 2257.97 1957.61 2258.28 1957.72C2258.59 1957.82 2258.81 1957.96 2258.94 1958.12C2259.08 1958.29 2259.16 1958.48 2259.16 1958.69V1996.88ZM2301.09 1994.94C2301.34 1995.69 2301.5 1996.28 2301.56 1996.72C2301.62 1997.16 2301.54 1997.49 2301.31 1997.72C2301.08 1997.93 2300.68 1998.05 2300.09 1998.09C2299.51 1998.16 2298.71 1998.19 2297.69 1998.19C2296.62 1998.19 2295.79 1998.17 2295.19 1998.12C2294.6 1998.1 2294.16 1998.05 2293.84 1997.97C2293.53 1997.86 2293.31 1997.73 2293.19 1997.56C2293.06 1997.4 2292.96 1997.18 2292.88 1996.91L2290.16 1988.78H2274.97L2272.41 1996.69C2272.32 1996.98 2272.21 1997.23 2272.06 1997.44C2271.94 1997.62 2271.72 1997.78 2271.41 1997.91C2271.11 1998.01 2270.69 1998.08 2270.12 1998.12C2269.58 1998.17 2268.86 1998.19 2267.97 1998.19C2267.01 1998.19 2266.26 1998.16 2265.72 1998.09C2265.18 1998.03 2264.8 1997.89 2264.59 1997.66C2264.39 1997.41 2264.31 1997.06 2264.38 1996.62C2264.44 1996.19 2264.59 1995.6 2264.84 1994.88L2277.31 1959C2277.44 1958.65 2277.58 1958.36 2277.75 1958.16C2277.92 1957.93 2278.18 1957.76 2278.53 1957.66C2278.91 1957.53 2279.42 1957.46 2280.06 1957.44C2280.71 1957.4 2281.56 1957.38 2282.62 1957.38C2283.85 1957.38 2284.83 1957.4 2285.56 1957.44C2286.29 1957.46 2286.85 1957.53 2287.25 1957.66C2287.67 1957.76 2287.96 1957.93 2288.12 1958.16C2288.31 1958.39 2288.47 1958.7 2288.59 1959.09L2301.09 1994.94ZM2282.53 1965.28H2282.5L2276.78 1982.47H2288.25L2282.53 1965.28ZM2316.38 1992.25C2316.38 1993.08 2316.33 1993.84 2316.25 1994.53C2316.17 1995.2 2316.03 1995.83 2315.84 1996.44C2315.66 1997.04 2315.42 1997.62 2315.12 1998.19C2314.83 1998.77 2314.47 1999.36 2314.03 1999.97L2309.84 2005.97C2309.7 2006.18 2309.53 2006.35 2309.34 2006.5C2309.18 2006.65 2308.97 2006.76 2308.72 2006.84C2308.47 2006.93 2308.17 2006.99 2307.81 2007.03C2307.46 2007.09 2307.01 2007.12 2306.47 2007.12C2305.86 2007.12 2305.38 2007.09 2305 2007.03C2304.62 2006.99 2304.35 2006.92 2304.19 2006.81C2304.02 2006.71 2303.93 2006.57 2303.91 2006.41C2303.91 2006.24 2303.96 2006.04 2304.06 2005.81L2307.88 1997.19V1992.25C2307.88 1991.54 2307.96 1990.97 2308.12 1990.53C2308.29 1990.09 2308.55 1989.76 2308.91 1989.53C2309.26 1989.3 2309.71 1989.16 2310.25 1989.09C2310.79 1989.01 2311.45 1988.97 2312.22 1988.97C2312.95 1988.97 2313.57 1989.01 2314.09 1989.09C2314.61 1989.16 2315.04 1989.3 2315.38 1989.53C2315.73 1989.76 2315.98 1990.09 2316.12 1990.53C2316.29 1990.97 2316.38 1991.54 2316.38 1992.25ZM2346.84 1996.88C2346.84 1997.08 2346.77 1997.27 2346.62 1997.44C2346.5 1997.6 2346.28 1997.74 2345.97 1997.84C2345.66 1997.95 2345.24 1998.03 2344.72 1998.09C2344.2 1998.16 2343.53 1998.19 2342.72 1998.19C2341.93 1998.19 2341.26 1998.16 2340.72 1998.09C2340.2 1998.03 2339.78 1997.95 2339.47 1997.84C2339.16 1997.74 2338.93 1997.6 2338.78 1997.44C2338.66 1997.27 2338.59 1997.08 2338.59 1996.88V1958.69C2338.59 1958.48 2338.66 1958.29 2338.78 1958.12C2338.93 1957.96 2339.16 1957.82 2339.47 1957.72C2339.8 1957.61 2340.23 1957.53 2340.75 1957.47C2341.27 1957.41 2341.93 1957.38 2342.72 1957.38C2343.53 1957.38 2344.2 1957.41 2344.72 1957.47C2345.24 1957.53 2345.66 1957.61 2345.97 1957.72C2346.28 1957.82 2346.5 1957.96 2346.62 1958.12C2346.77 1958.29 2346.84 1958.48 2346.84 1958.69V1996.88ZM2382.56 1960.94C2382.56 1961.54 2382.53 1962.06 2382.47 1962.5C2382.43 1962.92 2382.35 1963.26 2382.25 1963.53C2382.15 1963.78 2382.01 1963.97 2381.84 1964.09C2381.7 1964.22 2381.53 1964.28 2381.34 1964.28H2371.22V1996.88C2371.22 1997.08 2371.15 1997.27 2371 1997.44C2370.88 1997.6 2370.66 1997.74 2370.34 1997.84C2370.03 1997.95 2369.6 1998.03 2369.06 1998.09C2368.54 1998.16 2367.89 1998.19 2367.09 1998.19C2366.3 1998.19 2365.64 1998.16 2365.09 1998.09C2364.57 1998.03 2364.16 1997.95 2363.84 1997.84C2363.53 1997.74 2363.3 1997.6 2363.16 1997.44C2363.03 1997.27 2362.97 1997.08 2362.97 1996.88V1964.28H2352.84C2352.64 1964.28 2352.46 1964.22 2352.31 1964.09C2352.17 1963.97 2352.04 1963.78 2351.94 1963.53C2351.83 1963.26 2351.75 1962.92 2351.69 1962.5C2351.65 1962.06 2351.62 1961.54 2351.62 1960.94C2351.62 1960.31 2351.65 1959.78 2351.69 1959.34C2351.75 1958.91 2351.83 1958.56 2351.94 1958.31C2352.04 1958.04 2352.17 1957.85 2352.31 1957.75C2352.46 1957.62 2352.64 1957.56 2352.84 1957.56H2381.34C2381.53 1957.56 2381.7 1957.62 2381.84 1957.75C2382.01 1957.85 2382.15 1958.04 2382.25 1958.31C2382.35 1958.56 2382.43 1958.91 2382.47 1959.34C2382.53 1959.78 2382.56 1960.31 2382.56 1960.94ZM2409.56 1994.56C2409.56 1995.19 2409.53 1995.72 2409.47 1996.16C2409.43 1996.57 2409.35 1996.93 2409.25 1997.22C2409.15 1997.49 2409.01 1997.69 2408.84 1997.81C2408.7 1997.94 2408.52 1998 2408.31 1998H2389.78C2389.09 1998 2388.51 1997.8 2388.03 1997.41C2387.57 1996.99 2387.34 1996.32 2387.34 1995.41V1958.69C2387.34 1958.48 2387.41 1958.29 2387.53 1958.12C2387.68 1957.96 2387.91 1957.82 2388.22 1957.72C2388.53 1957.61 2388.95 1957.53 2389.47 1957.47C2390.01 1957.41 2390.68 1957.38 2391.47 1957.38C2392.28 1957.38 2392.95 1957.41 2393.47 1957.47C2393.99 1957.53 2394.41 1957.61 2394.72 1957.72C2395.03 1957.82 2395.25 1957.96 2395.38 1958.12C2395.52 1958.29 2395.59 1958.48 2395.59 1958.69V1991.22H2408.31C2408.52 1991.22 2408.7 1991.28 2408.84 1991.41C2409.01 1991.51 2409.15 1991.7 2409.25 1991.97C2409.35 1992.22 2409.43 1992.56 2409.47 1993C2409.53 1993.42 2409.56 1993.94 2409.56 1994.56ZM2438.38 1985.88C2438.38 1988 2437.98 1989.86 2437.19 1991.47C2436.4 1993.07 2435.32 1994.42 2433.97 1995.5C2432.61 1996.56 2431.03 1997.36 2429.22 1997.91C2427.41 1998.45 2425.47 1998.72 2423.41 1998.72C2422.01 1998.72 2420.71 1998.6 2419.5 1998.38C2418.31 1998.15 2417.26 1997.88 2416.34 1997.56C2415.43 1997.23 2414.66 1996.89 2414.03 1996.53C2413.43 1996.18 2412.99 1995.86 2412.72 1995.59C2412.45 1995.32 2412.25 1994.94 2412.12 1994.44C2412.02 1993.92 2411.97 1993.18 2411.97 1992.22C2411.97 1991.57 2411.99 1991.03 2412.03 1990.59C2412.07 1990.16 2412.14 1989.8 2412.22 1989.53C2412.32 1989.26 2412.45 1989.07 2412.59 1988.97C2412.76 1988.84 2412.95 1988.78 2413.16 1988.78C2413.45 1988.78 2413.85 1988.96 2414.38 1989.31C2414.92 1989.65 2415.6 1990.02 2416.44 1990.44C2417.27 1990.85 2418.26 1991.24 2419.41 1991.59C2420.57 1991.93 2421.92 1992.09 2423.44 1992.09C2424.44 1992.09 2425.33 1991.98 2426.12 1991.75C2426.92 1991.5 2427.58 1991.16 2428.12 1990.72C2428.69 1990.28 2429.11 1989.74 2429.41 1989.09C2429.7 1988.45 2429.84 1987.73 2429.84 1986.94C2429.84 1986.02 2429.59 1985.24 2429.09 1984.59C2428.59 1983.93 2427.94 1983.34 2427.12 1982.84C2426.33 1982.32 2425.43 1981.84 2424.41 1981.41C2423.39 1980.95 2422.33 1980.47 2421.25 1979.97C2420.17 1979.47 2419.11 1978.91 2418.09 1978.28C2417.07 1977.64 2416.16 1976.88 2415.34 1976C2414.55 1975.1 2413.91 1974.05 2413.41 1972.84C2412.91 1971.64 2412.66 1970.19 2412.66 1968.5C2412.66 1966.56 2413.01 1964.86 2413.72 1963.41C2414.45 1961.93 2415.42 1960.71 2416.62 1959.75C2417.85 1958.77 2419.29 1958.04 2420.94 1957.56C2422.6 1957.08 2424.36 1956.84 2426.22 1956.84C2427.18 1956.84 2428.14 1956.92 2429.09 1957.06C2430.05 1957.21 2430.95 1957.41 2431.78 1957.66C2432.61 1957.91 2433.35 1958.19 2434 1958.5C2434.65 1958.81 2435.07 1959.07 2435.28 1959.28C2435.49 1959.49 2435.62 1959.67 2435.69 1959.81C2435.77 1959.96 2435.83 1960.16 2435.88 1960.41C2435.94 1960.64 2435.98 1960.94 2436 1961.31C2436.02 1961.67 2436.03 1962.11 2436.03 1962.66C2436.03 1963.26 2436.01 1963.77 2435.97 1964.19C2435.95 1964.6 2435.9 1964.95 2435.81 1965.22C2435.75 1965.49 2435.65 1965.69 2435.5 1965.81C2435.38 1965.94 2435.2 1966 2434.97 1966C2434.74 1966 2434.38 1965.85 2433.88 1965.56C2433.38 1965.27 2432.76 1964.96 2432.03 1964.62C2431.3 1964.27 2430.46 1963.96 2429.5 1963.69C2428.54 1963.4 2427.49 1963.25 2426.34 1963.25C2425.45 1963.25 2424.67 1963.36 2424 1963.59C2423.33 1963.8 2422.77 1964.1 2422.31 1964.5C2421.88 1964.88 2421.54 1965.33 2421.31 1965.88C2421.1 1966.42 2421 1966.99 2421 1967.59C2421 1968.49 2421.24 1969.27 2421.72 1969.94C2422.22 1970.58 2422.88 1971.17 2423.69 1971.69C2424.52 1972.19 2425.46 1972.67 2426.5 1973.12C2427.54 1973.56 2428.6 1974.03 2429.69 1974.53C2430.77 1975.03 2431.83 1975.6 2432.88 1976.25C2433.92 1976.88 2434.84 1977.64 2435.66 1978.53C2436.47 1979.41 2437.12 1980.45 2437.62 1981.66C2438.12 1982.84 2438.38 1984.25 2438.38 1985.88ZM2453.44 1992.25C2453.44 1993.08 2453.4 1993.84 2453.31 1994.53C2453.23 1995.2 2453.09 1995.83 2452.91 1996.44C2452.72 1997.04 2452.48 1997.62 2452.19 1998.19C2451.9 1998.77 2451.53 1999.36 2451.09 1999.97L2446.91 2005.97C2446.76 2006.18 2446.59 2006.35 2446.41 2006.5C2446.24 2006.65 2446.03 2006.76 2445.78 2006.84C2445.53 2006.93 2445.23 2006.99 2444.88 2007.03C2444.52 2007.09 2444.07 2007.12 2443.53 2007.12C2442.93 2007.12 2442.44 2007.09 2442.06 2007.03C2441.69 2006.99 2441.42 2006.92 2441.25 2006.81C2441.08 2006.71 2440.99 2006.57 2440.97 2006.41C2440.97 2006.24 2441.02 2006.04 2441.12 2005.81L2444.94 1997.19V1992.25C2444.94 1991.54 2445.02 1990.97 2445.19 1990.53C2445.35 1990.09 2445.61 1989.76 2445.97 1989.53C2446.32 1989.3 2446.77 1989.16 2447.31 1989.09C2447.85 1989.01 2448.51 1988.97 2449.28 1988.97C2450.01 1988.97 2450.64 1989.01 2451.16 1989.09C2451.68 1989.16 2452.1 1989.3 2452.44 1989.53C2452.79 1989.76 2453.04 1990.09 2453.19 1990.53C2453.35 1990.97 2453.44 1991.54 2453.44 1992.25ZM2483.91 1996.88C2483.91 1997.08 2483.83 1997.27 2483.69 1997.44C2483.56 1997.6 2483.34 1997.74 2483.03 1997.84C2482.72 1997.95 2482.3 1998.03 2481.78 1998.09C2481.26 1998.16 2480.59 1998.19 2479.78 1998.19C2478.99 1998.19 2478.32 1998.16 2477.78 1998.09C2477.26 1998.03 2476.84 1997.95 2476.53 1997.84C2476.22 1997.74 2475.99 1997.6 2475.84 1997.44C2475.72 1997.27 2475.66 1997.08 2475.66 1996.88V1958.69C2475.66 1958.48 2475.72 1958.29 2475.84 1958.12C2475.99 1957.96 2476.22 1957.82 2476.53 1957.72C2476.86 1957.61 2477.29 1957.53 2477.81 1957.47C2478.33 1957.41 2478.99 1957.38 2479.78 1957.38C2480.59 1957.38 2481.26 1957.41 2481.78 1957.47C2482.3 1957.53 2482.72 1957.61 2483.03 1957.72C2483.34 1957.82 2483.56 1957.96 2483.69 1958.12C2483.83 1958.29 2483.91 1958.48 2483.91 1958.69V1996.88ZM2516.69 1985.88C2516.69 1988 2516.29 1989.86 2515.5 1991.47C2514.71 1993.07 2513.64 1994.42 2512.28 1995.5C2510.93 1996.56 2509.34 1997.36 2507.53 1997.91C2505.72 1998.45 2503.78 1998.72 2501.72 1998.72C2500.32 1998.72 2499.02 1998.6 2497.81 1998.38C2496.62 1998.15 2495.57 1997.88 2494.66 1997.56C2493.74 1997.23 2492.97 1996.89 2492.34 1996.53C2491.74 1996.18 2491.3 1995.86 2491.03 1995.59C2490.76 1995.32 2490.56 1994.94 2490.44 1994.44C2490.33 1993.92 2490.28 1993.18 2490.28 1992.22C2490.28 1991.57 2490.3 1991.03 2490.34 1990.59C2490.39 1990.16 2490.45 1989.8 2490.53 1989.53C2490.64 1989.26 2490.76 1989.07 2490.91 1988.97C2491.07 1988.84 2491.26 1988.78 2491.47 1988.78C2491.76 1988.78 2492.17 1988.96 2492.69 1989.31C2493.23 1989.65 2493.92 1990.02 2494.75 1990.44C2495.58 1990.85 2496.57 1991.24 2497.72 1991.59C2498.89 1991.93 2500.23 1992.09 2501.75 1992.09C2502.75 1992.09 2503.65 1991.98 2504.44 1991.75C2505.23 1991.5 2505.9 1991.16 2506.44 1990.72C2507 1990.28 2507.43 1989.74 2507.72 1989.09C2508.01 1988.45 2508.16 1987.73 2508.16 1986.94C2508.16 1986.02 2507.91 1985.24 2507.41 1984.59C2506.91 1983.93 2506.25 1983.34 2505.44 1982.84C2504.65 1982.32 2503.74 1981.84 2502.72 1981.41C2501.7 1980.95 2500.65 1980.47 2499.56 1979.97C2498.48 1979.47 2497.43 1978.91 2496.41 1978.28C2495.39 1977.64 2494.47 1976.88 2493.66 1976C2492.86 1975.1 2492.22 1974.05 2491.72 1972.84C2491.22 1971.64 2490.97 1970.19 2490.97 1968.5C2490.97 1966.56 2491.32 1964.86 2492.03 1963.41C2492.76 1961.93 2493.73 1960.71 2494.94 1959.75C2496.17 1958.77 2497.6 1958.04 2499.25 1957.56C2500.92 1957.08 2502.68 1956.84 2504.53 1956.84C2505.49 1956.84 2506.45 1956.92 2507.41 1957.06C2508.36 1957.21 2509.26 1957.41 2510.09 1957.66C2510.93 1957.91 2511.67 1958.19 2512.31 1958.5C2512.96 1958.81 2513.39 1959.07 2513.59 1959.28C2513.8 1959.49 2513.94 1959.67 2514 1959.81C2514.08 1959.96 2514.15 1960.16 2514.19 1960.41C2514.25 1960.64 2514.29 1960.94 2514.31 1961.31C2514.33 1961.67 2514.34 1962.11 2514.34 1962.66C2514.34 1963.26 2514.32 1963.77 2514.28 1964.19C2514.26 1964.6 2514.21 1964.95 2514.12 1965.22C2514.06 1965.49 2513.96 1965.69 2513.81 1965.81C2513.69 1965.94 2513.51 1966 2513.28 1966C2513.05 1966 2512.69 1965.85 2512.19 1965.56C2511.69 1965.27 2511.07 1964.96 2510.34 1964.62C2509.61 1964.27 2508.77 1963.96 2507.81 1963.69C2506.85 1963.4 2505.8 1963.25 2504.66 1963.25C2503.76 1963.25 2502.98 1963.36 2502.31 1963.59C2501.65 1963.8 2501.08 1964.1 2500.62 1964.5C2500.19 1964.88 2499.85 1965.33 2499.62 1965.88C2499.42 1966.42 2499.31 1966.99 2499.31 1967.59C2499.31 1968.49 2499.55 1969.27 2500.03 1969.94C2500.53 1970.58 2501.19 1971.17 2502 1971.69C2502.83 1972.19 2503.77 1972.67 2504.81 1973.12C2505.85 1973.56 2506.92 1974.03 2508 1974.53C2509.08 1975.03 2510.15 1975.6 2511.19 1976.25C2512.23 1976.88 2513.16 1977.64 2513.97 1978.53C2514.78 1979.41 2515.44 1980.45 2515.94 1981.66C2516.44 1982.84 2516.69 1984.25 2516.69 1985.88ZM2550.94 1991.88C2550.94 1992.4 2550.92 1992.84 2550.88 1993.22C2550.85 1993.57 2550.81 1993.89 2550.75 1994.16C2550.69 1994.41 2550.6 1994.62 2550.5 1994.81C2550.4 1995 2550.23 1995.22 2550 1995.47C2549.77 1995.7 2549.32 1996 2548.66 1996.38C2548.01 1996.75 2547.21 1997.11 2546.25 1997.47C2545.31 1997.8 2544.23 1998.08 2543 1998.31C2541.79 1998.54 2540.48 1998.66 2539.06 1998.66C2536.29 1998.66 2533.79 1998.23 2531.56 1997.38C2529.33 1996.52 2527.44 1995.25 2525.88 1993.56C2524.31 1991.85 2523.11 1989.73 2522.28 1987.19C2521.45 1984.65 2521.03 1981.69 2521.03 1978.31C2521.03 1974.88 2521.49 1971.82 2522.41 1969.16C2523.32 1966.49 2524.6 1964.25 2526.25 1962.44C2527.9 1960.62 2529.86 1959.25 2532.16 1958.31C2534.47 1957.38 2537.01 1956.91 2539.78 1956.91C2540.91 1956.91 2541.99 1957 2543.03 1957.19C2544.07 1957.38 2545.03 1957.62 2545.91 1957.94C2546.8 1958.23 2547.6 1958.57 2548.31 1958.97C2549.02 1959.36 2549.51 1959.71 2549.78 1960C2550.07 1960.27 2550.27 1960.5 2550.38 1960.69C2550.48 1960.88 2550.56 1961.11 2550.62 1961.41C2550.69 1961.7 2550.73 1962.04 2550.75 1962.44C2550.79 1962.83 2550.81 1963.32 2550.81 1963.91C2550.81 1964.53 2550.79 1965.06 2550.75 1965.5C2550.71 1965.94 2550.64 1966.29 2550.53 1966.56C2550.43 1966.83 2550.3 1967.03 2550.16 1967.16C2550.01 1967.28 2549.84 1967.34 2549.66 1967.34C2549.34 1967.34 2548.95 1967.17 2548.47 1966.81C2547.99 1966.44 2547.36 1966.03 2546.59 1965.59C2545.84 1965.14 2544.94 1964.73 2543.88 1964.38C2542.83 1964 2541.58 1963.81 2540.12 1963.81C2538.52 1963.81 2537.08 1964.15 2535.81 1964.81C2534.56 1965.46 2533.49 1966.4 2532.59 1967.62C2531.72 1968.83 2531.05 1970.3 2530.59 1972.03C2530.14 1973.76 2529.91 1975.71 2529.91 1977.88C2529.91 1980.25 2530.15 1982.31 2530.62 1984.06C2531.12 1985.79 2531.82 1987.22 2532.72 1988.34C2533.64 1989.47 2534.73 1990.31 2536 1990.88C2537.29 1991.42 2538.74 1991.69 2540.34 1991.69C2541.8 1991.69 2543.06 1991.52 2544.12 1991.19C2545.19 1990.83 2546.09 1990.45 2546.84 1990.03C2547.61 1989.61 2548.24 1989.24 2548.72 1988.91C2549.22 1988.57 2549.6 1988.41 2549.88 1988.41C2550.08 1988.41 2550.25 1988.45 2550.38 1988.53C2550.5 1988.61 2550.6 1988.78 2550.69 1989.03C2550.77 1989.28 2550.83 1989.64 2550.88 1990.09C2550.92 1990.53 2550.94 1991.12 2550.94 1991.88ZM2603.97 1996.88C2603.97 1997.08 2603.91 1997.27 2603.78 1997.44C2603.68 1997.6 2603.47 1997.74 2603.16 1997.84C2602.86 1997.95 2602.47 1998.03 2601.97 1998.09C2601.47 1998.16 2600.83 1998.19 2600.06 1998.19C2599.31 1998.19 2598.69 1998.16 2598.19 1998.09C2597.69 1998.03 2597.29 1997.95 2597 1997.84C2596.71 1997.74 2596.5 1997.6 2596.38 1997.44C2596.25 1997.27 2596.19 1997.08 2596.19 1996.88V1963.97H2596.12L2584.41 1996.84C2584.32 1997.11 2584.19 1997.34 2584 1997.53C2583.81 1997.7 2583.55 1997.83 2583.22 1997.94C2582.91 1998.04 2582.5 1998.1 2582 1998.12C2581.5 1998.17 2580.9 1998.19 2580.19 1998.19C2579.48 1998.19 2578.88 1998.16 2578.38 1998.09C2577.88 1998.05 2577.46 1997.98 2577.12 1997.88C2576.81 1997.75 2576.56 1997.6 2576.38 1997.44C2576.19 1997.27 2576.06 1997.07 2576 1996.84L2564.69 1963.97H2564.62V1996.88C2564.62 1997.08 2564.56 1997.27 2564.44 1997.44C2564.33 1997.6 2564.12 1997.74 2563.81 1997.84C2563.5 1997.95 2563.09 1998.03 2562.59 1998.09C2562.11 1998.16 2561.49 1998.19 2560.72 1998.19C2559.97 1998.19 2559.34 1998.16 2558.84 1998.09C2558.34 1998.03 2557.94 1997.95 2557.62 1997.84C2557.33 1997.74 2557.12 1997.6 2557 1997.44C2556.9 1997.27 2556.84 1997.08 2556.84 1996.88V1960.84C2556.84 1959.78 2557.12 1958.97 2557.69 1958.41C2558.25 1957.84 2559 1957.56 2559.94 1957.56H2565.31C2566.27 1957.56 2567.09 1957.65 2567.78 1957.81C2568.47 1957.96 2569.06 1958.22 2569.56 1958.59C2570.06 1958.95 2570.48 1959.43 2570.81 1960.03C2571.15 1960.61 2571.44 1961.34 2571.69 1962.22L2580.44 1986.31H2580.56L2589.62 1962.28C2589.9 1961.41 2590.19 1960.67 2590.5 1960.06C2590.83 1959.46 2591.21 1958.97 2591.62 1958.59C2592.06 1958.22 2592.57 1957.96 2593.16 1957.81C2593.74 1957.65 2594.42 1957.56 2595.19 1957.56H2600.72C2601.28 1957.56 2601.76 1957.64 2602.16 1957.78C2602.57 1957.93 2602.91 1958.15 2603.16 1958.44C2603.43 1958.71 2603.62 1959.05 2603.75 1959.47C2603.9 1959.86 2603.97 1960.32 2603.97 1960.84V1996.88ZM2621.56 1992.25C2621.56 1993.08 2621.52 1993.84 2621.44 1994.53C2621.35 1995.2 2621.22 1995.83 2621.03 1996.44C2620.84 1997.04 2620.6 1997.62 2620.31 1998.19C2620.02 1998.77 2619.66 1999.36 2619.22 1999.97L2615.03 2005.97C2614.89 2006.18 2614.72 2006.35 2614.53 2006.5C2614.36 2006.65 2614.16 2006.76 2613.91 2006.84C2613.66 2006.93 2613.35 2006.99 2613 2007.03C2612.65 2007.09 2612.2 2007.12 2611.66 2007.12C2611.05 2007.12 2610.56 2007.09 2610.19 2007.03C2609.81 2006.99 2609.54 2006.92 2609.38 2006.81C2609.21 2006.71 2609.11 2006.57 2609.09 2006.41C2609.09 2006.24 2609.15 2006.04 2609.25 2005.81L2613.06 1997.19V1992.25C2613.06 1991.54 2613.15 1990.97 2613.31 1990.53C2613.48 1990.09 2613.74 1989.76 2614.09 1989.53C2614.45 1989.3 2614.9 1989.16 2615.44 1989.09C2615.98 1989.01 2616.64 1988.97 2617.41 1988.97C2618.14 1988.97 2618.76 1989.01 2619.28 1989.09C2619.8 1989.16 2620.23 1989.3 2620.56 1989.53C2620.92 1989.76 2621.17 1990.09 2621.31 1990.53C2621.48 1990.97 2621.56 1991.54 2621.56 1992.25ZM2677.12 1995.12C2677.12 1995.6 2677.04 1996.03 2676.88 1996.41C2676.71 1996.78 2676.48 1997.09 2676.19 1997.34C2675.92 1997.59 2675.58 1997.78 2675.19 1997.91C2674.81 1998.01 2674.43 1998.06 2674.03 1998.06H2670.53C2669.8 1998.06 2669.17 1997.99 2668.62 1997.84C2668.1 1997.7 2667.61 1997.44 2667.16 1997.06C2666.72 1996.67 2666.29 1996.15 2665.88 1995.5C2665.46 1994.83 2664.99 1993.98 2664.47 1992.94L2654.41 1974.03C2653.82 1972.91 2653.23 1971.7 2652.62 1970.41C2652.02 1969.09 2651.48 1967.82 2651 1966.59H2650.94C2651.02 1968.09 2651.08 1969.59 2651.12 1971.09C2651.17 1972.57 2651.19 1974.1 2651.19 1975.69V1996.84C2651.19 1997.05 2651.12 1997.24 2651 1997.41C2650.9 1997.57 2650.7 1997.72 2650.41 1997.84C2650.14 1997.95 2649.76 1998.03 2649.28 1998.09C2648.8 1998.16 2648.19 1998.19 2647.44 1998.19C2646.71 1998.19 2646.1 1998.16 2645.62 1998.09C2645.15 1998.03 2644.77 1997.95 2644.5 1997.84C2644.23 1997.72 2644.04 1997.57 2643.94 1997.41C2643.83 1997.24 2643.78 1997.05 2643.78 1996.84V1960.5C2643.78 1959.52 2644.06 1958.79 2644.62 1958.31C2645.21 1957.81 2645.92 1957.56 2646.75 1957.56H2651.16C2651.95 1957.56 2652.61 1957.64 2653.16 1957.78C2653.7 1957.91 2654.18 1958.12 2654.59 1958.44C2655.03 1958.75 2655.44 1959.19 2655.81 1959.75C2656.19 1960.29 2656.57 1960.97 2656.97 1961.78L2664.84 1976.56C2665.3 1977.46 2665.75 1978.34 2666.19 1979.22C2666.65 1980.07 2667.08 1980.94 2667.5 1981.81C2667.92 1982.67 2668.32 1983.51 2668.72 1984.34C2669.11 1985.18 2669.5 1986.01 2669.88 1986.84H2669.91C2669.84 1985.39 2669.79 1983.86 2669.75 1982.28C2669.73 1980.7 2669.72 1979.19 2669.72 1977.75V1958.78C2669.72 1958.57 2669.78 1958.39 2669.91 1958.22C2670.03 1958.05 2670.24 1957.91 2670.53 1957.78C2670.82 1957.66 2671.21 1957.57 2671.69 1957.53C2672.17 1957.47 2672.78 1957.44 2673.53 1957.44C2674.24 1957.44 2674.83 1957.47 2675.31 1957.53C2675.79 1957.57 2676.16 1957.66 2676.41 1957.78C2676.68 1957.91 2676.86 1958.05 2676.97 1958.22C2677.07 1958.39 2677.12 1958.57 2677.12 1958.78V1995.12ZM2713.94 1991.88C2713.94 1992.4 2713.92 1992.84 2713.88 1993.22C2713.85 1993.57 2713.81 1993.89 2713.75 1994.16C2713.69 1994.41 2713.6 1994.62 2713.5 1994.81C2713.4 1995 2713.23 1995.22 2713 1995.47C2712.77 1995.7 2712.32 1996 2711.66 1996.38C2711.01 1996.75 2710.21 1997.11 2709.25 1997.47C2708.31 1997.8 2707.23 1998.08 2706 1998.31C2704.79 1998.54 2703.48 1998.66 2702.06 1998.66C2699.29 1998.66 2696.79 1998.23 2694.56 1997.38C2692.33 1996.52 2690.44 1995.25 2688.88 1993.56C2687.31 1991.85 2686.11 1989.73 2685.28 1987.19C2684.45 1984.65 2684.03 1981.69 2684.03 1978.31C2684.03 1974.88 2684.49 1971.82 2685.41 1969.16C2686.32 1966.49 2687.6 1964.25 2689.25 1962.44C2690.9 1960.62 2692.86 1959.25 2695.16 1958.31C2697.47 1957.38 2700.01 1956.91 2702.78 1956.91C2703.91 1956.91 2704.99 1957 2706.03 1957.19C2707.07 1957.38 2708.03 1957.62 2708.91 1957.94C2709.8 1958.23 2710.6 1958.57 2711.31 1958.97C2712.02 1959.36 2712.51 1959.71 2712.78 1960C2713.07 1960.27 2713.27 1960.5 2713.38 1960.69C2713.48 1960.88 2713.56 1961.11 2713.62 1961.41C2713.69 1961.7 2713.73 1962.04 2713.75 1962.44C2713.79 1962.83 2713.81 1963.32 2713.81 1963.91C2713.81 1964.53 2713.79 1965.06 2713.75 1965.5C2713.71 1965.94 2713.64 1966.29 2713.53 1966.56C2713.43 1966.83 2713.3 1967.03 2713.16 1967.16C2713.01 1967.28 2712.84 1967.34 2712.66 1967.34C2712.34 1967.34 2711.95 1967.17 2711.47 1966.81C2710.99 1966.44 2710.36 1966.03 2709.59 1965.59C2708.84 1965.14 2707.94 1964.73 2706.88 1964.38C2705.83 1964 2704.58 1963.81 2703.12 1963.81C2701.52 1963.81 2700.08 1964.15 2698.81 1964.81C2697.56 1965.46 2696.49 1966.4 2695.59 1967.62C2694.72 1968.83 2694.05 1970.3 2693.59 1972.03C2693.14 1973.76 2692.91 1975.71 2692.91 1977.88C2692.91 1980.25 2693.15 1982.31 2693.62 1984.06C2694.12 1985.79 2694.82 1987.22 2695.72 1988.34C2696.64 1989.47 2697.73 1990.31 2699 1990.88C2700.29 1991.42 2701.74 1991.69 2703.34 1991.69C2704.8 1991.69 2706.06 1991.52 2707.12 1991.19C2708.19 1990.83 2709.09 1990.45 2709.84 1990.03C2710.61 1989.61 2711.24 1989.24 2711.72 1988.91C2712.22 1988.57 2712.6 1988.41 2712.88 1988.41C2713.08 1988.41 2713.25 1988.45 2713.38 1988.53C2713.5 1988.61 2713.6 1988.78 2713.69 1989.03C2713.77 1989.28 2713.83 1989.64 2713.88 1990.09C2713.92 1990.53 2713.94 1991.12 2713.94 1991.88ZM2728.09 1996.88C2728.09 1997.08 2728.02 1997.27 2727.88 1997.44C2727.75 1997.6 2727.53 1997.74 2727.22 1997.84C2726.91 1997.95 2726.49 1998.03 2725.97 1998.09C2725.45 1998.16 2724.78 1998.19 2723.97 1998.19C2723.18 1998.19 2722.51 1998.16 2721.97 1998.09C2721.45 1998.03 2721.03 1997.95 2720.72 1997.84C2720.41 1997.74 2720.18 1997.6 2720.03 1997.44C2719.91 1997.27 2719.84 1997.08 2719.84 1996.88V1958.69C2719.84 1958.48 2719.91 1958.29 2720.03 1958.12C2720.18 1957.96 2720.41 1957.82 2720.72 1957.72C2721.05 1957.61 2721.48 1957.53 2722 1957.47C2722.52 1957.41 2723.18 1957.38 2723.97 1957.38C2724.78 1957.38 2725.45 1957.41 2725.97 1957.47C2726.49 1957.53 2726.91 1957.61 2727.22 1957.72C2727.53 1957.82 2727.75 1957.96 2727.88 1958.12C2728.02 1958.29 2728.09 1958.48 2728.09 1958.69V1996.88ZM2745.16 1996.88C2745.16 1997.08 2745.08 1997.27 2744.94 1997.44C2744.81 1997.6 2744.59 1997.74 2744.28 1997.84C2743.97 1997.95 2743.55 1998.03 2743.03 1998.09C2742.51 1998.16 2741.84 1998.19 2741.03 1998.19C2740.24 1998.19 2739.57 1998.16 2739.03 1998.09C2738.51 1998.03 2738.09 1997.95 2737.78 1997.84C2737.47 1997.74 2737.24 1997.6 2737.09 1997.44C2736.97 1997.27 2736.91 1997.08 2736.91 1996.88V1958.69C2736.91 1958.48 2736.97 1958.29 2737.09 1958.12C2737.24 1957.96 2737.47 1957.82 2737.78 1957.72C2738.11 1957.61 2738.54 1957.53 2739.06 1957.47C2739.58 1957.41 2740.24 1957.38 2741.03 1957.38C2741.84 1957.38 2742.51 1957.41 2743.03 1957.47C2743.55 1957.53 2743.97 1957.61 2744.28 1957.72C2744.59 1957.82 2744.81 1957.96 2744.94 1958.12C2745.08 1958.29 2745.16 1958.48 2745.16 1958.69V1996.88ZM2762.75 1992.25C2762.75 1993.08 2762.71 1993.84 2762.62 1994.53C2762.54 1995.2 2762.41 1995.83 2762.22 1996.44C2762.03 1997.04 2761.79 1997.62 2761.5 1998.19C2761.21 1998.77 2760.84 1999.36 2760.41 1999.97L2756.22 2005.97C2756.07 2006.18 2755.91 2006.35 2755.72 2006.5C2755.55 2006.65 2755.34 2006.76 2755.09 2006.84C2754.84 2006.93 2754.54 2006.99 2754.19 2007.03C2753.83 2007.09 2753.39 2007.12 2752.84 2007.12C2752.24 2007.12 2751.75 2007.09 2751.38 2007.03C2751 2006.99 2750.73 2006.92 2750.56 2006.81C2750.4 2006.71 2750.3 2006.57 2750.28 2006.41C2750.28 2006.24 2750.33 2006.04 2750.44 2005.81L2754.25 1997.19V1992.25C2754.25 1991.54 2754.33 1990.97 2754.5 1990.53C2754.67 1990.09 2754.93 1989.76 2755.28 1989.53C2755.64 1989.3 2756.08 1989.16 2756.62 1989.09C2757.17 1989.01 2757.82 1988.97 2758.59 1988.97C2759.32 1988.97 2759.95 1989.01 2760.47 1989.09C2760.99 1989.16 2761.42 1989.3 2761.75 1989.53C2762.1 1989.76 2762.35 1990.09 2762.5 1990.53C2762.67 1990.97 2762.75 1991.54 2762.75 1992.25ZM2832.09 1996.88C2832.09 1997.08 2832.03 1997.27 2831.91 1997.44C2831.8 1997.6 2831.59 1997.74 2831.28 1997.84C2830.99 1997.95 2830.59 1998.03 2830.09 1998.09C2829.59 1998.16 2828.96 1998.19 2828.19 1998.19C2827.44 1998.19 2826.81 1998.16 2826.31 1998.09C2825.81 1998.03 2825.42 1997.95 2825.12 1997.84C2824.83 1997.74 2824.62 1997.6 2824.5 1997.44C2824.38 1997.27 2824.31 1997.08 2824.31 1996.88V1963.97H2824.25L2812.53 1996.84C2812.45 1997.11 2812.31 1997.34 2812.12 1997.53C2811.94 1997.7 2811.68 1997.83 2811.34 1997.94C2811.03 1998.04 2810.62 1998.1 2810.12 1998.12C2809.62 1998.17 2809.02 1998.19 2808.31 1998.19C2807.6 1998.19 2807 1998.16 2806.5 1998.09C2806 1998.05 2805.58 1997.98 2805.25 1997.88C2804.94 1997.75 2804.69 1997.6 2804.5 1997.44C2804.31 1997.27 2804.19 1997.07 2804.12 1996.84L2792.81 1963.97H2792.75V1996.88C2792.75 1997.08 2792.69 1997.27 2792.56 1997.44C2792.46 1997.6 2792.25 1997.74 2791.94 1997.84C2791.62 1997.95 2791.22 1998.03 2790.72 1998.09C2790.24 1998.16 2789.61 1998.19 2788.84 1998.19C2788.09 1998.19 2787.47 1998.16 2786.97 1998.09C2786.47 1998.03 2786.06 1997.95 2785.75 1997.84C2785.46 1997.74 2785.25 1997.6 2785.12 1997.44C2785.02 1997.27 2784.97 1997.08 2784.97 1996.88V1960.84C2784.97 1959.78 2785.25 1958.97 2785.81 1958.41C2786.38 1957.84 2787.12 1957.56 2788.06 1957.56H2793.44C2794.4 1957.56 2795.22 1957.65 2795.91 1957.81C2796.59 1957.96 2797.19 1958.22 2797.69 1958.59C2798.19 1958.95 2798.6 1959.43 2798.94 1960.03C2799.27 1960.61 2799.56 1961.34 2799.81 1962.22L2808.56 1986.31H2808.69L2817.75 1962.28C2818.02 1961.41 2818.31 1960.67 2818.62 1960.06C2818.96 1959.46 2819.33 1958.97 2819.75 1958.59C2820.19 1958.22 2820.7 1957.96 2821.28 1957.81C2821.86 1957.65 2822.54 1957.56 2823.31 1957.56H2828.84C2829.41 1957.56 2829.89 1957.64 2830.28 1957.78C2830.7 1957.93 2831.03 1958.15 2831.28 1958.44C2831.55 1958.71 2831.75 1959.05 2831.88 1959.47C2832.02 1959.86 2832.09 1960.32 2832.09 1960.84V1996.88ZM2888.03 1996.88C2888.03 1997.08 2887.97 1997.27 2887.84 1997.44C2887.74 1997.6 2887.53 1997.74 2887.22 1997.84C2886.93 1997.95 2886.53 1998.03 2886.03 1998.09C2885.53 1998.16 2884.9 1998.19 2884.12 1998.19C2883.38 1998.19 2882.75 1998.16 2882.25 1998.09C2881.75 1998.03 2881.35 1997.95 2881.06 1997.84C2880.77 1997.74 2880.56 1997.6 2880.44 1997.44C2880.31 1997.27 2880.25 1997.08 2880.25 1996.88V1963.97H2880.19L2868.47 1996.84C2868.39 1997.11 2868.25 1997.34 2868.06 1997.53C2867.88 1997.7 2867.61 1997.83 2867.28 1997.94C2866.97 1998.04 2866.56 1998.1 2866.06 1998.12C2865.56 1998.17 2864.96 1998.19 2864.25 1998.19C2863.54 1998.19 2862.94 1998.16 2862.44 1998.09C2861.94 1998.05 2861.52 1997.98 2861.19 1997.88C2860.88 1997.75 2860.62 1997.6 2860.44 1997.44C2860.25 1997.27 2860.12 1997.07 2860.06 1996.84L2848.75 1963.97H2848.69V1996.88C2848.69 1997.08 2848.62 1997.27 2848.5 1997.44C2848.4 1997.6 2848.19 1997.74 2847.88 1997.84C2847.56 1997.95 2847.16 1998.03 2846.66 1998.09C2846.18 1998.16 2845.55 1998.19 2844.78 1998.19C2844.03 1998.19 2843.41 1998.16 2842.91 1998.09C2842.41 1998.03 2842 1997.95 2841.69 1997.84C2841.4 1997.74 2841.19 1997.6 2841.06 1997.44C2840.96 1997.27 2840.91 1997.08 2840.91 1996.88V1960.84C2840.91 1959.78 2841.19 1958.97 2841.75 1958.41C2842.31 1957.84 2843.06 1957.56 2844 1957.56H2849.38C2850.33 1957.56 2851.16 1957.65 2851.84 1957.81C2852.53 1957.96 2853.12 1958.22 2853.62 1958.59C2854.12 1958.95 2854.54 1959.43 2854.88 1960.03C2855.21 1960.61 2855.5 1961.34 2855.75 1962.22L2864.5 1986.31H2864.62L2873.69 1962.28C2873.96 1961.41 2874.25 1960.67 2874.56 1960.06C2874.9 1959.46 2875.27 1958.97 2875.69 1958.59C2876.12 1958.22 2876.64 1957.96 2877.22 1957.81C2877.8 1957.65 2878.48 1957.56 2879.25 1957.56H2884.78C2885.34 1957.56 2885.82 1957.64 2886.22 1957.78C2886.64 1957.93 2886.97 1958.15 2887.22 1958.44C2887.49 1958.71 2887.69 1959.05 2887.81 1959.47C2887.96 1959.86 2888.03 1960.32 2888.03 1960.84V1996.88ZM2930.44 1977.19C2930.44 1980.9 2929.95 1984.07 2928.97 1986.72C2928.01 1989.34 2926.62 1991.49 2924.81 1993.16C2923 1994.82 2920.79 1996.05 2918.19 1996.84C2915.6 1997.61 2912.52 1998 2908.94 1998H2899.28C2898.59 1998 2898.01 1997.8 2897.53 1997.41C2897.07 1996.99 2896.84 1996.32 2896.84 1995.41V1960.16C2896.84 1959.24 2897.07 1958.58 2897.53 1958.19C2898.01 1957.77 2898.59 1957.56 2899.28 1957.56H2909.66C2913.26 1957.56 2916.31 1957.99 2918.81 1958.84C2921.33 1959.68 2923.45 1960.93 2925.16 1962.59C2926.89 1964.24 2928.2 1966.28 2929.09 1968.72C2929.99 1971.16 2930.44 1973.98 2930.44 1977.19ZM2921.94 1977.47C2921.94 1975.55 2921.71 1973.77 2921.25 1972.12C2920.81 1970.48 2920.09 1969.05 2919.09 1967.84C2918.11 1966.64 2916.84 1965.7 2915.28 1965.03C2913.74 1964.34 2911.71 1964 2909.19 1964H2905.03V1991.5H2909.31C2911.56 1991.5 2913.46 1991.21 2915 1990.62C2916.54 1990.04 2917.82 1989.17 2918.84 1988C2919.89 1986.81 2920.66 1985.34 2921.16 1983.59C2921.68 1981.84 2921.94 1979.8 2921.94 1977.47ZM2967.22 1996.94C2967.22 1997.17 2967.18 1997.36 2967.09 1997.53C2967.01 1997.68 2966.81 1997.8 2966.5 1997.91C2966.19 1998.01 2965.73 1998.08 2965.12 1998.12C2964.52 1998.17 2963.7 1998.19 2962.66 1998.19C2961.78 1998.19 2961.08 1998.17 2960.56 1998.12C2960.04 1998.08 2959.62 1998.01 2959.31 1997.91C2959.02 1997.78 2958.81 1997.64 2958.69 1997.47C2958.56 1997.28 2958.46 1997.06 2958.38 1996.81L2954.75 1987.78C2954.31 1986.76 2953.89 1985.85 2953.47 1985.06C2953.05 1984.27 2952.58 1983.61 2952.06 1983.09C2951.56 1982.55 2950.98 1982.15 2950.31 1981.88C2949.65 1981.6 2948.88 1981.47 2948 1981.47H2945.44V1996.88C2945.44 1997.08 2945.36 1997.27 2945.22 1997.44C2945.09 1997.6 2944.88 1997.74 2944.56 1997.84C2944.25 1997.95 2943.83 1998.03 2943.31 1998.09C2942.79 1998.16 2942.12 1998.19 2941.31 1998.19C2940.52 1998.19 2939.85 1998.16 2939.31 1998.09C2938.79 1998.03 2938.38 1997.95 2938.06 1997.84C2937.75 1997.74 2937.53 1997.6 2937.41 1997.44C2937.28 1997.27 2937.22 1997.08 2937.22 1996.88V1960.16C2937.22 1959.24 2937.45 1958.58 2937.91 1958.19C2938.39 1957.77 2938.97 1957.56 2939.66 1957.56H2950.12C2951.19 1957.56 2952.06 1957.58 2952.75 1957.62C2953.44 1957.67 2954.06 1957.72 2954.62 1957.78C2956.25 1958.01 2957.71 1958.41 2959 1958.97C2960.31 1959.53 2961.42 1960.27 2962.31 1961.19C2963.23 1962.08 2963.93 1963.16 2964.41 1964.41C2964.89 1965.64 2965.12 1967.05 2965.12 1968.66C2965.12 1970.01 2964.95 1971.25 2964.59 1972.38C2964.26 1973.48 2963.76 1974.47 2963.09 1975.34C2962.43 1976.22 2961.6 1976.98 2960.62 1977.62C2959.65 1978.27 2958.53 1978.79 2957.28 1979.19C2957.89 1979.48 2958.45 1979.83 2958.97 1980.25C2959.51 1980.67 2960.01 1981.18 2960.47 1981.78C2960.95 1982.36 2961.4 1983.04 2961.81 1983.81C2962.23 1984.56 2962.64 1985.42 2963.03 1986.38L2966.44 1994.34C2966.75 1995.14 2966.96 1995.72 2967.06 1996.09C2967.17 1996.45 2967.22 1996.73 2967.22 1996.94ZM2956.62 1969.5C2956.62 1968.17 2956.32 1967.04 2955.72 1966.12C2955.11 1965.21 2954.12 1964.56 2952.75 1964.19C2952.33 1964.08 2951.85 1964 2951.31 1963.94C2950.79 1963.88 2950.06 1963.84 2949.12 1963.84H2945.44V1975.31H2949.62C2950.79 1975.31 2951.81 1975.18 2952.69 1974.91C2953.56 1974.61 2954.29 1974.22 2954.88 1973.72C2955.46 1973.2 2955.9 1972.58 2956.19 1971.88C2956.48 1971.17 2956.62 1970.38 2956.62 1969.5ZM3003.28 1996.94C3003.28 1997.17 3003.24 1997.36 3003.16 1997.53C3003.07 1997.68 3002.88 1997.8 3002.56 1997.91C3002.25 1998.01 3001.79 1998.08 3001.19 1998.12C3000.58 1998.17 2999.76 1998.19 2998.72 1998.19C2997.84 1998.19 2997.15 1998.17 2996.62 1998.12C2996.1 1998.08 2995.69 1998.01 2995.38 1997.91C2995.08 1997.78 2994.88 1997.64 2994.75 1997.47C2994.62 1997.28 2994.52 1997.06 2994.44 1996.81L2990.81 1987.78C2990.38 1986.76 2989.95 1985.85 2989.53 1985.06C2989.11 1984.27 2988.65 1983.61 2988.12 1983.09C2987.62 1982.55 2987.04 1982.15 2986.38 1981.88C2985.71 1981.6 2984.94 1981.47 2984.06 1981.47H2981.5V1996.88C2981.5 1997.08 2981.43 1997.27 2981.28 1997.44C2981.16 1997.6 2980.94 1997.74 2980.62 1997.84C2980.31 1997.95 2979.9 1998.03 2979.38 1998.09C2978.85 1998.16 2978.19 1998.19 2977.38 1998.19C2976.58 1998.19 2975.92 1998.16 2975.38 1998.09C2974.85 1998.03 2974.44 1997.95 2974.12 1997.84C2973.81 1997.74 2973.59 1997.6 2973.47 1997.44C2973.34 1997.27 2973.28 1997.08 2973.28 1996.88V1960.16C2973.28 1959.24 2973.51 1958.58 2973.97 1958.19C2974.45 1957.77 2975.03 1957.56 2975.72 1957.56H2986.19C2987.25 1957.56 2988.12 1957.58 2988.81 1957.62C2989.5 1957.67 2990.12 1957.72 2990.69 1957.78C2992.31 1958.01 2993.77 1958.41 2995.06 1958.97C2996.38 1959.53 2997.48 1960.27 2998.38 1961.19C2999.29 1962.08 2999.99 1963.16 3000.47 1964.41C3000.95 1965.64 3001.19 1967.05 3001.19 1968.66C3001.19 1970.01 3001.01 1971.25 3000.66 1972.38C3000.32 1973.48 2999.82 1974.47 2999.16 1975.34C2998.49 1976.22 2997.67 1976.98 2996.69 1977.62C2995.71 1978.27 2994.59 1978.79 2993.34 1979.19C2993.95 1979.48 2994.51 1979.83 2995.03 1980.25C2995.57 1980.67 2996.07 1981.18 2996.53 1981.78C2997.01 1982.36 2997.46 1983.04 2997.88 1983.81C2998.29 1984.56 2998.7 1985.42 2999.09 1986.38L3002.5 1994.34C3002.81 1995.14 3003.02 1995.72 3003.12 1996.09C3003.23 1996.45 3003.28 1996.73 3003.28 1996.94ZM2992.69 1969.5C2992.69 1968.17 2992.39 1967.04 2991.78 1966.12C2991.18 1965.21 2990.19 1964.56 2988.81 1964.19C2988.4 1964.08 2987.92 1964 2987.38 1963.94C2986.85 1963.88 2986.12 1963.84 2985.19 1963.84H2981.5V1975.31H2985.69C2986.85 1975.31 2987.88 1975.18 2988.75 1974.91C2989.62 1974.61 2990.35 1974.22 2990.94 1973.72C2991.52 1973.2 2991.96 1972.58 2992.25 1971.88C2992.54 1971.17 2992.69 1970.38 2992.69 1969.5ZM3056.47 1996.88C3056.47 1997.08 3056.41 1997.27 3056.28 1997.44C3056.18 1997.6 3055.97 1997.74 3055.66 1997.84C3055.36 1997.95 3054.97 1998.03 3054.47 1998.09C3053.97 1998.16 3053.33 1998.19 3052.56 1998.19C3051.81 1998.19 3051.19 1998.16 3050.69 1998.09C3050.19 1998.03 3049.79 1997.95 3049.5 1997.84C3049.21 1997.74 3049 1997.6 3048.88 1997.44C3048.75 1997.27 3048.69 1997.08 3048.69 1996.88V1963.97H3048.62L3036.91 1996.84C3036.82 1997.11 3036.69 1997.34 3036.5 1997.53C3036.31 1997.7 3036.05 1997.83 3035.72 1997.94C3035.41 1998.04 3035 1998.1 3034.5 1998.12C3034 1998.17 3033.4 1998.19 3032.69 1998.19C3031.98 1998.19 3031.38 1998.16 3030.88 1998.09C3030.38 1998.05 3029.96 1997.98 3029.62 1997.88C3029.31 1997.75 3029.06 1997.6 3028.88 1997.44C3028.69 1997.27 3028.56 1997.07 3028.5 1996.84L3017.19 1963.97H3017.12V1996.88C3017.12 1997.08 3017.06 1997.27 3016.94 1997.44C3016.83 1997.6 3016.62 1997.74 3016.31 1997.84C3016 1997.95 3015.59 1998.03 3015.09 1998.09C3014.61 1998.16 3013.99 1998.19 3013.22 1998.19C3012.47 1998.19 3011.84 1998.16 3011.34 1998.09C3010.84 1998.03 3010.44 1997.95 3010.12 1997.84C3009.83 1997.74 3009.62 1997.6 3009.5 1997.44C3009.4 1997.27 3009.34 1997.08 3009.34 1996.88V1960.84C3009.34 1959.78 3009.62 1958.97 3010.19 1958.41C3010.75 1957.84 3011.5 1957.56 3012.44 1957.56H3017.81C3018.77 1957.56 3019.59 1957.65 3020.28 1957.81C3020.97 1957.96 3021.56 1958.22 3022.06 1958.59C3022.56 1958.95 3022.98 1959.43 3023.31 1960.03C3023.65 1960.61 3023.94 1961.34 3024.19 1962.22L3032.94 1986.31H3033.06L3042.12 1962.28C3042.4 1961.41 3042.69 1960.67 3043 1960.06C3043.33 1959.46 3043.71 1958.97 3044.12 1958.59C3044.56 1958.22 3045.07 1957.96 3045.66 1957.81C3046.24 1957.65 3046.92 1957.56 3047.69 1957.56H3053.22C3053.78 1957.56 3054.26 1957.64 3054.66 1957.78C3055.07 1957.93 3055.41 1958.15 3055.66 1958.44C3055.93 1958.71 3056.12 1959.05 3056.25 1959.47C3056.4 1959.86 3056.47 1960.32 3056.47 1960.84V1996.88ZM3093.25 1991.88C3093.25 1992.4 3093.23 1992.84 3093.19 1993.22C3093.17 1993.57 3093.12 1993.89 3093.06 1994.16C3093 1994.41 3092.92 1994.62 3092.81 1994.81C3092.71 1995 3092.54 1995.22 3092.31 1995.47C3092.08 1995.7 3091.64 1996 3090.97 1996.38C3090.32 1996.75 3089.52 1997.11 3088.56 1997.47C3087.62 1997.8 3086.54 1998.08 3085.31 1998.31C3084.1 1998.54 3082.79 1998.66 3081.38 1998.66C3078.6 1998.66 3076.1 1998.23 3073.88 1997.38C3071.65 1996.52 3069.75 1995.25 3068.19 1993.56C3066.62 1991.85 3065.43 1989.73 3064.59 1987.19C3063.76 1984.65 3063.34 1981.69 3063.34 1978.31C3063.34 1974.88 3063.8 1971.82 3064.72 1969.16C3065.64 1966.49 3066.92 1964.25 3068.56 1962.44C3070.21 1960.62 3072.18 1959.25 3074.47 1958.31C3076.78 1957.38 3079.32 1956.91 3082.09 1956.91C3083.22 1956.91 3084.3 1957 3085.34 1957.19C3086.39 1957.38 3087.34 1957.62 3088.22 1957.94C3089.11 1958.23 3089.92 1958.57 3090.62 1958.97C3091.33 1959.36 3091.82 1959.71 3092.09 1960C3092.39 1960.27 3092.58 1960.5 3092.69 1960.69C3092.79 1960.88 3092.88 1961.11 3092.94 1961.41C3093 1961.7 3093.04 1962.04 3093.06 1962.44C3093.1 1962.83 3093.12 1963.32 3093.12 1963.91C3093.12 1964.53 3093.1 1965.06 3093.06 1965.5C3093.02 1965.94 3092.95 1966.29 3092.84 1966.56C3092.74 1966.83 3092.61 1967.03 3092.47 1967.16C3092.32 1967.28 3092.16 1967.34 3091.97 1967.34C3091.66 1967.34 3091.26 1967.17 3090.78 1966.81C3090.3 1966.44 3089.68 1966.03 3088.91 1965.59C3088.16 1965.14 3087.25 1964.73 3086.19 1964.38C3085.15 1964 3083.9 1963.81 3082.44 1963.81C3080.83 1963.81 3079.4 1964.15 3078.12 1964.81C3076.88 1965.46 3075.8 1966.4 3074.91 1967.62C3074.03 1968.83 3073.36 1970.3 3072.91 1972.03C3072.45 1973.76 3072.22 1975.71 3072.22 1977.88C3072.22 1980.25 3072.46 1982.31 3072.94 1984.06C3073.44 1985.79 3074.14 1987.22 3075.03 1988.34C3075.95 1989.47 3077.04 1990.31 3078.31 1990.88C3079.6 1991.42 3081.05 1991.69 3082.66 1991.69C3084.11 1991.69 3085.38 1991.52 3086.44 1991.19C3087.5 1990.83 3088.41 1990.45 3089.16 1990.03C3089.93 1989.61 3090.55 1989.24 3091.03 1988.91C3091.53 1988.57 3091.92 1988.41 3092.19 1988.41C3092.4 1988.41 3092.56 1988.45 3092.69 1988.53C3092.81 1988.61 3092.92 1988.78 3093 1989.03C3093.08 1989.28 3093.15 1989.64 3093.19 1990.09C3093.23 1990.53 3093.25 1991.12 3093.25 1991.88Z" fill="black"/>
</svg>
